ISO-10303-21;
HEADER;
FILE_DESCRIPTION(('FreeCAD Model'),'2;1');
FILE_NAME('Open CASCADE Shape Model','2026-09-01T22:22:05',('Author'),(
    ''),'Open CASCADE STEP processor 7.9','FreeCAD','Unknown');
FILE_SCHEMA(('AUTOMOTIVE_DESIGN { 1 0 10303 214 1 1 1 1 }'));
ENDSEC;
DATA;
#1 = APPLICATION_PROTOCOL_DEFINITION('international standard',
  'automotive_design',2000,#2);
#2 = APPLICATION_CONTEXT(
  'core data for automotive mechanical design processes');
#3 = SHAPE_DEFINITION_REPRESENTATION(#4,#10);
#4 = PRODUCT_DEFINITION_SHAPE('','',#5);
#5 = PRODUCT_DEFINITION('design','',#6,#9);
#6 = PRODUCT_DEFINITION_FORMATION('','',#7);
#7 = PRODUCT('42-34 motor_Y-Axis','42-34 motor_Y-Axis','',(#8));
#8 = PRODUCT_CONTEXT('',#2,'mechanical');
#9 = PRODUCT_DEFINITION_CONTEXT('part definition',#2,'design');
#10 = ADVANCED_BREP_SHAPE_REPRESENTATION('',(#11,#15),#1993);
#11 = AXIS2_PLACEMENT_3D('',#12,#13,#14);
#12 = CARTESIAN_POINT('',(0.,0.,0.));
#13 = DIRECTION('',(0.,0.,1.));
#14 = DIRECTION('',(1.,0.,-0.));
#15 = MANIFOLD_SOLID_BREP('',#16);
#16 = CLOSED_SHELL('',(#17,#59,#101,#143,#185,#227,#269,#311,#353,#395,
    #437,#479,#521,#547,#587,#618,#649,#680,#711,#742,#773,#795,#861,
    #879,#897,#915,#933,#951,#971,#981,#991,#1001,#1011,#1029,#1049,
    #1061,#1079,#1119,#1205,#1354,#1376,#1393,#1410,#1427,#1444,#1461,
    #1478,#1490,#1506,#1522,#1538,#1554,#1572,#1590,#1608,#1626,#1666,
    #1777,#1799,#1816,#1833,#1850,#1867,#1884,#1901,#1919,#1941,#1959,
    #1971,#1983));
#17 = ADVANCED_FACE('',(#18),#54,.F.);
#18 = FACE_BOUND('',#19,.F.);
#19 = EDGE_LOOP('',(#20,#30,#39,#47));
#20 = ORIENTED_EDGE('',*,*,#21,.T.);
#21 = EDGE_CURVE('',#22,#24,#26,.T.);
#22 = VERTEX_POINT('',#23);
#23 = CARTESIAN_POINT('',(14.,15.5,-28.75));
#24 = VERTEX_POINT('',#25);
#25 = CARTESIAN_POINT('',(14.,15.5,-33.75));
#26 = LINE('',#27,#28);
#27 = CARTESIAN_POINT('',(14.,15.5,-28.75));
#28 = VECTOR('',#29,1.);
#29 = DIRECTION('',(0.,0.,-1.));
#30 = ORIENTED_EDGE('',*,*,#31,.F.);
#31 = EDGE_CURVE('',#32,#24,#34,.T.);
#32 = VERTEX_POINT('',#33);
#33 = CARTESIAN_POINT('',(17.,15.5,-33.75));
#34 = CIRCLE('',#35,1.5);
#35 = AXIS2_PLACEMENT_3D('',#36,#37,#38);
#36 = CARTESIAN_POINT('',(15.5,15.5,-33.75));
#37 = DIRECTION('',(0.,0.,-1.));
#38 = DIRECTION('',(-1.,0.,0.));
#39 = ORIENTED_EDGE('',*,*,#40,.F.);
#40 = EDGE_CURVE('',#41,#32,#43,.T.);
#41 = VERTEX_POINT('',#42);
#42 = CARTESIAN_POINT('',(17.,15.5,-28.75));
#43 = LINE('',#44,#45);
#44 = CARTESIAN_POINT('',(17.,15.5,-28.75));
#45 = VECTOR('',#46,1.);
#46 = DIRECTION('',(0.,0.,-1.));
#47 = ORIENTED_EDGE('',*,*,#48,.T.);
#48 = EDGE_CURVE('',#41,#22,#49,.T.);
#49 = CIRCLE('',#50,1.5);
#50 = AXIS2_PLACEMENT_3D('',#51,#52,#53);
#51 = CARTESIAN_POINT('',(15.5,15.5,-28.75));
#52 = DIRECTION('',(0.,0.,-1.));
#53 = DIRECTION('',(-1.,0.,0.));
#54 = CYLINDRICAL_SURFACE('',#55,1.5);
#55 = AXIS2_PLACEMENT_3D('',#56,#57,#58);
#56 = CARTESIAN_POINT('',(15.5,15.5,-28.75));
#57 = DIRECTION('',(0.,0.,-1.));
#58 = DIRECTION('',(-1.,0.,0.));
#59 = ADVANCED_FACE('',(#60),#96,.F.);
#60 = FACE_BOUND('',#61,.F.);
#61 = EDGE_LOOP('',(#62,#72,#81,#89));
#62 = ORIENTED_EDGE('',*,*,#63,.T.);
#63 = EDGE_CURVE('',#64,#66,#68,.T.);
#64 = VERTEX_POINT('',#65);
#65 = CARTESIAN_POINT('',(14.,-15.5,-28.75));
#66 = VERTEX_POINT('',#67);
#67 = CARTESIAN_POINT('',(14.,-15.5,-33.75));
#68 = LINE('',#69,#70);
#69 = CARTESIAN_POINT('',(14.,-15.5,-28.75));
#70 = VECTOR('',#71,1.);
#71 = DIRECTION('',(0.,0.,-1.));
#72 = ORIENTED_EDGE('',*,*,#73,.F.);
#73 = EDGE_CURVE('',#74,#66,#76,.T.);
#74 = VERTEX_POINT('',#75);
#75 = CARTESIAN_POINT('',(17.,-15.5,-33.75));
#76 = CIRCLE('',#77,1.5);
#77 = AXIS2_PLACEMENT_3D('',#78,#79,#80);
#78 = CARTESIAN_POINT('',(15.5,-15.5,-33.75));
#79 = DIRECTION('',(0.,0.,-1.));
#80 = DIRECTION('',(-1.,0.,0.));
#81 = ORIENTED_EDGE('',*,*,#82,.F.);
#82 = EDGE_CURVE('',#83,#74,#85,.T.);
#83 = VERTEX_POINT('',#84);
#84 = CARTESIAN_POINT('',(17.,-15.5,-28.75));
#85 = LINE('',#86,#87);
#86 = CARTESIAN_POINT('',(17.,-15.5,-28.75));
#87 = VECTOR('',#88,1.);
#88 = DIRECTION('',(0.,0.,-1.));
#89 = ORIENTED_EDGE('',*,*,#90,.T.);
#90 = EDGE_CURVE('',#83,#64,#91,.T.);
#91 = CIRCLE('',#92,1.5);
#92 = AXIS2_PLACEMENT_3D('',#93,#94,#95);
#93 = CARTESIAN_POINT('',(15.5,-15.5,-28.75));
#94 = DIRECTION('',(0.,0.,-1.));
#95 = DIRECTION('',(-1.,0.,0.));
#96 = CYLINDRICAL_SURFACE('',#97,1.5);
#97 = AXIS2_PLACEMENT_3D('',#98,#99,#100);
#98 = CARTESIAN_POINT('',(15.5,-15.5,-28.75));
#99 = DIRECTION('',(0.,0.,-1.));
#100 = DIRECTION('',(-1.,0.,0.));
#101 = ADVANCED_FACE('',(#102),#138,.F.);
#102 = FACE_BOUND('',#103,.F.);
#103 = EDGE_LOOP('',(#104,#114,#123,#131));
#104 = ORIENTED_EDGE('',*,*,#105,.T.);
#105 = EDGE_CURVE('',#106,#108,#110,.T.);
#106 = VERTEX_POINT('',#107);
#107 = CARTESIAN_POINT('',(-17.,-15.5,-28.75));
#108 = VERTEX_POINT('',#109);
#109 = CARTESIAN_POINT('',(-17.,-15.5,-33.75));
#110 = LINE('',#111,#112);
#111 = CARTESIAN_POINT('',(-17.,-15.5,-28.75));
#112 = VECTOR('',#113,1.);
#113 = DIRECTION('',(0.,0.,-1.));
#114 = ORIENTED_EDGE('',*,*,#115,.F.);
#115 = EDGE_CURVE('',#116,#108,#118,.T.);
#116 = VERTEX_POINT('',#117);
#117 = CARTESIAN_POINT('',(-14.,-15.5,-33.75));
#118 = CIRCLE('',#119,1.5);
#119 = AXIS2_PLACEMENT_3D('',#120,#121,#122);
#120 = CARTESIAN_POINT('',(-15.5,-15.5,-33.75));
#121 = DIRECTION('',(0.,0.,-1.));
#122 = DIRECTION('',(-1.,0.,0.));
#123 = ORIENTED_EDGE('',*,*,#124,.F.);
#124 = EDGE_CURVE('',#125,#116,#127,.T.);
#125 = VERTEX_POINT('',#126);
#126 = CARTESIAN_POINT('',(-14.,-15.5,-28.75));
#127 = LINE('',#128,#129);
#128 = CARTESIAN_POINT('',(-14.,-15.5,-28.75));
#129 = VECTOR('',#130,1.);
#130 = DIRECTION('',(0.,0.,-1.));
#131 = ORIENTED_EDGE('',*,*,#132,.T.);
#132 = EDGE_CURVE('',#125,#106,#133,.T.);
#133 = CIRCLE('',#134,1.5);
#134 = AXIS2_PLACEMENT_3D('',#135,#136,#137);
#135 = CARTESIAN_POINT('',(-15.5,-15.5,-28.75));
#136 = DIRECTION('',(0.,0.,-1.));
#137 = DIRECTION('',(-1.,0.,0.));
#138 = CYLINDRICAL_SURFACE('',#139,1.5);
#139 = AXIS2_PLACEMENT_3D('',#140,#141,#142);
#140 = CARTESIAN_POINT('',(-15.5,-15.5,-28.75));
#141 = DIRECTION('',(0.,0.,-1.));
#142 = DIRECTION('',(-1.,0.,0.));
#143 = ADVANCED_FACE('',(#144),#180,.F.);
#144 = FACE_BOUND('',#145,.F.);
#145 = EDGE_LOOP('',(#146,#156,#165,#173));
#146 = ORIENTED_EDGE('',*,*,#147,.T.);
#147 = EDGE_CURVE('',#148,#150,#152,.T.);
#148 = VERTEX_POINT('',#149);
#149 = CARTESIAN_POINT('',(-17.,15.5,-28.75));
#150 = VERTEX_POINT('',#151);
#151 = CARTESIAN_POINT('',(-17.,15.5,-33.75));
#152 = LINE('',#153,#154);
#153 = CARTESIAN_POINT('',(-17.,15.5,-28.75));
#154 = VECTOR('',#155,1.);
#155 = DIRECTION('',(0.,0.,-1.));
#156 = ORIENTED_EDGE('',*,*,#157,.F.);
#157 = EDGE_CURVE('',#158,#150,#160,.T.);
#158 = VERTEX_POINT('',#159);
#159 = CARTESIAN_POINT('',(-14.,15.5,-33.75));
#160 = CIRCLE('',#161,1.5);
#161 = AXIS2_PLACEMENT_3D('',#162,#163,#164);
#162 = CARTESIAN_POINT('',(-15.5,15.5,-33.75));
#163 = DIRECTION('',(0.,0.,-1.));
#164 = DIRECTION('',(-1.,0.,0.));
#165 = ORIENTED_EDGE('',*,*,#166,.F.);
#166 = EDGE_CURVE('',#167,#158,#169,.T.);
#167 = VERTEX_POINT('',#168);
#168 = CARTESIAN_POINT('',(-14.,15.5,-28.75));
#169 = LINE('',#170,#171);
#170 = CARTESIAN_POINT('',(-14.,15.5,-28.75));
#171 = VECTOR('',#172,1.);
#172 = DIRECTION('',(0.,0.,-1.));
#173 = ORIENTED_EDGE('',*,*,#174,.T.);
#174 = EDGE_CURVE('',#167,#148,#175,.T.);
#175 = CIRCLE('',#176,1.5);
#176 = AXIS2_PLACEMENT_3D('',#177,#178,#179);
#177 = CARTESIAN_POINT('',(-15.5,15.5,-28.75));
#178 = DIRECTION('',(0.,0.,-1.));
#179 = DIRECTION('',(-1.,0.,0.));
#180 = CYLINDRICAL_SURFACE('',#181,1.5);
#181 = AXIS2_PLACEMENT_3D('',#182,#183,#184);
#182 = CARTESIAN_POINT('',(-15.5,15.5,-28.75));
#183 = DIRECTION('',(0.,0.,-1.));
#184 = DIRECTION('',(-1.,0.,0.));
#185 = ADVANCED_FACE('',(#186),#222,.F.);
#186 = FACE_BOUND('',#187,.F.);
#187 = EDGE_LOOP('',(#188,#198,#207,#215));
#188 = ORIENTED_EDGE('',*,*,#189,.T.);
#189 = EDGE_CURVE('',#190,#192,#194,.T.);
#190 = VERTEX_POINT('',#191);
#191 = CARTESIAN_POINT('',(16.5,0.,-0.5));
#192 = VERTEX_POINT('',#193);
#193 = CARTESIAN_POINT('',(16.5,0.,0.));
#194 = LINE('',#195,#196);
#195 = CARTESIAN_POINT('',(16.5,0.,-0.5));
#196 = VECTOR('',#197,1.);
#197 = DIRECTION('',(0.,0.,1.));
#198 = ORIENTED_EDGE('',*,*,#199,.T.);
#199 = EDGE_CURVE('',#192,#200,#202,.T.);
#200 = VERTEX_POINT('',#201);
#201 = CARTESIAN_POINT('',(-16.5,2.E-15,0.));
#202 = CIRCLE('',#203,16.5);
#203 = AXIS2_PLACEMENT_3D('',#204,#205,#206);
#204 = CARTESIAN_POINT('',(0.,0.,0.));
#205 = DIRECTION('',(0.,0.,-1.));
#206 = DIRECTION('',(1.,0.,0.));
#207 = ORIENTED_EDGE('',*,*,#208,.F.);
#208 = EDGE_CURVE('',#209,#200,#211,.T.);
#209 = VERTEX_POINT('',#210);
#210 = CARTESIAN_POINT('',(-16.5,2.E-15,-0.5));
#211 = LINE('',#212,#213);
#212 = CARTESIAN_POINT('',(-16.5,2.02E-15,-0.5));
#213 = VECTOR('',#214,1.);
#214 = DIRECTION('',(0.,0.,1.));
#215 = ORIENTED_EDGE('',*,*,#216,.T.);
#216 = EDGE_CURVE('',#209,#190,#217,.T.);
#217 = CIRCLE('',#218,16.5);
#218 = AXIS2_PLACEMENT_3D('',#219,#220,#221);
#219 = CARTESIAN_POINT('',(0.,0.,-0.5));
#220 = DIRECTION('',(0.,0.,1.));
#221 = DIRECTION('',(1.,0.,-0.));
#222 = CYLINDRICAL_SURFACE('',#223,16.5);
#223 = AXIS2_PLACEMENT_3D('',#224,#225,#226);
#224 = CARTESIAN_POINT('',(0.,0.,-0.5));
#225 = DIRECTION('',(0.,0.,1.));
#226 = DIRECTION('',(1.,0.,-0.));
#227 = ADVANCED_FACE('',(#228),#264,.F.);
#228 = FACE_BOUND('',#229,.F.);
#229 = EDGE_LOOP('',(#230,#240,#249,#257));
#230 = ORIENTED_EDGE('',*,*,#231,.T.);
#231 = EDGE_CURVE('',#232,#234,#236,.T.);
#232 = VERTEX_POINT('',#233);
#233 = CARTESIAN_POINT('',(-14.,-15.5,-5.));
#234 = VERTEX_POINT('',#235);
#235 = CARTESIAN_POINT('',(-14.,-15.5,0.));
#236 = LINE('',#237,#238);
#237 = CARTESIAN_POINT('',(-14.,-15.5,-5.));
#238 = VECTOR('',#239,1.);
#239 = DIRECTION('',(0.,0.,1.));
#240 = ORIENTED_EDGE('',*,*,#241,.T.);
#241 = EDGE_CURVE('',#234,#242,#244,.T.);
#242 = VERTEX_POINT('',#243);
#243 = CARTESIAN_POINT('',(-17.,-15.5,0.));
#244 = CIRCLE('',#245,1.5);
#245 = AXIS2_PLACEMENT_3D('',#246,#247,#248);
#246 = CARTESIAN_POINT('',(-15.5,-15.5,0.));
#247 = DIRECTION('',(0.,0.,-1.));
#248 = DIRECTION('',(1.,0.,0.));
#249 = ORIENTED_EDGE('',*,*,#250,.F.);
#250 = EDGE_CURVE('',#251,#242,#253,.T.);
#251 = VERTEX_POINT('',#252);
#252 = CARTESIAN_POINT('',(-17.,-15.5,-5.));
#253 = LINE('',#254,#255);
#254 = CARTESIAN_POINT('',(-17.,-15.5,-5.));
#255 = VECTOR('',#256,1.);
#256 = DIRECTION('',(0.,0.,1.));
#257 = ORIENTED_EDGE('',*,*,#258,.T.);
#258 = EDGE_CURVE('',#251,#232,#259,.T.);
#259 = CIRCLE('',#260,1.5);
#260 = AXIS2_PLACEMENT_3D('',#261,#262,#263);
#261 = CARTESIAN_POINT('',(-15.5,-15.5,-5.));
#262 = DIRECTION('',(0.,0.,1.));
#263 = DIRECTION('',(1.,0.,-0.));
#264 = CYLINDRICAL_SURFACE('',#265,1.5);
#265 = AXIS2_PLACEMENT_3D('',#266,#267,#268);
#266 = CARTESIAN_POINT('',(-15.5,-15.5,-5.));
#267 = DIRECTION('',(0.,0.,1.));
#268 = DIRECTION('',(1.,0.,-0.));
#269 = ADVANCED_FACE('',(#270),#306,.F.);
#270 = FACE_BOUND('',#271,.F.);
#271 = EDGE_LOOP('',(#272,#282,#291,#299));
#272 = ORIENTED_EDGE('',*,*,#273,.T.);
#273 = EDGE_CURVE('',#274,#276,#278,.T.);
#274 = VERTEX_POINT('',#275);
#275 = CARTESIAN_POINT('',(17.,-15.5,-5.));
#276 = VERTEX_POINT('',#277);
#277 = CARTESIAN_POINT('',(17.,-15.5,0.));
#278 = LINE('',#279,#280);
#279 = CARTESIAN_POINT('',(17.,-15.5,-5.));
#280 = VECTOR('',#281,1.);
#281 = DIRECTION('',(0.,0.,1.));
#282 = ORIENTED_EDGE('',*,*,#283,.T.);
#283 = EDGE_CURVE('',#276,#284,#286,.T.);
#284 = VERTEX_POINT('',#285);
#285 = CARTESIAN_POINT('',(14.,-15.5,0.));
#286 = CIRCLE('',#287,1.5);
#287 = AXIS2_PLACEMENT_3D('',#288,#289,#290);
#288 = CARTESIAN_POINT('',(15.5,-15.5,0.));
#289 = DIRECTION('',(0.,0.,-1.));
#290 = DIRECTION('',(1.,0.,0.));
#291 = ORIENTED_EDGE('',*,*,#292,.F.);
#292 = EDGE_CURVE('',#293,#284,#295,.T.);
#293 = VERTEX_POINT('',#294);
#294 = CARTESIAN_POINT('',(14.,-15.5,-5.));
#295 = LINE('',#296,#297);
#296 = CARTESIAN_POINT('',(14.,-15.5,-5.));
#297 = VECTOR('',#298,1.);
#298 = DIRECTION('',(0.,0.,1.));
#299 = ORIENTED_EDGE('',*,*,#300,.T.);
#300 = EDGE_CURVE('',#293,#274,#301,.T.);
#301 = CIRCLE('',#302,1.5);
#302 = AXIS2_PLACEMENT_3D('',#303,#304,#305);
#303 = CARTESIAN_POINT('',(15.5,-15.5,-5.));
#304 = DIRECTION('',(0.,0.,1.));
#305 = DIRECTION('',(1.,0.,-0.));
#306 = CYLINDRICAL_SURFACE('',#307,1.5);
#307 = AXIS2_PLACEMENT_3D('',#308,#309,#310);
#308 = CARTESIAN_POINT('',(15.5,-15.5,-5.));
#309 = DIRECTION('',(0.,0.,1.));
#310 = DIRECTION('',(1.,0.,-0.));
#311 = ADVANCED_FACE('',(#312),#348,.F.);
#312 = FACE_BOUND('',#313,.F.);
#313 = EDGE_LOOP('',(#314,#324,#333,#341));
#314 = ORIENTED_EDGE('',*,*,#315,.T.);
#315 = EDGE_CURVE('',#316,#318,#320,.T.);
#316 = VERTEX_POINT('',#317);
#317 = CARTESIAN_POINT('',(-14.,15.5,-5.));
#318 = VERTEX_POINT('',#319);
#319 = CARTESIAN_POINT('',(-14.,15.5,0.));
#320 = LINE('',#321,#322);
#321 = CARTESIAN_POINT('',(-14.,15.5,-5.));
#322 = VECTOR('',#323,1.);
#323 = DIRECTION('',(0.,0.,1.));
#324 = ORIENTED_EDGE('',*,*,#325,.T.);
#325 = EDGE_CURVE('',#318,#326,#328,.T.);
#326 = VERTEX_POINT('',#327);
#327 = CARTESIAN_POINT('',(-17.,15.5,0.));
#328 = CIRCLE('',#329,1.5);
#329 = AXIS2_PLACEMENT_3D('',#330,#331,#332);
#330 = CARTESIAN_POINT('',(-15.5,15.5,0.));
#331 = DIRECTION('',(0.,0.,-1.));
#332 = DIRECTION('',(1.,0.,0.));
#333 = ORIENTED_EDGE('',*,*,#334,.F.);
#334 = EDGE_CURVE('',#335,#326,#337,.T.);
#335 = VERTEX_POINT('',#336);
#336 = CARTESIAN_POINT('',(-17.,15.5,-5.));
#337 = LINE('',#338,#339);
#338 = CARTESIAN_POINT('',(-17.,15.5,-5.));
#339 = VECTOR('',#340,1.);
#340 = DIRECTION('',(0.,0.,1.));
#341 = ORIENTED_EDGE('',*,*,#342,.T.);
#342 = EDGE_CURVE('',#335,#316,#343,.T.);
#343 = CIRCLE('',#344,1.5);
#344 = AXIS2_PLACEMENT_3D('',#345,#346,#347);
#345 = CARTESIAN_POINT('',(-15.5,15.5,-5.));
#346 = DIRECTION('',(0.,0.,1.));
#347 = DIRECTION('',(1.,0.,-0.));
#348 = CYLINDRICAL_SURFACE('',#349,1.5);
#349 = AXIS2_PLACEMENT_3D('',#350,#351,#352);
#350 = CARTESIAN_POINT('',(-15.5,15.5,-5.));
#351 = DIRECTION('',(0.,0.,1.));
#352 = DIRECTION('',(1.,0.,-0.));
#353 = ADVANCED_FACE('',(#354),#390,.F.);
#354 = FACE_BOUND('',#355,.F.);
#355 = EDGE_LOOP('',(#356,#366,#375,#383));
#356 = ORIENTED_EDGE('',*,*,#357,.T.);
#357 = EDGE_CURVE('',#358,#360,#362,.T.);
#358 = VERTEX_POINT('',#359);
#359 = CARTESIAN_POINT('',(17.,15.5,-5.));
#360 = VERTEX_POINT('',#361);
#361 = CARTESIAN_POINT('',(17.,15.5,0.));
#362 = LINE('',#363,#364);
#363 = CARTESIAN_POINT('',(17.,15.5,-5.));
#364 = VECTOR('',#365,1.);
#365 = DIRECTION('',(0.,0.,1.));
#366 = ORIENTED_EDGE('',*,*,#367,.T.);
#367 = EDGE_CURVE('',#360,#368,#370,.T.);
#368 = VERTEX_POINT('',#369);
#369 = CARTESIAN_POINT('',(14.,15.5,0.));
#370 = CIRCLE('',#371,1.5);
#371 = AXIS2_PLACEMENT_3D('',#372,#373,#374);
#372 = CARTESIAN_POINT('',(15.5,15.5,0.));
#373 = DIRECTION('',(0.,0.,-1.));
#374 = DIRECTION('',(1.,0.,0.));
#375 = ORIENTED_EDGE('',*,*,#376,.F.);
#376 = EDGE_CURVE('',#377,#368,#379,.T.);
#377 = VERTEX_POINT('',#378);
#378 = CARTESIAN_POINT('',(14.,15.5,-5.));
#379 = LINE('',#380,#381);
#380 = CARTESIAN_POINT('',(14.,15.5,-5.));
#381 = VECTOR('',#382,1.);
#382 = DIRECTION('',(0.,0.,1.));
#383 = ORIENTED_EDGE('',*,*,#384,.T.);
#384 = EDGE_CURVE('',#377,#358,#385,.T.);
#385 = CIRCLE('',#386,1.5);
#386 = AXIS2_PLACEMENT_3D('',#387,#388,#389);
#387 = CARTESIAN_POINT('',(15.5,15.5,-5.));
#388 = DIRECTION('',(0.,0.,1.));
#389 = DIRECTION('',(1.,0.,-0.));
#390 = CYLINDRICAL_SURFACE('',#391,1.5);
#391 = AXIS2_PLACEMENT_3D('',#392,#393,#394);
#392 = CARTESIAN_POINT('',(15.5,15.5,-5.));
#393 = DIRECTION('',(0.,0.,1.));
#394 = DIRECTION('',(1.,0.,-0.));
#395 = ADVANCED_FACE('',(#396),#432,.T.);
#396 = FACE_BOUND('',#397,.T.);
#397 = EDGE_LOOP('',(#398,#409,#417,#426));
#398 = ORIENTED_EDGE('',*,*,#399,.T.);
#399 = EDGE_CURVE('',#400,#402,#404,.T.);
#400 = VERTEX_POINT('',#401);
#401 = CARTESIAN_POINT('',(-11.,0.,2.));
#402 = VERTEX_POINT('',#403);
#403 = CARTESIAN_POINT('',(11.,1.E-15,2.));
#404 = CIRCLE('',#405,11.);
#405 = AXIS2_PLACEMENT_3D('',#406,#407,#408);
#406 = CARTESIAN_POINT('',(0.,0.,2.));
#407 = DIRECTION('',(0.,0.,-1.));
#408 = DIRECTION('',(-1.,0.,0.));
#409 = ORIENTED_EDGE('',*,*,#410,.T.);
#410 = EDGE_CURVE('',#402,#411,#413,.T.);
#411 = VERTEX_POINT('',#412);
#412 = CARTESIAN_POINT('',(11.,1.E-15,-0.5));
#413 = LINE('',#414,#415);
#414 = CARTESIAN_POINT('',(11.,1.35E-15,2.));
#415 = VECTOR('',#416,1.);
#416 = DIRECTION('',(0.,0.,-1.));
#417 = ORIENTED_EDGE('',*,*,#418,.F.);
#418 = EDGE_CURVE('',#419,#411,#421,.T.);
#419 = VERTEX_POINT('',#420);
#420 = CARTESIAN_POINT('',(-11.,0.,-0.5));
#421 = CIRCLE('',#422,11.);
#422 = AXIS2_PLACEMENT_3D('',#423,#424,#425);
#423 = CARTESIAN_POINT('',(0.,0.,-0.5));
#424 = DIRECTION('',(0.,0.,-1.));
#425 = DIRECTION('',(-1.,0.,0.));
#426 = ORIENTED_EDGE('',*,*,#427,.F.);
#427 = EDGE_CURVE('',#400,#419,#428,.T.);
#428 = LINE('',#429,#430);
#429 = CARTESIAN_POINT('',(-11.,0.,2.));
#430 = VECTOR('',#431,1.);
#431 = DIRECTION('',(0.,0.,-1.));
#432 = CYLINDRICAL_SURFACE('',#433,11.);
#433 = AXIS2_PLACEMENT_3D('',#434,#435,#436);
#434 = CARTESIAN_POINT('',(0.,0.,2.));
#435 = DIRECTION('',(0.,0.,-1.));
#436 = DIRECTION('',(-1.,0.,0.));
#437 = ADVANCED_FACE('',(#438),#474,.F.);
#438 = FACE_BOUND('',#439,.F.);
#439 = EDGE_LOOP('',(#440,#450,#459,#467));
#440 = ORIENTED_EDGE('',*,*,#441,.T.);
#441 = EDGE_CURVE('',#442,#444,#446,.T.);
#442 = VERTEX_POINT('',#443);
#443 = CARTESIAN_POINT('',(3.5,0.,-3.));
#444 = VERTEX_POINT('',#445);
#445 = CARTESIAN_POINT('',(3.5,0.,2.));
#446 = LINE('',#447,#448);
#447 = CARTESIAN_POINT('',(3.5,0.,-3.));
#448 = VECTOR('',#449,1.);
#449 = DIRECTION('',(0.,0.,1.));
#450 = ORIENTED_EDGE('',*,*,#451,.T.);
#451 = EDGE_CURVE('',#444,#452,#454,.T.);
#452 = VERTEX_POINT('',#453);
#453 = CARTESIAN_POINT('',(-3.5,0.,2.));
#454 = CIRCLE('',#455,3.5);
#455 = AXIS2_PLACEMENT_3D('',#456,#457,#458);
#456 = CARTESIAN_POINT('',(0.,0.,2.));
#457 = DIRECTION('',(0.,0.,-1.));
#458 = DIRECTION('',(1.,0.,0.));
#459 = ORIENTED_EDGE('',*,*,#460,.F.);
#460 = EDGE_CURVE('',#461,#452,#463,.T.);
#461 = VERTEX_POINT('',#462);
#462 = CARTESIAN_POINT('',(-3.5,0.,-3.));
#463 = LINE('',#464,#465);
#464 = CARTESIAN_POINT('',(-3.5,4.3E-16,-3.));
#465 = VECTOR('',#466,1.);
#466 = DIRECTION('',(0.,0.,1.));
#467 = ORIENTED_EDGE('',*,*,#468,.T.);
#468 = EDGE_CURVE('',#461,#442,#469,.T.);
#469 = CIRCLE('',#470,3.5);
#470 = AXIS2_PLACEMENT_3D('',#471,#472,#473);
#471 = CARTESIAN_POINT('',(0.,0.,-3.));
#472 = DIRECTION('',(0.,0.,1.));
#473 = DIRECTION('',(1.,0.,-0.));
#474 = CYLINDRICAL_SURFACE('',#475,3.5);
#475 = AXIS2_PLACEMENT_3D('',#476,#477,#478);
#476 = CARTESIAN_POINT('',(0.,0.,-3.));
#477 = DIRECTION('',(0.,0.,1.));
#478 = DIRECTION('',(1.,0.,-0.));
#479 = ADVANCED_FACE('',(#480),#516,.T.);
#480 = FACE_BOUND('',#481,.T.);
#481 = EDGE_LOOP('',(#482,#493,#501,#510));
#482 = ORIENTED_EDGE('',*,*,#483,.F.);
#483 = EDGE_CURVE('',#484,#486,#488,.T.);
#484 = VERTEX_POINT('',#485);
#485 = CARTESIAN_POINT('',(2.5,0.,23.));
#486 = VERTEX_POINT('',#487);
#487 = CARTESIAN_POINT('',(-2.5,0.,23.));
#488 = CIRCLE('',#489,2.5);
#489 = AXIS2_PLACEMENT_3D('',#490,#491,#492);
#490 = CARTESIAN_POINT('',(0.,0.,23.));
#491 = DIRECTION('',(0.,0.,1.));
#492 = DIRECTION('',(1.,0.,-0.));
#493 = ORIENTED_EDGE('',*,*,#494,.T.);
#494 = EDGE_CURVE('',#484,#495,#497,.T.);
#495 = VERTEX_POINT('',#496);
#496 = CARTESIAN_POINT('',(2.5,0.,-3.));
#497 = LINE('',#498,#499);
#498 = CARTESIAN_POINT('',(2.5,3.1E-16,24.));
#499 = VECTOR('',#500,1.);
#500 = DIRECTION('',(0.,0.,-1.));
#501 = ORIENTED_EDGE('',*,*,#502,.F.);
#502 = EDGE_CURVE('',#503,#495,#505,.T.);
#503 = VERTEX_POINT('',#504);
#504 = CARTESIAN_POINT('',(-2.5,0.,-3.));
#505 = CIRCLE('',#506,2.5);
#506 = AXIS2_PLACEMENT_3D('',#507,#508,#509);
#507 = CARTESIAN_POINT('',(0.,0.,-3.));
#508 = DIRECTION('',(0.,0.,-1.));
#509 = DIRECTION('',(-1.,0.,0.));
#510 = ORIENTED_EDGE('',*,*,#511,.F.);
#511 = EDGE_CURVE('',#486,#503,#512,.T.);
#512 = LINE('',#513,#514);
#513 = CARTESIAN_POINT('',(-2.5,0.,24.));
#514 = VECTOR('',#515,1.);
#515 = DIRECTION('',(0.,0.,-1.));
#516 = CYLINDRICAL_SURFACE('',#517,2.5);
#517 = AXIS2_PLACEMENT_3D('',#518,#519,#520);
#518 = CARTESIAN_POINT('',(0.,0.,24.));
#519 = DIRECTION('',(0.,0.,-1.));
#520 = DIRECTION('',(-1.,0.,0.));
#521 = ADVANCED_FACE('',(#522,#532),#542,.T.);
#522 = FACE_BOUND('',#523,.T.);
#523 = EDGE_LOOP('',(#524,#531));
#524 = ORIENTED_EDGE('',*,*,#525,.T.);
#525 = EDGE_CURVE('',#442,#461,#526,.T.);
#526 = CIRCLE('',#527,3.5);
#527 = AXIS2_PLACEMENT_3D('',#528,#529,#530);
#528 = CARTESIAN_POINT('',(0.,0.,-3.));
#529 = DIRECTION('',(0.,0.,1.));
#530 = DIRECTION('',(1.,0.,-0.));
#531 = ORIENTED_EDGE('',*,*,#468,.T.);
#532 = FACE_BOUND('',#533,.T.);
#533 = EDGE_LOOP('',(#534,#535));
#534 = ORIENTED_EDGE('',*,*,#502,.T.);
#535 = ORIENTED_EDGE('',*,*,#536,.T.);
#536 = EDGE_CURVE('',#495,#503,#537,.T.);
#537 = CIRCLE('',#538,2.5);
#538 = AXIS2_PLACEMENT_3D('',#539,#540,#541);
#539 = CARTESIAN_POINT('',(0.,0.,-3.));
#540 = DIRECTION('',(0.,0.,-1.));
#541 = DIRECTION('',(-1.,0.,0.));
#542 = PLANE('',#543);
#543 = AXIS2_PLACEMENT_3D('',#544,#545,#546);
#544 = CARTESIAN_POINT('',(0.,0.,-3.));
#545 = DIRECTION('',(0.,0.,1.));
#546 = DIRECTION('',(1.,0.,-0.));
#547 = ADVANCED_FACE('',(#548),#582,.F.);
#548 = FACE_BOUND('',#549,.T.);
#549 = EDGE_LOOP('',(#550,#560,#568,#576));
#550 = ORIENTED_EDGE('',*,*,#551,.F.);
#551 = EDGE_CURVE('',#552,#554,#556,.T.);
#552 = VERTEX_POINT('',#553);
#553 = CARTESIAN_POINT('',(-21.,17.00698948878,-5.75));
#554 = VERTEX_POINT('',#555);
#555 = CARTESIAN_POINT('',(-17.00698948878,21.,-5.75));
#556 = LINE('',#557,#558);
#557 = CARTESIAN_POINT('',(-21.,17.00698948878,-5.75));
#558 = VECTOR('',#559,1.);
#559 = DIRECTION('',(0.707106781187,0.707106781187,0.));
#560 = ORIENTED_EDGE('',*,*,#561,.T.);
#561 = EDGE_CURVE('',#552,#562,#564,.T.);
#562 = VERTEX_POINT('',#563);
#563 = CARTESIAN_POINT('',(-21.,17.00698948878,0.));
#564 = LINE('',#565,#566);
#565 = CARTESIAN_POINT('',(-21.,17.00698948878,0.));
#566 = VECTOR('',#567,1.);
#567 = DIRECTION('',(-0.,-0.,1.));
#568 = ORIENTED_EDGE('',*,*,#569,.F.);
#569 = EDGE_CURVE('',#570,#562,#572,.T.);
#570 = VERTEX_POINT('',#571);
#571 = CARTESIAN_POINT('',(-17.00698948878,21.,0.));
#572 = LINE('',#573,#574);
#573 = CARTESIAN_POINT('',(-17.00698948878,21.,0.));
#574 = VECTOR('',#575,1.);
#575 = DIRECTION('',(-0.707106781187,-0.707106781187,-0.));
#576 = ORIENTED_EDGE('',*,*,#577,.T.);
#577 = EDGE_CURVE('',#570,#554,#578,.T.);
#578 = LINE('',#579,#580);
#579 = CARTESIAN_POINT('',(-17.00698948878,21.,0.));
#580 = VECTOR('',#581,1.);
#581 = DIRECTION('',(0.,-0.,-1.));
#582 = PLANE('',#583);
#583 = AXIS2_PLACEMENT_3D('',#584,#585,#586);
#584 = CARTESIAN_POINT('',(-17.00698948878,21.,0.));
#585 = DIRECTION('',(0.707106781187,-0.707106781187,0.));
#586 = DIRECTION('',(0.707106781187,0.707106781187,0.));
#587 = ADVANCED_FACE('',(#588),#613,.F.);
#588 = FACE_BOUND('',#589,.T.);
#589 = EDGE_LOOP('',(#590,#598,#606,#612));
#590 = ORIENTED_EDGE('',*,*,#591,.F.);
#591 = EDGE_CURVE('',#592,#552,#594,.T.);
#592 = VERTEX_POINT('',#593);
#593 = CARTESIAN_POINT('',(-21.,-17.00698948878,-5.75));
#594 = LINE('',#595,#596);
#595 = CARTESIAN_POINT('',(-21.,-17.00698948878,-5.75));
#596 = VECTOR('',#597,1.);
#597 = DIRECTION('',(0.,1.,0.));
#598 = ORIENTED_EDGE('',*,*,#599,.T.);
#599 = EDGE_CURVE('',#592,#600,#602,.T.);
#600 = VERTEX_POINT('',#601);
#601 = CARTESIAN_POINT('',(-21.,-17.00698948878,0.));
#602 = LINE('',#603,#604);
#603 = CARTESIAN_POINT('',(-21.,-17.00698948878,0.));
#604 = VECTOR('',#605,1.);
#605 = DIRECTION('',(0.,0.,1.));
#606 = ORIENTED_EDGE('',*,*,#607,.F.);
#607 = EDGE_CURVE('',#562,#600,#608,.T.);
#608 = LINE('',#609,#610);
#609 = CARTESIAN_POINT('',(-21.,17.00698948878,0.));
#610 = VECTOR('',#611,1.);
#611 = DIRECTION('',(-0.,-1.,-0.));
#612 = ORIENTED_EDGE('',*,*,#561,.F.);
#613 = PLANE('',#614);
#614 = AXIS2_PLACEMENT_3D('',#615,#616,#617);
#615 = CARTESIAN_POINT('',(-21.,17.00698948878,0.));
#616 = DIRECTION('',(1.,-0.,0.));
#617 = DIRECTION('',(0.,0.,-1.));
#618 = ADVANCED_FACE('',(#619),#644,.F.);
#619 = FACE_BOUND('',#620,.T.);
#620 = EDGE_LOOP('',(#621,#629,#637,#643));
#621 = ORIENTED_EDGE('',*,*,#622,.F.);
#622 = EDGE_CURVE('',#623,#592,#625,.T.);
#623 = VERTEX_POINT('',#624);
#624 = CARTESIAN_POINT('',(-17.00698948878,-21.,-5.75));
#625 = LINE('',#626,#627);
#626 = CARTESIAN_POINT('',(-17.00698948878,-21.,-5.75));
#627 = VECTOR('',#628,1.);
#628 = DIRECTION('',(-0.707106781187,0.707106781187,0.));
#629 = ORIENTED_EDGE('',*,*,#630,.T.);
#630 = EDGE_CURVE('',#623,#631,#633,.T.);
#631 = VERTEX_POINT('',#632);
#632 = CARTESIAN_POINT('',(-17.00698948878,-21.,0.));
#633 = LINE('',#634,#635);
#634 = CARTESIAN_POINT('',(-17.00698948878,-21.,0.));
#635 = VECTOR('',#636,1.);
#636 = DIRECTION('',(0.,0.,1.));
#637 = ORIENTED_EDGE('',*,*,#638,.F.);
#638 = EDGE_CURVE('',#600,#631,#639,.T.);
#639 = LINE('',#640,#641);
#640 = CARTESIAN_POINT('',(-21.,-17.00698948878,0.));
#641 = VECTOR('',#642,1.);
#642 = DIRECTION('',(0.707106781187,-0.707106781187,-0.));
#643 = ORIENTED_EDGE('',*,*,#599,.F.);
#644 = PLANE('',#645);
#645 = AXIS2_PLACEMENT_3D('',#646,#647,#648);
#646 = CARTESIAN_POINT('',(-21.,-17.00698948878,0.));
#647 = DIRECTION('',(0.707106781187,0.707106781187,-0.));
#648 = DIRECTION('',(-0.707106781187,0.707106781187,0.));
#649 = ADVANCED_FACE('',(#650),#675,.F.);
#650 = FACE_BOUND('',#651,.T.);
#651 = EDGE_LOOP('',(#652,#660,#668,#674));
#652 = ORIENTED_EDGE('',*,*,#653,.F.);
#653 = EDGE_CURVE('',#654,#623,#656,.T.);
#654 = VERTEX_POINT('',#655);
#655 = CARTESIAN_POINT('',(17.00698948878,-21.,-5.75));
#656 = LINE('',#657,#658);
#657 = CARTESIAN_POINT('',(17.00698948878,-21.,-5.75));
#658 = VECTOR('',#659,1.);
#659 = DIRECTION('',(-1.,0.,0.));
#660 = ORIENTED_EDGE('',*,*,#661,.T.);
#661 = EDGE_CURVE('',#654,#662,#664,.T.);
#662 = VERTEX_POINT('',#663);
#663 = CARTESIAN_POINT('',(17.00698948878,-21.,0.));
#664 = LINE('',#665,#666);
#665 = CARTESIAN_POINT('',(17.00698948878,-21.,0.));
#666 = VECTOR('',#667,1.);
#667 = DIRECTION('',(0.,0.,1.));
#668 = ORIENTED_EDGE('',*,*,#669,.F.);
#669 = EDGE_CURVE('',#631,#662,#670,.T.);
#670 = LINE('',#671,#672);
#671 = CARTESIAN_POINT('',(-17.00698948878,-21.,0.));
#672 = VECTOR('',#673,1.);
#673 = DIRECTION('',(1.,-0.,0.));
#674 = ORIENTED_EDGE('',*,*,#630,.F.);
#675 = PLANE('',#676);
#676 = AXIS2_PLACEMENT_3D('',#677,#678,#679);
#677 = CARTESIAN_POINT('',(-17.00698948878,-21.,0.));
#678 = DIRECTION('',(0.,1.,-0.));
#679 = DIRECTION('',(0.,0.,1.));
#680 = ADVANCED_FACE('',(#681),#706,.F.);
#681 = FACE_BOUND('',#682,.T.);
#682 = EDGE_LOOP('',(#683,#691,#699,#705));
#683 = ORIENTED_EDGE('',*,*,#684,.F.);
#684 = EDGE_CURVE('',#685,#654,#687,.T.);
#685 = VERTEX_POINT('',#686);
#686 = CARTESIAN_POINT('',(21.,-17.00698948878,-5.75));
#687 = LINE('',#688,#689);
#688 = CARTESIAN_POINT('',(21.,-17.00698948878,-5.75));
#689 = VECTOR('',#690,1.);
#690 = DIRECTION('',(-0.707106781187,-0.707106781187,0.));
#691 = ORIENTED_EDGE('',*,*,#692,.T.);
#692 = EDGE_CURVE('',#685,#693,#695,.T.);
#693 = VERTEX_POINT('',#694);
#694 = CARTESIAN_POINT('',(21.,-17.00698948878,0.));
#695 = LINE('',#696,#697);
#696 = CARTESIAN_POINT('',(21.,-17.00698948878,0.));
#697 = VECTOR('',#698,1.);
#698 = DIRECTION('',(0.,0.,1.));
#699 = ORIENTED_EDGE('',*,*,#700,.F.);
#700 = EDGE_CURVE('',#662,#693,#701,.T.);
#701 = LINE('',#702,#703);
#702 = CARTESIAN_POINT('',(21.,-17.00698948878,0.));
#703 = VECTOR('',#704,1.);
#704 = DIRECTION('',(0.707106781187,0.707106781187,-0.));
#705 = ORIENTED_EDGE('',*,*,#661,.F.);
#706 = PLANE('',#707);
#707 = AXIS2_PLACEMENT_3D('',#708,#709,#710);
#708 = CARTESIAN_POINT('',(21.,-17.00698948878,0.));
#709 = DIRECTION('',(-0.707106781187,0.707106781187,0.));
#710 = DIRECTION('',(-0.707106781187,-0.707106781187,0.));
#711 = ADVANCED_FACE('',(#712),#737,.F.);
#712 = FACE_BOUND('',#713,.T.);
#713 = EDGE_LOOP('',(#714,#722,#730,#736));
#714 = ORIENTED_EDGE('',*,*,#715,.F.);
#715 = EDGE_CURVE('',#716,#685,#718,.T.);
#716 = VERTEX_POINT('',#717);
#717 = CARTESIAN_POINT('',(21.,17.00698948878,-5.75));
#718 = LINE('',#719,#720);
#719 = CARTESIAN_POINT('',(21.,17.00698948878,-5.75));
#720 = VECTOR('',#721,1.);
#721 = DIRECTION('',(0.,-1.,0.));
#722 = ORIENTED_EDGE('',*,*,#723,.T.);
#723 = EDGE_CURVE('',#716,#724,#726,.T.);
#724 = VERTEX_POINT('',#725);
#725 = CARTESIAN_POINT('',(21.,17.00698948878,0.));
#726 = LINE('',#727,#728);
#727 = CARTESIAN_POINT('',(21.,17.00698948878,0.));
#728 = VECTOR('',#729,1.);
#729 = DIRECTION('',(0.,0.,1.));
#730 = ORIENTED_EDGE('',*,*,#731,.F.);
#731 = EDGE_CURVE('',#693,#724,#732,.T.);
#732 = LINE('',#733,#734);
#733 = CARTESIAN_POINT('',(21.,17.00698948878,0.));
#734 = VECTOR('',#735,1.);
#735 = DIRECTION('',(0.,1.,-0.));
#736 = ORIENTED_EDGE('',*,*,#692,.F.);
#737 = PLANE('',#738);
#738 = AXIS2_PLACEMENT_3D('',#739,#740,#741);
#739 = CARTESIAN_POINT('',(21.,17.00698948878,0.));
#740 = DIRECTION('',(-1.,0.,0.));
#741 = DIRECTION('',(0.,0.,1.));
#742 = ADVANCED_FACE('',(#743),#768,.F.);
#743 = FACE_BOUND('',#744,.T.);
#744 = EDGE_LOOP('',(#745,#753,#761,#767));
#745 = ORIENTED_EDGE('',*,*,#746,.F.);
#746 = EDGE_CURVE('',#747,#716,#749,.T.);
#747 = VERTEX_POINT('',#748);
#748 = CARTESIAN_POINT('',(17.00698948878,21.,-5.75));
#749 = LINE('',#750,#751);
#750 = CARTESIAN_POINT('',(17.00698948878,21.,-5.75));
#751 = VECTOR('',#752,1.);
#752 = DIRECTION('',(0.707106781187,-0.707106781187,0.));
#753 = ORIENTED_EDGE('',*,*,#754,.T.);
#754 = EDGE_CURVE('',#747,#755,#757,.T.);
#755 = VERTEX_POINT('',#756);
#756 = CARTESIAN_POINT('',(17.00698948878,21.,0.));
#757 = LINE('',#758,#759);
#758 = CARTESIAN_POINT('',(17.00698948878,21.,0.));
#759 = VECTOR('',#760,1.);
#760 = DIRECTION('',(-0.,0.,1.));
#761 = ORIENTED_EDGE('',*,*,#762,.F.);
#762 = EDGE_CURVE('',#724,#755,#763,.T.);
#763 = LINE('',#764,#765);
#764 = CARTESIAN_POINT('',(17.00698948878,21.,0.));
#765 = VECTOR('',#766,1.);
#766 = DIRECTION('',(-0.707106781187,0.707106781187,-0.));
#767 = ORIENTED_EDGE('',*,*,#723,.F.);
#768 = PLANE('',#769);
#769 = AXIS2_PLACEMENT_3D('',#770,#771,#772);
#770 = CARTESIAN_POINT('',(17.00698948878,21.,0.));
#771 = DIRECTION('',(-0.707106781187,-0.707106781187,0.));
#772 = DIRECTION('',(0.707106781187,-0.707106781187,0.));
#773 = ADVANCED_FACE('',(#774),#790,.F.);
#774 = FACE_BOUND('',#775,.T.);
#775 = EDGE_LOOP('',(#776,#782,#783,#789));
#776 = ORIENTED_EDGE('',*,*,#777,.F.);
#777 = EDGE_CURVE('',#554,#747,#778,.T.);
#778 = LINE('',#779,#780);
#779 = CARTESIAN_POINT('',(-17.00698948878,21.,-5.75));
#780 = VECTOR('',#781,1.);
#781 = DIRECTION('',(1.,0.,0.));
#782 = ORIENTED_EDGE('',*,*,#577,.F.);
#783 = ORIENTED_EDGE('',*,*,#784,.F.);
#784 = EDGE_CURVE('',#755,#570,#785,.T.);
#785 = LINE('',#786,#787);
#786 = CARTESIAN_POINT('',(-17.00698948878,21.,0.));
#787 = VECTOR('',#788,1.);
#788 = DIRECTION('',(-1.,-0.,-0.));
#789 = ORIENTED_EDGE('',*,*,#754,.F.);
#790 = PLANE('',#791);
#791 = AXIS2_PLACEMENT_3D('',#792,#793,#794);
#792 = CARTESIAN_POINT('',(-17.00698948878,21.,0.));
#793 = DIRECTION('',(0.,-1.,0.));
#794 = DIRECTION('',(0.,-0.,-1.));
#795 = ADVANCED_FACE('',(#796,#806,#816,#826,#836,#846),#856,.T.);
#796 = FACE_BOUND('',#797,.T.);
#797 = EDGE_LOOP('',(#798,#799));
#798 = ORIENTED_EDGE('',*,*,#199,.T.);
#799 = ORIENTED_EDGE('',*,*,#800,.T.);
#800 = EDGE_CURVE('',#200,#192,#801,.T.);
#801 = CIRCLE('',#802,16.5);
#802 = AXIS2_PLACEMENT_3D('',#803,#804,#805);
#803 = CARTESIAN_POINT('',(0.,0.,0.));
#804 = DIRECTION('',(0.,0.,-1.));
#805 = DIRECTION('',(1.,0.,0.));
#806 = FACE_BOUND('',#807,.T.);
#807 = EDGE_LOOP('',(#808,#809));
#808 = ORIENTED_EDGE('',*,*,#241,.T.);
#809 = ORIENTED_EDGE('',*,*,#810,.T.);
#810 = EDGE_CURVE('',#242,#234,#811,.T.);
#811 = CIRCLE('',#812,1.5);
#812 = AXIS2_PLACEMENT_3D('',#813,#814,#815);
#813 = CARTESIAN_POINT('',(-15.5,-15.5,0.));
#814 = DIRECTION('',(0.,0.,-1.));
#815 = DIRECTION('',(1.,0.,0.));
#816 = FACE_BOUND('',#817,.T.);
#817 = EDGE_LOOP('',(#818,#819));
#818 = ORIENTED_EDGE('',*,*,#283,.T.);
#819 = ORIENTED_EDGE('',*,*,#820,.T.);
#820 = EDGE_CURVE('',#284,#276,#821,.T.);
#821 = CIRCLE('',#822,1.5);
#822 = AXIS2_PLACEMENT_3D('',#823,#824,#825);
#823 = CARTESIAN_POINT('',(15.5,-15.5,0.));
#824 = DIRECTION('',(0.,0.,-1.));
#825 = DIRECTION('',(1.,0.,0.));
#826 = FACE_BOUND('',#827,.T.);
#827 = EDGE_LOOP('',(#828,#829));
#828 = ORIENTED_EDGE('',*,*,#325,.T.);
#829 = ORIENTED_EDGE('',*,*,#830,.T.);
#830 = EDGE_CURVE('',#326,#318,#831,.T.);
#831 = CIRCLE('',#832,1.5);
#832 = AXIS2_PLACEMENT_3D('',#833,#834,#835);
#833 = CARTESIAN_POINT('',(-15.5,15.5,0.));
#834 = DIRECTION('',(0.,0.,-1.));
#835 = DIRECTION('',(1.,0.,0.));
#836 = FACE_BOUND('',#837,.T.);
#837 = EDGE_LOOP('',(#838,#839));
#838 = ORIENTED_EDGE('',*,*,#367,.T.);
#839 = ORIENTED_EDGE('',*,*,#840,.T.);
#840 = EDGE_CURVE('',#368,#360,#841,.T.);
#841 = CIRCLE('',#842,1.5);
#842 = AXIS2_PLACEMENT_3D('',#843,#844,#845);
#843 = CARTESIAN_POINT('',(15.5,15.5,0.));
#844 = DIRECTION('',(0.,0.,-1.));
#845 = DIRECTION('',(1.,0.,0.));
#846 = FACE_BOUND('',#847,.T.);
#847 = EDGE_LOOP('',(#848,#849,#850,#851,#852,#853,#854,#855));
#848 = ORIENTED_EDGE('',*,*,#607,.T.);
#849 = ORIENTED_EDGE('',*,*,#638,.T.);
#850 = ORIENTED_EDGE('',*,*,#669,.T.);
#851 = ORIENTED_EDGE('',*,*,#700,.T.);
#852 = ORIENTED_EDGE('',*,*,#731,.T.);
#853 = ORIENTED_EDGE('',*,*,#762,.T.);
#854 = ORIENTED_EDGE('',*,*,#784,.T.);
#855 = ORIENTED_EDGE('',*,*,#569,.T.);
#856 = PLANE('',#857);
#857 = AXIS2_PLACEMENT_3D('',#858,#859,#860);
#858 = CARTESIAN_POINT('',(0.,0.,0.));
#859 = DIRECTION('',(0.,0.,1.));
#860 = DIRECTION('',(1.,0.,-0.));
#861 = ADVANCED_FACE('',(#862),#874,.F.);
#862 = FACE_BOUND('',#863,.F.);
#863 = EDGE_LOOP('',(#864,#865,#866,#873));
#864 = ORIENTED_EDGE('',*,*,#800,.T.);
#865 = ORIENTED_EDGE('',*,*,#189,.F.);
#866 = ORIENTED_EDGE('',*,*,#867,.T.);
#867 = EDGE_CURVE('',#190,#209,#868,.T.);
#868 = CIRCLE('',#869,16.5);
#869 = AXIS2_PLACEMENT_3D('',#870,#871,#872);
#870 = CARTESIAN_POINT('',(0.,0.,-0.5));
#871 = DIRECTION('',(0.,0.,1.));
#872 = DIRECTION('',(1.,0.,-0.));
#873 = ORIENTED_EDGE('',*,*,#208,.T.);
#874 = CYLINDRICAL_SURFACE('',#875,16.5);
#875 = AXIS2_PLACEMENT_3D('',#876,#877,#878);
#876 = CARTESIAN_POINT('',(0.,0.,-0.5));
#877 = DIRECTION('',(0.,0.,1.));
#878 = DIRECTION('',(1.,0.,-0.));
#879 = ADVANCED_FACE('',(#880),#892,.F.);
#880 = FACE_BOUND('',#881,.F.);
#881 = EDGE_LOOP('',(#882,#883,#884,#891));
#882 = ORIENTED_EDGE('',*,*,#810,.T.);
#883 = ORIENTED_EDGE('',*,*,#231,.F.);
#884 = ORIENTED_EDGE('',*,*,#885,.T.);
#885 = EDGE_CURVE('',#232,#251,#886,.T.);
#886 = CIRCLE('',#887,1.5);
#887 = AXIS2_PLACEMENT_3D('',#888,#889,#890);
#888 = CARTESIAN_POINT('',(-15.5,-15.5,-5.));
#889 = DIRECTION('',(0.,0.,1.));
#890 = DIRECTION('',(1.,0.,-0.));
#891 = ORIENTED_EDGE('',*,*,#250,.T.);
#892 = CYLINDRICAL_SURFACE('',#893,1.5);
#893 = AXIS2_PLACEMENT_3D('',#894,#895,#896);
#894 = CARTESIAN_POINT('',(-15.5,-15.5,-5.));
#895 = DIRECTION('',(0.,0.,1.));
#896 = DIRECTION('',(1.,0.,-0.));
#897 = ADVANCED_FACE('',(#898),#910,.F.);
#898 = FACE_BOUND('',#899,.F.);
#899 = EDGE_LOOP('',(#900,#901,#902,#909));
#900 = ORIENTED_EDGE('',*,*,#820,.T.);
#901 = ORIENTED_EDGE('',*,*,#273,.F.);
#902 = ORIENTED_EDGE('',*,*,#903,.T.);
#903 = EDGE_CURVE('',#274,#293,#904,.T.);
#904 = CIRCLE('',#905,1.5);
#905 = AXIS2_PLACEMENT_3D('',#906,#907,#908);
#906 = CARTESIAN_POINT('',(15.5,-15.5,-5.));
#907 = DIRECTION('',(0.,0.,1.));
#908 = DIRECTION('',(1.,0.,-0.));
#909 = ORIENTED_EDGE('',*,*,#292,.T.);
#910 = CYLINDRICAL_SURFACE('',#911,1.5);
#911 = AXIS2_PLACEMENT_3D('',#912,#913,#914);
#912 = CARTESIAN_POINT('',(15.5,-15.5,-5.));
#913 = DIRECTION('',(0.,0.,1.));
#914 = DIRECTION('',(1.,0.,-0.));
#915 = ADVANCED_FACE('',(#916),#928,.F.);
#916 = FACE_BOUND('',#917,.F.);
#917 = EDGE_LOOP('',(#918,#919,#920,#927));
#918 = ORIENTED_EDGE('',*,*,#830,.T.);
#919 = ORIENTED_EDGE('',*,*,#315,.F.);
#920 = ORIENTED_EDGE('',*,*,#921,.T.);
#921 = EDGE_CURVE('',#316,#335,#922,.T.);
#922 = CIRCLE('',#923,1.5);
#923 = AXIS2_PLACEMENT_3D('',#924,#925,#926);
#924 = CARTESIAN_POINT('',(-15.5,15.5,-5.));
#925 = DIRECTION('',(0.,0.,1.));
#926 = DIRECTION('',(1.,0.,-0.));
#927 = ORIENTED_EDGE('',*,*,#334,.T.);
#928 = CYLINDRICAL_SURFACE('',#929,1.5);
#929 = AXIS2_PLACEMENT_3D('',#930,#931,#932);
#930 = CARTESIAN_POINT('',(-15.5,15.5,-5.));
#931 = DIRECTION('',(0.,0.,1.));
#932 = DIRECTION('',(1.,0.,-0.));
#933 = ADVANCED_FACE('',(#934),#946,.F.);
#934 = FACE_BOUND('',#935,.F.);
#935 = EDGE_LOOP('',(#936,#937,#938,#945));
#936 = ORIENTED_EDGE('',*,*,#840,.T.);
#937 = ORIENTED_EDGE('',*,*,#357,.F.);
#938 = ORIENTED_EDGE('',*,*,#939,.T.);
#939 = EDGE_CURVE('',#358,#377,#940,.T.);
#940 = CIRCLE('',#941,1.5);
#941 = AXIS2_PLACEMENT_3D('',#942,#943,#944);
#942 = CARTESIAN_POINT('',(15.5,15.5,-5.));
#943 = DIRECTION('',(0.,0.,1.));
#944 = DIRECTION('',(1.,0.,-0.));
#945 = ORIENTED_EDGE('',*,*,#376,.T.);
#946 = CYLINDRICAL_SURFACE('',#947,1.5);
#947 = AXIS2_PLACEMENT_3D('',#948,#949,#950);
#948 = CARTESIAN_POINT('',(15.5,15.5,-5.));
#949 = DIRECTION('',(0.,0.,1.));
#950 = DIRECTION('',(1.,0.,-0.));
#951 = ADVANCED_FACE('',(#952,#962),#966,.T.);
#952 = FACE_BOUND('',#953,.T.);
#953 = EDGE_LOOP('',(#954,#955));
#954 = ORIENTED_EDGE('',*,*,#418,.T.);
#955 = ORIENTED_EDGE('',*,*,#956,.T.);
#956 = EDGE_CURVE('',#411,#419,#957,.T.);
#957 = CIRCLE('',#958,11.);
#958 = AXIS2_PLACEMENT_3D('',#959,#960,#961);
#959 = CARTESIAN_POINT('',(0.,0.,-0.5));
#960 = DIRECTION('',(0.,0.,-1.));
#961 = DIRECTION('',(-1.,0.,0.));
#962 = FACE_BOUND('',#963,.T.);
#963 = EDGE_LOOP('',(#964,#965));
#964 = ORIENTED_EDGE('',*,*,#867,.T.);
#965 = ORIENTED_EDGE('',*,*,#216,.T.);
#966 = PLANE('',#967);
#967 = AXIS2_PLACEMENT_3D('',#968,#969,#970);
#968 = CARTESIAN_POINT('',(0.,0.,-0.5));
#969 = DIRECTION('',(0.,0.,1.));
#970 = DIRECTION('',(1.,0.,-0.));
#971 = ADVANCED_FACE('',(#972),#976,.T.);
#972 = FACE_BOUND('',#973,.T.);
#973 = EDGE_LOOP('',(#974,#975));
#974 = ORIENTED_EDGE('',*,*,#885,.T.);
#975 = ORIENTED_EDGE('',*,*,#258,.T.);
#976 = PLANE('',#977);
#977 = AXIS2_PLACEMENT_3D('',#978,#979,#980);
#978 = CARTESIAN_POINT('',(-15.5,-15.5,-5.));
#979 = DIRECTION('',(0.,0.,1.));
#980 = DIRECTION('',(1.,0.,-0.));
#981 = ADVANCED_FACE('',(#982),#986,.T.);
#982 = FACE_BOUND('',#983,.T.);
#983 = EDGE_LOOP('',(#984,#985));
#984 = ORIENTED_EDGE('',*,*,#903,.T.);
#985 = ORIENTED_EDGE('',*,*,#300,.T.);
#986 = PLANE('',#987);
#987 = AXIS2_PLACEMENT_3D('',#988,#989,#990);
#988 = CARTESIAN_POINT('',(15.5,-15.5,-5.));
#989 = DIRECTION('',(0.,0.,1.));
#990 = DIRECTION('',(1.,0.,-0.));
#991 = ADVANCED_FACE('',(#992),#996,.T.);
#992 = FACE_BOUND('',#993,.T.);
#993 = EDGE_LOOP('',(#994,#995));
#994 = ORIENTED_EDGE('',*,*,#921,.T.);
#995 = ORIENTED_EDGE('',*,*,#342,.T.);
#996 = PLANE('',#997);
#997 = AXIS2_PLACEMENT_3D('',#998,#999,#1000);
#998 = CARTESIAN_POINT('',(-15.5,15.5,-5.));
#999 = DIRECTION('',(0.,0.,1.));
#1000 = DIRECTION('',(1.,0.,-0.));
#1001 = ADVANCED_FACE('',(#1002),#1006,.T.);
#1002 = FACE_BOUND('',#1003,.T.);
#1003 = EDGE_LOOP('',(#1004,#1005));
#1004 = ORIENTED_EDGE('',*,*,#939,.T.);
#1005 = ORIENTED_EDGE('',*,*,#384,.T.);
#1006 = PLANE('',#1007);
#1007 = AXIS2_PLACEMENT_3D('',#1008,#1009,#1010);
#1008 = CARTESIAN_POINT('',(15.5,15.5,-5.));
#1009 = DIRECTION('',(0.,0.,1.));
#1010 = DIRECTION('',(1.,0.,-0.));
#1011 = ADVANCED_FACE('',(#1012),#1024,.T.);
#1012 = FACE_BOUND('',#1013,.T.);
#1013 = EDGE_LOOP('',(#1014,#1015,#1022,#1023));
#1014 = ORIENTED_EDGE('',*,*,#410,.F.);
#1015 = ORIENTED_EDGE('',*,*,#1016,.T.);
#1016 = EDGE_CURVE('',#402,#400,#1017,.T.);
#1017 = CIRCLE('',#1018,11.);
#1018 = AXIS2_PLACEMENT_3D('',#1019,#1020,#1021);
#1019 = CARTESIAN_POINT('',(0.,0.,2.));
#1020 = DIRECTION('',(0.,0.,-1.));
#1021 = DIRECTION('',(-1.,0.,0.));
#1022 = ORIENTED_EDGE('',*,*,#427,.T.);
#1023 = ORIENTED_EDGE('',*,*,#956,.F.);
#1024 = CYLINDRICAL_SURFACE('',#1025,11.);
#1025 = AXIS2_PLACEMENT_3D('',#1026,#1027,#1028);
#1026 = CARTESIAN_POINT('',(0.,0.,2.));
#1027 = DIRECTION('',(0.,0.,-1.));
#1028 = DIRECTION('',(-1.,0.,0.));
#1029 = ADVANCED_FACE('',(#1030,#1040),#1044,.T.);
#1030 = FACE_BOUND('',#1031,.T.);
#1031 = EDGE_LOOP('',(#1032,#1033));
#1032 = ORIENTED_EDGE('',*,*,#451,.T.);
#1033 = ORIENTED_EDGE('',*,*,#1034,.T.);
#1034 = EDGE_CURVE('',#452,#444,#1035,.T.);
#1035 = CIRCLE('',#1036,3.5);
#1036 = AXIS2_PLACEMENT_3D('',#1037,#1038,#1039);
#1037 = CARTESIAN_POINT('',(0.,0.,2.));
#1038 = DIRECTION('',(0.,0.,-1.));
#1039 = DIRECTION('',(1.,0.,0.));
#1040 = FACE_BOUND('',#1041,.T.);
#1041 = EDGE_LOOP('',(#1042,#1043));
#1042 = ORIENTED_EDGE('',*,*,#399,.F.);
#1043 = ORIENTED_EDGE('',*,*,#1016,.F.);
#1044 = PLANE('',#1045);
#1045 = AXIS2_PLACEMENT_3D('',#1046,#1047,#1048);
#1046 = CARTESIAN_POINT('',(0.,0.,2.));
#1047 = DIRECTION('',(0.,0.,1.));
#1048 = DIRECTION('',(1.,0.,-0.));
#1049 = ADVANCED_FACE('',(#1050),#1056,.F.);
#1050 = FACE_BOUND('',#1051,.F.);
#1051 = EDGE_LOOP('',(#1052,#1053,#1054,#1055));
#1052 = ORIENTED_EDGE('',*,*,#1034,.T.);
#1053 = ORIENTED_EDGE('',*,*,#441,.F.);
#1054 = ORIENTED_EDGE('',*,*,#525,.T.);
#1055 = ORIENTED_EDGE('',*,*,#460,.T.);
#1056 = CYLINDRICAL_SURFACE('',#1057,3.5);
#1057 = AXIS2_PLACEMENT_3D('',#1058,#1059,#1060);
#1058 = CARTESIAN_POINT('',(0.,0.,-3.));
#1059 = DIRECTION('',(0.,0.,1.));
#1060 = DIRECTION('',(1.,0.,-0.));
#1061 = ADVANCED_FACE('',(#1062),#1074,.T.);
#1062 = FACE_BOUND('',#1063,.T.);
#1063 = EDGE_LOOP('',(#1064,#1065,#1072,#1073));
#1064 = ORIENTED_EDGE('',*,*,#494,.F.);
#1065 = ORIENTED_EDGE('',*,*,#1066,.F.);
#1066 = EDGE_CURVE('',#486,#484,#1067,.T.);
#1067 = CIRCLE('',#1068,2.5);
#1068 = AXIS2_PLACEMENT_3D('',#1069,#1070,#1071);
#1069 = CARTESIAN_POINT('',(0.,0.,23.));
#1070 = DIRECTION('',(0.,0.,1.));
#1071 = DIRECTION('',(1.,0.,-0.));
#1072 = ORIENTED_EDGE('',*,*,#511,.T.);
#1073 = ORIENTED_EDGE('',*,*,#536,.F.);
#1074 = CYLINDRICAL_SURFACE('',#1075,2.5);
#1075 = AXIS2_PLACEMENT_3D('',#1076,#1077,#1078);
#1076 = CARTESIAN_POINT('',(0.,0.,24.));
#1077 = DIRECTION('',(0.,0.,-1.));
#1078 = DIRECTION('',(-1.,0.,0.));
#1079 = ADVANCED_FACE('',(#1080),#1114,.F.);
#1080 = FACE_BOUND('',#1081,.T.);
#1081 = EDGE_LOOP('',(#1082,#1092,#1100,#1108));
#1082 = ORIENTED_EDGE('',*,*,#1083,.F.);
#1083 = EDGE_CURVE('',#1084,#1086,#1088,.T.);
#1084 = VERTEX_POINT('',#1085);
#1085 = CARTESIAN_POINT('',(-21.,-8.5,-23.75));
#1086 = VERTEX_POINT('',#1087);
#1087 = CARTESIAN_POINT('',(-21.,8.5,-23.75));
#1088 = LINE('',#1089,#1090);
#1089 = CARTESIAN_POINT('',(-21.,17.00698948878,-23.75));
#1090 = VECTOR('',#1091,1.);
#1091 = DIRECTION('',(0.,1.,0.));
#1092 = ORIENTED_EDGE('',*,*,#1093,.F.);
#1093 = EDGE_CURVE('',#1094,#1084,#1096,.T.);
#1094 = VERTEX_POINT('',#1095);
#1095 = CARTESIAN_POINT('',(-21.,-8.5,-26.75));
#1096 = LINE('',#1097,#1098);
#1097 = CARTESIAN_POINT('',(-21.,-8.5,-33.75));
#1098 = VECTOR('',#1099,1.);
#1099 = DIRECTION('',(0.,-0.,1.));
#1100 = ORIENTED_EDGE('',*,*,#1101,.T.);
#1101 = EDGE_CURVE('',#1094,#1102,#1104,.T.);
#1102 = VERTEX_POINT('',#1103);
#1103 = CARTESIAN_POINT('',(-21.,8.5,-26.75));
#1104 = LINE('',#1105,#1106);
#1105 = CARTESIAN_POINT('',(-21.,-17.00698948878,-26.75));
#1106 = VECTOR('',#1107,1.);
#1107 = DIRECTION('',(0.,1.,0.));
#1108 = ORIENTED_EDGE('',*,*,#1109,.F.);
#1109 = EDGE_CURVE('',#1086,#1102,#1110,.T.);
#1110 = LINE('',#1111,#1112);
#1111 = CARTESIAN_POINT('',(-21.,8.5,0.));
#1112 = VECTOR('',#1113,1.);
#1113 = DIRECTION('',(0.,0.,-1.));
#1114 = PLANE('',#1115);
#1115 = AXIS2_PLACEMENT_3D('',#1116,#1117,#1118);
#1116 = CARTESIAN_POINT('',(-21.,-17.00698948878,-5.75));
#1117 = DIRECTION('',(-1.,0.,0.));
#1118 = DIRECTION('',(0.,0.,1.));
#1119 = ADVANCED_FACE('',(#1120,#1190),#1200,.T.);
#1120 = FACE_BOUND('',#1121,.T.);
#1121 = EDGE_LOOP('',(#1122,#1132,#1141,#1149,#1158,#1166,#1175,#1183));
#1122 = ORIENTED_EDGE('',*,*,#1123,.F.);
#1123 = EDGE_CURVE('',#1124,#1126,#1128,.T.);
#1124 = VERTEX_POINT('',#1125);
#1125 = CARTESIAN_POINT('',(-15.5,19.5,-5.75));
#1126 = VERTEX_POINT('',#1127);
#1127 = CARTESIAN_POINT('',(15.5,19.5,-5.75));
#1128 = LINE('',#1129,#1130);
#1129 = CARTESIAN_POINT('',(15.5,19.5,-5.75));
#1130 = VECTOR('',#1131,1.);
#1131 = DIRECTION('',(1.,-0.,-0.));
#1132 = ORIENTED_EDGE('',*,*,#1133,.F.);
#1133 = EDGE_CURVE('',#1134,#1124,#1136,.T.);
#1134 = VERTEX_POINT('',#1135);
#1135 = CARTESIAN_POINT('',(-19.5,15.5,-5.75));
#1136 = CIRCLE('',#1137,4.);
#1137 = AXIS2_PLACEMENT_3D('',#1138,#1139,#1140);
#1138 = CARTESIAN_POINT('',(-15.5,15.5,-5.75));
#1139 = DIRECTION('',(0.,0.,-1.));
#1140 = DIRECTION('',(1.,0.,0.));
#1141 = ORIENTED_EDGE('',*,*,#1142,.F.);
#1142 = EDGE_CURVE('',#1143,#1134,#1145,.T.);
#1143 = VERTEX_POINT('',#1144);
#1144 = CARTESIAN_POINT('',(-19.5,-15.5,-5.75));
#1145 = LINE('',#1146,#1147);
#1146 = CARTESIAN_POINT('',(-19.5,-15.5,-5.75));
#1147 = VECTOR('',#1148,1.);
#1148 = DIRECTION('',(0.,1.,0.));
#1149 = ORIENTED_EDGE('',*,*,#1150,.F.);
#1150 = EDGE_CURVE('',#1151,#1143,#1153,.T.);
#1151 = VERTEX_POINT('',#1152);
#1152 = CARTESIAN_POINT('',(-15.5,-19.5,-5.75));
#1153 = CIRCLE('',#1154,4.);
#1154 = AXIS2_PLACEMENT_3D('',#1155,#1156,#1157);
#1155 = CARTESIAN_POINT('',(-15.5,-15.5,-5.75));
#1156 = DIRECTION('',(0.,0.,-1.));
#1157 = DIRECTION('',(-1.,0.,0.));
#1158 = ORIENTED_EDGE('',*,*,#1159,.F.);
#1159 = EDGE_CURVE('',#1160,#1151,#1162,.T.);
#1160 = VERTEX_POINT('',#1161);
#1161 = CARTESIAN_POINT('',(15.5,-19.5,-5.75));
#1162 = LINE('',#1163,#1164);
#1163 = CARTESIAN_POINT('',(15.5,-19.5,-5.75));
#1164 = VECTOR('',#1165,1.);
#1165 = DIRECTION('',(-1.,0.,0.));
#1166 = ORIENTED_EDGE('',*,*,#1167,.F.);
#1167 = EDGE_CURVE('',#1168,#1160,#1170,.T.);
#1168 = VERTEX_POINT('',#1169);
#1169 = CARTESIAN_POINT('',(19.5,-15.5,-5.75));
#1170 = CIRCLE('',#1171,4.);
#1171 = AXIS2_PLACEMENT_3D('',#1172,#1173,#1174);
#1172 = CARTESIAN_POINT('',(15.5,-15.5,-5.75));
#1173 = DIRECTION('',(0.,0.,-1.));
#1174 = DIRECTION('',(1.,0.,0.));
#1175 = ORIENTED_EDGE('',*,*,#1176,.F.);
#1176 = EDGE_CURVE('',#1177,#1168,#1179,.T.);
#1177 = VERTEX_POINT('',#1178);
#1178 = CARTESIAN_POINT('',(19.5,15.5,-5.75));
#1179 = LINE('',#1180,#1181);
#1180 = CARTESIAN_POINT('',(19.5,-15.5,-5.75));
#1181 = VECTOR('',#1182,1.);
#1182 = DIRECTION('',(-0.,-1.,-0.));
#1183 = ORIENTED_EDGE('',*,*,#1184,.F.);
#1184 = EDGE_CURVE('',#1126,#1177,#1185,.T.);
#1185 = CIRCLE('',#1186,4.);
#1186 = AXIS2_PLACEMENT_3D('',#1187,#1188,#1189);
#1187 = CARTESIAN_POINT('',(15.5,15.5,-5.75));
#1188 = DIRECTION('',(0.,0.,-1.));
#1189 = DIRECTION('',(1.,0.,0.));
#1190 = FACE_BOUND('',#1191,.T.);
#1191 = EDGE_LOOP('',(#1192,#1193,#1194,#1195,#1196,#1197,#1198,#1199));
#1192 = ORIENTED_EDGE('',*,*,#551,.T.);
#1193 = ORIENTED_EDGE('',*,*,#777,.T.);
#1194 = ORIENTED_EDGE('',*,*,#746,.T.);
#1195 = ORIENTED_EDGE('',*,*,#715,.T.);
#1196 = ORIENTED_EDGE('',*,*,#684,.T.);
#1197 = ORIENTED_EDGE('',*,*,#653,.T.);
#1198 = ORIENTED_EDGE('',*,*,#622,.T.);
#1199 = ORIENTED_EDGE('',*,*,#591,.T.);
#1200 = PLANE('',#1201);
#1201 = AXIS2_PLACEMENT_3D('',#1202,#1203,#1204);
#1202 = CARTESIAN_POINT('',(0.,0.,-5.75));
#1203 = DIRECTION('',(0.,0.,-1.));
#1204 = DIRECTION('',(-1.,0.,-0.));
#1205 = ADVANCED_FACE('',(#1206,#1276),#1349,.F.);
#1206 = FACE_BOUND('',#1207,.T.);
#1207 = EDGE_LOOP('',(#1208,#1219,#1227,#1236,#1244,#1253,#1261,#1270));
#1208 = ORIENTED_EDGE('',*,*,#1209,.T.);
#1209 = EDGE_CURVE('',#1210,#1212,#1214,.T.);
#1210 = VERTEX_POINT('',#1211);
#1211 = CARTESIAN_POINT('',(15.5,19.5,-26.75));
#1212 = VERTEX_POINT('',#1213);
#1213 = CARTESIAN_POINT('',(19.5,15.5,-26.75));
#1214 = CIRCLE('',#1215,4.);
#1215 = AXIS2_PLACEMENT_3D('',#1216,#1217,#1218);
#1216 = CARTESIAN_POINT('',(15.5,15.5,-26.75));
#1217 = DIRECTION('',(0.,0.,-1.));
#1218 = DIRECTION('',(1.,0.,0.));
#1219 = ORIENTED_EDGE('',*,*,#1220,.T.);
#1220 = EDGE_CURVE('',#1212,#1221,#1223,.T.);
#1221 = VERTEX_POINT('',#1222);
#1222 = CARTESIAN_POINT('',(19.5,-15.5,-26.75));
#1223 = LINE('',#1224,#1225);
#1224 = CARTESIAN_POINT('',(19.5,-15.5,-26.75));
#1225 = VECTOR('',#1226,1.);
#1226 = DIRECTION('',(-0.,-1.,-0.));
#1227 = ORIENTED_EDGE('',*,*,#1228,.T.);
#1228 = EDGE_CURVE('',#1221,#1229,#1231,.T.);
#1229 = VERTEX_POINT('',#1230);
#1230 = CARTESIAN_POINT('',(15.5,-19.5,-26.75));
#1231 = CIRCLE('',#1232,4.);
#1232 = AXIS2_PLACEMENT_3D('',#1233,#1234,#1235);
#1233 = CARTESIAN_POINT('',(15.5,-15.5,-26.75));
#1234 = DIRECTION('',(0.,0.,-1.));
#1235 = DIRECTION('',(1.,0.,0.));
#1236 = ORIENTED_EDGE('',*,*,#1237,.T.);
#1237 = EDGE_CURVE('',#1229,#1238,#1240,.T.);
#1238 = VERTEX_POINT('',#1239);
#1239 = CARTESIAN_POINT('',(-15.5,-19.5,-26.75));
#1240 = LINE('',#1241,#1242);
#1241 = CARTESIAN_POINT('',(15.5,-19.5,-26.75));
#1242 = VECTOR('',#1243,1.);
#1243 = DIRECTION('',(-1.,0.,0.));
#1244 = ORIENTED_EDGE('',*,*,#1245,.T.);
#1245 = EDGE_CURVE('',#1238,#1246,#1248,.T.);
#1246 = VERTEX_POINT('',#1247);
#1247 = CARTESIAN_POINT('',(-19.5,-15.5,-26.75));
#1248 = CIRCLE('',#1249,4.);
#1249 = AXIS2_PLACEMENT_3D('',#1250,#1251,#1252);
#1250 = CARTESIAN_POINT('',(-15.5,-15.5,-26.75));
#1251 = DIRECTION('',(0.,0.,-1.));
#1252 = DIRECTION('',(-1.,0.,0.));
#1253 = ORIENTED_EDGE('',*,*,#1254,.T.);
#1254 = EDGE_CURVE('',#1246,#1255,#1257,.T.);
#1255 = VERTEX_POINT('',#1256);
#1256 = CARTESIAN_POINT('',(-19.5,15.5,-26.75));
#1257 = LINE('',#1258,#1259);
#1258 = CARTESIAN_POINT('',(-19.5,-15.5,-26.75));
#1259 = VECTOR('',#1260,1.);
#1260 = DIRECTION('',(0.,1.,0.));
#1261 = ORIENTED_EDGE('',*,*,#1262,.T.);
#1262 = EDGE_CURVE('',#1255,#1263,#1265,.T.);
#1263 = VERTEX_POINT('',#1264);
#1264 = CARTESIAN_POINT('',(-15.5,19.5,-26.75));
#1265 = CIRCLE('',#1266,4.);
#1266 = AXIS2_PLACEMENT_3D('',#1267,#1268,#1269);
#1267 = CARTESIAN_POINT('',(-15.5,15.5,-26.75));
#1268 = DIRECTION('',(0.,0.,-1.));
#1269 = DIRECTION('',(1.,0.,0.));
#1270 = ORIENTED_EDGE('',*,*,#1271,.T.);
#1271 = EDGE_CURVE('',#1263,#1210,#1272,.T.);
#1272 = LINE('',#1273,#1274);
#1273 = CARTESIAN_POINT('',(15.5,19.5,-26.75));
#1274 = VECTOR('',#1275,1.);
#1275 = DIRECTION('',(1.,-0.,-0.));
#1276 = FACE_BOUND('',#1277,.T.);
#1277 = EDGE_LOOP('',(#1278,#1288,#1294,#1295,#1303,#1311,#1319,#1327,
    #1335,#1343));
#1278 = ORIENTED_EDGE('',*,*,#1279,.F.);
#1279 = EDGE_CURVE('',#1280,#1282,#1284,.T.);
#1280 = VERTEX_POINT('',#1281);
#1281 = CARTESIAN_POINT('',(-21.,17.00698948878,-26.75));
#1282 = VERTEX_POINT('',#1283);
#1283 = CARTESIAN_POINT('',(-17.00698948878,21.,-26.75));
#1284 = LINE('',#1285,#1286);
#1285 = CARTESIAN_POINT('',(-21.,17.00698948878,-26.75));
#1286 = VECTOR('',#1287,1.);
#1287 = DIRECTION('',(0.707106781187,0.707106781187,0.));
#1288 = ORIENTED_EDGE('',*,*,#1289,.F.);
#1289 = EDGE_CURVE('',#1102,#1280,#1290,.T.);
#1290 = LINE('',#1291,#1292);
#1291 = CARTESIAN_POINT('',(-21.,-17.00698948878,-26.75));
#1292 = VECTOR('',#1293,1.);
#1293 = DIRECTION('',(0.,1.,0.));
#1294 = ORIENTED_EDGE('',*,*,#1101,.F.);
#1295 = ORIENTED_EDGE('',*,*,#1296,.F.);
#1296 = EDGE_CURVE('',#1297,#1094,#1299,.T.);
#1297 = VERTEX_POINT('',#1298);
#1298 = CARTESIAN_POINT('',(-21.,-17.00698948878,-26.75));
#1299 = LINE('',#1300,#1301);
#1300 = CARTESIAN_POINT('',(-21.,-17.00698948878,-26.75));
#1301 = VECTOR('',#1302,1.);
#1302 = DIRECTION('',(0.,1.,0.));
#1303 = ORIENTED_EDGE('',*,*,#1304,.F.);
#1304 = EDGE_CURVE('',#1305,#1297,#1307,.T.);
#1305 = VERTEX_POINT('',#1306);
#1306 = CARTESIAN_POINT('',(-17.00698948878,-21.,-26.75));
#1307 = LINE('',#1308,#1309);
#1308 = CARTESIAN_POINT('',(-17.00698948878,-21.,-26.75));
#1309 = VECTOR('',#1310,1.);
#1310 = DIRECTION('',(-0.707106781187,0.707106781187,0.));
#1311 = ORIENTED_EDGE('',*,*,#1312,.F.);
#1312 = EDGE_CURVE('',#1313,#1305,#1315,.T.);
#1313 = VERTEX_POINT('',#1314);
#1314 = CARTESIAN_POINT('',(17.00698948878,-21.,-26.75));
#1315 = LINE('',#1316,#1317);
#1316 = CARTESIAN_POINT('',(17.00698948878,-21.,-26.75));
#1317 = VECTOR('',#1318,1.);
#1318 = DIRECTION('',(-1.,0.,0.));
#1319 = ORIENTED_EDGE('',*,*,#1320,.F.);
#1320 = EDGE_CURVE('',#1321,#1313,#1323,.T.);
#1321 = VERTEX_POINT('',#1322);
#1322 = CARTESIAN_POINT('',(21.,-17.00698948878,-26.75));
#1323 = LINE('',#1324,#1325);
#1324 = CARTESIAN_POINT('',(21.,-17.00698948878,-26.75));
#1325 = VECTOR('',#1326,1.);
#1326 = DIRECTION('',(-0.707106781187,-0.707106781187,0.));
#1327 = ORIENTED_EDGE('',*,*,#1328,.F.);
#1328 = EDGE_CURVE('',#1329,#1321,#1331,.T.);
#1329 = VERTEX_POINT('',#1330);
#1330 = CARTESIAN_POINT('',(21.,17.00698948878,-26.75));
#1331 = LINE('',#1332,#1333);
#1332 = CARTESIAN_POINT('',(21.,17.00698948878,-26.75));
#1333 = VECTOR('',#1334,1.);
#1334 = DIRECTION('',(0.,-1.,0.));
#1335 = ORIENTED_EDGE('',*,*,#1336,.F.);
#1336 = EDGE_CURVE('',#1337,#1329,#1339,.T.);
#1337 = VERTEX_POINT('',#1338);
#1338 = CARTESIAN_POINT('',(17.00698948878,21.,-26.75));
#1339 = LINE('',#1340,#1341);
#1340 = CARTESIAN_POINT('',(17.00698948878,21.,-26.75));
#1341 = VECTOR('',#1342,1.);
#1342 = DIRECTION('',(0.707106781187,-0.707106781187,0.));
#1343 = ORIENTED_EDGE('',*,*,#1344,.F.);
#1344 = EDGE_CURVE('',#1282,#1337,#1345,.T.);
#1345 = LINE('',#1346,#1347);
#1346 = CARTESIAN_POINT('',(-17.00698948878,21.,-26.75));
#1347 = VECTOR('',#1348,1.);
#1348 = DIRECTION('',(1.,0.,0.));
#1349 = PLANE('',#1350);
#1350 = AXIS2_PLACEMENT_3D('',#1351,#1352,#1353);
#1351 = CARTESIAN_POINT('',(0.,0.,-26.75));
#1352 = DIRECTION('',(0.,0.,-1.));
#1353 = DIRECTION('',(-1.,0.,-0.));
#1354 = ADVANCED_FACE('',(#1355),#1371,.T.);
#1355 = FACE_BOUND('',#1356,.T.);
#1356 = EDGE_LOOP('',(#1357,#1358,#1364,#1365));
#1357 = ORIENTED_EDGE('',*,*,#1209,.F.);
#1358 = ORIENTED_EDGE('',*,*,#1359,.F.);
#1359 = EDGE_CURVE('',#1126,#1210,#1360,.T.);
#1360 = LINE('',#1361,#1362);
#1361 = CARTESIAN_POINT('',(15.5,19.5,-5.75));
#1362 = VECTOR('',#1363,1.);
#1363 = DIRECTION('',(-0.,-0.,-1.));
#1364 = ORIENTED_EDGE('',*,*,#1184,.T.);
#1365 = ORIENTED_EDGE('',*,*,#1366,.T.);
#1366 = EDGE_CURVE('',#1177,#1212,#1367,.T.);
#1367 = LINE('',#1368,#1369);
#1368 = CARTESIAN_POINT('',(19.5,15.5,-5.75));
#1369 = VECTOR('',#1370,1.);
#1370 = DIRECTION('',(-0.,-0.,-1.));
#1371 = CYLINDRICAL_SURFACE('',#1372,4.);
#1372 = AXIS2_PLACEMENT_3D('',#1373,#1374,#1375);
#1373 = CARTESIAN_POINT('',(15.5,15.5,-5.75));
#1374 = DIRECTION('',(-0.,-0.,-1.));
#1375 = DIRECTION('',(-1.,0.,0.));
#1376 = ADVANCED_FACE('',(#1377),#1388,.T.);
#1377 = FACE_BOUND('',#1378,.T.);
#1378 = EDGE_LOOP('',(#1379,#1380,#1386,#1387));
#1379 = ORIENTED_EDGE('',*,*,#1271,.F.);
#1380 = ORIENTED_EDGE('',*,*,#1381,.F.);
#1381 = EDGE_CURVE('',#1124,#1263,#1382,.T.);
#1382 = LINE('',#1383,#1384);
#1383 = CARTESIAN_POINT('',(-15.5,19.5,-5.75));
#1384 = VECTOR('',#1385,1.);
#1385 = DIRECTION('',(-0.,-0.,-1.));
#1386 = ORIENTED_EDGE('',*,*,#1123,.T.);
#1387 = ORIENTED_EDGE('',*,*,#1359,.T.);
#1388 = PLANE('',#1389);
#1389 = AXIS2_PLACEMENT_3D('',#1390,#1391,#1392);
#1390 = CARTESIAN_POINT('',(15.5,19.5,-5.75));
#1391 = DIRECTION('',(0.,1.,-0.));
#1392 = DIRECTION('',(0.,0.,1.));
#1393 = ADVANCED_FACE('',(#1394),#1405,.T.);
#1394 = FACE_BOUND('',#1395,.T.);
#1395 = EDGE_LOOP('',(#1396,#1397,#1403,#1404));
#1396 = ORIENTED_EDGE('',*,*,#1262,.F.);
#1397 = ORIENTED_EDGE('',*,*,#1398,.F.);
#1398 = EDGE_CURVE('',#1134,#1255,#1399,.T.);
#1399 = LINE('',#1400,#1401);
#1400 = CARTESIAN_POINT('',(-19.5,15.5,-5.75));
#1401 = VECTOR('',#1402,1.);
#1402 = DIRECTION('',(-0.,-0.,-1.));
#1403 = ORIENTED_EDGE('',*,*,#1133,.T.);
#1404 = ORIENTED_EDGE('',*,*,#1381,.T.);
#1405 = CYLINDRICAL_SURFACE('',#1406,4.);
#1406 = AXIS2_PLACEMENT_3D('',#1407,#1408,#1409);
#1407 = CARTESIAN_POINT('',(-15.5,15.5,-5.75));
#1408 = DIRECTION('',(-0.,-0.,-1.));
#1409 = DIRECTION('',(-1.,0.,0.));
#1410 = ADVANCED_FACE('',(#1411),#1422,.T.);
#1411 = FACE_BOUND('',#1412,.T.);
#1412 = EDGE_LOOP('',(#1413,#1414,#1420,#1421));
#1413 = ORIENTED_EDGE('',*,*,#1254,.F.);
#1414 = ORIENTED_EDGE('',*,*,#1415,.F.);
#1415 = EDGE_CURVE('',#1143,#1246,#1416,.T.);
#1416 = LINE('',#1417,#1418);
#1417 = CARTESIAN_POINT('',(-19.5,-15.5,-5.75));
#1418 = VECTOR('',#1419,1.);
#1419 = DIRECTION('',(-0.,-0.,-1.));
#1420 = ORIENTED_EDGE('',*,*,#1142,.T.);
#1421 = ORIENTED_EDGE('',*,*,#1398,.T.);
#1422 = PLANE('',#1423);
#1423 = AXIS2_PLACEMENT_3D('',#1424,#1425,#1426);
#1424 = CARTESIAN_POINT('',(-19.5,-15.5,-5.75));
#1425 = DIRECTION('',(-1.,0.,0.));
#1426 = DIRECTION('',(0.,0.,1.));
#1427 = ADVANCED_FACE('',(#1428),#1439,.T.);
#1428 = FACE_BOUND('',#1429,.T.);
#1429 = EDGE_LOOP('',(#1430,#1431,#1437,#1438));
#1430 = ORIENTED_EDGE('',*,*,#1245,.F.);
#1431 = ORIENTED_EDGE('',*,*,#1432,.F.);
#1432 = EDGE_CURVE('',#1151,#1238,#1433,.T.);
#1433 = LINE('',#1434,#1435);
#1434 = CARTESIAN_POINT('',(-15.5,-19.5,-5.75));
#1435 = VECTOR('',#1436,1.);
#1436 = DIRECTION('',(-0.,-0.,-1.));
#1437 = ORIENTED_EDGE('',*,*,#1150,.T.);
#1438 = ORIENTED_EDGE('',*,*,#1415,.T.);
#1439 = CYLINDRICAL_SURFACE('',#1440,4.);
#1440 = AXIS2_PLACEMENT_3D('',#1441,#1442,#1443);
#1441 = CARTESIAN_POINT('',(-15.5,-15.5,-5.75));
#1442 = DIRECTION('',(-0.,-0.,-1.));
#1443 = DIRECTION('',(-1.,0.,0.));
#1444 = ADVANCED_FACE('',(#1445),#1456,.T.);
#1445 = FACE_BOUND('',#1446,.T.);
#1446 = EDGE_LOOP('',(#1447,#1448,#1454,#1455));
#1447 = ORIENTED_EDGE('',*,*,#1237,.F.);
#1448 = ORIENTED_EDGE('',*,*,#1449,.F.);
#1449 = EDGE_CURVE('',#1160,#1229,#1450,.T.);
#1450 = LINE('',#1451,#1452);
#1451 = CARTESIAN_POINT('',(15.5,-19.5,-5.75));
#1452 = VECTOR('',#1453,1.);
#1453 = DIRECTION('',(-0.,-0.,-1.));
#1454 = ORIENTED_EDGE('',*,*,#1159,.T.);
#1455 = ORIENTED_EDGE('',*,*,#1432,.T.);
#1456 = PLANE('',#1457);
#1457 = AXIS2_PLACEMENT_3D('',#1458,#1459,#1460);
#1458 = CARTESIAN_POINT('',(15.5,-19.5,-5.75));
#1459 = DIRECTION('',(0.,-1.,0.));
#1460 = DIRECTION('',(0.,-0.,-1.));
#1461 = ADVANCED_FACE('',(#1462),#1473,.T.);
#1462 = FACE_BOUND('',#1463,.T.);
#1463 = EDGE_LOOP('',(#1464,#1465,#1471,#1472));
#1464 = ORIENTED_EDGE('',*,*,#1228,.F.);
#1465 = ORIENTED_EDGE('',*,*,#1466,.F.);
#1466 = EDGE_CURVE('',#1168,#1221,#1467,.T.);
#1467 = LINE('',#1468,#1469);
#1468 = CARTESIAN_POINT('',(19.5,-15.5,-5.75));
#1469 = VECTOR('',#1470,1.);
#1470 = DIRECTION('',(-0.,-0.,-1.));
#1471 = ORIENTED_EDGE('',*,*,#1167,.T.);
#1472 = ORIENTED_EDGE('',*,*,#1449,.T.);
#1473 = CYLINDRICAL_SURFACE('',#1474,4.);
#1474 = AXIS2_PLACEMENT_3D('',#1475,#1476,#1477);
#1475 = CARTESIAN_POINT('',(15.5,-15.5,-5.75));
#1476 = DIRECTION('',(-0.,-0.,-1.));
#1477 = DIRECTION('',(-1.,0.,0.));
#1478 = ADVANCED_FACE('',(#1479),#1485,.T.);
#1479 = FACE_BOUND('',#1480,.T.);
#1480 = EDGE_LOOP('',(#1481,#1482,#1483,#1484));
#1481 = ORIENTED_EDGE('',*,*,#1220,.F.);
#1482 = ORIENTED_EDGE('',*,*,#1366,.F.);
#1483 = ORIENTED_EDGE('',*,*,#1176,.T.);
#1484 = ORIENTED_EDGE('',*,*,#1466,.T.);
#1485 = PLANE('',#1486);
#1486 = AXIS2_PLACEMENT_3D('',#1487,#1488,#1489);
#1487 = CARTESIAN_POINT('',(19.5,-15.5,-5.75));
#1488 = DIRECTION('',(1.,0.,0.));
#1489 = DIRECTION('',(0.,0.,-1.));
#1490 = ADVANCED_FACE('',(#1491),#1501,.T.);
#1491 = FACE_BOUND('',#1492,.T.);
#1492 = EDGE_LOOP('',(#1493,#1500));
#1493 = ORIENTED_EDGE('',*,*,#1494,.T.);
#1494 = EDGE_CURVE('',#148,#167,#1495,.T.);
#1495 = CIRCLE('',#1496,1.5);
#1496 = AXIS2_PLACEMENT_3D('',#1497,#1498,#1499);
#1497 = CARTESIAN_POINT('',(-15.5,15.5,-28.75));
#1498 = DIRECTION('',(0.,0.,-1.));
#1499 = DIRECTION('',(-1.,0.,0.));
#1500 = ORIENTED_EDGE('',*,*,#174,.T.);
#1501 = PLANE('',#1502);
#1502 = AXIS2_PLACEMENT_3D('',#1503,#1504,#1505);
#1503 = CARTESIAN_POINT('',(-15.5,15.5,-28.75));
#1504 = DIRECTION('',(0.,0.,-1.));
#1505 = DIRECTION('',(-1.,0.,-0.));
#1506 = ADVANCED_FACE('',(#1507),#1517,.T.);
#1507 = FACE_BOUND('',#1508,.T.);
#1508 = EDGE_LOOP('',(#1509,#1516));
#1509 = ORIENTED_EDGE('',*,*,#1510,.T.);
#1510 = EDGE_CURVE('',#106,#125,#1511,.T.);
#1511 = CIRCLE('',#1512,1.5);
#1512 = AXIS2_PLACEMENT_3D('',#1513,#1514,#1515);
#1513 = CARTESIAN_POINT('',(-15.5,-15.5,-28.75));
#1514 = DIRECTION('',(0.,0.,-1.));
#1515 = DIRECTION('',(-1.,0.,0.));
#1516 = ORIENTED_EDGE('',*,*,#132,.T.);
#1517 = PLANE('',#1518);
#1518 = AXIS2_PLACEMENT_3D('',#1519,#1520,#1521);
#1519 = CARTESIAN_POINT('',(-15.5,-15.5,-28.75));
#1520 = DIRECTION('',(0.,0.,-1.));
#1521 = DIRECTION('',(-1.,0.,-0.));
#1522 = ADVANCED_FACE('',(#1523),#1533,.T.);
#1523 = FACE_BOUND('',#1524,.T.);
#1524 = EDGE_LOOP('',(#1525,#1532));
#1525 = ORIENTED_EDGE('',*,*,#1526,.T.);
#1526 = EDGE_CURVE('',#64,#83,#1527,.T.);
#1527 = CIRCLE('',#1528,1.5);
#1528 = AXIS2_PLACEMENT_3D('',#1529,#1530,#1531);
#1529 = CARTESIAN_POINT('',(15.5,-15.5,-28.75));
#1530 = DIRECTION('',(0.,0.,-1.));
#1531 = DIRECTION('',(-1.,0.,0.));
#1532 = ORIENTED_EDGE('',*,*,#90,.T.);
#1533 = PLANE('',#1534);
#1534 = AXIS2_PLACEMENT_3D('',#1535,#1536,#1537);
#1535 = CARTESIAN_POINT('',(15.5,-15.5,-28.75));
#1536 = DIRECTION('',(0.,0.,-1.));
#1537 = DIRECTION('',(-1.,0.,-0.));
#1538 = ADVANCED_FACE('',(#1539),#1549,.T.);
#1539 = FACE_BOUND('',#1540,.T.);
#1540 = EDGE_LOOP('',(#1541,#1548));
#1541 = ORIENTED_EDGE('',*,*,#1542,.T.);
#1542 = EDGE_CURVE('',#22,#41,#1543,.T.);
#1543 = CIRCLE('',#1544,1.5);
#1544 = AXIS2_PLACEMENT_3D('',#1545,#1546,#1547);
#1545 = CARTESIAN_POINT('',(15.5,15.5,-28.75));
#1546 = DIRECTION('',(0.,0.,-1.));
#1547 = DIRECTION('',(-1.,0.,0.));
#1548 = ORIENTED_EDGE('',*,*,#48,.T.);
#1549 = PLANE('',#1550);
#1550 = AXIS2_PLACEMENT_3D('',#1551,#1552,#1553);
#1551 = CARTESIAN_POINT('',(15.5,15.5,-28.75));
#1552 = DIRECTION('',(0.,0.,-1.));
#1553 = DIRECTION('',(-1.,0.,-0.));
#1554 = ADVANCED_FACE('',(#1555),#1567,.F.);
#1555 = FACE_BOUND('',#1556,.F.);
#1556 = EDGE_LOOP('',(#1557,#1564,#1565,#1566));
#1557 = ORIENTED_EDGE('',*,*,#1558,.F.);
#1558 = EDGE_CURVE('',#150,#158,#1559,.T.);
#1559 = CIRCLE('',#1560,1.5);
#1560 = AXIS2_PLACEMENT_3D('',#1561,#1562,#1563);
#1561 = CARTESIAN_POINT('',(-15.5,15.5,-33.75));
#1562 = DIRECTION('',(0.,0.,-1.));
#1563 = DIRECTION('',(-1.,0.,0.));
#1564 = ORIENTED_EDGE('',*,*,#147,.F.);
#1565 = ORIENTED_EDGE('',*,*,#1494,.T.);
#1566 = ORIENTED_EDGE('',*,*,#166,.T.);
#1567 = CYLINDRICAL_SURFACE('',#1568,1.5);
#1568 = AXIS2_PLACEMENT_3D('',#1569,#1570,#1571);
#1569 = CARTESIAN_POINT('',(-15.5,15.5,-28.75));
#1570 = DIRECTION('',(0.,0.,-1.));
#1571 = DIRECTION('',(-1.,0.,0.));
#1572 = ADVANCED_FACE('',(#1573),#1585,.F.);
#1573 = FACE_BOUND('',#1574,.F.);
#1574 = EDGE_LOOP('',(#1575,#1582,#1583,#1584));
#1575 = ORIENTED_EDGE('',*,*,#1576,.F.);
#1576 = EDGE_CURVE('',#108,#116,#1577,.T.);
#1577 = CIRCLE('',#1578,1.5);
#1578 = AXIS2_PLACEMENT_3D('',#1579,#1580,#1581);
#1579 = CARTESIAN_POINT('',(-15.5,-15.5,-33.75));
#1580 = DIRECTION('',(0.,0.,-1.));
#1581 = DIRECTION('',(-1.,0.,0.));
#1582 = ORIENTED_EDGE('',*,*,#105,.F.);
#1583 = ORIENTED_EDGE('',*,*,#1510,.T.);
#1584 = ORIENTED_EDGE('',*,*,#124,.T.);
#1585 = CYLINDRICAL_SURFACE('',#1586,1.5);
#1586 = AXIS2_PLACEMENT_3D('',#1587,#1588,#1589);
#1587 = CARTESIAN_POINT('',(-15.5,-15.5,-28.75));
#1588 = DIRECTION('',(0.,0.,-1.));
#1589 = DIRECTION('',(-1.,0.,0.));
#1590 = ADVANCED_FACE('',(#1591),#1603,.F.);
#1591 = FACE_BOUND('',#1592,.F.);
#1592 = EDGE_LOOP('',(#1593,#1600,#1601,#1602));
#1593 = ORIENTED_EDGE('',*,*,#1594,.F.);
#1594 = EDGE_CURVE('',#66,#74,#1595,.T.);
#1595 = CIRCLE('',#1596,1.5);
#1596 = AXIS2_PLACEMENT_3D('',#1597,#1598,#1599);
#1597 = CARTESIAN_POINT('',(15.5,-15.5,-33.75));
#1598 = DIRECTION('',(0.,0.,-1.));
#1599 = DIRECTION('',(-1.,0.,0.));
#1600 = ORIENTED_EDGE('',*,*,#63,.F.);
#1601 = ORIENTED_EDGE('',*,*,#1526,.T.);
#1602 = ORIENTED_EDGE('',*,*,#82,.T.);
#1603 = CYLINDRICAL_SURFACE('',#1604,1.5);
#1604 = AXIS2_PLACEMENT_3D('',#1605,#1606,#1607);
#1605 = CARTESIAN_POINT('',(15.5,-15.5,-28.75));
#1606 = DIRECTION('',(0.,0.,-1.));
#1607 = DIRECTION('',(-1.,0.,0.));
#1608 = ADVANCED_FACE('',(#1609),#1621,.F.);
#1609 = FACE_BOUND('',#1610,.F.);
#1610 = EDGE_LOOP('',(#1611,#1618,#1619,#1620));
#1611 = ORIENTED_EDGE('',*,*,#1612,.F.);
#1612 = EDGE_CURVE('',#24,#32,#1613,.T.);
#1613 = CIRCLE('',#1614,1.5);
#1614 = AXIS2_PLACEMENT_3D('',#1615,#1616,#1617);
#1615 = CARTESIAN_POINT('',(15.5,15.5,-33.75));
#1616 = DIRECTION('',(0.,0.,-1.));
#1617 = DIRECTION('',(-1.,0.,0.));
#1618 = ORIENTED_EDGE('',*,*,#21,.F.);
#1619 = ORIENTED_EDGE('',*,*,#1542,.T.);
#1620 = ORIENTED_EDGE('',*,*,#40,.T.);
#1621 = CYLINDRICAL_SURFACE('',#1622,1.5);
#1622 = AXIS2_PLACEMENT_3D('',#1623,#1624,#1625);
#1623 = CARTESIAN_POINT('',(15.5,15.5,-28.75));
#1624 = DIRECTION('',(0.,0.,-1.));
#1625 = DIRECTION('',(-1.,0.,0.));
#1626 = ADVANCED_FACE('',(#1627),#1661,.T.);
#1627 = FACE_BOUND('',#1628,.T.);
#1628 = EDGE_LOOP('',(#1629,#1639,#1647,#1655));
#1629 = ORIENTED_EDGE('',*,*,#1630,.T.);
#1630 = EDGE_CURVE('',#1631,#1633,#1635,.T.);
#1631 = VERTEX_POINT('',#1632);
#1632 = CARTESIAN_POINT('',(-29.7,8.5,-33.75));
#1633 = VERTEX_POINT('',#1634);
#1634 = CARTESIAN_POINT('',(-29.7,-8.5,-33.75));
#1635 = LINE('',#1636,#1637);
#1636 = CARTESIAN_POINT('',(-29.7,0.,-33.75));
#1637 = VECTOR('',#1638,1.);
#1638 = DIRECTION('',(0.,-1.,-0.));
#1639 = ORIENTED_EDGE('',*,*,#1640,.T.);
#1640 = EDGE_CURVE('',#1633,#1641,#1643,.T.);
#1641 = VERTEX_POINT('',#1642);
#1642 = CARTESIAN_POINT('',(-29.7,-8.5,-23.75));
#1643 = LINE('',#1644,#1645);
#1644 = CARTESIAN_POINT('',(-29.7,-8.5,-33.75));
#1645 = VECTOR('',#1646,1.);
#1646 = DIRECTION('',(0.,-0.,1.));
#1647 = ORIENTED_EDGE('',*,*,#1648,.T.);
#1648 = EDGE_CURVE('',#1641,#1649,#1651,.T.);
#1649 = VERTEX_POINT('',#1650);
#1650 = CARTESIAN_POINT('',(-29.7,8.5,-23.75));
#1651 = LINE('',#1652,#1653);
#1652 = CARTESIAN_POINT('',(-29.7,-1.046E-14,-23.75));
#1653 = VECTOR('',#1654,1.);
#1654 = DIRECTION('',(0.,1.,-0.));
#1655 = ORIENTED_EDGE('',*,*,#1656,.T.);
#1656 = EDGE_CURVE('',#1649,#1631,#1657,.T.);
#1657 = LINE('',#1658,#1659);
#1658 = CARTESIAN_POINT('',(-29.7,8.5,-33.75));
#1659 = VECTOR('',#1660,1.);
#1660 = DIRECTION('',(-0.,-0.,-1.));
#1661 = PLANE('',#1662);
#1662 = AXIS2_PLACEMENT_3D('',#1663,#1664,#1665);
#1663 = CARTESIAN_POINT('',(-29.7,-1.046E-14,-33.75));
#1664 = DIRECTION('',(-1.,0.,0.));
#1665 = DIRECTION('',(0.,0.,1.));
#1666 = ADVANCED_FACE('',(#1667,#1671,#1675,#1679,#1683),#1772,.F.);
#1667 = FACE_BOUND('',#1668,.T.);
#1668 = EDGE_LOOP('',(#1669,#1670));
#1669 = ORIENTED_EDGE('',*,*,#1612,.F.);
#1670 = ORIENTED_EDGE('',*,*,#31,.F.);
#1671 = FACE_BOUND('',#1672,.T.);
#1672 = EDGE_LOOP('',(#1673,#1674));
#1673 = ORIENTED_EDGE('',*,*,#1594,.F.);
#1674 = ORIENTED_EDGE('',*,*,#73,.F.);
#1675 = FACE_BOUND('',#1676,.T.);
#1676 = EDGE_LOOP('',(#1677,#1678));
#1677 = ORIENTED_EDGE('',*,*,#1576,.F.);
#1678 = ORIENTED_EDGE('',*,*,#115,.F.);
#1679 = FACE_BOUND('',#1680,.T.);
#1680 = EDGE_LOOP('',(#1681,#1682));
#1681 = ORIENTED_EDGE('',*,*,#1558,.F.);
#1682 = ORIENTED_EDGE('',*,*,#157,.F.);
#1683 = FACE_BOUND('',#1684,.T.);
#1684 = EDGE_LOOP('',(#1685,#1695,#1703,#1711,#1719,#1727,#1735,#1741,
    #1742,#1750,#1758,#1766));
#1685 = ORIENTED_EDGE('',*,*,#1686,.F.);
#1686 = EDGE_CURVE('',#1687,#1689,#1691,.T.);
#1687 = VERTEX_POINT('',#1688);
#1688 = CARTESIAN_POINT('',(21.,17.00698948878,-33.75));
#1689 = VERTEX_POINT('',#1690);
#1690 = CARTESIAN_POINT('',(17.00698948878,21.,-33.75));
#1691 = LINE('',#1692,#1693);
#1692 = CARTESIAN_POINT('',(21.,17.00698948878,-33.75));
#1693 = VECTOR('',#1694,1.);
#1694 = DIRECTION('',(-0.707106781187,0.707106781187,0.));
#1695 = ORIENTED_EDGE('',*,*,#1696,.F.);
#1696 = EDGE_CURVE('',#1697,#1687,#1699,.T.);
#1697 = VERTEX_POINT('',#1698);
#1698 = CARTESIAN_POINT('',(21.,-17.00698948878,-33.75));
#1699 = LINE('',#1700,#1701);
#1700 = CARTESIAN_POINT('',(21.,0.,-33.75));
#1701 = VECTOR('',#1702,1.);
#1702 = DIRECTION('',(-0.,1.,0.));
#1703 = ORIENTED_EDGE('',*,*,#1704,.F.);
#1704 = EDGE_CURVE('',#1705,#1697,#1707,.T.);
#1705 = VERTEX_POINT('',#1706);
#1706 = CARTESIAN_POINT('',(17.00698948878,-21.,-33.75));
#1707 = LINE('',#1708,#1709);
#1708 = CARTESIAN_POINT('',(17.00698948878,-21.,-33.75));
#1709 = VECTOR('',#1710,1.);
#1710 = DIRECTION('',(0.707106781187,0.707106781187,0.));
#1711 = ORIENTED_EDGE('',*,*,#1712,.F.);
#1712 = EDGE_CURVE('',#1713,#1705,#1715,.T.);
#1713 = VERTEX_POINT('',#1714);
#1714 = CARTESIAN_POINT('',(-17.00698948878,-21.,-33.75));
#1715 = LINE('',#1716,#1717);
#1716 = CARTESIAN_POINT('',(0.,-21.,-33.75));
#1717 = VECTOR('',#1718,1.);
#1718 = DIRECTION('',(1.,0.,-0.));
#1719 = ORIENTED_EDGE('',*,*,#1720,.F.);
#1720 = EDGE_CURVE('',#1721,#1713,#1723,.T.);
#1721 = VERTEX_POINT('',#1722);
#1722 = CARTESIAN_POINT('',(-21.,-17.00698948878,-33.75));
#1723 = LINE('',#1724,#1725);
#1724 = CARTESIAN_POINT('',(-21.,-17.00698948878,-33.75));
#1725 = VECTOR('',#1726,1.);
#1726 = DIRECTION('',(0.707106781187,-0.707106781187,0.));
#1727 = ORIENTED_EDGE('',*,*,#1728,.F.);
#1728 = EDGE_CURVE('',#1729,#1721,#1731,.T.);
#1729 = VERTEX_POINT('',#1730);
#1730 = CARTESIAN_POINT('',(-21.,-8.5,-33.75));
#1731 = LINE('',#1732,#1733);
#1732 = CARTESIAN_POINT('',(-21.,0.,-33.75));
#1733 = VECTOR('',#1734,1.);
#1734 = DIRECTION('',(0.,-1.,-0.));
#1735 = ORIENTED_EDGE('',*,*,#1736,.F.);
#1736 = EDGE_CURVE('',#1633,#1729,#1737,.T.);
#1737 = LINE('',#1738,#1739);
#1738 = CARTESIAN_POINT('',(0.,-8.5,-33.75));
#1739 = VECTOR('',#1740,1.);
#1740 = DIRECTION('',(1.,0.,-0.));
#1741 = ORIENTED_EDGE('',*,*,#1630,.F.);
#1742 = ORIENTED_EDGE('',*,*,#1743,.F.);
#1743 = EDGE_CURVE('',#1744,#1631,#1746,.T.);
#1744 = VERTEX_POINT('',#1745);
#1745 = CARTESIAN_POINT('',(-21.,8.5,-33.75));
#1746 = LINE('',#1747,#1748);
#1747 = CARTESIAN_POINT('',(0.,8.5,-33.75));
#1748 = VECTOR('',#1749,1.);
#1749 = DIRECTION('',(-1.,-0.,0.));
#1750 = ORIENTED_EDGE('',*,*,#1751,.F.);
#1751 = EDGE_CURVE('',#1752,#1744,#1754,.T.);
#1752 = VERTEX_POINT('',#1753);
#1753 = CARTESIAN_POINT('',(-21.,17.00698948878,-33.75));
#1754 = LINE('',#1755,#1756);
#1755 = CARTESIAN_POINT('',(-21.,0.,-33.75));
#1756 = VECTOR('',#1757,1.);
#1757 = DIRECTION('',(0.,-1.,-0.));
#1758 = ORIENTED_EDGE('',*,*,#1759,.F.);
#1759 = EDGE_CURVE('',#1760,#1752,#1762,.T.);
#1760 = VERTEX_POINT('',#1761);
#1761 = CARTESIAN_POINT('',(-17.00698948878,21.,-33.75));
#1762 = LINE('',#1763,#1764);
#1763 = CARTESIAN_POINT('',(-17.00698948878,21.,-33.75));
#1764 = VECTOR('',#1765,1.);
#1765 = DIRECTION('',(-0.707106781187,-0.707106781187,0.));
#1766 = ORIENTED_EDGE('',*,*,#1767,.F.);
#1767 = EDGE_CURVE('',#1689,#1760,#1768,.T.);
#1768 = LINE('',#1769,#1770);
#1769 = CARTESIAN_POINT('',(0.,21.,-33.75));
#1770 = VECTOR('',#1771,1.);
#1771 = DIRECTION('',(-1.,-0.,0.));
#1772 = PLANE('',#1773);
#1773 = AXIS2_PLACEMENT_3D('',#1774,#1775,#1776);
#1774 = CARTESIAN_POINT('',(0.,0.,-33.75));
#1775 = DIRECTION('',(0.,0.,1.));
#1776 = DIRECTION('',(1.,0.,-0.));
#1777 = ADVANCED_FACE('',(#1778),#1794,.F.);
#1778 = FACE_BOUND('',#1779,.T.);
#1779 = EDGE_LOOP('',(#1780,#1786,#1787,#1793));
#1780 = ORIENTED_EDGE('',*,*,#1781,.F.);
#1781 = EDGE_CURVE('',#1282,#1760,#1782,.T.);
#1782 = LINE('',#1783,#1784);
#1783 = CARTESIAN_POINT('',(-17.00698948878,21.,0.));
#1784 = VECTOR('',#1785,1.);
#1785 = DIRECTION('',(0.,-0.,-1.));
#1786 = ORIENTED_EDGE('',*,*,#1344,.T.);
#1787 = ORIENTED_EDGE('',*,*,#1788,.F.);
#1788 = EDGE_CURVE('',#1689,#1337,#1789,.T.);
#1789 = LINE('',#1790,#1791);
#1790 = CARTESIAN_POINT('',(17.00698948878,21.,0.));
#1791 = VECTOR('',#1792,1.);
#1792 = DIRECTION('',(-0.,0.,1.));
#1793 = ORIENTED_EDGE('',*,*,#1767,.T.);
#1794 = PLANE('',#1795);
#1795 = AXIS2_PLACEMENT_3D('',#1796,#1797,#1798);
#1796 = CARTESIAN_POINT('',(-17.00698948878,21.,0.));
#1797 = DIRECTION('',(0.,-1.,0.));
#1798 = DIRECTION('',(0.,-0.,-1.));
#1799 = ADVANCED_FACE('',(#1800),#1811,.F.);
#1800 = FACE_BOUND('',#1801,.T.);
#1801 = EDGE_LOOP('',(#1802,#1803,#1804,#1810));
#1802 = ORIENTED_EDGE('',*,*,#1788,.T.);
#1803 = ORIENTED_EDGE('',*,*,#1336,.T.);
#1804 = ORIENTED_EDGE('',*,*,#1805,.F.);
#1805 = EDGE_CURVE('',#1687,#1329,#1806,.T.);
#1806 = LINE('',#1807,#1808);
#1807 = CARTESIAN_POINT('',(21.,17.00698948878,0.));
#1808 = VECTOR('',#1809,1.);
#1809 = DIRECTION('',(0.,0.,1.));
#1810 = ORIENTED_EDGE('',*,*,#1686,.T.);
#1811 = PLANE('',#1812);
#1812 = AXIS2_PLACEMENT_3D('',#1813,#1814,#1815);
#1813 = CARTESIAN_POINT('',(17.00698948878,21.,0.));
#1814 = DIRECTION('',(-0.707106781187,-0.707106781187,0.));
#1815 = DIRECTION('',(0.707106781187,-0.707106781187,0.));
#1816 = ADVANCED_FACE('',(#1817),#1828,.F.);
#1817 = FACE_BOUND('',#1818,.T.);
#1818 = EDGE_LOOP('',(#1819,#1820,#1821,#1827));
#1819 = ORIENTED_EDGE('',*,*,#1805,.T.);
#1820 = ORIENTED_EDGE('',*,*,#1328,.T.);
#1821 = ORIENTED_EDGE('',*,*,#1822,.F.);
#1822 = EDGE_CURVE('',#1697,#1321,#1823,.T.);
#1823 = LINE('',#1824,#1825);
#1824 = CARTESIAN_POINT('',(21.,-17.00698948878,0.));
#1825 = VECTOR('',#1826,1.);
#1826 = DIRECTION('',(0.,0.,1.));
#1827 = ORIENTED_EDGE('',*,*,#1696,.T.);
#1828 = PLANE('',#1829);
#1829 = AXIS2_PLACEMENT_3D('',#1830,#1831,#1832);
#1830 = CARTESIAN_POINT('',(21.,17.00698948878,0.));
#1831 = DIRECTION('',(-1.,0.,0.));
#1832 = DIRECTION('',(0.,0.,1.));
#1833 = ADVANCED_FACE('',(#1834),#1845,.F.);
#1834 = FACE_BOUND('',#1835,.T.);
#1835 = EDGE_LOOP('',(#1836,#1837,#1838,#1844));
#1836 = ORIENTED_EDGE('',*,*,#1822,.T.);
#1837 = ORIENTED_EDGE('',*,*,#1320,.T.);
#1838 = ORIENTED_EDGE('',*,*,#1839,.F.);
#1839 = EDGE_CURVE('',#1705,#1313,#1840,.T.);
#1840 = LINE('',#1841,#1842);
#1841 = CARTESIAN_POINT('',(17.00698948878,-21.,0.));
#1842 = VECTOR('',#1843,1.);
#1843 = DIRECTION('',(0.,0.,1.));
#1844 = ORIENTED_EDGE('',*,*,#1704,.T.);
#1845 = PLANE('',#1846);
#1846 = AXIS2_PLACEMENT_3D('',#1847,#1848,#1849);
#1847 = CARTESIAN_POINT('',(21.,-17.00698948878,0.));
#1848 = DIRECTION('',(-0.707106781187,0.707106781187,0.));
#1849 = DIRECTION('',(-0.707106781187,-0.707106781187,0.));
#1850 = ADVANCED_FACE('',(#1851),#1862,.F.);
#1851 = FACE_BOUND('',#1852,.T.);
#1852 = EDGE_LOOP('',(#1853,#1854,#1855,#1861));
#1853 = ORIENTED_EDGE('',*,*,#1839,.T.);
#1854 = ORIENTED_EDGE('',*,*,#1312,.T.);
#1855 = ORIENTED_EDGE('',*,*,#1856,.F.);
#1856 = EDGE_CURVE('',#1713,#1305,#1857,.T.);
#1857 = LINE('',#1858,#1859);
#1858 = CARTESIAN_POINT('',(-17.00698948878,-21.,0.));
#1859 = VECTOR('',#1860,1.);
#1860 = DIRECTION('',(0.,0.,1.));
#1861 = ORIENTED_EDGE('',*,*,#1712,.T.);
#1862 = PLANE('',#1863);
#1863 = AXIS2_PLACEMENT_3D('',#1864,#1865,#1866);
#1864 = CARTESIAN_POINT('',(-17.00698948878,-21.,0.));
#1865 = DIRECTION('',(0.,1.,-0.));
#1866 = DIRECTION('',(0.,0.,1.));
#1867 = ADVANCED_FACE('',(#1868),#1879,.F.);
#1868 = FACE_BOUND('',#1869,.T.);
#1869 = EDGE_LOOP('',(#1870,#1871,#1872,#1878));
#1870 = ORIENTED_EDGE('',*,*,#1856,.T.);
#1871 = ORIENTED_EDGE('',*,*,#1304,.T.);
#1872 = ORIENTED_EDGE('',*,*,#1873,.F.);
#1873 = EDGE_CURVE('',#1721,#1297,#1874,.T.);
#1874 = LINE('',#1875,#1876);
#1875 = CARTESIAN_POINT('',(-21.,-17.00698948878,0.));
#1876 = VECTOR('',#1877,1.);
#1877 = DIRECTION('',(0.,0.,1.));
#1878 = ORIENTED_EDGE('',*,*,#1720,.T.);
#1879 = PLANE('',#1880);
#1880 = AXIS2_PLACEMENT_3D('',#1881,#1882,#1883);
#1881 = CARTESIAN_POINT('',(-21.,-17.00698948878,0.));
#1882 = DIRECTION('',(0.707106781187,0.707106781187,-0.));
#1883 = DIRECTION('',(-0.707106781187,0.707106781187,0.));
#1884 = ADVANCED_FACE('',(#1885),#1896,.F.);
#1885 = FACE_BOUND('',#1886,.T.);
#1886 = EDGE_LOOP('',(#1887,#1888,#1889,#1895));
#1887 = ORIENTED_EDGE('',*,*,#1873,.T.);
#1888 = ORIENTED_EDGE('',*,*,#1296,.T.);
#1889 = ORIENTED_EDGE('',*,*,#1890,.F.);
#1890 = EDGE_CURVE('',#1729,#1094,#1891,.T.);
#1891 = LINE('',#1892,#1893);
#1892 = CARTESIAN_POINT('',(-21.,-8.5,0.));
#1893 = VECTOR('',#1894,1.);
#1894 = DIRECTION('',(-0.,-0.,1.));
#1895 = ORIENTED_EDGE('',*,*,#1728,.T.);
#1896 = PLANE('',#1897);
#1897 = AXIS2_PLACEMENT_3D('',#1898,#1899,#1900);
#1898 = CARTESIAN_POINT('',(-21.,17.00698948878,0.));
#1899 = DIRECTION('',(1.,-0.,0.));
#1900 = DIRECTION('',(0.,0.,-1.));
#1901 = ADVANCED_FACE('',(#1902),#1914,.F.);
#1902 = FACE_BOUND('',#1903,.T.);
#1903 = EDGE_LOOP('',(#1904,#1905,#1906,#1907,#1913));
#1904 = ORIENTED_EDGE('',*,*,#1736,.T.);
#1905 = ORIENTED_EDGE('',*,*,#1890,.T.);
#1906 = ORIENTED_EDGE('',*,*,#1093,.T.);
#1907 = ORIENTED_EDGE('',*,*,#1908,.F.);
#1908 = EDGE_CURVE('',#1641,#1084,#1909,.T.);
#1909 = LINE('',#1910,#1911);
#1910 = CARTESIAN_POINT('',(-29.7,-8.5,-23.75));
#1911 = VECTOR('',#1912,1.);
#1912 = DIRECTION('',(1.,0.,-0.));
#1913 = ORIENTED_EDGE('',*,*,#1640,.F.);
#1914 = PLANE('',#1915);
#1915 = AXIS2_PLACEMENT_3D('',#1916,#1917,#1918);
#1916 = CARTESIAN_POINT('',(-29.7,-8.5,-33.75));
#1917 = DIRECTION('',(0.,1.,0.));
#1918 = DIRECTION('',(0.,-0.,1.));
#1919 = ADVANCED_FACE('',(#1920),#1936,.F.);
#1920 = FACE_BOUND('',#1921,.T.);
#1921 = EDGE_LOOP('',(#1922,#1928,#1929,#1935));
#1922 = ORIENTED_EDGE('',*,*,#1923,.F.);
#1923 = EDGE_CURVE('',#1102,#1744,#1924,.T.);
#1924 = LINE('',#1925,#1926);
#1925 = CARTESIAN_POINT('',(-21.,8.5,0.));
#1926 = VECTOR('',#1927,1.);
#1927 = DIRECTION('',(0.,0.,-1.));
#1928 = ORIENTED_EDGE('',*,*,#1289,.T.);
#1929 = ORIENTED_EDGE('',*,*,#1930,.F.);
#1930 = EDGE_CURVE('',#1752,#1280,#1931,.T.);
#1931 = LINE('',#1932,#1933);
#1932 = CARTESIAN_POINT('',(-21.,17.00698948878,0.));
#1933 = VECTOR('',#1934,1.);
#1934 = DIRECTION('',(-0.,-0.,1.));
#1935 = ORIENTED_EDGE('',*,*,#1751,.T.);
#1936 = PLANE('',#1937);
#1937 = AXIS2_PLACEMENT_3D('',#1938,#1939,#1940);
#1938 = CARTESIAN_POINT('',(-21.,17.00698948878,0.));
#1939 = DIRECTION('',(1.,-0.,0.));
#1940 = DIRECTION('',(0.,0.,-1.));
#1941 = ADVANCED_FACE('',(#1942),#1954,.F.);
#1942 = FACE_BOUND('',#1943,.T.);
#1943 = EDGE_LOOP('',(#1944,#1950,#1951,#1952,#1953));
#1944 = ORIENTED_EDGE('',*,*,#1945,.F.);
#1945 = EDGE_CURVE('',#1086,#1649,#1946,.T.);
#1946 = LINE('',#1947,#1948);
#1947 = CARTESIAN_POINT('',(-29.7,8.5,-23.75));
#1948 = VECTOR('',#1949,1.);
#1949 = DIRECTION('',(-1.,-0.,-0.));
#1950 = ORIENTED_EDGE('',*,*,#1109,.T.);
#1951 = ORIENTED_EDGE('',*,*,#1923,.T.);
#1952 = ORIENTED_EDGE('',*,*,#1743,.T.);
#1953 = ORIENTED_EDGE('',*,*,#1656,.F.);
#1954 = PLANE('',#1955);
#1955 = AXIS2_PLACEMENT_3D('',#1956,#1957,#1958);
#1956 = CARTESIAN_POINT('',(-29.7,8.5,-33.75));
#1957 = DIRECTION('',(0.,-1.,0.));
#1958 = DIRECTION('',(0.,-0.,-1.));
#1959 = ADVANCED_FACE('',(#1960),#1966,.F.);
#1960 = FACE_BOUND('',#1961,.T.);
#1961 = EDGE_LOOP('',(#1962,#1963,#1964,#1965));
#1962 = ORIENTED_EDGE('',*,*,#1930,.T.);
#1963 = ORIENTED_EDGE('',*,*,#1279,.T.);
#1964 = ORIENTED_EDGE('',*,*,#1781,.T.);
#1965 = ORIENTED_EDGE('',*,*,#1759,.T.);
#1966 = PLANE('',#1967);
#1967 = AXIS2_PLACEMENT_3D('',#1968,#1969,#1970);
#1968 = CARTESIAN_POINT('',(-17.00698948878,21.,0.));
#1969 = DIRECTION('',(0.707106781187,-0.707106781187,0.));
#1970 = DIRECTION('',(0.707106781187,0.707106781187,0.));
#1971 = ADVANCED_FACE('',(#1972),#1978,.F.);
#1972 = FACE_BOUND('',#1973,.T.);
#1973 = EDGE_LOOP('',(#1974,#1975,#1976,#1977));
#1974 = ORIENTED_EDGE('',*,*,#1908,.T.);
#1975 = ORIENTED_EDGE('',*,*,#1083,.T.);
#1976 = ORIENTED_EDGE('',*,*,#1945,.T.);
#1977 = ORIENTED_EDGE('',*,*,#1648,.F.);
#1978 = PLANE('',#1979);
#1979 = AXIS2_PLACEMENT_3D('',#1980,#1981,#1982);
#1980 = CARTESIAN_POINT('',(-29.7,8.5,-23.75));
#1981 = DIRECTION('',(0.,0.,-1.));
#1982 = DIRECTION('',(-1.,0.,-0.));
#1983 = ADVANCED_FACE('',(#1984),#1988,.T.);
#1984 = FACE_BOUND('',#1985,.T.);
#1985 = EDGE_LOOP('',(#1986,#1987));
#1986 = ORIENTED_EDGE('',*,*,#1066,.T.);
#1987 = ORIENTED_EDGE('',*,*,#483,.T.);
#1988 = PLANE('',#1989);
#1989 = AXIS2_PLACEMENT_3D('',#1990,#1991,#1992);
#1990 = CARTESIAN_POINT('',(0.,0.,23.));
#1991 = DIRECTION('',(0.,0.,1.));
#1992 = DIRECTION('',(1.,0.,-0.));
#1993 = ( GEOMETRIC_REPRESENTATION_CONTEXT(3) 
GLOBAL_UNCERTAINTY_ASSIGNED_CONTEXT((#1997)) 
GLOBAL_UNIT_ASSIGNED_CONTEXT((#1994,#1995,#1996)) REPRESENTATION_CONTEXT
('Context #1','3D Context with UNIT and UNCERTAINTY') );
#1994 = ( LENGTH_UNIT() NAMED_UNIT(*) SI_UNIT(.MILLI.,.METRE.) );
#1995 = ( NAMED_UNIT(*) PLANE_ANGLE_UNIT() SI_UNIT($,.RADIAN.) );
#1996 = ( NAMED_UNIT(*) SI_UNIT($,.STERADIAN.) SOLID_ANGLE_UNIT() );
#1997 = UNCERTAINTY_MEASURE_WITH_UNIT(LENGTH_MEASURE(1.E-07),#1994,
  'distance_accuracy_value','confusion accuracy');
#1998 = PRODUCT_RELATED_PRODUCT_CATEGORY('part',$,(#7));
#1999 = MECHANICAL_DESIGN_GEOMETRIC_PRESENTATION_REPRESENTATION('',(
    #2000,#2011,#2019,#2026,#2033,#2040,#2047,#2054,#2061,#2068),#1993);
#2000 = STYLED_ITEM('color',(#2001),#15);
#2001 = PRESENTATION_STYLE_ASSIGNMENT((#2002,#2008));
#2002 = SURFACE_STYLE_USAGE(.BOTH.,#2003);
#2003 = SURFACE_SIDE_STYLE('',(#2004));
#2004 = SURFACE_STYLE_FILL_AREA(#2005);
#2005 = FILL_AREA_STYLE('',(#2006));
#2006 = FILL_AREA_STYLE_COLOUR('',#2007);
#2007 = COLOUR_RGB('',0.898039222556,0.898039222556,0.898039222556);
#2008 = CURVE_STYLE('',#2009,POSITIVE_LENGTH_MEASURE(0.1),#2010);
#2009 = DRAUGHTING_PRE_DEFINED_CURVE_FONT('continuous');
#2010 = COLOUR_RGB('',9.803921802644E-02,9.803921802644E-02,
  9.803921802644E-02);
#2011 = OVER_RIDING_STYLED_ITEM('overriding color',(#2012),#1354,#2000);
#2012 = PRESENTATION_STYLE_ASSIGNMENT((#2013));
#2013 = SURFACE_STYLE_USAGE(.BOTH.,#2014);
#2014 = SURFACE_SIDE_STYLE('',(#2015));
#2015 = SURFACE_STYLE_FILL_AREA(#2016);
#2016 = FILL_AREA_STYLE('',(#2017));
#2017 = FILL_AREA_STYLE_COLOUR('',#2018);
#2018 = COLOUR_RGB('',0.250980406631,0.250980406631,0.250980406631);
#2019 = OVER_RIDING_STYLED_ITEM('overriding color',(#2020),#1376,#2000);
#2020 = PRESENTATION_STYLE_ASSIGNMENT((#2021));
#2021 = SURFACE_STYLE_USAGE(.BOTH.,#2022);
#2022 = SURFACE_SIDE_STYLE('',(#2023));
#2023 = SURFACE_STYLE_FILL_AREA(#2024);
#2024 = FILL_AREA_STYLE('',(#2025));
#2025 = FILL_AREA_STYLE_COLOUR('',#2018);
#2026 = OVER_RIDING_STYLED_ITEM('overriding color',(#2027),#1393,#2000);
#2027 = PRESENTATION_STYLE_ASSIGNMENT((#2028));
#2028 = SURFACE_STYLE_USAGE(.BOTH.,#2029);
#2029 = SURFACE_SIDE_STYLE('',(#2030));
#2030 = SURFACE_STYLE_FILL_AREA(#2031);
#2031 = FILL_AREA_STYLE('',(#2032));
#2032 = FILL_AREA_STYLE_COLOUR('',#2018);
#2033 = OVER_RIDING_STYLED_ITEM('overriding color',(#2034),#1410,#2000);
#2034 = PRESENTATION_STYLE_ASSIGNMENT((#2035));
#2035 = SURFACE_STYLE_USAGE(.BOTH.,#2036);
#2036 = SURFACE_SIDE_STYLE('',(#2037));
#2037 = SURFACE_STYLE_FILL_AREA(#2038);
#2038 = FILL_AREA_STYLE('',(#2039));
#2039 = FILL_AREA_STYLE_COLOUR('',#2018);
#2040 = OVER_RIDING_STYLED_ITEM('overriding color',(#2041),#1427,#2000);
#2041 = PRESENTATION_STYLE_ASSIGNMENT((#2042));
#2042 = SURFACE_STYLE_USAGE(.BOTH.,#2043);
#2043 = SURFACE_SIDE_STYLE('',(#2044));
#2044 = SURFACE_STYLE_FILL_AREA(#2045);
#2045 = FILL_AREA_STYLE('',(#2046));
#2046 = FILL_AREA_STYLE_COLOUR('',#2018);
#2047 = OVER_RIDING_STYLED_ITEM('overriding color',(#2048),#1444,#2000);
#2048 = PRESENTATION_STYLE_ASSIGNMENT((#2049));
#2049 = SURFACE_STYLE_USAGE(.BOTH.,#2050);
#2050 = SURFACE_SIDE_STYLE('',(#2051));
#2051 = SURFACE_STYLE_FILL_AREA(#2052);
#2052 = FILL_AREA_STYLE('',(#2053));
#2053 = FILL_AREA_STYLE_COLOUR('',#2018);
#2054 = OVER_RIDING_STYLED_ITEM('overriding color',(#2055),#1461,#2000);
#2055 = PRESENTATION_STYLE_ASSIGNMENT((#2056));
#2056 = SURFACE_STYLE_USAGE(.BOTH.,#2057);
#2057 = SURFACE_SIDE_STYLE('',(#2058));
#2058 = SURFACE_STYLE_FILL_AREA(#2059);
#2059 = FILL_AREA_STYLE('',(#2060));
#2060 = FILL_AREA_STYLE_COLOUR('',#2018);
#2061 = OVER_RIDING_STYLED_ITEM('overriding color',(#2062),#1478,#2000);
#2062 = PRESENTATION_STYLE_ASSIGNMENT((#2063));
#2063 = SURFACE_STYLE_USAGE(.BOTH.,#2064);
#2064 = SURFACE_SIDE_STYLE('',(#2065));
#2065 = SURFACE_STYLE_FILL_AREA(#2066);
#2066 = FILL_AREA_STYLE('',(#2067));
#2067 = FILL_AREA_STYLE_COLOUR('',#2018);
#2068 = OVER_RIDING_STYLED_ITEM('overriding color',(#2069),#1983,#2000);
#2069 = PRESENTATION_STYLE_ASSIGNMENT((#2070));
#2070 = SURFACE_STYLE_USAGE(.BOTH.,#2071);
#2071 = SURFACE_SIDE_STYLE('',(#2072));
#2072 = SURFACE_STYLE_FILL_AREA(#2073);
#2073 = FILL_AREA_STYLE('',(#2074));
#2074 = FILL_AREA_STYLE_COLOUR('',#2075);
#2075 = COLOUR_RGB('',0.800000010877,0.800000010877,0.800000010877);
ENDSEC;
END-ISO-10303-21;
