ISO-10303-21;
HEADER;
FILE_DESCRIPTION(('FreeCAD Model'),'2;1');
FILE_NAME('Open CASCADE Shape Model','2026-09-01T22:19:15',('Author'),(
    ''),'Open CASCADE STEP processor 7.9','FreeCAD','Unknown');
FILE_SCHEMA(('AUTOMOTIVE_DESIGN { 1 0 10303 214 1 1 1 1 }'));
ENDSEC;
DATA;
#1 = APPLICATION_PROTOCOL_DEFINITION('international standard',
  'automotive_design',2000,#2);
#2 = APPLICATION_CONTEXT(
  'core data for automotive mechanical design processes');
#3 = SHAPE_DEFINITION_REPRESENTATION(#4,#10);
#4 = PRODUCT_DEFINITION_SHAPE('','',#5);
#5 = PRODUCT_DEFINITION('design','',#6,#9);
#6 = PRODUCT_DEFINITION_FORMATION('','',#7);
#7 = PRODUCT('Eccentric column_Standard','Eccentric column_Standard','',
  (#8));
#8 = PRODUCT_CONTEXT('',#2,'mechanical');
#9 = PRODUCT_DEFINITION_CONTEXT('part definition',#2,'design');
#10 = ADVANCED_BREP_SHAPE_REPRESENTATION('',(#11,#15),#565);
#11 = AXIS2_PLACEMENT_3D('',#12,#13,#14);
#12 = CARTESIAN_POINT('',(0.,0.,0.));
#13 = DIRECTION('',(0.,0.,1.));
#14 = DIRECTION('',(1.,0.,-0.));
#15 = MANIFOLD_SOLID_BREP('',#16);
#16 = CLOSED_SHELL('',(#17,#59,#91,#133,#175,#207,#231,#251,#269,#287,
    #307,#367,#385,#416,#440,#464,#488,#512,#529,#547));
#17 = ADVANCED_FACE('',(#18),#54,.F.);
#18 = FACE_BOUND('',#19,.F.);
#19 = EDGE_LOOP('',(#20,#30,#39,#47));
#20 = ORIENTED_EDGE('',*,*,#21,.T.);
#21 = EDGE_CURVE('',#22,#24,#26,.T.);
#22 = VERTEX_POINT('',#23);
#23 = CARTESIAN_POINT('',(-2.5,0.7,10.7));
#24 = VERTEX_POINT('',#25);
#25 = CARTESIAN_POINT('',(-2.5,0.7,5.E-02));
#26 = LINE('',#27,#28);
#27 = CARTESIAN_POINT('',(-2.5,0.7,-5.E-02));
#28 = VECTOR('',#29,1.);
#29 = DIRECTION('',(-0.,-0.,-1.));
#30 = ORIENTED_EDGE('',*,*,#31,.T.);
#31 = EDGE_CURVE('',#24,#32,#34,.T.);
#32 = VERTEX_POINT('',#33);
#33 = CARTESIAN_POINT('',(2.5,0.7,5.E-02));
#34 = CIRCLE('',#35,2.5);
#35 = AXIS2_PLACEMENT_3D('',#36,#37,#38);
#36 = CARTESIAN_POINT('',(5.E-17,0.7,5.E-02));
#37 = DIRECTION('',(0.,0.,1.));
#38 = DIRECTION('',(-1.,0.,0.));
#39 = ORIENTED_EDGE('',*,*,#40,.F.);
#40 = EDGE_CURVE('',#41,#32,#43,.T.);
#41 = VERTEX_POINT('',#42);
#42 = CARTESIAN_POINT('',(2.5,0.7,10.7));
#43 = LINE('',#44,#45);
#44 = CARTESIAN_POINT('',(2.5,0.7,-5.E-02));
#45 = VECTOR('',#46,1.);
#46 = DIRECTION('',(-0.,-0.,-1.));
#47 = ORIENTED_EDGE('',*,*,#48,.T.);
#48 = EDGE_CURVE('',#41,#22,#49,.T.);
#49 = CIRCLE('',#50,2.5);
#50 = AXIS2_PLACEMENT_3D('',#51,#52,#53);
#51 = CARTESIAN_POINT('',(5.E-17,0.7,10.7));
#52 = DIRECTION('',(-0.,0.,-1.));
#53 = DIRECTION('',(-1.,0.,0.));
#54 = CYLINDRICAL_SURFACE('',#55,2.5);
#55 = AXIS2_PLACEMENT_3D('',#56,#57,#58);
#56 = CARTESIAN_POINT('',(5.E-17,0.7,-5.E-02));
#57 = DIRECTION('',(-0.,-0.,-1.));
#58 = DIRECTION('',(-1.,0.,0.));
#59 = ADVANCED_FACE('',(#60),#86,.F.);
#60 = FACE_BOUND('',#61,.F.);
#61 = EDGE_LOOP('',(#62,#70,#79,#85));
#62 = ORIENTED_EDGE('',*,*,#63,.T.);
#63 = EDGE_CURVE('',#24,#64,#66,.T.);
#64 = VERTEX_POINT('',#65);
#65 = CARTESIAN_POINT('',(-2.599999999973,0.7,-5.000000004429E-02));
#66 = LINE('',#67,#68);
#67 = CARTESIAN_POINT('',(-2.599999999973,0.7,-5.000000004429E-02));
#68 = VECTOR('',#69,1.);
#69 = DIRECTION('',(-0.707106780986,0.,-0.707106781388));
#70 = ORIENTED_EDGE('',*,*,#71,.T.);
#71 = EDGE_CURVE('',#64,#72,#74,.T.);
#72 = VERTEX_POINT('',#73);
#73 = CARTESIAN_POINT('',(2.599999999973,0.7,-5.000000004429E-02));
#74 = CIRCLE('',#75,2.599999999973);
#75 = AXIS2_PLACEMENT_3D('',#76,#77,#78);
#76 = CARTESIAN_POINT('',(0.,0.7,-5.000000004429E-02));
#77 = DIRECTION('',(0.,-0.,1.));
#78 = DIRECTION('',(-1.,0.,0.));
#79 = ORIENTED_EDGE('',*,*,#80,.F.);
#80 = EDGE_CURVE('',#32,#72,#81,.T.);
#81 = LINE('',#82,#83);
#82 = CARTESIAN_POINT('',(2.599999999973,0.7,-5.000000004429E-02));
#83 = VECTOR('',#84,1.);
#84 = DIRECTION('',(0.707106780986,9.E-17,-0.707106781388));
#85 = ORIENTED_EDGE('',*,*,#31,.F.);
#86 = CONICAL_SURFACE('',#87,2.599999999973,0.785398163113);
#87 = AXIS2_PLACEMENT_3D('',#88,#89,#90);
#88 = CARTESIAN_POINT('',(0.,0.7,-5.000000004429E-02));
#89 = DIRECTION('',(0.,0.,-1.));
#90 = DIRECTION('',(-1.,0.,0.));
#91 = ADVANCED_FACE('',(#92),#128,.T.);
#92 = FACE_BOUND('',#93,.T.);
#93 = EDGE_LOOP('',(#94,#105,#113,#122));
#94 = ORIENTED_EDGE('',*,*,#95,.F.);
#95 = EDGE_CURVE('',#96,#98,#100,.T.);
#96 = VERTEX_POINT('',#97);
#97 = CARTESIAN_POINT('',(3.6,0.,10.7));
#98 = VERTEX_POINT('',#99);
#99 = CARTESIAN_POINT('',(-3.6,0.,10.7));
#100 = CIRCLE('',#101,3.6);
#101 = AXIS2_PLACEMENT_3D('',#102,#103,#104);
#102 = CARTESIAN_POINT('',(-1.3E-15,0.,10.7));
#103 = DIRECTION('',(-1.2E-16,-0.,1.));
#104 = DIRECTION('',(-1.,0.,-1.2E-16));
#105 = ORIENTED_EDGE('',*,*,#106,.T.);
#106 = EDGE_CURVE('',#96,#107,#109,.T.);
#107 = VERTEX_POINT('',#108);
#108 = CARTESIAN_POINT('',(3.6,0.,8.3));
#109 = LINE('',#110,#111);
#110 = CARTESIAN_POINT('',(3.6,4.4E-16,10.7));
#111 = VECTOR('',#112,1.);
#112 = DIRECTION('',(1.2E-16,0.,-1.));
#113 = ORIENTED_EDGE('',*,*,#114,.T.);
#114 = EDGE_CURVE('',#107,#115,#117,.T.);
#115 = VERTEX_POINT('',#116);
#116 = CARTESIAN_POINT('',(-3.6,0.,8.3));
#117 = CIRCLE('',#118,3.6);
#118 = AXIS2_PLACEMENT_3D('',#119,#120,#121);
#119 = CARTESIAN_POINT('',(-1.02E-15,0.,8.3));
#120 = DIRECTION('',(-1.2E-16,-0.,1.));
#121 = DIRECTION('',(-1.,0.,-1.2E-16));
#122 = ORIENTED_EDGE('',*,*,#123,.F.);
#123 = EDGE_CURVE('',#98,#115,#124,.T.);
#124 = LINE('',#125,#126);
#125 = CARTESIAN_POINT('',(-3.6,0.,10.7));
#126 = VECTOR('',#127,1.);
#127 = DIRECTION('',(1.2E-16,0.,-1.));
#128 = CYLINDRICAL_SURFACE('',#129,3.6);
#129 = AXIS2_PLACEMENT_3D('',#130,#131,#132);
#130 = CARTESIAN_POINT('',(-1.3E-15,0.,10.7));
#131 = DIRECTION('',(1.2E-16,0.,-1.));
#132 = DIRECTION('',(-1.,0.,-1.2E-16));
#133 = ADVANCED_FACE('',(#134),#170,.T.);
#134 = FACE_BOUND('',#135,.T.);
#135 = EDGE_LOOP('',(#136,#147,#155,#164));
#136 = ORIENTED_EDGE('',*,*,#137,.T.);
#137 = EDGE_CURVE('',#138,#140,#142,.T.);
#138 = VERTEX_POINT('',#139);
#139 = CARTESIAN_POINT('',(3.499999999974,0.7,-4.999999998745E-02));
#140 = VERTEX_POINT('',#141);
#141 = CARTESIAN_POINT('',(-3.499999999974,0.7,-4.999999998745E-02));
#142 = CIRCLE('',#143,3.499999999974);
#143 = AXIS2_PLACEMENT_3D('',#144,#145,#146);
#144 = CARTESIAN_POINT('',(0.,0.7,-4.999999998745E-02));
#145 = DIRECTION('',(0.,-0.,1.));
#146 = DIRECTION('',(1.,0.,0.));
#147 = ORIENTED_EDGE('',*,*,#148,.T.);
#148 = EDGE_CURVE('',#140,#149,#151,.T.);
#149 = VERTEX_POINT('',#150);
#150 = CARTESIAN_POINT('',(-3.600000000006,0.7,5.000000004429E-02));
#151 = LINE('',#152,#153);
#152 = CARTESIAN_POINT('',(-3.600000000006,0.7,5.000000004429E-02));
#153 = VECTOR('',#154,1.);
#154 = DIRECTION('',(-0.707106781187,9.E-17,0.707106781187));
#155 = ORIENTED_EDGE('',*,*,#156,.T.);
#156 = EDGE_CURVE('',#149,#157,#159,.T.);
#157 = VERTEX_POINT('',#158);
#158 = CARTESIAN_POINT('',(3.600000000006,0.7,5.000000004429E-02));
#159 = CIRCLE('',#160,3.600000000006);
#160 = AXIS2_PLACEMENT_3D('',#161,#162,#163);
#161 = CARTESIAN_POINT('',(5.E-17,0.7,5.000000004429E-02));
#162 = DIRECTION('',(0.,0.,-1.));
#163 = DIRECTION('',(1.,0.,0.));
#164 = ORIENTED_EDGE('',*,*,#165,.F.);
#165 = EDGE_CURVE('',#138,#157,#166,.T.);
#166 = LINE('',#167,#168);
#167 = CARTESIAN_POINT('',(3.600000000006,0.7,5.000000004429E-02));
#168 = VECTOR('',#169,1.);
#169 = DIRECTION('',(0.707106781187,0.,0.707106781187));
#170 = CONICAL_SURFACE('',#171,3.600000000006,0.785398163397);
#171 = AXIS2_PLACEMENT_3D('',#172,#173,#174);
#172 = CARTESIAN_POINT('',(0.,0.7,5.000000004429E-02));
#173 = DIRECTION('',(0.,-0.,1.));
#174 = DIRECTION('',(1.,0.,0.));
#175 = ADVANCED_FACE('',(#176),#202,.T.);
#176 = FACE_BOUND('',#177,.T.);
#177 = EDGE_LOOP('',(#178,#189,#195,#196));
#178 = ORIENTED_EDGE('',*,*,#179,.T.);
#179 = EDGE_CURVE('',#180,#182,#184,.T.);
#180 = VERTEX_POINT('',#181);
#181 = CARTESIAN_POINT('',(-3.6,0.7,0.45));
#182 = VERTEX_POINT('',#183);
#183 = CARTESIAN_POINT('',(3.6,0.7,0.45));
#184 = CIRCLE('',#185,3.6);
#185 = AXIS2_PLACEMENT_3D('',#186,#187,#188);
#186 = CARTESIAN_POINT('',(5.E-17,0.7,0.45));
#187 = DIRECTION('',(-0.,0.,-1.));
#188 = DIRECTION('',(-1.,0.,0.));
#189 = ORIENTED_EDGE('',*,*,#190,.T.);
#190 = EDGE_CURVE('',#182,#157,#191,.T.);
#191 = LINE('',#192,#193);
#192 = CARTESIAN_POINT('',(3.6,0.7,0.45));
#193 = VECTOR('',#194,1.);
#194 = DIRECTION('',(-0.,-0.,-1.));
#195 = ORIENTED_EDGE('',*,*,#156,.F.);
#196 = ORIENTED_EDGE('',*,*,#197,.F.);
#197 = EDGE_CURVE('',#180,#149,#198,.T.);
#198 = LINE('',#199,#200);
#199 = CARTESIAN_POINT('',(-3.6,0.7,0.45));
#200 = VECTOR('',#201,1.);
#201 = DIRECTION('',(-0.,-0.,-1.));
#202 = CYLINDRICAL_SURFACE('',#203,3.6);
#203 = AXIS2_PLACEMENT_3D('',#204,#205,#206);
#204 = CARTESIAN_POINT('',(5.E-17,0.7,0.45));
#205 = DIRECTION('',(-0.,-0.,-1.));
#206 = DIRECTION('',(-1.,0.,0.));
#207 = ADVANCED_FACE('',(#208),#226,.F.);
#208 = FACE_BOUND('',#209,.F.);
#209 = EDGE_LOOP('',(#210,#217,#218,#225));
#210 = ORIENTED_EDGE('',*,*,#211,.T.);
#211 = EDGE_CURVE('',#32,#24,#212,.T.);
#212 = CIRCLE('',#213,2.5);
#213 = AXIS2_PLACEMENT_3D('',#214,#215,#216);
#214 = CARTESIAN_POINT('',(5.E-17,0.7,5.E-02));
#215 = DIRECTION('',(0.,0.,1.));
#216 = DIRECTION('',(-1.,0.,0.));
#217 = ORIENTED_EDGE('',*,*,#21,.F.);
#218 = ORIENTED_EDGE('',*,*,#219,.T.);
#219 = EDGE_CURVE('',#22,#41,#220,.T.);
#220 = CIRCLE('',#221,2.5);
#221 = AXIS2_PLACEMENT_3D('',#222,#223,#224);
#222 = CARTESIAN_POINT('',(5.E-17,0.7,10.7));
#223 = DIRECTION('',(-0.,0.,-1.));
#224 = DIRECTION('',(-1.,0.,0.));
#225 = ORIENTED_EDGE('',*,*,#40,.T.);
#226 = CYLINDRICAL_SURFACE('',#227,2.5);
#227 = AXIS2_PLACEMENT_3D('',#228,#229,#230);
#228 = CARTESIAN_POINT('',(5.E-17,0.7,-5.E-02));
#229 = DIRECTION('',(-0.,-0.,-1.));
#230 = DIRECTION('',(-1.,0.,0.));
#231 = ADVANCED_FACE('',(#232,#242),#246,.T.);
#232 = FACE_BOUND('',#233,.T.);
#233 = EDGE_LOOP('',(#234,#241));
#234 = ORIENTED_EDGE('',*,*,#235,.T.);
#235 = EDGE_CURVE('',#98,#96,#236,.T.);
#236 = CIRCLE('',#237,3.6);
#237 = AXIS2_PLACEMENT_3D('',#238,#239,#240);
#238 = CARTESIAN_POINT('',(-1.3E-15,0.,10.7));
#239 = DIRECTION('',(-1.2E-16,-0.,1.));
#240 = DIRECTION('',(-1.,0.,-1.2E-16));
#241 = ORIENTED_EDGE('',*,*,#95,.T.);
#242 = FACE_BOUND('',#243,.T.);
#243 = EDGE_LOOP('',(#244,#245));
#244 = ORIENTED_EDGE('',*,*,#219,.T.);
#245 = ORIENTED_EDGE('',*,*,#48,.T.);
#246 = PLANE('',#247);
#247 = AXIS2_PLACEMENT_3D('',#248,#249,#250);
#248 = CARTESIAN_POINT('',(3.6,0.,10.7));
#249 = DIRECTION('',(-1.2E-16,0.,1.));
#250 = DIRECTION('',(1.,0.,1.2E-16));
#251 = ADVANCED_FACE('',(#252),#264,.F.);
#252 = FACE_BOUND('',#253,.F.);
#253 = EDGE_LOOP('',(#254,#261,#262,#263));
#254 = ORIENTED_EDGE('',*,*,#255,.T.);
#255 = EDGE_CURVE('',#72,#64,#256,.T.);
#256 = CIRCLE('',#257,2.599999999973);
#257 = AXIS2_PLACEMENT_3D('',#258,#259,#260);
#258 = CARTESIAN_POINT('',(0.,0.7,-5.000000004429E-02));
#259 = DIRECTION('',(0.,-0.,1.));
#260 = DIRECTION('',(-1.,0.,0.));
#261 = ORIENTED_EDGE('',*,*,#63,.F.);
#262 = ORIENTED_EDGE('',*,*,#211,.F.);
#263 = ORIENTED_EDGE('',*,*,#80,.T.);
#264 = CONICAL_SURFACE('',#265,2.599999999973,0.785398163113);
#265 = AXIS2_PLACEMENT_3D('',#266,#267,#268);
#266 = CARTESIAN_POINT('',(0.,0.7,-5.000000004429E-02));
#267 = DIRECTION('',(0.,0.,-1.));
#268 = DIRECTION('',(-1.,0.,0.));
#269 = ADVANCED_FACE('',(#270),#282,.T.);
#270 = FACE_BOUND('',#271,.T.);
#271 = EDGE_LOOP('',(#272,#273,#274,#275));
#272 = ORIENTED_EDGE('',*,*,#106,.F.);
#273 = ORIENTED_EDGE('',*,*,#235,.F.);
#274 = ORIENTED_EDGE('',*,*,#123,.T.);
#275 = ORIENTED_EDGE('',*,*,#276,.T.);
#276 = EDGE_CURVE('',#115,#107,#277,.T.);
#277 = CIRCLE('',#278,3.6);
#278 = AXIS2_PLACEMENT_3D('',#279,#280,#281);
#279 = CARTESIAN_POINT('',(-1.02E-15,0.,8.3));
#280 = DIRECTION('',(-1.2E-16,-0.,1.));
#281 = DIRECTION('',(-1.,0.,-1.2E-16));
#282 = CYLINDRICAL_SURFACE('',#283,3.6);
#283 = AXIS2_PLACEMENT_3D('',#284,#285,#286);
#284 = CARTESIAN_POINT('',(-1.3E-15,0.,10.7));
#285 = DIRECTION('',(1.2E-16,0.,-1.));
#286 = DIRECTION('',(-1.,0.,-1.2E-16));
#287 = ADVANCED_FACE('',(#288,#298),#302,.F.);
#288 = FACE_BOUND('',#289,.T.);
#289 = EDGE_LOOP('',(#290,#291));
#290 = ORIENTED_EDGE('',*,*,#137,.F.);
#291 = ORIENTED_EDGE('',*,*,#292,.F.);
#292 = EDGE_CURVE('',#140,#138,#293,.T.);
#293 = CIRCLE('',#294,3.499999999974);
#294 = AXIS2_PLACEMENT_3D('',#295,#296,#297);
#295 = CARTESIAN_POINT('',(0.,0.7,-4.999999998745E-02));
#296 = DIRECTION('',(0.,-0.,1.));
#297 = DIRECTION('',(1.,0.,0.));
#298 = FACE_BOUND('',#299,.T.);
#299 = EDGE_LOOP('',(#300,#301));
#300 = ORIENTED_EDGE('',*,*,#71,.T.);
#301 = ORIENTED_EDGE('',*,*,#255,.T.);
#302 = PLANE('',#303);
#303 = AXIS2_PLACEMENT_3D('',#304,#305,#306);
#304 = CARTESIAN_POINT('',(0.,0.,-5.E-02));
#305 = DIRECTION('',(0.,0.,1.));
#306 = DIRECTION('',(1.,0.,-0.));
#307 = ADVANCED_FACE('',(#308,#358),#362,.T.);
#308 = FACE_BOUND('',#309,.T.);
#309 = EDGE_LOOP('',(#310,#320,#328,#336,#344,#352));
#310 = ORIENTED_EDGE('',*,*,#311,.T.);
#311 = EDGE_CURVE('',#312,#314,#316,.T.);
#312 = VERTEX_POINT('',#313);
#313 = CARTESIAN_POINT('',(5.773502691896,-2.E-15,8.3));
#314 = VERTEX_POINT('',#315);
#315 = CARTESIAN_POINT('',(2.886751345948,5.,8.3));
#316 = LINE('',#317,#318);
#317 = CARTESIAN_POINT('',(5.773502691896,-1.73E-15,8.3));
#318 = VECTOR('',#319,1.);
#319 = DIRECTION('',(-0.5,0.866025403784,0.));
#320 = ORIENTED_EDGE('',*,*,#321,.T.);
#321 = EDGE_CURVE('',#314,#322,#324,.T.);
#322 = VERTEX_POINT('',#323);
#323 = CARTESIAN_POINT('',(-2.886751345948,5.,8.3));
#324 = LINE('',#325,#326);
#325 = CARTESIAN_POINT('',(0.,5.,8.3));
#326 = VECTOR('',#327,1.);
#327 = DIRECTION('',(-1.,-0.,0.));
#328 = ORIENTED_EDGE('',*,*,#329,.T.);
#329 = EDGE_CURVE('',#322,#330,#332,.T.);
#330 = VERTEX_POINT('',#331);
#331 = CARTESIAN_POINT('',(-5.773502691896,1.E-15,8.3));
#332 = LINE('',#333,#334);
#333 = CARTESIAN_POINT('',(-2.886751345948,5.,8.3));
#334 = VECTOR('',#335,1.);
#335 = DIRECTION('',(-0.5,-0.866025403784,0.));
#336 = ORIENTED_EDGE('',*,*,#337,.T.);
#337 = EDGE_CURVE('',#330,#338,#340,.T.);
#338 = VERTEX_POINT('',#339);
#339 = CARTESIAN_POINT('',(-2.886751345948,-5.,8.3));
#340 = LINE('',#341,#342);
#341 = CARTESIAN_POINT('',(-5.773502691896,8.9E-16,8.3));
#342 = VECTOR('',#343,1.);
#343 = DIRECTION('',(0.5,-0.866025403784,0.));
#344 = ORIENTED_EDGE('',*,*,#345,.T.);
#345 = EDGE_CURVE('',#338,#346,#348,.T.);
#346 = VERTEX_POINT('',#347);
#347 = CARTESIAN_POINT('',(2.886751345948,-5.,8.3));
#348 = LINE('',#349,#350);
#349 = CARTESIAN_POINT('',(0.,-5.,8.3));
#350 = VECTOR('',#351,1.);
#351 = DIRECTION('',(1.,0.,-0.));
#352 = ORIENTED_EDGE('',*,*,#353,.T.);
#353 = EDGE_CURVE('',#346,#312,#354,.T.);
#354 = LINE('',#355,#356);
#355 = CARTESIAN_POINT('',(2.886751345948,-5.,8.3));
#356 = VECTOR('',#357,1.);
#357 = DIRECTION('',(0.5,0.866025403784,0.));
#358 = FACE_BOUND('',#359,.T.);
#359 = EDGE_LOOP('',(#360,#361));
#360 = ORIENTED_EDGE('',*,*,#276,.F.);
#361 = ORIENTED_EDGE('',*,*,#114,.F.);
#362 = PLANE('',#363);
#363 = AXIS2_PLACEMENT_3D('',#364,#365,#366);
#364 = CARTESIAN_POINT('',(0.,0.,8.3));
#365 = DIRECTION('',(0.,0.,1.));
#366 = DIRECTION('',(1.,0.,-0.));
#367 = ADVANCED_FACE('',(#368),#380,.T.);
#368 = FACE_BOUND('',#369,.T.);
#369 = EDGE_LOOP('',(#370,#371,#372,#373));
#370 = ORIENTED_EDGE('',*,*,#148,.F.);
#371 = ORIENTED_EDGE('',*,*,#292,.T.);
#372 = ORIENTED_EDGE('',*,*,#165,.T.);
#373 = ORIENTED_EDGE('',*,*,#374,.T.);
#374 = EDGE_CURVE('',#157,#149,#375,.T.);
#375 = CIRCLE('',#376,3.600000000006);
#376 = AXIS2_PLACEMENT_3D('',#377,#378,#379);
#377 = CARTESIAN_POINT('',(5.E-17,0.7,5.000000004429E-02));
#378 = DIRECTION('',(0.,0.,-1.));
#379 = DIRECTION('',(1.,0.,0.));
#380 = CONICAL_SURFACE('',#381,3.600000000006,0.785398163397);
#381 = AXIS2_PLACEMENT_3D('',#382,#383,#384);
#382 = CARTESIAN_POINT('',(0.,0.7,5.000000004429E-02));
#383 = DIRECTION('',(0.,-0.,1.));
#384 = DIRECTION('',(1.,0.,0.));
#385 = ADVANCED_FACE('',(#386),#411,.T.);
#386 = FACE_BOUND('',#387,.T.);
#387 = EDGE_LOOP('',(#388,#396,#397,#405));
#388 = ORIENTED_EDGE('',*,*,#389,.T.);
#389 = EDGE_CURVE('',#390,#322,#392,.T.);
#390 = VERTEX_POINT('',#391);
#391 = CARTESIAN_POINT('',(-2.886751345948,5.,0.45));
#392 = LINE('',#393,#394);
#393 = CARTESIAN_POINT('',(-2.886751345948,5.,-5.E-02));
#394 = VECTOR('',#395,1.);
#395 = DIRECTION('',(0.,-0.,1.));
#396 = ORIENTED_EDGE('',*,*,#321,.F.);
#397 = ORIENTED_EDGE('',*,*,#398,.T.);
#398 = EDGE_CURVE('',#314,#399,#401,.T.);
#399 = VERTEX_POINT('',#400);
#400 = CARTESIAN_POINT('',(2.886751345948,5.,0.45));
#401 = LINE('',#402,#403);
#402 = CARTESIAN_POINT('',(2.886751345948,5.,-5.E-02));
#403 = VECTOR('',#404,1.);
#404 = DIRECTION('',(-0.,0.,-1.));
#405 = ORIENTED_EDGE('',*,*,#406,.T.);
#406 = EDGE_CURVE('',#399,#390,#407,.T.);
#407 = LINE('',#408,#409);
#408 = CARTESIAN_POINT('',(2.886751345948,5.,0.45));
#409 = VECTOR('',#410,1.);
#410 = DIRECTION('',(-1.,-0.,0.));
#411 = PLANE('',#412);
#412 = AXIS2_PLACEMENT_3D('',#413,#414,#415);
#413 = CARTESIAN_POINT('',(2.886751345948,5.,-5.E-02));
#414 = DIRECTION('',(0.,1.,0.));
#415 = DIRECTION('',(0.,-0.,1.));
#416 = ADVANCED_FACE('',(#417),#435,.T.);
#417 = FACE_BOUND('',#418,.T.);
#418 = EDGE_LOOP('',(#419,#420,#421,#429));
#419 = ORIENTED_EDGE('',*,*,#398,.F.);
#420 = ORIENTED_EDGE('',*,*,#311,.F.);
#421 = ORIENTED_EDGE('',*,*,#422,.T.);
#422 = EDGE_CURVE('',#312,#423,#425,.T.);
#423 = VERTEX_POINT('',#424);
#424 = CARTESIAN_POINT('',(5.773502691896,-1.E-15,0.45));
#425 = LINE('',#426,#427);
#426 = CARTESIAN_POINT('',(5.773502691896,-1.73E-15,-5.E-02));
#427 = VECTOR('',#428,1.);
#428 = DIRECTION('',(-0.,-0.,-1.));
#429 = ORIENTED_EDGE('',*,*,#430,.T.);
#430 = EDGE_CURVE('',#423,#399,#431,.T.);
#431 = LINE('',#432,#433);
#432 = CARTESIAN_POINT('',(5.773502691896,-1.73E-15,0.45));
#433 = VECTOR('',#434,1.);
#434 = DIRECTION('',(-0.5,0.866025403784,0.));
#435 = PLANE('',#436);
#436 = AXIS2_PLACEMENT_3D('',#437,#438,#439);
#437 = CARTESIAN_POINT('',(5.773502691896,-1.73E-15,-5.E-02));
#438 = DIRECTION('',(0.866025403784,0.5,-0.));
#439 = DIRECTION('',(-0.5,0.866025403784,0.));
#440 = ADVANCED_FACE('',(#441),#459,.T.);
#441 = FACE_BOUND('',#442,.T.);
#442 = EDGE_LOOP('',(#443,#444,#445,#453));
#443 = ORIENTED_EDGE('',*,*,#422,.F.);
#444 = ORIENTED_EDGE('',*,*,#353,.F.);
#445 = ORIENTED_EDGE('',*,*,#446,.T.);
#446 = EDGE_CURVE('',#346,#447,#449,.T.);
#447 = VERTEX_POINT('',#448);
#448 = CARTESIAN_POINT('',(2.886751345948,-5.,0.45));
#449 = LINE('',#450,#451);
#450 = CARTESIAN_POINT('',(2.886751345948,-5.,-5.E-02));
#451 = VECTOR('',#452,1.);
#452 = DIRECTION('',(0.,-0.,-1.));
#453 = ORIENTED_EDGE('',*,*,#454,.T.);
#454 = EDGE_CURVE('',#447,#423,#455,.T.);
#455 = LINE('',#456,#457);
#456 = CARTESIAN_POINT('',(2.886751345948,-5.,0.45));
#457 = VECTOR('',#458,1.);
#458 = DIRECTION('',(0.5,0.866025403784,0.));
#459 = PLANE('',#460);
#460 = AXIS2_PLACEMENT_3D('',#461,#462,#463);
#461 = CARTESIAN_POINT('',(2.886751345948,-5.,-5.E-02));
#462 = DIRECTION('',(0.866025403784,-0.5,0.));
#463 = DIRECTION('',(0.5,0.866025403784,0.));
#464 = ADVANCED_FACE('',(#465),#483,.T.);
#465 = FACE_BOUND('',#466,.T.);
#466 = EDGE_LOOP('',(#467,#468,#469,#477));
#467 = ORIENTED_EDGE('',*,*,#446,.F.);
#468 = ORIENTED_EDGE('',*,*,#345,.F.);
#469 = ORIENTED_EDGE('',*,*,#470,.T.);
#470 = EDGE_CURVE('',#338,#471,#473,.T.);
#471 = VERTEX_POINT('',#472);
#472 = CARTESIAN_POINT('',(-2.886751345948,-5.,0.45));
#473 = LINE('',#474,#475);
#474 = CARTESIAN_POINT('',(-2.886751345948,-5.,-5.E-02));
#475 = VECTOR('',#476,1.);
#476 = DIRECTION('',(0.,-0.,-1.));
#477 = ORIENTED_EDGE('',*,*,#478,.T.);
#478 = EDGE_CURVE('',#471,#447,#479,.T.);
#479 = LINE('',#480,#481);
#480 = CARTESIAN_POINT('',(-2.886751345948,-5.,0.45));
#481 = VECTOR('',#482,1.);
#482 = DIRECTION('',(1.,0.,0.));
#483 = PLANE('',#484);
#484 = AXIS2_PLACEMENT_3D('',#485,#486,#487);
#485 = CARTESIAN_POINT('',(-2.886751345948,-5.,-5.E-02));
#486 = DIRECTION('',(0.,-1.,0.));
#487 = DIRECTION('',(0.,-0.,-1.));
#488 = ADVANCED_FACE('',(#489),#507,.T.);
#489 = FACE_BOUND('',#490,.T.);
#490 = EDGE_LOOP('',(#491,#492,#493,#501));
#491 = ORIENTED_EDGE('',*,*,#470,.F.);
#492 = ORIENTED_EDGE('',*,*,#337,.F.);
#493 = ORIENTED_EDGE('',*,*,#494,.T.);
#494 = EDGE_CURVE('',#330,#495,#497,.T.);
#495 = VERTEX_POINT('',#496);
#496 = CARTESIAN_POINT('',(-5.773502691896,1.E-15,0.45));
#497 = LINE('',#498,#499);
#498 = CARTESIAN_POINT('',(-5.773502691896,8.9E-16,-5.E-02));
#499 = VECTOR('',#500,1.);
#500 = DIRECTION('',(-0.,-0.,-1.));
#501 = ORIENTED_EDGE('',*,*,#502,.T.);
#502 = EDGE_CURVE('',#495,#471,#503,.T.);
#503 = LINE('',#504,#505);
#504 = CARTESIAN_POINT('',(-5.773502691896,8.9E-16,0.45));
#505 = VECTOR('',#506,1.);
#506 = DIRECTION('',(0.5,-0.866025403784,0.));
#507 = PLANE('',#508);
#508 = AXIS2_PLACEMENT_3D('',#509,#510,#511);
#509 = CARTESIAN_POINT('',(-5.773502691896,8.9E-16,-5.E-02));
#510 = DIRECTION('',(-0.866025403784,-0.5,0.));
#511 = DIRECTION('',(0.5,-0.866025403784,0.));
#512 = ADVANCED_FACE('',(#513),#524,.T.);
#513 = FACE_BOUND('',#514,.T.);
#514 = EDGE_LOOP('',(#515,#516,#517,#518));
#515 = ORIENTED_EDGE('',*,*,#494,.F.);
#516 = ORIENTED_EDGE('',*,*,#329,.F.);
#517 = ORIENTED_EDGE('',*,*,#389,.F.);
#518 = ORIENTED_EDGE('',*,*,#519,.T.);
#519 = EDGE_CURVE('',#390,#495,#520,.T.);
#520 = LINE('',#521,#522);
#521 = CARTESIAN_POINT('',(-2.886751345948,5.,0.45));
#522 = VECTOR('',#523,1.);
#523 = DIRECTION('',(-0.5,-0.866025403784,0.));
#524 = PLANE('',#525);
#525 = AXIS2_PLACEMENT_3D('',#526,#527,#528);
#526 = CARTESIAN_POINT('',(-2.886751345948,5.,-5.E-02));
#527 = DIRECTION('',(-0.866025403784,0.5,0.));
#528 = DIRECTION('',(-0.5,-0.866025403784,0.));
#529 = ADVANCED_FACE('',(#530),#542,.T.);
#530 = FACE_BOUND('',#531,.T.);
#531 = EDGE_LOOP('',(#532,#533,#540,#541));
#532 = ORIENTED_EDGE('',*,*,#190,.F.);
#533 = ORIENTED_EDGE('',*,*,#534,.T.);
#534 = EDGE_CURVE('',#182,#180,#535,.T.);
#535 = CIRCLE('',#536,3.6);
#536 = AXIS2_PLACEMENT_3D('',#537,#538,#539);
#537 = CARTESIAN_POINT('',(5.E-17,0.7,0.45));
#538 = DIRECTION('',(-0.,0.,-1.));
#539 = DIRECTION('',(-1.,0.,0.));
#540 = ORIENTED_EDGE('',*,*,#197,.T.);
#541 = ORIENTED_EDGE('',*,*,#374,.F.);
#542 = CYLINDRICAL_SURFACE('',#543,3.6);
#543 = AXIS2_PLACEMENT_3D('',#544,#545,#546);
#544 = CARTESIAN_POINT('',(5.E-17,0.7,0.45));
#545 = DIRECTION('',(-0.,-0.,-1.));
#546 = DIRECTION('',(-1.,0.,0.));
#547 = ADVANCED_FACE('',(#548,#552),#560,.T.);
#548 = FACE_BOUND('',#549,.T.);
#549 = EDGE_LOOP('',(#550,#551));
#550 = ORIENTED_EDGE('',*,*,#179,.F.);
#551 = ORIENTED_EDGE('',*,*,#534,.F.);
#552 = FACE_BOUND('',#553,.T.);
#553 = EDGE_LOOP('',(#554,#555,#556,#557,#558,#559));
#554 = ORIENTED_EDGE('',*,*,#502,.F.);
#555 = ORIENTED_EDGE('',*,*,#519,.F.);
#556 = ORIENTED_EDGE('',*,*,#406,.F.);
#557 = ORIENTED_EDGE('',*,*,#430,.F.);
#558 = ORIENTED_EDGE('',*,*,#454,.F.);
#559 = ORIENTED_EDGE('',*,*,#478,.F.);
#560 = PLANE('',#561);
#561 = AXIS2_PLACEMENT_3D('',#562,#563,#564);
#562 = CARTESIAN_POINT('',(5.E-17,0.7,0.45));
#563 = DIRECTION('',(0.,0.,-1.));
#564 = DIRECTION('',(-1.,0.,-0.));
#565 = ( GEOMETRIC_REPRESENTATION_CONTEXT(3) 
GLOBAL_UNCERTAINTY_ASSIGNED_CONTEXT((#569)) GLOBAL_UNIT_ASSIGNED_CONTEXT
((#566,#567,#568)) REPRESENTATION_CONTEXT('Context #1',
  '3D Context with UNIT and UNCERTAINTY') );
#566 = ( LENGTH_UNIT() NAMED_UNIT(*) SI_UNIT(.MILLI.,.METRE.) );
#567 = ( NAMED_UNIT(*) PLANE_ANGLE_UNIT() SI_UNIT($,.RADIAN.) );
#568 = ( NAMED_UNIT(*) SI_UNIT($,.STERADIAN.) SOLID_ANGLE_UNIT() );
#569 = UNCERTAINTY_MEASURE_WITH_UNIT(LENGTH_MEASURE(1.E-07),#566,
  'distance_accuracy_value','confusion accuracy');
#570 = PRODUCT_RELATED_PRODUCT_CATEGORY('part',$,(#7));
#571 = MECHANICAL_DESIGN_GEOMETRIC_PRESENTATION_REPRESENTATION('',(#572)
  ,#565);
#572 = STYLED_ITEM('color',(#573),#15);
#573 = PRESENTATION_STYLE_ASSIGNMENT((#574,#580));
#574 = SURFACE_STYLE_USAGE(.BOTH.,#575);
#575 = SURFACE_SIDE_STYLE('',(#576));
#576 = SURFACE_STYLE_FILL_AREA(#577);
#577 = FILL_AREA_STYLE('',(#578));
#578 = FILL_AREA_STYLE_COLOUR('',#579);
#579 = COLOUR_RGB('',0.898039222556,0.898039222556,0.898039222556);
#580 = CURVE_STYLE('',#581,POSITIVE_LENGTH_MEASURE(0.1),#582);
#581 = DRAUGHTING_PRE_DEFINED_CURVE_FONT('continuous');
#582 = COLOUR_RGB('',9.803921802644E-02,9.803921802644E-02,
  9.803921802644E-02);
ENDSEC;
END-ISO-10303-21;
