ISO-10303-21;
HEADER;
FILE_DESCRIPTION(('FreeCAD Model'),'2;1');
FILE_NAME('Open CASCADE Shape Model','2026-09-01T22:20:18',('Author'),(
    ''),'Open CASCADE STEP processor 7.9','FreeCAD','Unknown');
FILE_SCHEMA(('AUTOMOTIVE_DESIGN { 1 0 10303 214 1 1 1 1 }'));
ENDSEC;
DATA;
#1 = APPLICATION_PROTOCOL_DEFINITION('international standard',
  'automotive_design',2000,#2);
#2 = APPLICATION_CONTEXT(
  'core data for automotive mechanical design processes');
#3 = SHAPE_DEFINITION_REPRESENTATION(#4,#10);
#4 = PRODUCT_DEFINITION_SHAPE('','',#5);
#5 = PRODUCT_DEFINITION('design','',#6,#9);
#6 = PRODUCT_DEFINITION_FORMATION('','',#7);
#7 = PRODUCT('M5 Self-locking nut_Standard',
  'M5 Self-locking nut_Standard','',(#8));
#8 = PRODUCT_CONTEXT('',#2,'mechanical');
#9 = PRODUCT_DEFINITION_CONTEXT('part definition',#2,'design');
#10 = ADVANCED_BREP_SHAPE_REPRESENTATION('',(#11,#15),#615);
#11 = AXIS2_PLACEMENT_3D('',#12,#13,#14);
#12 = CARTESIAN_POINT('',(0.,0.,0.));
#13 = DIRECTION('',(0.,0.,1.));
#14 = DIRECTION('',(1.,0.,-0.));
#15 = MANIFOLD_SOLID_BREP('',#16);
#16 = CLOSED_SHELL('',(#17,#59,#101,#163,#195,#267,#299,#325,#343,#361,
    #409,#427,#449,#466,#483,#512,#541,#563,#583,#603));
#17 = ADVANCED_FACE('',(#18),#54,.T.);
#18 = FACE_BOUND('',#19,.T.);
#19 = EDGE_LOOP('',(#20,#31,#39,#48));
#20 = ORIENTED_EDGE('',*,*,#21,.F.);
#21 = EDGE_CURVE('',#22,#24,#26,.T.);
#22 = VERTEX_POINT('',#23);
#23 = CARTESIAN_POINT('',(3.89,0.,0.38));
#24 = VERTEX_POINT('',#25);
#25 = CARTESIAN_POINT('',(-3.89,0.,0.38));
#26 = CIRCLE('',#27,3.89);
#27 = AXIS2_PLACEMENT_3D('',#28,#29,#30);
#28 = CARTESIAN_POINT('',(0.,0.,0.38));
#29 = DIRECTION('',(0.,-0.,1.));
#30 = DIRECTION('',(-1.,0.,0.));
#31 = ORIENTED_EDGE('',*,*,#32,.T.);
#32 = EDGE_CURVE('',#22,#33,#35,.T.);
#33 = VERTEX_POINT('',#34);
#34 = CARTESIAN_POINT('',(3.89,1.E-15,-0.259807621135));
#35 = LINE('',#36,#37);
#36 = CARTESIAN_POINT('',(3.89,4.8E-16,3.28));
#37 = VECTOR('',#38,1.);
#38 = DIRECTION('',(0.,0.,-1.));
#39 = ORIENTED_EDGE('',*,*,#40,.T.);
#40 = EDGE_CURVE('',#33,#41,#43,.T.);
#41 = VERTEX_POINT('',#42);
#42 = CARTESIAN_POINT('',(-3.89,0.,-0.259807621135));
#43 = CIRCLE('',#44,3.89);
#44 = AXIS2_PLACEMENT_3D('',#45,#46,#47);
#45 = CARTESIAN_POINT('',(0.,0.,-0.259807621135));
#46 = DIRECTION('',(0.,-0.,1.));
#47 = DIRECTION('',(-1.,0.,0.));
#48 = ORIENTED_EDGE('',*,*,#49,.F.);
#49 = EDGE_CURVE('',#24,#41,#50,.T.);
#50 = LINE('',#51,#52);
#51 = CARTESIAN_POINT('',(-3.89,0.,3.28));
#52 = VECTOR('',#53,1.);
#53 = DIRECTION('',(0.,0.,-1.));
#54 = CYLINDRICAL_SURFACE('',#55,3.89);
#55 = AXIS2_PLACEMENT_3D('',#56,#57,#58);
#56 = CARTESIAN_POINT('',(0.,0.,3.28));
#57 = DIRECTION('',(0.,0.,-1.));
#58 = DIRECTION('',(-1.,0.,0.));
#59 = ADVANCED_FACE('',(#60),#96,.F.);
#60 = FACE_BOUND('',#61,.F.);
#61 = EDGE_LOOP('',(#62,#72,#81,#89));
#62 = ORIENTED_EDGE('',*,*,#63,.T.);
#63 = EDGE_CURVE('',#64,#66,#68,.T.);
#64 = VERTEX_POINT('',#65);
#65 = CARTESIAN_POINT('',(2.067,0.,-3.053500982495));
#66 = VERTEX_POINT('',#67);
#67 = CARTESIAN_POINT('',(2.067,0.,0.38));
#68 = LINE('',#69,#70);
#69 = CARTESIAN_POINT('',(2.067,0.,-3.52));
#70 = VECTOR('',#71,1.);
#71 = DIRECTION('',(0.,0.,1.));
#72 = ORIENTED_EDGE('',*,*,#73,.T.);
#73 = EDGE_CURVE('',#66,#74,#76,.T.);
#74 = VERTEX_POINT('',#75);
#75 = CARTESIAN_POINT('',(-2.067,0.,0.38));
#76 = CIRCLE('',#77,2.067);
#77 = AXIS2_PLACEMENT_3D('',#78,#79,#80);
#78 = CARTESIAN_POINT('',(0.,0.,0.38));
#79 = DIRECTION('',(0.,0.,-1.));
#80 = DIRECTION('',(1.,0.,0.));
#81 = ORIENTED_EDGE('',*,*,#82,.F.);
#82 = EDGE_CURVE('',#83,#74,#85,.T.);
#83 = VERTEX_POINT('',#84);
#84 = CARTESIAN_POINT('',(-2.067,0.,-3.053500982495));
#85 = LINE('',#86,#87);
#86 = CARTESIAN_POINT('',(-2.067,2.5E-16,-3.52));
#87 = VECTOR('',#88,1.);
#88 = DIRECTION('',(0.,0.,1.));
#89 = ORIENTED_EDGE('',*,*,#90,.T.);
#90 = EDGE_CURVE('',#83,#64,#91,.T.);
#91 = CIRCLE('',#92,2.067);
#92 = AXIS2_PLACEMENT_3D('',#93,#94,#95);
#93 = CARTESIAN_POINT('',(0.,0.,-3.053500982495));
#94 = DIRECTION('',(0.,0.,1.));
#95 = DIRECTION('',(1.,0.,-0.));
#96 = CYLINDRICAL_SURFACE('',#97,2.067);
#97 = AXIS2_PLACEMENT_3D('',#98,#99,#100);
#98 = CARTESIAN_POINT('',(0.,0.,-3.52));
#99 = DIRECTION('',(0.,0.,1.));
#100 = DIRECTION('',(1.,0.,-0.));
#101 = ADVANCED_FACE('',(#102),#158,.T.);
#102 = FACE_BOUND('',#103,.T.);
#103 = EDGE_LOOP('',(#104,#105,#113,#126,#139,#152));
#104 = ORIENTED_EDGE('',*,*,#40,.F.);
#105 = ORIENTED_EDGE('',*,*,#106,.T.);
#106 = EDGE_CURVE('',#33,#107,#109,.T.);
#107 = VERTEX_POINT('',#108);
#108 = CARTESIAN_POINT('',(4.618802153516,-5.E-15,-0.68058174066));
#109 = LINE('',#110,#111);
#110 = CARTESIAN_POINT('',(4.623174966468,5.7E-16,-0.683106385395));
#111 = VECTOR('',#112,1.);
#112 = DIRECTION('',(0.866025403784,1.1E-16,-0.5));
#113 = ORIENTED_EDGE('',*,*,#114,.T.);
#114 = EDGE_CURVE('',#107,#115,#117,.T.);
#115 = VERTEX_POINT('',#116);
#116 = CARTESIAN_POINT('',(2.309401093409,4.,-0.680581745467));
#117 = B_SPLINE_CURVE_WITH_KNOTS('',3,(#118,#119,#120,#121,#122,#123,
    #124,#125),.UNSPECIFIED.,.F.,.F.,(4,2,2,4),(1.55E-15,
    2.332365439211E-03,3.498548158816E-03,4.66473087842E-03),
  .UNSPECIFIED.);
#118 = CARTESIAN_POINT('',(4.618802153516,-5.2E-15,-0.68058174066));
#119 = CARTESIAN_POINT('',(4.241720541521,0.653124510577,-0.462873570468
    ));
#120 = CARTESIAN_POINT('',(3.858990183421,1.316032936406,-0.323817989912
    ));
#121 = CARTESIAN_POINT('',(3.269968319198,2.336248732008,-0.323067340933
    ));
#122 = CARTESIAN_POINT('',(3.073825379493,2.675978269124,-0.357163091862
    ));
#123 = CARTESIAN_POINT('',(2.68853081377,3.343328032836,-0.48165438566)
  );
#124 = CARTESIAN_POINT('',(2.498177001982,3.673030506267,-0.571591912482
    ));
#125 = CARTESIAN_POINT('',(2.309401093409,4.,-0.680581745467));
#126 = ORIENTED_EDGE('',*,*,#127,.T.);
#127 = EDGE_CURVE('',#115,#128,#130,.T.);
#128 = VERTEX_POINT('',#129);
#129 = CARTESIAN_POINT('',(-2.309401068431,4.000000014424,
    -0.680581745468));
#130 = B_SPLINE_CURVE_WITH_KNOTS('',3,(#131,#132,#133,#134,#135,#136,
    #137,#138),.UNSPECIFIED.,.F.,.F.,(4,2,2,4),(1.390976E-11,
    2.332365459768E-03,3.498548182698E-03,4.664730905627E-03),
  .UNSPECIFIED.);
#131 = CARTESIAN_POINT('',(2.309401093409,4.,-0.680581745467));
#132 = CARTESIAN_POINT('',(1.555237879054,3.999999962488,-0.462873599192
    ));
#133 = CARTESIAN_POINT('',(0.789777150844,4.,-0.32381799116));
#134 = CARTESIAN_POINT('',(-0.388266582628,4.,-0.32306734032));
#135 = CARTESIAN_POINT('',(-0.780552464098,4.,-0.357163090964));
#136 = CARTESIAN_POINT('',(-1.551141599219,4.,-0.481654384829));
#137 = CARTESIAN_POINT('',(-1.931849224588,4.,-0.571591911983));
#138 = CARTESIAN_POINT('',(-2.309401068431,4.000000014424,
    -0.680581745468));
#139 = ORIENTED_EDGE('',*,*,#140,.T.);
#140 = EDGE_CURVE('',#128,#141,#143,.T.);
#141 = VERTEX_POINT('',#142);
#142 = CARTESIAN_POINT('',(-4.618802153516,0.,-0.680581740658));
#143 = B_SPLINE_CURVE_WITH_KNOTS('',3,(#144,#145,#146,#147,#148,#149,
    #150,#151),.UNSPECIFIED.,.F.,.F.,(4,2,2,4),(1.391699E-11,
    2.332365505092E-03,3.49854825068E-03,4.664730996267E-03),
  .UNSPECIFIED.);
#144 = CARTESIAN_POINT('',(-2.309401068431,4.000000014424,
    -0.680581745468));
#145 = CARTESIAN_POINT('',(-2.686482650465,3.346875480767,
    -0.462873594951));
#146 = CARTESIAN_POINT('',(-3.0692130546,2.683967050179,-0.323817985952)
  );
#147 = CARTESIAN_POINT('',(-3.658234933339,1.663751229433,-0.32306734288
    ));
#148 = CARTESIAN_POINT('',(-3.854377877352,1.324021684856,
    -0.357163097412));
#149 = CARTESIAN_POINT('',(-4.23967245161,0.656671906361,-0.481654400038
    ));
#150 = CARTESIAN_POINT('',(-4.430026267533,0.326969425769,
    -0.571591932071));
#151 = CARTESIAN_POINT('',(-4.618802153516,2.3E-16,-0.680581740658));
#152 = ORIENTED_EDGE('',*,*,#153,.F.);
#153 = EDGE_CURVE('',#41,#141,#154,.T.);
#154 = LINE('',#155,#156);
#155 = CARTESIAN_POINT('',(-4.623174966468,0.,-0.683106385395));
#156 = VECTOR('',#157,1.);
#157 = DIRECTION('',(-0.866025403784,0.,-0.5));
#158 = CONICAL_SURFACE('',#159,4.623174966468,1.047197551196);
#159 = AXIS2_PLACEMENT_3D('',#160,#161,#162);
#160 = CARTESIAN_POINT('',(0.,0.,-0.683106385395));
#161 = DIRECTION('',(-0.,-0.,-1.));
#162 = DIRECTION('',(-1.,0.,0.));
#163 = ADVANCED_FACE('',(#164),#190,.F.);
#164 = FACE_BOUND('',#165,.F.);
#165 = EDGE_LOOP('',(#166,#174,#183,#189));
#166 = ORIENTED_EDGE('',*,*,#167,.T.);
#167 = EDGE_CURVE('',#83,#168,#170,.T.);
#168 = VERTEX_POINT('',#169);
#169 = CARTESIAN_POINT('',(-2.875000000017,0.,-3.520000000046));
#170 = LINE('',#171,#172);
#171 = CARTESIAN_POINT('',(-2.874999999904,0.,-3.51999999998));
#172 = VECTOR('',#173,1.);
#173 = DIRECTION('',(-0.866025403784,0.,-0.500000000001));
#174 = ORIENTED_EDGE('',*,*,#175,.T.);
#175 = EDGE_CURVE('',#168,#176,#178,.T.);
#176 = VERTEX_POINT('',#177);
#177 = CARTESIAN_POINT('',(2.875000000017,0.,-3.520000000046));
#178 = CIRCLE('',#179,2.875000000017);
#179 = AXIS2_PLACEMENT_3D('',#180,#181,#182);
#180 = CARTESIAN_POINT('',(0.,0.,-3.520000000046));
#181 = DIRECTION('',(0.,0.,1.));
#182 = DIRECTION('',(-1.,0.,0.));
#183 = ORIENTED_EDGE('',*,*,#184,.F.);
#184 = EDGE_CURVE('',#64,#176,#185,.T.);
#185 = LINE('',#186,#187);
#186 = CARTESIAN_POINT('',(2.874999999904,3.5E-16,-3.51999999998));
#187 = VECTOR('',#188,1.);
#188 = DIRECTION('',(0.866025403784,1.1E-16,-0.500000000001));
#189 = ORIENTED_EDGE('',*,*,#90,.F.);
#190 = CONICAL_SURFACE('',#191,2.874999999904,1.047197551195);
#191 = AXIS2_PLACEMENT_3D('',#192,#193,#194);
#192 = CARTESIAN_POINT('',(0.,0.,-3.51999999998));
#193 = DIRECTION('',(-0.,-0.,-1.));
#194 = DIRECTION('',(-1.,0.,0.));
#195 = ADVANCED_FACE('',(#196),#262,.T.);
#196 = FACE_BOUND('',#197,.T.);
#197 = EDGE_LOOP('',(#198,#209,#217,#230,#243,#256));
#198 = ORIENTED_EDGE('',*,*,#199,.T.);
#199 = EDGE_CURVE('',#200,#202,#204,.T.);
#200 = VERTEX_POINT('',#201);
#201 = CARTESIAN_POINT('',(3.890000000069,0.,-3.260192378832));
#202 = VERTEX_POINT('',#203);
#203 = CARTESIAN_POINT('',(-3.890000000069,0.,-3.260192378832));
#204 = CIRCLE('',#205,3.890000000069);
#205 = AXIS2_PLACEMENT_3D('',#206,#207,#208);
#206 = CARTESIAN_POINT('',(0.,0.,-3.260192378832));
#207 = DIRECTION('',(0.,0.,1.));
#208 = DIRECTION('',(-1.,0.,0.));
#209 = ORIENTED_EDGE('',*,*,#210,.T.);
#210 = EDGE_CURVE('',#202,#211,#213,.T.);
#211 = VERTEX_POINT('',#212);
#212 = CARTESIAN_POINT('',(-4.618802153474,1.E-15,-2.83941825938));
#213 = LINE('',#214,#215);
#214 = CARTESIAN_POINT('',(-4.623174966412,5.7E-16,-2.836893614642));
#215 = VECTOR('',#216,1.);
#216 = DIRECTION('',(-0.866025403784,1.1E-16,0.5));
#217 = ORIENTED_EDGE('',*,*,#218,.F.);
#218 = EDGE_CURVE('',#219,#211,#221,.T.);
#219 = VERTEX_POINT('',#220);
#220 = CARTESIAN_POINT('',(-2.309401076758,4.,-2.839418259344));
#221 = B_SPLINE_CURVE_WITH_KNOTS('',3,(#222,#223,#224,#225,#226,#227,
    #228,#229),.UNSPECIFIED.,.F.,.F.,(4,2,2,4),(3.4E-16,
    2.332365484534E-03,3.498548226801E-03,4.664730969068E-03),
  .UNSPECIFIED.);
#222 = CARTESIAN_POINT('',(-2.309401076758,4.,-2.839418259344));
#223 = CARTESIAN_POINT('',(-2.686482696081,3.346875476733,
    -3.057126433767));
#224 = CARTESIAN_POINT('',(-3.069213061742,2.683967037808,
    -3.196182015301));
#225 = CARTESIAN_POINT('',(-3.65823493797,1.663751221412,-3.196932656511
    ));
#226 = CARTESIAN_POINT('',(-3.854377880955,1.324021678616,
    -3.162836901693));
#227 = CARTESIAN_POINT('',(-4.239672453377,0.656671903301,
    -3.038345599131));
#228 = CARTESIAN_POINT('',(-4.430026268414,0.326969424242,
    -2.948408067425));
#229 = CARTESIAN_POINT('',(-4.618802153474,6.5E-16,-2.83941825938));
#230 = ORIENTED_EDGE('',*,*,#231,.F.);
#231 = EDGE_CURVE('',#232,#219,#234,.T.);
#232 = VERTEX_POINT('',#233);
#233 = CARTESIAN_POINT('',(2.309401076758,4.,-2.839418259344));
#234 = B_SPLINE_CURVE_WITH_KNOTS('',3,(#235,#236,#237,#238,#239,#240,
    #241,#242),.UNSPECIFIED.,.F.,.F.,(4,2,2,4),(3.4E-16,
    2.332365484548E-03,3.498548226821E-03,4.664730969095E-03),
  .UNSPECIFIED.);
#235 = CARTESIAN_POINT('',(2.309401076758,4.,-2.839418259344));
#236 = CARTESIAN_POINT('',(1.555237838109,4.,-3.057126433768));
#237 = CARTESIAN_POINT('',(0.789777106782,4.,-3.196182015303));
#238 = CARTESIAN_POINT('',(-0.388266645681,4.,-3.19693265651));
#239 = CARTESIAN_POINT('',(-0.780552531652,4.,-3.162836901691));
#240 = CARTESIAN_POINT('',(-1.551141676501,4.,-3.038345599127));
#241 = CARTESIAN_POINT('',(-1.931849306557,4.,-2.948408067424));
#242 = CARTESIAN_POINT('',(-2.309401076758,4.,-2.839418259344));
#243 = ORIENTED_EDGE('',*,*,#244,.F.);
#244 = EDGE_CURVE('',#245,#232,#247,.T.);
#245 = VERTEX_POINT('',#246);
#246 = CARTESIAN_POINT('',(4.618802153488,-5.E-15,-2.839418259356));
#247 = B_SPLINE_CURVE_WITH_KNOTS('',3,(#248,#249,#250,#251,#252,#253,
    #254,#255),.UNSPECIFIED.,.F.,.F.,(4,2,2,4),(9.36E-15,
    2.332365484549E-03,3.498548226819E-03,4.664730969088E-03),
  .UNSPECIFIED.);
#248 = CARTESIAN_POINT('',(4.618802153488,-4.89E-15,-2.839418259356));
#249 = CARTESIAN_POINT('',(4.24172053419,0.653124523274,-3.057126433768)
  );
#250 = CARTESIAN_POINT('',(3.858990168524,1.316032962208,-3.196182015304
    ));
#251 = CARTESIAN_POINT('',(3.269968292294,2.336248778608,-3.19693265651)
  );
#252 = CARTESIAN_POINT('',(3.073825349309,2.675978321404,-3.16283690169)
  );
#253 = CARTESIAN_POINT('',(2.688530776886,3.343328096721,-3.038345599126
    ));
#254 = CARTESIAN_POINT('',(2.498176961859,3.673030575762,-2.948408067423
    ));
#255 = CARTESIAN_POINT('',(2.309401076758,4.,-2.839418259344));
#256 = ORIENTED_EDGE('',*,*,#257,.F.);
#257 = EDGE_CURVE('',#200,#245,#258,.T.);
#258 = LINE('',#259,#260);
#259 = CARTESIAN_POINT('',(4.623174966412,0.,-2.836893614642));
#260 = VECTOR('',#261,1.);
#261 = DIRECTION('',(0.866025403784,0.,0.5));
#262 = CONICAL_SURFACE('',#263,4.623174966412,1.047197551196);
#263 = AXIS2_PLACEMENT_3D('',#264,#265,#266);
#264 = CARTESIAN_POINT('',(0.,0.,-2.836893614642));
#265 = DIRECTION('',(-0.,0.,1.));
#266 = DIRECTION('',(1.,0.,0.));
#267 = ADVANCED_FACE('',(#268),#294,.T.);
#268 = FACE_BOUND('',#269,.T.);
#269 = EDGE_LOOP('',(#270,#271,#279,#288));
#270 = ORIENTED_EDGE('',*,*,#199,.F.);
#271 = ORIENTED_EDGE('',*,*,#272,.T.);
#272 = EDGE_CURVE('',#200,#273,#275,.T.);
#273 = VERTEX_POINT('',#274);
#274 = CARTESIAN_POINT('',(3.89,0.,-3.52));
#275 = LINE('',#276,#277);
#276 = CARTESIAN_POINT('',(3.89,4.8E-16,3.28));
#277 = VECTOR('',#278,1.);
#278 = DIRECTION('',(0.,0.,-1.));
#279 = ORIENTED_EDGE('',*,*,#280,.F.);
#280 = EDGE_CURVE('',#281,#273,#283,.T.);
#281 = VERTEX_POINT('',#282);
#282 = CARTESIAN_POINT('',(-3.89,0.,-3.52));
#283 = CIRCLE('',#284,3.89);
#284 = AXIS2_PLACEMENT_3D('',#285,#286,#287);
#285 = CARTESIAN_POINT('',(0.,0.,-3.52));
#286 = DIRECTION('',(0.,0.,-1.));
#287 = DIRECTION('',(-1.,0.,0.));
#288 = ORIENTED_EDGE('',*,*,#289,.F.);
#289 = EDGE_CURVE('',#202,#281,#290,.T.);
#290 = LINE('',#291,#292);
#291 = CARTESIAN_POINT('',(-3.89,0.,3.28));
#292 = VECTOR('',#293,1.);
#293 = DIRECTION('',(0.,0.,-1.));
#294 = CYLINDRICAL_SURFACE('',#295,3.89);
#295 = AXIS2_PLACEMENT_3D('',#296,#297,#298);
#296 = CARTESIAN_POINT('',(0.,0.,3.28));
#297 = DIRECTION('',(0.,0.,-1.));
#298 = DIRECTION('',(-1.,0.,0.));
#299 = ADVANCED_FACE('',(#300,#310),#320,.T.);
#300 = FACE_BOUND('',#301,.T.);
#301 = EDGE_LOOP('',(#302,#309));
#302 = ORIENTED_EDGE('',*,*,#303,.T.);
#303 = EDGE_CURVE('',#24,#22,#304,.T.);
#304 = CIRCLE('',#305,3.89);
#305 = AXIS2_PLACEMENT_3D('',#306,#307,#308);
#306 = CARTESIAN_POINT('',(0.,0.,0.38));
#307 = DIRECTION('',(0.,-0.,1.));
#308 = DIRECTION('',(-1.,0.,0.));
#309 = ORIENTED_EDGE('',*,*,#21,.T.);
#310 = FACE_BOUND('',#311,.T.);
#311 = EDGE_LOOP('',(#312,#313));
#312 = ORIENTED_EDGE('',*,*,#73,.T.);
#313 = ORIENTED_EDGE('',*,*,#314,.T.);
#314 = EDGE_CURVE('',#74,#66,#315,.T.);
#315 = CIRCLE('',#316,2.067);
#316 = AXIS2_PLACEMENT_3D('',#317,#318,#319);
#317 = CARTESIAN_POINT('',(0.,0.,0.38));
#318 = DIRECTION('',(0.,0.,-1.));
#319 = DIRECTION('',(1.,0.,0.));
#320 = PLANE('',#321);
#321 = AXIS2_PLACEMENT_3D('',#322,#323,#324);
#322 = CARTESIAN_POINT('',(0.,0.,0.38));
#323 = DIRECTION('',(0.,0.,1.));
#324 = DIRECTION('',(1.,0.,-0.));
#325 = ADVANCED_FACE('',(#326),#338,.T.);
#326 = FACE_BOUND('',#327,.T.);
#327 = EDGE_LOOP('',(#328,#329,#330,#331));
#328 = ORIENTED_EDGE('',*,*,#32,.F.);
#329 = ORIENTED_EDGE('',*,*,#303,.F.);
#330 = ORIENTED_EDGE('',*,*,#49,.T.);
#331 = ORIENTED_EDGE('',*,*,#332,.T.);
#332 = EDGE_CURVE('',#41,#33,#333,.T.);
#333 = CIRCLE('',#334,3.89);
#334 = AXIS2_PLACEMENT_3D('',#335,#336,#337);
#335 = CARTESIAN_POINT('',(0.,0.,-0.259807621135));
#336 = DIRECTION('',(0.,-0.,1.));
#337 = DIRECTION('',(-1.,0.,0.));
#338 = CYLINDRICAL_SURFACE('',#339,3.89);
#339 = AXIS2_PLACEMENT_3D('',#340,#341,#342);
#340 = CARTESIAN_POINT('',(0.,0.,3.28));
#341 = DIRECTION('',(0.,0.,-1.));
#342 = DIRECTION('',(-1.,0.,0.));
#343 = ADVANCED_FACE('',(#344),#356,.F.);
#344 = FACE_BOUND('',#345,.F.);
#345 = EDGE_LOOP('',(#346,#347,#348,#355));
#346 = ORIENTED_EDGE('',*,*,#314,.T.);
#347 = ORIENTED_EDGE('',*,*,#63,.F.);
#348 = ORIENTED_EDGE('',*,*,#349,.T.);
#349 = EDGE_CURVE('',#64,#83,#350,.T.);
#350 = CIRCLE('',#351,2.067);
#351 = AXIS2_PLACEMENT_3D('',#352,#353,#354);
#352 = CARTESIAN_POINT('',(0.,0.,-3.053500982495));
#353 = DIRECTION('',(0.,0.,1.));
#354 = DIRECTION('',(1.,0.,-0.));
#355 = ORIENTED_EDGE('',*,*,#82,.T.);
#356 = CYLINDRICAL_SURFACE('',#357,2.067);
#357 = AXIS2_PLACEMENT_3D('',#358,#359,#360);
#358 = CARTESIAN_POINT('',(0.,0.,-3.52));
#359 = DIRECTION('',(0.,0.,1.));
#360 = DIRECTION('',(1.,0.,-0.));
#361 = ADVANCED_FACE('',(#362),#404,.T.);
#362 = FACE_BOUND('',#363,.T.);
#363 = EDGE_LOOP('',(#364,#365,#366,#367,#380,#393));
#364 = ORIENTED_EDGE('',*,*,#106,.F.);
#365 = ORIENTED_EDGE('',*,*,#332,.F.);
#366 = ORIENTED_EDGE('',*,*,#153,.T.);
#367 = ORIENTED_EDGE('',*,*,#368,.T.);
#368 = EDGE_CURVE('',#141,#369,#371,.T.);
#369 = VERTEX_POINT('',#370);
#370 = CARTESIAN_POINT('',(-2.30940109341,-4.,-0.680581745467));
#371 = B_SPLINE_CURVE_WITH_KNOTS('',3,(#372,#373,#374,#375,#376,#377,
    #378,#379),.UNSPECIFIED.,.F.,.F.,(4,2,2,4),(1.35E-15,
    2.33236543921E-03,3.498548158814E-03,4.664730878418E-03),
  .UNSPECIFIED.);
#372 = CARTESIAN_POINT('',(-4.618802153516,2.3E-16,-0.680581740658));
#373 = CARTESIAN_POINT('',(-4.241720541521,-0.653124510576,
    -0.462873570468));
#374 = CARTESIAN_POINT('',(-3.858990183421,-1.316032936405,
    -0.323817989912));
#375 = CARTESIAN_POINT('',(-3.269968319199,-2.336248732007,
    -0.323067340933));
#376 = CARTESIAN_POINT('',(-3.073825379494,-2.675978269122,
    -0.357163091862));
#377 = CARTESIAN_POINT('',(-2.688530813771,-3.343328032835,
    -0.48165438566));
#378 = CARTESIAN_POINT('',(-2.498177001983,-3.673030506265,
    -0.571591912482));
#379 = CARTESIAN_POINT('',(-2.30940109341,-4.,-0.680581745467));
#380 = ORIENTED_EDGE('',*,*,#381,.T.);
#381 = EDGE_CURVE('',#369,#382,#384,.T.);
#382 = VERTEX_POINT('',#383);
#383 = CARTESIAN_POINT('',(2.309401068431,-4.000000014424,
    -0.680581745468));
#384 = B_SPLINE_CURVE_WITH_KNOTS('',3,(#385,#386,#387,#388,#389,#390,
    #391,#392),.UNSPECIFIED.,.F.,.F.,(4,2,2,4),(1.391077E-11,
    2.33236545977E-03,3.498548182699E-03,4.664730905629E-03),
  .UNSPECIFIED.);
#385 = CARTESIAN_POINT('',(-2.30940109341,-4.,-0.680581745467));
#386 = CARTESIAN_POINT('',(-1.555237879056,-3.999999962488,
    -0.462873599193));
#387 = CARTESIAN_POINT('',(-0.789777150845,-4.,-0.32381799116));
#388 = CARTESIAN_POINT('',(0.388266582628,-4.,-0.32306734032));
#389 = CARTESIAN_POINT('',(0.780552464097,-4.,-0.357163090964));
#390 = CARTESIAN_POINT('',(1.551141599218,-4.,-0.481654384829));
#391 = CARTESIAN_POINT('',(1.931849224587,-4.,-0.571591911983));
#392 = CARTESIAN_POINT('',(2.309401068431,-4.000000014424,
    -0.680581745468));
#393 = ORIENTED_EDGE('',*,*,#394,.T.);
#394 = EDGE_CURVE('',#382,#107,#395,.T.);
#395 = B_SPLINE_CURVE_WITH_KNOTS('',3,(#396,#397,#398,#399,#400,#401,
    #402,#403),.UNSPECIFIED.,.F.,.F.,(4,2,2,4),(1.391722E-11,
    2.332365505093E-03,3.49854825068E-03,4.664730996268E-03),
  .UNSPECIFIED.);
#396 = CARTESIAN_POINT('',(2.309401068431,-4.000000014424,
    -0.680581745468));
#397 = CARTESIAN_POINT('',(2.686482650465,-3.346875480767,
    -0.462873594951));
#398 = CARTESIAN_POINT('',(3.0692130546,-2.683967050179,-0.323817985952)
  );
#399 = CARTESIAN_POINT('',(3.658234933339,-1.663751229433,-0.32306734288
    ));
#400 = CARTESIAN_POINT('',(3.854377877352,-1.324021684856,
    -0.357163097412));
#401 = CARTESIAN_POINT('',(4.23967245161,-0.656671906361,-0.481654400038
    ));
#402 = CARTESIAN_POINT('',(4.430026267533,-0.326969425769,
    -0.571591932071));
#403 = CARTESIAN_POINT('',(4.618802153516,-5.2E-15,-0.68058174066));
#404 = CONICAL_SURFACE('',#405,4.623174966468,1.047197551196);
#405 = AXIS2_PLACEMENT_3D('',#406,#407,#408);
#406 = CARTESIAN_POINT('',(0.,0.,-0.683106385395));
#407 = DIRECTION('',(-0.,-0.,-1.));
#408 = DIRECTION('',(-1.,0.,0.));
#409 = ADVANCED_FACE('',(#410),#422,.F.);
#410 = FACE_BOUND('',#411,.F.);
#411 = EDGE_LOOP('',(#412,#419,#420,#421));
#412 = ORIENTED_EDGE('',*,*,#413,.T.);
#413 = EDGE_CURVE('',#176,#168,#414,.T.);
#414 = CIRCLE('',#415,2.875000000017);
#415 = AXIS2_PLACEMENT_3D('',#416,#417,#418);
#416 = CARTESIAN_POINT('',(0.,0.,-3.520000000046));
#417 = DIRECTION('',(0.,0.,1.));
#418 = DIRECTION('',(-1.,0.,0.));
#419 = ORIENTED_EDGE('',*,*,#167,.F.);
#420 = ORIENTED_EDGE('',*,*,#349,.F.);
#421 = ORIENTED_EDGE('',*,*,#184,.T.);
#422 = CONICAL_SURFACE('',#423,2.874999999904,1.047197551195);
#423 = AXIS2_PLACEMENT_3D('',#424,#425,#426);
#424 = CARTESIAN_POINT('',(0.,0.,-3.51999999998));
#425 = DIRECTION('',(-0.,-0.,-1.));
#426 = DIRECTION('',(-1.,0.,0.));
#427 = ADVANCED_FACE('',(#428),#444,.T.);
#428 = FACE_BOUND('',#429,.T.);
#429 = EDGE_LOOP('',(#430,#436,#437,#443));
#430 = ORIENTED_EDGE('',*,*,#431,.T.);
#431 = EDGE_CURVE('',#128,#219,#432,.T.);
#432 = LINE('',#433,#434);
#433 = CARTESIAN_POINT('',(-2.309401076759,4.,-3.52));
#434 = VECTOR('',#435,1.);
#435 = DIRECTION('',(-0.,-0.,-1.));
#436 = ORIENTED_EDGE('',*,*,#218,.T.);
#437 = ORIENTED_EDGE('',*,*,#438,.T.);
#438 = EDGE_CURVE('',#211,#141,#439,.T.);
#439 = LINE('',#440,#441);
#440 = CARTESIAN_POINT('',(-4.618802153517,2.6E-15,-3.52));
#441 = VECTOR('',#442,1.);
#442 = DIRECTION('',(0.,0.,1.));
#443 = ORIENTED_EDGE('',*,*,#140,.F.);
#444 = PLANE('',#445);
#445 = AXIS2_PLACEMENT_3D('',#446,#447,#448);
#446 = CARTESIAN_POINT('',(-2.309401076759,4.,-3.52));
#447 = DIRECTION('',(-0.866025403784,0.5,0.));
#448 = DIRECTION('',(-0.5,-0.866025403784,0.));
#449 = ADVANCED_FACE('',(#450),#461,.T.);
#450 = FACE_BOUND('',#451,.T.);
#451 = EDGE_LOOP('',(#452,#458,#459,#460));
#452 = ORIENTED_EDGE('',*,*,#453,.T.);
#453 = EDGE_CURVE('',#115,#232,#454,.T.);
#454 = LINE('',#455,#456);
#455 = CARTESIAN_POINT('',(2.309401076759,4.,-3.52));
#456 = VECTOR('',#457,1.);
#457 = DIRECTION('',(-0.,0.,-1.));
#458 = ORIENTED_EDGE('',*,*,#231,.T.);
#459 = ORIENTED_EDGE('',*,*,#431,.F.);
#460 = ORIENTED_EDGE('',*,*,#127,.F.);
#461 = PLANE('',#462);
#462 = AXIS2_PLACEMENT_3D('',#463,#464,#465);
#463 = CARTESIAN_POINT('',(2.309401076759,4.,-3.52));
#464 = DIRECTION('',(7.5E-16,1.,0.));
#465 = DIRECTION('',(-1.,7.5E-16,0.));
#466 = ADVANCED_FACE('',(#467),#478,.T.);
#467 = FACE_BOUND('',#468,.T.);
#468 = EDGE_LOOP('',(#469,#475,#476,#477));
#469 = ORIENTED_EDGE('',*,*,#470,.T.);
#470 = EDGE_CURVE('',#107,#245,#471,.T.);
#471 = LINE('',#472,#473);
#472 = CARTESIAN_POINT('',(4.618802153517,-5.55E-15,-3.52));
#473 = VECTOR('',#474,1.);
#474 = DIRECTION('',(-0.,0.,-1.));
#475 = ORIENTED_EDGE('',*,*,#244,.T.);
#476 = ORIENTED_EDGE('',*,*,#453,.F.);
#477 = ORIENTED_EDGE('',*,*,#114,.F.);
#478 = PLANE('',#479);
#479 = AXIS2_PLACEMENT_3D('',#480,#481,#482);
#480 = CARTESIAN_POINT('',(4.618802153517,-7.13E-15,-3.52));
#481 = DIRECTION('',(0.866025403784,0.5,0.));
#482 = DIRECTION('',(-0.5,0.866025403784,0.));
#483 = ADVANCED_FACE('',(#484),#507,.T.);
#484 = FACE_BOUND('',#485,.T.);
#485 = EDGE_LOOP('',(#486,#494,#505,#506));
#486 = ORIENTED_EDGE('',*,*,#487,.T.);
#487 = EDGE_CURVE('',#382,#488,#490,.T.);
#488 = VERTEX_POINT('',#489);
#489 = CARTESIAN_POINT('',(2.309401076758,-4.,-2.839418259344));
#490 = LINE('',#491,#492);
#491 = CARTESIAN_POINT('',(2.309401076759,-4.,-3.52));
#492 = VECTOR('',#493,1.);
#493 = DIRECTION('',(0.,-0.,-1.));
#494 = ORIENTED_EDGE('',*,*,#495,.T.);
#495 = EDGE_CURVE('',#488,#245,#496,.T.);
#496 = B_SPLINE_CURVE_WITH_KNOTS('',3,(#497,#498,#499,#500,#501,#502,
    #503,#504),.UNSPECIFIED.,.F.,.F.,(4,2,2,4),(3.3E-16,
    2.332365484539E-03,3.498548226809E-03,4.664730969079E-03),
  .UNSPECIFIED.);
#497 = CARTESIAN_POINT('',(2.309401076758,-4.,-2.839418259344));
#498 = CARTESIAN_POINT('',(2.686482696082,-3.346875476731,
    -3.057126433767));
#499 = CARTESIAN_POINT('',(3.069213061744,-2.683967037805,
    -3.196182015302));
#500 = CARTESIAN_POINT('',(3.658234937973,-1.663751221406,
    -3.196932656511));
#501 = CARTESIAN_POINT('',(3.854377880959,-1.32402167861,-3.162836901692
    ));
#502 = CARTESIAN_POINT('',(4.239672453381,-0.656671903293,-3.03834559913
    ));
#503 = CARTESIAN_POINT('',(4.430026268414,-0.326969424243,
    -2.948408067425));
#504 = CARTESIAN_POINT('',(4.618802153488,-4.89E-15,-2.839418259356));
#505 = ORIENTED_EDGE('',*,*,#470,.F.);
#506 = ORIENTED_EDGE('',*,*,#394,.F.);
#507 = PLANE('',#508);
#508 = AXIS2_PLACEMENT_3D('',#509,#510,#511);
#509 = CARTESIAN_POINT('',(2.309401076759,-4.,-3.52));
#510 = DIRECTION('',(0.866025403784,-0.5,0.));
#511 = DIRECTION('',(0.5,0.866025403784,0.));
#512 = ADVANCED_FACE('',(#513),#536,.T.);
#513 = FACE_BOUND('',#514,.T.);
#514 = EDGE_LOOP('',(#515,#523,#534,#535));
#515 = ORIENTED_EDGE('',*,*,#516,.T.);
#516 = EDGE_CURVE('',#369,#517,#519,.T.);
#517 = VERTEX_POINT('',#518);
#518 = CARTESIAN_POINT('',(-2.309401076758,-4.,-2.839418259344));
#519 = LINE('',#520,#521);
#520 = CARTESIAN_POINT('',(-2.309401076758,-4.,-3.52));
#521 = VECTOR('',#522,1.);
#522 = DIRECTION('',(0.,-0.,-1.));
#523 = ORIENTED_EDGE('',*,*,#524,.T.);
#524 = EDGE_CURVE('',#517,#488,#525,.T.);
#525 = B_SPLINE_CURVE_WITH_KNOTS('',3,(#526,#527,#528,#529,#530,#531,
    #532,#533),.UNSPECIFIED.,.F.,.F.,(4,2,2,4),(3.4E-16,
    2.332365484548E-03,3.498548226821E-03,4.664730969095E-03),
  .UNSPECIFIED.);
#526 = CARTESIAN_POINT('',(-2.309401076758,-4.,-2.839418259344));
#527 = CARTESIAN_POINT('',(-1.555237838109,-4.,-3.057126433768));
#528 = CARTESIAN_POINT('',(-0.789777106782,-4.,-3.196182015303));
#529 = CARTESIAN_POINT('',(0.388266645681,-4.,-3.19693265651));
#530 = CARTESIAN_POINT('',(0.780552531652,-4.,-3.162836901691));
#531 = CARTESIAN_POINT('',(1.551141676501,-4.,-3.038345599127));
#532 = CARTESIAN_POINT('',(1.931849306557,-4.,-2.948408067424));
#533 = CARTESIAN_POINT('',(2.309401076758,-4.,-2.839418259344));
#534 = ORIENTED_EDGE('',*,*,#487,.F.);
#535 = ORIENTED_EDGE('',*,*,#381,.F.);
#536 = PLANE('',#537);
#537 = AXIS2_PLACEMENT_3D('',#538,#539,#540);
#538 = CARTESIAN_POINT('',(-2.309401076758,-4.,-3.52));
#539 = DIRECTION('',(7.5E-16,-1.,0.));
#540 = DIRECTION('',(1.,7.5E-16,0.));
#541 = ADVANCED_FACE('',(#542),#558,.T.);
#542 = FACE_BOUND('',#543,.T.);
#543 = EDGE_LOOP('',(#544,#545,#556,#557));
#544 = ORIENTED_EDGE('',*,*,#438,.F.);
#545 = ORIENTED_EDGE('',*,*,#546,.T.);
#546 = EDGE_CURVE('',#211,#517,#547,.T.);
#547 = B_SPLINE_CURVE_WITH_KNOTS('',3,(#548,#549,#550,#551,#552,#553,
    #554,#555),.UNSPECIFIED.,.F.,.F.,(4,2,2,4),(1.978E-14,
    2.332365484554E-03,3.498548226821E-03,4.664730969088E-03),
  .UNSPECIFIED.);
#548 = CARTESIAN_POINT('',(-4.618802153474,6.5E-16,-2.83941825938));
#549 = CARTESIAN_POINT('',(-4.241720534191,-0.653124523273,
    -3.057126433768));
#550 = CARTESIAN_POINT('',(-3.85899016852,-1.316032962214,
    -3.196182015304));
#551 = CARTESIAN_POINT('',(-3.269968292292,-2.336248778611,
    -3.196932656509));
#552 = CARTESIAN_POINT('',(-3.073825349307,-2.675978321407,
    -3.16283690169));
#553 = CARTESIAN_POINT('',(-2.688530776885,-3.343328096722,
    -3.038345599126));
#554 = CARTESIAN_POINT('',(-2.498176961858,-3.673030575763,
    -2.948408067423));
#555 = CARTESIAN_POINT('',(-2.309401076758,-4.,-2.839418259344));
#556 = ORIENTED_EDGE('',*,*,#516,.F.);
#557 = ORIENTED_EDGE('',*,*,#368,.F.);
#558 = PLANE('',#559);
#559 = AXIS2_PLACEMENT_3D('',#560,#561,#562);
#560 = CARTESIAN_POINT('',(-4.618802153517,7.8E-15,-3.52));
#561 = DIRECTION('',(-0.866025403784,-0.5,0.));
#562 = DIRECTION('',(0.5,-0.866025403784,0.));
#563 = ADVANCED_FACE('',(#564,#568),#578,.T.);
#564 = FACE_BOUND('',#565,.T.);
#565 = EDGE_LOOP('',(#566,#567));
#566 = ORIENTED_EDGE('',*,*,#175,.T.);
#567 = ORIENTED_EDGE('',*,*,#413,.T.);
#568 = FACE_BOUND('',#569,.T.);
#569 = EDGE_LOOP('',(#570,#571));
#570 = ORIENTED_EDGE('',*,*,#280,.T.);
#571 = ORIENTED_EDGE('',*,*,#572,.T.);
#572 = EDGE_CURVE('',#273,#281,#573,.T.);
#573 = CIRCLE('',#574,3.89);
#574 = AXIS2_PLACEMENT_3D('',#575,#576,#577);
#575 = CARTESIAN_POINT('',(0.,0.,-3.52));
#576 = DIRECTION('',(0.,0.,-1.));
#577 = DIRECTION('',(-1.,0.,0.));
#578 = PLANE('',#579);
#579 = AXIS2_PLACEMENT_3D('',#580,#581,#582);
#580 = CARTESIAN_POINT('',(-2.309401076758,-4.,-3.52));
#581 = DIRECTION('',(0.,0.,-1.));
#582 = DIRECTION('',(-1.,0.,-0.));
#583 = ADVANCED_FACE('',(#584),#598,.T.);
#584 = FACE_BOUND('',#585,.T.);
#585 = EDGE_LOOP('',(#586,#587,#594,#595,#596,#597));
#586 = ORIENTED_EDGE('',*,*,#210,.F.);
#587 = ORIENTED_EDGE('',*,*,#588,.T.);
#588 = EDGE_CURVE('',#202,#200,#589,.T.);
#589 = CIRCLE('',#590,3.890000000069);
#590 = AXIS2_PLACEMENT_3D('',#591,#592,#593);
#591 = CARTESIAN_POINT('',(0.,0.,-3.260192378832));
#592 = DIRECTION('',(0.,0.,1.));
#593 = DIRECTION('',(-1.,0.,0.));
#594 = ORIENTED_EDGE('',*,*,#257,.T.);
#595 = ORIENTED_EDGE('',*,*,#495,.F.);
#596 = ORIENTED_EDGE('',*,*,#524,.F.);
#597 = ORIENTED_EDGE('',*,*,#546,.F.);
#598 = CONICAL_SURFACE('',#599,4.623174966412,1.047197551196);
#599 = AXIS2_PLACEMENT_3D('',#600,#601,#602);
#600 = CARTESIAN_POINT('',(0.,0.,-2.836893614642));
#601 = DIRECTION('',(-0.,0.,1.));
#602 = DIRECTION('',(1.,0.,0.));
#603 = ADVANCED_FACE('',(#604),#610,.T.);
#604 = FACE_BOUND('',#605,.T.);
#605 = EDGE_LOOP('',(#606,#607,#608,#609));
#606 = ORIENTED_EDGE('',*,*,#272,.F.);
#607 = ORIENTED_EDGE('',*,*,#588,.F.);
#608 = ORIENTED_EDGE('',*,*,#289,.T.);
#609 = ORIENTED_EDGE('',*,*,#572,.F.);
#610 = CYLINDRICAL_SURFACE('',#611,3.89);
#611 = AXIS2_PLACEMENT_3D('',#612,#613,#614);
#612 = CARTESIAN_POINT('',(0.,0.,3.28));
#613 = DIRECTION('',(0.,0.,-1.));
#614 = DIRECTION('',(-1.,0.,0.));
#615 = ( GEOMETRIC_REPRESENTATION_CONTEXT(3) 
GLOBAL_UNCERTAINTY_ASSIGNED_CONTEXT((#619)) GLOBAL_UNIT_ASSIGNED_CONTEXT
((#616,#617,#618)) REPRESENTATION_CONTEXT('Context #1',
  '3D Context with UNIT and UNCERTAINTY') );
#616 = ( LENGTH_UNIT() NAMED_UNIT(*) SI_UNIT(.MILLI.,.METRE.) );
#617 = ( NAMED_UNIT(*) PLANE_ANGLE_UNIT() SI_UNIT($,.RADIAN.) );
#618 = ( NAMED_UNIT(*) SI_UNIT($,.STERADIAN.) SOLID_ANGLE_UNIT() );
#619 = UNCERTAINTY_MEASURE_WITH_UNIT(LENGTH_MEASURE(2.E-04),#616,
  'distance_accuracy_value','confusion accuracy');
#620 = PRODUCT_RELATED_PRODUCT_CATEGORY('part',$,(#7));
#621 = MECHANICAL_DESIGN_GEOMETRIC_PRESENTATION_REPRESENTATION('',(#622)
  ,#615);
#622 = STYLED_ITEM('color',(#623),#15);
#623 = PRESENTATION_STYLE_ASSIGNMENT((#624,#630));
#624 = SURFACE_STYLE_USAGE(.BOTH.,#625);
#625 = SURFACE_SIDE_STYLE('',(#626));
#626 = SURFACE_STYLE_FILL_AREA(#627);
#627 = FILL_AREA_STYLE('',(#628));
#628 = FILL_AREA_STYLE_COLOUR('',#629);
#629 = COLOUR_RGB('',0.898039222556,0.898039222556,0.898039222556);
#630 = CURVE_STYLE('',#631,POSITIVE_LENGTH_MEASURE(0.1),#632);
#631 = DRAUGHTING_PRE_DEFINED_CURVE_FONT('continuous');
#632 = COLOUR_RGB('',9.803921802644E-02,9.803921802644E-02,
  9.803921802644E-02);
ENDSEC;
END-ISO-10303-21;
