ISO-10303-21;
HEADER;
FILE_DESCRIPTION(('FreeCAD Model'),'2;1');
FILE_NAME('Open CASCADE Shape Model','2026-09-01T22:21:27',('Author'),(
    ''),'Open CASCADE STEP processor 7.9','FreeCAD','Unknown');
FILE_SCHEMA(('AUTOMOTIVE_DESIGN { 1 0 10303 214 1 1 1 1 }'));
ENDSEC;
DATA;
#1 = APPLICATION_PROTOCOL_DEFINITION('international standard',
  'automotive_design',2000,#2);
#2 = APPLICATION_CONTEXT(
  'core data for automotive mechanical design processes');
#3 = SHAPE_DEFINITION_REPRESENTATION(#4,#10);
#4 = PRODUCT_DEFINITION_SHAPE('','',#5);
#5 = PRODUCT_DEFINITION('design','',#6,#9);
#6 = PRODUCT_DEFINITION_FORMATION('','',#7);
#7 = PRODUCT('z nut_Standard','z nut_Standard','',(#8));
#8 = PRODUCT_CONTEXT('',#2,'mechanical');
#9 = PRODUCT_DEFINITION_CONTEXT('part definition',#2,'design');
#10 = ADVANCED_BREP_SHAPE_REPRESENTATION('',(#11,#15),#586);
#11 = AXIS2_PLACEMENT_3D('',#12,#13,#14);
#12 = CARTESIAN_POINT('',(0.,0.,0.));
#13 = DIRECTION('',(0.,0.,1.));
#14 = DIRECTION('',(1.,0.,-0.));
#15 = MANIFOLD_SOLID_BREP('',#16);
#16 = CLOSED_SHELL('',(#17,#59,#101,#143,#185,#227,#269,#340,#358,#389,
    #407,#431,#449,#467,#485,#505,#536,#554,#572));
#17 = ADVANCED_FACE('',(#18),#54,.T.);
#18 = FACE_BOUND('',#19,.T.);
#19 = EDGE_LOOP('',(#20,#31,#39,#48));
#20 = ORIENTED_EDGE('',*,*,#21,.F.);
#21 = EDGE_CURVE('',#22,#24,#26,.T.);
#22 = VERTEX_POINT('',#23);
#23 = CARTESIAN_POINT('',(-171.1,-80.50005788601,180.5264319846));
#24 = VERTEX_POINT('',#25);
#25 = CARTESIAN_POINT('',(-161.1,-80.50005788601,180.5264319846));
#26 = CIRCLE('',#27,5.);
#27 = AXIS2_PLACEMENT_3D('',#28,#29,#30);
#28 = CARTESIAN_POINT('',(-166.1,-80.50005788601,180.5264319846));
#29 = DIRECTION('',(0.,0.,-1.));
#30 = DIRECTION('',(1.,0.,0.));
#31 = ORIENTED_EDGE('',*,*,#32,.T.);
#32 = EDGE_CURVE('',#22,#33,#35,.T.);
#33 = VERTEX_POINT('',#34);
#34 = CARTESIAN_POINT('',(-171.1,-80.50005788601,182.5264319846));
#35 = LINE('',#36,#37);
#36 = CARTESIAN_POINT('',(-171.1,-80.50005788601,180.5264319846));
#37 = VECTOR('',#38,1.);
#38 = DIRECTION('',(0.,0.,1.));
#39 = ORIENTED_EDGE('',*,*,#40,.T.);
#40 = EDGE_CURVE('',#33,#41,#43,.T.);
#41 = VERTEX_POINT('',#42);
#42 = CARTESIAN_POINT('',(-161.1,-80.50005788601,182.5264319846));
#43 = CIRCLE('',#44,5.);
#44 = AXIS2_PLACEMENT_3D('',#45,#46,#47);
#45 = CARTESIAN_POINT('',(-166.1,-80.50005788601,182.5264319846));
#46 = DIRECTION('',(0.,0.,-1.));
#47 = DIRECTION('',(1.,0.,0.));
#48 = ORIENTED_EDGE('',*,*,#49,.F.);
#49 = EDGE_CURVE('',#24,#41,#50,.T.);
#50 = LINE('',#51,#52);
#51 = CARTESIAN_POINT('',(-161.1,-80.50005788601,180.5264319846));
#52 = VECTOR('',#53,1.);
#53 = DIRECTION('',(0.,0.,1.));
#54 = CYLINDRICAL_SURFACE('',#55,5.);
#55 = AXIS2_PLACEMENT_3D('',#56,#57,#58);
#56 = CARTESIAN_POINT('',(-166.1,-80.50005788601,180.5264319846));
#57 = DIRECTION('',(0.,0.,1.));
#58 = DIRECTION('',(1.,0.,-0.));
#59 = ADVANCED_FACE('',(#60),#96,.T.);
#60 = FACE_BOUND('',#61,.T.);
#61 = EDGE_LOOP('',(#62,#73,#81,#90));
#62 = ORIENTED_EDGE('',*,*,#63,.T.);
#63 = EDGE_CURVE('',#64,#66,#68,.T.);
#64 = VERTEX_POINT('',#65);
#65 = CARTESIAN_POINT('',(-154.3867732816,-86.80005788599,177.0264319846
    ));
#66 = VERTEX_POINT('',#67);
#67 = CARTESIAN_POINT('',(-152.6,-80.50005788601,177.0264319846));
#68 = CIRCLE('',#69,12.);
#69 = AXIS2_PLACEMENT_3D('',#70,#71,#72);
#70 = CARTESIAN_POINT('',(-164.6,-80.50005788601,177.0264319846));
#71 = DIRECTION('',(0.,0.,1.));
#72 = DIRECTION('',(1.,0.,-0.));
#73 = ORIENTED_EDGE('',*,*,#74,.T.);
#74 = EDGE_CURVE('',#66,#75,#77,.T.);
#75 = VERTEX_POINT('',#76);
#76 = CARTESIAN_POINT('',(-152.6,-80.50005788601,180.5264319846));
#77 = LINE('',#78,#79);
#78 = CARTESIAN_POINT('',(-152.6,-80.50005788601,180.5264319846));
#79 = VECTOR('',#80,1.);
#80 = DIRECTION('',(0.,0.,1.));
#81 = ORIENTED_EDGE('',*,*,#82,.F.);
#82 = EDGE_CURVE('',#83,#75,#85,.T.);
#83 = VERTEX_POINT('',#84);
#84 = CARTESIAN_POINT('',(-154.3867732816,-86.80005788599,180.5264319846
    ));
#85 = CIRCLE('',#86,12.);
#86 = AXIS2_PLACEMENT_3D('',#87,#88,#89);
#87 = CARTESIAN_POINT('',(-164.6,-80.50005788601,180.5264319846));
#88 = DIRECTION('',(0.,0.,1.));
#89 = DIRECTION('',(1.,0.,-0.));
#90 = ORIENTED_EDGE('',*,*,#91,.T.);
#91 = EDGE_CURVE('',#83,#64,#92,.T.);
#92 = LINE('',#93,#94);
#93 = CARTESIAN_POINT('',(-154.3867732816,-86.80005788597,180.5264319846
    ));
#94 = VECTOR('',#95,1.);
#95 = DIRECTION('',(-0.,-0.,-1.));
#96 = CYLINDRICAL_SURFACE('',#97,12.);
#97 = AXIS2_PLACEMENT_3D('',#98,#99,#100);
#98 = CARTESIAN_POINT('',(-164.6,-80.50005788601,180.5264319846));
#99 = DIRECTION('',(0.,0.,1.));
#100 = DIRECTION('',(1.,0.,-0.));
#101 = ADVANCED_FACE('',(#102),#138,.F.);
#102 = FACE_BOUND('',#103,.F.);
#103 = EDGE_LOOP('',(#104,#114,#123,#131));
#104 = ORIENTED_EDGE('',*,*,#105,.T.);
#105 = EDGE_CURVE('',#106,#108,#110,.T.);
#106 = VERTEX_POINT('',#107);
#107 = CARTESIAN_POINT('',(-176.6,-80.50005788601,180.5264319846));
#108 = VERTEX_POINT('',#109);
#109 = CARTESIAN_POINT('',(-176.6,-80.50005788601,177.0264319846));
#110 = LINE('',#111,#112);
#111 = CARTESIAN_POINT('',(-176.6,-80.50005788601,180.5264319846));
#112 = VECTOR('',#113,1.);
#113 = DIRECTION('',(-0.,-0.,-1.));
#114 = ORIENTED_EDGE('',*,*,#115,.T.);
#115 = EDGE_CURVE('',#108,#116,#118,.T.);
#116 = VERTEX_POINT('',#117);
#117 = CARTESIAN_POINT('',(-173.6,-80.50005788601,177.0264319846));
#118 = CIRCLE('',#119,1.5);
#119 = AXIS2_PLACEMENT_3D('',#120,#121,#122);
#120 = CARTESIAN_POINT('',(-175.1,-80.50005788601,177.0264319846));
#121 = DIRECTION('',(0.,0.,1.));
#122 = DIRECTION('',(-1.,0.,0.));
#123 = ORIENTED_EDGE('',*,*,#124,.F.);
#124 = EDGE_CURVE('',#125,#116,#127,.T.);
#125 = VERTEX_POINT('',#126);
#126 = CARTESIAN_POINT('',(-173.6,-80.50005788601,180.5264319846));
#127 = LINE('',#128,#129);
#128 = CARTESIAN_POINT('',(-173.6,-80.50005788601,180.5264319846));
#129 = VECTOR('',#130,1.);
#130 = DIRECTION('',(-0.,-0.,-1.));
#131 = ORIENTED_EDGE('',*,*,#132,.T.);
#132 = EDGE_CURVE('',#125,#106,#133,.T.);
#133 = CIRCLE('',#134,1.5);
#134 = AXIS2_PLACEMENT_3D('',#135,#136,#137);
#135 = CARTESIAN_POINT('',(-175.1,-80.50005788601,180.5264319846));
#136 = DIRECTION('',(-0.,0.,-1.));
#137 = DIRECTION('',(-1.,0.,0.));
#138 = CYLINDRICAL_SURFACE('',#139,1.5);
#139 = AXIS2_PLACEMENT_3D('',#140,#141,#142);
#140 = CARTESIAN_POINT('',(-175.1,-80.50005788601,180.5264319846));
#141 = DIRECTION('',(-0.,-0.,-1.));
#142 = DIRECTION('',(-1.,0.,0.));
#143 = ADVANCED_FACE('',(#144),#180,.F.);
#144 = FACE_BOUND('',#145,.F.);
#145 = EDGE_LOOP('',(#146,#156,#165,#173));
#146 = ORIENTED_EDGE('',*,*,#147,.T.);
#147 = EDGE_CURVE('',#148,#150,#152,.T.);
#148 = VERTEX_POINT('',#149);
#149 = CARTESIAN_POINT('',(-158.6,-80.50005788601,180.5264319846));
#150 = VERTEX_POINT('',#151);
#151 = CARTESIAN_POINT('',(-158.6,-80.50005788601,177.0264319846));
#152 = LINE('',#153,#154);
#153 = CARTESIAN_POINT('',(-158.6,-80.50005788601,180.5264319846));
#154 = VECTOR('',#155,1.);
#155 = DIRECTION('',(-0.,-0.,-1.));
#156 = ORIENTED_EDGE('',*,*,#157,.T.);
#157 = EDGE_CURVE('',#150,#158,#160,.T.);
#158 = VERTEX_POINT('',#159);
#159 = CARTESIAN_POINT('',(-155.6,-80.50005788601,177.0264319846));
#160 = CIRCLE('',#161,1.5);
#161 = AXIS2_PLACEMENT_3D('',#162,#163,#164);
#162 = CARTESIAN_POINT('',(-157.1,-80.50005788601,177.0264319846));
#163 = DIRECTION('',(0.,0.,1.));
#164 = DIRECTION('',(-1.,0.,0.));
#165 = ORIENTED_EDGE('',*,*,#166,.F.);
#166 = EDGE_CURVE('',#167,#158,#169,.T.);
#167 = VERTEX_POINT('',#168);
#168 = CARTESIAN_POINT('',(-155.6,-80.50005788601,180.5264319846));
#169 = LINE('',#170,#171);
#170 = CARTESIAN_POINT('',(-155.6,-80.50005788601,180.5264319846));
#171 = VECTOR('',#172,1.);
#172 = DIRECTION('',(-0.,-0.,-1.));
#173 = ORIENTED_EDGE('',*,*,#174,.T.);
#174 = EDGE_CURVE('',#167,#148,#175,.T.);
#175 = CIRCLE('',#176,1.5);
#176 = AXIS2_PLACEMENT_3D('',#177,#178,#179);
#177 = CARTESIAN_POINT('',(-157.1,-80.50005788601,180.5264319846));
#178 = DIRECTION('',(-0.,0.,-1.));
#179 = DIRECTION('',(-1.,0.,0.));
#180 = CYLINDRICAL_SURFACE('',#181,1.5);
#181 = AXIS2_PLACEMENT_3D('',#182,#183,#184);
#182 = CARTESIAN_POINT('',(-157.1,-80.50005788601,180.5264319846));
#183 = DIRECTION('',(-0.,-0.,-1.));
#184 = DIRECTION('',(-1.,0.,0.));
#185 = ADVANCED_FACE('',(#186),#222,.F.);
#186 = FACE_BOUND('',#187,.F.);
#187 = EDGE_LOOP('',(#188,#198,#207,#215));
#188 = ORIENTED_EDGE('',*,*,#189,.T.);
#189 = EDGE_CURVE('',#190,#192,#194,.T.);
#190 = VERTEX_POINT('',#191);
#191 = CARTESIAN_POINT('',(-170.1,-80.50005788601,182.5264319846));
#192 = VERTEX_POINT('',#193);
#193 = CARTESIAN_POINT('',(-170.1,-80.50005788601,172.0264319846));
#194 = LINE('',#195,#196);
#195 = CARTESIAN_POINT('',(-170.1,-80.50005788601,182.5264319846));
#196 = VECTOR('',#197,1.);
#197 = DIRECTION('',(0.,0.,-1.));
#198 = ORIENTED_EDGE('',*,*,#199,.T.);
#199 = EDGE_CURVE('',#192,#200,#202,.T.);
#200 = VERTEX_POINT('',#201);
#201 = CARTESIAN_POINT('',(-162.1,-80.50005788601,172.0264319846));
#202 = CIRCLE('',#203,4.);
#203 = AXIS2_PLACEMENT_3D('',#204,#205,#206);
#204 = CARTESIAN_POINT('',(-166.1,-80.50005788601,172.0264319846));
#205 = DIRECTION('',(0.,-0.,1.));
#206 = DIRECTION('',(-1.,0.,0.));
#207 = ORIENTED_EDGE('',*,*,#208,.F.);
#208 = EDGE_CURVE('',#209,#200,#211,.T.);
#209 = VERTEX_POINT('',#210);
#210 = CARTESIAN_POINT('',(-162.1,-80.50005788601,182.5264319846));
#211 = LINE('',#212,#213);
#212 = CARTESIAN_POINT('',(-162.1,-80.50005788601,182.5264319846));
#213 = VECTOR('',#214,1.);
#214 = DIRECTION('',(0.,0.,-1.));
#215 = ORIENTED_EDGE('',*,*,#216,.T.);
#216 = EDGE_CURVE('',#209,#190,#217,.T.);
#217 = CIRCLE('',#218,4.);
#218 = AXIS2_PLACEMENT_3D('',#219,#220,#221);
#219 = CARTESIAN_POINT('',(-166.1,-80.50005788601,182.5264319846));
#220 = DIRECTION('',(0.,0.,-1.));
#221 = DIRECTION('',(-1.,0.,0.));
#222 = CYLINDRICAL_SURFACE('',#223,4.);
#223 = AXIS2_PLACEMENT_3D('',#224,#225,#226);
#224 = CARTESIAN_POINT('',(-166.1,-80.50005788601,182.5264319846));
#225 = DIRECTION('',(0.,0.,-1.));
#226 = DIRECTION('',(-1.,0.,0.));
#227 = ADVANCED_FACE('',(#228),#264,.T.);
#228 = FACE_BOUND('',#229,.T.);
#229 = EDGE_LOOP('',(#230,#241,#249,#258));
#230 = ORIENTED_EDGE('',*,*,#231,.T.);
#231 = EDGE_CURVE('',#232,#234,#236,.T.);
#232 = VERTEX_POINT('',#233);
#233 = CARTESIAN_POINT('',(-171.2,-80.50005788601,177.0264319846));
#234 = VERTEX_POINT('',#235);
#235 = CARTESIAN_POINT('',(-161.,-80.50005788601,177.0264319846));
#236 = CIRCLE('',#237,5.1);
#237 = AXIS2_PLACEMENT_3D('',#238,#239,#240);
#238 = CARTESIAN_POINT('',(-166.1,-80.50005788601,177.0264319846));
#239 = DIRECTION('',(0.,0.,-1.));
#240 = DIRECTION('',(-1.,0.,0.));
#241 = ORIENTED_EDGE('',*,*,#242,.T.);
#242 = EDGE_CURVE('',#234,#243,#245,.T.);
#243 = VERTEX_POINT('',#244);
#244 = CARTESIAN_POINT('',(-161.,-80.50005788601,172.0264319846));
#245 = LINE('',#246,#247);
#246 = CARTESIAN_POINT('',(-161.,-80.50005788601,182.5264319846));
#247 = VECTOR('',#248,1.);
#248 = DIRECTION('',(0.,0.,-1.));
#249 = ORIENTED_EDGE('',*,*,#250,.T.);
#250 = EDGE_CURVE('',#243,#251,#253,.T.);
#251 = VERTEX_POINT('',#252);
#252 = CARTESIAN_POINT('',(-171.2,-80.50005788601,172.0264319846));
#253 = CIRCLE('',#254,5.1);
#254 = AXIS2_PLACEMENT_3D('',#255,#256,#257);
#255 = CARTESIAN_POINT('',(-166.1,-80.50005788601,172.0264319846));
#256 = DIRECTION('',(0.,-0.,1.));
#257 = DIRECTION('',(-1.,0.,0.));
#258 = ORIENTED_EDGE('',*,*,#259,.F.);
#259 = EDGE_CURVE('',#232,#251,#260,.T.);
#260 = LINE('',#261,#262);
#261 = CARTESIAN_POINT('',(-171.2,-80.50005788601,182.5264319846));
#262 = VECTOR('',#263,1.);
#263 = DIRECTION('',(0.,0.,-1.));
#264 = CYLINDRICAL_SURFACE('',#265,5.1);
#265 = AXIS2_PLACEMENT_3D('',#266,#267,#268);
#266 = CARTESIAN_POINT('',(-166.1,-80.50005788601,182.5264319846));
#267 = DIRECTION('',(0.,0.,-1.));
#268 = DIRECTION('',(-1.,0.,0.));
#269 = ADVANCED_FACE('',(#270,#280,#315,#325),#335,.T.);
#270 = FACE_BOUND('',#271,.T.);
#271 = EDGE_LOOP('',(#272,#279));
#272 = ORIENTED_EDGE('',*,*,#273,.T.);
#273 = EDGE_CURVE('',#24,#22,#274,.T.);
#274 = CIRCLE('',#275,5.);
#275 = AXIS2_PLACEMENT_3D('',#276,#277,#278);
#276 = CARTESIAN_POINT('',(-166.1,-80.50005788601,180.5264319846));
#277 = DIRECTION('',(0.,0.,-1.));
#278 = DIRECTION('',(1.,0.,0.));
#279 = ORIENTED_EDGE('',*,*,#21,.T.);
#280 = FACE_BOUND('',#281,.T.);
#281 = EDGE_LOOP('',(#282,#283,#292,#300,#309));
#282 = ORIENTED_EDGE('',*,*,#82,.T.);
#283 = ORIENTED_EDGE('',*,*,#284,.T.);
#284 = EDGE_CURVE('',#75,#285,#287,.T.);
#285 = VERTEX_POINT('',#286);
#286 = CARTESIAN_POINT('',(-154.3867732816,-74.20005788601,
    180.5264319846));
#287 = CIRCLE('',#288,12.);
#288 = AXIS2_PLACEMENT_3D('',#289,#290,#291);
#289 = CARTESIAN_POINT('',(-164.6,-80.50005788601,180.5264319846));
#290 = DIRECTION('',(0.,0.,1.));
#291 = DIRECTION('',(1.,0.,-0.));
#292 = ORIENTED_EDGE('',*,*,#293,.T.);
#293 = EDGE_CURVE('',#285,#294,#296,.T.);
#294 = VERTEX_POINT('',#295);
#295 = CARTESIAN_POINT('',(-177.8132267183,-74.20005788601,
    180.5264319846));
#296 = LINE('',#297,#298);
#297 = CARTESIAN_POINT('',(-166.1,-74.20005788601,180.5264319846));
#298 = VECTOR('',#299,1.);
#299 = DIRECTION('',(-1.,-0.,0.));
#300 = ORIENTED_EDGE('',*,*,#301,.T.);
#301 = EDGE_CURVE('',#294,#302,#304,.T.);
#302 = VERTEX_POINT('',#303);
#303 = CARTESIAN_POINT('',(-177.8132267183,-86.80005788601,
    180.5264319846));
#304 = CIRCLE('',#305,12.);
#305 = AXIS2_PLACEMENT_3D('',#306,#307,#308);
#306 = CARTESIAN_POINT('',(-167.6,-80.50005788601,180.5264319846));
#307 = DIRECTION('',(0.,0.,1.));
#308 = DIRECTION('',(1.,0.,-0.));
#309 = ORIENTED_EDGE('',*,*,#310,.T.);
#310 = EDGE_CURVE('',#302,#83,#311,.T.);
#311 = LINE('',#312,#313);
#312 = CARTESIAN_POINT('',(-166.1,-86.80005788601,180.5264319846));
#313 = VECTOR('',#314,1.);
#314 = DIRECTION('',(1.,0.,-0.));
#315 = FACE_BOUND('',#316,.T.);
#316 = EDGE_LOOP('',(#317,#324));
#317 = ORIENTED_EDGE('',*,*,#318,.T.);
#318 = EDGE_CURVE('',#106,#125,#319,.T.);
#319 = CIRCLE('',#320,1.5);
#320 = AXIS2_PLACEMENT_3D('',#321,#322,#323);
#321 = CARTESIAN_POINT('',(-175.1,-80.50005788601,180.5264319846));
#322 = DIRECTION('',(-0.,0.,-1.));
#323 = DIRECTION('',(-1.,0.,0.));
#324 = ORIENTED_EDGE('',*,*,#132,.T.);
#325 = FACE_BOUND('',#326,.T.);
#326 = EDGE_LOOP('',(#327,#334));
#327 = ORIENTED_EDGE('',*,*,#328,.T.);
#328 = EDGE_CURVE('',#148,#167,#329,.T.);
#329 = CIRCLE('',#330,1.5);
#330 = AXIS2_PLACEMENT_3D('',#331,#332,#333);
#331 = CARTESIAN_POINT('',(-157.1,-80.50005788601,180.5264319846));
#332 = DIRECTION('',(-0.,0.,-1.));
#333 = DIRECTION('',(-1.,0.,0.));
#334 = ORIENTED_EDGE('',*,*,#174,.T.);
#335 = PLANE('',#336);
#336 = AXIS2_PLACEMENT_3D('',#337,#338,#339);
#337 = CARTESIAN_POINT('',(-166.1,-80.50005788601,180.5264319846));
#338 = DIRECTION('',(0.,-0.,1.));
#339 = DIRECTION('',(1.,0.,0.));
#340 = ADVANCED_FACE('',(#341),#353,.T.);
#341 = FACE_BOUND('',#342,.T.);
#342 = EDGE_LOOP('',(#343,#344,#345,#346));
#343 = ORIENTED_EDGE('',*,*,#32,.F.);
#344 = ORIENTED_EDGE('',*,*,#273,.F.);
#345 = ORIENTED_EDGE('',*,*,#49,.T.);
#346 = ORIENTED_EDGE('',*,*,#347,.T.);
#347 = EDGE_CURVE('',#41,#33,#348,.T.);
#348 = CIRCLE('',#349,5.);
#349 = AXIS2_PLACEMENT_3D('',#350,#351,#352);
#350 = CARTESIAN_POINT('',(-166.1,-80.50005788601,182.5264319846));
#351 = DIRECTION('',(0.,0.,-1.));
#352 = DIRECTION('',(1.,0.,0.));
#353 = CYLINDRICAL_SURFACE('',#354,5.);
#354 = AXIS2_PLACEMENT_3D('',#355,#356,#357);
#355 = CARTESIAN_POINT('',(-166.1,-80.50005788601,180.5264319846));
#356 = DIRECTION('',(0.,0.,1.));
#357 = DIRECTION('',(1.,0.,-0.));
#358 = ADVANCED_FACE('',(#359),#384,.F.);
#359 = FACE_BOUND('',#360,.T.);
#360 = EDGE_LOOP('',(#361,#362,#370,#378));
#361 = ORIENTED_EDGE('',*,*,#293,.F.);
#362 = ORIENTED_EDGE('',*,*,#363,.F.);
#363 = EDGE_CURVE('',#364,#285,#366,.T.);
#364 = VERTEX_POINT('',#365);
#365 = CARTESIAN_POINT('',(-154.3867732816,-74.20005788601,
    177.0264319846));
#366 = LINE('',#367,#368);
#367 = CARTESIAN_POINT('',(-154.3867732816,-74.20005788601,
    177.0264319846));
#368 = VECTOR('',#369,1.);
#369 = DIRECTION('',(-0.,0.,1.));
#370 = ORIENTED_EDGE('',*,*,#371,.F.);
#371 = EDGE_CURVE('',#372,#364,#374,.T.);
#372 = VERTEX_POINT('',#373);
#373 = CARTESIAN_POINT('',(-177.8132267183,-74.20005788601,
    177.0264319846));
#374 = LINE('',#375,#376);
#375 = CARTESIAN_POINT('',(-155.8528172695,-74.20005788601,
    177.0264319846));
#376 = VECTOR('',#377,1.);
#377 = DIRECTION('',(1.,0.,0.));
#378 = ORIENTED_EDGE('',*,*,#379,.F.);
#379 = EDGE_CURVE('',#294,#372,#380,.T.);
#380 = LINE('',#381,#382);
#381 = CARTESIAN_POINT('',(-177.8132267183,-74.20005788601,
    177.0264319846));
#382 = VECTOR('',#383,1.);
#383 = DIRECTION('',(0.,-0.,-1.));
#384 = PLANE('',#385);
#385 = AXIS2_PLACEMENT_3D('',#386,#387,#388);
#386 = CARTESIAN_POINT('',(-155.8528172695,-74.20005788601,
    177.0264319846));
#387 = DIRECTION('',(0.,-1.,0.));
#388 = DIRECTION('',(0.,-0.,-1.));
#389 = ADVANCED_FACE('',(#390),#402,.T.);
#390 = FACE_BOUND('',#391,.T.);
#391 = EDGE_LOOP('',(#392,#393,#400,#401));
#392 = ORIENTED_EDGE('',*,*,#74,.F.);
#393 = ORIENTED_EDGE('',*,*,#394,.T.);
#394 = EDGE_CURVE('',#66,#364,#395,.T.);
#395 = CIRCLE('',#396,12.);
#396 = AXIS2_PLACEMENT_3D('',#397,#398,#399);
#397 = CARTESIAN_POINT('',(-164.6,-80.50005788601,177.0264319846));
#398 = DIRECTION('',(0.,0.,1.));
#399 = DIRECTION('',(1.,0.,-0.));
#400 = ORIENTED_EDGE('',*,*,#363,.T.);
#401 = ORIENTED_EDGE('',*,*,#284,.F.);
#402 = CYLINDRICAL_SURFACE('',#403,12.);
#403 = AXIS2_PLACEMENT_3D('',#404,#405,#406);
#404 = CARTESIAN_POINT('',(-164.6,-80.50005788601,180.5264319846));
#405 = DIRECTION('',(0.,0.,1.));
#406 = DIRECTION('',(1.,0.,-0.));
#407 = ADVANCED_FACE('',(#408),#426,.F.);
#408 = FACE_BOUND('',#409,.T.);
#409 = EDGE_LOOP('',(#410,#418,#419,#420));
#410 = ORIENTED_EDGE('',*,*,#411,.F.);
#411 = EDGE_CURVE('',#64,#412,#414,.T.);
#412 = VERTEX_POINT('',#413);
#413 = CARTESIAN_POINT('',(-177.8132267183,-86.80005788601,
    177.0264319846));
#414 = LINE('',#415,#416);
#415 = CARTESIAN_POINT('',(-177.6681148043,-86.80005788601,
    177.0264319846));
#416 = VECTOR('',#417,1.);
#417 = DIRECTION('',(-1.,0.,-0.));
#418 = ORIENTED_EDGE('',*,*,#91,.F.);
#419 = ORIENTED_EDGE('',*,*,#310,.F.);
#420 = ORIENTED_EDGE('',*,*,#421,.F.);
#421 = EDGE_CURVE('',#412,#302,#422,.T.);
#422 = LINE('',#423,#424);
#423 = CARTESIAN_POINT('',(-177.8132267183,-86.80005788601,
    177.0264319846));
#424 = VECTOR('',#425,1.);
#425 = DIRECTION('',(0.,0.,1.));
#426 = PLANE('',#427);
#427 = AXIS2_PLACEMENT_3D('',#428,#429,#430);
#428 = CARTESIAN_POINT('',(-177.6681148043,-86.80005788601,
    177.0264319846));
#429 = DIRECTION('',(0.,1.,-0.));
#430 = DIRECTION('',(0.,0.,1.));
#431 = ADVANCED_FACE('',(#432),#444,.T.);
#432 = FACE_BOUND('',#433,.T.);
#433 = EDGE_LOOP('',(#434,#435,#442,#443));
#434 = ORIENTED_EDGE('',*,*,#379,.T.);
#435 = ORIENTED_EDGE('',*,*,#436,.T.);
#436 = EDGE_CURVE('',#372,#412,#437,.T.);
#437 = CIRCLE('',#438,12.);
#438 = AXIS2_PLACEMENT_3D('',#439,#440,#441);
#439 = CARTESIAN_POINT('',(-167.6,-80.50005788601,177.0264319846));
#440 = DIRECTION('',(0.,0.,1.));
#441 = DIRECTION('',(1.,0.,-0.));
#442 = ORIENTED_EDGE('',*,*,#421,.T.);
#443 = ORIENTED_EDGE('',*,*,#301,.F.);
#444 = CYLINDRICAL_SURFACE('',#445,12.);
#445 = AXIS2_PLACEMENT_3D('',#446,#447,#448);
#446 = CARTESIAN_POINT('',(-167.6,-80.50005788601,180.5264319846));
#447 = DIRECTION('',(0.,0.,1.));
#448 = DIRECTION('',(1.,0.,-0.));
#449 = ADVANCED_FACE('',(#450),#462,.F.);
#450 = FACE_BOUND('',#451,.F.);
#451 = EDGE_LOOP('',(#452,#459,#460,#461));
#452 = ORIENTED_EDGE('',*,*,#453,.T.);
#453 = EDGE_CURVE('',#116,#108,#454,.T.);
#454 = CIRCLE('',#455,1.5);
#455 = AXIS2_PLACEMENT_3D('',#456,#457,#458);
#456 = CARTESIAN_POINT('',(-175.1,-80.50005788601,177.0264319846));
#457 = DIRECTION('',(0.,0.,1.));
#458 = DIRECTION('',(-1.,0.,0.));
#459 = ORIENTED_EDGE('',*,*,#105,.F.);
#460 = ORIENTED_EDGE('',*,*,#318,.T.);
#461 = ORIENTED_EDGE('',*,*,#124,.T.);
#462 = CYLINDRICAL_SURFACE('',#463,1.5);
#463 = AXIS2_PLACEMENT_3D('',#464,#465,#466);
#464 = CARTESIAN_POINT('',(-175.1,-80.50005788601,180.5264319846));
#465 = DIRECTION('',(-0.,-0.,-1.));
#466 = DIRECTION('',(-1.,0.,0.));
#467 = ADVANCED_FACE('',(#468),#480,.F.);
#468 = FACE_BOUND('',#469,.F.);
#469 = EDGE_LOOP('',(#470,#477,#478,#479));
#470 = ORIENTED_EDGE('',*,*,#471,.T.);
#471 = EDGE_CURVE('',#158,#150,#472,.T.);
#472 = CIRCLE('',#473,1.5);
#473 = AXIS2_PLACEMENT_3D('',#474,#475,#476);
#474 = CARTESIAN_POINT('',(-157.1,-80.50005788601,177.0264319846));
#475 = DIRECTION('',(0.,0.,1.));
#476 = DIRECTION('',(-1.,0.,0.));
#477 = ORIENTED_EDGE('',*,*,#147,.F.);
#478 = ORIENTED_EDGE('',*,*,#328,.T.);
#479 = ORIENTED_EDGE('',*,*,#166,.T.);
#480 = CYLINDRICAL_SURFACE('',#481,1.5);
#481 = AXIS2_PLACEMENT_3D('',#482,#483,#484);
#482 = CARTESIAN_POINT('',(-157.1,-80.50005788601,180.5264319846));
#483 = DIRECTION('',(-0.,-0.,-1.));
#484 = DIRECTION('',(-1.,0.,0.));
#485 = ADVANCED_FACE('',(#486,#496),#500,.T.);
#486 = FACE_BOUND('',#487,.T.);
#487 = EDGE_LOOP('',(#488,#495));
#488 = ORIENTED_EDGE('',*,*,#489,.T.);
#489 = EDGE_CURVE('',#190,#209,#490,.T.);
#490 = CIRCLE('',#491,4.);
#491 = AXIS2_PLACEMENT_3D('',#492,#493,#494);
#492 = CARTESIAN_POINT('',(-166.1,-80.50005788601,182.5264319846));
#493 = DIRECTION('',(0.,0.,-1.));
#494 = DIRECTION('',(-1.,0.,0.));
#495 = ORIENTED_EDGE('',*,*,#216,.T.);
#496 = FACE_BOUND('',#497,.T.);
#497 = EDGE_LOOP('',(#498,#499));
#498 = ORIENTED_EDGE('',*,*,#347,.F.);
#499 = ORIENTED_EDGE('',*,*,#40,.F.);
#500 = PLANE('',#501);
#501 = AXIS2_PLACEMENT_3D('',#502,#503,#504);
#502 = CARTESIAN_POINT('',(533.2347338397,-344.6602275476,182.5264319846
    ));
#503 = DIRECTION('',(-0.,0.,1.));
#504 = DIRECTION('',(1.,0.,0.));
#505 = ADVANCED_FACE('',(#506,#516,#523,#527),#531,.F.);
#506 = FACE_BOUND('',#507,.T.);
#507 = EDGE_LOOP('',(#508,#509));
#508 = ORIENTED_EDGE('',*,*,#231,.F.);
#509 = ORIENTED_EDGE('',*,*,#510,.F.);
#510 = EDGE_CURVE('',#234,#232,#511,.T.);
#511 = CIRCLE('',#512,5.1);
#512 = AXIS2_PLACEMENT_3D('',#513,#514,#515);
#513 = CARTESIAN_POINT('',(-166.1,-80.50005788601,177.0264319846));
#514 = DIRECTION('',(0.,0.,-1.));
#515 = DIRECTION('',(-1.,0.,0.));
#516 = FACE_BOUND('',#517,.T.);
#517 = EDGE_LOOP('',(#518,#519,#520,#521,#522));
#518 = ORIENTED_EDGE('',*,*,#371,.T.);
#519 = ORIENTED_EDGE('',*,*,#394,.F.);
#520 = ORIENTED_EDGE('',*,*,#63,.F.);
#521 = ORIENTED_EDGE('',*,*,#411,.T.);
#522 = ORIENTED_EDGE('',*,*,#436,.F.);
#523 = FACE_BOUND('',#524,.T.);
#524 = EDGE_LOOP('',(#525,#526));
#525 = ORIENTED_EDGE('',*,*,#115,.T.);
#526 = ORIENTED_EDGE('',*,*,#453,.T.);
#527 = FACE_BOUND('',#528,.T.);
#528 = EDGE_LOOP('',(#529,#530));
#529 = ORIENTED_EDGE('',*,*,#157,.T.);
#530 = ORIENTED_EDGE('',*,*,#471,.T.);
#531 = PLANE('',#532);
#532 = AXIS2_PLACEMENT_3D('',#533,#534,#535);
#533 = CARTESIAN_POINT('',(-166.1,-80.50005788601,177.0264319846));
#534 = DIRECTION('',(0.,-0.,1.));
#535 = DIRECTION('',(1.,0.,0.));
#536 = ADVANCED_FACE('',(#537),#549,.F.);
#537 = FACE_BOUND('',#538,.F.);
#538 = EDGE_LOOP('',(#539,#546,#547,#548));
#539 = ORIENTED_EDGE('',*,*,#540,.T.);
#540 = EDGE_CURVE('',#200,#192,#541,.T.);
#541 = CIRCLE('',#542,4.);
#542 = AXIS2_PLACEMENT_3D('',#543,#544,#545);
#543 = CARTESIAN_POINT('',(-166.1,-80.50005788601,172.0264319846));
#544 = DIRECTION('',(0.,-0.,1.));
#545 = DIRECTION('',(-1.,0.,0.));
#546 = ORIENTED_EDGE('',*,*,#189,.F.);
#547 = ORIENTED_EDGE('',*,*,#489,.T.);
#548 = ORIENTED_EDGE('',*,*,#208,.T.);
#549 = CYLINDRICAL_SURFACE('',#550,4.);
#550 = AXIS2_PLACEMENT_3D('',#551,#552,#553);
#551 = CARTESIAN_POINT('',(-166.1,-80.50005788601,182.5264319846));
#552 = DIRECTION('',(0.,0.,-1.));
#553 = DIRECTION('',(-1.,0.,0.));
#554 = ADVANCED_FACE('',(#555),#567,.T.);
#555 = FACE_BOUND('',#556,.T.);
#556 = EDGE_LOOP('',(#557,#558,#559,#560));
#557 = ORIENTED_EDGE('',*,*,#242,.F.);
#558 = ORIENTED_EDGE('',*,*,#510,.T.);
#559 = ORIENTED_EDGE('',*,*,#259,.T.);
#560 = ORIENTED_EDGE('',*,*,#561,.T.);
#561 = EDGE_CURVE('',#251,#243,#562,.T.);
#562 = CIRCLE('',#563,5.1);
#563 = AXIS2_PLACEMENT_3D('',#564,#565,#566);
#564 = CARTESIAN_POINT('',(-166.1,-80.50005788601,172.0264319846));
#565 = DIRECTION('',(0.,-0.,1.));
#566 = DIRECTION('',(-1.,0.,0.));
#567 = CYLINDRICAL_SURFACE('',#568,5.1);
#568 = AXIS2_PLACEMENT_3D('',#569,#570,#571);
#569 = CARTESIAN_POINT('',(-166.1,-80.50005788601,182.5264319846));
#570 = DIRECTION('',(0.,0.,-1.));
#571 = DIRECTION('',(-1.,0.,0.));
#572 = ADVANCED_FACE('',(#573,#577),#581,.F.);
#573 = FACE_BOUND('',#574,.T.);
#574 = EDGE_LOOP('',(#575,#576));
#575 = ORIENTED_EDGE('',*,*,#199,.T.);
#576 = ORIENTED_EDGE('',*,*,#540,.T.);
#577 = FACE_BOUND('',#578,.T.);
#578 = EDGE_LOOP('',(#579,#580));
#579 = ORIENTED_EDGE('',*,*,#561,.F.);
#580 = ORIENTED_EDGE('',*,*,#250,.F.);
#581 = PLANE('',#582);
#582 = AXIS2_PLACEMENT_3D('',#583,#584,#585);
#583 = CARTESIAN_POINT('',(-166.1,-80.50005788601,172.0264319846));
#584 = DIRECTION('',(0.,-0.,1.));
#585 = DIRECTION('',(1.,0.,0.));
#586 = ( GEOMETRIC_REPRESENTATION_CONTEXT(3) 
GLOBAL_UNCERTAINTY_ASSIGNED_CONTEXT((#590)) GLOBAL_UNIT_ASSIGNED_CONTEXT
((#587,#588,#589)) REPRESENTATION_CONTEXT('Context #1',
  '3D Context with UNIT and UNCERTAINTY') );
#587 = ( LENGTH_UNIT() NAMED_UNIT(*) SI_UNIT(.MILLI.,.METRE.) );
#588 = ( NAMED_UNIT(*) PLANE_ANGLE_UNIT() SI_UNIT($,.RADIAN.) );
#589 = ( NAMED_UNIT(*) SI_UNIT($,.STERADIAN.) SOLID_ANGLE_UNIT() );
#590 = UNCERTAINTY_MEASURE_WITH_UNIT(LENGTH_MEASURE(1.E-07),#587,
  'distance_accuracy_value','confusion accuracy');
#591 = PRODUCT_RELATED_PRODUCT_CATEGORY('part',$,(#7));
#592 = MECHANICAL_DESIGN_GEOMETRIC_PRESENTATION_REPRESENTATION('',(#593)
  ,#586);
#593 = STYLED_ITEM('color',(#594),#15);
#594 = PRESENTATION_STYLE_ASSIGNMENT((#595,#601));
#595 = SURFACE_STYLE_USAGE(.BOTH.,#596);
#596 = SURFACE_SIDE_STYLE('',(#597));
#597 = SURFACE_STYLE_FILL_AREA(#598);
#598 = FILL_AREA_STYLE('',(#599));
#599 = FILL_AREA_STYLE_COLOUR('',#600);
#600 = COLOUR_RGB('',1.,0.929411760963,0.529411796197);
#601 = CURVE_STYLE('',#602,POSITIVE_LENGTH_MEASURE(0.1),#603);
#602 = DRAUGHTING_PRE_DEFINED_CURVE_FONT('continuous');
#603 = COLOUR_RGB('',9.803921802644E-02,9.803921802644E-02,
  9.803921802644E-02);
ENDSEC;
END-ISO-10303-21;
