ISO-10303-21;
HEADER;
FILE_DESCRIPTION(('FreeCAD Model'),'2;1');
FILE_NAME('Open CASCADE Shape Model','2026-09-01T22:20:42',('Author'),(
    ''),'Open CASCADE STEP processor 7.9','FreeCAD','Unknown');
FILE_SCHEMA(('AUTOMOTIVE_DESIGN { 1 0 10303 214 1 1 1 1 }'));
ENDSEC;
DATA;
#1 = APPLICATION_PROTOCOL_DEFINITION('international standard',
  'automotive_design',2000,#2);
#2 = APPLICATION_CONTEXT(
  'core data for automotive mechanical design processes');
#3 = SHAPE_DEFINITION_REPRESENTATION(#4,#10);
#4 = PRODUCT_DEFINITION_SHAPE('','',#5);
#5 = PRODUCT_DEFINITION('design','',#6,#9);
#6 = PRODUCT_DEFINITION_FORMATION('','',#7);
#7 = PRODUCT('Body002','Body002','',(#8));
#8 = PRODUCT_CONTEXT('',#2,'mechanical');
#9 = PRODUCT_DEFINITION_CONTEXT('part definition',#2,'design');
#10 = ADVANCED_BREP_SHAPE_REPRESENTATION('',(#11,#15),#1343);
#11 = AXIS2_PLACEMENT_3D('',#12,#13,#14);
#12 = CARTESIAN_POINT('',(0.,0.,0.));
#13 = DIRECTION('',(0.,0.,1.));
#14 = DIRECTION('',(1.,0.,-0.));
#15 = MANIFOLD_SOLID_BREP('',#16);
#16 = CLOSED_SHELL('',(#17,#127,#158,#183,#207,#231,#255,#273,#304,#329,
    #362,#386,#417,#435,#557,#684,#709,#819,#837,#859,#876,#893,#905,
    #927,#944,#961,#973,#995,#1012,#1029,#1041,#1053,#1085,#1109,#1133,
    #1158,#1183,#1200,#1225,#1250,#1275,#1306,#1326));
#17 = ADVANCED_FACE('',(#18,#70),#122,.F.);
#18 = FACE_BOUND('',#19,.F.);
#19 = EDGE_LOOP('',(#20,#30,#38,#46,#55,#63));
#20 = ORIENTED_EDGE('',*,*,#21,.T.);
#21 = EDGE_CURVE('',#22,#24,#26,.T.);
#22 = VERTEX_POINT('',#23);
#23 = CARTESIAN_POINT('',(45.1,6.,22.5));
#24 = VERTEX_POINT('',#25);
#25 = CARTESIAN_POINT('',(45.1,6.,7.5));
#26 = LINE('',#27,#28);
#27 = CARTESIAN_POINT('',(45.1,6.,27.5));
#28 = VECTOR('',#29,1.);
#29 = DIRECTION('',(0.,0.,-1.));
#30 = ORIENTED_EDGE('',*,*,#31,.T.);
#31 = EDGE_CURVE('',#24,#32,#34,.T.);
#32 = VERTEX_POINT('',#33);
#33 = CARTESIAN_POINT('',(15.1,6.,7.5));
#34 = LINE('',#35,#36);
#35 = CARTESIAN_POINT('',(45.1,6.,7.5));
#36 = VECTOR('',#37,1.);
#37 = DIRECTION('',(-1.,0.,0.));
#38 = ORIENTED_EDGE('',*,*,#39,.T.);
#39 = EDGE_CURVE('',#32,#40,#42,.T.);
#40 = VERTEX_POINT('',#41);
#41 = CARTESIAN_POINT('',(15.1,6.,22.5));
#42 = LINE('',#43,#44);
#43 = CARTESIAN_POINT('',(15.1,6.,7.5));
#44 = VECTOR('',#45,1.);
#45 = DIRECTION('',(0.,0.,1.));
#46 = ORIENTED_EDGE('',*,*,#47,.F.);
#47 = EDGE_CURVE('',#48,#40,#50,.T.);
#48 = VERTEX_POINT('',#49);
#49 = CARTESIAN_POINT('',(20.1,6.,27.5));
#50 = CIRCLE('',#51,5.);
#51 = AXIS2_PLACEMENT_3D('',#52,#53,#54);
#52 = CARTESIAN_POINT('',(20.1,6.,22.5));
#53 = DIRECTION('',(0.,-1.,2.2E-16));
#54 = DIRECTION('',(0.,-2.2E-16,-1.));
#55 = ORIENTED_EDGE('',*,*,#56,.T.);
#56 = EDGE_CURVE('',#48,#57,#59,.T.);
#57 = VERTEX_POINT('',#58);
#58 = CARTESIAN_POINT('',(40.1,6.,27.5));
#59 = LINE('',#60,#61);
#60 = CARTESIAN_POINT('',(15.1,6.,27.5));
#61 = VECTOR('',#62,1.);
#62 = DIRECTION('',(1.,0.,0.));
#63 = ORIENTED_EDGE('',*,*,#64,.F.);
#64 = EDGE_CURVE('',#22,#57,#65,.T.);
#65 = CIRCLE('',#66,5.);
#66 = AXIS2_PLACEMENT_3D('',#67,#68,#69);
#67 = CARTESIAN_POINT('',(40.1,6.,22.5));
#68 = DIRECTION('',(0.,-1.,2.2E-16));
#69 = DIRECTION('',(0.,-2.2E-16,-1.));
#70 = FACE_BOUND('',#71,.F.);
#71 = EDGE_LOOP('',(#72,#82,#91,#99,#108,#116));
#72 = ORIENTED_EDGE('',*,*,#73,.T.);
#73 = EDGE_CURVE('',#74,#76,#78,.T.);
#74 = VERTEX_POINT('',#75);
#75 = CARTESIAN_POINT('',(47.6,6.,4.5));
#76 = VERTEX_POINT('',#77);
#77 = CARTESIAN_POINT('',(47.6,6.,26.5));
#78 = LINE('',#79,#80);
#79 = CARTESIAN_POINT('',(47.6,6.,3.5));
#80 = VECTOR('',#81,1.);
#81 = DIRECTION('',(0.,0.,1.));
#82 = ORIENTED_EDGE('',*,*,#83,.T.);
#83 = EDGE_CURVE('',#76,#84,#86,.T.);
#84 = VERTEX_POINT('',#85);
#85 = CARTESIAN_POINT('',(42.6,6.,31.5));
#86 = CIRCLE('',#87,5.);
#87 = AXIS2_PLACEMENT_3D('',#88,#89,#90);
#88 = CARTESIAN_POINT('',(42.6,6.,26.5));
#89 = DIRECTION('',(0.,-1.,0.));
#90 = DIRECTION('',(0.,0.,1.));
#91 = ORIENTED_EDGE('',*,*,#92,.T.);
#92 = EDGE_CURVE('',#84,#93,#95,.T.);
#93 = VERTEX_POINT('',#94);
#94 = CARTESIAN_POINT('',(17.6,6.,31.5));
#95 = LINE('',#96,#97);
#96 = CARTESIAN_POINT('',(47.6,6.,31.5));
#97 = VECTOR('',#98,1.);
#98 = DIRECTION('',(-1.,0.,0.));
#99 = ORIENTED_EDGE('',*,*,#100,.F.);
#100 = EDGE_CURVE('',#101,#93,#103,.T.);
#101 = VERTEX_POINT('',#102);
#102 = CARTESIAN_POINT('',(12.6,6.,26.5));
#103 = CIRCLE('',#104,5.);
#104 = AXIS2_PLACEMENT_3D('',#105,#106,#107);
#105 = CARTESIAN_POINT('',(17.6,6.,26.5));
#106 = DIRECTION('',(0.,1.,0.));
#107 = DIRECTION('',(0.,0.,-1.));
#108 = ORIENTED_EDGE('',*,*,#109,.F.);
#109 = EDGE_CURVE('',#110,#101,#112,.T.);
#110 = VERTEX_POINT('',#111);
#111 = CARTESIAN_POINT('',(12.6,6.,4.5));
#112 = LINE('',#113,#114);
#113 = CARTESIAN_POINT('',(12.6,6.,3.5));
#114 = VECTOR('',#115,1.);
#115 = DIRECTION('',(0.,0.,1.));
#116 = ORIENTED_EDGE('',*,*,#117,.F.);
#117 = EDGE_CURVE('',#74,#110,#118,.T.);
#118 = LINE('',#119,#120);
#119 = CARTESIAN_POINT('',(47.6,6.,4.5));
#120 = VECTOR('',#121,1.);
#121 = DIRECTION('',(-1.,0.,0.));
#122 = PLANE('',#123);
#123 = AXIS2_PLACEMENT_3D('',#124,#125,#126);
#124 = CARTESIAN_POINT('',(47.6,6.,3.5));
#125 = DIRECTION('',(0.,-1.,0.));
#126 = DIRECTION('',(-1.,0.,0.));
#127 = ADVANCED_FACE('',(#128),#153,.F.);
#128 = FACE_BOUND('',#129,.F.);
#129 = EDGE_LOOP('',(#130,#131,#139,#147));
#130 = ORIENTED_EDGE('',*,*,#21,.F.);
#131 = ORIENTED_EDGE('',*,*,#132,.T.);
#132 = EDGE_CURVE('',#22,#133,#135,.T.);
#133 = VERTEX_POINT('',#134);
#134 = CARTESIAN_POINT('',(45.1,-3.5,22.5));
#135 = LINE('',#136,#137);
#136 = CARTESIAN_POINT('',(45.1,6.,22.5));
#137 = VECTOR('',#138,1.);
#138 = DIRECTION('',(0.,-1.,2.2E-16));
#139 = ORIENTED_EDGE('',*,*,#140,.F.);
#140 = EDGE_CURVE('',#141,#133,#143,.T.);
#141 = VERTEX_POINT('',#142);
#142 = CARTESIAN_POINT('',(45.1,-3.5,7.5));
#143 = LINE('',#144,#145);
#144 = CARTESIAN_POINT('',(45.1,-3.5,15.5));
#145 = VECTOR('',#146,1.);
#146 = DIRECTION('',(0.,0.,1.));
#147 = ORIENTED_EDGE('',*,*,#148,.F.);
#148 = EDGE_CURVE('',#24,#141,#149,.T.);
#149 = LINE('',#150,#151);
#150 = CARTESIAN_POINT('',(45.1,6.,7.5));
#151 = VECTOR('',#152,1.);
#152 = DIRECTION('',(0.,-1.,2.2E-16));
#153 = PLANE('',#154);
#154 = AXIS2_PLACEMENT_3D('',#155,#156,#157);
#155 = CARTESIAN_POINT('',(45.1,6.,27.5));
#156 = DIRECTION('',(1.,0.,0.));
#157 = DIRECTION('',(0.,-2.2E-16,-1.));
#158 = ADVANCED_FACE('',(#159),#178,.F.);
#159 = FACE_BOUND('',#160,.F.);
#160 = EDGE_LOOP('',(#161,#162,#170,#177));
#161 = ORIENTED_EDGE('',*,*,#64,.T.);
#162 = ORIENTED_EDGE('',*,*,#163,.T.);
#163 = EDGE_CURVE('',#57,#164,#166,.T.);
#164 = VERTEX_POINT('',#165);
#165 = CARTESIAN_POINT('',(40.1,-3.5,27.5));
#166 = LINE('',#167,#168);
#167 = CARTESIAN_POINT('',(40.1,6.,27.5));
#168 = VECTOR('',#169,1.);
#169 = DIRECTION('',(0.,-1.,2.2E-16));
#170 = ORIENTED_EDGE('',*,*,#171,.F.);
#171 = EDGE_CURVE('',#133,#164,#172,.T.);
#172 = CIRCLE('',#173,5.);
#173 = AXIS2_PLACEMENT_3D('',#174,#175,#176);
#174 = CARTESIAN_POINT('',(40.1,-3.5,22.5));
#175 = DIRECTION('',(0.,-1.,2.2E-16));
#176 = DIRECTION('',(0.,-2.2E-16,-1.));
#177 = ORIENTED_EDGE('',*,*,#132,.F.);
#178 = CYLINDRICAL_SURFACE('',#179,5.);
#179 = AXIS2_PLACEMENT_3D('',#180,#181,#182);
#180 = CARTESIAN_POINT('',(40.1,6.,22.5));
#181 = DIRECTION('',(0.,-1.,2.2E-16));
#182 = DIRECTION('',(1.,0.,0.));
#183 = ADVANCED_FACE('',(#184),#202,.F.);
#184 = FACE_BOUND('',#185,.F.);
#185 = EDGE_LOOP('',(#186,#187,#188,#196));
#186 = ORIENTED_EDGE('',*,*,#31,.F.);
#187 = ORIENTED_EDGE('',*,*,#148,.T.);
#188 = ORIENTED_EDGE('',*,*,#189,.F.);
#189 = EDGE_CURVE('',#190,#141,#192,.T.);
#190 = VERTEX_POINT('',#191);
#191 = CARTESIAN_POINT('',(15.1,-3.5,7.5));
#192 = LINE('',#193,#194);
#193 = CARTESIAN_POINT('',(28.85,-3.5,7.5));
#194 = VECTOR('',#195,1.);
#195 = DIRECTION('',(1.,0.,0.));
#196 = ORIENTED_EDGE('',*,*,#197,.F.);
#197 = EDGE_CURVE('',#32,#190,#198,.T.);
#198 = LINE('',#199,#200);
#199 = CARTESIAN_POINT('',(15.1,6.,7.5));
#200 = VECTOR('',#201,1.);
#201 = DIRECTION('',(0.,-1.,2.2E-16));
#202 = PLANE('',#203);
#203 = AXIS2_PLACEMENT_3D('',#204,#205,#206);
#204 = CARTESIAN_POINT('',(45.1,6.,7.5));
#205 = DIRECTION('',(-0.,-2.2E-16,-1.));
#206 = DIRECTION('',(-1.,0.,0.));
#207 = ADVANCED_FACE('',(#208),#226,.F.);
#208 = FACE_BOUND('',#209,.F.);
#209 = EDGE_LOOP('',(#210,#211,#219,#225));
#210 = ORIENTED_EDGE('',*,*,#56,.F.);
#211 = ORIENTED_EDGE('',*,*,#212,.T.);
#212 = EDGE_CURVE('',#48,#213,#215,.T.);
#213 = VERTEX_POINT('',#214);
#214 = CARTESIAN_POINT('',(20.1,-3.5,27.5));
#215 = LINE('',#216,#217);
#216 = CARTESIAN_POINT('',(20.1,6.,27.5));
#217 = VECTOR('',#218,1.);
#218 = DIRECTION('',(0.,-1.,2.2E-16));
#219 = ORIENTED_EDGE('',*,*,#220,.F.);
#220 = EDGE_CURVE('',#164,#213,#221,.T.);
#221 = LINE('',#222,#223);
#222 = CARTESIAN_POINT('',(13.85,-3.5,27.5));
#223 = VECTOR('',#224,1.);
#224 = DIRECTION('',(-1.,0.,0.));
#225 = ORIENTED_EDGE('',*,*,#163,.F.);
#226 = PLANE('',#227);
#227 = AXIS2_PLACEMENT_3D('',#228,#229,#230);
#228 = CARTESIAN_POINT('',(15.1,6.,27.5));
#229 = DIRECTION('',(0.,2.2E-16,1.));
#230 = DIRECTION('',(1.,0.,0.));
#231 = ADVANCED_FACE('',(#232),#250,.F.);
#232 = FACE_BOUND('',#233,.F.);
#233 = EDGE_LOOP('',(#234,#235,#236,#244));
#234 = ORIENTED_EDGE('',*,*,#39,.F.);
#235 = ORIENTED_EDGE('',*,*,#197,.T.);
#236 = ORIENTED_EDGE('',*,*,#237,.F.);
#237 = EDGE_CURVE('',#238,#190,#240,.T.);
#238 = VERTEX_POINT('',#239);
#239 = CARTESIAN_POINT('',(15.1,-3.5,22.5));
#240 = LINE('',#241,#242);
#241 = CARTESIAN_POINT('',(15.1,-3.5,5.5));
#242 = VECTOR('',#243,1.);
#243 = DIRECTION('',(0.,0.,-1.));
#244 = ORIENTED_EDGE('',*,*,#245,.F.);
#245 = EDGE_CURVE('',#40,#238,#246,.T.);
#246 = LINE('',#247,#248);
#247 = CARTESIAN_POINT('',(15.1,6.,22.5));
#248 = VECTOR('',#249,1.);
#249 = DIRECTION('',(0.,-1.,2.2E-16));
#250 = PLANE('',#251);
#251 = AXIS2_PLACEMENT_3D('',#252,#253,#254);
#252 = CARTESIAN_POINT('',(15.1,6.,7.5));
#253 = DIRECTION('',(-1.,0.,0.));
#254 = DIRECTION('',(0.,2.2E-16,1.));
#255 = ADVANCED_FACE('',(#256),#268,.F.);
#256 = FACE_BOUND('',#257,.F.);
#257 = EDGE_LOOP('',(#258,#259,#260,#267));
#258 = ORIENTED_EDGE('',*,*,#47,.T.);
#259 = ORIENTED_EDGE('',*,*,#245,.T.);
#260 = ORIENTED_EDGE('',*,*,#261,.F.);
#261 = EDGE_CURVE('',#213,#238,#262,.T.);
#262 = CIRCLE('',#263,5.);
#263 = AXIS2_PLACEMENT_3D('',#264,#265,#266);
#264 = CARTESIAN_POINT('',(20.1,-3.5,22.5));
#265 = DIRECTION('',(0.,-1.,2.2E-16));
#266 = DIRECTION('',(0.,-2.2E-16,-1.));
#267 = ORIENTED_EDGE('',*,*,#212,.F.);
#268 = CYLINDRICAL_SURFACE('',#269,5.);
#269 = AXIS2_PLACEMENT_3D('',#270,#271,#272);
#270 = CARTESIAN_POINT('',(20.1,6.,22.5));
#271 = DIRECTION('',(0.,-1.,2.2E-16));
#272 = DIRECTION('',(0.,2.2E-16,1.));
#273 = ADVANCED_FACE('',(#274),#299,.F.);
#274 = FACE_BOUND('',#275,.F.);
#275 = EDGE_LOOP('',(#276,#286,#292,#293));
#276 = ORIENTED_EDGE('',*,*,#277,.T.);
#277 = EDGE_CURVE('',#278,#280,#282,.T.);
#278 = VERTEX_POINT('',#279);
#279 = CARTESIAN_POINT('',(47.6,-6.,4.5));
#280 = VERTEX_POINT('',#281);
#281 = CARTESIAN_POINT('',(47.6,-6.,26.5));
#282 = LINE('',#283,#284);
#283 = CARTESIAN_POINT('',(47.6,-6.,3.5));
#284 = VECTOR('',#285,1.);
#285 = DIRECTION('',(0.,0.,1.));
#286 = ORIENTED_EDGE('',*,*,#287,.T.);
#287 = EDGE_CURVE('',#280,#76,#288,.T.);
#288 = LINE('',#289,#290);
#289 = CARTESIAN_POINT('',(47.6,-6.,26.5));
#290 = VECTOR('',#291,1.);
#291 = DIRECTION('',(0.,1.,0.));
#292 = ORIENTED_EDGE('',*,*,#73,.F.);
#293 = ORIENTED_EDGE('',*,*,#294,.F.);
#294 = EDGE_CURVE('',#278,#74,#295,.T.);
#295 = LINE('',#296,#297);
#296 = CARTESIAN_POINT('',(47.6,-6.,4.5));
#297 = VECTOR('',#298,1.);
#298 = DIRECTION('',(0.,1.,0.));
#299 = PLANE('',#300);
#300 = AXIS2_PLACEMENT_3D('',#301,#302,#303);
#301 = CARTESIAN_POINT('',(47.6,-6.,3.5));
#302 = DIRECTION('',(-1.,0.,0.));
#303 = DIRECTION('',(0.,1.,0.));
#304 = ADVANCED_FACE('',(#305),#324,.T.);
#305 = FACE_BOUND('',#306,.F.);
#306 = EDGE_LOOP('',(#307,#316,#322,#323));
#307 = ORIENTED_EDGE('',*,*,#308,.T.);
#308 = EDGE_CURVE('',#280,#309,#311,.T.);
#309 = VERTEX_POINT('',#310);
#310 = CARTESIAN_POINT('',(42.6,-6.,31.5));
#311 = CIRCLE('',#312,5.);
#312 = AXIS2_PLACEMENT_3D('',#313,#314,#315);
#313 = CARTESIAN_POINT('',(42.6,-6.,26.5));
#314 = DIRECTION('',(0.,-1.,0.));
#315 = DIRECTION('',(0.,0.,1.));
#316 = ORIENTED_EDGE('',*,*,#317,.T.);
#317 = EDGE_CURVE('',#309,#84,#318,.T.);
#318 = LINE('',#319,#320);
#319 = CARTESIAN_POINT('',(42.6,-6.,31.5));
#320 = VECTOR('',#321,1.);
#321 = DIRECTION('',(0.,1.,0.));
#322 = ORIENTED_EDGE('',*,*,#83,.F.);
#323 = ORIENTED_EDGE('',*,*,#287,.F.);
#324 = CYLINDRICAL_SURFACE('',#325,5.);
#325 = AXIS2_PLACEMENT_3D('',#326,#327,#328);
#326 = CARTESIAN_POINT('',(42.6,-6.,26.5));
#327 = DIRECTION('',(0.,1.,0.));
#328 = DIRECTION('',(1.,0.,0.));
#329 = ADVANCED_FACE('',(#330),#357,.F.);
#330 = FACE_BOUND('',#331,.F.);
#331 = EDGE_LOOP('',(#332,#341,#342,#351));
#332 = ORIENTED_EDGE('',*,*,#333,.T.);
#333 = EDGE_CURVE('',#334,#74,#336,.T.);
#334 = VERTEX_POINT('',#335);
#335 = CARTESIAN_POINT('',(48.6,7.,3.5));
#336 = ELLIPSE('',#337,1.414213562373,1.);
#337 = AXIS2_PLACEMENT_3D('',#338,#339,#340);
#338 = CARTESIAN_POINT('',(48.6,7.,4.5));
#339 = DIRECTION('',(-0.707106781187,0.707106781187,0.));
#340 = DIRECTION('',(-0.707106781187,-0.707106781187,0.));
#341 = ORIENTED_EDGE('',*,*,#117,.T.);
#342 = ORIENTED_EDGE('',*,*,#343,.F.);
#343 = EDGE_CURVE('',#344,#110,#346,.T.);
#344 = VERTEX_POINT('',#345);
#345 = CARTESIAN_POINT('',(11.6,7.,3.5));
#346 = ELLIPSE('',#347,1.414213562373,1.);
#347 = AXIS2_PLACEMENT_3D('',#348,#349,#350);
#348 = CARTESIAN_POINT('',(11.6,7.,4.5));
#349 = DIRECTION('',(-0.707106781187,-0.707106781187,-0.));
#350 = DIRECTION('',(-0.707106781187,0.707106781187,0.));
#351 = ORIENTED_EDGE('',*,*,#352,.F.);
#352 = EDGE_CURVE('',#334,#344,#353,.T.);
#353 = LINE('',#354,#355);
#354 = CARTESIAN_POINT('',(47.6,7.,3.5));
#355 = VECTOR('',#356,1.);
#356 = DIRECTION('',(-1.,0.,0.));
#357 = CYLINDRICAL_SURFACE('',#358,1.);
#358 = AXIS2_PLACEMENT_3D('',#359,#360,#361);
#359 = CARTESIAN_POINT('',(47.6,7.,4.5));
#360 = DIRECTION('',(-1.,0.,0.));
#361 = DIRECTION('',(0.,0.,-1.));
#362 = ADVANCED_FACE('',(#363),#381,.T.);
#363 = FACE_BOUND('',#364,.T.);
#364 = EDGE_LOOP('',(#365,#373,#374,#375));
#365 = ORIENTED_EDGE('',*,*,#366,.T.);
#366 = EDGE_CURVE('',#367,#309,#369,.T.);
#367 = VERTEX_POINT('',#368);
#368 = CARTESIAN_POINT('',(17.6,-6.,31.5));
#369 = LINE('',#370,#371);
#370 = CARTESIAN_POINT('',(12.6,-6.,31.5));
#371 = VECTOR('',#372,1.);
#372 = DIRECTION('',(1.,0.,0.));
#373 = ORIENTED_EDGE('',*,*,#317,.T.);
#374 = ORIENTED_EDGE('',*,*,#92,.T.);
#375 = ORIENTED_EDGE('',*,*,#376,.T.);
#376 = EDGE_CURVE('',#93,#367,#377,.T.);
#377 = LINE('',#378,#379);
#378 = CARTESIAN_POINT('',(17.6,6.,31.5));
#379 = VECTOR('',#380,1.);
#380 = DIRECTION('',(0.,-1.,0.));
#381 = PLANE('',#382);
#382 = AXIS2_PLACEMENT_3D('',#383,#384,#385);
#383 = CARTESIAN_POINT('',(30.1,1.21E-15,31.5));
#384 = DIRECTION('',(0.,0.,1.));
#385 = DIRECTION('',(1.,0.,0.));
#386 = ADVANCED_FACE('',(#387),#412,.F.);
#387 = FACE_BOUND('',#388,.F.);
#388 = EDGE_LOOP('',(#389,#390,#398,#406));
#389 = ORIENTED_EDGE('',*,*,#109,.T.);
#390 = ORIENTED_EDGE('',*,*,#391,.T.);
#391 = EDGE_CURVE('',#101,#392,#394,.T.);
#392 = VERTEX_POINT('',#393);
#393 = CARTESIAN_POINT('',(12.6,-6.,26.5));
#394 = LINE('',#395,#396);
#395 = CARTESIAN_POINT('',(12.6,6.,26.5));
#396 = VECTOR('',#397,1.);
#397 = DIRECTION('',(0.,-1.,0.));
#398 = ORIENTED_EDGE('',*,*,#399,.F.);
#399 = EDGE_CURVE('',#400,#392,#402,.T.);
#400 = VERTEX_POINT('',#401);
#401 = CARTESIAN_POINT('',(12.6,-6.,4.5));
#402 = LINE('',#403,#404);
#403 = CARTESIAN_POINT('',(12.6,-6.,3.5));
#404 = VECTOR('',#405,1.);
#405 = DIRECTION('',(0.,0.,1.));
#406 = ORIENTED_EDGE('',*,*,#407,.F.);
#407 = EDGE_CURVE('',#110,#400,#408,.T.);
#408 = LINE('',#409,#410);
#409 = CARTESIAN_POINT('',(12.6,6.,4.5));
#410 = VECTOR('',#411,1.);
#411 = DIRECTION('',(0.,-1.,0.));
#412 = PLANE('',#413);
#413 = AXIS2_PLACEMENT_3D('',#414,#415,#416);
#414 = CARTESIAN_POINT('',(12.6,6.,3.5));
#415 = DIRECTION('',(1.,0.,0.));
#416 = DIRECTION('',(0.,-1.,0.));
#417 = ADVANCED_FACE('',(#418),#430,.T.);
#418 = FACE_BOUND('',#419,.F.);
#419 = EDGE_LOOP('',(#420,#421,#422,#429));
#420 = ORIENTED_EDGE('',*,*,#100,.T.);
#421 = ORIENTED_EDGE('',*,*,#376,.T.);
#422 = ORIENTED_EDGE('',*,*,#423,.F.);
#423 = EDGE_CURVE('',#392,#367,#424,.T.);
#424 = CIRCLE('',#425,5.);
#425 = AXIS2_PLACEMENT_3D('',#426,#427,#428);
#426 = CARTESIAN_POINT('',(17.6,-6.,26.5));
#427 = DIRECTION('',(0.,1.,0.));
#428 = DIRECTION('',(0.,0.,-1.));
#429 = ORIENTED_EDGE('',*,*,#391,.F.);
#430 = CYLINDRICAL_SURFACE('',#431,5.);
#431 = AXIS2_PLACEMENT_3D('',#432,#433,#434);
#432 = CARTESIAN_POINT('',(17.6,6.,26.5));
#433 = DIRECTION('',(0.,-1.,0.));
#434 = DIRECTION('',(-1.,0.,0.));
#435 = ADVANCED_FACE('',(#436,#444,#480,#516),#552,.T.);
#436 = FACE_BOUND('',#437,.T.);
#437 = EDGE_LOOP('',(#438,#439,#440,#441,#442,#443));
#438 = ORIENTED_EDGE('',*,*,#237,.F.);
#439 = ORIENTED_EDGE('',*,*,#261,.F.);
#440 = ORIENTED_EDGE('',*,*,#220,.F.);
#441 = ORIENTED_EDGE('',*,*,#171,.F.);
#442 = ORIENTED_EDGE('',*,*,#140,.F.);
#443 = ORIENTED_EDGE('',*,*,#189,.F.);
#444 = FACE_BOUND('',#445,.T.);
#445 = EDGE_LOOP('',(#446,#457,#465,#474));
#446 = ORIENTED_EDGE('',*,*,#447,.F.);
#447 = EDGE_CURVE('',#448,#450,#452,.T.);
#448 = VERTEX_POINT('',#449);
#449 = CARTESIAN_POINT('',(19.6,-3.5,18.75));
#450 = VERTEX_POINT('',#451);
#451 = CARTESIAN_POINT('',(22.6,-3.5,18.75));
#452 = CIRCLE('',#453,1.5);
#453 = AXIS2_PLACEMENT_3D('',#454,#455,#456);
#454 = CARTESIAN_POINT('',(21.1,-3.5,18.75));
#455 = DIRECTION('',(0.,1.,-2.2E-16));
#456 = DIRECTION('',(-1.,0.,0.));
#457 = ORIENTED_EDGE('',*,*,#458,.F.);
#458 = EDGE_CURVE('',#459,#448,#461,.T.);
#459 = VERTEX_POINT('',#460);
#460 = CARTESIAN_POINT('',(19.6,-3.5,16.25));
#461 = LINE('',#462,#463);
#462 = CARTESIAN_POINT('',(19.6,-3.5,11.125));
#463 = VECTOR('',#464,1.);
#464 = DIRECTION('',(-1.42E-15,0.,1.));
#465 = ORIENTED_EDGE('',*,*,#466,.F.);
#466 = EDGE_CURVE('',#467,#459,#469,.T.);
#467 = VERTEX_POINT('',#468);
#468 = CARTESIAN_POINT('',(22.6,-3.5,16.25));
#469 = CIRCLE('',#470,1.5);
#470 = AXIS2_PLACEMENT_3D('',#471,#472,#473);
#471 = CARTESIAN_POINT('',(21.1,-3.5,16.25));
#472 = DIRECTION('',(0.,1.,-2.2E-16));
#473 = DIRECTION('',(-1.,0.,0.));
#474 = ORIENTED_EDGE('',*,*,#475,.T.);
#475 = EDGE_CURVE('',#467,#450,#476,.T.);
#476 = LINE('',#477,#478);
#477 = CARTESIAN_POINT('',(22.6,-3.5,11.125));
#478 = VECTOR('',#479,1.);
#479 = DIRECTION('',(0.,0.,1.));
#480 = FACE_BOUND('',#481,.T.);
#481 = EDGE_LOOP('',(#482,#493,#501,#510));
#482 = ORIENTED_EDGE('',*,*,#483,.F.);
#483 = EDGE_CURVE('',#484,#486,#488,.T.);
#484 = VERTEX_POINT('',#485);
#485 = CARTESIAN_POINT('',(24.85,-3.5,18.75));
#486 = VERTEX_POINT('',#487);
#487 = CARTESIAN_POINT('',(35.35,-3.5,18.75));
#488 = CIRCLE('',#489,5.25);
#489 = AXIS2_PLACEMENT_3D('',#490,#491,#492);
#490 = CARTESIAN_POINT('',(30.1,-3.5,18.75));
#491 = DIRECTION('',(0.,1.,-2.2E-16));
#492 = DIRECTION('',(-1.,0.,0.));
#493 = ORIENTED_EDGE('',*,*,#494,.F.);
#494 = EDGE_CURVE('',#495,#484,#497,.T.);
#495 = VERTEX_POINT('',#496);
#496 = CARTESIAN_POINT('',(24.85,-3.5,16.25));
#497 = LINE('',#498,#499);
#498 = CARTESIAN_POINT('',(24.85,-3.5,11.125));
#499 = VECTOR('',#500,1.);
#500 = DIRECTION('',(1.42E-15,0.,1.));
#501 = ORIENTED_EDGE('',*,*,#502,.F.);
#502 = EDGE_CURVE('',#503,#495,#505,.T.);
#503 = VERTEX_POINT('',#504);
#504 = CARTESIAN_POINT('',(35.35,-3.5,16.25));
#505 = CIRCLE('',#506,5.25);
#506 = AXIS2_PLACEMENT_3D('',#507,#508,#509);
#507 = CARTESIAN_POINT('',(30.1,-3.5,16.25));
#508 = DIRECTION('',(0.,1.,-2.2E-16));
#509 = DIRECTION('',(-1.,0.,0.));
#510 = ORIENTED_EDGE('',*,*,#511,.T.);
#511 = EDGE_CURVE('',#503,#486,#512,.T.);
#512 = LINE('',#513,#514);
#513 = CARTESIAN_POINT('',(35.35,-3.5,11.125));
#514 = VECTOR('',#515,1.);
#515 = DIRECTION('',(0.,0.,1.));
#516 = FACE_BOUND('',#517,.T.);
#517 = EDGE_LOOP('',(#518,#529,#537,#546));
#518 = ORIENTED_EDGE('',*,*,#519,.F.);
#519 = EDGE_CURVE('',#520,#522,#524,.T.);
#520 = VERTEX_POINT('',#521);
#521 = CARTESIAN_POINT('',(37.599999999999,-3.5,18.749999999999));
#522 = VERTEX_POINT('',#523);
#523 = CARTESIAN_POINT('',(40.600000000001,-3.5,18.749999999999));
#524 = CIRCLE('',#525,1.5);
#525 = AXIS2_PLACEMENT_3D('',#526,#527,#528);
#526 = CARTESIAN_POINT('',(39.1,-3.5,18.75));
#527 = DIRECTION('',(0.,1.,-2.2E-16));
#528 = DIRECTION('',(-1.,0.,0.));
#529 = ORIENTED_EDGE('',*,*,#530,.F.);
#530 = EDGE_CURVE('',#531,#520,#533,.T.);
#531 = VERTEX_POINT('',#532);
#532 = CARTESIAN_POINT('',(37.6,-3.5,16.249999999999));
#533 = LINE('',#534,#535);
#534 = CARTESIAN_POINT('',(37.600000000004,-3.5,11.125000000009));
#535 = VECTOR('',#536,1.);
#536 = DIRECTION('',(-7.276E-13,0.,1.));
#537 = ORIENTED_EDGE('',*,*,#538,.F.);
#538 = EDGE_CURVE('',#539,#531,#541,.T.);
#539 = VERTEX_POINT('',#540);
#540 = CARTESIAN_POINT('',(40.6,-3.5,16.249999999999));
#541 = CIRCLE('',#542,1.5);
#542 = AXIS2_PLACEMENT_3D('',#543,#544,#545);
#543 = CARTESIAN_POINT('',(39.1,-3.5,16.25));
#544 = DIRECTION('',(0.,1.,-2.2E-16));
#545 = DIRECTION('',(-1.,0.,0.));
#546 = ORIENTED_EDGE('',*,*,#547,.T.);
#547 = EDGE_CURVE('',#539,#522,#548,.T.);
#548 = LINE('',#549,#550);
#549 = CARTESIAN_POINT('',(40.599999999996,-3.5,11.124999999989));
#550 = VECTOR('',#551,1.);
#551 = DIRECTION('',(7.2191E-13,0.,1.));
#552 = PLANE('',#553);
#553 = AXIS2_PLACEMENT_3D('',#554,#555,#556);
#554 = CARTESIAN_POINT('',(12.6,-3.5,3.5));
#555 = DIRECTION('',(0.,1.,0.));
#556 = DIRECTION('',(1.,0.,0.));
#557 = ADVANCED_FACE('',(#558,#571,#607,#643),#679,.F.);
#558 = FACE_BOUND('',#559,.F.);
#559 = EDGE_LOOP('',(#560,#561,#562,#563,#564,#565));
#560 = ORIENTED_EDGE('',*,*,#399,.T.);
#561 = ORIENTED_EDGE('',*,*,#423,.T.);
#562 = ORIENTED_EDGE('',*,*,#366,.T.);
#563 = ORIENTED_EDGE('',*,*,#308,.F.);
#564 = ORIENTED_EDGE('',*,*,#277,.F.);
#565 = ORIENTED_EDGE('',*,*,#566,.F.);
#566 = EDGE_CURVE('',#400,#278,#567,.T.);
#567 = LINE('',#568,#569);
#568 = CARTESIAN_POINT('',(12.6,-6.,4.5));
#569 = VECTOR('',#570,1.);
#570 = DIRECTION('',(1.,0.,0.));
#571 = FACE_BOUND('',#572,.F.);
#572 = EDGE_LOOP('',(#573,#584,#592,#601));
#573 = ORIENTED_EDGE('',*,*,#574,.F.);
#574 = EDGE_CURVE('',#575,#577,#579,.T.);
#575 = VERTEX_POINT('',#576);
#576 = CARTESIAN_POINT('',(19.6,-6.,18.75));
#577 = VERTEX_POINT('',#578);
#578 = CARTESIAN_POINT('',(22.6,-6.,18.75));
#579 = CIRCLE('',#580,1.5);
#580 = AXIS2_PLACEMENT_3D('',#581,#582,#583);
#581 = CARTESIAN_POINT('',(21.1,-6.,18.75));
#582 = DIRECTION('',(0.,1.,-2.2E-16));
#583 = DIRECTION('',(-1.,0.,0.));
#584 = ORIENTED_EDGE('',*,*,#585,.F.);
#585 = EDGE_CURVE('',#586,#575,#588,.T.);
#586 = VERTEX_POINT('',#587);
#587 = CARTESIAN_POINT('',(19.6,-6.,16.25));
#588 = LINE('',#589,#590);
#589 = CARTESIAN_POINT('',(19.6,-6.,11.125));
#590 = VECTOR('',#591,1.);
#591 = DIRECTION('',(-1.42E-15,0.,1.));
#592 = ORIENTED_EDGE('',*,*,#593,.F.);
#593 = EDGE_CURVE('',#594,#586,#596,.T.);
#594 = VERTEX_POINT('',#595);
#595 = CARTESIAN_POINT('',(22.6,-6.,16.25));
#596 = CIRCLE('',#597,1.5);
#597 = AXIS2_PLACEMENT_3D('',#598,#599,#600);
#598 = CARTESIAN_POINT('',(21.1,-6.,16.25));
#599 = DIRECTION('',(0.,1.,-2.2E-16));
#600 = DIRECTION('',(-1.,0.,0.));
#601 = ORIENTED_EDGE('',*,*,#602,.T.);
#602 = EDGE_CURVE('',#594,#577,#603,.T.);
#603 = LINE('',#604,#605);
#604 = CARTESIAN_POINT('',(22.6,-6.,11.125));
#605 = VECTOR('',#606,1.);
#606 = DIRECTION('',(0.,0.,1.));
#607 = FACE_BOUND('',#608,.F.);
#608 = EDGE_LOOP('',(#609,#620,#628,#637));
#609 = ORIENTED_EDGE('',*,*,#610,.F.);
#610 = EDGE_CURVE('',#611,#613,#615,.T.);
#611 = VERTEX_POINT('',#612);
#612 = CARTESIAN_POINT('',(24.85,-6.,18.75));
#613 = VERTEX_POINT('',#614);
#614 = CARTESIAN_POINT('',(35.35,-6.,18.75));
#615 = CIRCLE('',#616,5.25);
#616 = AXIS2_PLACEMENT_3D('',#617,#618,#619);
#617 = CARTESIAN_POINT('',(30.1,-6.,18.75));
#618 = DIRECTION('',(0.,1.,-2.2E-16));
#619 = DIRECTION('',(-1.,0.,0.));
#620 = ORIENTED_EDGE('',*,*,#621,.F.);
#621 = EDGE_CURVE('',#622,#611,#624,.T.);
#622 = VERTEX_POINT('',#623);
#623 = CARTESIAN_POINT('',(24.85,-6.,16.25));
#624 = LINE('',#625,#626);
#625 = CARTESIAN_POINT('',(24.85,-6.,11.125));
#626 = VECTOR('',#627,1.);
#627 = DIRECTION('',(1.42E-15,0.,1.));
#628 = ORIENTED_EDGE('',*,*,#629,.F.);
#629 = EDGE_CURVE('',#630,#622,#632,.T.);
#630 = VERTEX_POINT('',#631);
#631 = CARTESIAN_POINT('',(35.35,-6.,16.25));
#632 = CIRCLE('',#633,5.25);
#633 = AXIS2_PLACEMENT_3D('',#634,#635,#636);
#634 = CARTESIAN_POINT('',(30.1,-6.,16.25));
#635 = DIRECTION('',(0.,1.,-2.2E-16));
#636 = DIRECTION('',(-1.,0.,0.));
#637 = ORIENTED_EDGE('',*,*,#638,.T.);
#638 = EDGE_CURVE('',#630,#613,#639,.T.);
#639 = LINE('',#640,#641);
#640 = CARTESIAN_POINT('',(35.35,-6.,11.125));
#641 = VECTOR('',#642,1.);
#642 = DIRECTION('',(0.,0.,1.));
#643 = FACE_BOUND('',#644,.F.);
#644 = EDGE_LOOP('',(#645,#656,#664,#673));
#645 = ORIENTED_EDGE('',*,*,#646,.F.);
#646 = EDGE_CURVE('',#647,#649,#651,.T.);
#647 = VERTEX_POINT('',#648);
#648 = CARTESIAN_POINT('',(37.599999999999,-6.,18.749999999999));
#649 = VERTEX_POINT('',#650);
#650 = CARTESIAN_POINT('',(40.600000000001,-6.,18.749999999999));
#651 = CIRCLE('',#652,1.5);
#652 = AXIS2_PLACEMENT_3D('',#653,#654,#655);
#653 = CARTESIAN_POINT('',(39.1,-6.,18.75));
#654 = DIRECTION('',(0.,1.,-2.2E-16));
#655 = DIRECTION('',(-1.,0.,0.));
#656 = ORIENTED_EDGE('',*,*,#657,.F.);
#657 = EDGE_CURVE('',#658,#647,#660,.T.);
#658 = VERTEX_POINT('',#659);
#659 = CARTESIAN_POINT('',(37.6,-6.,16.249999999999));
#660 = LINE('',#661,#662);
#661 = CARTESIAN_POINT('',(37.600000000004,-6.,11.125000000009));
#662 = VECTOR('',#663,1.);
#663 = DIRECTION('',(-7.276E-13,0.,1.));
#664 = ORIENTED_EDGE('',*,*,#665,.F.);
#665 = EDGE_CURVE('',#666,#658,#668,.T.);
#666 = VERTEX_POINT('',#667);
#667 = CARTESIAN_POINT('',(40.6,-6.,16.249999999999));
#668 = CIRCLE('',#669,1.5);
#669 = AXIS2_PLACEMENT_3D('',#670,#671,#672);
#670 = CARTESIAN_POINT('',(39.1,-6.,16.25));
#671 = DIRECTION('',(0.,1.,-2.2E-16));
#672 = DIRECTION('',(-1.,0.,0.));
#673 = ORIENTED_EDGE('',*,*,#674,.T.);
#674 = EDGE_CURVE('',#666,#649,#675,.T.);
#675 = LINE('',#676,#677);
#676 = CARTESIAN_POINT('',(40.599999999996,-6.,11.124999999989));
#677 = VECTOR('',#678,1.);
#678 = DIRECTION('',(7.2191E-13,0.,1.));
#679 = PLANE('',#680);
#680 = AXIS2_PLACEMENT_3D('',#681,#682,#683);
#681 = CARTESIAN_POINT('',(12.6,-6.,3.5));
#682 = DIRECTION('',(0.,1.,0.));
#683 = DIRECTION('',(1.,0.,0.));
#684 = ADVANCED_FACE('',(#685),#704,.F.);
#685 = FACE_BOUND('',#686,.F.);
#686 = EDGE_LOOP('',(#687,#696,#697,#698));
#687 = ORIENTED_EDGE('',*,*,#688,.T.);
#688 = EDGE_CURVE('',#689,#278,#691,.T.);
#689 = VERTEX_POINT('',#690);
#690 = CARTESIAN_POINT('',(48.6,-7.,3.5));
#691 = ELLIPSE('',#692,1.414213562373,1.);
#692 = AXIS2_PLACEMENT_3D('',#693,#694,#695);
#693 = CARTESIAN_POINT('',(48.6,-7.,4.5));
#694 = DIRECTION('',(0.707106781187,0.707106781187,-0.));
#695 = DIRECTION('',(-0.707106781187,0.707106781187,0.));
#696 = ORIENTED_EDGE('',*,*,#294,.T.);
#697 = ORIENTED_EDGE('',*,*,#333,.F.);
#698 = ORIENTED_EDGE('',*,*,#699,.F.);
#699 = EDGE_CURVE('',#689,#334,#700,.T.);
#700 = LINE('',#701,#702);
#701 = CARTESIAN_POINT('',(48.6,-6.,3.5));
#702 = VECTOR('',#703,1.);
#703 = DIRECTION('',(0.,1.,0.));
#704 = CYLINDRICAL_SURFACE('',#705,1.);
#705 = AXIS2_PLACEMENT_3D('',#706,#707,#708);
#706 = CARTESIAN_POINT('',(48.6,-6.,4.5));
#707 = DIRECTION('',(0.,1.,0.));
#708 = DIRECTION('',(0.,0.,-1.));
#709 = ADVANCED_FACE('',(#710,#728,#781,#792,#803),#814,.T.);
#710 = FACE_BOUND('',#711,.T.);
#711 = EDGE_LOOP('',(#712,#713,#714,#722));
#712 = ORIENTED_EDGE('',*,*,#352,.F.);
#713 = ORIENTED_EDGE('',*,*,#699,.F.);
#714 = ORIENTED_EDGE('',*,*,#715,.F.);
#715 = EDGE_CURVE('',#716,#689,#718,.T.);
#716 = VERTEX_POINT('',#717);
#717 = CARTESIAN_POINT('',(11.6,-7.,3.5));
#718 = LINE('',#719,#720);
#719 = CARTESIAN_POINT('',(12.6,-7.,3.5));
#720 = VECTOR('',#721,1.);
#721 = DIRECTION('',(1.,0.,0.));
#722 = ORIENTED_EDGE('',*,*,#723,.F.);
#723 = EDGE_CURVE('',#344,#716,#724,.T.);
#724 = LINE('',#725,#726);
#725 = CARTESIAN_POINT('',(11.6,6.,3.5));
#726 = VECTOR('',#727,1.);
#727 = DIRECTION('',(0.,-1.,0.));
#728 = FACE_BOUND('',#729,.T.);
#729 = EDGE_LOOP('',(#730,#741,#749,#758,#766,#775));
#730 = ORIENTED_EDGE('',*,*,#731,.T.);
#731 = EDGE_CURVE('',#732,#734,#736,.T.);
#732 = VERTEX_POINT('',#733);
#733 = CARTESIAN_POINT('',(6.353039701981,50.16171215842,3.5));
#734 = VERTEX_POINT('',#735);
#735 = CARTESIAN_POINT('',(-13.5,38.25,3.5));
#736 = CIRCLE('',#737,13.5);
#737 = AXIS2_PLACEMENT_3D('',#738,#739,#740);
#738 = CARTESIAN_POINT('',(0.,38.25,3.5));
#739 = DIRECTION('',(0.,0.,1.));
#740 = DIRECTION('',(1.,0.,0.));
#741 = ORIENTED_EDGE('',*,*,#742,.T.);
#742 = EDGE_CURVE('',#734,#743,#745,.T.);
#743 = VERTEX_POINT('',#744);
#744 = CARTESIAN_POINT('',(-13.5,-35.,3.5));
#745 = LINE('',#746,#747);
#746 = CARTESIAN_POINT('',(-13.5,38.25,3.5));
#747 = VECTOR('',#748,1.);
#748 = DIRECTION('',(0.,-1.,0.));
#749 = ORIENTED_EDGE('',*,*,#750,.T.);
#750 = EDGE_CURVE('',#743,#751,#753,.T.);
#751 = VERTEX_POINT('',#752);
#752 = CARTESIAN_POINT('',(5.856398403987,-47.16357668343,3.5));
#753 = CIRCLE('',#754,13.5);
#754 = AXIS2_PLACEMENT_3D('',#755,#756,#757);
#755 = CARTESIAN_POINT('',(0.,-35.,3.5));
#756 = DIRECTION('',(0.,0.,1.));
#757 = DIRECTION('',(1.,0.,0.));
#758 = ORIENTED_EDGE('',*,*,#759,.F.);
#759 = EDGE_CURVE('',#760,#751,#762,.T.);
#760 = VERTEX_POINT('',#761);
#761 = CARTESIAN_POINT('',(68.407633911389,-17.0470274704,3.5));
#762 = LINE('',#763,#764);
#763 = CARTESIAN_POINT('',(68.407633911392,-17.04702747041,3.5));
#764 = VECTOR('',#765,1.);
#765 = DIRECTION('',(-0.901005680254,-0.433807289184,0.));
#766 = ORIENTED_EDGE('',*,*,#767,.T.);
#767 = EDGE_CURVE('',#760,#768,#770,.T.);
#768 = VERTEX_POINT('',#769);
#769 = CARTESIAN_POINT('',(69.103667493467,16.694044002757,3.5));
#770 = CIRCLE('',#771,18.92);
#771 = AXIS2_PLACEMENT_3D('',#772,#773,#774);
#772 = CARTESIAN_POINT('',(60.2,0.,3.5));
#773 = DIRECTION('',(0.,0.,1.));
#774 = DIRECTION('',(1.,0.,0.));
#775 = ORIENTED_EDGE('',*,*,#776,.F.);
#776 = EDGE_CURVE('',#732,#768,#777,.T.);
#777 = LINE('',#778,#779);
#778 = CARTESIAN_POINT('',(6.353039701981,50.16171215842,3.5));
#779 = VECTOR('',#780,1.);
#780 = DIRECTION('',(0.882349048772,-0.47059553348,0.));
#781 = FACE_BOUND('',#782,.T.);
#782 = EDGE_LOOP('',(#783));
#783 = ORIENTED_EDGE('',*,*,#784,.F.);
#784 = EDGE_CURVE('',#785,#785,#787,.T.);
#785 = VERTEX_POINT('',#786);
#786 = CARTESIAN_POINT('',(2.5,-35.,3.5));
#787 = CIRCLE('',#788,2.5);
#788 = AXIS2_PLACEMENT_3D('',#789,#790,#791);
#789 = CARTESIAN_POINT('',(0.,-35.,3.5));
#790 = DIRECTION('',(0.,0.,1.));
#791 = DIRECTION('',(1.,0.,0.));
#792 = FACE_BOUND('',#793,.T.);
#793 = EDGE_LOOP('',(#794));
#794 = ORIENTED_EDGE('',*,*,#795,.F.);
#795 = EDGE_CURVE('',#796,#796,#798,.T.);
#796 = VERTEX_POINT('',#797);
#797 = CARTESIAN_POINT('',(67.7,0.,3.5));
#798 = CIRCLE('',#799,7.5);
#799 = AXIS2_PLACEMENT_3D('',#800,#801,#802);
#800 = CARTESIAN_POINT('',(60.2,0.,3.5));
#801 = DIRECTION('',(0.,0.,1.));
#802 = DIRECTION('',(1.,0.,0.));
#803 = FACE_BOUND('',#804,.T.);
#804 = EDGE_LOOP('',(#805));
#805 = ORIENTED_EDGE('',*,*,#806,.F.);
#806 = EDGE_CURVE('',#807,#807,#809,.T.);
#807 = VERTEX_POINT('',#808);
#808 = CARTESIAN_POINT('',(2.5,38.25,3.5));
#809 = CIRCLE('',#810,2.5);
#810 = AXIS2_PLACEMENT_3D('',#811,#812,#813);
#811 = CARTESIAN_POINT('',(0.,38.25,3.5));
#812 = DIRECTION('',(0.,0.,1.));
#813 = DIRECTION('',(1.,0.,0.));
#814 = PLANE('',#815);
#815 = AXIS2_PLACEMENT_3D('',#816,#817,#818);
#816 = CARTESIAN_POINT('',(23.058593188583,1.160597711275,3.5));
#817 = DIRECTION('',(0.,0.,1.));
#818 = DIRECTION('',(1.,0.,0.));
#819 = ADVANCED_FACE('',(#820),#832,.F.);
#820 = FACE_BOUND('',#821,.F.);
#821 = EDGE_LOOP('',(#822,#823,#824,#831));
#822 = ORIENTED_EDGE('',*,*,#343,.T.);
#823 = ORIENTED_EDGE('',*,*,#407,.T.);
#824 = ORIENTED_EDGE('',*,*,#825,.F.);
#825 = EDGE_CURVE('',#716,#400,#826,.T.);
#826 = ELLIPSE('',#827,1.414213562373,1.);
#827 = AXIS2_PLACEMENT_3D('',#828,#829,#830);
#828 = CARTESIAN_POINT('',(11.6,-7.,4.5));
#829 = DIRECTION('',(0.707106781187,-0.707106781187,0.));
#830 = DIRECTION('',(0.707106781187,0.707106781187,0.));
#831 = ORIENTED_EDGE('',*,*,#723,.F.);
#832 = CYLINDRICAL_SURFACE('',#833,1.);
#833 = AXIS2_PLACEMENT_3D('',#834,#835,#836);
#834 = CARTESIAN_POINT('',(11.6,6.,4.5));
#835 = DIRECTION('',(0.,-1.,0.));
#836 = DIRECTION('',(-0.,-0.,-1.));
#837 = ADVANCED_FACE('',(#838),#854,.F.);
#838 = FACE_BOUND('',#839,.F.);
#839 = EDGE_LOOP('',(#840,#841,#847,#848));
#840 = ORIENTED_EDGE('',*,*,#447,.F.);
#841 = ORIENTED_EDGE('',*,*,#842,.T.);
#842 = EDGE_CURVE('',#448,#575,#843,.T.);
#843 = LINE('',#844,#845);
#844 = CARTESIAN_POINT('',(19.6,6.,18.75));
#845 = VECTOR('',#846,1.);
#846 = DIRECTION('',(0.,-1.,2.2E-16));
#847 = ORIENTED_EDGE('',*,*,#574,.T.);
#848 = ORIENTED_EDGE('',*,*,#849,.F.);
#849 = EDGE_CURVE('',#450,#577,#850,.T.);
#850 = LINE('',#851,#852);
#851 = CARTESIAN_POINT('',(22.6,6.,18.75));
#852 = VECTOR('',#853,1.);
#853 = DIRECTION('',(0.,-1.,2.2E-16));
#854 = CYLINDRICAL_SURFACE('',#855,1.5);
#855 = AXIS2_PLACEMENT_3D('',#856,#857,#858);
#856 = CARTESIAN_POINT('',(21.1,6.,18.75));
#857 = DIRECTION('',(0.,1.,-2.2E-16));
#858 = DIRECTION('',(-1.,0.,0.));
#859 = ADVANCED_FACE('',(#860),#871,.F.);
#860 = FACE_BOUND('',#861,.F.);
#861 = EDGE_LOOP('',(#862,#863,#864,#865));
#862 = ORIENTED_EDGE('',*,*,#475,.T.);
#863 = ORIENTED_EDGE('',*,*,#849,.T.);
#864 = ORIENTED_EDGE('',*,*,#602,.F.);
#865 = ORIENTED_EDGE('',*,*,#866,.F.);
#866 = EDGE_CURVE('',#467,#594,#867,.T.);
#867 = LINE('',#868,#869);
#868 = CARTESIAN_POINT('',(22.6,6.,16.25));
#869 = VECTOR('',#870,1.);
#870 = DIRECTION('',(0.,-1.,2.2E-16));
#871 = PLANE('',#872);
#872 = AXIS2_PLACEMENT_3D('',#873,#874,#875);
#873 = CARTESIAN_POINT('',(22.6,6.,18.75));
#874 = DIRECTION('',(1.,0.,0.));
#875 = DIRECTION('',(0.,-2.2E-16,-1.));
#876 = ADVANCED_FACE('',(#877),#888,.F.);
#877 = FACE_BOUND('',#878,.F.);
#878 = EDGE_LOOP('',(#879,#880,#881,#882));
#879 = ORIENTED_EDGE('',*,*,#466,.F.);
#880 = ORIENTED_EDGE('',*,*,#866,.T.);
#881 = ORIENTED_EDGE('',*,*,#593,.T.);
#882 = ORIENTED_EDGE('',*,*,#883,.F.);
#883 = EDGE_CURVE('',#459,#586,#884,.T.);
#884 = LINE('',#885,#886);
#885 = CARTESIAN_POINT('',(19.6,6.,16.25));
#886 = VECTOR('',#887,1.);
#887 = DIRECTION('',(0.,-1.,2.2E-16));
#888 = CYLINDRICAL_SURFACE('',#889,1.5);
#889 = AXIS2_PLACEMENT_3D('',#890,#891,#892);
#890 = CARTESIAN_POINT('',(21.1,6.,16.25));
#891 = DIRECTION('',(0.,1.,-2.2E-16));
#892 = DIRECTION('',(-1.,0.,0.));
#893 = ADVANCED_FACE('',(#894),#900,.T.);
#894 = FACE_BOUND('',#895,.T.);
#895 = EDGE_LOOP('',(#896,#897,#898,#899));
#896 = ORIENTED_EDGE('',*,*,#458,.T.);
#897 = ORIENTED_EDGE('',*,*,#842,.T.);
#898 = ORIENTED_EDGE('',*,*,#585,.F.);
#899 = ORIENTED_EDGE('',*,*,#883,.F.);
#900 = PLANE('',#901);
#901 = AXIS2_PLACEMENT_3D('',#902,#903,#904);
#902 = CARTESIAN_POINT('',(19.6,6.,18.75));
#903 = DIRECTION('',(1.,0.,1.42E-15));
#904 = DIRECTION('',(1.42E-15,-2.2E-16,-1.));
#905 = ADVANCED_FACE('',(#906),#922,.F.);
#906 = FACE_BOUND('',#907,.F.);
#907 = EDGE_LOOP('',(#908,#909,#915,#916));
#908 = ORIENTED_EDGE('',*,*,#483,.F.);
#909 = ORIENTED_EDGE('',*,*,#910,.T.);
#910 = EDGE_CURVE('',#484,#611,#911,.T.);
#911 = LINE('',#912,#913);
#912 = CARTESIAN_POINT('',(24.85,6.,18.75));
#913 = VECTOR('',#914,1.);
#914 = DIRECTION('',(0.,-1.,2.2E-16));
#915 = ORIENTED_EDGE('',*,*,#610,.T.);
#916 = ORIENTED_EDGE('',*,*,#917,.F.);
#917 = EDGE_CURVE('',#486,#613,#918,.T.);
#918 = LINE('',#919,#920);
#919 = CARTESIAN_POINT('',(35.35,6.,18.75));
#920 = VECTOR('',#921,1.);
#921 = DIRECTION('',(0.,-1.,2.2E-16));
#922 = CYLINDRICAL_SURFACE('',#923,5.25);
#923 = AXIS2_PLACEMENT_3D('',#924,#925,#926);
#924 = CARTESIAN_POINT('',(30.1,6.,18.75));
#925 = DIRECTION('',(0.,1.,-2.2E-16));
#926 = DIRECTION('',(-1.,0.,0.));
#927 = ADVANCED_FACE('',(#928),#939,.F.);
#928 = FACE_BOUND('',#929,.F.);
#929 = EDGE_LOOP('',(#930,#931,#932,#933));
#930 = ORIENTED_EDGE('',*,*,#511,.T.);
#931 = ORIENTED_EDGE('',*,*,#917,.T.);
#932 = ORIENTED_EDGE('',*,*,#638,.F.);
#933 = ORIENTED_EDGE('',*,*,#934,.F.);
#934 = EDGE_CURVE('',#503,#630,#935,.T.);
#935 = LINE('',#936,#937);
#936 = CARTESIAN_POINT('',(35.35,6.,16.25));
#937 = VECTOR('',#938,1.);
#938 = DIRECTION('',(0.,-1.,2.2E-16));
#939 = PLANE('',#940);
#940 = AXIS2_PLACEMENT_3D('',#941,#942,#943);
#941 = CARTESIAN_POINT('',(35.35,6.,18.75));
#942 = DIRECTION('',(1.,0.,0.));
#943 = DIRECTION('',(0.,-2.2E-16,-1.));
#944 = ADVANCED_FACE('',(#945),#956,.F.);
#945 = FACE_BOUND('',#946,.F.);
#946 = EDGE_LOOP('',(#947,#948,#949,#950));
#947 = ORIENTED_EDGE('',*,*,#502,.F.);
#948 = ORIENTED_EDGE('',*,*,#934,.T.);
#949 = ORIENTED_EDGE('',*,*,#629,.T.);
#950 = ORIENTED_EDGE('',*,*,#951,.F.);
#951 = EDGE_CURVE('',#495,#622,#952,.T.);
#952 = LINE('',#953,#954);
#953 = CARTESIAN_POINT('',(24.85,6.,16.25));
#954 = VECTOR('',#955,1.);
#955 = DIRECTION('',(0.,-1.,2.2E-16));
#956 = CYLINDRICAL_SURFACE('',#957,5.25);
#957 = AXIS2_PLACEMENT_3D('',#958,#959,#960);
#958 = CARTESIAN_POINT('',(30.1,6.,16.25));
#959 = DIRECTION('',(0.,1.,-2.2E-16));
#960 = DIRECTION('',(-1.,0.,0.));
#961 = ADVANCED_FACE('',(#962),#968,.T.);
#962 = FACE_BOUND('',#963,.T.);
#963 = EDGE_LOOP('',(#964,#965,#966,#967));
#964 = ORIENTED_EDGE('',*,*,#494,.T.);
#965 = ORIENTED_EDGE('',*,*,#910,.T.);
#966 = ORIENTED_EDGE('',*,*,#621,.F.);
#967 = ORIENTED_EDGE('',*,*,#951,.F.);
#968 = PLANE('',#969);
#969 = AXIS2_PLACEMENT_3D('',#970,#971,#972);
#970 = CARTESIAN_POINT('',(24.85,6.,18.75));
#971 = DIRECTION('',(1.,0.,-1.42E-15));
#972 = DIRECTION('',(-1.42E-15,-2.2E-16,-1.));
#973 = ADVANCED_FACE('',(#974),#990,.F.);
#974 = FACE_BOUND('',#975,.F.);
#975 = EDGE_LOOP('',(#976,#977,#983,#984));
#976 = ORIENTED_EDGE('',*,*,#519,.F.);
#977 = ORIENTED_EDGE('',*,*,#978,.T.);
#978 = EDGE_CURVE('',#520,#647,#979,.T.);
#979 = LINE('',#980,#981);
#980 = CARTESIAN_POINT('',(37.599999999999,6.,18.749999999999));
#981 = VECTOR('',#982,1.);
#982 = DIRECTION('',(0.,-1.,2.2E-16));
#983 = ORIENTED_EDGE('',*,*,#646,.T.);
#984 = ORIENTED_EDGE('',*,*,#985,.F.);
#985 = EDGE_CURVE('',#522,#649,#986,.T.);
#986 = LINE('',#987,#988);
#987 = CARTESIAN_POINT('',(40.600000000001,6.,18.749999999999));
#988 = VECTOR('',#989,1.);
#989 = DIRECTION('',(0.,-1.,2.2E-16));
#990 = CYLINDRICAL_SURFACE('',#991,1.5);
#991 = AXIS2_PLACEMENT_3D('',#992,#993,#994);
#992 = CARTESIAN_POINT('',(39.1,6.,18.75));
#993 = DIRECTION('',(0.,1.,-2.2E-16));
#994 = DIRECTION('',(-1.,0.,0.));
#995 = ADVANCED_FACE('',(#996),#1007,.F.);
#996 = FACE_BOUND('',#997,.F.);
#997 = EDGE_LOOP('',(#998,#999,#1000,#1001));
#998 = ORIENTED_EDGE('',*,*,#547,.T.);
#999 = ORIENTED_EDGE('',*,*,#985,.T.);
#1000 = ORIENTED_EDGE('',*,*,#674,.F.);
#1001 = ORIENTED_EDGE('',*,*,#1002,.F.);
#1002 = EDGE_CURVE('',#539,#666,#1003,.T.);
#1003 = LINE('',#1004,#1005);
#1004 = CARTESIAN_POINT('',(40.6,6.,16.249999999999));
#1005 = VECTOR('',#1006,1.);
#1006 = DIRECTION('',(0.,-1.,2.2E-16));
#1007 = PLANE('',#1008);
#1008 = AXIS2_PLACEMENT_3D('',#1009,#1010,#1011);
#1009 = CARTESIAN_POINT('',(40.600000000002,6.,18.749999999999));
#1010 = DIRECTION('',(1.,0.,-7.2191E-13));
#1011 = DIRECTION('',(-7.2191E-13,-2.2E-16,-1.));
#1012 = ADVANCED_FACE('',(#1013),#1024,.F.);
#1013 = FACE_BOUND('',#1014,.F.);
#1014 = EDGE_LOOP('',(#1015,#1016,#1017,#1018));
#1015 = ORIENTED_EDGE('',*,*,#538,.F.);
#1016 = ORIENTED_EDGE('',*,*,#1002,.T.);
#1017 = ORIENTED_EDGE('',*,*,#665,.T.);
#1018 = ORIENTED_EDGE('',*,*,#1019,.F.);
#1019 = EDGE_CURVE('',#531,#658,#1020,.T.);
#1020 = LINE('',#1021,#1022);
#1021 = CARTESIAN_POINT('',(37.6,6.,16.249999999999));
#1022 = VECTOR('',#1023,1.);
#1023 = DIRECTION('',(0.,-1.,2.2E-16));
#1024 = CYLINDRICAL_SURFACE('',#1025,1.5);
#1025 = AXIS2_PLACEMENT_3D('',#1026,#1027,#1028);
#1026 = CARTESIAN_POINT('',(39.1,6.,16.25));
#1027 = DIRECTION('',(0.,1.,-2.2E-16));
#1028 = DIRECTION('',(-1.,0.,0.));
#1029 = ADVANCED_FACE('',(#1030),#1036,.T.);
#1030 = FACE_BOUND('',#1031,.T.);
#1031 = EDGE_LOOP('',(#1032,#1033,#1034,#1035));
#1032 = ORIENTED_EDGE('',*,*,#530,.T.);
#1033 = ORIENTED_EDGE('',*,*,#978,.T.);
#1034 = ORIENTED_EDGE('',*,*,#657,.F.);
#1035 = ORIENTED_EDGE('',*,*,#1019,.F.);
#1036 = PLANE('',#1037);
#1037 = AXIS2_PLACEMENT_3D('',#1038,#1039,#1040);
#1038 = CARTESIAN_POINT('',(37.599999999998,6.,18.749999999999));
#1039 = DIRECTION('',(1.,0.,7.276E-13));
#1040 = DIRECTION('',(7.276E-13,-2.2E-16,-1.));
#1041 = ADVANCED_FACE('',(#1042),#1048,.F.);
#1042 = FACE_BOUND('',#1043,.F.);
#1043 = EDGE_LOOP('',(#1044,#1045,#1046,#1047));
#1044 = ORIENTED_EDGE('',*,*,#825,.T.);
#1045 = ORIENTED_EDGE('',*,*,#566,.T.);
#1046 = ORIENTED_EDGE('',*,*,#688,.F.);
#1047 = ORIENTED_EDGE('',*,*,#715,.F.);
#1048 = CYLINDRICAL_SURFACE('',#1049,1.);
#1049 = AXIS2_PLACEMENT_3D('',#1050,#1051,#1052);
#1050 = CARTESIAN_POINT('',(12.6,-7.,4.5));
#1051 = DIRECTION('',(1.,0.,0.));
#1052 = DIRECTION('',(0.,0.,-1.));
#1053 = ADVANCED_FACE('',(#1054),#1080,.T.);
#1054 = FACE_BOUND('',#1055,.F.);
#1055 = EDGE_LOOP('',(#1056,#1064,#1065,#1073));
#1056 = ORIENTED_EDGE('',*,*,#1057,.T.);
#1057 = EDGE_CURVE('',#1058,#732,#1060,.T.);
#1058 = VERTEX_POINT('',#1059);
#1059 = CARTESIAN_POINT('',(6.353039701981,50.16171215842,0.));
#1060 = LINE('',#1061,#1062);
#1061 = CARTESIAN_POINT('',(6.353039701981,50.16171215842,0.));
#1062 = VECTOR('',#1063,1.);
#1063 = DIRECTION('',(0.,0.,1.));
#1064 = ORIENTED_EDGE('',*,*,#731,.T.);
#1065 = ORIENTED_EDGE('',*,*,#1066,.F.);
#1066 = EDGE_CURVE('',#1067,#734,#1069,.T.);
#1067 = VERTEX_POINT('',#1068);
#1068 = CARTESIAN_POINT('',(-13.5,38.25,0.));
#1069 = LINE('',#1070,#1071);
#1070 = CARTESIAN_POINT('',(-13.5,38.25,0.));
#1071 = VECTOR('',#1072,1.);
#1072 = DIRECTION('',(0.,0.,1.));
#1073 = ORIENTED_EDGE('',*,*,#1074,.F.);
#1074 = EDGE_CURVE('',#1058,#1067,#1075,.T.);
#1075 = CIRCLE('',#1076,13.5);
#1076 = AXIS2_PLACEMENT_3D('',#1077,#1078,#1079);
#1077 = CARTESIAN_POINT('',(0.,38.25,0.));
#1078 = DIRECTION('',(0.,0.,1.));
#1079 = DIRECTION('',(1.,0.,0.));
#1080 = CYLINDRICAL_SURFACE('',#1081,13.5);
#1081 = AXIS2_PLACEMENT_3D('',#1082,#1083,#1084);
#1082 = CARTESIAN_POINT('',(0.,38.25,0.));
#1083 = DIRECTION('',(-0.,-0.,-1.));
#1084 = DIRECTION('',(1.,0.,0.));
#1085 = ADVANCED_FACE('',(#1086),#1104,.T.);
#1086 = FACE_BOUND('',#1087,.T.);
#1087 = EDGE_LOOP('',(#1088,#1089,#1090,#1098));
#1088 = ORIENTED_EDGE('',*,*,#1057,.T.);
#1089 = ORIENTED_EDGE('',*,*,#776,.T.);
#1090 = ORIENTED_EDGE('',*,*,#1091,.F.);
#1091 = EDGE_CURVE('',#1092,#768,#1094,.T.);
#1092 = VERTEX_POINT('',#1093);
#1093 = CARTESIAN_POINT('',(69.103667493467,16.694044002757,0.));
#1094 = LINE('',#1095,#1096);
#1095 = CARTESIAN_POINT('',(69.103667493467,16.694044002757,0.));
#1096 = VECTOR('',#1097,1.);
#1097 = DIRECTION('',(0.,0.,1.));
#1098 = ORIENTED_EDGE('',*,*,#1099,.F.);
#1099 = EDGE_CURVE('',#1058,#1092,#1100,.T.);
#1100 = LINE('',#1101,#1102);
#1101 = CARTESIAN_POINT('',(6.353039701981,50.16171215842,0.));
#1102 = VECTOR('',#1103,1.);
#1103 = DIRECTION('',(0.882349048772,-0.47059553348,0.));
#1104 = PLANE('',#1105);
#1105 = AXIS2_PLACEMENT_3D('',#1106,#1107,#1108);
#1106 = CARTESIAN_POINT('',(6.353039701981,50.16171215842,0.));
#1107 = DIRECTION('',(0.47059553348,0.882349048772,0.));
#1108 = DIRECTION('',(0.882349048772,-0.47059553348,0.));
#1109 = ADVANCED_FACE('',(#1110),#1128,.F.);
#1110 = FACE_BOUND('',#1111,.F.);
#1111 = EDGE_LOOP('',(#1112,#1113,#1114,#1122));
#1112 = ORIENTED_EDGE('',*,*,#1066,.T.);
#1113 = ORIENTED_EDGE('',*,*,#742,.T.);
#1114 = ORIENTED_EDGE('',*,*,#1115,.F.);
#1115 = EDGE_CURVE('',#1116,#743,#1118,.T.);
#1116 = VERTEX_POINT('',#1117);
#1117 = CARTESIAN_POINT('',(-13.5,-35.,0.));
#1118 = LINE('',#1119,#1120);
#1119 = CARTESIAN_POINT('',(-13.5,-35.,0.));
#1120 = VECTOR('',#1121,1.);
#1121 = DIRECTION('',(0.,0.,1.));
#1122 = ORIENTED_EDGE('',*,*,#1123,.F.);
#1123 = EDGE_CURVE('',#1067,#1116,#1124,.T.);
#1124 = LINE('',#1125,#1126);
#1125 = CARTESIAN_POINT('',(-13.5,38.25,0.));
#1126 = VECTOR('',#1127,1.);
#1127 = DIRECTION('',(0.,-1.,0.));
#1128 = PLANE('',#1129);
#1129 = AXIS2_PLACEMENT_3D('',#1130,#1131,#1132);
#1130 = CARTESIAN_POINT('',(-13.5,38.25,0.));
#1131 = DIRECTION('',(1.,0.,0.));
#1132 = DIRECTION('',(0.,-1.,0.));
#1133 = ADVANCED_FACE('',(#1134),#1153,.T.);
#1134 = FACE_BOUND('',#1135,.F.);
#1135 = EDGE_LOOP('',(#1136,#1144,#1145,#1146));
#1136 = ORIENTED_EDGE('',*,*,#1137,.T.);
#1137 = EDGE_CURVE('',#1138,#760,#1140,.T.);
#1138 = VERTEX_POINT('',#1139);
#1139 = CARTESIAN_POINT('',(68.407633911389,-17.0470274704,0.));
#1140 = LINE('',#1141,#1142);
#1141 = CARTESIAN_POINT('',(68.407633911389,-17.0470274704,0.));
#1142 = VECTOR('',#1143,1.);
#1143 = DIRECTION('',(0.,0.,1.));
#1144 = ORIENTED_EDGE('',*,*,#767,.T.);
#1145 = ORIENTED_EDGE('',*,*,#1091,.F.);
#1146 = ORIENTED_EDGE('',*,*,#1147,.F.);
#1147 = EDGE_CURVE('',#1138,#1092,#1148,.T.);
#1148 = CIRCLE('',#1149,18.92);
#1149 = AXIS2_PLACEMENT_3D('',#1150,#1151,#1152);
#1150 = CARTESIAN_POINT('',(60.2,0.,0.));
#1151 = DIRECTION('',(0.,0.,1.));
#1152 = DIRECTION('',(1.,0.,0.));
#1153 = CYLINDRICAL_SURFACE('',#1154,18.92);
#1154 = AXIS2_PLACEMENT_3D('',#1155,#1156,#1157);
#1155 = CARTESIAN_POINT('',(60.2,0.,0.));
#1156 = DIRECTION('',(-0.,-0.,-1.));
#1157 = DIRECTION('',(1.,0.,0.));
#1158 = ADVANCED_FACE('',(#1159),#1178,.T.);
#1159 = FACE_BOUND('',#1160,.F.);
#1160 = EDGE_LOOP('',(#1161,#1162,#1163,#1171));
#1161 = ORIENTED_EDGE('',*,*,#1115,.T.);
#1162 = ORIENTED_EDGE('',*,*,#750,.T.);
#1163 = ORIENTED_EDGE('',*,*,#1164,.F.);
#1164 = EDGE_CURVE('',#1165,#751,#1167,.T.);
#1165 = VERTEX_POINT('',#1166);
#1166 = CARTESIAN_POINT('',(5.856398403987,-47.16357668343,0.));
#1167 = LINE('',#1168,#1169);
#1168 = CARTESIAN_POINT('',(5.856398403987,-47.16357668343,0.));
#1169 = VECTOR('',#1170,1.);
#1170 = DIRECTION('',(0.,0.,1.));
#1171 = ORIENTED_EDGE('',*,*,#1172,.F.);
#1172 = EDGE_CURVE('',#1116,#1165,#1173,.T.);
#1173 = CIRCLE('',#1174,13.5);
#1174 = AXIS2_PLACEMENT_3D('',#1175,#1176,#1177);
#1175 = CARTESIAN_POINT('',(0.,-35.,0.));
#1176 = DIRECTION('',(0.,0.,1.));
#1177 = DIRECTION('',(1.,0.,0.));
#1178 = CYLINDRICAL_SURFACE('',#1179,13.5);
#1179 = AXIS2_PLACEMENT_3D('',#1180,#1181,#1182);
#1180 = CARTESIAN_POINT('',(0.,-35.,0.));
#1181 = DIRECTION('',(-0.,-0.,-1.));
#1182 = DIRECTION('',(1.,0.,0.));
#1183 = ADVANCED_FACE('',(#1184),#1195,.T.);
#1184 = FACE_BOUND('',#1185,.T.);
#1185 = EDGE_LOOP('',(#1186,#1187,#1188,#1189));
#1186 = ORIENTED_EDGE('',*,*,#1137,.T.);
#1187 = ORIENTED_EDGE('',*,*,#759,.T.);
#1188 = ORIENTED_EDGE('',*,*,#1164,.F.);
#1189 = ORIENTED_EDGE('',*,*,#1190,.F.);
#1190 = EDGE_CURVE('',#1138,#1165,#1191,.T.);
#1191 = LINE('',#1192,#1193);
#1192 = CARTESIAN_POINT('',(68.407633911392,-17.04702747041,0.));
#1193 = VECTOR('',#1194,1.);
#1194 = DIRECTION('',(-0.901005680254,-0.433807289184,0.));
#1195 = PLANE('',#1196);
#1196 = AXIS2_PLACEMENT_3D('',#1197,#1198,#1199);
#1197 = CARTESIAN_POINT('',(68.407633911392,-17.04702747041,0.));
#1198 = DIRECTION('',(0.433807289184,-0.901005680254,0.));
#1199 = DIRECTION('',(-0.901005680254,-0.433807289184,0.));
#1200 = ADVANCED_FACE('',(#1201),#1220,.F.);
#1201 = FACE_BOUND('',#1202,.T.);
#1202 = EDGE_LOOP('',(#1203,#1211,#1212,#1213));
#1203 = ORIENTED_EDGE('',*,*,#1204,.T.);
#1204 = EDGE_CURVE('',#1205,#785,#1207,.T.);
#1205 = VERTEX_POINT('',#1206);
#1206 = CARTESIAN_POINT('',(2.5,-35.,0.));
#1207 = LINE('',#1208,#1209);
#1208 = CARTESIAN_POINT('',(2.5,-35.,0.));
#1209 = VECTOR('',#1210,1.);
#1210 = DIRECTION('',(0.,0.,1.));
#1211 = ORIENTED_EDGE('',*,*,#784,.T.);
#1212 = ORIENTED_EDGE('',*,*,#1204,.F.);
#1213 = ORIENTED_EDGE('',*,*,#1214,.F.);
#1214 = EDGE_CURVE('',#1205,#1205,#1215,.T.);
#1215 = CIRCLE('',#1216,2.5);
#1216 = AXIS2_PLACEMENT_3D('',#1217,#1218,#1219);
#1217 = CARTESIAN_POINT('',(0.,-35.,0.));
#1218 = DIRECTION('',(0.,0.,1.));
#1219 = DIRECTION('',(1.,0.,0.));
#1220 = CYLINDRICAL_SURFACE('',#1221,2.5);
#1221 = AXIS2_PLACEMENT_3D('',#1222,#1223,#1224);
#1222 = CARTESIAN_POINT('',(0.,-35.,0.));
#1223 = DIRECTION('',(-0.,-0.,-1.));
#1224 = DIRECTION('',(1.,0.,0.));
#1225 = ADVANCED_FACE('',(#1226),#1245,.F.);
#1226 = FACE_BOUND('',#1227,.F.);
#1227 = EDGE_LOOP('',(#1228,#1236,#1243,#1244));
#1228 = ORIENTED_EDGE('',*,*,#1229,.T.);
#1229 = EDGE_CURVE('',#796,#1230,#1232,.T.);
#1230 = VERTEX_POINT('',#1231);
#1231 = CARTESIAN_POINT('',(67.7,0.,2.));
#1232 = LINE('',#1233,#1234);
#1233 = CARTESIAN_POINT('',(67.7,0.,3.5));
#1234 = VECTOR('',#1235,1.);
#1235 = DIRECTION('',(-0.,-0.,-1.));
#1236 = ORIENTED_EDGE('',*,*,#1237,.T.);
#1237 = EDGE_CURVE('',#1230,#1230,#1238,.T.);
#1238 = CIRCLE('',#1239,7.5);
#1239 = AXIS2_PLACEMENT_3D('',#1240,#1241,#1242);
#1240 = CARTESIAN_POINT('',(60.2,0.,2.));
#1241 = DIRECTION('',(0.,0.,1.));
#1242 = DIRECTION('',(1.,0.,0.));
#1243 = ORIENTED_EDGE('',*,*,#1229,.F.);
#1244 = ORIENTED_EDGE('',*,*,#795,.F.);
#1245 = CYLINDRICAL_SURFACE('',#1246,7.5);
#1246 = AXIS2_PLACEMENT_3D('',#1247,#1248,#1249);
#1247 = CARTESIAN_POINT('',(60.2,0.,3.5));
#1248 = DIRECTION('',(0.,0.,1.));
#1249 = DIRECTION('',(1.,0.,0.));
#1250 = ADVANCED_FACE('',(#1251),#1270,.F.);
#1251 = FACE_BOUND('',#1252,.T.);
#1252 = EDGE_LOOP('',(#1253,#1261,#1262,#1263));
#1253 = ORIENTED_EDGE('',*,*,#1254,.T.);
#1254 = EDGE_CURVE('',#1255,#807,#1257,.T.);
#1255 = VERTEX_POINT('',#1256);
#1256 = CARTESIAN_POINT('',(2.5,38.25,0.));
#1257 = LINE('',#1258,#1259);
#1258 = CARTESIAN_POINT('',(2.5,38.25,0.));
#1259 = VECTOR('',#1260,1.);
#1260 = DIRECTION('',(0.,0.,1.));
#1261 = ORIENTED_EDGE('',*,*,#806,.T.);
#1262 = ORIENTED_EDGE('',*,*,#1254,.F.);
#1263 = ORIENTED_EDGE('',*,*,#1264,.F.);
#1264 = EDGE_CURVE('',#1255,#1255,#1265,.T.);
#1265 = CIRCLE('',#1266,2.5);
#1266 = AXIS2_PLACEMENT_3D('',#1267,#1268,#1269);
#1267 = CARTESIAN_POINT('',(0.,38.25,0.));
#1268 = DIRECTION('',(0.,0.,1.));
#1269 = DIRECTION('',(1.,0.,0.));
#1270 = CYLINDRICAL_SURFACE('',#1271,2.5);
#1271 = AXIS2_PLACEMENT_3D('',#1272,#1273,#1274);
#1272 = CARTESIAN_POINT('',(0.,38.25,0.));
#1273 = DIRECTION('',(-0.,-0.,-1.));
#1274 = DIRECTION('',(1.,0.,0.));
#1275 = ADVANCED_FACE('',(#1276,#1284,#1295,#1298),#1301,.F.);
#1276 = FACE_BOUND('',#1277,.F.);
#1277 = EDGE_LOOP('',(#1278,#1279,#1280,#1281,#1282,#1283));
#1278 = ORIENTED_EDGE('',*,*,#1074,.T.);
#1279 = ORIENTED_EDGE('',*,*,#1123,.T.);
#1280 = ORIENTED_EDGE('',*,*,#1172,.T.);
#1281 = ORIENTED_EDGE('',*,*,#1190,.F.);
#1282 = ORIENTED_EDGE('',*,*,#1147,.T.);
#1283 = ORIENTED_EDGE('',*,*,#1099,.F.);
#1284 = FACE_BOUND('',#1285,.T.);
#1285 = EDGE_LOOP('',(#1286));
#1286 = ORIENTED_EDGE('',*,*,#1287,.T.);
#1287 = EDGE_CURVE('',#1288,#1288,#1290,.T.);
#1288 = VERTEX_POINT('',#1289);
#1289 = CARTESIAN_POINT('',(63.825,0.,0.));
#1290 = CIRCLE('',#1291,3.625);
#1291 = AXIS2_PLACEMENT_3D('',#1292,#1293,#1294);
#1292 = CARTESIAN_POINT('',(60.2,0.,0.));
#1293 = DIRECTION('',(0.,0.,1.));
#1294 = DIRECTION('',(1.,0.,0.));
#1295 = FACE_BOUND('',#1296,.T.);
#1296 = EDGE_LOOP('',(#1297));
#1297 = ORIENTED_EDGE('',*,*,#1214,.T.);
#1298 = FACE_BOUND('',#1299,.T.);
#1299 = EDGE_LOOP('',(#1300));
#1300 = ORIENTED_EDGE('',*,*,#1264,.T.);
#1301 = PLANE('',#1302);
#1302 = AXIS2_PLACEMENT_3D('',#1303,#1304,#1305);
#1303 = CARTESIAN_POINT('',(23.058593188583,1.160597711275,0.));
#1304 = DIRECTION('',(0.,0.,1.));
#1305 = DIRECTION('',(1.,0.,0.));
#1306 = ADVANCED_FACE('',(#1307,#1310),#1321,.T.);
#1307 = FACE_BOUND('',#1308,.T.);
#1308 = EDGE_LOOP('',(#1309));
#1309 = ORIENTED_EDGE('',*,*,#1237,.T.);
#1310 = FACE_BOUND('',#1311,.T.);
#1311 = EDGE_LOOP('',(#1312));
#1312 = ORIENTED_EDGE('',*,*,#1313,.T.);
#1313 = EDGE_CURVE('',#1314,#1314,#1316,.T.);
#1314 = VERTEX_POINT('',#1315);
#1315 = CARTESIAN_POINT('',(63.825,0.,2.));
#1316 = CIRCLE('',#1317,3.625);
#1317 = AXIS2_PLACEMENT_3D('',#1318,#1319,#1320);
#1318 = CARTESIAN_POINT('',(60.2,0.,2.));
#1319 = DIRECTION('',(0.,0.,-1.));
#1320 = DIRECTION('',(1.,0.,0.));
#1321 = PLANE('',#1322);
#1322 = AXIS2_PLACEMENT_3D('',#1323,#1324,#1325);
#1323 = CARTESIAN_POINT('',(60.2,4.2E-16,2.));
#1324 = DIRECTION('',(0.,0.,1.));
#1325 = DIRECTION('',(1.,0.,0.));
#1326 = ADVANCED_FACE('',(#1327),#1338,.F.);
#1327 = FACE_BOUND('',#1328,.T.);
#1328 = EDGE_LOOP('',(#1329,#1330,#1336,#1337));
#1329 = ORIENTED_EDGE('',*,*,#1287,.F.);
#1330 = ORIENTED_EDGE('',*,*,#1331,.T.);
#1331 = EDGE_CURVE('',#1288,#1314,#1332,.T.);
#1332 = LINE('',#1333,#1334);
#1333 = CARTESIAN_POINT('',(63.825,0.,0.));
#1334 = VECTOR('',#1335,1.);
#1335 = DIRECTION('',(0.,0.,1.));
#1336 = ORIENTED_EDGE('',*,*,#1313,.F.);
#1337 = ORIENTED_EDGE('',*,*,#1331,.F.);
#1338 = CYLINDRICAL_SURFACE('',#1339,3.625);
#1339 = AXIS2_PLACEMENT_3D('',#1340,#1341,#1342);
#1340 = CARTESIAN_POINT('',(60.2,0.,0.));
#1341 = DIRECTION('',(-0.,-0.,-1.));
#1342 = DIRECTION('',(1.,0.,0.));
#1343 = ( GEOMETRIC_REPRESENTATION_CONTEXT(3) 
GLOBAL_UNCERTAINTY_ASSIGNED_CONTEXT((#1347)) 
GLOBAL_UNIT_ASSIGNED_CONTEXT((#1344,#1345,#1346)) REPRESENTATION_CONTEXT
('Context #1','3D Context with UNIT and UNCERTAINTY') );
#1344 = ( LENGTH_UNIT() NAMED_UNIT(*) SI_UNIT(.MILLI.,.METRE.) );
#1345 = ( NAMED_UNIT(*) PLANE_ANGLE_UNIT() SI_UNIT($,.RADIAN.) );
#1346 = ( NAMED_UNIT(*) SI_UNIT($,.STERADIAN.) SOLID_ANGLE_UNIT() );
#1347 = UNCERTAINTY_MEASURE_WITH_UNIT(LENGTH_MEASURE(1.E-05),#1344,
  'distance_accuracy_value','confusion accuracy');
#1348 = PRODUCT_RELATED_PRODUCT_CATEGORY('part',$,(#7));
#1349 = MECHANICAL_DESIGN_GEOMETRIC_PRESENTATION_REPRESENTATION('',(
    #1350),#1343);
#1350 = STYLED_ITEM('color',(#1351),#15);
#1351 = PRESENTATION_STYLE_ASSIGNMENT((#1352,#1358));
#1352 = SURFACE_STYLE_USAGE(.BOTH.,#1353);
#1353 = SURFACE_SIDE_STYLE('',(#1354));
#1354 = SURFACE_STYLE_FILL_AREA(#1355);
#1355 = FILL_AREA_STYLE('',(#1356));
#1356 = FILL_AREA_STYLE_COLOUR('',#1357);
#1357 = COLOUR_RGB('',0.447058818107,0.474509808674,0.501960817233);
#1358 = CURVE_STYLE('',#1359,POSITIVE_LENGTH_MEASURE(0.1),#1360);
#1359 = DRAUGHTING_PRE_DEFINED_CURVE_FONT('continuous');
#1360 = COLOUR_RGB('',9.803921802644E-02,9.803921802644E-02,
  9.803921802644E-02);
ENDSEC;
END-ISO-10303-21;
