ISO-10303-21;
HEADER;
FILE_DESCRIPTION(('FreeCAD Model'),'2;1');
FILE_NAME('Open CASCADE Shape Model','2026-09-01T22:25:15',('Author'),(
    ''),'Open CASCADE STEP processor 7.9','FreeCAD','Unknown');
FILE_SCHEMA(('AUTOMOTIVE_DESIGN { 1 0 10303 214 1 1 1 1 }'));
ENDSEC;
DATA;
#1 = APPLICATION_PROTOCOL_DEFINITION('international standard',
  'automotive_design',2000,#2);
#2 = APPLICATION_CONTEXT(
  'core data for automotive mechanical design processes');
#3 = SHAPE_DEFINITION_REPRESENTATION(#4,#10);
#4 = PRODUCT_DEFINITION_SHAPE('','',#5);
#5 = PRODUCT_DEFINITION('design','',#6,#9);
#6 = PRODUCT_DEFINITION_FORMATION('','',#7);
#7 = PRODUCT('Body011','Body011','',(#8));
#8 = PRODUCT_CONTEXT('',#2,'mechanical');
#9 = PRODUCT_DEFINITION_CONTEXT('part definition',#2,'design');
#10 = ADVANCED_BREP_SHAPE_REPRESENTATION('',(#11,#15),#408);
#11 = AXIS2_PLACEMENT_3D('',#12,#13,#14);
#12 = CARTESIAN_POINT('',(0.,0.,0.));
#13 = DIRECTION('',(0.,0.,1.));
#14 = DIRECTION('',(1.,0.,-0.));
#15 = MANIFOLD_SOLID_BREP('',#16);
#16 = CLOSED_SHELL('',(#17,#50,#75,#101,#110,#130,#155,#191,#250,#281,
    #305,#329,#353,#377,#394));
#17 = ADVANCED_FACE('',(#18),#45,.T.);
#18 = FACE_BOUND('',#19,.F.);
#19 = EDGE_LOOP('',(#20,#30,#37,#38));
#20 = ORIENTED_EDGE('',*,*,#21,.T.);
#21 = EDGE_CURVE('',#22,#24,#26,.T.);
#22 = VERTEX_POINT('',#23);
#23 = CARTESIAN_POINT('',(1.5,0.,0.5));
#24 = VERTEX_POINT('',#25);
#25 = CARTESIAN_POINT('',(1.5,0.,29.9));
#26 = LINE('',#27,#28);
#27 = CARTESIAN_POINT('',(1.5,0.,0.));
#28 = VECTOR('',#29,1.);
#29 = DIRECTION('',(0.,0.,1.));
#30 = ORIENTED_EDGE('',*,*,#31,.T.);
#31 = EDGE_CURVE('',#24,#24,#32,.T.);
#32 = CIRCLE('',#33,1.5);
#33 = AXIS2_PLACEMENT_3D('',#34,#35,#36);
#34 = CARTESIAN_POINT('',(0.,0.,29.9));
#35 = DIRECTION('',(0.,0.,1.));
#36 = DIRECTION('',(1.,0.,0.));
#37 = ORIENTED_EDGE('',*,*,#21,.F.);
#38 = ORIENTED_EDGE('',*,*,#39,.F.);
#39 = EDGE_CURVE('',#22,#22,#40,.T.);
#40 = CIRCLE('',#41,1.5);
#41 = AXIS2_PLACEMENT_3D('',#42,#43,#44);
#42 = CARTESIAN_POINT('',(0.,0.,0.5));
#43 = DIRECTION('',(0.,0.,1.));
#44 = DIRECTION('',(1.,0.,-0.));
#45 = CYLINDRICAL_SURFACE('',#46,1.5);
#46 = AXIS2_PLACEMENT_3D('',#47,#48,#49);
#47 = CARTESIAN_POINT('',(0.,0.,0.));
#48 = DIRECTION('',(-0.,-0.,-1.));
#49 = DIRECTION('',(1.,0.,0.));
#50 = ADVANCED_FACE('',(#51),#70,.T.);
#51 = FACE_BOUND('',#52,.F.);
#52 = EDGE_LOOP('',(#53,#61,#62,#63));
#53 = ORIENTED_EDGE('',*,*,#54,.F.);
#54 = EDGE_CURVE('',#22,#55,#57,.T.);
#55 = VERTEX_POINT('',#56);
#56 = CARTESIAN_POINT('',(1.,0.,0.));
#57 = LINE('',#58,#59);
#58 = CARTESIAN_POINT('',(1.5,0.,0.5));
#59 = VECTOR('',#60,1.);
#60 = DIRECTION('',(-0.707106781187,-0.,-0.707106781187));
#61 = ORIENTED_EDGE('',*,*,#39,.T.);
#62 = ORIENTED_EDGE('',*,*,#54,.T.);
#63 = ORIENTED_EDGE('',*,*,#64,.F.);
#64 = EDGE_CURVE('',#55,#55,#65,.T.);
#65 = CIRCLE('',#66,1.);
#66 = AXIS2_PLACEMENT_3D('',#67,#68,#69);
#67 = CARTESIAN_POINT('',(0.,0.,0.));
#68 = DIRECTION('',(0.,0.,1.));
#69 = DIRECTION('',(1.,0.,-0.));
#70 = CONICAL_SURFACE('',#71,1.5,0.785398163397);
#71 = AXIS2_PLACEMENT_3D('',#72,#73,#74);
#72 = CARTESIAN_POINT('',(0.,0.,0.5));
#73 = DIRECTION('',(0.,0.,1.));
#74 = DIRECTION('',(1.,0.,0.));
#75 = ADVANCED_FACE('',(#76),#96,.F.);
#76 = FACE_BOUND('',#77,.F.);
#77 = EDGE_LOOP('',(#78,#87,#94,#95));
#78 = ORIENTED_EDGE('',*,*,#79,.F.);
#79 = EDGE_CURVE('',#80,#24,#82,.T.);
#80 = VERTEX_POINT('',#81);
#81 = CARTESIAN_POINT('',(1.6,0.,30.));
#82 = CIRCLE('',#83,0.1);
#83 = AXIS2_PLACEMENT_3D('',#84,#85,#86);
#84 = CARTESIAN_POINT('',(1.6,0.,29.9));
#85 = DIRECTION('',(0.,-1.,0.));
#86 = DIRECTION('',(1.,0.,0.));
#87 = ORIENTED_EDGE('',*,*,#88,.T.);
#88 = EDGE_CURVE('',#80,#80,#89,.T.);
#89 = CIRCLE('',#90,1.6);
#90 = AXIS2_PLACEMENT_3D('',#91,#92,#93);
#91 = CARTESIAN_POINT('',(0.,0.,30.));
#92 = DIRECTION('',(0.,0.,1.));
#93 = DIRECTION('',(1.,0.,0.));
#94 = ORIENTED_EDGE('',*,*,#79,.T.);
#95 = ORIENTED_EDGE('',*,*,#31,.F.);
#96 = TOROIDAL_SURFACE('',#97,1.6,0.1);
#97 = AXIS2_PLACEMENT_3D('',#98,#99,#100);
#98 = CARTESIAN_POINT('',(0.,0.,29.9));
#99 = DIRECTION('',(0.,0.,1.));
#100 = DIRECTION('',(1.,0.,0.));
#101 = ADVANCED_FACE('',(#102),#105,.F.);
#102 = FACE_BOUND('',#103,.F.);
#103 = EDGE_LOOP('',(#104));
#104 = ORIENTED_EDGE('',*,*,#64,.T.);
#105 = PLANE('',#106);
#106 = AXIS2_PLACEMENT_3D('',#107,#108,#109);
#107 = CARTESIAN_POINT('',(-1.1E-16,0.,0.));
#108 = DIRECTION('',(0.,0.,1.));
#109 = DIRECTION('',(1.,0.,0.));
#110 = ADVANCED_FACE('',(#111,#114),#125,.F.);
#111 = FACE_BOUND('',#112,.F.);
#112 = EDGE_LOOP('',(#113));
#113 = ORIENTED_EDGE('',*,*,#88,.F.);
#114 = FACE_BOUND('',#115,.F.);
#115 = EDGE_LOOP('',(#116));
#116 = ORIENTED_EDGE('',*,*,#117,.T.);
#117 = EDGE_CURVE('',#118,#118,#120,.T.);
#118 = VERTEX_POINT('',#119);
#119 = CARTESIAN_POINT('',(2.85,0.,30.));
#120 = CIRCLE('',#121,2.85);
#121 = AXIS2_PLACEMENT_3D('',#122,#123,#124);
#122 = CARTESIAN_POINT('',(0.,0.,30.));
#123 = DIRECTION('',(0.,0.,1.));
#124 = DIRECTION('',(1.,0.,0.));
#125 = PLANE('',#126);
#126 = AXIS2_PLACEMENT_3D('',#127,#128,#129);
#127 = CARTESIAN_POINT('',(-1.8E-16,2.4E-16,30.));
#128 = DIRECTION('',(0.,0.,1.));
#129 = DIRECTION('',(1.,0.,0.));
#130 = ADVANCED_FACE('',(#131),#150,.T.);
#131 = FACE_BOUND('',#132,.F.);
#132 = EDGE_LOOP('',(#133,#141,#148,#149));
#133 = ORIENTED_EDGE('',*,*,#134,.T.);
#134 = EDGE_CURVE('',#118,#135,#137,.T.);
#135 = VERTEX_POINT('',#136);
#136 = CARTESIAN_POINT('',(2.85,0.,30.05));
#137 = LINE('',#138,#139);
#138 = CARTESIAN_POINT('',(2.85,0.,30.));
#139 = VECTOR('',#140,1.);
#140 = DIRECTION('',(0.,0.,1.));
#141 = ORIENTED_EDGE('',*,*,#142,.T.);
#142 = EDGE_CURVE('',#135,#135,#143,.T.);
#143 = CIRCLE('',#144,2.85);
#144 = AXIS2_PLACEMENT_3D('',#145,#146,#147);
#145 = CARTESIAN_POINT('',(0.,0.,30.05));
#146 = DIRECTION('',(0.,0.,1.));
#147 = DIRECTION('',(1.,0.,0.));
#148 = ORIENTED_EDGE('',*,*,#134,.F.);
#149 = ORIENTED_EDGE('',*,*,#117,.F.);
#150 = CYLINDRICAL_SURFACE('',#151,2.85);
#151 = AXIS2_PLACEMENT_3D('',#152,#153,#154);
#152 = CARTESIAN_POINT('',(0.,0.,30.));
#153 = DIRECTION('',(-0.,-0.,-1.));
#154 = DIRECTION('',(1.,0.,0.));
#155 = ADVANCED_FACE('',(#156),#176,.T.);
#156 = FACE_BOUND('',#157,.T.);
#157 = EDGE_LOOP('',(#158,#167,#168,#169));
#158 = ORIENTED_EDGE('',*,*,#159,.F.);
#159 = EDGE_CURVE('',#135,#160,#162,.T.);
#160 = VERTEX_POINT('',#161);
#161 = CARTESIAN_POINT('',(1.25,0.,31.65));
#162 = CIRCLE('',#163,1.6);
#163 = AXIS2_PLACEMENT_3D('',#164,#165,#166);
#164 = CARTESIAN_POINT('',(1.25,0.,30.05));
#165 = DIRECTION('',(0.,-1.,0.));
#166 = DIRECTION('',(1.,0.,0.));
#167 = ORIENTED_EDGE('',*,*,#142,.T.);
#168 = ORIENTED_EDGE('',*,*,#159,.T.);
#169 = ORIENTED_EDGE('',*,*,#170,.F.);
#170 = EDGE_CURVE('',#160,#160,#171,.T.);
#171 = CIRCLE('',#172,1.25);
#172 = AXIS2_PLACEMENT_3D('',#173,#174,#175);
#173 = CARTESIAN_POINT('',(0.,0.,31.65));
#174 = DIRECTION('',(0.,0.,1.));
#175 = DIRECTION('',(1.,0.,0.));
#176 = SURFACE_OF_REVOLUTION('',#177,#188);
#177 = B_SPLINE_CURVE_WITH_KNOTS('',5,(#178,#179,#180,#181,#182,#183,
    #184,#185,#186,#187),.UNSPECIFIED.,.F.,.F.,(6,4,6),(0.,
    0.785398163397,1.570796326795),.UNSPECIFIED.);
#178 = CARTESIAN_POINT('',(2.85,0.,30.05));
#179 = CARTESIAN_POINT('',(2.85,0.,30.301327412287));
#180 = CARTESIAN_POINT('',(2.800663051287,0.,30.552658806371));
#181 = CARTESIAN_POINT('',(2.701917809508,0.,30.791050908292));
#182 = CARTESIAN_POINT('',(2.559086167425,0.,31.003655532372));
#183 = CARTESIAN_POINT('',(2.203655532372,0.,31.359086167425));
#184 = CARTESIAN_POINT('',(1.991050908292,0.,31.501917809508));
#185 = CARTESIAN_POINT('',(1.752658806371,0.,31.600663051287));
#186 = CARTESIAN_POINT('',(1.501327412287,0.,31.65));
#187 = CARTESIAN_POINT('',(1.25,0.,31.65));
#188 = AXIS1_PLACEMENT('',#189,#190);
#189 = CARTESIAN_POINT('',(0.,0.,30.05));
#190 = DIRECTION('',(0.,0.,1.));
#191 = ADVANCED_FACE('',(#192,#195),#245,.T.);
#192 = FACE_BOUND('',#193,.T.);
#193 = EDGE_LOOP('',(#194));
#194 = ORIENTED_EDGE('',*,*,#170,.T.);
#195 = FACE_BOUND('',#196,.T.);
#196 = EDGE_LOOP('',(#197,#207,#215,#223,#231,#239));
#197 = ORIENTED_EDGE('',*,*,#198,.F.);
#198 = EDGE_CURVE('',#199,#201,#203,.T.);
#199 = VERTEX_POINT('',#200);
#200 = CARTESIAN_POINT('',(0.,1.183568051839,31.65));
#201 = VERTEX_POINT('',#202);
#202 = CARTESIAN_POINT('',(-1.025,0.591784025919,31.65));
#203 = LINE('',#204,#205);
#204 = CARTESIAN_POINT('',(0.,1.183568051839,31.65));
#205 = VECTOR('',#206,1.);
#206 = DIRECTION('',(-0.866025403784,-0.5,0.));
#207 = ORIENTED_EDGE('',*,*,#208,.F.);
#208 = EDGE_CURVE('',#209,#199,#211,.T.);
#209 = VERTEX_POINT('',#210);
#210 = CARTESIAN_POINT('',(1.025,0.591784025919,31.65));
#211 = LINE('',#212,#213);
#212 = CARTESIAN_POINT('',(1.025,0.591784025919,31.65));
#213 = VECTOR('',#214,1.);
#214 = DIRECTION('',(-0.866025403784,0.5,0.));
#215 = ORIENTED_EDGE('',*,*,#216,.F.);
#216 = EDGE_CURVE('',#217,#209,#219,.T.);
#217 = VERTEX_POINT('',#218);
#218 = CARTESIAN_POINT('',(1.025,-0.591784025919,31.65));
#219 = LINE('',#220,#221);
#220 = CARTESIAN_POINT('',(1.025,-0.591784025919,31.65));
#221 = VECTOR('',#222,1.);
#222 = DIRECTION('',(0.,1.,0.));
#223 = ORIENTED_EDGE('',*,*,#224,.F.);
#224 = EDGE_CURVE('',#225,#217,#227,.T.);
#225 = VERTEX_POINT('',#226);
#226 = CARTESIAN_POINT('',(0.,-1.183568051839,31.65));
#227 = LINE('',#228,#229);
#228 = CARTESIAN_POINT('',(0.,-1.183568051839,31.65));
#229 = VECTOR('',#230,1.);
#230 = DIRECTION('',(0.866025403784,0.5,0.));
#231 = ORIENTED_EDGE('',*,*,#232,.F.);
#232 = EDGE_CURVE('',#233,#225,#235,.T.);
#233 = VERTEX_POINT('',#234);
#234 = CARTESIAN_POINT('',(-1.025,-0.591784025919,31.65));
#235 = LINE('',#236,#237);
#236 = CARTESIAN_POINT('',(-1.025,-0.591784025919,31.65));
#237 = VECTOR('',#238,1.);
#238 = DIRECTION('',(0.866025403784,-0.5,0.));
#239 = ORIENTED_EDGE('',*,*,#240,.F.);
#240 = EDGE_CURVE('',#201,#233,#241,.T.);
#241 = LINE('',#242,#243);
#242 = CARTESIAN_POINT('',(-1.025,0.591784025919,31.65));
#243 = VECTOR('',#244,1.);
#244 = DIRECTION('',(0.,-1.,0.));
#245 = PLANE('',#246);
#246 = AXIS2_PLACEMENT_3D('',#247,#248,#249);
#247 = CARTESIAN_POINT('',(-1.8E-16,2.4E-16,31.65));
#248 = DIRECTION('',(0.,0.,1.));
#249 = DIRECTION('',(1.,0.,0.));
#250 = ADVANCED_FACE('',(#251),#276,.F.);
#251 = FACE_BOUND('',#252,.F.);
#252 = EDGE_LOOP('',(#253,#261,#269,#275));
#253 = ORIENTED_EDGE('',*,*,#254,.T.);
#254 = EDGE_CURVE('',#199,#255,#257,.T.);
#255 = VERTEX_POINT('',#256);
#256 = CARTESIAN_POINT('',(0.,1.183568051839,30.15));
#257 = LINE('',#258,#259);
#258 = CARTESIAN_POINT('',(0.,1.183568051839,31.65));
#259 = VECTOR('',#260,1.);
#260 = DIRECTION('',(-0.,-0.,-1.));
#261 = ORIENTED_EDGE('',*,*,#262,.T.);
#262 = EDGE_CURVE('',#255,#263,#265,.T.);
#263 = VERTEX_POINT('',#264);
#264 = CARTESIAN_POINT('',(-1.025,0.591784025919,30.15));
#265 = LINE('',#266,#267);
#266 = CARTESIAN_POINT('',(0.,1.183568051839,30.15));
#267 = VECTOR('',#268,1.);
#268 = DIRECTION('',(-0.866025403784,-0.5,0.));
#269 = ORIENTED_EDGE('',*,*,#270,.F.);
#270 = EDGE_CURVE('',#201,#263,#271,.T.);
#271 = LINE('',#272,#273);
#272 = CARTESIAN_POINT('',(-1.025,0.591784025919,31.65));
#273 = VECTOR('',#274,1.);
#274 = DIRECTION('',(-0.,-0.,-1.));
#275 = ORIENTED_EDGE('',*,*,#198,.F.);
#276 = PLANE('',#277);
#277 = AXIS2_PLACEMENT_3D('',#278,#279,#280);
#278 = CARTESIAN_POINT('',(0.,1.183568051839,31.65));
#279 = DIRECTION('',(-0.5,0.866025403784,0.));
#280 = DIRECTION('',(-0.866025403784,-0.5,0.));
#281 = ADVANCED_FACE('',(#282),#300,.F.);
#282 = FACE_BOUND('',#283,.F.);
#283 = EDGE_LOOP('',(#284,#285,#293,#299));
#284 = ORIENTED_EDGE('',*,*,#270,.T.);
#285 = ORIENTED_EDGE('',*,*,#286,.T.);
#286 = EDGE_CURVE('',#263,#287,#289,.T.);
#287 = VERTEX_POINT('',#288);
#288 = CARTESIAN_POINT('',(-1.025,-0.591784025919,30.15));
#289 = LINE('',#290,#291);
#290 = CARTESIAN_POINT('',(-1.025,0.591784025919,30.15));
#291 = VECTOR('',#292,1.);
#292 = DIRECTION('',(0.,-1.,0.));
#293 = ORIENTED_EDGE('',*,*,#294,.F.);
#294 = EDGE_CURVE('',#233,#287,#295,.T.);
#295 = LINE('',#296,#297);
#296 = CARTESIAN_POINT('',(-1.025,-0.591784025919,31.65));
#297 = VECTOR('',#298,1.);
#298 = DIRECTION('',(-0.,-0.,-1.));
#299 = ORIENTED_EDGE('',*,*,#240,.F.);
#300 = PLANE('',#301);
#301 = AXIS2_PLACEMENT_3D('',#302,#303,#304);
#302 = CARTESIAN_POINT('',(-1.025,0.591784025919,31.65));
#303 = DIRECTION('',(-1.,0.,0.));
#304 = DIRECTION('',(0.,-1.,0.));
#305 = ADVANCED_FACE('',(#306),#324,.F.);
#306 = FACE_BOUND('',#307,.F.);
#307 = EDGE_LOOP('',(#308,#309,#317,#323));
#308 = ORIENTED_EDGE('',*,*,#294,.T.);
#309 = ORIENTED_EDGE('',*,*,#310,.T.);
#310 = EDGE_CURVE('',#287,#311,#313,.T.);
#311 = VERTEX_POINT('',#312);
#312 = CARTESIAN_POINT('',(0.,-1.183568051839,30.15));
#313 = LINE('',#314,#315);
#314 = CARTESIAN_POINT('',(-1.025,-0.591784025919,30.15));
#315 = VECTOR('',#316,1.);
#316 = DIRECTION('',(0.866025403784,-0.5,0.));
#317 = ORIENTED_EDGE('',*,*,#318,.F.);
#318 = EDGE_CURVE('',#225,#311,#319,.T.);
#319 = LINE('',#320,#321);
#320 = CARTESIAN_POINT('',(0.,-1.183568051839,31.65));
#321 = VECTOR('',#322,1.);
#322 = DIRECTION('',(-0.,-0.,-1.));
#323 = ORIENTED_EDGE('',*,*,#232,.F.);
#324 = PLANE('',#325);
#325 = AXIS2_PLACEMENT_3D('',#326,#327,#328);
#326 = CARTESIAN_POINT('',(-1.025,-0.591784025919,31.65));
#327 = DIRECTION('',(-0.5,-0.866025403784,0.));
#328 = DIRECTION('',(0.866025403784,-0.5,0.));
#329 = ADVANCED_FACE('',(#330),#348,.F.);
#330 = FACE_BOUND('',#331,.F.);
#331 = EDGE_LOOP('',(#332,#333,#341,#347));
#332 = ORIENTED_EDGE('',*,*,#318,.T.);
#333 = ORIENTED_EDGE('',*,*,#334,.T.);
#334 = EDGE_CURVE('',#311,#335,#337,.T.);
#335 = VERTEX_POINT('',#336);
#336 = CARTESIAN_POINT('',(1.025,-0.591784025919,30.15));
#337 = LINE('',#338,#339);
#338 = CARTESIAN_POINT('',(0.,-1.183568051839,30.15));
#339 = VECTOR('',#340,1.);
#340 = DIRECTION('',(0.866025403784,0.5,0.));
#341 = ORIENTED_EDGE('',*,*,#342,.F.);
#342 = EDGE_CURVE('',#217,#335,#343,.T.);
#343 = LINE('',#344,#345);
#344 = CARTESIAN_POINT('',(1.025,-0.591784025919,31.65));
#345 = VECTOR('',#346,1.);
#346 = DIRECTION('',(-0.,-0.,-1.));
#347 = ORIENTED_EDGE('',*,*,#224,.F.);
#348 = PLANE('',#349);
#349 = AXIS2_PLACEMENT_3D('',#350,#351,#352);
#350 = CARTESIAN_POINT('',(0.,-1.183568051839,31.65));
#351 = DIRECTION('',(0.5,-0.866025403784,0.));
#352 = DIRECTION('',(0.866025403784,0.5,0.));
#353 = ADVANCED_FACE('',(#354),#372,.F.);
#354 = FACE_BOUND('',#355,.F.);
#355 = EDGE_LOOP('',(#356,#357,#365,#371));
#356 = ORIENTED_EDGE('',*,*,#342,.T.);
#357 = ORIENTED_EDGE('',*,*,#358,.T.);
#358 = EDGE_CURVE('',#335,#359,#361,.T.);
#359 = VERTEX_POINT('',#360);
#360 = CARTESIAN_POINT('',(1.025,0.591784025919,30.15));
#361 = LINE('',#362,#363);
#362 = CARTESIAN_POINT('',(1.025,-0.591784025919,30.15));
#363 = VECTOR('',#364,1.);
#364 = DIRECTION('',(0.,1.,0.));
#365 = ORIENTED_EDGE('',*,*,#366,.F.);
#366 = EDGE_CURVE('',#209,#359,#367,.T.);
#367 = LINE('',#368,#369);
#368 = CARTESIAN_POINT('',(1.025,0.591784025919,31.65));
#369 = VECTOR('',#370,1.);
#370 = DIRECTION('',(-0.,-0.,-1.));
#371 = ORIENTED_EDGE('',*,*,#216,.F.);
#372 = PLANE('',#373);
#373 = AXIS2_PLACEMENT_3D('',#374,#375,#376);
#374 = CARTESIAN_POINT('',(1.025,-0.591784025919,31.65));
#375 = DIRECTION('',(1.,0.,0.));
#376 = DIRECTION('',(0.,1.,0.));
#377 = ADVANCED_FACE('',(#378),#389,.F.);
#378 = FACE_BOUND('',#379,.F.);
#379 = EDGE_LOOP('',(#380,#381,#387,#388));
#380 = ORIENTED_EDGE('',*,*,#366,.T.);
#381 = ORIENTED_EDGE('',*,*,#382,.T.);
#382 = EDGE_CURVE('',#359,#255,#383,.T.);
#383 = LINE('',#384,#385);
#384 = CARTESIAN_POINT('',(1.025,0.591784025919,30.15));
#385 = VECTOR('',#386,1.);
#386 = DIRECTION('',(-0.866025403784,0.5,0.));
#387 = ORIENTED_EDGE('',*,*,#254,.F.);
#388 = ORIENTED_EDGE('',*,*,#208,.F.);
#389 = PLANE('',#390);
#390 = AXIS2_PLACEMENT_3D('',#391,#392,#393);
#391 = CARTESIAN_POINT('',(1.025,0.591784025919,31.65));
#392 = DIRECTION('',(0.5,0.866025403784,0.));
#393 = DIRECTION('',(-0.866025403784,0.5,0.));
#394 = ADVANCED_FACE('',(#395),#403,.T.);
#395 = FACE_BOUND('',#396,.T.);
#396 = EDGE_LOOP('',(#397,#398,#399,#400,#401,#402));
#397 = ORIENTED_EDGE('',*,*,#262,.T.);
#398 = ORIENTED_EDGE('',*,*,#286,.T.);
#399 = ORIENTED_EDGE('',*,*,#310,.T.);
#400 = ORIENTED_EDGE('',*,*,#334,.T.);
#401 = ORIENTED_EDGE('',*,*,#358,.T.);
#402 = ORIENTED_EDGE('',*,*,#382,.T.);
#403 = PLANE('',#404);
#404 = AXIS2_PLACEMENT_3D('',#405,#406,#407);
#405 = CARTESIAN_POINT('',(2.E-17,-2.E-17,30.15));
#406 = DIRECTION('',(0.,0.,1.));
#407 = DIRECTION('',(1.,0.,0.));
#408 = ( GEOMETRIC_REPRESENTATION_CONTEXT(3) 
GLOBAL_UNCERTAINTY_ASSIGNED_CONTEXT((#412)) GLOBAL_UNIT_ASSIGNED_CONTEXT
((#409,#410,#411)) REPRESENTATION_CONTEXT('Context #1',
  '3D Context with UNIT and UNCERTAINTY') );
#409 = ( LENGTH_UNIT() NAMED_UNIT(*) SI_UNIT(.MILLI.,.METRE.) );
#410 = ( NAMED_UNIT(*) PLANE_ANGLE_UNIT() SI_UNIT($,.RADIAN.) );
#411 = ( NAMED_UNIT(*) SI_UNIT($,.STERADIAN.) SOLID_ANGLE_UNIT() );
#412 = UNCERTAINTY_MEASURE_WITH_UNIT(LENGTH_MEASURE(1.E-07),#409,
  'distance_accuracy_value','confusion accuracy');
#413 = PRODUCT_RELATED_PRODUCT_CATEGORY('part',$,(#7));
#414 = MECHANICAL_DESIGN_GEOMETRIC_PRESENTATION_REPRESENTATION('',(#415)
  ,#408);
#415 = STYLED_ITEM('color',(#416),#15);
#416 = PRESENTATION_STYLE_ASSIGNMENT((#417,#423));
#417 = SURFACE_STYLE_USAGE(.BOTH.,#418);
#418 = SURFACE_SIDE_STYLE('',(#419));
#419 = SURFACE_STYLE_FILL_AREA(#420);
#420 = FILL_AREA_STYLE('',(#421));
#421 = FILL_AREA_STYLE_COLOUR('',#422);
#422 = COLOUR_RGB('',0.447058818107,0.474509808674,0.501960817233);
#423 = CURVE_STYLE('',#424,POSITIVE_LENGTH_MEASURE(0.1),#425);
#424 = DRAUGHTING_PRE_DEFINED_CURVE_FONT('continuous');
#425 = COLOUR_RGB('',9.803921802644E-02,9.803921802644E-02,
  9.803921802644E-02);
ENDSEC;
END-ISO-10303-21;
