ISO-10303-21;
HEADER;
FILE_DESCRIPTION(('FreeCAD Model'),'2;1');
FILE_NAME('Open CASCADE Shape Model','2026-08-31T06:05:09',('Author'),(
    ''),'Open CASCADE STEP processor 7.9','FreeCAD','Unknown');
FILE_SCHEMA(('AUTOMOTIVE_DESIGN { 1 0 10303 214 1 1 1 1 }'));
ENDSEC;
DATA;
#1 = APPLICATION_PROTOCOL_DEFINITION('international standard',
  'automotive_design',2000,#2);
#2 = APPLICATION_CONTEXT(
  'core data for automotive mechanical design processes');
#3 = SHAPE_DEFINITION_REPRESENTATION(#4,#10);
#4 = PRODUCT_DEFINITION_SHAPE('','',#5);
#5 = PRODUCT_DEFINITION('design','',#6,#9);
#6 = PRODUCT_DEFINITION_FORMATION('','',#7);
#7 = PRODUCT('Hot bed_Standard','Hot bed_Standard','',(#8));
#8 = PRODUCT_CONTEXT('',#2,'mechanical');
#9 = PRODUCT_DEFINITION_CONTEXT('part definition',#2,'design');
#10 = ADVANCED_BREP_SHAPE_REPRESENTATION('',(#11,#15),#973);
#11 = AXIS2_PLACEMENT_3D('',#12,#13,#14);
#12 = CARTESIAN_POINT('',(0.,0.,0.));
#13 = DIRECTION('',(0.,0.,1.));
#14 = DIRECTION('',(1.,0.,-0.));
#15 = MANIFOLD_SOLID_BREP('',#16);
#16 = CLOSED_SHELL('',(#17,#59,#110,#161,#203,#235,#276,#317,#349,#465,
    #496,#521,#545,#570,#594,#619,#675,#693,#711,#730,#749,#767,#846,
    #877,#889,#902,#915,#927,#949,#961));
#17 = ADVANCED_FACE('',(#18),#54,.F.);
#18 = FACE_BOUND('',#19,.F.);
#19 = EDGE_LOOP('',(#20,#30,#39,#47));
#20 = ORIENTED_EDGE('',*,*,#21,.T.);
#21 = EDGE_CURVE('',#22,#24,#26,.T.);
#22 = VERTEX_POINT('',#23);
#23 = CARTESIAN_POINT('',(-82.90000000005,85.,0.200000000007));
#24 = VERTEX_POINT('',#25);
#25 = CARTESIAN_POINT('',(-80.09999999997,85.,3.000000000022));
#26 = LINE('',#27,#28);
#27 = CARTESIAN_POINT('',(-80.10000000001,85.,2.999999999986));
#28 = VECTOR('',#29,1.);
#29 = DIRECTION('',(0.707106781194,0.,0.707106781179));
#30 = ORIENTED_EDGE('',*,*,#31,.F.);
#31 = EDGE_CURVE('',#32,#24,#34,.T.);
#32 = VERTEX_POINT('',#33);
#33 = CARTESIAN_POINT('',(-89.90000000002,85.,3.000000000022));
#34 = CIRCLE('',#35,4.900000000021);
#35 = AXIS2_PLACEMENT_3D('',#36,#37,#38);
#36 = CARTESIAN_POINT('',(-85.,85.,3.000000000022));
#37 = DIRECTION('',(0.,-0.,1.));
#38 = DIRECTION('',(1.,0.,0.));
#39 = ORIENTED_EDGE('',*,*,#40,.F.);
#40 = EDGE_CURVE('',#41,#32,#43,.T.);
#41 = VERTEX_POINT('',#42);
#42 = CARTESIAN_POINT('',(-87.09999999994,85.,0.200000000007));
#43 = LINE('',#44,#45);
#44 = CARTESIAN_POINT('',(-89.89999999998,85.,2.999999999986));
#45 = VECTOR('',#46,1.);
#46 = DIRECTION('',(-0.707106781194,9.E-17,0.707106781179));
#47 = ORIENTED_EDGE('',*,*,#48,.T.);
#48 = EDGE_CURVE('',#41,#22,#49,.T.);
#49 = CIRCLE('',#50,2.099999999948);
#50 = AXIS2_PLACEMENT_3D('',#51,#52,#53);
#51 = CARTESIAN_POINT('',(-85.,85.,0.200000000007));
#52 = DIRECTION('',(0.,0.,1.));
#53 = DIRECTION('',(1.,0.,-0.));
#54 = CONICAL_SURFACE('',#55,4.899999999984,0.785398163408);
#55 = AXIS2_PLACEMENT_3D('',#56,#57,#58);
#56 = CARTESIAN_POINT('',(-85.,85.,2.999999999986));
#57 = DIRECTION('',(0.,-0.,1.));
#58 = DIRECTION('',(1.,0.,0.));
#59 = ADVANCED_FACE('',(#60),#105,.F.);
#60 = FACE_BOUND('',#61,.F.);
#61 = EDGE_LOOP('',(#62,#73,#81,#90,#98));
#62 = ORIENTED_EDGE('',*,*,#63,.T.);
#63 = EDGE_CURVE('',#64,#66,#68,.T.);
#64 = VERTEX_POINT('',#65);
#65 = CARTESIAN_POINT('',(82.900000000036,85.,0.200000000007));
#66 = VERTEX_POINT('',#67);
#67 = CARTESIAN_POINT('',(85.,82.900000000036,0.200000000007));
#68 = CIRCLE('',#69,2.099999999964);
#69 = AXIS2_PLACEMENT_3D('',#70,#71,#72);
#70 = CARTESIAN_POINT('',(85.,85.,0.200000000007));
#71 = DIRECTION('',(0.,0.,1.));
#72 = DIRECTION('',(1.,0.,-0.));
#73 = ORIENTED_EDGE('',*,*,#74,.T.);
#74 = EDGE_CURVE('',#66,#75,#77,.T.);
#75 = VERTEX_POINT('',#76);
#76 = CARTESIAN_POINT('',(85.,80.1,2.999999999986));
#77 = LINE('',#78,#79);
#78 = CARTESIAN_POINT('',(85.,80.100000000114,2.999999999872));
#79 = VECTOR('',#80,1.);
#80 = DIRECTION('',(0.,-0.707106781187,0.707106781187));
#81 = ORIENTED_EDGE('',*,*,#82,.F.);
#82 = EDGE_CURVE('',#83,#75,#85,.T.);
#83 = VERTEX_POINT('',#84);
#84 = CARTESIAN_POINT('',(85.,89.9,2.999999999986));
#85 = CIRCLE('',#86,4.9);
#86 = AXIS2_PLACEMENT_3D('',#87,#88,#89);
#87 = CARTESIAN_POINT('',(85.,85.,2.999999999986));
#88 = DIRECTION('',(0.,4.E-17,1.));
#89 = DIRECTION('',(0.,-1.,4.E-17));
#90 = ORIENTED_EDGE('',*,*,#91,.F.);
#91 = EDGE_CURVE('',#92,#83,#94,.T.);
#92 = VERTEX_POINT('',#93);
#93 = CARTESIAN_POINT('',(85.,87.099999999964,0.200000000007));
#94 = LINE('',#95,#96);
#95 = CARTESIAN_POINT('',(85.,89.899999999886,2.999999999872));
#96 = VECTOR('',#97,1.);
#97 = DIRECTION('',(9.E-17,0.707106781187,0.707106781187));
#98 = ORIENTED_EDGE('',*,*,#99,.T.);
#99 = EDGE_CURVE('',#92,#64,#100,.T.);
#100 = CIRCLE('',#101,2.099999999964);
#101 = AXIS2_PLACEMENT_3D('',#102,#103,#104);
#102 = CARTESIAN_POINT('',(85.,85.,0.200000000007));
#103 = DIRECTION('',(0.,0.,1.));
#104 = DIRECTION('',(1.,0.,-0.));
#105 = CONICAL_SURFACE('',#106,4.899999999886,0.785398163397);
#106 = AXIS2_PLACEMENT_3D('',#107,#108,#109);
#107 = CARTESIAN_POINT('',(85.,85.,2.999999999872));
#108 = DIRECTION('',(0.,4.E-17,1.));
#109 = DIRECTION('',(0.,-1.,4.E-17));
#110 = ADVANCED_FACE('',(#111),#156,.F.);
#111 = FACE_BOUND('',#112,.F.);
#112 = EDGE_LOOP('',(#113,#124,#132,#141,#149));
#113 = ORIENTED_EDGE('',*,*,#114,.T.);
#114 = EDGE_CURVE('',#115,#117,#119,.T.);
#115 = VERTEX_POINT('',#116);
#116 = CARTESIAN_POINT('',(82.900000000036,-85.,0.200000000007));
#117 = VERTEX_POINT('',#118);
#118 = CARTESIAN_POINT('',(85.,-87.09999999996,0.200000000007));
#119 = CIRCLE('',#120,2.099999999964);
#120 = AXIS2_PLACEMENT_3D('',#121,#122,#123);
#121 = CARTESIAN_POINT('',(85.,-85.,0.200000000007));
#122 = DIRECTION('',(0.,0.,1.));
#123 = DIRECTION('',(1.,0.,-0.));
#124 = ORIENTED_EDGE('',*,*,#125,.T.);
#125 = EDGE_CURVE('',#117,#126,#128,.T.);
#126 = VERTEX_POINT('',#127);
#127 = CARTESIAN_POINT('',(85.,-89.9,2.999999999986));
#128 = LINE('',#129,#130);
#129 = CARTESIAN_POINT('',(85.,-89.89999999988,2.999999999872));
#130 = VECTOR('',#131,1.);
#131 = DIRECTION('',(0.,-0.707106781187,0.707106781187));
#132 = ORIENTED_EDGE('',*,*,#133,.F.);
#133 = EDGE_CURVE('',#134,#126,#136,.T.);
#134 = VERTEX_POINT('',#135);
#135 = CARTESIAN_POINT('',(85.,-80.1,2.999999999986));
#136 = CIRCLE('',#137,4.9);
#137 = AXIS2_PLACEMENT_3D('',#138,#139,#140);
#138 = CARTESIAN_POINT('',(85.,-85.,2.999999999986));
#139 = DIRECTION('',(0.,4.E-17,1.));
#140 = DIRECTION('',(0.,-1.,4.E-17));
#141 = ORIENTED_EDGE('',*,*,#142,.F.);
#142 = EDGE_CURVE('',#143,#134,#145,.T.);
#143 = VERTEX_POINT('',#144);
#144 = CARTESIAN_POINT('',(85.,-82.90000000003,0.200000000007));
#145 = LINE('',#146,#147);
#146 = CARTESIAN_POINT('',(85.,-80.10000000011,2.999999999872));
#147 = VECTOR('',#148,1.);
#148 = DIRECTION('',(9.E-17,0.707106781187,0.707106781187));
#149 = ORIENTED_EDGE('',*,*,#150,.T.);
#150 = EDGE_CURVE('',#143,#115,#151,.T.);
#151 = CIRCLE('',#152,2.099999999964);
#152 = AXIS2_PLACEMENT_3D('',#153,#154,#155);
#153 = CARTESIAN_POINT('',(85.,-85.,0.200000000007));
#154 = DIRECTION('',(0.,0.,1.));
#155 = DIRECTION('',(1.,0.,-0.));
#156 = CONICAL_SURFACE('',#157,4.899999999886,0.785398163397);
#157 = AXIS2_PLACEMENT_3D('',#158,#159,#160);
#158 = CARTESIAN_POINT('',(85.,-85.,2.999999999872));
#159 = DIRECTION('',(0.,4.E-17,1.));
#160 = DIRECTION('',(0.,-1.,4.E-17));
#161 = ADVANCED_FACE('',(#162),#198,.F.);
#162 = FACE_BOUND('',#163,.F.);
#163 = EDGE_LOOP('',(#164,#174,#183,#191));
#164 = ORIENTED_EDGE('',*,*,#165,.T.);
#165 = EDGE_CURVE('',#166,#168,#170,.T.);
#166 = VERTEX_POINT('',#167);
#167 = CARTESIAN_POINT('',(-82.90000000005,-85.,0.200000000007));
#168 = VERTEX_POINT('',#169);
#169 = CARTESIAN_POINT('',(-80.09999999997,-85.,3.000000000022));
#170 = LINE('',#171,#172);
#171 = CARTESIAN_POINT('',(-80.10000000001,-85.,2.999999999986));
#172 = VECTOR('',#173,1.);
#173 = DIRECTION('',(0.707106781194,0.,0.707106781179));
#174 = ORIENTED_EDGE('',*,*,#175,.F.);
#175 = EDGE_CURVE('',#176,#168,#178,.T.);
#176 = VERTEX_POINT('',#177);
#177 = CARTESIAN_POINT('',(-89.90000000002,-85.,3.000000000022));
#178 = CIRCLE('',#179,4.900000000021);
#179 = AXIS2_PLACEMENT_3D('',#180,#181,#182);
#180 = CARTESIAN_POINT('',(-85.,-85.,3.000000000022));
#181 = DIRECTION('',(0.,-0.,1.));
#182 = DIRECTION('',(1.,0.,0.));
#183 = ORIENTED_EDGE('',*,*,#184,.F.);
#184 = EDGE_CURVE('',#185,#176,#187,.T.);
#185 = VERTEX_POINT('',#186);
#186 = CARTESIAN_POINT('',(-87.09999999994,-85.,0.200000000007));
#187 = LINE('',#188,#189);
#188 = CARTESIAN_POINT('',(-89.89999999998,-85.,2.999999999986));
#189 = VECTOR('',#190,1.);
#190 = DIRECTION('',(-0.707106781194,9.E-17,0.707106781179));
#191 = ORIENTED_EDGE('',*,*,#192,.T.);
#192 = EDGE_CURVE('',#185,#166,#193,.T.);
#193 = CIRCLE('',#194,2.099999999948);
#194 = AXIS2_PLACEMENT_3D('',#195,#196,#197);
#195 = CARTESIAN_POINT('',(-85.,-85.,0.200000000007));
#196 = DIRECTION('',(0.,0.,1.));
#197 = DIRECTION('',(1.,0.,-0.));
#198 = CONICAL_SURFACE('',#199,4.899999999984,0.785398163408);
#199 = AXIS2_PLACEMENT_3D('',#200,#201,#202);
#200 = CARTESIAN_POINT('',(-85.,-85.,2.999999999986));
#201 = DIRECTION('',(0.,-0.,1.));
#202 = DIRECTION('',(1.,0.,0.));
#203 = ADVANCED_FACE('',(#204),#230,.F.);
#204 = FACE_BOUND('',#205,.F.);
#205 = EDGE_LOOP('',(#206,#214,#223,#229));
#206 = ORIENTED_EDGE('',*,*,#207,.T.);
#207 = EDGE_CURVE('',#41,#208,#210,.T.);
#208 = VERTEX_POINT('',#209);
#209 = CARTESIAN_POINT('',(-87.1,85.,0.));
#210 = LINE('',#211,#212);
#211 = CARTESIAN_POINT('',(-87.1,85.,3.));
#212 = VECTOR('',#213,1.);
#213 = DIRECTION('',(-0.,-0.,-1.));
#214 = ORIENTED_EDGE('',*,*,#215,.T.);
#215 = EDGE_CURVE('',#208,#216,#218,.T.);
#216 = VERTEX_POINT('',#217);
#217 = CARTESIAN_POINT('',(-82.9,85.,0.));
#218 = CIRCLE('',#219,2.1);
#219 = AXIS2_PLACEMENT_3D('',#220,#221,#222);
#220 = CARTESIAN_POINT('',(-85.,85.,0.));
#221 = DIRECTION('',(0.,0.,1.));
#222 = DIRECTION('',(-1.,0.,0.));
#223 = ORIENTED_EDGE('',*,*,#224,.F.);
#224 = EDGE_CURVE('',#22,#216,#225,.T.);
#225 = LINE('',#226,#227);
#226 = CARTESIAN_POINT('',(-82.9,85.,3.));
#227 = VECTOR('',#228,1.);
#228 = DIRECTION('',(-0.,-0.,-1.));
#229 = ORIENTED_EDGE('',*,*,#48,.F.);
#230 = CYLINDRICAL_SURFACE('',#231,2.1);
#231 = AXIS2_PLACEMENT_3D('',#232,#233,#234);
#232 = CARTESIAN_POINT('',(-85.,85.,3.));
#233 = DIRECTION('',(-0.,-0.,-1.));
#234 = DIRECTION('',(-1.,0.,0.));
#235 = ADVANCED_FACE('',(#236),#271,.F.);
#236 = FACE_BOUND('',#237,.F.);
#237 = EDGE_LOOP('',(#238,#246,#255,#263,#270));
#238 = ORIENTED_EDGE('',*,*,#239,.T.);
#239 = EDGE_CURVE('',#64,#240,#242,.T.);
#240 = VERTEX_POINT('',#241);
#241 = CARTESIAN_POINT('',(82.9,85.,0.));
#242 = LINE('',#243,#244);
#243 = CARTESIAN_POINT('',(82.9,85.,3.));
#244 = VECTOR('',#245,1.);
#245 = DIRECTION('',(-0.,-0.,-1.));
#246 = ORIENTED_EDGE('',*,*,#247,.T.);
#247 = EDGE_CURVE('',#240,#248,#250,.T.);
#248 = VERTEX_POINT('',#249);
#249 = CARTESIAN_POINT('',(87.1,85.,0.));
#250 = CIRCLE('',#251,2.1);
#251 = AXIS2_PLACEMENT_3D('',#252,#253,#254);
#252 = CARTESIAN_POINT('',(85.,85.,0.));
#253 = DIRECTION('',(0.,0.,1.));
#254 = DIRECTION('',(-1.,0.,0.));
#255 = ORIENTED_EDGE('',*,*,#256,.F.);
#256 = EDGE_CURVE('',#257,#248,#259,.T.);
#257 = VERTEX_POINT('',#258);
#258 = CARTESIAN_POINT('',(87.099999999964,85.,0.200000000007));
#259 = LINE('',#260,#261);
#260 = CARTESIAN_POINT('',(87.1,85.,3.));
#261 = VECTOR('',#262,1.);
#262 = DIRECTION('',(-0.,-0.,-1.));
#263 = ORIENTED_EDGE('',*,*,#264,.F.);
#264 = EDGE_CURVE('',#66,#257,#265,.T.);
#265 = CIRCLE('',#266,2.099999999964);
#266 = AXIS2_PLACEMENT_3D('',#267,#268,#269);
#267 = CARTESIAN_POINT('',(85.,85.,0.200000000007));
#268 = DIRECTION('',(0.,0.,1.));
#269 = DIRECTION('',(1.,0.,-0.));
#270 = ORIENTED_EDGE('',*,*,#63,.F.);
#271 = CYLINDRICAL_SURFACE('',#272,2.1);
#272 = AXIS2_PLACEMENT_3D('',#273,#274,#275);
#273 = CARTESIAN_POINT('',(85.,85.,3.));
#274 = DIRECTION('',(-0.,-0.,-1.));
#275 = DIRECTION('',(-1.,0.,0.));
#276 = ADVANCED_FACE('',(#277),#312,.F.);
#277 = FACE_BOUND('',#278,.F.);
#278 = EDGE_LOOP('',(#279,#287,#296,#304,#311));
#279 = ORIENTED_EDGE('',*,*,#280,.T.);
#280 = EDGE_CURVE('',#115,#281,#283,.T.);
#281 = VERTEX_POINT('',#282);
#282 = CARTESIAN_POINT('',(82.9,-85.,0.));
#283 = LINE('',#284,#285);
#284 = CARTESIAN_POINT('',(82.9,-85.,3.));
#285 = VECTOR('',#286,1.);
#286 = DIRECTION('',(-0.,-0.,-1.));
#287 = ORIENTED_EDGE('',*,*,#288,.T.);
#288 = EDGE_CURVE('',#281,#289,#291,.T.);
#289 = VERTEX_POINT('',#290);
#290 = CARTESIAN_POINT('',(87.1,-85.,0.));
#291 = CIRCLE('',#292,2.1);
#292 = AXIS2_PLACEMENT_3D('',#293,#294,#295);
#293 = CARTESIAN_POINT('',(85.,-85.,0.));
#294 = DIRECTION('',(0.,0.,1.));
#295 = DIRECTION('',(-1.,0.,0.));
#296 = ORIENTED_EDGE('',*,*,#297,.F.);
#297 = EDGE_CURVE('',#298,#289,#300,.T.);
#298 = VERTEX_POINT('',#299);
#299 = CARTESIAN_POINT('',(87.099999999964,-85.,0.200000000007));
#300 = LINE('',#301,#302);
#301 = CARTESIAN_POINT('',(87.1,-85.,3.));
#302 = VECTOR('',#303,1.);
#303 = DIRECTION('',(-0.,-0.,-1.));
#304 = ORIENTED_EDGE('',*,*,#305,.F.);
#305 = EDGE_CURVE('',#117,#298,#306,.T.);
#306 = CIRCLE('',#307,2.099999999964);
#307 = AXIS2_PLACEMENT_3D('',#308,#309,#310);
#308 = CARTESIAN_POINT('',(85.,-85.,0.200000000007));
#309 = DIRECTION('',(0.,0.,1.));
#310 = DIRECTION('',(1.,0.,-0.));
#311 = ORIENTED_EDGE('',*,*,#114,.F.);
#312 = CYLINDRICAL_SURFACE('',#313,2.1);
#313 = AXIS2_PLACEMENT_3D('',#314,#315,#316);
#314 = CARTESIAN_POINT('',(85.,-85.,3.));
#315 = DIRECTION('',(-0.,-0.,-1.));
#316 = DIRECTION('',(-1.,0.,0.));
#317 = ADVANCED_FACE('',(#318),#344,.F.);
#318 = FACE_BOUND('',#319,.F.);
#319 = EDGE_LOOP('',(#320,#328,#337,#343));
#320 = ORIENTED_EDGE('',*,*,#321,.T.);
#321 = EDGE_CURVE('',#185,#322,#324,.T.);
#322 = VERTEX_POINT('',#323);
#323 = CARTESIAN_POINT('',(-87.1,-85.,0.));
#324 = LINE('',#325,#326);
#325 = CARTESIAN_POINT('',(-87.1,-85.,3.));
#326 = VECTOR('',#327,1.);
#327 = DIRECTION('',(-0.,-0.,-1.));
#328 = ORIENTED_EDGE('',*,*,#329,.T.);
#329 = EDGE_CURVE('',#322,#330,#332,.T.);
#330 = VERTEX_POINT('',#331);
#331 = CARTESIAN_POINT('',(-82.9,-85.,0.));
#332 = CIRCLE('',#333,2.1);
#333 = AXIS2_PLACEMENT_3D('',#334,#335,#336);
#334 = CARTESIAN_POINT('',(-85.,-85.,0.));
#335 = DIRECTION('',(0.,0.,1.));
#336 = DIRECTION('',(-1.,0.,0.));
#337 = ORIENTED_EDGE('',*,*,#338,.F.);
#338 = EDGE_CURVE('',#166,#330,#339,.T.);
#339 = LINE('',#340,#341);
#340 = CARTESIAN_POINT('',(-82.9,-85.,3.));
#341 = VECTOR('',#342,1.);
#342 = DIRECTION('',(-0.,-0.,-1.));
#343 = ORIENTED_EDGE('',*,*,#192,.F.);
#344 = CYLINDRICAL_SURFACE('',#345,2.1);
#345 = AXIS2_PLACEMENT_3D('',#346,#347,#348);
#346 = CARTESIAN_POINT('',(-85.,-85.,3.));
#347 = DIRECTION('',(-0.,-0.,-1.));
#348 = DIRECTION('',(-1.,0.,0.));
#349 = ADVANCED_FACE('',(#350,#420,#430,#440,#450),#460,.F.);
#350 = FACE_BOUND('',#351,.T.);
#351 = EDGE_LOOP('',(#352,#363,#371,#380,#388,#397,#405,#414));
#352 = ORIENTED_EDGE('',*,*,#353,.F.);
#353 = EDGE_CURVE('',#354,#356,#358,.T.);
#354 = VERTEX_POINT('',#355);
#355 = CARTESIAN_POINT('',(-114.5,-117.5,3.));
#356 = VERTEX_POINT('',#357);
#357 = CARTESIAN_POINT('',(-117.5,-114.5,3.));
#358 = CIRCLE('',#359,3.);
#359 = AXIS2_PLACEMENT_3D('',#360,#361,#362);
#360 = CARTESIAN_POINT('',(-114.5,-114.5,3.));
#361 = DIRECTION('',(0.,0.,-1.));
#362 = DIRECTION('',(-1.,0.,0.));
#363 = ORIENTED_EDGE('',*,*,#364,.F.);
#364 = EDGE_CURVE('',#365,#354,#367,.T.);
#365 = VERTEX_POINT('',#366);
#366 = CARTESIAN_POINT('',(114.5,-117.5,3.));
#367 = LINE('',#368,#369);
#368 = CARTESIAN_POINT('',(0.,-117.5,3.));
#369 = VECTOR('',#370,1.);
#370 = DIRECTION('',(-1.,0.,-0.));
#371 = ORIENTED_EDGE('',*,*,#372,.F.);
#372 = EDGE_CURVE('',#373,#365,#375,.T.);
#373 = VERTEX_POINT('',#374);
#374 = CARTESIAN_POINT('',(117.5,-114.5,3.));
#375 = CIRCLE('',#376,3.);
#376 = AXIS2_PLACEMENT_3D('',#377,#378,#379);
#377 = CARTESIAN_POINT('',(114.5,-114.5,3.));
#378 = DIRECTION('',(0.,0.,-1.));
#379 = DIRECTION('',(-1.,0.,0.));
#380 = ORIENTED_EDGE('',*,*,#381,.F.);
#381 = EDGE_CURVE('',#382,#373,#384,.T.);
#382 = VERTEX_POINT('',#383);
#383 = CARTESIAN_POINT('',(117.5,114.5,3.));
#384 = LINE('',#385,#386);
#385 = CARTESIAN_POINT('',(117.5,0.,3.));
#386 = VECTOR('',#387,1.);
#387 = DIRECTION('',(-0.,-1.,-0.));
#388 = ORIENTED_EDGE('',*,*,#389,.F.);
#389 = EDGE_CURVE('',#390,#382,#392,.T.);
#390 = VERTEX_POINT('',#391);
#391 = CARTESIAN_POINT('',(114.5,117.5,3.));
#392 = CIRCLE('',#393,3.);
#393 = AXIS2_PLACEMENT_3D('',#394,#395,#396);
#394 = CARTESIAN_POINT('',(114.5,114.5,3.));
#395 = DIRECTION('',(0.,0.,-1.));
#396 = DIRECTION('',(-1.,0.,0.));
#397 = ORIENTED_EDGE('',*,*,#398,.F.);
#398 = EDGE_CURVE('',#399,#390,#401,.T.);
#399 = VERTEX_POINT('',#400);
#400 = CARTESIAN_POINT('',(-114.5,117.5,3.));
#401 = LINE('',#402,#403);
#402 = CARTESIAN_POINT('',(0.,117.5,3.));
#403 = VECTOR('',#404,1.);
#404 = DIRECTION('',(1.,-0.,0.));
#405 = ORIENTED_EDGE('',*,*,#406,.F.);
#406 = EDGE_CURVE('',#407,#399,#409,.T.);
#407 = VERTEX_POINT('',#408);
#408 = CARTESIAN_POINT('',(-117.5,114.5,3.));
#409 = CIRCLE('',#410,3.);
#410 = AXIS2_PLACEMENT_3D('',#411,#412,#413);
#411 = CARTESIAN_POINT('',(-114.5,114.5,3.));
#412 = DIRECTION('',(0.,0.,-1.));
#413 = DIRECTION('',(-1.,0.,0.));
#414 = ORIENTED_EDGE('',*,*,#415,.F.);
#415 = EDGE_CURVE('',#356,#407,#416,.T.);
#416 = LINE('',#417,#418);
#417 = CARTESIAN_POINT('',(-117.5,0.,3.));
#418 = VECTOR('',#419,1.);
#419 = DIRECTION('',(0.,1.,0.));
#420 = FACE_BOUND('',#421,.T.);
#421 = EDGE_LOOP('',(#422,#429));
#422 = ORIENTED_EDGE('',*,*,#423,.F.);
#423 = EDGE_CURVE('',#24,#32,#424,.T.);
#424 = CIRCLE('',#425,4.900000000021);
#425 = AXIS2_PLACEMENT_3D('',#426,#427,#428);
#426 = CARTESIAN_POINT('',(-85.,85.,3.000000000022));
#427 = DIRECTION('',(0.,-0.,1.));
#428 = DIRECTION('',(1.,0.,0.));
#429 = ORIENTED_EDGE('',*,*,#31,.F.);
#430 = FACE_BOUND('',#431,.T.);
#431 = EDGE_LOOP('',(#432,#439));
#432 = ORIENTED_EDGE('',*,*,#433,.F.);
#433 = EDGE_CURVE('',#75,#83,#434,.T.);
#434 = CIRCLE('',#435,4.9);
#435 = AXIS2_PLACEMENT_3D('',#436,#437,#438);
#436 = CARTESIAN_POINT('',(85.,85.,2.999999999986));
#437 = DIRECTION('',(0.,4.E-17,1.));
#438 = DIRECTION('',(0.,-1.,4.E-17));
#439 = ORIENTED_EDGE('',*,*,#82,.F.);
#440 = FACE_BOUND('',#441,.T.);
#441 = EDGE_LOOP('',(#442,#449));
#442 = ORIENTED_EDGE('',*,*,#443,.F.);
#443 = EDGE_CURVE('',#126,#134,#444,.T.);
#444 = CIRCLE('',#445,4.9);
#445 = AXIS2_PLACEMENT_3D('',#446,#447,#448);
#446 = CARTESIAN_POINT('',(85.,-85.,2.999999999986));
#447 = DIRECTION('',(0.,4.E-17,1.));
#448 = DIRECTION('',(0.,-1.,4.E-17));
#449 = ORIENTED_EDGE('',*,*,#133,.F.);
#450 = FACE_BOUND('',#451,.T.);
#451 = EDGE_LOOP('',(#452,#459));
#452 = ORIENTED_EDGE('',*,*,#453,.F.);
#453 = EDGE_CURVE('',#168,#176,#454,.T.);
#454 = CIRCLE('',#455,4.900000000021);
#455 = AXIS2_PLACEMENT_3D('',#456,#457,#458);
#456 = CARTESIAN_POINT('',(-85.,-85.,3.000000000022));
#457 = DIRECTION('',(0.,-0.,1.));
#458 = DIRECTION('',(1.,0.,0.));
#459 = ORIENTED_EDGE('',*,*,#175,.F.);
#460 = PLANE('',#461);
#461 = AXIS2_PLACEMENT_3D('',#462,#463,#464);
#462 = CARTESIAN_POINT('',(0.,0.,3.));
#463 = DIRECTION('',(0.,0.,-1.));
#464 = DIRECTION('',(-1.,0.,-0.));
#465 = ADVANCED_FACE('',(#466),#491,.F.);
#466 = FACE_BOUND('',#467,.T.);
#467 = EDGE_LOOP('',(#468,#476,#477,#485));
#468 = ORIENTED_EDGE('',*,*,#469,.F.);
#469 = EDGE_CURVE('',#356,#470,#472,.T.);
#470 = VERTEX_POINT('',#471);
#471 = CARTESIAN_POINT('',(-117.5,-114.5,0.));
#472 = LINE('',#473,#474);
#473 = CARTESIAN_POINT('',(-117.5,-114.5,3.));
#474 = VECTOR('',#475,1.);
#475 = DIRECTION('',(0.,0.,-1.));
#476 = ORIENTED_EDGE('',*,*,#415,.T.);
#477 = ORIENTED_EDGE('',*,*,#478,.F.);
#478 = EDGE_CURVE('',#479,#407,#481,.T.);
#479 = VERTEX_POINT('',#480);
#480 = CARTESIAN_POINT('',(-117.5,114.5,0.));
#481 = LINE('',#482,#483);
#482 = CARTESIAN_POINT('',(-117.5,114.5,3.));
#483 = VECTOR('',#484,1.);
#484 = DIRECTION('',(-0.,-0.,1.));
#485 = ORIENTED_EDGE('',*,*,#486,.F.);
#486 = EDGE_CURVE('',#470,#479,#487,.T.);
#487 = LINE('',#488,#489);
#488 = CARTESIAN_POINT('',(-117.5,-117.5,0.));
#489 = VECTOR('',#490,1.);
#490 = DIRECTION('',(0.,1.,0.));
#491 = PLANE('',#492);
#492 = AXIS2_PLACEMENT_3D('',#493,#494,#495);
#493 = CARTESIAN_POINT('',(-117.5,-117.5,3.));
#494 = DIRECTION('',(1.,-0.,0.));
#495 = DIRECTION('',(0.,0.,-1.));
#496 = ADVANCED_FACE('',(#497),#516,.T.);
#497 = FACE_BOUND('',#498,.T.);
#498 = EDGE_LOOP('',(#499,#508,#514,#515));
#499 = ORIENTED_EDGE('',*,*,#500,.T.);
#500 = EDGE_CURVE('',#470,#501,#503,.T.);
#501 = VERTEX_POINT('',#502);
#502 = CARTESIAN_POINT('',(-114.5,-117.5,0.));
#503 = CIRCLE('',#504,3.);
#504 = AXIS2_PLACEMENT_3D('',#505,#506,#507);
#505 = CARTESIAN_POINT('',(-114.5,-114.5,0.));
#506 = DIRECTION('',(0.,0.,1.));
#507 = DIRECTION('',(-1.,0.,0.));
#508 = ORIENTED_EDGE('',*,*,#509,.T.);
#509 = EDGE_CURVE('',#501,#354,#510,.T.);
#510 = LINE('',#511,#512);
#511 = CARTESIAN_POINT('',(-114.5,-117.5,3.));
#512 = VECTOR('',#513,1.);
#513 = DIRECTION('',(-0.,-0.,1.));
#514 = ORIENTED_EDGE('',*,*,#353,.T.);
#515 = ORIENTED_EDGE('',*,*,#469,.T.);
#516 = CYLINDRICAL_SURFACE('',#517,3.);
#517 = AXIS2_PLACEMENT_3D('',#518,#519,#520);
#518 = CARTESIAN_POINT('',(-114.5,-114.5,3.));
#519 = DIRECTION('',(0.,0.,-1.));
#520 = DIRECTION('',(-1.,0.,0.));
#521 = ADVANCED_FACE('',(#522),#540,.F.);
#522 = FACE_BOUND('',#523,.T.);
#523 = EDGE_LOOP('',(#524,#525,#533,#539));
#524 = ORIENTED_EDGE('',*,*,#509,.F.);
#525 = ORIENTED_EDGE('',*,*,#526,.F.);
#526 = EDGE_CURVE('',#527,#501,#529,.T.);
#527 = VERTEX_POINT('',#528);
#528 = CARTESIAN_POINT('',(114.5,-117.5,0.));
#529 = LINE('',#530,#531);
#530 = CARTESIAN_POINT('',(-117.5,-117.5,0.));
#531 = VECTOR('',#532,1.);
#532 = DIRECTION('',(-1.,-0.,0.));
#533 = ORIENTED_EDGE('',*,*,#534,.F.);
#534 = EDGE_CURVE('',#365,#527,#535,.T.);
#535 = LINE('',#536,#537);
#536 = CARTESIAN_POINT('',(114.5,-117.5,3.));
#537 = VECTOR('',#538,1.);
#538 = DIRECTION('',(-0.,0.,-1.));
#539 = ORIENTED_EDGE('',*,*,#364,.T.);
#540 = PLANE('',#541);
#541 = AXIS2_PLACEMENT_3D('',#542,#543,#544);
#542 = CARTESIAN_POINT('',(-117.5,-117.5,3.));
#543 = DIRECTION('',(0.,1.,0.));
#544 = DIRECTION('',(0.,-0.,1.));
#545 = ADVANCED_FACE('',(#546),#565,.T.);
#546 = FACE_BOUND('',#547,.T.);
#547 = EDGE_LOOP('',(#548,#557,#563,#564));
#548 = ORIENTED_EDGE('',*,*,#549,.T.);
#549 = EDGE_CURVE('',#527,#550,#552,.T.);
#550 = VERTEX_POINT('',#551);
#551 = CARTESIAN_POINT('',(117.5,-114.5,0.));
#552 = CIRCLE('',#553,3.);
#553 = AXIS2_PLACEMENT_3D('',#554,#555,#556);
#554 = CARTESIAN_POINT('',(114.5,-114.5,0.));
#555 = DIRECTION('',(0.,0.,1.));
#556 = DIRECTION('',(-1.,0.,0.));
#557 = ORIENTED_EDGE('',*,*,#558,.T.);
#558 = EDGE_CURVE('',#550,#373,#559,.T.);
#559 = LINE('',#560,#561);
#560 = CARTESIAN_POINT('',(117.5,-114.5,3.));
#561 = VECTOR('',#562,1.);
#562 = DIRECTION('',(-0.,-0.,1.));
#563 = ORIENTED_EDGE('',*,*,#372,.T.);
#564 = ORIENTED_EDGE('',*,*,#534,.T.);
#565 = CYLINDRICAL_SURFACE('',#566,3.);
#566 = AXIS2_PLACEMENT_3D('',#567,#568,#569);
#567 = CARTESIAN_POINT('',(114.5,-114.5,3.));
#568 = DIRECTION('',(0.,0.,-1.));
#569 = DIRECTION('',(-1.,0.,0.));
#570 = ADVANCED_FACE('',(#571),#589,.F.);
#571 = FACE_BOUND('',#572,.T.);
#572 = EDGE_LOOP('',(#573,#574,#582,#588));
#573 = ORIENTED_EDGE('',*,*,#558,.F.);
#574 = ORIENTED_EDGE('',*,*,#575,.F.);
#575 = EDGE_CURVE('',#576,#550,#578,.T.);
#576 = VERTEX_POINT('',#577);
#577 = CARTESIAN_POINT('',(117.5,114.5,0.));
#578 = LINE('',#579,#580);
#579 = CARTESIAN_POINT('',(117.5,-117.5,0.));
#580 = VECTOR('',#581,1.);
#581 = DIRECTION('',(-0.,-1.,0.));
#582 = ORIENTED_EDGE('',*,*,#583,.F.);
#583 = EDGE_CURVE('',#382,#576,#584,.T.);
#584 = LINE('',#585,#586);
#585 = CARTESIAN_POINT('',(117.5,114.5,3.));
#586 = VECTOR('',#587,1.);
#587 = DIRECTION('',(-0.,-0.,-1.));
#588 = ORIENTED_EDGE('',*,*,#381,.T.);
#589 = PLANE('',#590);
#590 = AXIS2_PLACEMENT_3D('',#591,#592,#593);
#591 = CARTESIAN_POINT('',(117.5,-117.5,3.));
#592 = DIRECTION('',(-1.,0.,0.));
#593 = DIRECTION('',(0.,0.,1.));
#594 = ADVANCED_FACE('',(#595),#614,.T.);
#595 = FACE_BOUND('',#596,.T.);
#596 = EDGE_LOOP('',(#597,#606,#612,#613));
#597 = ORIENTED_EDGE('',*,*,#598,.T.);
#598 = EDGE_CURVE('',#576,#599,#601,.T.);
#599 = VERTEX_POINT('',#600);
#600 = CARTESIAN_POINT('',(114.5,117.5,0.));
#601 = CIRCLE('',#602,3.);
#602 = AXIS2_PLACEMENT_3D('',#603,#604,#605);
#603 = CARTESIAN_POINT('',(114.5,114.5,0.));
#604 = DIRECTION('',(0.,0.,1.));
#605 = DIRECTION('',(-1.,0.,0.));
#606 = ORIENTED_EDGE('',*,*,#607,.T.);
#607 = EDGE_CURVE('',#599,#390,#608,.T.);
#608 = LINE('',#609,#610);
#609 = CARTESIAN_POINT('',(114.5,117.5,3.));
#610 = VECTOR('',#611,1.);
#611 = DIRECTION('',(-0.,-0.,1.));
#612 = ORIENTED_EDGE('',*,*,#389,.T.);
#613 = ORIENTED_EDGE('',*,*,#583,.T.);
#614 = CYLINDRICAL_SURFACE('',#615,3.);
#615 = AXIS2_PLACEMENT_3D('',#616,#617,#618);
#616 = CARTESIAN_POINT('',(114.5,114.5,3.));
#617 = DIRECTION('',(0.,0.,-1.));
#618 = DIRECTION('',(-1.,0.,0.));
#619 = ADVANCED_FACE('',(#620),#670,.F.);
#620 = FACE_BOUND('',#621,.T.);
#621 = EDGE_LOOP('',(#622,#632,#640,#648,#656,#662,#663,#664));
#622 = ORIENTED_EDGE('',*,*,#623,.T.);
#623 = EDGE_CURVE('',#624,#626,#628,.T.);
#624 = VERTEX_POINT('',#625);
#625 = CARTESIAN_POINT('',(-72.65076148691,117.5,0.));
#626 = VERTEX_POINT('',#627);
#627 = CARTESIAN_POINT('',(-72.65076148691,117.5,0.5));
#628 = LINE('',#629,#630);
#629 = CARTESIAN_POINT('',(-72.65076148691,117.5,0.5));
#630 = VECTOR('',#631,1.);
#631 = DIRECTION('',(-0.,-0.,1.));
#632 = ORIENTED_EDGE('',*,*,#633,.F.);
#633 = EDGE_CURVE('',#634,#626,#636,.T.);
#634 = VERTEX_POINT('',#635);
#635 = CARTESIAN_POINT('',(-101.4629257417,117.5,0.5));
#636 = LINE('',#637,#638);
#637 = CARTESIAN_POINT('',(-117.5,117.5,0.5));
#638 = VECTOR('',#639,1.);
#639 = DIRECTION('',(1.,0.,0.));
#640 = ORIENTED_EDGE('',*,*,#641,.T.);
#641 = EDGE_CURVE('',#634,#642,#644,.T.);
#642 = VERTEX_POINT('',#643);
#643 = CARTESIAN_POINT('',(-101.4629257417,117.5,0.));
#644 = LINE('',#645,#646);
#645 = CARTESIAN_POINT('',(-101.4629257417,117.5,0.5));
#646 = VECTOR('',#647,1.);
#647 = DIRECTION('',(-0.,-0.,-1.));
#648 = ORIENTED_EDGE('',*,*,#649,.F.);
#649 = EDGE_CURVE('',#650,#642,#652,.T.);
#650 = VERTEX_POINT('',#651);
#651 = CARTESIAN_POINT('',(-114.5,117.5,0.));
#652 = LINE('',#653,#654);
#653 = CARTESIAN_POINT('',(-117.5,117.5,0.));
#654 = VECTOR('',#655,1.);
#655 = DIRECTION('',(1.,0.,0.));
#656 = ORIENTED_EDGE('',*,*,#657,.F.);
#657 = EDGE_CURVE('',#399,#650,#658,.T.);
#658 = LINE('',#659,#660);
#659 = CARTESIAN_POINT('',(-114.5,117.5,3.));
#660 = VECTOR('',#661,1.);
#661 = DIRECTION('',(0.,-0.,-1.));
#662 = ORIENTED_EDGE('',*,*,#398,.T.);
#663 = ORIENTED_EDGE('',*,*,#607,.F.);
#664 = ORIENTED_EDGE('',*,*,#665,.F.);
#665 = EDGE_CURVE('',#624,#599,#666,.T.);
#666 = LINE('',#667,#668);
#667 = CARTESIAN_POINT('',(-117.5,117.5,0.));
#668 = VECTOR('',#669,1.);
#669 = DIRECTION('',(1.,0.,0.));
#670 = PLANE('',#671);
#671 = AXIS2_PLACEMENT_3D('',#672,#673,#674);
#672 = CARTESIAN_POINT('',(-117.5,117.5,3.));
#673 = DIRECTION('',(0.,-1.,0.));
#674 = DIRECTION('',(0.,-0.,-1.));
#675 = ADVANCED_FACE('',(#676),#688,.T.);
#676 = FACE_BOUND('',#677,.T.);
#677 = EDGE_LOOP('',(#678,#685,#686,#687));
#678 = ORIENTED_EDGE('',*,*,#679,.T.);
#679 = EDGE_CURVE('',#650,#479,#680,.T.);
#680 = CIRCLE('',#681,3.);
#681 = AXIS2_PLACEMENT_3D('',#682,#683,#684);
#682 = CARTESIAN_POINT('',(-114.5,114.5,0.));
#683 = DIRECTION('',(0.,0.,1.));
#684 = DIRECTION('',(-1.,4.163E-14,0.));
#685 = ORIENTED_EDGE('',*,*,#478,.T.);
#686 = ORIENTED_EDGE('',*,*,#406,.T.);
#687 = ORIENTED_EDGE('',*,*,#657,.T.);
#688 = CYLINDRICAL_SURFACE('',#689,3.);
#689 = AXIS2_PLACEMENT_3D('',#690,#691,#692);
#690 = CARTESIAN_POINT('',(-114.5,114.5,3.));
#691 = DIRECTION('',(0.,0.,-1.));
#692 = DIRECTION('',(-1.,0.,0.));
#693 = ADVANCED_FACE('',(#694),#706,.F.);
#694 = FACE_BOUND('',#695,.F.);
#695 = EDGE_LOOP('',(#696,#697,#698,#705));
#696 = ORIENTED_EDGE('',*,*,#423,.F.);
#697 = ORIENTED_EDGE('',*,*,#21,.F.);
#698 = ORIENTED_EDGE('',*,*,#699,.T.);
#699 = EDGE_CURVE('',#22,#41,#700,.T.);
#700 = CIRCLE('',#701,2.099999999948);
#701 = AXIS2_PLACEMENT_3D('',#702,#703,#704);
#702 = CARTESIAN_POINT('',(-85.,85.,0.200000000007));
#703 = DIRECTION('',(0.,0.,1.));
#704 = DIRECTION('',(1.,0.,-0.));
#705 = ORIENTED_EDGE('',*,*,#40,.T.);
#706 = CONICAL_SURFACE('',#707,4.899999999984,0.785398163408);
#707 = AXIS2_PLACEMENT_3D('',#708,#709,#710);
#708 = CARTESIAN_POINT('',(-85.,85.,2.999999999986));
#709 = DIRECTION('',(0.,-0.,1.));
#710 = DIRECTION('',(1.,0.,0.));
#711 = ADVANCED_FACE('',(#712),#725,.F.);
#712 = FACE_BOUND('',#713,.F.);
#713 = EDGE_LOOP('',(#714,#715,#716,#717,#724));
#714 = ORIENTED_EDGE('',*,*,#433,.F.);
#715 = ORIENTED_EDGE('',*,*,#74,.F.);
#716 = ORIENTED_EDGE('',*,*,#264,.T.);
#717 = ORIENTED_EDGE('',*,*,#718,.T.);
#718 = EDGE_CURVE('',#257,#92,#719,.T.);
#719 = CIRCLE('',#720,2.099999999964);
#720 = AXIS2_PLACEMENT_3D('',#721,#722,#723);
#721 = CARTESIAN_POINT('',(85.,85.,0.200000000007));
#722 = DIRECTION('',(0.,0.,1.));
#723 = DIRECTION('',(1.,0.,-0.));
#724 = ORIENTED_EDGE('',*,*,#91,.T.);
#725 = CONICAL_SURFACE('',#726,4.899999999886,0.785398163397);
#726 = AXIS2_PLACEMENT_3D('',#727,#728,#729);
#727 = CARTESIAN_POINT('',(85.,85.,2.999999999872));
#728 = DIRECTION('',(0.,4.E-17,1.));
#729 = DIRECTION('',(0.,-1.,4.E-17));
#730 = ADVANCED_FACE('',(#731),#744,.F.);
#731 = FACE_BOUND('',#732,.F.);
#732 = EDGE_LOOP('',(#733,#734,#735,#736,#743));
#733 = ORIENTED_EDGE('',*,*,#443,.F.);
#734 = ORIENTED_EDGE('',*,*,#125,.F.);
#735 = ORIENTED_EDGE('',*,*,#305,.T.);
#736 = ORIENTED_EDGE('',*,*,#737,.T.);
#737 = EDGE_CURVE('',#298,#143,#738,.T.);
#738 = CIRCLE('',#739,2.099999999964);
#739 = AXIS2_PLACEMENT_3D('',#740,#741,#742);
#740 = CARTESIAN_POINT('',(85.,-85.,0.200000000007));
#741 = DIRECTION('',(0.,0.,1.));
#742 = DIRECTION('',(1.,0.,-0.));
#743 = ORIENTED_EDGE('',*,*,#142,.T.);
#744 = CONICAL_SURFACE('',#745,4.899999999886,0.785398163397);
#745 = AXIS2_PLACEMENT_3D('',#746,#747,#748);
#746 = CARTESIAN_POINT('',(85.,-85.,2.999999999872));
#747 = DIRECTION('',(0.,4.E-17,1.));
#748 = DIRECTION('',(0.,-1.,4.E-17));
#749 = ADVANCED_FACE('',(#750),#762,.F.);
#750 = FACE_BOUND('',#751,.F.);
#751 = EDGE_LOOP('',(#752,#753,#754,#761));
#752 = ORIENTED_EDGE('',*,*,#453,.F.);
#753 = ORIENTED_EDGE('',*,*,#165,.F.);
#754 = ORIENTED_EDGE('',*,*,#755,.T.);
#755 = EDGE_CURVE('',#166,#185,#756,.T.);
#756 = CIRCLE('',#757,2.099999999948);
#757 = AXIS2_PLACEMENT_3D('',#758,#759,#760);
#758 = CARTESIAN_POINT('',(-85.,-85.,0.200000000007));
#759 = DIRECTION('',(0.,0.,1.));
#760 = DIRECTION('',(1.,0.,-0.));
#761 = ORIENTED_EDGE('',*,*,#184,.T.);
#762 = CONICAL_SURFACE('',#763,4.899999999984,0.785398163408);
#763 = AXIS2_PLACEMENT_3D('',#764,#765,#766);
#764 = CARTESIAN_POINT('',(-85.,-85.,2.999999999986));
#765 = DIRECTION('',(0.,-0.,1.));
#766 = DIRECTION('',(1.,0.,0.));
#767 = ADVANCED_FACE('',(#768,#778,#788,#798,#808),#841,.T.);
#768 = FACE_BOUND('',#769,.T.);
#769 = EDGE_LOOP('',(#770,#771));
#770 = ORIENTED_EDGE('',*,*,#288,.T.);
#771 = ORIENTED_EDGE('',*,*,#772,.T.);
#772 = EDGE_CURVE('',#289,#281,#773,.T.);
#773 = CIRCLE('',#774,2.1);
#774 = AXIS2_PLACEMENT_3D('',#775,#776,#777);
#775 = CARTESIAN_POINT('',(85.,-85.,0.));
#776 = DIRECTION('',(0.,0.,1.));
#777 = DIRECTION('',(-1.,0.,0.));
#778 = FACE_BOUND('',#779,.T.);
#779 = EDGE_LOOP('',(#780,#781));
#780 = ORIENTED_EDGE('',*,*,#247,.T.);
#781 = ORIENTED_EDGE('',*,*,#782,.T.);
#782 = EDGE_CURVE('',#248,#240,#783,.T.);
#783 = CIRCLE('',#784,2.1);
#784 = AXIS2_PLACEMENT_3D('',#785,#786,#787);
#785 = CARTESIAN_POINT('',(85.,85.,0.));
#786 = DIRECTION('',(0.,0.,1.));
#787 = DIRECTION('',(-1.,0.,0.));
#788 = FACE_BOUND('',#789,.T.);
#789 = EDGE_LOOP('',(#790,#791));
#790 = ORIENTED_EDGE('',*,*,#215,.T.);
#791 = ORIENTED_EDGE('',*,*,#792,.T.);
#792 = EDGE_CURVE('',#216,#208,#793,.T.);
#793 = CIRCLE('',#794,2.1);
#794 = AXIS2_PLACEMENT_3D('',#795,#796,#797);
#795 = CARTESIAN_POINT('',(-85.,85.,0.));
#796 = DIRECTION('',(0.,0.,1.));
#797 = DIRECTION('',(-1.,0.,0.));
#798 = FACE_BOUND('',#799,.T.);
#799 = EDGE_LOOP('',(#800,#801));
#800 = ORIENTED_EDGE('',*,*,#329,.T.);
#801 = ORIENTED_EDGE('',*,*,#802,.T.);
#802 = EDGE_CURVE('',#330,#322,#803,.T.);
#803 = CIRCLE('',#804,2.1);
#804 = AXIS2_PLACEMENT_3D('',#805,#806,#807);
#805 = CARTESIAN_POINT('',(-85.,-85.,0.));
#806 = DIRECTION('',(0.,0.,1.));
#807 = DIRECTION('',(-1.,0.,0.));
#808 = FACE_BOUND('',#809,.T.);
#809 = EDGE_LOOP('',(#810,#818,#826,#832,#833,#834,#835,#836,#837,#838,
    #839,#840));
#810 = ORIENTED_EDGE('',*,*,#811,.T.);
#811 = EDGE_CURVE('',#642,#812,#814,.T.);
#812 = VERTEX_POINT('',#813);
#813 = CARTESIAN_POINT('',(-101.4629257417,106.05079019947,0.));
#814 = LINE('',#815,#816);
#815 = CARTESIAN_POINT('',(-101.4629257417,0.,0.));
#816 = VECTOR('',#817,1.);
#817 = DIRECTION('',(-0.,-1.,-0.));
#818 = ORIENTED_EDGE('',*,*,#819,.T.);
#819 = EDGE_CURVE('',#812,#820,#822,.T.);
#820 = VERTEX_POINT('',#821);
#821 = CARTESIAN_POINT('',(-72.65076148691,106.05079019947,0.));
#822 = LINE('',#823,#824);
#823 = CARTESIAN_POINT('',(0.,106.05079019947,0.));
#824 = VECTOR('',#825,1.);
#825 = DIRECTION('',(1.,-0.,0.));
#826 = ORIENTED_EDGE('',*,*,#827,.T.);
#827 = EDGE_CURVE('',#820,#624,#828,.T.);
#828 = LINE('',#829,#830);
#829 = CARTESIAN_POINT('',(-72.65076148691,0.,0.));
#830 = VECTOR('',#831,1.);
#831 = DIRECTION('',(0.,1.,0.));
#832 = ORIENTED_EDGE('',*,*,#665,.T.);
#833 = ORIENTED_EDGE('',*,*,#598,.F.);
#834 = ORIENTED_EDGE('',*,*,#575,.T.);
#835 = ORIENTED_EDGE('',*,*,#549,.F.);
#836 = ORIENTED_EDGE('',*,*,#526,.T.);
#837 = ORIENTED_EDGE('',*,*,#500,.F.);
#838 = ORIENTED_EDGE('',*,*,#486,.T.);
#839 = ORIENTED_EDGE('',*,*,#679,.F.);
#840 = ORIENTED_EDGE('',*,*,#649,.T.);
#841 = PLANE('',#842);
#842 = AXIS2_PLACEMENT_3D('',#843,#844,#845);
#843 = CARTESIAN_POINT('',(0.,0.,0.));
#844 = DIRECTION('',(0.,0.,-1.));
#845 = DIRECTION('',(-1.,0.,-0.));
#846 = ADVANCED_FACE('',(#847),#872,.T.);
#847 = FACE_BOUND('',#848,.T.);
#848 = EDGE_LOOP('',(#849,#857,#858,#866));
#849 = ORIENTED_EDGE('',*,*,#850,.T.);
#850 = EDGE_CURVE('',#851,#634,#853,.T.);
#851 = VERTEX_POINT('',#852);
#852 = CARTESIAN_POINT('',(-101.4629257417,106.05079019947,0.5));
#853 = LINE('',#854,#855);
#854 = CARTESIAN_POINT('',(-101.4629257417,0.,0.5));
#855 = VECTOR('',#856,1.);
#856 = DIRECTION('',(0.,1.,0.));
#857 = ORIENTED_EDGE('',*,*,#633,.T.);
#858 = ORIENTED_EDGE('',*,*,#859,.T.);
#859 = EDGE_CURVE('',#626,#860,#862,.T.);
#860 = VERTEX_POINT('',#861);
#861 = CARTESIAN_POINT('',(-72.65076148691,106.05079019947,0.5));
#862 = LINE('',#863,#864);
#863 = CARTESIAN_POINT('',(-72.65076148691,0.,0.5));
#864 = VECTOR('',#865,1.);
#865 = DIRECTION('',(-0.,-1.,-0.));
#866 = ORIENTED_EDGE('',*,*,#867,.T.);
#867 = EDGE_CURVE('',#860,#851,#868,.T.);
#868 = LINE('',#869,#870);
#869 = CARTESIAN_POINT('',(0.,106.05079019947,0.5));
#870 = VECTOR('',#871,1.);
#871 = DIRECTION('',(-1.,0.,-0.));
#872 = PLANE('',#873);
#873 = AXIS2_PLACEMENT_3D('',#874,#875,#876);
#874 = CARTESIAN_POINT('',(0.,0.,0.5));
#875 = DIRECTION('',(0.,0.,-1.));
#876 = DIRECTION('',(-1.,0.,-0.));
#877 = ADVANCED_FACE('',(#878),#884,.F.);
#878 = FACE_BOUND('',#879,.F.);
#879 = EDGE_LOOP('',(#880,#881,#882,#883));
#880 = ORIENTED_EDGE('',*,*,#792,.T.);
#881 = ORIENTED_EDGE('',*,*,#207,.F.);
#882 = ORIENTED_EDGE('',*,*,#699,.F.);
#883 = ORIENTED_EDGE('',*,*,#224,.T.);
#884 = CYLINDRICAL_SURFACE('',#885,2.1);
#885 = AXIS2_PLACEMENT_3D('',#886,#887,#888);
#886 = CARTESIAN_POINT('',(-85.,85.,3.));
#887 = DIRECTION('',(-0.,-0.,-1.));
#888 = DIRECTION('',(-1.,0.,0.));
#889 = ADVANCED_FACE('',(#890),#897,.F.);
#890 = FACE_BOUND('',#891,.F.);
#891 = EDGE_LOOP('',(#892,#893,#894,#895,#896));
#892 = ORIENTED_EDGE('',*,*,#782,.T.);
#893 = ORIENTED_EDGE('',*,*,#239,.F.);
#894 = ORIENTED_EDGE('',*,*,#99,.F.);
#895 = ORIENTED_EDGE('',*,*,#718,.F.);
#896 = ORIENTED_EDGE('',*,*,#256,.T.);
#897 = CYLINDRICAL_SURFACE('',#898,2.1);
#898 = AXIS2_PLACEMENT_3D('',#899,#900,#901);
#899 = CARTESIAN_POINT('',(85.,85.,3.));
#900 = DIRECTION('',(-0.,-0.,-1.));
#901 = DIRECTION('',(-1.,0.,0.));
#902 = ADVANCED_FACE('',(#903),#910,.F.);
#903 = FACE_BOUND('',#904,.F.);
#904 = EDGE_LOOP('',(#905,#906,#907,#908,#909));
#905 = ORIENTED_EDGE('',*,*,#772,.T.);
#906 = ORIENTED_EDGE('',*,*,#280,.F.);
#907 = ORIENTED_EDGE('',*,*,#150,.F.);
#908 = ORIENTED_EDGE('',*,*,#737,.F.);
#909 = ORIENTED_EDGE('',*,*,#297,.T.);
#910 = CYLINDRICAL_SURFACE('',#911,2.1);
#911 = AXIS2_PLACEMENT_3D('',#912,#913,#914);
#912 = CARTESIAN_POINT('',(85.,-85.,3.));
#913 = DIRECTION('',(-0.,-0.,-1.));
#914 = DIRECTION('',(-1.,0.,0.));
#915 = ADVANCED_FACE('',(#916),#922,.F.);
#916 = FACE_BOUND('',#917,.F.);
#917 = EDGE_LOOP('',(#918,#919,#920,#921));
#918 = ORIENTED_EDGE('',*,*,#802,.T.);
#919 = ORIENTED_EDGE('',*,*,#321,.F.);
#920 = ORIENTED_EDGE('',*,*,#755,.F.);
#921 = ORIENTED_EDGE('',*,*,#338,.T.);
#922 = CYLINDRICAL_SURFACE('',#923,2.1);
#923 = AXIS2_PLACEMENT_3D('',#924,#925,#926);
#924 = CARTESIAN_POINT('',(-85.,-85.,3.));
#925 = DIRECTION('',(-0.,-0.,-1.));
#926 = DIRECTION('',(-1.,0.,0.));
#927 = ADVANCED_FACE('',(#928),#944,.F.);
#928 = FACE_BOUND('',#929,.T.);
#929 = EDGE_LOOP('',(#930,#936,#937,#943));
#930 = ORIENTED_EDGE('',*,*,#931,.F.);
#931 = EDGE_CURVE('',#851,#812,#932,.T.);
#932 = LINE('',#933,#934);
#933 = CARTESIAN_POINT('',(-101.4629257417,106.05079019947,0.5));
#934 = VECTOR('',#935,1.);
#935 = DIRECTION('',(0.,-0.,-1.));
#936 = ORIENTED_EDGE('',*,*,#867,.F.);
#937 = ORIENTED_EDGE('',*,*,#938,.F.);
#938 = EDGE_CURVE('',#820,#860,#939,.T.);
#939 = LINE('',#940,#941);
#940 = CARTESIAN_POINT('',(-72.65076148691,106.05079019947,0.5));
#941 = VECTOR('',#942,1.);
#942 = DIRECTION('',(-0.,0.,1.));
#943 = ORIENTED_EDGE('',*,*,#819,.F.);
#944 = PLANE('',#945);
#945 = AXIS2_PLACEMENT_3D('',#946,#947,#948);
#946 = CARTESIAN_POINT('',(-72.65076148691,106.05079019947,0.5));
#947 = DIRECTION('',(0.,-1.,0.));
#948 = DIRECTION('',(0.,-0.,-1.));
#949 = ADVANCED_FACE('',(#950),#956,.F.);
#950 = FACE_BOUND('',#951,.T.);
#951 = EDGE_LOOP('',(#952,#953,#954,#955));
#952 = ORIENTED_EDGE('',*,*,#641,.F.);
#953 = ORIENTED_EDGE('',*,*,#850,.F.);
#954 = ORIENTED_EDGE('',*,*,#931,.T.);
#955 = ORIENTED_EDGE('',*,*,#811,.F.);
#956 = PLANE('',#957);
#957 = AXIS2_PLACEMENT_3D('',#958,#959,#960);
#958 = CARTESIAN_POINT('',(-101.4629257417,117.5,0.5));
#959 = DIRECTION('',(-1.,0.,0.));
#960 = DIRECTION('',(0.,0.,1.));
#961 = ADVANCED_FACE('',(#962),#968,.F.);
#962 = FACE_BOUND('',#963,.T.);
#963 = EDGE_LOOP('',(#964,#965,#966,#967));
#964 = ORIENTED_EDGE('',*,*,#938,.T.);
#965 = ORIENTED_EDGE('',*,*,#859,.F.);
#966 = ORIENTED_EDGE('',*,*,#623,.F.);
#967 = ORIENTED_EDGE('',*,*,#827,.F.);
#968 = PLANE('',#969);
#969 = AXIS2_PLACEMENT_3D('',#970,#971,#972);
#970 = CARTESIAN_POINT('',(-72.65076148691,117.5,0.5));
#971 = DIRECTION('',(1.,-0.,0.));
#972 = DIRECTION('',(0.,0.,-1.));
#973 = ( GEOMETRIC_REPRESENTATION_CONTEXT(3) 
GLOBAL_UNCERTAINTY_ASSIGNED_CONTEXT((#977)) GLOBAL_UNIT_ASSIGNED_CONTEXT
((#974,#975,#976)) REPRESENTATION_CONTEXT('Context #1',
  '3D Context with UNIT and UNCERTAINTY') );
#974 = ( LENGTH_UNIT() NAMED_UNIT(*) SI_UNIT(.MILLI.,.METRE.) );
#975 = ( NAMED_UNIT(*) PLANE_ANGLE_UNIT() SI_UNIT($,.RADIAN.) );
#976 = ( NAMED_UNIT(*) SI_UNIT($,.STERADIAN.) SOLID_ANGLE_UNIT() );
#977 = UNCERTAINTY_MEASURE_WITH_UNIT(LENGTH_MEASURE(1.E-07),#974,
  'distance_accuracy_value','confusion accuracy');
#978 = PRODUCT_RELATED_PRODUCT_CATEGORY('part',$,(#7));
#979 = MECHANICAL_DESIGN_GEOMETRIC_PRESENTATION_REPRESENTATION('',(#980)
  ,#973);
#980 = STYLED_ITEM('color',(#981),#15);
#981 = PRESENTATION_STYLE_ASSIGNMENT((#982,#988));
#982 = SURFACE_STYLE_USAGE(.BOTH.,#983);
#983 = SURFACE_SIDE_STYLE('',(#984));
#984 = SURFACE_STYLE_FILL_AREA(#985);
#985 = FILL_AREA_STYLE('',(#986));
#986 = FILL_AREA_STYLE_COLOUR('',#987);
#987 = COLOUR_RGB('',0.666666687201,0.698039232327,0.768627468855);
#988 = CURVE_STYLE('',#989,POSITIVE_LENGTH_MEASURE(0.1),#990);
#989 = DRAUGHTING_PRE_DEFINED_CURVE_FONT('continuous');
#990 = COLOUR_RGB('',9.803921802644E-02,9.803921802644E-02,
  9.803921802644E-02);
ENDSEC;
END-ISO-10303-21;
