ISO-10303-21;
HEADER;
FILE_DESCRIPTION(('FreeCAD Model'),'2;1');
FILE_NAME('Open CASCADE Shape Model','2026-08-31T06:05:36',('Author'),(
    ''),'Open CASCADE STEP processor 7.9','FreeCAD','Unknown');
FILE_SCHEMA(('AUTOMOTIVE_DESIGN { 1 0 10303 214 1 1 1 1 }'));
ENDSEC;
DATA;
#1 = APPLICATION_PROTOCOL_DEFINITION('international standard',
  'automotive_design',2000,#2);
#2 = APPLICATION_CONTEXT(
  'core data for automotive mechanical design processes');
#3 = SHAPE_DEFINITION_REPRESENTATION(#4,#10);
#4 = PRODUCT_DEFINITION_SHAPE('','',#5);
#5 = PRODUCT_DEFINITION('design','',#6,#9);
#6 = PRODUCT_DEFINITION_FORMATION('','',#7);
#7 = PRODUCT('M4X30 Flush Head Screw_Standard',
  'M4X30 Flush Head Screw_Standard','',(#8));
#8 = PRODUCT_CONTEXT('',#2,'mechanical');
#9 = PRODUCT_DEFINITION_CONTEXT('part definition',#2,'design');
#10 = ADVANCED_BREP_SHAPE_REPRESENTATION('',(#11,#15),#777);
#11 = AXIS2_PLACEMENT_3D('',#12,#13,#14);
#12 = CARTESIAN_POINT('',(0.,0.,0.));
#13 = DIRECTION('',(0.,0.,1.));
#14 = DIRECTION('',(1.,0.,-0.));
#15 = MANIFOLD_SOLID_BREP('',#16);
#16 = CLOSED_SHELL('',(#17,#73,#111,#221,#239,#263,#273,#363,#395,#427,
    #459,#491,#514,#537,#560,#583,#608,#626,#651,#669,#694,#712,#737,
    #755));
#17 = ADVANCED_FACE('',(#18),#56,.F.);
#18 = FACE_BOUND('',#19,.F.);
#19 = EDGE_LOOP('',(#20,#31,#40,#49));
#20 = ORIENTED_EDGE('',*,*,#21,.T.);
#21 = EDGE_CURVE('',#22,#24,#26,.T.);
#22 = VERTEX_POINT('',#23);
#23 = CARTESIAN_POINT('',(2.562842712475,0.,-2.));
#24 = VERTEX_POINT('',#25);
#25 = CARTESIAN_POINT('',(2.421421356237,0.,-2.058578643763));
#26 = CIRCLE('',#27,0.2);
#27 = AXIS2_PLACEMENT_3D('',#28,#29,#30);
#28 = CARTESIAN_POINT('',(2.562842712475,0.,-2.2));
#29 = DIRECTION('',(0.,-1.,0.));
#30 = DIRECTION('',(0.,0.,-1.));
#31 = ORIENTED_EDGE('',*,*,#32,.T.);
#32 = EDGE_CURVE('',#24,#33,#35,.T.);
#33 = VERTEX_POINT('',#34);
#34 = CARTESIAN_POINT('',(2.421421356237,0.,2.058578643763));
#35 = CIRCLE('',#36,2.058578643763);
#36 = AXIS2_PLACEMENT_3D('',#37,#38,#39);
#37 = CARTESIAN_POINT('',(2.421421356237,0.,0.));
#38 = DIRECTION('',(-1.,0.,0.));
#39 = DIRECTION('',(0.,0.,-1.));
#40 = ORIENTED_EDGE('',*,*,#41,.F.);
#41 = EDGE_CURVE('',#42,#33,#44,.T.);
#42 = VERTEX_POINT('',#43);
#43 = CARTESIAN_POINT('',(2.562842712475,0.,2.));
#44 = CIRCLE('',#45,0.2);
#45 = AXIS2_PLACEMENT_3D('',#46,#47,#48);
#46 = CARTESIAN_POINT('',(2.562842712475,-2.7E-16,2.2));
#47 = DIRECTION('',(0.,1.,1.2E-16));
#48 = DIRECTION('',(0.,-1.2E-16,1.));
#49 = ORIENTED_EDGE('',*,*,#50,.T.);
#50 = EDGE_CURVE('',#42,#22,#51,.T.);
#51 = CIRCLE('',#52,2.);
#52 = AXIS2_PLACEMENT_3D('',#53,#54,#55);
#53 = CARTESIAN_POINT('',(2.562842712475,0.,0.));
#54 = DIRECTION('',(1.,0.,-0.));
#55 = DIRECTION('',(0.,0.,1.));
#56 = ( BOUNDED_SURFACE() B_SPLINE_SURFACE(3,3,(
    (#57,#58,#59,#60)
    ,(#61,#62,#63,#64)
    ,(#65,#66,#67,#68)
    ,(#69,#70,#71,#72
)),.UNSPECIFIED.,.F.,.F.,.F.) B_SPLINE_SURFACE_WITH_KNOTS((4,4),(4,4),(
    0.,1.),(0.,1.),.PIECEWISE_BEZIER_KNOTS.) 
GEOMETRIC_REPRESENTATION_ITEM() RATIONAL_B_SPLINE_SURFACE((
    (1.,0.333333333333,0.333333333333,1.)
    ,(0.949253021674,0.316417673891,0.316417673891,0.949253021674)
    ,(0.949253021674,0.316417673891,0.316417673891,0.949253021674)
,(1.,0.333333333333,0.333333333333,1.
))) REPRESENTATION_ITEM('') SURFACE() );
#57 = CARTESIAN_POINT('',(2.562842712475,3.5E-16,-2.));
#58 = CARTESIAN_POINT('',(2.562842712475,-4.,-2.));
#59 = CARTESIAN_POINT('',(2.562842712475,-4.,2.));
#60 = CARTESIAN_POINT('',(2.562842712475,-5.9E-16,2.));
#61 = CARTESIAN_POINT('',(2.509090492062,3.5E-16,-2.));
#62 = CARTESIAN_POINT('',(2.509090492062,-4.,-2.));
#63 = CARTESIAN_POINT('',(2.509090492062,-4.,2.));
#64 = CARTESIAN_POINT('',(2.509090492062,-5.9E-16,2.));
#65 = CARTESIAN_POINT('',(2.459429915795,3.5E-16,-2.020570084205));
#66 = CARTESIAN_POINT('',(2.459429915795,-4.04114016841,-2.020570084205)
  );
#67 = CARTESIAN_POINT('',(2.459429915795,-4.04114016841,2.020570084205)
  );
#68 = CARTESIAN_POINT('',(2.459429915795,-6.E-16,2.020570084205));
#69 = CARTESIAN_POINT('',(2.421421356237,3.6E-16,-2.058578643763));
#70 = CARTESIAN_POINT('',(2.421421356237,-4.117157287525,-2.058578643763
    ));
#71 = CARTESIAN_POINT('',(2.421421356237,-4.117157287525,2.058578643763)
  );
#72 = CARTESIAN_POINT('',(2.421421356237,-6.1E-16,2.058578643763));
#73 = ADVANCED_FACE('',(#74),#106,.T.);
#74 = FACE_BOUND('',#75,.T.);
#75 = EDGE_LOOP('',(#76,#87,#93,#100));
#76 = ORIENTED_EDGE('',*,*,#77,.T.);
#77 = EDGE_CURVE('',#78,#80,#82,.T.);
#78 = VERTEX_POINT('',#79);
#79 = CARTESIAN_POINT('',(29.5,0.,2.));
#80 = VERTEX_POINT('',#81);
#81 = CARTESIAN_POINT('',(29.5,0.,-2.));
#82 = CIRCLE('',#83,2.);
#83 = AXIS2_PLACEMENT_3D('',#84,#85,#86);
#84 = CARTESIAN_POINT('',(29.5,0.,0.));
#85 = DIRECTION('',(-1.,0.,0.));
#86 = DIRECTION('',(0.,0.,1.));
#87 = ORIENTED_EDGE('',*,*,#88,.T.);
#88 = EDGE_CURVE('',#80,#22,#89,.T.);
#89 = LINE('',#90,#91);
#90 = CARTESIAN_POINT('',(-0.587069180986,2.4E-16,-2.));
#91 = VECTOR('',#92,1.);
#92 = DIRECTION('',(-1.,0.,0.));
#93 = ORIENTED_EDGE('',*,*,#94,.T.);
#94 = EDGE_CURVE('',#22,#42,#95,.T.);
#95 = CIRCLE('',#96,2.);
#96 = AXIS2_PLACEMENT_3D('',#97,#98,#99);
#97 = CARTESIAN_POINT('',(2.562842712475,0.,0.));
#98 = DIRECTION('',(1.,0.,-0.));
#99 = DIRECTION('',(0.,0.,1.));
#100 = ORIENTED_EDGE('',*,*,#101,.F.);
#101 = EDGE_CURVE('',#78,#42,#102,.T.);
#102 = LINE('',#103,#104);
#103 = CARTESIAN_POINT('',(-0.587069180986,0.,2.));
#104 = VECTOR('',#105,1.);
#105 = DIRECTION('',(-1.,0.,0.));
#106 = CYLINDRICAL_SURFACE('',#107,2.);
#107 = AXIS2_PLACEMENT_3D('',#108,#109,#110);
#108 = CARTESIAN_POINT('',(-0.587069180986,0.,0.));
#109 = DIRECTION('',(-1.,0.,0.));
#110 = DIRECTION('',(0.,0.,1.));
#111 = ADVANCED_FACE('',(#112),#216,.T.);
#112 = FACE_BOUND('',#113,.T.);
#113 = EDGE_LOOP('',(#114,#121,#129,#138,#147,#156,#165,#174,#183,#192,
    #201,#210));
#114 = ORIENTED_EDGE('',*,*,#115,.T.);
#115 = EDGE_CURVE('',#33,#24,#116,.T.);
#116 = CIRCLE('',#117,2.058578643763);
#117 = AXIS2_PLACEMENT_3D('',#118,#119,#120);
#118 = CARTESIAN_POINT('',(2.421421356237,0.,0.));
#119 = DIRECTION('',(-1.,0.,0.));
#120 = DIRECTION('',(0.,0.,-1.));
#121 = ORIENTED_EDGE('',*,*,#122,.T.);
#122 = EDGE_CURVE('',#24,#123,#125,.T.);
#123 = VERTEX_POINT('',#124);
#124 = CARTESIAN_POINT('',(1.000000000033,0.,-3.479999999968));
#125 = LINE('',#126,#127);
#126 = CARTESIAN_POINT('',(0.715000000071,4.6E-16,-3.76499999993));
#127 = VECTOR('',#128,1.);
#128 = DIRECTION('',(-0.707106781187,9.E-17,-0.707106781187));
#129 = ORIENTED_EDGE('',*,*,#130,.F.);
#130 = EDGE_CURVE('',#131,#123,#133,.T.);
#131 = VERTEX_POINT('',#132);
#132 = CARTESIAN_POINT('',(1.000000000017,0.550618510764,-3.436163450055
    ));
#133 = CIRCLE('',#134,3.479999999968);
#134 = AXIS2_PLACEMENT_3D('',#135,#136,#137);
#135 = CARTESIAN_POINT('',(1.000000000033,0.,0.));
#136 = DIRECTION('',(-1.,0.,0.));
#137 = DIRECTION('',(0.,0.,1.));
#138 = ORIENTED_EDGE('',*,*,#139,.T.);
#139 = EDGE_CURVE('',#131,#140,#142,.T.);
#140 = VERTEX_POINT('',#141);
#141 = CARTESIAN_POINT('',(0.71500000001,0.550618510764,-3.724519332153)
  );
#142 = B_SPLINE_CURVE_WITH_KNOTS('',3,(#143,#144,#145,#146),
  .UNSPECIFIED.,.F.,.F.,(4,4),(1.376E-14,4.054307767459E-04),
  .PIECEWISE_BEZIER_KNOTS.);
#143 = CARTESIAN_POINT('',(1.000000000017,0.550618510764,-3.436163450055
    ));
#144 = CARTESIAN_POINT('',(0.90504664843,0.550618510764,-3.532328160589)
  );
#145 = CARTESIAN_POINT('',(0.81004305766,0.550618510764,-3.62844328041)
  );
#146 = CARTESIAN_POINT('',(0.71500000001,0.550618510764,-3.724519332153)
  );
#147 = ORIENTED_EDGE('',*,*,#148,.T.);
#148 = EDGE_CURVE('',#140,#149,#151,.T.);
#149 = VERTEX_POINT('',#150);
#150 = CARTESIAN_POINT('',(0.715000000007,3.761728344432,-0.156923110622
    ));
#151 = CIRCLE('',#152,3.764999999987);
#152 = AXIS2_PLACEMENT_3D('',#153,#154,#155);
#153 = CARTESIAN_POINT('',(0.715000000014,0.,0.));
#154 = DIRECTION('',(1.,-0.,0.));
#155 = DIRECTION('',(0.,0.,-1.));
#156 = ORIENTED_EDGE('',*,*,#157,.T.);
#157 = EDGE_CURVE('',#149,#158,#160,.T.);
#158 = VERTEX_POINT('',#159);
#159 = CARTESIAN_POINT('',(1.00000000002,3.476460144633,-0.156923110622)
  );
#160 = B_SPLINE_CURVE_WITH_KNOTS('',3,(#161,#162,#163,#164),
  .UNSPECIFIED.,.F.,.F.,(4,4),(5.04E-15,4.03240555783E-04),
  .PIECEWISE_BEZIER_KNOTS.);
#161 = CARTESIAN_POINT('',(0.715000000007,3.761728344432,-0.156923110622
    ));
#162 = CARTESIAN_POINT('',(0.810003388263,3.666642329699,-0.156923110622
    ));
#163 = CARTESIAN_POINT('',(0.905003666158,3.57155320714,-0.156923110622)
  );
#164 = CARTESIAN_POINT('',(1.00000000002,3.476460144633,-0.156923110622)
  );
#165 = ORIENTED_EDGE('',*,*,#166,.F.);
#166 = EDGE_CURVE('',#167,#158,#169,.T.);
#167 = VERTEX_POINT('',#168);
#168 = CARTESIAN_POINT('',(1.000000000017,3.456568160328,0.403158223159)
  );
#169 = CIRCLE('',#170,3.479999999968);
#170 = AXIS2_PLACEMENT_3D('',#171,#172,#173);
#171 = CARTESIAN_POINT('',(1.000000000033,0.,0.));
#172 = DIRECTION('',(-1.,0.,0.));
#173 = DIRECTION('',(0.,0.,1.));
#174 = ORIENTED_EDGE('',*,*,#175,.T.);
#175 = EDGE_CURVE('',#167,#176,#178,.T.);
#176 = VERTEX_POINT('',#177);
#177 = CARTESIAN_POINT('',(0.71500000001,3.74335256783,0.403158223159));
#178 = B_SPLINE_CURVE_WITH_KNOTS('',3,(#179,#180,#181,#182),
  .UNSPECIFIED.,.F.,.F.,(4,4),(1.366E-14,4.043146007489E-04),
  .PIECEWISE_BEZIER_KNOTS.);
#179 = CARTESIAN_POINT('',(1.000000000017,3.456568160328,0.403158223159)
  );
#180 = CARTESIAN_POINT('',(0.905024594313,3.552187397824,0.403158223159)
  );
#181 = CARTESIAN_POINT('',(0.810022715829,3.647780345177,0.403158223159)
  );
#182 = CARTESIAN_POINT('',(0.71500000001,3.74335256783,0.403158223159));
#183 = ORIENTED_EDGE('',*,*,#184,.T.);
#184 = EDGE_CURVE('',#176,#185,#187,.T.);
#185 = VERTEX_POINT('',#186);
#186 = CARTESIAN_POINT('',(0.715000000007,0.550618510764,3.72451933215)
  );
#187 = CIRCLE('',#188,3.764999999987);
#188 = AXIS2_PLACEMENT_3D('',#189,#190,#191);
#189 = CARTESIAN_POINT('',(0.715000000014,0.,0.));
#190 = DIRECTION('',(1.,-0.,0.));
#191 = DIRECTION('',(0.,0.,-1.));
#192 = ORIENTED_EDGE('',*,*,#193,.T.);
#193 = EDGE_CURVE('',#185,#194,#196,.T.);
#194 = VERTEX_POINT('',#195);
#195 = CARTESIAN_POINT('',(1.00000000002,0.550618510764,3.436163450052)
  );
#196 = B_SPLINE_CURVE_WITH_KNOTS('',3,(#197,#198,#199,#200),
  .UNSPECIFIED.,.F.,.F.,(4,4),(5.11E-15,4.054307767694E-04),
  .PIECEWISE_BEZIER_KNOTS.);
#197 = CARTESIAN_POINT('',(0.715000000007,0.550618510764,3.72451933215)
  );
#198 = CARTESIAN_POINT('',(0.810043057658,0.550618510764,3.628443280412)
  );
#199 = CARTESIAN_POINT('',(0.905046648429,0.550618510764,3.53232816059)
  );
#200 = CARTESIAN_POINT('',(1.00000000002,0.550618510764,3.436163450052)
  );
#201 = ORIENTED_EDGE('',*,*,#202,.F.);
#202 = EDGE_CURVE('',#203,#194,#205,.T.);
#203 = VERTEX_POINT('',#204);
#204 = CARTESIAN_POINT('',(1.000000000033,0.,3.479999999968));
#205 = CIRCLE('',#206,3.479999999968);
#206 = AXIS2_PLACEMENT_3D('',#207,#208,#209);
#207 = CARTESIAN_POINT('',(1.000000000033,0.,0.));
#208 = DIRECTION('',(-1.,0.,0.));
#209 = DIRECTION('',(0.,0.,1.));
#210 = ORIENTED_EDGE('',*,*,#211,.F.);
#211 = EDGE_CURVE('',#33,#203,#212,.T.);
#212 = LINE('',#213,#214);
#213 = CARTESIAN_POINT('',(0.715000000071,0.,3.76499999993));
#214 = VECTOR('',#215,1.);
#215 = DIRECTION('',(-0.707106781187,0.,0.707106781187));
#216 = CONICAL_SURFACE('',#217,3.76499999993,0.785398163397);
#217 = AXIS2_PLACEMENT_3D('',#218,#219,#220);
#218 = CARTESIAN_POINT('',(0.715000000071,0.,0.));
#219 = DIRECTION('',(-1.,0.,0.));
#220 = DIRECTION('',(0.,0.,1.));
#221 = ADVANCED_FACE('',(#222),#234,.T.);
#222 = FACE_BOUND('',#223,.T.);
#223 = EDGE_LOOP('',(#224,#225,#232,#233));
#224 = ORIENTED_EDGE('',*,*,#88,.F.);
#225 = ORIENTED_EDGE('',*,*,#226,.T.);
#226 = EDGE_CURVE('',#80,#78,#227,.T.);
#227 = CIRCLE('',#228,2.);
#228 = AXIS2_PLACEMENT_3D('',#229,#230,#231);
#229 = CARTESIAN_POINT('',(29.5,0.,0.));
#230 = DIRECTION('',(-1.,0.,0.));
#231 = DIRECTION('',(0.,0.,1.));
#232 = ORIENTED_EDGE('',*,*,#101,.T.);
#233 = ORIENTED_EDGE('',*,*,#50,.T.);
#234 = CYLINDRICAL_SURFACE('',#235,2.);
#235 = AXIS2_PLACEMENT_3D('',#236,#237,#238);
#236 = CARTESIAN_POINT('',(-0.587069180986,0.,0.));
#237 = DIRECTION('',(-1.,0.,0.));
#238 = DIRECTION('',(0.,0.,1.));
#239 = ADVANCED_FACE('',(#240),#246,.F.);
#240 = FACE_BOUND('',#241,.F.);
#241 = EDGE_LOOP('',(#242,#243,#244,#245));
#242 = ORIENTED_EDGE('',*,*,#115,.T.);
#243 = ORIENTED_EDGE('',*,*,#21,.F.);
#244 = ORIENTED_EDGE('',*,*,#94,.T.);
#245 = ORIENTED_EDGE('',*,*,#41,.T.);
#246 = ( BOUNDED_SURFACE() B_SPLINE_SURFACE(3,3,(
    (#247,#248,#249,#250)
    ,(#251,#252,#253,#254)
    ,(#255,#256,#257,#258)
    ,(#259,#260,#261,#262
)),.UNSPECIFIED.,.F.,.F.,.F.) B_SPLINE_SURFACE_WITH_KNOTS((4,4),(4,4),(
    0.,1.),(0.,1.),.PIECEWISE_BEZIER_KNOTS.) 
GEOMETRIC_REPRESENTATION_ITEM() RATIONAL_B_SPLINE_SURFACE((
    (1.,0.333333333333,0.333333333333,1.)
    ,(0.949253021674,0.316417673891,0.316417673891,0.949253021674)
    ,(0.949253021674,0.316417673891,0.316417673891,0.949253021674)
,(1.,0.333333333333,0.333333333333,1.
))) REPRESENTATION_ITEM('') SURFACE() );
#247 = CARTESIAN_POINT('',(2.562842712475,-2.4E-16,2.));
#248 = CARTESIAN_POINT('',(2.562842712475,4.,2.));
#249 = CARTESIAN_POINT('',(2.562842712475,4.,-2.));
#250 = CARTESIAN_POINT('',(2.562842712475,4.9E-16,-2.));
#251 = CARTESIAN_POINT('',(2.509090492062,-2.4E-16,2.));
#252 = CARTESIAN_POINT('',(2.509090492062,4.,2.));
#253 = CARTESIAN_POINT('',(2.509090492062,4.,-2.));
#254 = CARTESIAN_POINT('',(2.509090492062,4.9E-16,-2.));
#255 = CARTESIAN_POINT('',(2.459429915795,-2.5E-16,2.020570084205));
#256 = CARTESIAN_POINT('',(2.459429915795,4.04114016841,2.020570084205)
  );
#257 = CARTESIAN_POINT('',(2.459429915795,4.04114016841,-2.020570084205)
  );
#258 = CARTESIAN_POINT('',(2.459429915795,4.9E-16,-2.020570084205));
#259 = CARTESIAN_POINT('',(2.421421356237,-2.5E-16,2.058578643763));
#260 = CARTESIAN_POINT('',(2.421421356237,4.117157287525,2.058578643763)
  );
#261 = CARTESIAN_POINT('',(2.421421356237,4.117157287525,-2.058578643763
    ));
#262 = CARTESIAN_POINT('',(2.421421356237,5.E-16,-2.058578643763));
#263 = ADVANCED_FACE('',(#264),#268,.F.);
#264 = FACE_BOUND('',#265,.T.);
#265 = EDGE_LOOP('',(#266,#267));
#266 = ORIENTED_EDGE('',*,*,#77,.F.);
#267 = ORIENTED_EDGE('',*,*,#226,.F.);
#268 = PLANE('',#269);
#269 = AXIS2_PLACEMENT_3D('',#270,#271,#272);
#270 = CARTESIAN_POINT('',(29.5,0.,0.));
#271 = DIRECTION('',(-1.,0.,0.));
#272 = DIRECTION('',(0.,0.,1.));
#273 = ADVANCED_FACE('',(#274),#358,.T.);
#274 = FACE_BOUND('',#275,.T.);
#275 = EDGE_LOOP('',(#276,#277,#278,#279,#288,#297,#306,#315,#324,#333,
    #342,#351));
#276 = ORIENTED_EDGE('',*,*,#122,.F.);
#277 = ORIENTED_EDGE('',*,*,#32,.T.);
#278 = ORIENTED_EDGE('',*,*,#211,.T.);
#279 = ORIENTED_EDGE('',*,*,#280,.F.);
#280 = EDGE_CURVE('',#281,#203,#283,.T.);
#281 = VERTEX_POINT('',#282);
#282 = CARTESIAN_POINT('',(1.000000000017,-0.35570924384,3.461772802155)
  );
#283 = CIRCLE('',#284,3.479999999968);
#284 = AXIS2_PLACEMENT_3D('',#285,#286,#287);
#285 = CARTESIAN_POINT('',(1.000000000033,0.,0.));
#286 = DIRECTION('',(-1.,0.,0.));
#287 = DIRECTION('',(0.,0.,1.));
#288 = ORIENTED_EDGE('',*,*,#289,.T.);
#289 = EDGE_CURVE('',#281,#290,#292,.T.);
#290 = VERTEX_POINT('',#291);
#291 = CARTESIAN_POINT('',(0.71500000001,-0.35570924384,3.748159005942)
  );
#292 = B_SPLINE_CURVE_WITH_KNOTS('',3,(#293,#294,#295,#296),
  .UNSPECIFIED.,.F.,.F.,(4,4),(1.364E-14,4.040322483567E-04),
  .PIECEWISE_BEZIER_KNOTS.);
#293 = CARTESIAN_POINT('',(1.000000000017,-0.35570924384,3.461772802155)
  );
#294 = CARTESIAN_POINT('',(0.905019064616,-0.35570924384,3.557253838631)
  );
#295 = CARTESIAN_POINT('',(0.810017611375,-0.35570924384,3.652714467371)
  );
#296 = CARTESIAN_POINT('',(0.71500000001,-0.35570924384,3.748159005942)
  );
#297 = ORIENTED_EDGE('',*,*,#298,.T.);
#298 = EDGE_CURVE('',#290,#299,#301,.T.);
#299 = VERTEX_POINT('',#300);
#300 = CARTESIAN_POINT('',(0.715000000007,-3.743352567826,0.403158223159
    ));
#301 = CIRCLE('',#302,3.764999999987);
#302 = AXIS2_PLACEMENT_3D('',#303,#304,#305);
#303 = CARTESIAN_POINT('',(0.715000000014,0.,0.));
#304 = DIRECTION('',(1.,0.,0.));
#305 = DIRECTION('',(0.,-8.9E-16,-1.));
#306 = ORIENTED_EDGE('',*,*,#307,.T.);
#307 = EDGE_CURVE('',#299,#308,#310,.T.);
#308 = VERTEX_POINT('',#309);
#309 = CARTESIAN_POINT('',(1.00000000002,-3.456568160324,0.403158223159)
  );
#310 = B_SPLINE_CURVE_WITH_KNOTS('',3,(#311,#312,#313,#314),
  .UNSPECIFIED.,.F.,.F.,(4,4),(5.08E-15,4.043146007724E-04),
  .PIECEWISE_BEZIER_KNOTS.);
#311 = CARTESIAN_POINT('',(0.715000000007,-3.743352567826,0.403158223159
    ));
#312 = CARTESIAN_POINT('',(0.810022715827,-3.647780345179,0.403158223159
    ));
#313 = CARTESIAN_POINT('',(0.905024594312,-3.552187397825,0.403158223159
    ));
#314 = CARTESIAN_POINT('',(1.00000000002,-3.456568160324,0.403158223159)
  );
#315 = ORIENTED_EDGE('',*,*,#316,.F.);
#316 = EDGE_CURVE('',#317,#308,#319,.T.);
#317 = VERTEX_POINT('',#318);
#318 = CARTESIAN_POINT('',(1.000000000017,-3.476460144636,
    -0.156923110622));
#319 = CIRCLE('',#320,3.479999999968);
#320 = AXIS2_PLACEMENT_3D('',#321,#322,#323);
#321 = CARTESIAN_POINT('',(1.000000000033,0.,0.));
#322 = DIRECTION('',(-1.,0.,0.));
#323 = DIRECTION('',(0.,0.,1.));
#324 = ORIENTED_EDGE('',*,*,#325,.T.);
#325 = EDGE_CURVE('',#317,#326,#328,.T.);
#326 = VERTEX_POINT('',#327);
#327 = CARTESIAN_POINT('',(0.71500000001,-3.761728344436,-0.156923110622
    ));
#328 = B_SPLINE_CURVE_WITH_KNOTS('',3,(#329,#330,#331,#332),
  .UNSPECIFIED.,.F.,.F.,(4,4),(1.357E-14,4.032405557596E-04),
  .PIECEWISE_BEZIER_KNOTS.);
#329 = CARTESIAN_POINT('',(1.000000000017,-3.476460144636,
    -0.156923110622));
#330 = CARTESIAN_POINT('',(0.905003666159,-3.571553207139,
    -0.156923110622));
#331 = CARTESIAN_POINT('',(0.810003388265,-3.666642329697,
    -0.156923110622));
#332 = CARTESIAN_POINT('',(0.71500000001,-3.761728344436,-0.156923110622
    ));
#333 = ORIENTED_EDGE('',*,*,#334,.T.);
#334 = EDGE_CURVE('',#326,#335,#337,.T.);
#335 = VERTEX_POINT('',#336);
#336 = CARTESIAN_POINT('',(0.715000000007,-0.35570924384,-3.748159005939
    ));
#337 = CIRCLE('',#338,3.764999999987);
#338 = AXIS2_PLACEMENT_3D('',#339,#340,#341);
#339 = CARTESIAN_POINT('',(0.715000000014,0.,0.));
#340 = DIRECTION('',(1.,0.,0.));
#341 = DIRECTION('',(0.,-1.78E-15,-1.));
#342 = ORIENTED_EDGE('',*,*,#343,.T.);
#343 = EDGE_CURVE('',#335,#344,#346,.T.);
#344 = VERTEX_POINT('',#345);
#345 = CARTESIAN_POINT('',(1.00000000002,-0.35570924384,-3.461772802151)
  );
#346 = B_SPLINE_CURVE_WITH_KNOTS('',3,(#347,#348,#349,#350),
  .UNSPECIFIED.,.F.,.F.,(4,4),(5.07E-15,4.040322483802E-04),
  .PIECEWISE_BEZIER_KNOTS.);
#347 = CARTESIAN_POINT('',(0.715000000007,-0.35570924384,-3.748159005939
    ));
#348 = CARTESIAN_POINT('',(0.810017611373,-0.35570924384,-3.652714467373
    ));
#349 = CARTESIAN_POINT('',(0.905019064615,-0.35570924384,-3.557253838632
    ));
#350 = CARTESIAN_POINT('',(1.00000000002,-0.35570924384,-3.461772802151)
  );
#351 = ORIENTED_EDGE('',*,*,#352,.F.);
#352 = EDGE_CURVE('',#123,#344,#353,.T.);
#353 = CIRCLE('',#354,3.479999999968);
#354 = AXIS2_PLACEMENT_3D('',#355,#356,#357);
#355 = CARTESIAN_POINT('',(1.000000000033,0.,0.));
#356 = DIRECTION('',(-1.,0.,0.));
#357 = DIRECTION('',(0.,0.,1.));
#358 = CONICAL_SURFACE('',#359,3.76499999993,0.785398163397);
#359 = AXIS2_PLACEMENT_3D('',#360,#361,#362);
#360 = CARTESIAN_POINT('',(0.715000000071,0.,0.));
#361 = DIRECTION('',(-1.,0.,0.));
#362 = DIRECTION('',(0.,0.,1.));
#363 = ADVANCED_FACE('',(#364),#390,.T.);
#364 = FACE_BOUND('',#365,.T.);
#365 = EDGE_LOOP('',(#366,#374,#383,#389));
#366 = ORIENTED_EDGE('',*,*,#367,.T.);
#367 = EDGE_CURVE('',#290,#368,#370,.T.);
#368 = VERTEX_POINT('',#369);
#369 = CARTESIAN_POINT('',(0.,-0.35570924384,3.748159005945));
#370 = LINE('',#371,#372);
#371 = CARTESIAN_POINT('',(1.,-0.35570924384,3.748159005945));
#372 = VECTOR('',#373,1.);
#373 = DIRECTION('',(-1.,-0.,-0.));
#374 = ORIENTED_EDGE('',*,*,#375,.T.);
#375 = EDGE_CURVE('',#368,#376,#378,.T.);
#376 = VERTEX_POINT('',#377);
#377 = CARTESIAN_POINT('',(0.,-3.743352567833,0.403158223159));
#378 = CIRCLE('',#379,3.765);
#379 = AXIS2_PLACEMENT_3D('',#380,#381,#382);
#380 = CARTESIAN_POINT('',(0.,0.,0.));
#381 = DIRECTION('',(1.,0.,0.));
#382 = DIRECTION('',(0.,0.,-1.));
#383 = ORIENTED_EDGE('',*,*,#384,.T.);
#384 = EDGE_CURVE('',#376,#299,#385,.T.);
#385 = LINE('',#386,#387);
#386 = CARTESIAN_POINT('',(1.,-3.743352567833,0.403158223159));
#387 = VECTOR('',#388,1.);
#388 = DIRECTION('',(1.,0.,0.));
#389 = ORIENTED_EDGE('',*,*,#298,.F.);
#390 = CYLINDRICAL_SURFACE('',#391,3.765);
#391 = AXIS2_PLACEMENT_3D('',#392,#393,#394);
#392 = CARTESIAN_POINT('',(11.853138686131,0.,0.));
#393 = DIRECTION('',(1.,0.,0.));
#394 = DIRECTION('',(0.,0.,-1.));
#395 = ADVANCED_FACE('',(#396),#422,.T.);
#396 = FACE_BOUND('',#397,.T.);
#397 = EDGE_LOOP('',(#398,#406,#415,#421));
#398 = ORIENTED_EDGE('',*,*,#399,.T.);
#399 = EDGE_CURVE('',#326,#400,#402,.T.);
#400 = VERTEX_POINT('',#401);
#401 = CARTESIAN_POINT('',(0.,-3.761728344439,-0.156923110622));
#402 = LINE('',#403,#404);
#403 = CARTESIAN_POINT('',(1.,-3.761728344439,-0.156923110622));
#404 = VECTOR('',#405,1.);
#405 = DIRECTION('',(-1.,0.,-0.));
#406 = ORIENTED_EDGE('',*,*,#407,.T.);
#407 = EDGE_CURVE('',#400,#408,#410,.T.);
#408 = VERTEX_POINT('',#409);
#409 = CARTESIAN_POINT('',(0.,-0.35570924384,-3.748159005945));
#410 = CIRCLE('',#411,3.765);
#411 = AXIS2_PLACEMENT_3D('',#412,#413,#414);
#412 = CARTESIAN_POINT('',(0.,0.,0.));
#413 = DIRECTION('',(1.,0.,0.));
#414 = DIRECTION('',(0.,0.,-1.));
#415 = ORIENTED_EDGE('',*,*,#416,.T.);
#416 = EDGE_CURVE('',#408,#335,#417,.T.);
#417 = LINE('',#418,#419);
#418 = CARTESIAN_POINT('',(1.,-0.35570924384,-3.748159005945));
#419 = VECTOR('',#420,1.);
#420 = DIRECTION('',(1.,0.,0.));
#421 = ORIENTED_EDGE('',*,*,#334,.F.);
#422 = CYLINDRICAL_SURFACE('',#423,3.765);
#423 = AXIS2_PLACEMENT_3D('',#424,#425,#426);
#424 = CARTESIAN_POINT('',(11.853138686131,0.,0.));
#425 = DIRECTION('',(1.,0.,0.));
#426 = DIRECTION('',(0.,0.,-1.));
#427 = ADVANCED_FACE('',(#428),#454,.T.);
#428 = FACE_BOUND('',#429,.T.);
#429 = EDGE_LOOP('',(#430,#438,#447,#453));
#430 = ORIENTED_EDGE('',*,*,#431,.T.);
#431 = EDGE_CURVE('',#176,#432,#434,.T.);
#432 = VERTEX_POINT('',#433);
#433 = CARTESIAN_POINT('',(0.,3.743352567833,0.403158223159));
#434 = LINE('',#435,#436);
#435 = CARTESIAN_POINT('',(1.,3.743352567833,0.403158223159));
#436 = VECTOR('',#437,1.);
#437 = DIRECTION('',(-1.,-0.,-0.));
#438 = ORIENTED_EDGE('',*,*,#439,.T.);
#439 = EDGE_CURVE('',#432,#440,#442,.T.);
#440 = VERTEX_POINT('',#441);
#441 = CARTESIAN_POINT('',(0.,0.550618510764,3.724519332156));
#442 = CIRCLE('',#443,3.765);
#443 = AXIS2_PLACEMENT_3D('',#444,#445,#446);
#444 = CARTESIAN_POINT('',(0.,0.,0.));
#445 = DIRECTION('',(1.,0.,0.));
#446 = DIRECTION('',(0.,0.,-1.));
#447 = ORIENTED_EDGE('',*,*,#448,.T.);
#448 = EDGE_CURVE('',#440,#185,#449,.T.);
#449 = LINE('',#450,#451);
#450 = CARTESIAN_POINT('',(1.,0.550618510764,3.724519332156));
#451 = VECTOR('',#452,1.);
#452 = DIRECTION('',(1.,-0.,0.));
#453 = ORIENTED_EDGE('',*,*,#184,.F.);
#454 = CYLINDRICAL_SURFACE('',#455,3.765);
#455 = AXIS2_PLACEMENT_3D('',#456,#457,#458);
#456 = CARTESIAN_POINT('',(11.853138686131,0.,0.));
#457 = DIRECTION('',(1.,0.,0.));
#458 = DIRECTION('',(0.,0.,-1.));
#459 = ADVANCED_FACE('',(#460),#486,.T.);
#460 = FACE_BOUND('',#461,.T.);
#461 = EDGE_LOOP('',(#462,#470,#479,#485));
#462 = ORIENTED_EDGE('',*,*,#463,.T.);
#463 = EDGE_CURVE('',#140,#464,#466,.T.);
#464 = VERTEX_POINT('',#465);
#465 = CARTESIAN_POINT('',(0.,0.550618510764,-3.724519332156));
#466 = LINE('',#467,#468);
#467 = CARTESIAN_POINT('',(1.,0.550618510764,-3.724519332156));
#468 = VECTOR('',#469,1.);
#469 = DIRECTION('',(-1.,0.,-0.));
#470 = ORIENTED_EDGE('',*,*,#471,.T.);
#471 = EDGE_CURVE('',#464,#472,#474,.T.);
#472 = VERTEX_POINT('',#473);
#473 = CARTESIAN_POINT('',(0.,3.761728344439,-0.156923110622));
#474 = CIRCLE('',#475,3.765);
#475 = AXIS2_PLACEMENT_3D('',#476,#477,#478);
#476 = CARTESIAN_POINT('',(0.,0.,0.));
#477 = DIRECTION('',(1.,0.,0.));
#478 = DIRECTION('',(0.,0.,-1.));
#479 = ORIENTED_EDGE('',*,*,#480,.T.);
#480 = EDGE_CURVE('',#472,#149,#481,.T.);
#481 = LINE('',#482,#483);
#482 = CARTESIAN_POINT('',(1.,3.761728344439,-0.156923110622));
#483 = VECTOR('',#484,1.);
#484 = DIRECTION('',(1.,-0.,0.));
#485 = ORIENTED_EDGE('',*,*,#148,.F.);
#486 = CYLINDRICAL_SURFACE('',#487,3.765);
#487 = AXIS2_PLACEMENT_3D('',#488,#489,#490);
#488 = CARTESIAN_POINT('',(11.853138686131,0.,0.));
#489 = DIRECTION('',(1.,0.,0.));
#490 = DIRECTION('',(0.,0.,-1.));
#491 = ADVANCED_FACE('',(#492),#509,.F.);
#492 = FACE_BOUND('',#493,.T.);
#493 = EDGE_LOOP('',(#494,#495,#503));
#494 = ORIENTED_EDGE('',*,*,#375,.F.);
#495 = ORIENTED_EDGE('',*,*,#496,.F.);
#496 = EDGE_CURVE('',#497,#368,#499,.T.);
#497 = VERTEX_POINT('',#498);
#498 = CARTESIAN_POINT('',(0.,-0.35570924384,0.403158223159));
#499 = LINE('',#500,#501);
#500 = CARTESIAN_POINT('',(2.E-17,-0.35570924384,0.));
#501 = VECTOR('',#502,1.);
#502 = DIRECTION('',(0.,-0.,1.));
#503 = ORIENTED_EDGE('',*,*,#504,.F.);
#504 = EDGE_CURVE('',#376,#497,#505,.T.);
#505 = LINE('',#506,#507);
#506 = CARTESIAN_POINT('',(2.E-17,0.,0.403158223159));
#507 = VECTOR('',#508,1.);
#508 = DIRECTION('',(0.,1.,0.));
#509 = PLANE('',#510);
#510 = AXIS2_PLACEMENT_3D('',#511,#512,#513);
#511 = CARTESIAN_POINT('',(2.E-17,0.,0.));
#512 = DIRECTION('',(1.,0.,-0.));
#513 = DIRECTION('',(-0.,0.,-1.));
#514 = ADVANCED_FACE('',(#515),#532,.F.);
#515 = FACE_BOUND('',#516,.T.);
#516 = EDGE_LOOP('',(#517,#518,#526));
#517 = ORIENTED_EDGE('',*,*,#407,.F.);
#518 = ORIENTED_EDGE('',*,*,#519,.F.);
#519 = EDGE_CURVE('',#520,#400,#522,.T.);
#520 = VERTEX_POINT('',#521);
#521 = CARTESIAN_POINT('',(0.,-0.35570924384,-0.156923110622));
#522 = LINE('',#523,#524);
#523 = CARTESIAN_POINT('',(2.E-17,0.,-0.156923110622));
#524 = VECTOR('',#525,1.);
#525 = DIRECTION('',(-0.,-1.,-0.));
#526 = ORIENTED_EDGE('',*,*,#527,.F.);
#527 = EDGE_CURVE('',#408,#520,#528,.T.);
#528 = LINE('',#529,#530);
#529 = CARTESIAN_POINT('',(2.E-17,-0.35570924384,0.));
#530 = VECTOR('',#531,1.);
#531 = DIRECTION('',(0.,-0.,1.));
#532 = PLANE('',#533);
#533 = AXIS2_PLACEMENT_3D('',#534,#535,#536);
#534 = CARTESIAN_POINT('',(2.E-17,0.,0.));
#535 = DIRECTION('',(1.,0.,-0.));
#536 = DIRECTION('',(-0.,0.,-1.));
#537 = ADVANCED_FACE('',(#538),#555,.F.);
#538 = FACE_BOUND('',#539,.T.);
#539 = EDGE_LOOP('',(#540,#541,#549));
#540 = ORIENTED_EDGE('',*,*,#439,.F.);
#541 = ORIENTED_EDGE('',*,*,#542,.F.);
#542 = EDGE_CURVE('',#543,#432,#545,.T.);
#543 = VERTEX_POINT('',#544);
#544 = CARTESIAN_POINT('',(0.,0.550618510764,0.403158223159));
#545 = LINE('',#546,#547);
#546 = CARTESIAN_POINT('',(2.E-17,0.,0.403158223159));
#547 = VECTOR('',#548,1.);
#548 = DIRECTION('',(0.,1.,0.));
#549 = ORIENTED_EDGE('',*,*,#550,.F.);
#550 = EDGE_CURVE('',#440,#543,#551,.T.);
#551 = LINE('',#552,#553);
#552 = CARTESIAN_POINT('',(2.E-17,0.550618510764,0.));
#553 = VECTOR('',#554,1.);
#554 = DIRECTION('',(-0.,0.,-1.));
#555 = PLANE('',#556);
#556 = AXIS2_PLACEMENT_3D('',#557,#558,#559);
#557 = CARTESIAN_POINT('',(2.E-17,0.,0.));
#558 = DIRECTION('',(1.,0.,-0.));
#559 = DIRECTION('',(-0.,0.,-1.));
#560 = ADVANCED_FACE('',(#561),#578,.F.);
#561 = FACE_BOUND('',#562,.T.);
#562 = EDGE_LOOP('',(#563,#564,#572));
#563 = ORIENTED_EDGE('',*,*,#471,.F.);
#564 = ORIENTED_EDGE('',*,*,#565,.F.);
#565 = EDGE_CURVE('',#566,#464,#568,.T.);
#566 = VERTEX_POINT('',#567);
#567 = CARTESIAN_POINT('',(0.,0.550618510764,-0.156923110622));
#568 = LINE('',#569,#570);
#569 = CARTESIAN_POINT('',(2.E-17,0.550618510764,0.));
#570 = VECTOR('',#571,1.);
#571 = DIRECTION('',(-0.,0.,-1.));
#572 = ORIENTED_EDGE('',*,*,#573,.F.);
#573 = EDGE_CURVE('',#472,#566,#574,.T.);
#574 = LINE('',#575,#576);
#575 = CARTESIAN_POINT('',(2.E-17,0.,-0.156923110622));
#576 = VECTOR('',#577,1.);
#577 = DIRECTION('',(-0.,-1.,-0.));
#578 = PLANE('',#579);
#579 = AXIS2_PLACEMENT_3D('',#580,#581,#582);
#580 = CARTESIAN_POINT('',(2.E-17,0.,0.));
#581 = DIRECTION('',(1.,0.,-0.));
#582 = DIRECTION('',(-0.,0.,-1.));
#583 = ADVANCED_FACE('',(#584),#603,.F.);
#584 = FACE_BOUND('',#585,.T.);
#585 = EDGE_LOOP('',(#586,#587,#595,#601,#602));
#586 = ORIENTED_EDGE('',*,*,#504,.T.);
#587 = ORIENTED_EDGE('',*,*,#588,.F.);
#588 = EDGE_CURVE('',#589,#497,#591,.T.);
#589 = VERTEX_POINT('',#590);
#590 = CARTESIAN_POINT('',(1.,-0.35570924384,0.403158223159));
#591 = LINE('',#592,#593);
#592 = CARTESIAN_POINT('',(1.,-0.35570924384,0.403158223159));
#593 = VECTOR('',#594,1.);
#594 = DIRECTION('',(-1.,-0.,-0.));
#595 = ORIENTED_EDGE('',*,*,#596,.F.);
#596 = EDGE_CURVE('',#308,#589,#597,.T.);
#597 = LINE('',#598,#599);
#598 = CARTESIAN_POINT('',(1.,-4.056748242558,0.403158223159));
#599 = VECTOR('',#600,1.);
#600 = DIRECTION('',(-0.,1.,-4.8E-16));
#601 = ORIENTED_EDGE('',*,*,#307,.F.);
#602 = ORIENTED_EDGE('',*,*,#384,.F.);
#603 = PLANE('',#604);
#604 = AXIS2_PLACEMENT_3D('',#605,#606,#607);
#605 = CARTESIAN_POINT('',(1.,-4.056748242558,0.403158223159));
#606 = DIRECTION('',(-0.,4.8E-16,1.));
#607 = DIRECTION('',(0.,-1.,4.8E-16));
#608 = ADVANCED_FACE('',(#609),#621,.F.);
#609 = FACE_BOUND('',#610,.T.);
#610 = EDGE_LOOP('',(#611,#612,#618,#619,#620));
#611 = ORIENTED_EDGE('',*,*,#289,.F.);
#612 = ORIENTED_EDGE('',*,*,#613,.F.);
#613 = EDGE_CURVE('',#589,#281,#614,.T.);
#614 = LINE('',#615,#616);
#615 = CARTESIAN_POINT('',(1.,-0.35570924384,0.403158223159));
#616 = VECTOR('',#617,1.);
#617 = DIRECTION('',(-0.,-9.1E-16,1.));
#618 = ORIENTED_EDGE('',*,*,#588,.T.);
#619 = ORIENTED_EDGE('',*,*,#496,.T.);
#620 = ORIENTED_EDGE('',*,*,#367,.F.);
#621 = PLANE('',#622);
#622 = AXIS2_PLACEMENT_3D('',#623,#624,#625);
#623 = CARTESIAN_POINT('',(1.,-0.35570924384,0.403158223159));
#624 = DIRECTION('',(0.,-1.,-9.1E-16));
#625 = DIRECTION('',(0.,9.1E-16,-1.));
#626 = ADVANCED_FACE('',(#627),#646,.F.);
#627 = FACE_BOUND('',#628,.T.);
#628 = EDGE_LOOP('',(#629,#630,#638,#644,#645));
#629 = ORIENTED_EDGE('',*,*,#527,.T.);
#630 = ORIENTED_EDGE('',*,*,#631,.F.);
#631 = EDGE_CURVE('',#632,#520,#634,.T.);
#632 = VERTEX_POINT('',#633);
#633 = CARTESIAN_POINT('',(1.,-0.35570924384,-0.156923110622));
#634 = LINE('',#635,#636);
#635 = CARTESIAN_POINT('',(1.,-0.35570924384,-0.156923110622));
#636 = VECTOR('',#637,1.);
#637 = DIRECTION('',(-1.,-0.,-0.));
#638 = ORIENTED_EDGE('',*,*,#639,.F.);
#639 = EDGE_CURVE('',#344,#632,#640,.T.);
#640 = LINE('',#641,#642);
#641 = CARTESIAN_POINT('',(1.,-0.35570924384,-4.092362249526));
#642 = VECTOR('',#643,1.);
#643 = DIRECTION('',(-0.,-9.2E-16,1.));
#644 = ORIENTED_EDGE('',*,*,#343,.F.);
#645 = ORIENTED_EDGE('',*,*,#416,.F.);
#646 = PLANE('',#647);
#647 = AXIS2_PLACEMENT_3D('',#648,#649,#650);
#648 = CARTESIAN_POINT('',(1.,-0.35570924384,-4.092362249526));
#649 = DIRECTION('',(0.,-1.,-9.2E-16));
#650 = DIRECTION('',(0.,9.2E-16,-1.));
#651 = ADVANCED_FACE('',(#652),#664,.F.);
#652 = FACE_BOUND('',#653,.T.);
#653 = EDGE_LOOP('',(#654,#655,#661,#662,#663));
#654 = ORIENTED_EDGE('',*,*,#325,.F.);
#655 = ORIENTED_EDGE('',*,*,#656,.F.);
#656 = EDGE_CURVE('',#632,#317,#657,.T.);
#657 = LINE('',#658,#659);
#658 = CARTESIAN_POINT('',(1.,-0.35570924384,-0.156923110622));
#659 = VECTOR('',#660,1.);
#660 = DIRECTION('',(-0.,-1.,-0.));
#661 = ORIENTED_EDGE('',*,*,#631,.T.);
#662 = ORIENTED_EDGE('',*,*,#519,.T.);
#663 = ORIENTED_EDGE('',*,*,#399,.F.);
#664 = PLANE('',#665);
#665 = AXIS2_PLACEMENT_3D('',#666,#667,#668);
#666 = CARTESIAN_POINT('',(1.,-0.35570924384,-0.156923110622));
#667 = DIRECTION('',(0.,0.,-1.));
#668 = DIRECTION('',(-1.,0.,-0.));
#669 = ADVANCED_FACE('',(#670),#689,.F.);
#670 = FACE_BOUND('',#671,.T.);
#671 = EDGE_LOOP('',(#672,#673,#681,#687,#688));
#672 = ORIENTED_EDGE('',*,*,#550,.T.);
#673 = ORIENTED_EDGE('',*,*,#674,.F.);
#674 = EDGE_CURVE('',#675,#543,#677,.T.);
#675 = VERTEX_POINT('',#676);
#676 = CARTESIAN_POINT('',(1.,0.550618510764,0.403158223159));
#677 = LINE('',#678,#679);
#678 = CARTESIAN_POINT('',(1.,0.550618510764,0.403158223159));
#679 = VECTOR('',#680,1.);
#680 = DIRECTION('',(-1.,0.,-0.));
#681 = ORIENTED_EDGE('',*,*,#682,.F.);
#682 = EDGE_CURVE('',#194,#675,#683,.T.);
#683 = LINE('',#684,#685);
#684 = CARTESIAN_POINT('',(1.,0.550618510764,4.407637750474));
#685 = VECTOR('',#686,1.);
#686 = DIRECTION('',(-0.,-1.4E-16,-1.));
#687 = ORIENTED_EDGE('',*,*,#193,.F.);
#688 = ORIENTED_EDGE('',*,*,#448,.F.);
#689 = PLANE('',#690);
#690 = AXIS2_PLACEMENT_3D('',#691,#692,#693);
#691 = CARTESIAN_POINT('',(1.,0.550618510764,4.407637750474));
#692 = DIRECTION('',(0.,1.,-1.4E-16));
#693 = DIRECTION('',(0.,1.4E-16,1.));
#694 = ADVANCED_FACE('',(#695),#707,.F.);
#695 = FACE_BOUND('',#696,.T.);
#696 = EDGE_LOOP('',(#697,#698,#704,#705,#706));
#697 = ORIENTED_EDGE('',*,*,#175,.F.);
#698 = ORIENTED_EDGE('',*,*,#699,.F.);
#699 = EDGE_CURVE('',#675,#167,#700,.T.);
#700 = LINE('',#701,#702);
#701 = CARTESIAN_POINT('',(1.,0.550618510764,0.403158223159));
#702 = VECTOR('',#703,1.);
#703 = DIRECTION('',(-0.,1.,-4.6E-16));
#704 = ORIENTED_EDGE('',*,*,#674,.T.);
#705 = ORIENTED_EDGE('',*,*,#542,.T.);
#706 = ORIENTED_EDGE('',*,*,#431,.F.);
#707 = PLANE('',#708);
#708 = AXIS2_PLACEMENT_3D('',#709,#710,#711);
#709 = CARTESIAN_POINT('',(1.,0.550618510764,0.403158223159));
#710 = DIRECTION('',(-0.,4.6E-16,1.));
#711 = DIRECTION('',(0.,-1.,4.6E-16));
#712 = ADVANCED_FACE('',(#713),#732,.F.);
#713 = FACE_BOUND('',#714,.T.);
#714 = EDGE_LOOP('',(#715,#716,#724,#730,#731));
#715 = ORIENTED_EDGE('',*,*,#573,.T.);
#716 = ORIENTED_EDGE('',*,*,#717,.F.);
#717 = EDGE_CURVE('',#718,#566,#720,.T.);
#718 = VERTEX_POINT('',#719);
#719 = CARTESIAN_POINT('',(1.,0.550618510764,-0.156923110622));
#720 = LINE('',#721,#722);
#721 = CARTESIAN_POINT('',(1.,0.550618510764,-0.156923110622));
#722 = VECTOR('',#723,1.);
#723 = DIRECTION('',(-1.,0.,-0.));
#724 = ORIENTED_EDGE('',*,*,#725,.F.);
#725 = EDGE_CURVE('',#158,#718,#726,.T.);
#726 = LINE('',#727,#728);
#727 = CARTESIAN_POINT('',(1.,4.343251757442,-0.156923110622));
#728 = VECTOR('',#729,1.);
#729 = DIRECTION('',(-0.,-1.,-0.));
#730 = ORIENTED_EDGE('',*,*,#157,.F.);
#731 = ORIENTED_EDGE('',*,*,#480,.F.);
#732 = PLANE('',#733);
#733 = AXIS2_PLACEMENT_3D('',#734,#735,#736);
#734 = CARTESIAN_POINT('',(1.,4.343251757442,-0.156923110622));
#735 = DIRECTION('',(0.,0.,-1.));
#736 = DIRECTION('',(-1.,0.,-0.));
#737 = ADVANCED_FACE('',(#738),#750,.F.);
#738 = FACE_BOUND('',#739,.T.);
#739 = EDGE_LOOP('',(#740,#741,#747,#748,#749));
#740 = ORIENTED_EDGE('',*,*,#139,.F.);
#741 = ORIENTED_EDGE('',*,*,#742,.F.);
#742 = EDGE_CURVE('',#718,#131,#743,.T.);
#743 = LINE('',#744,#745);
#744 = CARTESIAN_POINT('',(1.,0.550618510764,-0.156923110622));
#745 = VECTOR('',#746,1.);
#746 = DIRECTION('',(-0.,-1.4E-16,-1.));
#747 = ORIENTED_EDGE('',*,*,#717,.T.);
#748 = ORIENTED_EDGE('',*,*,#565,.T.);
#749 = ORIENTED_EDGE('',*,*,#463,.F.);
#750 = PLANE('',#751);
#751 = AXIS2_PLACEMENT_3D('',#752,#753,#754);
#752 = CARTESIAN_POINT('',(1.,0.550618510764,-0.156923110622));
#753 = DIRECTION('',(0.,1.,-1.4E-16));
#754 = DIRECTION('',(0.,1.4E-16,1.));
#755 = ADVANCED_FACE('',(#756),#772,.T.);
#756 = FACE_BOUND('',#757,.T.);
#757 = EDGE_LOOP('',(#758,#759,#760,#761,#762,#763,#764,#765,#766,#767,
    #768,#769,#770,#771));
#758 = ORIENTED_EDGE('',*,*,#656,.T.);
#759 = ORIENTED_EDGE('',*,*,#316,.T.);
#760 = ORIENTED_EDGE('',*,*,#596,.T.);
#761 = ORIENTED_EDGE('',*,*,#613,.T.);
#762 = ORIENTED_EDGE('',*,*,#280,.T.);
#763 = ORIENTED_EDGE('',*,*,#202,.T.);
#764 = ORIENTED_EDGE('',*,*,#682,.T.);
#765 = ORIENTED_EDGE('',*,*,#699,.T.);
#766 = ORIENTED_EDGE('',*,*,#166,.T.);
#767 = ORIENTED_EDGE('',*,*,#725,.T.);
#768 = ORIENTED_EDGE('',*,*,#742,.T.);
#769 = ORIENTED_EDGE('',*,*,#130,.T.);
#770 = ORIENTED_EDGE('',*,*,#352,.T.);
#771 = ORIENTED_EDGE('',*,*,#639,.T.);
#772 = PLANE('',#773);
#773 = AXIS2_PLACEMENT_3D('',#774,#775,#776);
#774 = CARTESIAN_POINT('',(1.,0.,0.));
#775 = DIRECTION('',(-1.,0.,0.));
#776 = DIRECTION('',(0.,0.,1.));
#777 = ( GEOMETRIC_REPRESENTATION_CONTEXT(3) 
GLOBAL_UNCERTAINTY_ASSIGNED_CONTEXT((#781)) GLOBAL_UNIT_ASSIGNED_CONTEXT
((#778,#779,#780)) REPRESENTATION_CONTEXT('Context #1',
  '3D Context with UNIT and UNCERTAINTY') );
#778 = ( LENGTH_UNIT() NAMED_UNIT(*) SI_UNIT(.MILLI.,.METRE.) );
#779 = ( NAMED_UNIT(*) PLANE_ANGLE_UNIT() SI_UNIT($,.RADIAN.) );
#780 = ( NAMED_UNIT(*) SI_UNIT($,.STERADIAN.) SOLID_ANGLE_UNIT() );
#781 = UNCERTAINTY_MEASURE_WITH_UNIT(LENGTH_MEASURE(1.E-07),#778,
  'distance_accuracy_value','confusion accuracy');
#782 = PRODUCT_RELATED_PRODUCT_CATEGORY('part',$,(#7));
#783 = MECHANICAL_DESIGN_GEOMETRIC_PRESENTATION_REPRESENTATION('',(#784)
  ,#777);
#784 = STYLED_ITEM('color',(#785),#15);
#785 = PRESENTATION_STYLE_ASSIGNMENT((#786,#792));
#786 = SURFACE_STYLE_USAGE(.BOTH.,#787);
#787 = SURFACE_SIDE_STYLE('',(#788));
#788 = SURFACE_STYLE_FILL_AREA(#789);
#789 = FILL_AREA_STYLE('',(#790));
#790 = FILL_AREA_STYLE_COLOUR('',#791);
#791 = COLOUR_RGB('',0.898039222556,0.898039222556,0.898039222556);
#792 = CURVE_STYLE('',#793,POSITIVE_LENGTH_MEASURE(0.1),#794);
#793 = DRAUGHTING_PRE_DEFINED_CURVE_FONT('continuous');
#794 = COLOUR_RGB('',9.803921802644E-02,9.803921802644E-02,
  9.803921802644E-02);
ENDSEC;
END-ISO-10303-21;
