ISO-10303-21;
HEADER;
FILE_DESCRIPTION(('FreeCAD Model'),'2;1');
FILE_NAME('Open CASCADE Shape Model','2026-08-31T05:57:05',('Author'),(
    ''),'Open CASCADE STEP processor 7.9','FreeCAD','Unknown');
FILE_SCHEMA(('AUTOMOTIVE_DESIGN { 1 0 10303 214 1 1 1 1 }'));
ENDSEC;
DATA;
#1 = APPLICATION_PROTOCOL_DEFINITION('international standard',
  'automotive_design',2000,#2);
#2 = APPLICATION_CONTEXT(
  'core data for automotive mechanical design processes');
#3 = SHAPE_DEFINITION_REPRESENTATION(#4,#10);
#4 = PRODUCT_DEFINITION_SHAPE('','',#5);
#5 = PRODUCT_DEFINITION('design','',#6,#9);
#6 = PRODUCT_DEFINITION_FORMATION('','',#7);
#7 = PRODUCT('M5X50 Socket Head Screw_Standard002',
  'M5X50 Socket Head Screw_Standard002','',(#8));
#8 = PRODUCT_CONTEXT('',#2,'mechanical');
#9 = PRODUCT_DEFINITION_CONTEXT('part definition',#2,'design');
#10 = SHAPE_REPRESENTATION('',(#11,#15,#19),#23);
#11 = AXIS2_PLACEMENT_3D('',#12,#13,#14);
#12 = CARTESIAN_POINT('',(0.,0.,0.));
#13 = DIRECTION('',(0.,0.,1.));
#14 = DIRECTION('',(1.,0.,-0.));
#15 = AXIS2_PLACEMENT_3D('',#16,#17,#18);
#16 = CARTESIAN_POINT('',(23.2,0.,0.));
#17 = DIRECTION('',(-6.982950738611E-17,-0.936846361001,0.349741184134)
  );
#18 = DIRECTION('',(-1.,1.006053563427E-16,6.982950738611E-17));
#19 = AXIS2_PLACEMENT_3D('',#20,#21,#22);
#20 = CARTESIAN_POINT('',(23.2,0.,0.));
#21 = DIRECTION('',(-6.982950738611E-17,-0.936846361001,0.349741184134)
  );
#22 = DIRECTION('',(-1.,1.006053563427E-16,6.982950738611E-17));
#23 = ( GEOMETRIC_REPRESENTATION_CONTEXT(3) 
GLOBAL_UNCERTAINTY_ASSIGNED_CONTEXT((#27)) GLOBAL_UNIT_ASSIGNED_CONTEXT(
(#24,#25,#26)) REPRESENTATION_CONTEXT('Context #1',
  '3D Context with UNIT and UNCERTAINTY') );
#24 = ( LENGTH_UNIT() NAMED_UNIT(*) SI_UNIT(.MILLI.,.METRE.) );
#25 = ( NAMED_UNIT(*) PLANE_ANGLE_UNIT() SI_UNIT($,.RADIAN.) );
#26 = ( NAMED_UNIT(*) SI_UNIT($,.STERADIAN.) SOLID_ANGLE_UNIT() );
#27 = UNCERTAINTY_MEASURE_WITH_UNIT(LENGTH_MEASURE(2.E-05),#24,
  'distance_accuracy_value','confusion accuracy');
#28 = PRODUCT_RELATED_PRODUCT_CATEGORY('part',$,(#7));
#29 = SHAPE_DEFINITION_REPRESENTATION(#30,#36);
#30 = PRODUCT_DEFINITION_SHAPE('','',#31);
#31 = PRODUCT_DEFINITION('design','',#32,#35);
#32 = PRODUCT_DEFINITION_FORMATION('','',#33);
#33 = PRODUCT('M5X50 Socket Head Screw_Standard',
  'M5X50 Socket Head Screw_Standard','',(#34));
#34 = PRODUCT_CONTEXT('',#2,'mechanical');
#35 = PRODUCT_DEFINITION_CONTEXT('part definition',#2,'design');
#36 = ADVANCED_BREP_SHAPE_REPRESENTATION('',(#11,#37),#331);
#37 = MANIFOLD_SOLID_BREP('',#38);
#38 = CLOSED_SHELL('',(#39,#81,#114,#156,#189,#231,#256,#273,#298,#315)
  );
#39 = ADVANCED_FACE('',(#40),#76,.T.);
#40 = FACE_BOUND('',#41,.T.);
#41 = EDGE_LOOP('',(#42,#53,#61,#70));
#42 = ORIENTED_EDGE('',*,*,#43,.T.);
#43 = EDGE_CURVE('',#44,#46,#48,.T.);
#44 = VERTEX_POINT('',#45);
#45 = CARTESIAN_POINT('',(1.2,-4.3,0.));
#46 = VERTEX_POINT('',#47);
#47 = CARTESIAN_POINT('',(1.2,4.3,1.E-15));
#48 = CIRCLE('',#49,4.3);
#49 = AXIS2_PLACEMENT_3D('',#50,#51,#52);
#50 = CARTESIAN_POINT('',(1.2,6.E-17,0.));
#51 = DIRECTION('',(-1.,-5.E-17,0.));
#52 = DIRECTION('',(5.E-17,-1.,0.));
#53 = ORIENTED_EDGE('',*,*,#54,.T.);
#54 = EDGE_CURVE('',#46,#55,#57,.T.);
#55 = VERTEX_POINT('',#56);
#56 = CARTESIAN_POINT('',(0.2,4.3,1.E-15));
#57 = LINE('',#58,#59);
#58 = CARTESIAN_POINT('',(1.2,4.3,5.3E-16));
#59 = VECTOR('',#60,1.);
#60 = DIRECTION('',(-1.,-5.E-17,-0.));
#61 = ORIENTED_EDGE('',*,*,#62,.T.);
#62 = EDGE_CURVE('',#55,#63,#65,.T.);
#63 = VERTEX_POINT('',#64);
#64 = CARTESIAN_POINT('',(0.2,-4.3,0.));
#65 = CIRCLE('',#66,4.3);
#66 = AXIS2_PLACEMENT_3D('',#67,#68,#69);
#67 = CARTESIAN_POINT('',(0.2,1.E-17,0.));
#68 = DIRECTION('',(1.,5.E-17,0.));
#69 = DIRECTION('',(5.E-17,-1.,0.));
#70 = ORIENTED_EDGE('',*,*,#71,.F.);
#71 = EDGE_CURVE('',#44,#63,#72,.T.);
#72 = LINE('',#73,#74);
#73 = CARTESIAN_POINT('',(1.2,-4.3,0.));
#74 = VECTOR('',#75,1.);
#75 = DIRECTION('',(-1.,-5.E-17,-0.));
#76 = CYLINDRICAL_SURFACE('',#77,4.3);
#77 = AXIS2_PLACEMENT_3D('',#78,#79,#80);
#78 = CARTESIAN_POINT('',(1.2,6.E-17,0.));
#79 = DIRECTION('',(-1.,-5.E-17,-0.));
#80 = DIRECTION('',(5.E-17,-1.,0.));
#81 = ADVANCED_FACE('',(#82),#109,.T.);
#82 = FACE_BOUND('',#83,.T.);
#83 = EDGE_LOOP('',(#84,#93,#94,#103));
#84 = ORIENTED_EDGE('',*,*,#85,.T.);
#85 = EDGE_CURVE('',#86,#44,#88,.T.);
#86 = VERTEX_POINT('',#87);
#87 = CARTESIAN_POINT('',(1.2,-0.63593269228,-4.252715557252));
#88 = CIRCLE('',#89,4.3);
#89 = AXIS2_PLACEMENT_3D('',#90,#91,#92);
#90 = CARTESIAN_POINT('',(1.2,6.E-17,0.));
#91 = DIRECTION('',(-1.,-5.E-17,0.));
#92 = DIRECTION('',(5.E-17,-1.,0.));
#93 = ORIENTED_EDGE('',*,*,#71,.T.);
#94 = ORIENTED_EDGE('',*,*,#95,.T.);
#95 = EDGE_CURVE('',#63,#96,#98,.T.);
#96 = VERTEX_POINT('',#97);
#97 = CARTESIAN_POINT('',(0.2,-0.63593269228,-4.252715557252));
#98 = CIRCLE('',#99,4.3);
#99 = AXIS2_PLACEMENT_3D('',#100,#101,#102);
#100 = CARTESIAN_POINT('',(0.2,1.E-17,0.));
#101 = DIRECTION('',(1.,5.E-17,0.));
#102 = DIRECTION('',(5.E-17,-1.,0.));
#103 = ORIENTED_EDGE('',*,*,#104,.T.);
#104 = EDGE_CURVE('',#96,#86,#105,.T.);
#105 = LINE('',#106,#107);
#106 = CARTESIAN_POINT('',(1.2,-0.63593269228,-4.252715557252));
#107 = VECTOR('',#108,1.);
#108 = DIRECTION('',(1.,5.E-17,0.));
#109 = CYLINDRICAL_SURFACE('',#110,4.3);
#110 = AXIS2_PLACEMENT_3D('',#111,#112,#113);
#111 = CARTESIAN_POINT('',(1.2,6.E-17,0.));
#112 = DIRECTION('',(-1.,-5.E-17,-0.));
#113 = DIRECTION('',(5.E-17,-1.,0.));
#114 = ADVANCED_FACE('',(#115),#151,.F.);
#115 = FACE_BOUND('',#116,.F.);
#116 = EDGE_LOOP('',(#117,#127,#136,#144));
#117 = ORIENTED_EDGE('',*,*,#118,.F.);
#118 = EDGE_CURVE('',#119,#121,#123,.T.);
#119 = VERTEX_POINT('',#120);
#120 = CARTESIAN_POINT('',(0.2,0.37443104382,-2.724390095677));
#121 = VERTEX_POINT('',#122);
#122 = CARTESIAN_POINT('',(1.2,0.37443104382,-2.724390095677));
#123 = LINE('',#124,#125);
#124 = CARTESIAN_POINT('',(1.2,0.37443104382,-2.724390095677));
#125 = VECTOR('',#126,1.);
#126 = DIRECTION('',(1.,5.E-17,-0.));
#127 = ORIENTED_EDGE('',*,*,#128,.F.);
#128 = EDGE_CURVE('',#129,#119,#131,.T.);
#129 = VERTEX_POINT('',#130);
#130 = CARTESIAN_POINT('',(0.2,2.75,0.));
#131 = CIRCLE('',#132,2.75);
#132 = AXIS2_PLACEMENT_3D('',#133,#134,#135);
#133 = CARTESIAN_POINT('',(0.2,1.E-17,0.));
#134 = DIRECTION('',(-1.,-5.E-17,0.));
#135 = DIRECTION('',(5.E-17,-1.,0.));
#136 = ORIENTED_EDGE('',*,*,#137,.F.);
#137 = EDGE_CURVE('',#138,#129,#140,.T.);
#138 = VERTEX_POINT('',#139);
#139 = CARTESIAN_POINT('',(1.2,2.75,0.));
#140 = LINE('',#141,#142);
#141 = CARTESIAN_POINT('',(1.2,2.75,3.4E-16));
#142 = VECTOR('',#143,1.);
#143 = DIRECTION('',(-1.,-5.E-17,-0.));
#144 = ORIENTED_EDGE('',*,*,#145,.T.);
#145 = EDGE_CURVE('',#138,#121,#146,.T.);
#146 = CIRCLE('',#147,2.75);
#147 = AXIS2_PLACEMENT_3D('',#148,#149,#150);
#148 = CARTESIAN_POINT('',(1.2,6.E-17,0.));
#149 = DIRECTION('',(-1.,-5.E-17,0.));
#150 = DIRECTION('',(5.E-17,-1.,0.));
#151 = CYLINDRICAL_SURFACE('',#152,2.75);
#152 = AXIS2_PLACEMENT_3D('',#153,#154,#155);
#153 = CARTESIAN_POINT('',(1.2,6.E-17,0.));
#154 = DIRECTION('',(-1.,-5.E-17,-0.));
#155 = DIRECTION('',(5.E-17,-1.,0.));
#156 = ADVANCED_FACE('',(#157),#184,.F.);
#157 = FACE_BOUND('',#158,.F.);
#158 = EDGE_LOOP('',(#159,#168,#176,#183));
#159 = ORIENTED_EDGE('',*,*,#160,.F.);
#160 = EDGE_CURVE('',#161,#129,#163,.T.);
#161 = VERTEX_POINT('',#162);
#162 = CARTESIAN_POINT('',(0.2,-2.75,0.));
#163 = CIRCLE('',#164,2.75);
#164 = AXIS2_PLACEMENT_3D('',#165,#166,#167);
#165 = CARTESIAN_POINT('',(0.2,1.E-17,0.));
#166 = DIRECTION('',(-1.,-5.E-17,0.));
#167 = DIRECTION('',(5.E-17,-1.,0.));
#168 = ORIENTED_EDGE('',*,*,#169,.F.);
#169 = EDGE_CURVE('',#170,#161,#172,.T.);
#170 = VERTEX_POINT('',#171);
#171 = CARTESIAN_POINT('',(1.2,-2.75,0.));
#172 = LINE('',#173,#174);
#173 = CARTESIAN_POINT('',(1.2,-2.75,0.));
#174 = VECTOR('',#175,1.);
#175 = DIRECTION('',(-1.,-5.E-17,-0.));
#176 = ORIENTED_EDGE('',*,*,#177,.T.);
#177 = EDGE_CURVE('',#170,#138,#178,.T.);
#178 = CIRCLE('',#179,2.75);
#179 = AXIS2_PLACEMENT_3D('',#180,#181,#182);
#180 = CARTESIAN_POINT('',(1.2,6.E-17,0.));
#181 = DIRECTION('',(-1.,-5.E-17,0.));
#182 = DIRECTION('',(5.E-17,-1.,0.));
#183 = ORIENTED_EDGE('',*,*,#137,.T.);
#184 = CYLINDRICAL_SURFACE('',#185,2.75);
#185 = AXIS2_PLACEMENT_3D('',#186,#187,#188);
#186 = CARTESIAN_POINT('',(1.2,6.E-17,0.));
#187 = DIRECTION('',(-1.,-5.E-17,-0.));
#188 = DIRECTION('',(5.E-17,-1.,0.));
#189 = ADVANCED_FACE('',(#190),#226,.F.);
#190 = FACE_BOUND('',#191,.T.);
#191 = EDGE_LOOP('',(#192,#200,#201,#202,#211,#217,#218,#219));
#192 = ORIENTED_EDGE('',*,*,#193,.F.);
#193 = EDGE_CURVE('',#119,#194,#196,.T.);
#194 = VERTEX_POINT('',#195);
#195 = CARTESIAN_POINT('',(0.2,0.37443104382,-4.283666816341));
#196 = LINE('',#197,#198);
#197 = CARTESIAN_POINT('',(0.2,0.37443104382,0.));
#198 = VECTOR('',#199,1.);
#199 = DIRECTION('',(-0.,-0.,-1.));
#200 = ORIENTED_EDGE('',*,*,#128,.F.);
#201 = ORIENTED_EDGE('',*,*,#160,.F.);
#202 = ORIENTED_EDGE('',*,*,#203,.F.);
#203 = EDGE_CURVE('',#204,#161,#206,.T.);
#204 = VERTEX_POINT('',#205);
#205 = CARTESIAN_POINT('',(0.2,-0.63593269228,-2.675460635272));
#206 = CIRCLE('',#207,2.75);
#207 = AXIS2_PLACEMENT_3D('',#208,#209,#210);
#208 = CARTESIAN_POINT('',(0.2,1.E-17,0.));
#209 = DIRECTION('',(-1.,-5.E-17,0.));
#210 = DIRECTION('',(5.E-17,-1.,0.));
#211 = ORIENTED_EDGE('',*,*,#212,.F.);
#212 = EDGE_CURVE('',#96,#204,#213,.T.);
#213 = LINE('',#214,#215);
#214 = CARTESIAN_POINT('',(0.2,-0.63593269228,0.));
#215 = VECTOR('',#216,1.);
#216 = DIRECTION('',(0.,0.,1.));
#217 = ORIENTED_EDGE('',*,*,#95,.F.);
#218 = ORIENTED_EDGE('',*,*,#62,.F.);
#219 = ORIENTED_EDGE('',*,*,#220,.F.);
#220 = EDGE_CURVE('',#194,#55,#221,.T.);
#221 = CIRCLE('',#222,4.3);
#222 = AXIS2_PLACEMENT_3D('',#223,#224,#225);
#223 = CARTESIAN_POINT('',(0.2,1.E-17,0.));
#224 = DIRECTION('',(1.,5.E-17,0.));
#225 = DIRECTION('',(5.E-17,-1.,0.));
#226 = PLANE('',#227);
#227 = AXIS2_PLACEMENT_3D('',#228,#229,#230);
#228 = CARTESIAN_POINT('',(0.2,1.E-17,0.));
#229 = DIRECTION('',(1.,5.E-17,-0.));
#230 = DIRECTION('',(-5.E-17,1.,0.));
#231 = ADVANCED_FACE('',(#232),#251,.T.);
#232 = FACE_BOUND('',#233,.T.);
#233 = EDGE_LOOP('',(#234,#235,#244,#250));
#234 = ORIENTED_EDGE('',*,*,#54,.F.);
#235 = ORIENTED_EDGE('',*,*,#236,.T.);
#236 = EDGE_CURVE('',#46,#237,#239,.T.);
#237 = VERTEX_POINT('',#238);
#238 = CARTESIAN_POINT('',(1.2,0.37443104382,-4.283666816341));
#239 = CIRCLE('',#240,4.3);
#240 = AXIS2_PLACEMENT_3D('',#241,#242,#243);
#241 = CARTESIAN_POINT('',(1.2,6.E-17,0.));
#242 = DIRECTION('',(-1.,-5.E-17,0.));
#243 = DIRECTION('',(5.E-17,-1.,0.));
#244 = ORIENTED_EDGE('',*,*,#245,.T.);
#245 = EDGE_CURVE('',#237,#194,#246,.T.);
#246 = LINE('',#247,#248);
#247 = CARTESIAN_POINT('',(1.2,0.37443104382,-4.283666816341));
#248 = VECTOR('',#249,1.);
#249 = DIRECTION('',(-1.,-5.E-17,-0.));
#250 = ORIENTED_EDGE('',*,*,#220,.T.);
#251 = CYLINDRICAL_SURFACE('',#252,4.3);
#252 = AXIS2_PLACEMENT_3D('',#253,#254,#255);
#253 = CARTESIAN_POINT('',(1.2,6.E-17,0.));
#254 = DIRECTION('',(-1.,-5.E-17,-0.));
#255 = DIRECTION('',(5.E-17,-1.,0.));
#256 = ADVANCED_FACE('',(#257),#268,.F.);
#257 = FACE_BOUND('',#258,.T.);
#258 = EDGE_LOOP('',(#259,#260,#266,#267));
#259 = ORIENTED_EDGE('',*,*,#245,.F.);
#260 = ORIENTED_EDGE('',*,*,#261,.F.);
#261 = EDGE_CURVE('',#121,#237,#262,.T.);
#262 = LINE('',#263,#264);
#263 = CARTESIAN_POINT('',(1.2,0.37443104382,-2.724390095677));
#264 = VECTOR('',#265,1.);
#265 = DIRECTION('',(-0.,-0.,-1.));
#266 = ORIENTED_EDGE('',*,*,#118,.F.);
#267 = ORIENTED_EDGE('',*,*,#193,.T.);
#268 = PLANE('',#269);
#269 = AXIS2_PLACEMENT_3D('',#270,#271,#272);
#270 = CARTESIAN_POINT('',(1.2,0.37443104382,-2.724390095677));
#271 = DIRECTION('',(-5.E-17,1.,0.));
#272 = DIRECTION('',(-1.,-5.E-17,0.));
#273 = ADVANCED_FACE('',(#274),#293,.F.);
#274 = FACE_BOUND('',#275,.F.);
#275 = EDGE_LOOP('',(#276,#277,#285,#292));
#276 = ORIENTED_EDGE('',*,*,#203,.F.);
#277 = ORIENTED_EDGE('',*,*,#278,.T.);
#278 = EDGE_CURVE('',#204,#279,#281,.T.);
#279 = VERTEX_POINT('',#280);
#280 = CARTESIAN_POINT('',(1.2,-0.63593269228,-2.675460635272));
#281 = LINE('',#282,#283);
#282 = CARTESIAN_POINT('',(1.2,-0.63593269228,-2.675460635272));
#283 = VECTOR('',#284,1.);
#284 = DIRECTION('',(1.,5.E-17,0.));
#285 = ORIENTED_EDGE('',*,*,#286,.T.);
#286 = EDGE_CURVE('',#279,#170,#287,.T.);
#287 = CIRCLE('',#288,2.75);
#288 = AXIS2_PLACEMENT_3D('',#289,#290,#291);
#289 = CARTESIAN_POINT('',(1.2,6.E-17,0.));
#290 = DIRECTION('',(-1.,-5.E-17,0.));
#291 = DIRECTION('',(5.E-17,-1.,0.));
#292 = ORIENTED_EDGE('',*,*,#169,.T.);
#293 = CYLINDRICAL_SURFACE('',#294,2.75);
#294 = AXIS2_PLACEMENT_3D('',#295,#296,#297);
#295 = CARTESIAN_POINT('',(1.2,6.E-17,0.));
#296 = DIRECTION('',(-1.,-5.E-17,-0.));
#297 = DIRECTION('',(5.E-17,-1.,0.));
#298 = ADVANCED_FACE('',(#299),#310,.F.);
#299 = FACE_BOUND('',#300,.T.);
#300 = EDGE_LOOP('',(#301,#302,#308,#309));
#301 = ORIENTED_EDGE('',*,*,#278,.T.);
#302 = ORIENTED_EDGE('',*,*,#303,.F.);
#303 = EDGE_CURVE('',#86,#279,#304,.T.);
#304 = LINE('',#305,#306);
#305 = CARTESIAN_POINT('',(1.2,-0.63593269228,-2.675460635272));
#306 = VECTOR('',#307,1.);
#307 = DIRECTION('',(-0.,0.,1.));
#308 = ORIENTED_EDGE('',*,*,#104,.F.);
#309 = ORIENTED_EDGE('',*,*,#212,.T.);
#310 = PLANE('',#311);
#311 = AXIS2_PLACEMENT_3D('',#312,#313,#314);
#312 = CARTESIAN_POINT('',(1.2,-0.63593269228,-2.675460635272));
#313 = DIRECTION('',(5.E-17,-1.,0.));
#314 = DIRECTION('',(1.,5.E-17,0.));
#315 = ADVANCED_FACE('',(#316),#326,.T.);
#316 = FACE_BOUND('',#317,.T.);
#317 = EDGE_LOOP('',(#318,#319,#320,#321,#322,#323,#324,#325));
#318 = ORIENTED_EDGE('',*,*,#286,.T.);
#319 = ORIENTED_EDGE('',*,*,#177,.T.);
#320 = ORIENTED_EDGE('',*,*,#145,.T.);
#321 = ORIENTED_EDGE('',*,*,#261,.T.);
#322 = ORIENTED_EDGE('',*,*,#236,.F.);
#323 = ORIENTED_EDGE('',*,*,#43,.F.);
#324 = ORIENTED_EDGE('',*,*,#85,.F.);
#325 = ORIENTED_EDGE('',*,*,#303,.T.);
#326 = PLANE('',#327);
#327 = AXIS2_PLACEMENT_3D('',#328,#329,#330);
#328 = CARTESIAN_POINT('',(1.2,6.E-17,0.));
#329 = DIRECTION('',(1.,5.E-17,-0.));
#330 = DIRECTION('',(-5.E-17,1.,0.));
#331 = ( GEOMETRIC_REPRESENTATION_CONTEXT(3) 
GLOBAL_UNCERTAINTY_ASSIGNED_CONTEXT((#335)) GLOBAL_UNIT_ASSIGNED_CONTEXT
((#332,#333,#334)) REPRESENTATION_CONTEXT('Context #1',
  '3D Context with UNIT and UNCERTAINTY') );
#332 = ( LENGTH_UNIT() NAMED_UNIT(*) SI_UNIT(.MILLI.,.METRE.) );
#333 = ( NAMED_UNIT(*) PLANE_ANGLE_UNIT() SI_UNIT($,.RADIAN.) );
#334 = ( NAMED_UNIT(*) SI_UNIT($,.STERADIAN.) SOLID_ANGLE_UNIT() );
#335 = UNCERTAINTY_MEASURE_WITH_UNIT(LENGTH_MEASURE(1.E-07),#332,
  'distance_accuracy_value','confusion accuracy');
#336 = CONTEXT_DEPENDENT_SHAPE_REPRESENTATION(#337,#339);
#337 = ( REPRESENTATION_RELATIONSHIP('','',#36,#10) 
REPRESENTATION_RELATIONSHIP_WITH_TRANSFORMATION(#338) 
SHAPE_REPRESENTATION_RELATIONSHIP() );
#338 = ITEM_DEFINED_TRANSFORMATION('','',#11,#15);
#339 = PRODUCT_DEFINITION_SHAPE('Placement','Placement of an item',#340
  );
#340 = NEXT_ASSEMBLY_USAGE_OCCURRENCE('218',
  'M5X50 Socket Head Screw_Standard','',#5,#31,$);
#341 = PRODUCT_RELATED_PRODUCT_CATEGORY('part',$,(#33));
#342 = SHAPE_DEFINITION_REPRESENTATION(#343,#349);
#343 = PRODUCT_DEFINITION_SHAPE('','',#344);
#344 = PRODUCT_DEFINITION('design','',#345,#348);
#345 = PRODUCT_DEFINITION_FORMATION('','',#346);
#346 = PRODUCT('M5X50 Socket Head Screw_Standard001',
  'M5X50 Socket Head Screw_Standard001','',(#347));
#347 = PRODUCT_CONTEXT('',#2,'mechanical');
#348 = PRODUCT_DEFINITION_CONTEXT('part definition',#2,'design');
#349 = ADVANCED_BREP_SHAPE_REPRESENTATION('',(#11,#350),#1116);
#350 = MANIFOLD_SOLID_BREP('',#351);
#351 = CLOSED_SHELL('',(#352,#442,#498,#540,#568,#600,#651,#669,#733,
    #753,#771,#801,#861,#890,#912,#934,#956,#980,#997,#1013,#1023,#1033,
    #1043,#1059,#1075,#1088,#1104));
#352 = ADVANCED_FACE('',(#353),#425,.F.);
#353 = FACE_BOUND('',#354,.F.);
#354 = EDGE_LOOP('',(#355,#366,#409,#418));
#355 = ORIENTED_EDGE('',*,*,#356,.T.);
#356 = EDGE_CURVE('',#357,#359,#361,.T.);
#357 = VERTEX_POINT('',#358);
#358 = CARTESIAN_POINT('',(0.2,2.5,0.));
#359 = VERTEX_POINT('',#360);
#360 = CARTESIAN_POINT('',(2.E-15,2.7,0.));
#361 = CIRCLE('',#362,0.2);
#362 = AXIS2_PLACEMENT_3D('',#363,#364,#365);
#363 = CARTESIAN_POINT('',(0.2,2.7,0.));
#364 = DIRECTION('',(0.,0.,-1.));
#365 = DIRECTION('',(0.,1.,0.));
#366 = ORIENTED_EDGE('',*,*,#367,.T.);
#367 = EDGE_CURVE('',#359,#368,#370,.T.);
#368 = VERTEX_POINT('',#369);
#369 = CARTESIAN_POINT('',(3.E-15,-2.7,-0.));
#370 = B_SPLINE_CURVE_WITH_KNOTS('',3,(#371,#372,#373,#374,#375,#376,
    #377,#378,#379,#380,#381,#382,#383,#384,#385,#386,#387,#388,#389,
    #390,#391,#392,#393,#394,#395,#396,#397,#398,#399,#400,#401,#402,
    #403,#404,#405,#406,#407,#408),.UNSPECIFIED.,.F.,.F.,(4,1,1,1,2,2,2,
    1,1,1,2,2,2,1,1,1,2,2,2,1,1,1,2,2,4),(0.,6.25E-02,9.375E-02,0.109375
    ,0.1171875,0.125,0.25,0.3125,0.34375,0.359375,0.3671875,0.375,0.5,
    0.5625,0.59375,0.609375,0.6171875,0.625,0.75,0.8125,0.84375,0.859375
    ,0.8671875,0.875,1.),.UNSPECIFIED.);
#371 = CARTESIAN_POINT('',(2.37E-15,2.7,1.3E-16));
#372 = CARTESIAN_POINT('',(2.39E-15,2.7,-0.17175835936));
#373 = CARTESIAN_POINT('',(2.39E-15,2.676303551609,-0.424809093358));
#374 = CARTESIAN_POINT('',(2.39E-15,2.607188910467,-0.712008040862));
#375 = CARTESIAN_POINT('',(2.4E-15,2.562264393725,-0.853600787409));
#376 = CARTESIAN_POINT('',(2.4E-15,2.54078948737,-0.913853380098));
#377 = CARTESIAN_POINT('',(2.4E-15,2.525979207125,-0.953926216786));
#378 = CARTESIAN_POINT('',(2.4E-15,2.519017083079,-0.972173293209));
#379 = CARTESIAN_POINT('',(2.41E-15,2.373009689498,-1.34077447755));
#380 = CARTESIAN_POINT('',(2.42E-15,2.17309321421,-1.64538864757));
#381 = CARTESIAN_POINT('',(2.44E-15,1.777235856701,-2.041088140021));
#382 = CARTESIAN_POINT('',(2.45E-15,1.56385494315,-2.215168026091));
#383 = CARTESIAN_POINT('',(2.46E-15,1.287869133115,-2.376663971237));
#384 = CARTESIAN_POINT('',(2.47E-15,1.143115875374,-2.447012629992));
#385 = CARTESIAN_POINT('',(2.47E-15,1.079630117901,-2.474933630783));
#386 = CARTESIAN_POINT('',(2.47E-15,1.036984358028,-2.493052425891));
#387 = CARTESIAN_POINT('',(2.47E-15,1.013829514799,-2.502525385799));
#388 = CARTESIAN_POINT('',(2.49E-15,0.674274932113,-2.636876845976));
#389 = CARTESIAN_POINT('',(2.51E-15,0.34368715538,-2.700067512025));
#390 = CARTESIAN_POINT('',(2.53E-15,-0.17184357769,-2.699966243987));
#391 = CARTESIAN_POINT('',(2.54E-15,-0.424958225435,-2.676244478586));
#392 = CARTESIAN_POINT('',(2.56E-15,-0.71211988992,-2.6071446057));
#393 = CARTESIAN_POINT('',(2.56E-15,-0.853666032692,-2.562238549278));
#394 = CARTESIAN_POINT('',(2.57E-15,-0.913892660422,-2.540773927958));
#395 = CARTESIAN_POINT('',(2.57E-15,-0.953946855601,-2.525971031841));
#396 = CARTESIAN_POINT('',(2.57E-15,-0.972173293209,-2.519017083079));
#397 = CARTESIAN_POINT('',(2.59E-15,-1.34077447755,-2.373009689499));
#398 = CARTESIAN_POINT('',(2.6E-15,-1.64538864757,-2.173093214209));
#399 = CARTESIAN_POINT('',(2.62E-15,-2.04108814002,-1.777235856701));
#400 = CARTESIAN_POINT('',(2.63E-15,-2.215168026091,-1.56385494315));
#401 = CARTESIAN_POINT('',(2.64E-15,-2.376663971237,-1.287869133115));
#402 = CARTESIAN_POINT('',(2.64E-15,-2.447012629992,-1.143115875374));
#403 = CARTESIAN_POINT('',(2.64E-15,-2.474933630783,-1.079630117901));
#404 = CARTESIAN_POINT('',(2.64E-15,-2.493052425891,-1.036984358028));
#405 = CARTESIAN_POINT('',(2.65E-15,-2.502529596738,-1.013818872238));
#406 = CARTESIAN_POINT('',(2.65E-15,-2.636809470956,-0.674445213082));
#407 = CARTESIAN_POINT('',(2.66E-15,-2.7,-0.343159974476));
#408 = CARTESIAN_POINT('',(2.64E-15,-2.7,-2.E-16));
#409 = ORIENTED_EDGE('',*,*,#410,.F.);
#410 = EDGE_CURVE('',#411,#368,#413,.T.);
#411 = VERTEX_POINT('',#412);
#412 = CARTESIAN_POINT('',(0.2,-2.5,0.));
#413 = CIRCLE('',#414,0.2);
#414 = AXIS2_PLACEMENT_3D('',#415,#416,#417);
#415 = CARTESIAN_POINT('',(0.2,-2.7,-3.3E-16));
#416 = DIRECTION('',(0.,-1.2E-16,1.));
#417 = DIRECTION('',(1.4E-16,-1.,-1.2E-16));
#418 = ORIENTED_EDGE('',*,*,#419,.T.);
#419 = EDGE_CURVE('',#411,#357,#420,.T.);
#420 = CIRCLE('',#421,2.5);
#421 = AXIS2_PLACEMENT_3D('',#422,#423,#424);
#422 = CARTESIAN_POINT('',(0.2,-3.8E-16,0.));
#423 = DIRECTION('',(1.,5.E-17,0.));
#424 = DIRECTION('',(5.E-17,-1.,0.));
#425 = ( BOUNDED_SURFACE() B_SPLINE_SURFACE(3,3,(
    (#426,#427,#428,#429)
    ,(#430,#431,#432,#433)
    ,(#434,#435,#436,#437)
    ,(#438,#439,#440,#441
)),.UNSPECIFIED.,.F.,.F.,.F.) B_SPLINE_SURFACE_WITH_KNOTS((4,4),(4,4),(
    0.,1.),(0.,1.),.PIECEWISE_BEZIER_KNOTS.) 
GEOMETRIC_REPRESENTATION_ITEM() RATIONAL_B_SPLINE_SURFACE((
    (1.,0.333333333333,0.333333333333,1.)
    ,(0.804737854124,0.268245951375,0.268245951375,0.804737854124)
    ,(0.804737854124,0.268245951375,0.268245951375,0.804737854124)
,(1.,0.333333333333,0.333333333333,1.
))) REPRESENTATION_ITEM('') SURFACE() );
#426 = CARTESIAN_POINT('',(0.2,2.5,3.1E-16));
#427 = CARTESIAN_POINT('',(0.2,2.5,-5.));
#428 = CARTESIAN_POINT('',(0.2,-2.5,-5.));
#429 = CARTESIAN_POINT('',(0.2,-2.5,-6.1E-16));
#430 = CARTESIAN_POINT('',(8.284271247462E-02,2.5,3.1E-16));
#431 = CARTESIAN_POINT('',(8.284271247462E-02,2.5,-5.));
#432 = CARTESIAN_POINT('',(8.284271247462E-02,-2.5,-5.));
#433 = CARTESIAN_POINT('',(8.284271247462E-02,-2.5,-6.1E-16));
#434 = CARTESIAN_POINT('',(1.65E-15,2.582842712475,3.2E-16));
#435 = CARTESIAN_POINT('',(1.65E-15,2.582842712475,-5.165685424949));
#436 = CARTESIAN_POINT('',(1.9E-15,-2.582842712475,-5.165685424949));
#437 = CARTESIAN_POINT('',(1.9E-15,-2.582842712475,-6.3E-16));
#438 = CARTESIAN_POINT('',(2.36E-15,2.7,3.3E-16));
#439 = CARTESIAN_POINT('',(2.36E-15,2.7,-5.4));
#440 = CARTESIAN_POINT('',(2.62E-15,-2.7,-5.4));
#441 = CARTESIAN_POINT('',(2.62E-15,-2.7,-6.6E-16));
#442 = ADVANCED_FACE('',(#443),#481,.T.);
#443 = FACE_BOUND('',#444,.T.);
#444 = EDGE_LOOP('',(#445,#456,#465,#474));
#445 = ORIENTED_EDGE('',*,*,#446,.T.);
#446 = EDGE_CURVE('',#447,#449,#451,.T.);
#447 = VERTEX_POINT('',#448);
#448 = CARTESIAN_POINT('',(-5.,3.75,0.));
#449 = VERTEX_POINT('',#450);
#450 = CARTESIAN_POINT('',(-5.,-3.75,-0.));
#451 = ( BOUNDED_CURVE() B_SPLINE_CURVE(3,(#452,#453,#454,#455),
.UNSPECIFIED.,.F.,.F.) B_SPLINE_CURVE_WITH_KNOTS((4,4),(0.,1.),
.PIECEWISE_BEZIER_KNOTS.) CURVE() GEOMETRIC_REPRESENTATION_ITEM() 
RATIONAL_B_SPLINE_CURVE((1.,0.333333333333,0.333333333333,1.)) 
REPRESENTATION_ITEM('') );
#452 = CARTESIAN_POINT('',(-5.,3.75,2.E-16));
#453 = CARTESIAN_POINT('',(-5.,3.75,7.5));
#454 = CARTESIAN_POINT('',(-5.,-3.75,7.5));
#455 = CARTESIAN_POINT('',(-5.,-3.75,-2.8E-16));
#456 = ORIENTED_EDGE('',*,*,#457,.T.);
#457 = EDGE_CURVE('',#449,#458,#460,.T.);
#458 = VERTEX_POINT('',#459);
#459 = CARTESIAN_POINT('',(-4.5,-4.25,0.));
#460 = CIRCLE('',#461,0.5);
#461 = AXIS2_PLACEMENT_3D('',#462,#463,#464);
#462 = CARTESIAN_POINT('',(-4.5,-3.75,-4.6E-16));
#463 = DIRECTION('',(0.,-1.2E-16,1.));
#464 = DIRECTION('',(-0.,-1.,-1.2E-16));
#465 = ORIENTED_EDGE('',*,*,#466,.F.);
#466 = EDGE_CURVE('',#467,#458,#469,.T.);
#467 = VERTEX_POINT('',#468);
#468 = CARTESIAN_POINT('',(-4.5,4.25,1.E-15));
#469 = CIRCLE('',#470,4.25);
#470 = AXIS2_PLACEMENT_3D('',#471,#472,#473);
#471 = CARTESIAN_POINT('',(-4.5,-6.1E-16,0.));
#472 = DIRECTION('',(1.,5.E-17,0.));
#473 = DIRECTION('',(5.E-17,-1.,0.));
#474 = ORIENTED_EDGE('',*,*,#475,.F.);
#475 = EDGE_CURVE('',#447,#467,#476,.T.);
#476 = CIRCLE('',#477,0.5);
#477 = AXIS2_PLACEMENT_3D('',#478,#479,#480);
#478 = CARTESIAN_POINT('',(-4.5,3.75,0.));
#479 = DIRECTION('',(0.,0.,-1.));
#480 = DIRECTION('',(0.,1.,0.));
#481 = ( BOUNDED_SURFACE() B_SPLINE_SURFACE(3,3,(
    (#482,#483,#484,#485)
    ,(#486,#487,#488,#489)
    ,(#490,#491,#492,#493)
    ,(#494,#495,#496,#497
)),.UNSPECIFIED.,.F.,.F.,.F.) B_SPLINE_SURFACE_WITH_KNOTS((4,4),(4,4),(
    0.,1.),(0.,1.),.PIECEWISE_BEZIER_KNOTS.) 
GEOMETRIC_REPRESENTATION_ITEM() RATIONAL_B_SPLINE_SURFACE((
    (1.,0.333333333333,0.333333333333,1.)
    ,(0.804737854124,0.268245951375,0.268245951375,0.804737854124)
    ,(0.804737854124,0.268245951375,0.268245951375,0.804737854124)
,(1.,0.333333333333,0.333333333333,1.
))) REPRESENTATION_ITEM('') SURFACE() );
#482 = CARTESIAN_POINT('',(-5.,-3.75,-4.6E-16));
#483 = CARTESIAN_POINT('',(-5.,-3.75,7.5));
#484 = CARTESIAN_POINT('',(-5.,3.75,7.5));
#485 = CARTESIAN_POINT('',(-5.,3.75,9.2E-16));
#486 = CARTESIAN_POINT('',(-5.,-4.042893218813,-5.E-16));
#487 = CARTESIAN_POINT('',(-5.,-4.042893218813,8.085786437627));
#488 = CARTESIAN_POINT('',(-5.,4.042893218813,8.085786437627));
#489 = CARTESIAN_POINT('',(-5.,4.042893218813,9.9E-16));
#490 = CARTESIAN_POINT('',(-4.792893218813,-4.25,-5.2E-16));
#491 = CARTESIAN_POINT('',(-4.792893218813,-4.25,8.5));
#492 = CARTESIAN_POINT('',(-4.792893218813,4.25,8.5));
#493 = CARTESIAN_POINT('',(-4.792893218813,4.25,1.04E-15));
#494 = CARTESIAN_POINT('',(-4.5,-4.25,-5.2E-16));
#495 = CARTESIAN_POINT('',(-4.5,-4.25,8.5));
#496 = CARTESIAN_POINT('',(-4.5,4.25,8.5));
#497 = CARTESIAN_POINT('',(-4.5,4.25,1.04E-15));
#498 = ADVANCED_FACE('',(#499),#535,.T.);
#499 = FACE_BOUND('',#500,.T.);
#500 = EDGE_LOOP('',(#501,#512,#520,#529));
#501 = ORIENTED_EDGE('',*,*,#502,.F.);
#502 = EDGE_CURVE('',#503,#505,#507,.T.);
#503 = VERTEX_POINT('',#504);
#504 = CARTESIAN_POINT('',(50.2,2.,0.));
#505 = VERTEX_POINT('',#506);
#506 = CARTESIAN_POINT('',(50.2,-2.,0.));
#507 = CIRCLE('',#508,2.);
#508 = AXIS2_PLACEMENT_3D('',#509,#510,#511);
#509 = CARTESIAN_POINT('',(50.2,2.07E-15,0.));
#510 = DIRECTION('',(1.,0.,0.));
#511 = DIRECTION('',(0.,0.,-1.));
#512 = ORIENTED_EDGE('',*,*,#513,.T.);
#513 = EDGE_CURVE('',#503,#514,#516,.T.);
#514 = VERTEX_POINT('',#515);
#515 = CARTESIAN_POINT('',(49.7,2.5,0.));
#516 = LINE('',#517,#518);
#517 = CARTESIAN_POINT('',(50.2,2.,2.4E-16));
#518 = VECTOR('',#519,1.);
#519 = DIRECTION('',(-0.707106781187,0.707106781187,9.E-17));
#520 = ORIENTED_EDGE('',*,*,#521,.F.);
#521 = EDGE_CURVE('',#522,#514,#524,.T.);
#522 = VERTEX_POINT('',#523);
#523 = CARTESIAN_POINT('',(49.7,-2.5,0.));
#524 = CIRCLE('',#525,2.5);
#525 = AXIS2_PLACEMENT_3D('',#526,#527,#528);
#526 = CARTESIAN_POINT('',(49.7,2.05E-15,0.));
#527 = DIRECTION('',(-1.,-5.E-17,0.));
#528 = DIRECTION('',(-5.E-17,1.,0.));
#529 = ORIENTED_EDGE('',*,*,#530,.F.);
#530 = EDGE_CURVE('',#505,#522,#531,.T.);
#531 = LINE('',#532,#533);
#532 = CARTESIAN_POINT('',(50.2,-2.,0.));
#533 = VECTOR('',#534,1.);
#534 = DIRECTION('',(-0.707106781187,-0.707106781187,0.));
#535 = CONICAL_SURFACE('',#536,2.,0.785398163397);
#536 = AXIS2_PLACEMENT_3D('',#537,#538,#539);
#537 = CARTESIAN_POINT('',(50.2,2.07E-15,0.));
#538 = DIRECTION('',(-1.,-5.E-17,0.));
#539 = DIRECTION('',(5.E-17,-1.,0.));
#540 = ADVANCED_FACE('',(#541),#563,.T.);
#541 = FACE_BOUND('',#542,.T.);
#542 = EDGE_LOOP('',(#543,#544,#550,#557));
#543 = ORIENTED_EDGE('',*,*,#521,.T.);
#544 = ORIENTED_EDGE('',*,*,#545,.T.);
#545 = EDGE_CURVE('',#514,#357,#546,.T.);
#546 = LINE('',#547,#548);
#547 = CARTESIAN_POINT('',(-1.177001858152,2.5,3.1E-16));
#548 = VECTOR('',#549,1.);
#549 = DIRECTION('',(-1.,-5.E-17,0.));
#550 = ORIENTED_EDGE('',*,*,#551,.T.);
#551 = EDGE_CURVE('',#357,#411,#552,.T.);
#552 = CIRCLE('',#553,2.5);
#553 = AXIS2_PLACEMENT_3D('',#554,#555,#556);
#554 = CARTESIAN_POINT('',(0.2,-3.8E-16,0.));
#555 = DIRECTION('',(1.,5.E-17,0.));
#556 = DIRECTION('',(5.E-17,-1.,0.));
#557 = ORIENTED_EDGE('',*,*,#558,.F.);
#558 = EDGE_CURVE('',#522,#411,#559,.T.);
#559 = LINE('',#560,#561);
#560 = CARTESIAN_POINT('',(-1.177001858152,-2.5,0.));
#561 = VECTOR('',#562,1.);
#562 = DIRECTION('',(-1.,-5.E-17,0.));
#563 = CYLINDRICAL_SURFACE('',#564,2.5);
#564 = AXIS2_PLACEMENT_3D('',#565,#566,#567);
#565 = CARTESIAN_POINT('',(-1.177001858152,-4.5E-16,0.));
#566 = DIRECTION('',(-1.,-5.E-17,0.));
#567 = DIRECTION('',(5.E-17,-1.,0.));
#568 = ADVANCED_FACE('',(#569),#595,.T.);
#569 = FACE_BOUND('',#570,.T.);
#570 = EDGE_LOOP('',(#571,#582,#588,#589));
#571 = ORIENTED_EDGE('',*,*,#572,.T.);
#572 = EDGE_CURVE('',#573,#575,#577,.T.);
#573 = VERTEX_POINT('',#574);
#574 = CARTESIAN_POINT('',(3.E-15,-4.25,0.));
#575 = VERTEX_POINT('',#576);
#576 = CARTESIAN_POINT('',(3.E-15,4.25,1.E-15));
#577 = CIRCLE('',#578,4.25);
#578 = AXIS2_PLACEMENT_3D('',#579,#580,#581);
#579 = CARTESIAN_POINT('',(3.25E-15,-3.9E-16,0.));
#580 = DIRECTION('',(-1.,-5.E-17,0.));
#581 = DIRECTION('',(5.E-17,-1.,0.));
#582 = ORIENTED_EDGE('',*,*,#583,.T.);
#583 = EDGE_CURVE('',#575,#467,#584,.T.);
#584 = LINE('',#585,#586);
#585 = CARTESIAN_POINT('',(-1.177001858152,4.25,5.2E-16));
#586 = VECTOR('',#587,1.);
#587 = DIRECTION('',(-1.,-5.E-17,0.));
#588 = ORIENTED_EDGE('',*,*,#466,.T.);
#589 = ORIENTED_EDGE('',*,*,#590,.F.);
#590 = EDGE_CURVE('',#573,#458,#591,.T.);
#591 = LINE('',#592,#593);
#592 = CARTESIAN_POINT('',(-1.177001858152,-4.25,0.));
#593 = VECTOR('',#594,1.);
#594 = DIRECTION('',(-1.,-5.E-17,0.));
#595 = CYLINDRICAL_SURFACE('',#596,4.25);
#596 = AXIS2_PLACEMENT_3D('',#597,#598,#599);
#597 = CARTESIAN_POINT('',(-1.177001858152,-4.5E-16,0.));
#598 = DIRECTION('',(-1.,-5.E-17,0.));
#599 = DIRECTION('',(5.E-17,-1.,0.));
#600 = ADVANCED_FACE('',(#601),#646,.F.);
#601 = FACE_BOUND('',#602,.F.);
#602 = EDGE_LOOP('',(#603,#614,#623,#632,#640));
#603 = ORIENTED_EDGE('',*,*,#604,.F.);
#604 = EDGE_CURVE('',#605,#607,#609,.T.);
#605 = VERTEX_POINT('',#606);
#606 = CARTESIAN_POINT('',(-2.500000000007,-1.145750000035,
    -1.984497212832));
#607 = VERTEX_POINT('',#608);
#608 = CARTESIAN_POINT('',(-2.500000000007,-2.291500000069,1.E-15));
#609 = CIRCLE('',#610,2.291500000069);
#610 = AXIS2_PLACEMENT_3D('',#611,#612,#613);
#611 = CARTESIAN_POINT('',(-2.500000000007,-6.5E-16,0.));
#612 = DIRECTION('',(-1.,-9.E-17,0.));
#613 = DIRECTION('',(9.E-17,-1.,0.));
#614 = ORIENTED_EDGE('',*,*,#615,.F.);
#615 = EDGE_CURVE('',#616,#605,#618,.T.);
#616 = VERTEX_POINT('',#617);
#617 = CARTESIAN_POINT('',(-2.499999999941,1.145749999978,
    -1.984497212734));
#618 = CIRCLE('',#619,2.291499999956);
#619 = AXIS2_PLACEMENT_3D('',#620,#621,#622);
#620 = CARTESIAN_POINT('',(-2.499999999941,-6.5E-16,0.));
#621 = DIRECTION('',(-1.,-9.E-17,0.));
#622 = DIRECTION('',(9.E-17,-1.,0.));
#623 = ORIENTED_EDGE('',*,*,#624,.F.);
#624 = EDGE_CURVE('',#625,#616,#627,.T.);
#625 = VERTEX_POINT('',#626);
#626 = CARTESIAN_POINT('',(-2.499999999984,2.291500000017,2.4696E-11));
#627 = CIRCLE('',#628,2.291499999956);
#628 = AXIS2_PLACEMENT_3D('',#629,#630,#631);
#629 = CARTESIAN_POINT('',(-2.499999999941,-6.5E-16,0.));
#630 = DIRECTION('',(-1.,-9.E-17,0.));
#631 = DIRECTION('',(9.E-17,-1.,0.));
#632 = ORIENTED_EDGE('',*,*,#633,.F.);
#633 = EDGE_CURVE('',#634,#625,#636,.T.);
#634 = VERTEX_POINT('',#635);
#635 = CARTESIAN_POINT('',(-1.177001858053,-1.7053E-10,0.));
#636 = LINE('',#637,#638);
#637 = CARTESIAN_POINT('',(-2.499999999941,2.291499999956,2.8E-16));
#638 = VECTOR('',#639,1.);
#639 = DIRECTION('',(-0.500000000054,0.866025403753,1.1E-16));
#640 = ORIENTED_EDGE('',*,*,#641,.T.);
#641 = EDGE_CURVE('',#634,#607,#642,.T.);
#642 = LINE('',#643,#644);
#643 = CARTESIAN_POINT('',(-2.499999999941,-2.291499999956,0.));
#644 = VECTOR('',#645,1.);
#645 = DIRECTION('',(-0.500000000054,-0.866025403753,0.));
#646 = CONICAL_SURFACE('',#647,2.291499999956,1.047197551134);
#647 = AXIS2_PLACEMENT_3D('',#648,#649,#650);
#648 = CARTESIAN_POINT('',(-2.499999999941,-6.5E-16,0.));
#649 = DIRECTION('',(-1.,-9.E-17,-0.));
#650 = DIRECTION('',(9.E-17,-1.,0.));
#651 = ADVANCED_FACE('',(#652),#664,.T.);
#652 = FACE_BOUND('',#653,.T.);
#653 = EDGE_LOOP('',(#654,#655,#662,#663));
#654 = ORIENTED_EDGE('',*,*,#545,.F.);
#655 = ORIENTED_EDGE('',*,*,#656,.T.);
#656 = EDGE_CURVE('',#514,#522,#657,.T.);
#657 = CIRCLE('',#658,2.5);
#658 = AXIS2_PLACEMENT_3D('',#659,#660,#661);
#659 = CARTESIAN_POINT('',(49.7,2.05E-15,0.));
#660 = DIRECTION('',(-1.,-5.E-17,0.));
#661 = DIRECTION('',(-5.E-17,1.,0.));
#662 = ORIENTED_EDGE('',*,*,#558,.T.);
#663 = ORIENTED_EDGE('',*,*,#419,.T.);
#664 = CYLINDRICAL_SURFACE('',#665,2.5);
#665 = AXIS2_PLACEMENT_3D('',#666,#667,#668);
#666 = CARTESIAN_POINT('',(-1.177001858152,-4.5E-16,0.));
#667 = DIRECTION('',(-1.,-5.E-17,0.));
#668 = DIRECTION('',(5.E-17,-1.,0.));
#669 = ADVANCED_FACE('',(#670),#716,.F.);
#670 = FACE_BOUND('',#671,.F.);
#671 = EDGE_LOOP('',(#672,#713,#714,#715));
#672 = ORIENTED_EDGE('',*,*,#673,.T.);
#673 = EDGE_CURVE('',#368,#359,#674,.T.);
#674 = B_SPLINE_CURVE_WITH_KNOTS('',3,(#675,#676,#677,#678,#679,#680,
    #681,#682,#683,#684,#685,#686,#687,#688,#689,#690,#691,#692,#693,
    #694,#695,#696,#697,#698,#699,#700,#701,#702,#703,#704,#705,#706,
    #707,#708,#709,#710,#711,#712),.UNSPECIFIED.,.F.,.F.,(4,1,1,1,2,2,2,
    1,1,1,2,2,2,1,1,1,2,2,2,1,1,1,2,2,4),(0.,6.25E-02,9.375E-02,0.109375
    ,0.1171875,0.125,0.25,0.3125,0.34375,0.359375,0.3671875,0.375,0.5,
    0.5625,0.59375,0.609375,0.6171875,0.625,0.75,0.8125,0.84375,0.859375
    ,0.8671875,0.875,1.),.UNSPECIFIED.);
#675 = CARTESIAN_POINT('',(2.64E-15,-2.7,-2.E-16));
#676 = CARTESIAN_POINT('',(2.66E-15,-2.7,0.17175835936));
#677 = CARTESIAN_POINT('',(2.65E-15,-2.676303551609,0.424809093358));
#678 = CARTESIAN_POINT('',(2.65E-15,-2.607188910467,0.712008040862));
#679 = CARTESIAN_POINT('',(2.65E-15,-2.562264393725,0.853600787408));
#680 = CARTESIAN_POINT('',(2.65E-15,-2.54078948737,0.913853380098));
#681 = CARTESIAN_POINT('',(2.65E-15,-2.525979207125,0.953926216786));
#682 = CARTESIAN_POINT('',(2.65E-15,-2.519017083079,0.972173293209));
#683 = CARTESIAN_POINT('',(2.64E-15,-2.373009689498,1.34077447755));
#684 = CARTESIAN_POINT('',(2.63E-15,-2.173093214211,1.645388647569));
#685 = CARTESIAN_POINT('',(2.61E-15,-1.7772358567,2.041088140021));
#686 = CARTESIAN_POINT('',(2.6E-15,-1.563854943149,2.215168026092));
#687 = CARTESIAN_POINT('',(2.59E-15,-1.287869133114,2.376663971237));
#688 = CARTESIAN_POINT('',(2.58E-15,-1.143115875373,2.447012629992));
#689 = CARTESIAN_POINT('',(2.58E-15,-1.079630117901,2.474933630783));
#690 = CARTESIAN_POINT('',(2.57E-15,-1.036984358028,2.493052425891));
#691 = CARTESIAN_POINT('',(2.57E-15,-1.013829514799,2.502525385799));
#692 = CARTESIAN_POINT('',(2.56E-15,-0.674274932112,2.636876845976));
#693 = CARTESIAN_POINT('',(2.54E-15,-0.343687155381,2.700067512025));
#694 = CARTESIAN_POINT('',(2.51E-15,0.17184357769,2.699966243987));
#695 = CARTESIAN_POINT('',(2.5E-15,0.424958225435,2.676244478586));
#696 = CARTESIAN_POINT('',(2.49E-15,0.712119889921,2.6071446057));
#697 = CARTESIAN_POINT('',(2.48E-15,0.853666032693,2.562238549278));
#698 = CARTESIAN_POINT('',(2.48E-15,0.913892660422,2.540773927958));
#699 = CARTESIAN_POINT('',(2.48E-15,0.953946855601,2.525971031841));
#700 = CARTESIAN_POINT('',(2.47E-15,0.972173293209,2.519017083079));
#701 = CARTESIAN_POINT('',(2.46E-15,1.340774477551,2.373009689498));
#702 = CARTESIAN_POINT('',(2.44E-15,1.645388647569,2.173093214211));
#703 = CARTESIAN_POINT('',(2.42E-15,2.041088140021,1.7772358567));
#704 = CARTESIAN_POINT('',(2.41E-15,2.215168026092,1.563854943149));
#705 = CARTESIAN_POINT('',(2.41E-15,2.376663971237,1.287869133114));
#706 = CARTESIAN_POINT('',(2.4E-15,2.447012629992,1.143115875373));
#707 = CARTESIAN_POINT('',(2.4E-15,2.474933630783,1.079630117901));
#708 = CARTESIAN_POINT('',(2.4E-15,2.493052425891,1.036984358028));
#709 = CARTESIAN_POINT('',(2.4E-15,2.502529596738,1.013818872238));
#710 = CARTESIAN_POINT('',(2.39E-15,2.636809470956,0.674445213081));
#711 = CARTESIAN_POINT('',(2.39E-15,2.7,0.343159974475));
#712 = CARTESIAN_POINT('',(2.37E-15,2.7,1.3E-16));
#713 = ORIENTED_EDGE('',*,*,#356,.F.);
#714 = ORIENTED_EDGE('',*,*,#551,.T.);
#715 = ORIENTED_EDGE('',*,*,#410,.T.);
#716 = ( BOUNDED_SURFACE() B_SPLINE_SURFACE(3,3,(
    (#717,#718,#719,#720)
    ,(#721,#722,#723,#724)
    ,(#725,#726,#727,#728)
    ,(#729,#730,#731,#732
)),.UNSPECIFIED.,.F.,.F.,.F.) B_SPLINE_SURFACE_WITH_KNOTS((4,4),(4,4),(
    0.,1.),(0.,1.),.PIECEWISE_BEZIER_KNOTS.) 
GEOMETRIC_REPRESENTATION_ITEM() RATIONAL_B_SPLINE_SURFACE((
    (1.,0.333333333333,0.333333333333,1.)
    ,(0.804737854124,0.268245951375,0.268245951375,0.804737854124)
    ,(0.804737854124,0.268245951375,0.268245951375,0.804737854124)
,(1.,0.333333333333,0.333333333333,1.
))) REPRESENTATION_ITEM('') SURFACE() );
#717 = CARTESIAN_POINT('',(0.2,-2.5,-3.1E-16));
#718 = CARTESIAN_POINT('',(0.2,-2.5,5.));
#719 = CARTESIAN_POINT('',(0.2,2.5,5.));
#720 = CARTESIAN_POINT('',(0.2,2.5,6.1E-16));
#721 = CARTESIAN_POINT('',(8.284271247462E-02,-2.5,-3.1E-16));
#722 = CARTESIAN_POINT('',(8.284271247462E-02,-2.5,5.));
#723 = CARTESIAN_POINT('',(8.284271247462E-02,2.5,5.));
#724 = CARTESIAN_POINT('',(8.284271247462E-02,2.5,6.1E-16));
#725 = CARTESIAN_POINT('',(1.91E-15,-2.582842712475,-3.2E-16));
#726 = CARTESIAN_POINT('',(1.91E-15,-2.582842712475,5.165685424949));
#727 = CARTESIAN_POINT('',(1.66E-15,2.582842712475,5.165685424949));
#728 = CARTESIAN_POINT('',(1.66E-15,2.582842712475,6.3E-16));
#729 = CARTESIAN_POINT('',(2.63E-15,-2.7,-3.3E-16));
#730 = CARTESIAN_POINT('',(2.63E-15,-2.7,5.4));
#731 = CARTESIAN_POINT('',(2.36E-15,2.7,5.4));
#732 = CARTESIAN_POINT('',(2.36E-15,2.7,6.6E-16));
#733 = ADVANCED_FACE('',(#734,#738),#748,.F.);
#734 = FACE_BOUND('',#735,.T.);
#735 = EDGE_LOOP('',(#736,#737));
#736 = ORIENTED_EDGE('',*,*,#367,.T.);
#737 = ORIENTED_EDGE('',*,*,#673,.T.);
#738 = FACE_BOUND('',#739,.T.);
#739 = EDGE_LOOP('',(#740,#741));
#740 = ORIENTED_EDGE('',*,*,#572,.F.);
#741 = ORIENTED_EDGE('',*,*,#742,.F.);
#742 = EDGE_CURVE('',#575,#573,#743,.T.);
#743 = CIRCLE('',#744,4.25);
#744 = AXIS2_PLACEMENT_3D('',#745,#746,#747);
#745 = CARTESIAN_POINT('',(3.25E-15,-3.9E-16,0.));
#746 = DIRECTION('',(-1.,-5.E-17,0.));
#747 = DIRECTION('',(5.E-17,-1.,0.));
#748 = PLANE('',#749);
#749 = AXIS2_PLACEMENT_3D('',#750,#751,#752);
#750 = CARTESIAN_POINT('',(2.31E-15,4.25,0.));
#751 = DIRECTION('',(-1.,-5.E-17,0.));
#752 = DIRECTION('',(5.E-17,-1.,0.));
#753 = ADVANCED_FACE('',(#754),#766,.T.);
#754 = FACE_BOUND('',#755,.T.);
#755 = EDGE_LOOP('',(#756,#757,#758,#759));
#756 = ORIENTED_EDGE('',*,*,#583,.F.);
#757 = ORIENTED_EDGE('',*,*,#742,.T.);
#758 = ORIENTED_EDGE('',*,*,#590,.T.);
#759 = ORIENTED_EDGE('',*,*,#760,.T.);
#760 = EDGE_CURVE('',#458,#467,#761,.T.);
#761 = CIRCLE('',#762,4.25);
#762 = AXIS2_PLACEMENT_3D('',#763,#764,#765);
#763 = CARTESIAN_POINT('',(-4.5,-6.1E-16,0.));
#764 = DIRECTION('',(1.,5.E-17,0.));
#765 = DIRECTION('',(5.E-17,-1.,0.));
#766 = CYLINDRICAL_SURFACE('',#767,4.25);
#767 = AXIS2_PLACEMENT_3D('',#768,#769,#770);
#768 = CARTESIAN_POINT('',(-1.177001858152,-4.5E-16,0.));
#769 = DIRECTION('',(-1.,-5.E-17,0.));
#770 = DIRECTION('',(5.E-17,-1.,0.));
#771 = ADVANCED_FACE('',(#772),#784,.T.);
#772 = FACE_BOUND('',#773,.T.);
#773 = EDGE_LOOP('',(#774,#775,#782,#783));
#774 = ORIENTED_EDGE('',*,*,#457,.F.);
#775 = ORIENTED_EDGE('',*,*,#776,.T.);
#776 = EDGE_CURVE('',#449,#447,#777,.T.);
#777 = ( BOUNDED_CURVE() B_SPLINE_CURVE(3,(#778,#779,#780,#781),
.UNSPECIFIED.,.F.,.F.) B_SPLINE_CURVE_WITH_KNOTS((4,4),(0.,1.),
.PIECEWISE_BEZIER_KNOTS.) CURVE() GEOMETRIC_REPRESENTATION_ITEM() 
RATIONAL_B_SPLINE_CURVE((1.,0.333333333333,0.333333333333,1.)) 
REPRESENTATION_ITEM('') );
#778 = CARTESIAN_POINT('',(-5.,-3.75,-2.8E-16));
#779 = CARTESIAN_POINT('',(-5.,-3.75,-7.5));
#780 = CARTESIAN_POINT('',(-5.,3.75,-7.5));
#781 = CARTESIAN_POINT('',(-5.,3.75,2.E-16));
#782 = ORIENTED_EDGE('',*,*,#475,.T.);
#783 = ORIENTED_EDGE('',*,*,#760,.F.);
#784 = ( BOUNDED_SURFACE() B_SPLINE_SURFACE(3,3,(
    (#785,#786,#787,#788)
    ,(#789,#790,#791,#792)
    ,(#793,#794,#795,#796)
    ,(#797,#798,#799,#800
)),.UNSPECIFIED.,.F.,.F.,.F.) B_SPLINE_SURFACE_WITH_KNOTS((4,4),(4,4),(
    0.,1.),(0.,1.),.PIECEWISE_BEZIER_KNOTS.) 
GEOMETRIC_REPRESENTATION_ITEM() RATIONAL_B_SPLINE_SURFACE((
    (1.,0.333333333333,0.333333333333,1.)
    ,(0.804737854124,0.268245951375,0.268245951375,0.804737854124)
    ,(0.804737854124,0.268245951375,0.268245951375,0.804737854124)
,(1.,0.333333333333,0.333333333333,1.
))) REPRESENTATION_ITEM('') SURFACE() );
#785 = CARTESIAN_POINT('',(-5.,3.75,4.6E-16));
#786 = CARTESIAN_POINT('',(-5.,3.75,-7.5));
#787 = CARTESIAN_POINT('',(-5.,-3.75,-7.5));
#788 = CARTESIAN_POINT('',(-5.,-3.75,-9.2E-16));
#789 = CARTESIAN_POINT('',(-5.,4.042893218813,5.E-16));
#790 = CARTESIAN_POINT('',(-5.,4.042893218813,-8.085786437627));
#791 = CARTESIAN_POINT('',(-5.,-4.042893218813,-8.085786437627));
#792 = CARTESIAN_POINT('',(-5.,-4.042893218813,-9.9E-16));
#793 = CARTESIAN_POINT('',(-4.792893218813,4.25,5.2E-16));
#794 = CARTESIAN_POINT('',(-4.792893218813,4.25,-8.5));
#795 = CARTESIAN_POINT('',(-4.792893218813,-4.25,-8.5));
#796 = CARTESIAN_POINT('',(-4.792893218813,-4.25,-1.04E-15));
#797 = CARTESIAN_POINT('',(-4.5,4.25,5.2E-16));
#798 = CARTESIAN_POINT('',(-4.5,4.25,-8.5));
#799 = CARTESIAN_POINT('',(-4.5,-4.25,-8.5));
#800 = CARTESIAN_POINT('',(-4.5,-4.25,-1.04E-15));
#801 = ADVANCED_FACE('',(#802,#806),#856,.F.);
#802 = FACE_BOUND('',#803,.T.);
#803 = EDGE_LOOP('',(#804,#805));
#804 = ORIENTED_EDGE('',*,*,#776,.F.);
#805 = ORIENTED_EDGE('',*,*,#446,.F.);
#806 = FACE_BOUND('',#807,.T.);
#807 = EDGE_LOOP('',(#808,#818,#826,#834,#842,#850));
#808 = ORIENTED_EDGE('',*,*,#809,.F.);
#809 = EDGE_CURVE('',#810,#812,#814,.T.);
#810 = VERTEX_POINT('',#811);
#811 = CARTESIAN_POINT('',(-5.,-1.14575,-1.984497212772));
#812 = VERTEX_POINT('',#813);
#813 = CARTESIAN_POINT('',(-5.,-2.2915,1.E-15));
#814 = LINE('',#815,#816);
#815 = CARTESIAN_POINT('',(-5.,-1.14575,-1.984497212772));
#816 = VECTOR('',#817,1.);
#817 = DIRECTION('',(0.,-0.5,0.866025403784));
#818 = ORIENTED_EDGE('',*,*,#819,.F.);
#819 = EDGE_CURVE('',#820,#810,#822,.T.);
#820 = VERTEX_POINT('',#821);
#821 = CARTESIAN_POINT('',(-5.,1.14575,-1.984497212772));
#822 = LINE('',#823,#824);
#823 = CARTESIAN_POINT('',(-5.,2.2915,-1.984497212772));
#824 = VECTOR('',#825,1.);
#825 = DIRECTION('',(5.E-17,-1.,-0.));
#826 = ORIENTED_EDGE('',*,*,#827,.F.);
#827 = EDGE_CURVE('',#828,#820,#830,.T.);
#828 = VERTEX_POINT('',#829);
#829 = CARTESIAN_POINT('',(-5.,2.2915,1.E-15));
#830 = LINE('',#831,#832);
#831 = CARTESIAN_POINT('',(-5.,2.2915,2.39E-15));
#832 = VECTOR('',#833,1.);
#833 = DIRECTION('',(0.,-0.5,-0.866025403784));
#834 = ORIENTED_EDGE('',*,*,#835,.F.);
#835 = EDGE_CURVE('',#836,#828,#838,.T.);
#836 = VERTEX_POINT('',#837);
#837 = CARTESIAN_POINT('',(-5.,1.14575,1.984497212772));
#838 = LINE('',#839,#840);
#839 = CARTESIAN_POINT('',(-5.,1.14575,1.984497212772));
#840 = VECTOR('',#841,1.);
#841 = DIRECTION('',(0.,0.5,-0.866025403784));
#842 = ORIENTED_EDGE('',*,*,#843,.F.);
#843 = EDGE_CURVE('',#844,#836,#846,.T.);
#844 = VERTEX_POINT('',#845);
#845 = CARTESIAN_POINT('',(-5.,-1.14575,1.984497212772));
#846 = LINE('',#847,#848);
#847 = CARTESIAN_POINT('',(-5.,2.2915,1.984497212772));
#848 = VECTOR('',#849,1.);
#849 = DIRECTION('',(-5.E-17,1.,0.));
#850 = ORIENTED_EDGE('',*,*,#851,.F.);
#851 = EDGE_CURVE('',#812,#844,#852,.T.);
#852 = LINE('',#853,#854);
#853 = CARTESIAN_POINT('',(-5.,-2.2915,0.));
#854 = VECTOR('',#855,1.);
#855 = DIRECTION('',(0.,0.5,0.866025403784));
#856 = PLANE('',#857);
#857 = AXIS2_PLACEMENT_3D('',#858,#859,#860);
#858 = CARTESIAN_POINT('',(-5.,2.2915,0.));
#859 = DIRECTION('',(1.,5.E-17,0.));
#860 = DIRECTION('',(-5.E-17,1.,0.));
#861 = ADVANCED_FACE('',(#862),#885,.F.);
#862 = FACE_BOUND('',#863,.T.);
#863 = EDGE_LOOP('',(#864,#872,#878,#884));
#864 = ORIENTED_EDGE('',*,*,#865,.F.);
#865 = EDGE_CURVE('',#866,#844,#868,.T.);
#866 = VERTEX_POINT('',#867);
#867 = CARTESIAN_POINT('',(-2.499999999941,-1.145749999978,
    1.984497212734));
#868 = LINE('',#869,#870);
#869 = CARTESIAN_POINT('',(-2.5,-1.14575,1.984497212772));
#870 = VECTOR('',#871,1.);
#871 = DIRECTION('',(-1.,-0.,0.));
#872 = ORIENTED_EDGE('',*,*,#873,.F.);
#873 = EDGE_CURVE('',#607,#866,#874,.T.);
#874 = LINE('',#875,#876);
#875 = CARTESIAN_POINT('',(-2.5,-2.2915,3.47E-15));
#876 = VECTOR('',#877,1.);
#877 = DIRECTION('',(-0.,0.5,0.866025403784));
#878 = ORIENTED_EDGE('',*,*,#879,.F.);
#879 = EDGE_CURVE('',#812,#607,#880,.T.);
#880 = LINE('',#881,#882);
#881 = CARTESIAN_POINT('',(-2.5,-2.2915,9.5E-16));
#882 = VECTOR('',#883,1.);
#883 = DIRECTION('',(1.,0.,-0.));
#884 = ORIENTED_EDGE('',*,*,#851,.T.);
#885 = PLANE('',#886);
#886 = AXIS2_PLACEMENT_3D('',#887,#888,#889);
#887 = CARTESIAN_POINT('',(-2.5,-2.2915,3.47E-15));
#888 = DIRECTION('',(0.,-0.866025403784,0.5));
#889 = DIRECTION('',(-0.,-0.5,-0.866025403784));
#890 = ADVANCED_FACE('',(#891),#907,.F.);
#891 = FACE_BOUND('',#892,.T.);
#892 = EDGE_LOOP('',(#893,#894,#900,#906));
#893 = ORIENTED_EDGE('',*,*,#879,.T.);
#894 = ORIENTED_EDGE('',*,*,#895,.F.);
#895 = EDGE_CURVE('',#605,#607,#896,.T.);
#896 = LINE('',#897,#898);
#897 = CARTESIAN_POINT('',(-2.5,-1.14575,-1.984497212772));
#898 = VECTOR('',#899,1.);
#899 = DIRECTION('',(-0.,-0.5,0.866025403784));
#900 = ORIENTED_EDGE('',*,*,#901,.F.);
#901 = EDGE_CURVE('',#810,#605,#902,.T.);
#902 = LINE('',#903,#904);
#903 = CARTESIAN_POINT('',(-2.5,-1.14575,-1.984497212772));
#904 = VECTOR('',#905,1.);
#905 = DIRECTION('',(1.,0.,0.));
#906 = ORIENTED_EDGE('',*,*,#809,.T.);
#907 = PLANE('',#908);
#908 = AXIS2_PLACEMENT_3D('',#909,#910,#911);
#909 = CARTESIAN_POINT('',(-2.5,-1.14575,-1.984497212772));
#910 = DIRECTION('',(0.,-0.866025403784,-0.5));
#911 = DIRECTION('',(0.,0.5,-0.866025403784));
#912 = ADVANCED_FACE('',(#913),#929,.F.);
#913 = FACE_BOUND('',#914,.T.);
#914 = EDGE_LOOP('',(#915,#916,#922,#928));
#915 = ORIENTED_EDGE('',*,*,#901,.T.);
#916 = ORIENTED_EDGE('',*,*,#917,.F.);
#917 = EDGE_CURVE('',#616,#605,#918,.T.);
#918 = LINE('',#919,#920);
#919 = CARTESIAN_POINT('',(-2.5,1.14575,-1.984497212772));
#920 = VECTOR('',#921,1.);
#921 = DIRECTION('',(-0.,-1.,7.6E-16));
#922 = ORIENTED_EDGE('',*,*,#923,.F.);
#923 = EDGE_CURVE('',#820,#616,#924,.T.);
#924 = LINE('',#925,#926);
#925 = CARTESIAN_POINT('',(-2.5,1.14575,-1.984497212772));
#926 = VECTOR('',#927,1.);
#927 = DIRECTION('',(1.,0.,0.));
#928 = ORIENTED_EDGE('',*,*,#819,.T.);
#929 = PLANE('',#930);
#930 = AXIS2_PLACEMENT_3D('',#931,#932,#933);
#931 = CARTESIAN_POINT('',(-2.5,1.14575,-1.984497212772));
#932 = DIRECTION('',(0.,-7.6E-16,-1.));
#933 = DIRECTION('',(0.,1.,-7.6E-16));
#934 = ADVANCED_FACE('',(#935),#951,.F.);
#935 = FACE_BOUND('',#936,.T.);
#936 = EDGE_LOOP('',(#937,#938,#944,#950));
#937 = ORIENTED_EDGE('',*,*,#923,.T.);
#938 = ORIENTED_EDGE('',*,*,#939,.F.);
#939 = EDGE_CURVE('',#625,#616,#940,.T.);
#940 = LINE('',#941,#942);
#941 = CARTESIAN_POINT('',(-2.5,2.2915,0.));
#942 = VECTOR('',#943,1.);
#943 = DIRECTION('',(-0.,-0.5,-0.866025403784));
#944 = ORIENTED_EDGE('',*,*,#945,.F.);
#945 = EDGE_CURVE('',#828,#625,#946,.T.);
#946 = LINE('',#947,#948);
#947 = CARTESIAN_POINT('',(-2.5,2.2915,1.72E-15));
#948 = VECTOR('',#949,1.);
#949 = DIRECTION('',(1.,0.,-0.));
#950 = ORIENTED_EDGE('',*,*,#827,.T.);
#951 = PLANE('',#952);
#952 = AXIS2_PLACEMENT_3D('',#953,#954,#955);
#953 = CARTESIAN_POINT('',(-2.5,2.2915,0.));
#954 = DIRECTION('',(-0.,0.866025403784,-0.5));
#955 = DIRECTION('',(0.,0.5,0.866025403784));
#956 = ADVANCED_FACE('',(#957),#975,.F.);
#957 = FACE_BOUND('',#958,.T.);
#958 = EDGE_LOOP('',(#959,#960,#968,#974));
#959 = ORIENTED_EDGE('',*,*,#945,.T.);
#960 = ORIENTED_EDGE('',*,*,#961,.F.);
#961 = EDGE_CURVE('',#962,#625,#964,.T.);
#962 = VERTEX_POINT('',#963);
#963 = CARTESIAN_POINT('',(-2.499999999941,1.145749999978,1.984497212734
    ));
#964 = LINE('',#965,#966);
#965 = CARTESIAN_POINT('',(-2.5,1.14575,1.984497212772));
#966 = VECTOR('',#967,1.);
#967 = DIRECTION('',(-0.,0.5,-0.866025403784));
#968 = ORIENTED_EDGE('',*,*,#969,.F.);
#969 = EDGE_CURVE('',#836,#962,#970,.T.);
#970 = LINE('',#971,#972);
#971 = CARTESIAN_POINT('',(-2.5,1.14575,1.984497212772));
#972 = VECTOR('',#973,1.);
#973 = DIRECTION('',(1.,0.,0.));
#974 = ORIENTED_EDGE('',*,*,#835,.T.);
#975 = PLANE('',#976);
#976 = AXIS2_PLACEMENT_3D('',#977,#978,#979);
#977 = CARTESIAN_POINT('',(-2.5,1.14575,1.984497212772));
#978 = DIRECTION('',(-0.,0.866025403784,0.5));
#979 = DIRECTION('',(-0.,-0.5,0.866025403784));
#980 = ADVANCED_FACE('',(#981),#992,.F.);
#981 = FACE_BOUND('',#982,.T.);
#982 = EDGE_LOOP('',(#983,#984,#990,#991));
#983 = ORIENTED_EDGE('',*,*,#969,.T.);
#984 = ORIENTED_EDGE('',*,*,#985,.F.);
#985 = EDGE_CURVE('',#866,#962,#986,.T.);
#986 = LINE('',#987,#988);
#987 = CARTESIAN_POINT('',(-2.5,-1.14575,1.984497212772));
#988 = VECTOR('',#989,1.);
#989 = DIRECTION('',(-0.,1.,-7.6E-16));
#990 = ORIENTED_EDGE('',*,*,#865,.T.);
#991 = ORIENTED_EDGE('',*,*,#843,.T.);
#992 = PLANE('',#993);
#993 = AXIS2_PLACEMENT_3D('',#994,#995,#996);
#994 = CARTESIAN_POINT('',(-2.5,-1.14575,1.984497212772));
#995 = DIRECTION('',(-0.,7.6E-16,1.));
#996 = DIRECTION('',(0.,-1.,7.6E-16));
#997 = ADVANCED_FACE('',(#998),#1008,.F.);
#998 = FACE_BOUND('',#999,.T.);
#999 = EDGE_LOOP('',(#1000,#1007));
#1000 = ORIENTED_EDGE('',*,*,#1001,.F.);
#1001 = EDGE_CURVE('',#607,#866,#1002,.T.);
#1002 = CIRCLE('',#1003,2.291499999956);
#1003 = AXIS2_PLACEMENT_3D('',#1004,#1005,#1006);
#1004 = CARTESIAN_POINT('',(-2.499999999941,-6.5E-16,0.));
#1005 = DIRECTION('',(-1.,-9.E-17,0.));
#1006 = DIRECTION('',(9.E-17,-1.,0.));
#1007 = ORIENTED_EDGE('',*,*,#873,.T.);
#1008 = PLANE('',#1009);
#1009 = AXIS2_PLACEMENT_3D('',#1010,#1011,#1012);
#1010 = CARTESIAN_POINT('',(-2.5,-2.5E-16,0.));
#1011 = DIRECTION('',(-1.,-0.,0.));
#1012 = DIRECTION('',(0.,-1.,0.));
#1013 = ADVANCED_FACE('',(#1014),#1018,.F.);
#1014 = FACE_BOUND('',#1015,.T.);
#1015 = EDGE_LOOP('',(#1016,#1017));
#1016 = ORIENTED_EDGE('',*,*,#604,.F.);
#1017 = ORIENTED_EDGE('',*,*,#895,.T.);
#1018 = PLANE('',#1019);
#1019 = AXIS2_PLACEMENT_3D('',#1020,#1021,#1022);
#1020 = CARTESIAN_POINT('',(-2.5,-2.5E-16,0.));
#1021 = DIRECTION('',(-1.,-0.,0.));
#1022 = DIRECTION('',(0.,-1.,0.));
#1023 = ADVANCED_FACE('',(#1024),#1028,.F.);
#1024 = FACE_BOUND('',#1025,.T.);
#1025 = EDGE_LOOP('',(#1026,#1027));
#1026 = ORIENTED_EDGE('',*,*,#615,.F.);
#1027 = ORIENTED_EDGE('',*,*,#917,.T.);
#1028 = PLANE('',#1029);
#1029 = AXIS2_PLACEMENT_3D('',#1030,#1031,#1032);
#1030 = CARTESIAN_POINT('',(-2.5,-2.5E-16,0.));
#1031 = DIRECTION('',(-1.,-0.,0.));
#1032 = DIRECTION('',(0.,-1.,0.));
#1033 = ADVANCED_FACE('',(#1034),#1038,.F.);
#1034 = FACE_BOUND('',#1035,.T.);
#1035 = EDGE_LOOP('',(#1036,#1037));
#1036 = ORIENTED_EDGE('',*,*,#624,.F.);
#1037 = ORIENTED_EDGE('',*,*,#939,.T.);
#1038 = PLANE('',#1039);
#1039 = AXIS2_PLACEMENT_3D('',#1040,#1041,#1042);
#1040 = CARTESIAN_POINT('',(-2.5,-2.5E-16,0.));
#1041 = DIRECTION('',(-1.,-0.,0.));
#1042 = DIRECTION('',(0.,-1.,0.));
#1043 = ADVANCED_FACE('',(#1044),#1054,.F.);
#1044 = FACE_BOUND('',#1045,.T.);
#1045 = EDGE_LOOP('',(#1046,#1053));
#1046 = ORIENTED_EDGE('',*,*,#1047,.F.);
#1047 = EDGE_CURVE('',#962,#625,#1048,.T.);
#1048 = CIRCLE('',#1049,2.291499999956);
#1049 = AXIS2_PLACEMENT_3D('',#1050,#1051,#1052);
#1050 = CARTESIAN_POINT('',(-2.499999999941,-6.5E-16,0.));
#1051 = DIRECTION('',(-1.,-9.E-17,0.));
#1052 = DIRECTION('',(9.E-17,-1.,0.));
#1053 = ORIENTED_EDGE('',*,*,#961,.T.);
#1054 = PLANE('',#1055);
#1055 = AXIS2_PLACEMENT_3D('',#1056,#1057,#1058);
#1056 = CARTESIAN_POINT('',(-2.5,-2.5E-16,0.));
#1057 = DIRECTION('',(-1.,-0.,0.));
#1058 = DIRECTION('',(0.,-1.,0.));
#1059 = ADVANCED_FACE('',(#1060),#1070,.F.);
#1060 = FACE_BOUND('',#1061,.T.);
#1061 = EDGE_LOOP('',(#1062,#1069));
#1062 = ORIENTED_EDGE('',*,*,#1063,.F.);
#1063 = EDGE_CURVE('',#866,#962,#1064,.T.);
#1064 = CIRCLE('',#1065,2.291499999956);
#1065 = AXIS2_PLACEMENT_3D('',#1066,#1067,#1068);
#1066 = CARTESIAN_POINT('',(-2.499999999941,-6.5E-16,0.));
#1067 = DIRECTION('',(-1.,-9.E-17,0.));
#1068 = DIRECTION('',(9.E-17,-1.,0.));
#1069 = ORIENTED_EDGE('',*,*,#985,.T.);
#1070 = PLANE('',#1071);
#1071 = AXIS2_PLACEMENT_3D('',#1072,#1073,#1074);
#1072 = CARTESIAN_POINT('',(-2.5,-2.5E-16,0.));
#1073 = DIRECTION('',(-1.,-0.,0.));
#1074 = DIRECTION('',(0.,-1.,0.));
#1075 = ADVANCED_FACE('',(#1076),#1083,.F.);
#1076 = FACE_BOUND('',#1077,.F.);
#1077 = EDGE_LOOP('',(#1078,#1079,#1080,#1081,#1082));
#1078 = ORIENTED_EDGE('',*,*,#1047,.F.);
#1079 = ORIENTED_EDGE('',*,*,#1063,.F.);
#1080 = ORIENTED_EDGE('',*,*,#1001,.F.);
#1081 = ORIENTED_EDGE('',*,*,#641,.F.);
#1082 = ORIENTED_EDGE('',*,*,#633,.T.);
#1083 = CONICAL_SURFACE('',#1084,2.291499999956,1.047197551134);
#1084 = AXIS2_PLACEMENT_3D('',#1085,#1086,#1087);
#1085 = CARTESIAN_POINT('',(-2.499999999941,-6.5E-16,0.));
#1086 = DIRECTION('',(-1.,-9.E-17,-0.));
#1087 = DIRECTION('',(9.E-17,-1.,0.));
#1088 = ADVANCED_FACE('',(#1089),#1099,.T.);
#1089 = FACE_BOUND('',#1090,.T.);
#1090 = EDGE_LOOP('',(#1091,#1098));
#1091 = ORIENTED_EDGE('',*,*,#1092,.T.);
#1092 = EDGE_CURVE('',#505,#503,#1093,.T.);
#1093 = CIRCLE('',#1094,2.);
#1094 = AXIS2_PLACEMENT_3D('',#1095,#1096,#1097);
#1095 = CARTESIAN_POINT('',(50.2,2.07E-15,0.));
#1096 = DIRECTION('',(1.,0.,0.));
#1097 = DIRECTION('',(0.,0.,-1.));
#1098 = ORIENTED_EDGE('',*,*,#502,.T.);
#1099 = PLANE('',#1100);
#1100 = AXIS2_PLACEMENT_3D('',#1101,#1102,#1103);
#1101 = CARTESIAN_POINT('',(50.2,1.8E-15,0.));
#1102 = DIRECTION('',(1.,0.,0.));
#1103 = DIRECTION('',(0.,0.,-1.));
#1104 = ADVANCED_FACE('',(#1105),#1111,.T.);
#1105 = FACE_BOUND('',#1106,.T.);
#1106 = EDGE_LOOP('',(#1107,#1108,#1109,#1110));
#1107 = ORIENTED_EDGE('',*,*,#513,.F.);
#1108 = ORIENTED_EDGE('',*,*,#1092,.F.);
#1109 = ORIENTED_EDGE('',*,*,#530,.T.);
#1110 = ORIENTED_EDGE('',*,*,#656,.F.);
#1111 = CONICAL_SURFACE('',#1112,2.,0.785398163397);
#1112 = AXIS2_PLACEMENT_3D('',#1113,#1114,#1115);
#1113 = CARTESIAN_POINT('',(50.2,2.07E-15,0.));
#1114 = DIRECTION('',(-1.,-5.E-17,0.));
#1115 = DIRECTION('',(5.E-17,-1.,0.));
#1116 = ( GEOMETRIC_REPRESENTATION_CONTEXT(3) 
GLOBAL_UNCERTAINTY_ASSIGNED_CONTEXT((#1120)) 
GLOBAL_UNIT_ASSIGNED_CONTEXT((#1117,#1118,#1119)) REPRESENTATION_CONTEXT
('Context #1','3D Context with UNIT and UNCERTAINTY') );
#1117 = ( LENGTH_UNIT() NAMED_UNIT(*) SI_UNIT(.MILLI.,.METRE.) );
#1118 = ( NAMED_UNIT(*) PLANE_ANGLE_UNIT() SI_UNIT($,.RADIAN.) );
#1119 = ( NAMED_UNIT(*) SI_UNIT($,.STERADIAN.) SOLID_ANGLE_UNIT() );
#1120 = UNCERTAINTY_MEASURE_WITH_UNIT(LENGTH_MEASURE(2.E-05),#1117,
  'distance_accuracy_value','confusion accuracy');
#1121 = CONTEXT_DEPENDENT_SHAPE_REPRESENTATION(#1122,#1124);
#1122 = ( REPRESENTATION_RELATIONSHIP('','',#349,#10) 
REPRESENTATION_RELATIONSHIP_WITH_TRANSFORMATION(#1123) 
SHAPE_REPRESENTATION_RELATIONSHIP() );
#1123 = ITEM_DEFINED_TRANSFORMATION('','',#11,#19);
#1124 = PRODUCT_DEFINITION_SHAPE('Placement','Placement of an item',
  #1125);
#1125 = NEXT_ASSEMBLY_USAGE_OCCURRENCE('219',
  'M5X50 Socket Head Screw_Standard001','',#5,#344,$);
#1126 = PRODUCT_RELATED_PRODUCT_CATEGORY('part',$,(#346));
#1127 = MECHANICAL_DESIGN_GEOMETRIC_PRESENTATION_REPRESENTATION('',(
    #1128),#331);
#1128 = STYLED_ITEM('color',(#1129),#37);
#1129 = PRESENTATION_STYLE_ASSIGNMENT((#1130,#1136));
#1130 = SURFACE_STYLE_USAGE(.BOTH.,#1131);
#1131 = SURFACE_SIDE_STYLE('',(#1132));
#1132 = SURFACE_STYLE_FILL_AREA(#1133);
#1133 = FILL_AREA_STYLE('',(#1134));
#1134 = FILL_AREA_STYLE_COLOUR('',#1135);
#1135 = COLOUR_RGB('',0.101960784187,0.101960784187,0.101960784187);
#1136 = CURVE_STYLE('',#1137,POSITIVE_LENGTH_MEASURE(0.1),#1138);
#1137 = DRAUGHTING_PRE_DEFINED_CURVE_FONT('continuous');
#1138 = COLOUR_RGB('',9.803921802644E-02,9.803921802644E-02,
  9.803921802644E-02);
#1139 = MECHANICAL_DESIGN_GEOMETRIC_PRESENTATION_REPRESENTATION('',(
    #1140),#1116);
#1140 = STYLED_ITEM('color',(#1141),#350);
#1141 = PRESENTATION_STYLE_ASSIGNMENT((#1142,#1147));
#1142 = SURFACE_STYLE_USAGE(.BOTH.,#1143);
#1143 = SURFACE_SIDE_STYLE('',(#1144));
#1144 = SURFACE_STYLE_FILL_AREA(#1145);
#1145 = FILL_AREA_STYLE('',(#1146));
#1146 = FILL_AREA_STYLE_COLOUR('',#1135);
#1147 = CURVE_STYLE('',#1148,POSITIVE_LENGTH_MEASURE(0.1),#1138);
#1148 = DRAUGHTING_PRE_DEFINED_CURVE_FONT('continuous');
ENDSEC;
END-ISO-10303-21;
