ISO-10303-21;
HEADER;
FILE_DESCRIPTION(('FreeCAD Model'),'2;1');
FILE_NAME('Open CASCADE Shape Model','2026-08-31T06:05:54',('Author'),(
    ''),'Open CASCADE STEP processor 7.9','FreeCAD','Unknown');
FILE_SCHEMA(('AUTOMOTIVE_DESIGN { 1 0 10303 214 1 1 1 1 }'));
ENDSEC;
DATA;
#1 = APPLICATION_PROTOCOL_DEFINITION('international standard',
  'automotive_design',2000,#2);
#2 = APPLICATION_CONTEXT(
  'core data for automotive mechanical design processes');
#3 = SHAPE_DEFINITION_REPRESENTATION(#4,#10);
#4 = PRODUCT_DEFINITION_SHAPE('','',#5);
#5 = PRODUCT_DEFINITION('design','',#6,#9);
#6 = PRODUCT_DEFINITION_FORMATION('','',#7);
#7 = PRODUCT('Hotbed_Surface_Standard','Hotbed_Surface_Standard','',(#8)
  );
#8 = PRODUCT_CONTEXT('',#2,'mechanical');
#9 = PRODUCT_DEFINITION_CONTEXT('part definition',#2,'design');
#10 = ADVANCED_BREP_SHAPE_REPRESENTATION('',(#11,#15),#577);
#11 = AXIS2_PLACEMENT_3D('',#12,#13,#14);
#12 = CARTESIAN_POINT('',(0.,0.,0.));
#13 = DIRECTION('',(0.,0.,1.));
#14 = DIRECTION('',(1.,0.,-0.));
#15 = MANIFOLD_SOLID_BREP('',#16);
#16 = CLOSED_SHELL('',(#17,#57,#99,#130,#163,#194,#227,#258,#291,#313,
    #388,#463,#485,#507,#529,#541,#553,#565));
#17 = ADVANCED_FACE('',(#18),#52,.F.);
#18 = FACE_BOUND('',#19,.T.);
#19 = EDGE_LOOP('',(#20,#30,#38,#46));
#20 = ORIENTED_EDGE('',*,*,#21,.F.);
#21 = EDGE_CURVE('',#22,#24,#26,.T.);
#22 = VERTEX_POINT('',#23);
#23 = CARTESIAN_POINT('',(61.070367516976,0.5,120.));
#24 = VERTEX_POINT('',#25);
#25 = CARTESIAN_POINT('',(117.,0.5,120.));
#26 = LINE('',#27,#28);
#27 = CARTESIAN_POINT('',(-117.,0.5,120.));
#28 = VECTOR('',#29,1.);
#29 = DIRECTION('',(1.,0.,-1.2E-16));
#30 = ORIENTED_EDGE('',*,*,#31,.T.);
#31 = EDGE_CURVE('',#22,#32,#34,.T.);
#32 = VERTEX_POINT('',#33);
#33 = CARTESIAN_POINT('',(61.070367516976,0.,120.));
#34 = LINE('',#35,#36);
#35 = CARTESIAN_POINT('',(61.070367516976,0.5,120.));
#36 = VECTOR('',#37,1.);
#37 = DIRECTION('',(-0.,-1.,-0.));
#38 = ORIENTED_EDGE('',*,*,#39,.T.);
#39 = EDGE_CURVE('',#32,#40,#42,.T.);
#40 = VERTEX_POINT('',#41);
#41 = CARTESIAN_POINT('',(117.,0.,120.));
#42 = LINE('',#43,#44);
#43 = CARTESIAN_POINT('',(-117.,0.,120.));
#44 = VECTOR('',#45,1.);
#45 = DIRECTION('',(1.,0.,-1.2E-16));
#46 = ORIENTED_EDGE('',*,*,#47,.F.);
#47 = EDGE_CURVE('',#24,#40,#48,.T.);
#48 = LINE('',#49,#50);
#49 = CARTESIAN_POINT('',(117.,0.5,120.));
#50 = VECTOR('',#51,1.);
#51 = DIRECTION('',(-0.,-1.,-0.));
#52 = PLANE('',#53);
#53 = AXIS2_PLACEMENT_3D('',#54,#55,#56);
#54 = CARTESIAN_POINT('',(-117.,0.5,120.));
#55 = DIRECTION('',(-1.2E-16,0.,-1.));
#56 = DIRECTION('',(-1.,0.,1.2E-16));
#57 = ADVANCED_FACE('',(#58),#94,.T.);
#58 = FACE_BOUND('',#59,.T.);
#59 = EDGE_LOOP('',(#60,#71,#79,#88));
#60 = ORIENTED_EDGE('',*,*,#61,.T.);
#61 = EDGE_CURVE('',#62,#64,#66,.T.);
#62 = VERTEX_POINT('',#63);
#63 = CARTESIAN_POINT('',(-120.,0.,117.));
#64 = VERTEX_POINT('',#65);
#65 = CARTESIAN_POINT('',(-117.,0.,120.));
#66 = CIRCLE('',#67,3.);
#67 = AXIS2_PLACEMENT_3D('',#68,#69,#70);
#68 = CARTESIAN_POINT('',(-117.,0.,117.));
#69 = DIRECTION('',(0.,1.,0.));
#70 = DIRECTION('',(0.,-0.,1.));
#71 = ORIENTED_EDGE('',*,*,#72,.F.);
#72 = EDGE_CURVE('',#73,#64,#75,.T.);
#73 = VERTEX_POINT('',#74);
#74 = CARTESIAN_POINT('',(-117.,0.5,120.));
#75 = LINE('',#76,#77);
#76 = CARTESIAN_POINT('',(-117.,0.5,120.));
#77 = VECTOR('',#78,1.);
#78 = DIRECTION('',(-0.,-1.,-0.));
#79 = ORIENTED_EDGE('',*,*,#80,.F.);
#80 = EDGE_CURVE('',#81,#73,#83,.T.);
#81 = VERTEX_POINT('',#82);
#82 = CARTESIAN_POINT('',(-120.,0.5,117.));
#83 = CIRCLE('',#84,3.);
#84 = AXIS2_PLACEMENT_3D('',#85,#86,#87);
#85 = CARTESIAN_POINT('',(-117.,0.5,117.));
#86 = DIRECTION('',(0.,1.,0.));
#87 = DIRECTION('',(0.,-0.,1.));
#88 = ORIENTED_EDGE('',*,*,#89,.T.);
#89 = EDGE_CURVE('',#81,#62,#90,.T.);
#90 = LINE('',#91,#92);
#91 = CARTESIAN_POINT('',(-120.,0.5,117.));
#92 = VECTOR('',#93,1.);
#93 = DIRECTION('',(-0.,-1.,-0.));
#94 = CYLINDRICAL_SURFACE('',#95,3.);
#95 = AXIS2_PLACEMENT_3D('',#96,#97,#98);
#96 = CARTESIAN_POINT('',(-117.,0.5,117.));
#97 = DIRECTION('',(-0.,-1.,-0.));
#98 = DIRECTION('',(0.,0.,-1.));
#99 = ADVANCED_FACE('',(#100),#125,.F.);
#100 = FACE_BOUND('',#101,.T.);
#101 = EDGE_LOOP('',(#102,#110,#118,#124));
#102 = ORIENTED_EDGE('',*,*,#103,.T.);
#103 = EDGE_CURVE('',#64,#104,#106,.T.);
#104 = VERTEX_POINT('',#105);
#105 = CARTESIAN_POINT('',(-61.07036751697,0.,120.));
#106 = LINE('',#107,#108);
#107 = CARTESIAN_POINT('',(-117.,0.,120.));
#108 = VECTOR('',#109,1.);
#109 = DIRECTION('',(1.,0.,-1.2E-16));
#110 = ORIENTED_EDGE('',*,*,#111,.T.);
#111 = EDGE_CURVE('',#104,#112,#114,.T.);
#112 = VERTEX_POINT('',#113);
#113 = CARTESIAN_POINT('',(-61.07036751697,0.5,120.));
#114 = LINE('',#115,#116);
#115 = CARTESIAN_POINT('',(-61.07036751697,0.5,120.));
#116 = VECTOR('',#117,1.);
#117 = DIRECTION('',(0.,1.,0.));
#118 = ORIENTED_EDGE('',*,*,#119,.F.);
#119 = EDGE_CURVE('',#73,#112,#120,.T.);
#120 = LINE('',#121,#122);
#121 = CARTESIAN_POINT('',(-117.,0.5,120.));
#122 = VECTOR('',#123,1.);
#123 = DIRECTION('',(1.,0.,-1.2E-16));
#124 = ORIENTED_EDGE('',*,*,#72,.T.);
#125 = PLANE('',#126);
#126 = AXIS2_PLACEMENT_3D('',#127,#128,#129);
#127 = CARTESIAN_POINT('',(-117.,0.5,120.));
#128 = DIRECTION('',(-1.2E-16,0.,-1.));
#129 = DIRECTION('',(-1.,0.,1.2E-16));
#130 = ADVANCED_FACE('',(#131),#158,.T.);
#131 = FACE_BOUND('',#132,.T.);
#132 = EDGE_LOOP('',(#133,#142,#150,#157));
#133 = ORIENTED_EDGE('',*,*,#134,.T.);
#134 = EDGE_CURVE('',#40,#135,#137,.T.);
#135 = VERTEX_POINT('',#136);
#136 = CARTESIAN_POINT('',(120.,0.,117.));
#137 = CIRCLE('',#138,3.);
#138 = AXIS2_PLACEMENT_3D('',#139,#140,#141);
#139 = CARTESIAN_POINT('',(117.,0.,117.));
#140 = DIRECTION('',(0.,1.,0.));
#141 = DIRECTION('',(0.,-0.,1.));
#142 = ORIENTED_EDGE('',*,*,#143,.F.);
#143 = EDGE_CURVE('',#144,#135,#146,.T.);
#144 = VERTEX_POINT('',#145);
#145 = CARTESIAN_POINT('',(120.,0.5,117.));
#146 = LINE('',#147,#148);
#147 = CARTESIAN_POINT('',(120.,0.5,117.));
#148 = VECTOR('',#149,1.);
#149 = DIRECTION('',(-0.,-1.,-0.));
#150 = ORIENTED_EDGE('',*,*,#151,.F.);
#151 = EDGE_CURVE('',#24,#144,#152,.T.);
#152 = CIRCLE('',#153,3.);
#153 = AXIS2_PLACEMENT_3D('',#154,#155,#156);
#154 = CARTESIAN_POINT('',(117.,0.5,117.));
#155 = DIRECTION('',(0.,1.,0.));
#156 = DIRECTION('',(0.,-0.,1.));
#157 = ORIENTED_EDGE('',*,*,#47,.T.);
#158 = CYLINDRICAL_SURFACE('',#159,3.);
#159 = AXIS2_PLACEMENT_3D('',#160,#161,#162);
#160 = CARTESIAN_POINT('',(117.,0.5,117.));
#161 = DIRECTION('',(-0.,-1.,-0.));
#162 = DIRECTION('',(0.,0.,-1.));
#163 = ADVANCED_FACE('',(#164),#189,.F.);
#164 = FACE_BOUND('',#165,.T.);
#165 = EDGE_LOOP('',(#166,#174,#182,#188));
#166 = ORIENTED_EDGE('',*,*,#167,.T.);
#167 = EDGE_CURVE('',#135,#168,#170,.T.);
#168 = VERTEX_POINT('',#169);
#169 = CARTESIAN_POINT('',(120.,0.,-117.));
#170 = LINE('',#171,#172);
#171 = CARTESIAN_POINT('',(120.,0.,117.));
#172 = VECTOR('',#173,1.);
#173 = DIRECTION('',(0.,0.,-1.));
#174 = ORIENTED_EDGE('',*,*,#175,.F.);
#175 = EDGE_CURVE('',#176,#168,#178,.T.);
#176 = VERTEX_POINT('',#177);
#177 = CARTESIAN_POINT('',(120.,0.5,-117.));
#178 = LINE('',#179,#180);
#179 = CARTESIAN_POINT('',(120.,0.5,-117.));
#180 = VECTOR('',#181,1.);
#181 = DIRECTION('',(-0.,-1.,-0.));
#182 = ORIENTED_EDGE('',*,*,#183,.F.);
#183 = EDGE_CURVE('',#144,#176,#184,.T.);
#184 = LINE('',#185,#186);
#185 = CARTESIAN_POINT('',(120.,0.5,117.));
#186 = VECTOR('',#187,1.);
#187 = DIRECTION('',(0.,0.,-1.));
#188 = ORIENTED_EDGE('',*,*,#143,.T.);
#189 = PLANE('',#190);
#190 = AXIS2_PLACEMENT_3D('',#191,#192,#193);
#191 = CARTESIAN_POINT('',(120.,0.5,117.));
#192 = DIRECTION('',(-1.,0.,0.));
#193 = DIRECTION('',(0.,0.,1.));
#194 = ADVANCED_FACE('',(#195),#222,.T.);
#195 = FACE_BOUND('',#196,.T.);
#196 = EDGE_LOOP('',(#197,#206,#214,#221));
#197 = ORIENTED_EDGE('',*,*,#198,.T.);
#198 = EDGE_CURVE('',#168,#199,#201,.T.);
#199 = VERTEX_POINT('',#200);
#200 = CARTESIAN_POINT('',(117.,0.,-120.));
#201 = CIRCLE('',#202,3.);
#202 = AXIS2_PLACEMENT_3D('',#203,#204,#205);
#203 = CARTESIAN_POINT('',(117.,0.,-117.));
#204 = DIRECTION('',(0.,1.,0.));
#205 = DIRECTION('',(0.,-0.,1.));
#206 = ORIENTED_EDGE('',*,*,#207,.F.);
#207 = EDGE_CURVE('',#208,#199,#210,.T.);
#208 = VERTEX_POINT('',#209);
#209 = CARTESIAN_POINT('',(117.,0.5,-120.));
#210 = LINE('',#211,#212);
#211 = CARTESIAN_POINT('',(117.,0.5,-120.));
#212 = VECTOR('',#213,1.);
#213 = DIRECTION('',(-0.,-1.,-0.));
#214 = ORIENTED_EDGE('',*,*,#215,.F.);
#215 = EDGE_CURVE('',#176,#208,#216,.T.);
#216 = CIRCLE('',#217,3.);
#217 = AXIS2_PLACEMENT_3D('',#218,#219,#220);
#218 = CARTESIAN_POINT('',(117.,0.5,-117.));
#219 = DIRECTION('',(0.,1.,0.));
#220 = DIRECTION('',(0.,-0.,1.));
#221 = ORIENTED_EDGE('',*,*,#175,.T.);
#222 = CYLINDRICAL_SURFACE('',#223,3.);
#223 = AXIS2_PLACEMENT_3D('',#224,#225,#226);
#224 = CARTESIAN_POINT('',(117.,0.5,-117.));
#225 = DIRECTION('',(-0.,-1.,-0.));
#226 = DIRECTION('',(0.,0.,-1.));
#227 = ADVANCED_FACE('',(#228),#253,.F.);
#228 = FACE_BOUND('',#229,.T.);
#229 = EDGE_LOOP('',(#230,#238,#246,#252));
#230 = ORIENTED_EDGE('',*,*,#231,.T.);
#231 = EDGE_CURVE('',#199,#232,#234,.T.);
#232 = VERTEX_POINT('',#233);
#233 = CARTESIAN_POINT('',(-117.,0.,-120.));
#234 = LINE('',#235,#236);
#235 = CARTESIAN_POINT('',(117.,0.,-120.));
#236 = VECTOR('',#237,1.);
#237 = DIRECTION('',(-1.,0.,-1.2E-16));
#238 = ORIENTED_EDGE('',*,*,#239,.F.);
#239 = EDGE_CURVE('',#240,#232,#242,.T.);
#240 = VERTEX_POINT('',#241);
#241 = CARTESIAN_POINT('',(-117.,0.5,-120.));
#242 = LINE('',#243,#244);
#243 = CARTESIAN_POINT('',(-117.,0.5,-120.));
#244 = VECTOR('',#245,1.);
#245 = DIRECTION('',(-0.,-1.,-0.));
#246 = ORIENTED_EDGE('',*,*,#247,.F.);
#247 = EDGE_CURVE('',#208,#240,#248,.T.);
#248 = LINE('',#249,#250);
#249 = CARTESIAN_POINT('',(117.,0.5,-120.));
#250 = VECTOR('',#251,1.);
#251 = DIRECTION('',(-1.,0.,-1.2E-16));
#252 = ORIENTED_EDGE('',*,*,#207,.T.);
#253 = PLANE('',#254);
#254 = AXIS2_PLACEMENT_3D('',#255,#256,#257);
#255 = CARTESIAN_POINT('',(117.,0.5,-120.));
#256 = DIRECTION('',(-1.2E-16,0.,1.));
#257 = DIRECTION('',(1.,0.,1.2E-16));
#258 = ADVANCED_FACE('',(#259),#286,.T.);
#259 = FACE_BOUND('',#260,.T.);
#260 = EDGE_LOOP('',(#261,#270,#278,#285));
#261 = ORIENTED_EDGE('',*,*,#262,.T.);
#262 = EDGE_CURVE('',#232,#263,#265,.T.);
#263 = VERTEX_POINT('',#264);
#264 = CARTESIAN_POINT('',(-120.,0.,-117.));
#265 = CIRCLE('',#266,3.);
#266 = AXIS2_PLACEMENT_3D('',#267,#268,#269);
#267 = CARTESIAN_POINT('',(-117.,0.,-117.));
#268 = DIRECTION('',(0.,1.,0.));
#269 = DIRECTION('',(0.,-0.,1.));
#270 = ORIENTED_EDGE('',*,*,#271,.F.);
#271 = EDGE_CURVE('',#272,#263,#274,.T.);
#272 = VERTEX_POINT('',#273);
#273 = CARTESIAN_POINT('',(-120.,0.5,-117.));
#274 = LINE('',#275,#276);
#275 = CARTESIAN_POINT('',(-120.,0.5,-117.));
#276 = VECTOR('',#277,1.);
#277 = DIRECTION('',(-0.,-1.,-0.));
#278 = ORIENTED_EDGE('',*,*,#279,.F.);
#279 = EDGE_CURVE('',#240,#272,#280,.T.);
#280 = CIRCLE('',#281,3.);
#281 = AXIS2_PLACEMENT_3D('',#282,#283,#284);
#282 = CARTESIAN_POINT('',(-117.,0.5,-117.));
#283 = DIRECTION('',(0.,1.,0.));
#284 = DIRECTION('',(0.,-0.,1.));
#285 = ORIENTED_EDGE('',*,*,#239,.T.);
#286 = CYLINDRICAL_SURFACE('',#287,3.);
#287 = AXIS2_PLACEMENT_3D('',#288,#289,#290);
#288 = CARTESIAN_POINT('',(-117.,0.5,-117.));
#289 = DIRECTION('',(-0.,-1.,-0.));
#290 = DIRECTION('',(0.,0.,-1.));
#291 = ADVANCED_FACE('',(#292),#308,.F.);
#292 = FACE_BOUND('',#293,.T.);
#293 = EDGE_LOOP('',(#294,#300,#301,#307));
#294 = ORIENTED_EDGE('',*,*,#295,.T.);
#295 = EDGE_CURVE('',#263,#62,#296,.T.);
#296 = LINE('',#297,#298);
#297 = CARTESIAN_POINT('',(-120.,0.,-117.));
#298 = VECTOR('',#299,1.);
#299 = DIRECTION('',(0.,0.,1.));
#300 = ORIENTED_EDGE('',*,*,#89,.F.);
#301 = ORIENTED_EDGE('',*,*,#302,.F.);
#302 = EDGE_CURVE('',#272,#81,#303,.T.);
#303 = LINE('',#304,#305);
#304 = CARTESIAN_POINT('',(-120.,0.5,-117.));
#305 = VECTOR('',#306,1.);
#306 = DIRECTION('',(0.,0.,1.));
#307 = ORIENTED_EDGE('',*,*,#271,.T.);
#308 = PLANE('',#309);
#309 = AXIS2_PLACEMENT_3D('',#310,#311,#312);
#310 = CARTESIAN_POINT('',(-120.,0.5,-117.));
#311 = DIRECTION('',(1.,0.,0.));
#312 = DIRECTION('',(0.,0.,-1.));
#313 = ADVANCED_FACE('',(#314),#383,.T.);
#314 = FACE_BOUND('',#315,.T.);
#315 = EDGE_LOOP('',(#316,#326,#335,#343,#352,#360,#367,#368,#369,#370,
    #371,#372,#373,#374,#375,#376));
#316 = ORIENTED_EDGE('',*,*,#317,.T.);
#317 = EDGE_CURVE('',#318,#320,#322,.T.);
#318 = VERTEX_POINT('',#319);
#319 = CARTESIAN_POINT('',(-59.4062669283,0.5,120.89059960755));
#320 = VERTEX_POINT('',#321);
#321 = CARTESIAN_POINT('',(-50.5937330717,0.5,134.10940039245));
#322 = LINE('',#323,#324);
#323 = CARTESIAN_POINT('',(-60.,0.5,120.));
#324 = VECTOR('',#325,1.);
#325 = DIRECTION('',(0.554700196225,0.,0.832050294338));
#326 = ORIENTED_EDGE('',*,*,#327,.T.);
#327 = EDGE_CURVE('',#320,#328,#330,.T.);
#328 = VERTEX_POINT('',#329);
#329 = CARTESIAN_POINT('',(-48.92963248302,0.5,135.));
#330 = CIRCLE('',#331,2.);
#331 = AXIS2_PLACEMENT_3D('',#332,#333,#334);
#332 = CARTESIAN_POINT('',(-48.92963248302,0.5,133.));
#333 = DIRECTION('',(0.,1.,0.));
#334 = DIRECTION('',(0.,-0.,1.));
#335 = ORIENTED_EDGE('',*,*,#336,.T.);
#336 = EDGE_CURVE('',#328,#337,#339,.T.);
#337 = VERTEX_POINT('',#338);
#338 = CARTESIAN_POINT('',(48.929632483024,0.5,135.));
#339 = LINE('',#340,#341);
#340 = CARTESIAN_POINT('',(-50.,0.5,135.));
#341 = VECTOR('',#342,1.);
#342 = DIRECTION('',(1.,0.,0.));
#343 = ORIENTED_EDGE('',*,*,#344,.T.);
#344 = EDGE_CURVE('',#337,#345,#347,.T.);
#345 = VERTEX_POINT('',#346);
#346 = CARTESIAN_POINT('',(50.5937330717,0.5,134.10940039245));
#347 = CIRCLE('',#348,2.);
#348 = AXIS2_PLACEMENT_3D('',#349,#350,#351);
#349 = CARTESIAN_POINT('',(48.929632483024,0.5,133.));
#350 = DIRECTION('',(0.,1.,0.));
#351 = DIRECTION('',(0.,-0.,1.));
#352 = ORIENTED_EDGE('',*,*,#353,.T.);
#353 = EDGE_CURVE('',#345,#354,#356,.T.);
#354 = VERTEX_POINT('',#355);
#355 = CARTESIAN_POINT('',(59.4062669283,0.5,120.89059960754));
#356 = LINE('',#357,#358);
#357 = CARTESIAN_POINT('',(60.,0.5,120.));
#358 = VECTOR('',#359,1.);
#359 = DIRECTION('',(0.554700196225,-0.,-0.832050294338));
#360 = ORIENTED_EDGE('',*,*,#361,.T.);
#361 = EDGE_CURVE('',#354,#22,#362,.T.);
#362 = CIRCLE('',#363,2.);
#363 = AXIS2_PLACEMENT_3D('',#364,#365,#366);
#364 = CARTESIAN_POINT('',(61.070367516976,0.5,122.));
#365 = DIRECTION('',(0.,-1.,0.));
#366 = DIRECTION('',(3.47E-15,0.,1.));
#367 = ORIENTED_EDGE('',*,*,#21,.T.);
#368 = ORIENTED_EDGE('',*,*,#151,.T.);
#369 = ORIENTED_EDGE('',*,*,#183,.T.);
#370 = ORIENTED_EDGE('',*,*,#215,.T.);
#371 = ORIENTED_EDGE('',*,*,#247,.T.);
#372 = ORIENTED_EDGE('',*,*,#279,.T.);
#373 = ORIENTED_EDGE('',*,*,#302,.T.);
#374 = ORIENTED_EDGE('',*,*,#80,.T.);
#375 = ORIENTED_EDGE('',*,*,#119,.T.);
#376 = ORIENTED_EDGE('',*,*,#377,.T.);
#377 = EDGE_CURVE('',#112,#318,#378,.T.);
#378 = CIRCLE('',#379,2.);
#379 = AXIS2_PLACEMENT_3D('',#380,#381,#382);
#380 = CARTESIAN_POINT('',(-61.07036751697,0.5,122.));
#381 = DIRECTION('',(0.,-1.,0.));
#382 = DIRECTION('',(3.47E-15,0.,1.));
#383 = PLANE('',#384);
#384 = AXIS2_PLACEMENT_3D('',#385,#386,#387);
#385 = CARTESIAN_POINT('',(-117.,0.5,117.));
#386 = DIRECTION('',(0.,1.,0.));
#387 = DIRECTION('',(0.,-0.,1.));
#388 = ADVANCED_FACE('',(#389),#458,.F.);
#389 = FACE_BOUND('',#390,.T.);
#390 = EDGE_LOOP('',(#391,#401,#410,#418,#425,#426,#427,#428,#429,#430,
    #431,#432,#433,#434,#443,#451));
#391 = ORIENTED_EDGE('',*,*,#392,.T.);
#392 = EDGE_CURVE('',#393,#395,#397,.T.);
#393 = VERTEX_POINT('',#394);
#394 = CARTESIAN_POINT('',(48.929632483024,0.,135.));
#395 = VERTEX_POINT('',#396);
#396 = CARTESIAN_POINT('',(-48.92963248302,0.,135.));
#397 = LINE('',#398,#399);
#398 = CARTESIAN_POINT('',(-50.,0.,135.));
#399 = VECTOR('',#400,1.);
#400 = DIRECTION('',(-1.,0.,0.));
#401 = ORIENTED_EDGE('',*,*,#402,.T.);
#402 = EDGE_CURVE('',#395,#403,#405,.T.);
#403 = VERTEX_POINT('',#404);
#404 = CARTESIAN_POINT('',(-50.5937330717,0.,134.10940039245));
#405 = CIRCLE('',#406,2.);
#406 = AXIS2_PLACEMENT_3D('',#407,#408,#409);
#407 = CARTESIAN_POINT('',(-48.92963248302,0.,133.));
#408 = DIRECTION('',(0.,-1.,0.));
#409 = DIRECTION('',(0.,0.,1.));
#410 = ORIENTED_EDGE('',*,*,#411,.T.);
#411 = EDGE_CURVE('',#403,#412,#414,.T.);
#412 = VERTEX_POINT('',#413);
#413 = CARTESIAN_POINT('',(-59.4062669283,0.,120.89059960755));
#414 = LINE('',#415,#416);
#415 = CARTESIAN_POINT('',(-60.,0.,120.));
#416 = VECTOR('',#417,1.);
#417 = DIRECTION('',(-0.554700196225,0.,-0.832050294338));
#418 = ORIENTED_EDGE('',*,*,#419,.T.);
#419 = EDGE_CURVE('',#412,#104,#420,.T.);
#420 = CIRCLE('',#421,2.);
#421 = AXIS2_PLACEMENT_3D('',#422,#423,#424);
#422 = CARTESIAN_POINT('',(-61.07036751697,0.,122.));
#423 = DIRECTION('',(0.,1.,0.));
#424 = DIRECTION('',(0.,-0.,1.));
#425 = ORIENTED_EDGE('',*,*,#103,.F.);
#426 = ORIENTED_EDGE('',*,*,#61,.F.);
#427 = ORIENTED_EDGE('',*,*,#295,.F.);
#428 = ORIENTED_EDGE('',*,*,#262,.F.);
#429 = ORIENTED_EDGE('',*,*,#231,.F.);
#430 = ORIENTED_EDGE('',*,*,#198,.F.);
#431 = ORIENTED_EDGE('',*,*,#167,.F.);
#432 = ORIENTED_EDGE('',*,*,#134,.F.);
#433 = ORIENTED_EDGE('',*,*,#39,.F.);
#434 = ORIENTED_EDGE('',*,*,#435,.T.);
#435 = EDGE_CURVE('',#32,#436,#438,.T.);
#436 = VERTEX_POINT('',#437);
#437 = CARTESIAN_POINT('',(59.4062669283,0.,120.89059960754));
#438 = CIRCLE('',#439,2.);
#439 = AXIS2_PLACEMENT_3D('',#440,#441,#442);
#440 = CARTESIAN_POINT('',(61.070367516976,0.,122.));
#441 = DIRECTION('',(0.,1.,0.));
#442 = DIRECTION('',(0.,-0.,1.));
#443 = ORIENTED_EDGE('',*,*,#444,.T.);
#444 = EDGE_CURVE('',#436,#445,#447,.T.);
#445 = VERTEX_POINT('',#446);
#446 = CARTESIAN_POINT('',(50.5937330717,0.,134.10940039245));
#447 = LINE('',#448,#449);
#448 = CARTESIAN_POINT('',(60.,0.,120.));
#449 = VECTOR('',#450,1.);
#450 = DIRECTION('',(-0.554700196225,0.,0.832050294338));
#451 = ORIENTED_EDGE('',*,*,#452,.T.);
#452 = EDGE_CURVE('',#445,#393,#453,.T.);
#453 = CIRCLE('',#454,2.);
#454 = AXIS2_PLACEMENT_3D('',#455,#456,#457);
#455 = CARTESIAN_POINT('',(48.929632483024,0.,133.));
#456 = DIRECTION('',(-0.,-1.,0.));
#457 = DIRECTION('',(-2.429E-14,0.,1.));
#458 = PLANE('',#459);
#459 = AXIS2_PLACEMENT_3D('',#460,#461,#462);
#460 = CARTESIAN_POINT('',(-117.,0.,117.));
#461 = DIRECTION('',(0.,1.,0.));
#462 = DIRECTION('',(0.,-0.,1.));
#463 = ADVANCED_FACE('',(#464),#480,.T.);
#464 = FACE_BOUND('',#465,.T.);
#465 = EDGE_LOOP('',(#466,#467,#473,#474));
#466 = ORIENTED_EDGE('',*,*,#353,.F.);
#467 = ORIENTED_EDGE('',*,*,#468,.T.);
#468 = EDGE_CURVE('',#345,#445,#469,.T.);
#469 = LINE('',#470,#471);
#470 = CARTESIAN_POINT('',(50.5937330717,-120.9338662244,134.10940039245
    ));
#471 = VECTOR('',#472,1.);
#472 = DIRECTION('',(-0.,-1.,-0.));
#473 = ORIENTED_EDGE('',*,*,#444,.F.);
#474 = ORIENTED_EDGE('',*,*,#475,.T.);
#475 = EDGE_CURVE('',#436,#354,#476,.T.);
#476 = LINE('',#477,#478);
#477 = CARTESIAN_POINT('',(59.4062669283,-120.9338662244,120.89059960754
    ));
#478 = VECTOR('',#479,1.);
#479 = DIRECTION('',(0.,1.,0.));
#480 = PLANE('',#481);
#481 = AXIS2_PLACEMENT_3D('',#482,#483,#484);
#482 = CARTESIAN_POINT('',(60.,-120.9338662244,120.));
#483 = DIRECTION('',(0.832050294338,-0.,0.554700196225));
#484 = DIRECTION('',(0.554700196225,0.,-0.832050294338));
#485 = ADVANCED_FACE('',(#486),#502,.T.);
#486 = FACE_BOUND('',#487,.T.);
#487 = EDGE_LOOP('',(#488,#489,#495,#496));
#488 = ORIENTED_EDGE('',*,*,#336,.F.);
#489 = ORIENTED_EDGE('',*,*,#490,.T.);
#490 = EDGE_CURVE('',#328,#395,#491,.T.);
#491 = LINE('',#492,#493);
#492 = CARTESIAN_POINT('',(-48.92963248302,-120.9338662244,135.));
#493 = VECTOR('',#494,1.);
#494 = DIRECTION('',(-0.,-1.,0.));
#495 = ORIENTED_EDGE('',*,*,#392,.F.);
#496 = ORIENTED_EDGE('',*,*,#497,.T.);
#497 = EDGE_CURVE('',#393,#337,#498,.T.);
#498 = LINE('',#499,#500);
#499 = CARTESIAN_POINT('',(48.929632483024,-120.9338662244,135.));
#500 = VECTOR('',#501,1.);
#501 = DIRECTION('',(0.,1.,-0.));
#502 = PLANE('',#503);
#503 = AXIS2_PLACEMENT_3D('',#504,#505,#506);
#504 = CARTESIAN_POINT('',(-50.,-120.9338662244,135.));
#505 = DIRECTION('',(0.,0.,1.));
#506 = DIRECTION('',(1.,0.,-0.));
#507 = ADVANCED_FACE('',(#508),#524,.T.);
#508 = FACE_BOUND('',#509,.T.);
#509 = EDGE_LOOP('',(#510,#511,#517,#518));
#510 = ORIENTED_EDGE('',*,*,#411,.F.);
#511 = ORIENTED_EDGE('',*,*,#512,.T.);
#512 = EDGE_CURVE('',#403,#320,#513,.T.);
#513 = LINE('',#514,#515);
#514 = CARTESIAN_POINT('',(-50.5937330717,-120.9338662244,
    134.10940039245));
#515 = VECTOR('',#516,1.);
#516 = DIRECTION('',(0.,1.,-0.));
#517 = ORIENTED_EDGE('',*,*,#317,.F.);
#518 = ORIENTED_EDGE('',*,*,#519,.T.);
#519 = EDGE_CURVE('',#318,#412,#520,.T.);
#520 = LINE('',#521,#522);
#521 = CARTESIAN_POINT('',(-59.4062669283,-120.9338662244,
    120.89059960755));
#522 = VECTOR('',#523,1.);
#523 = DIRECTION('',(-0.,-1.,-0.));
#524 = PLANE('',#525);
#525 = AXIS2_PLACEMENT_3D('',#526,#527,#528);
#526 = CARTESIAN_POINT('',(-60.,-120.9338662244,120.));
#527 = DIRECTION('',(-0.832050294338,0.,0.554700196225));
#528 = DIRECTION('',(0.554700196225,0.,0.832050294338));
#529 = ADVANCED_FACE('',(#530),#536,.T.);
#530 = FACE_BOUND('',#531,.T.);
#531 = EDGE_LOOP('',(#532,#533,#534,#535));
#532 = ORIENTED_EDGE('',*,*,#402,.F.);
#533 = ORIENTED_EDGE('',*,*,#490,.F.);
#534 = ORIENTED_EDGE('',*,*,#327,.F.);
#535 = ORIENTED_EDGE('',*,*,#512,.F.);
#536 = CYLINDRICAL_SURFACE('',#537,2.);
#537 = AXIS2_PLACEMENT_3D('',#538,#539,#540);
#538 = CARTESIAN_POINT('',(-48.92963248302,-120.9338662244,133.));
#539 = DIRECTION('',(0.,1.,-0.));
#540 = DIRECTION('',(0.,0.,1.));
#541 = ADVANCED_FACE('',(#542),#548,.F.);
#542 = FACE_BOUND('',#543,.F.);
#543 = EDGE_LOOP('',(#544,#545,#546,#547));
#544 = ORIENTED_EDGE('',*,*,#111,.T.);
#545 = ORIENTED_EDGE('',*,*,#377,.T.);
#546 = ORIENTED_EDGE('',*,*,#519,.T.);
#547 = ORIENTED_EDGE('',*,*,#419,.T.);
#548 = CYLINDRICAL_SURFACE('',#549,2.);
#549 = AXIS2_PLACEMENT_3D('',#550,#551,#552);
#550 = CARTESIAN_POINT('',(-61.07036751697,0.5,122.));
#551 = DIRECTION('',(0.,1.,0.));
#552 = DIRECTION('',(0.,-0.,1.));
#553 = ADVANCED_FACE('',(#554),#560,.T.);
#554 = FACE_BOUND('',#555,.T.);
#555 = EDGE_LOOP('',(#556,#557,#558,#559));
#556 = ORIENTED_EDGE('',*,*,#452,.F.);
#557 = ORIENTED_EDGE('',*,*,#468,.F.);
#558 = ORIENTED_EDGE('',*,*,#344,.F.);
#559 = ORIENTED_EDGE('',*,*,#497,.F.);
#560 = CYLINDRICAL_SURFACE('',#561,2.);
#561 = AXIS2_PLACEMENT_3D('',#562,#563,#564);
#562 = CARTESIAN_POINT('',(48.929632483024,-120.9338662244,133.));
#563 = DIRECTION('',(0.,1.,-0.));
#564 = DIRECTION('',(0.,0.,1.));
#565 = ADVANCED_FACE('',(#566),#572,.F.);
#566 = FACE_BOUND('',#567,.F.);
#567 = EDGE_LOOP('',(#568,#569,#570,#571));
#568 = ORIENTED_EDGE('',*,*,#475,.T.);
#569 = ORIENTED_EDGE('',*,*,#361,.T.);
#570 = ORIENTED_EDGE('',*,*,#31,.T.);
#571 = ORIENTED_EDGE('',*,*,#435,.T.);
#572 = CYLINDRICAL_SURFACE('',#573,2.);
#573 = AXIS2_PLACEMENT_3D('',#574,#575,#576);
#574 = CARTESIAN_POINT('',(61.070367516976,-120.9338662244,122.));
#575 = DIRECTION('',(0.,1.,0.));
#576 = DIRECTION('',(0.,-0.,1.));
#577 = ( GEOMETRIC_REPRESENTATION_CONTEXT(3) 
GLOBAL_UNCERTAINTY_ASSIGNED_CONTEXT((#581)) GLOBAL_UNIT_ASSIGNED_CONTEXT
((#578,#579,#580)) REPRESENTATION_CONTEXT('Context #1',
  '3D Context with UNIT and UNCERTAINTY') );
#578 = ( LENGTH_UNIT() NAMED_UNIT(*) SI_UNIT(.MILLI.,.METRE.) );
#579 = ( NAMED_UNIT(*) PLANE_ANGLE_UNIT() SI_UNIT($,.RADIAN.) );
#580 = ( NAMED_UNIT(*) SI_UNIT($,.STERADIAN.) SOLID_ANGLE_UNIT() );
#581 = UNCERTAINTY_MEASURE_WITH_UNIT(LENGTH_MEASURE(1.E-07),#578,
  'distance_accuracy_value','confusion accuracy');
#582 = PRODUCT_RELATED_PRODUCT_CATEGORY('part',$,(#7));
#583 = MECHANICAL_DESIGN_GEOMETRIC_PRESENTATION_REPRESENTATION('',(#584)
  ,#577);
#584 = STYLED_ITEM('color',(#585),#15);
#585 = PRESENTATION_STYLE_ASSIGNMENT((#586,#592));
#586 = SURFACE_STYLE_USAGE(.BOTH.,#587);
#587 = SURFACE_SIDE_STYLE('',(#588));
#588 = SURFACE_STYLE_FILL_AREA(#589);
#589 = FILL_AREA_STYLE('',(#590));
#590 = FILL_AREA_STYLE_COLOUR('',#591);
#591 = COLOUR_RGB('',0.250980406631,0.250980406631,0.250980406631);
#592 = CURVE_STYLE('',#593,POSITIVE_LENGTH_MEASURE(0.1),#594);
#593 = DRAUGHTING_PRE_DEFINED_CURVE_FONT('continuous');
#594 = COLOUR_RGB('',9.803921802644E-02,9.803921802644E-02,
  9.803921802644E-02);
ENDSEC;
END-ISO-10303-21;
