ISO-10303-21;
HEADER;
FILE_DESCRIPTION(('FreeCAD Model'),'2;1');
FILE_NAME('Open CASCADE Shape Model','2026-09-03T21:59:05',('Author'),(
    ''),'Open CASCADE STEP processor 7.9','FreeCAD','Unknown');
FILE_SCHEMA(('AUTOMOTIVE_DESIGN { 1 0 10303 214 1 1 1 1 }'));
ENDSEC;
DATA;
#1 = APPLICATION_PROTOCOL_DEFINITION('international standard',
  'automotive_design',2000,#2);
#2 = APPLICATION_CONTEXT(
  'core data for automotive mechanical design processes');
#3 = SHAPE_DEFINITION_REPRESENTATION(#4,#10);
#4 = PRODUCT_DEFINITION_SHAPE('','',#5);
#5 = PRODUCT_DEFINITION('design','',#6,#9);
#6 = PRODUCT_DEFINITION_FORMATION('','',#7);
#7 = PRODUCT('Z motor bracket_Standard','Z motor bracket_Standard','',(
    #8));
#8 = PRODUCT_CONTEXT('',#2,'mechanical');
#9 = PRODUCT_DEFINITION_CONTEXT('part definition',#2,'design');
#10 = ADVANCED_BREP_SHAPE_REPRESENTATION('',(#11,#15),#1724);
#11 = AXIS2_PLACEMENT_3D('',#12,#13,#14);
#12 = CARTESIAN_POINT('',(0.,0.,0.));
#13 = DIRECTION('',(0.,0.,1.));
#14 = DIRECTION('',(1.,0.,-0.));
#15 = MANIFOLD_SOLID_BREP('',#16);
#16 = CLOSED_SHELL('',(#17,#59,#101,#191,#249,#291,#333,#393,#411,#429,
    #471,#504,#546,#588,#634,#710,#741,#779,#847,#877,#907,#938,#968,
    #1079,#1110,#1167,#1191,#1258,#1332,#1356,#1413,#1432,#1465,#1483,
    #1495,#1507,#1525,#1551,#1584,#1602,#1628,#1652,#1676,#1700));
#17 = ADVANCED_FACE('',(#18),#54,.F.);
#18 = FACE_BOUND('',#19,.F.);
#19 = EDGE_LOOP('',(#20,#30,#39,#47));
#20 = ORIENTED_EDGE('',*,*,#21,.T.);
#21 = EDGE_CURVE('',#22,#24,#26,.T.);
#22 = VERTEX_POINT('',#23);
#23 = CARTESIAN_POINT('',(10.,10.,3.5));
#24 = VERTEX_POINT('',#25);
#25 = CARTESIAN_POINT('',(10.,3.,3.5));
#26 = LINE('',#27,#28);
#27 = CARTESIAN_POINT('',(10.,-21.,3.5));
#28 = VECTOR('',#29,1.);
#29 = DIRECTION('',(0.,-1.,0.));
#30 = ORIENTED_EDGE('',*,*,#31,.T.);
#31 = EDGE_CURVE('',#24,#32,#34,.T.);
#32 = VERTEX_POINT('',#33);
#33 = CARTESIAN_POINT('',(10.,3.,8.5));
#34 = CIRCLE('',#35,2.5);
#35 = AXIS2_PLACEMENT_3D('',#36,#37,#38);
#36 = CARTESIAN_POINT('',(10.,3.,6.));
#37 = DIRECTION('',(-0.,1.,0.));
#38 = DIRECTION('',(0.,0.,-1.));
#39 = ORIENTED_EDGE('',*,*,#40,.F.);
#40 = EDGE_CURVE('',#41,#32,#43,.T.);
#41 = VERTEX_POINT('',#42);
#42 = CARTESIAN_POINT('',(10.,10.,8.5));
#43 = LINE('',#44,#45);
#44 = CARTESIAN_POINT('',(10.,-21.,8.5));
#45 = VECTOR('',#46,1.);
#46 = DIRECTION('',(0.,-1.,0.));
#47 = ORIENTED_EDGE('',*,*,#48,.T.);
#48 = EDGE_CURVE('',#41,#22,#49,.T.);
#49 = CIRCLE('',#50,2.5);
#50 = AXIS2_PLACEMENT_3D('',#51,#52,#53);
#51 = CARTESIAN_POINT('',(10.,10.,6.));
#52 = DIRECTION('',(0.,-1.,0.));
#53 = DIRECTION('',(0.,0.,-1.));
#54 = CYLINDRICAL_SURFACE('',#55,2.5);
#55 = AXIS2_PLACEMENT_3D('',#56,#57,#58);
#56 = CARTESIAN_POINT('',(10.,-21.,6.));
#57 = DIRECTION('',(0.,-1.,0.));
#58 = DIRECTION('',(0.,0.,-1.));
#59 = ADVANCED_FACE('',(#60),#96,.F.);
#60 = FACE_BOUND('',#61,.F.);
#61 = EDGE_LOOP('',(#62,#72,#81,#89));
#62 = ORIENTED_EDGE('',*,*,#63,.T.);
#63 = EDGE_CURVE('',#64,#66,#68,.T.);
#64 = VERTEX_POINT('',#65);
#65 = CARTESIAN_POINT('',(-10.,10.,3.5));
#66 = VERTEX_POINT('',#67);
#67 = CARTESIAN_POINT('',(-10.,3.,3.5));
#68 = LINE('',#69,#70);
#69 = CARTESIAN_POINT('',(-10.,-21.,3.5));
#70 = VECTOR('',#71,1.);
#71 = DIRECTION('',(0.,-1.,0.));
#72 = ORIENTED_EDGE('',*,*,#73,.T.);
#73 = EDGE_CURVE('',#66,#74,#76,.T.);
#74 = VERTEX_POINT('',#75);
#75 = CARTESIAN_POINT('',(-10.,3.,8.5));
#76 = CIRCLE('',#77,2.5);
#77 = AXIS2_PLACEMENT_3D('',#78,#79,#80);
#78 = CARTESIAN_POINT('',(-10.,3.,6.));
#79 = DIRECTION('',(-0.,1.,0.));
#80 = DIRECTION('',(0.,0.,-1.));
#81 = ORIENTED_EDGE('',*,*,#82,.F.);
#82 = EDGE_CURVE('',#83,#74,#85,.T.);
#83 = VERTEX_POINT('',#84);
#84 = CARTESIAN_POINT('',(-10.,10.,8.5));
#85 = LINE('',#86,#87);
#86 = CARTESIAN_POINT('',(-10.,-21.,8.5));
#87 = VECTOR('',#88,1.);
#88 = DIRECTION('',(0.,-1.,0.));
#89 = ORIENTED_EDGE('',*,*,#90,.T.);
#90 = EDGE_CURVE('',#83,#64,#91,.T.);
#91 = CIRCLE('',#92,2.5);
#92 = AXIS2_PLACEMENT_3D('',#93,#94,#95);
#93 = CARTESIAN_POINT('',(-10.,10.,6.));
#94 = DIRECTION('',(0.,-1.,0.));
#95 = DIRECTION('',(0.,0.,-1.));
#96 = CYLINDRICAL_SURFACE('',#97,2.5);
#97 = AXIS2_PLACEMENT_3D('',#98,#99,#100);
#98 = CARTESIAN_POINT('',(-10.,-21.,6.));
#99 = DIRECTION('',(0.,-1.,0.));
#100 = DIRECTION('',(0.,0.,-1.));
#101 = ADVANCED_FACE('',(#102),#186,.F.);
#102 = FACE_BOUND('',#103,.F.);
#103 = EDGE_LOOP('',(#104,#112,#125,#134,#157,#166,#179,#185));
#104 = ORIENTED_EDGE('',*,*,#105,.T.);
#105 = EDGE_CURVE('',#24,#106,#108,.T.);
#106 = VERTEX_POINT('',#107);
#107 = CARTESIAN_POINT('',(10.,0.219223593579,0.719223593623));
#108 = LINE('',#109,#110);
#109 = CARTESIAN_POINT('',(10.,0.,0.500000000045));
#110 = VECTOR('',#111,1.);
#111 = DIRECTION('',(0.,-0.707106781187,-0.707106781187));
#112 = ORIENTED_EDGE('',*,*,#113,.T.);
#113 = EDGE_CURVE('',#106,#114,#116,.T.);
#114 = VERTEX_POINT('',#115);
#115 = CARTESIAN_POINT('',(6.883739154485,3.32568664065E-04,
    1.468415266395));
#116 = B_SPLINE_CURVE_WITH_KNOTS('',3,(#117,#118,#119,#120,#121,#122,
    #123,#124),.UNSPECIFIED.,.F.,.F.,(4,2,2,4),(3.309189874109E-03,
    4.938394728291E-03,5.752997155382E-03,6.567599582473E-03),
  .UNSPECIFIED.);
#117 = CARTESIAN_POINT('',(10.,0.219223593579,0.719223593623));
#118 = CARTESIAN_POINT('',(9.455919228264,0.219223593579,0.719223593623)
  );
#119 = CARTESIAN_POINT('',(8.919362345556,0.184837326085,0.768138216367)
  );
#120 = CARTESIAN_POINT('',(8.126865358268,0.108298332371,0.936985701229)
  );
#121 = CARTESIAN_POINT('',(7.863285104487,7.876897973262E-02,
    1.010358674596));
#122 = CARTESIAN_POINT('',(7.357256760395,2.70565923194E-02,
    1.199860102146));
#123 = CARTESIAN_POINT('',(7.112871495674,3.568438788648E-03,
    1.314773665384));
#124 = CARTESIAN_POINT('',(6.883739154485,3.325686640647E-04,
    1.468415266395));
#125 = ORIENTED_EDGE('',*,*,#126,.T.);
#126 = EDGE_CURVE('',#114,#127,#129,.T.);
#127 = VERTEX_POINT('',#128);
#128 = CARTESIAN_POINT('',(6.867385697919,1.700151689231E-02,
    1.50000000001));
#129 = B_SPLINE_CURVE_WITH_KNOTS('',3,(#130,#131,#132,#133),
  .UNSPECIFIED.,.F.,.F.,(4,4),(0.,3.927957197053E-05),
  .PIECEWISE_BEZIER_KNOTS.);
#130 = CARTESIAN_POINT('',(6.883739154485,3.325686640647E-04,
    1.468415266395));
#131 = CARTESIAN_POINT('',(6.878192371872,5.843211311089E-03,
    1.478917535761));
#132 = CARTESIAN_POINT('',(6.872740454741,1.139945482765E-02,
    1.48944655879));
#133 = CARTESIAN_POINT('',(6.867385697919,1.700151689231E-02,
    1.50000000001));
#134 = ORIENTED_EDGE('',*,*,#135,.T.);
#135 = EDGE_CURVE('',#127,#136,#138,.T.);
#136 = VERTEX_POINT('',#137);
#137 = CARTESIAN_POINT('',(6.867385946467,1.700125686488E-02,
    10.500000127093));
#138 = B_SPLINE_CURVE_WITH_KNOTS('',3,(#139,#140,#141,#142,#143,#144,
    #145,#146,#147,#148,#149,#150,#151,#152,#153,#154,#155,#156),
  .UNSPECIFIED.,.F.,.F.,(4,2,2,2,2,2,2,2,4),(-4.878044836046E-03,
    -2.441557551646E-03,-1.832435730546E-03,-1.223313909446E-03,
    -5.07026724542E-06,1.213173374955E-03,1.822295196055E-03,
    2.431417017155E-03,4.867904301555E-03),.UNSPECIFIED.);
#139 = CARTESIAN_POINT('',(6.867385697919,1.700151689231E-02,
    1.50000000001));
#140 = CARTESIAN_POINT('',(6.533146746192,0.366677032336,2.158736009196)
  );
#141 = CARTESIAN_POINT('',(6.219887645666,0.639671904765,2.850947578412)
  );
#142 = CARTESIAN_POINT('',(5.931347774954,0.874008302936,3.790406097574)
  );
#143 = CARTESIAN_POINT('',(5.8788212421,0.915546941915,3.982013005749));
#144 = CARTESIAN_POINT('',(5.786222111553,0.987570189306,4.373569944629)
  );
#145 = CARTESIAN_POINT('',(5.746164465731,1.018043082454,4.573973285841)
  );
#146 = CARTESIAN_POINT('',(5.649622986588,1.090727324359,5.176088660734)
  );
#147 = CARTESIAN_POINT('',(5.615766283757,1.115231176961,5.582529201428)
  );
#148 = CARTESIAN_POINT('',(5.615152888526,1.115680693009,6.406154046474)
  );
#149 = CARTESIAN_POINT('',(5.648401879244,1.091613546718,6.81116618283)
  );
#150 = CARTESIAN_POINT('',(5.743032462814,1.020416707244,7.40890925146)
  );
#151 = CARTESIAN_POINT('',(5.782026712135,0.990785912442,7.606549553614)
  );
#152 = CARTESIAN_POINT('',(5.873811359664,0.919486519658,7.998739474242)
  );
#153 = CARTESIAN_POINT('',(5.926804739908,0.877641290121,8.193754667246)
  );
#154 = CARTESIAN_POINT('',(6.217135197457,0.642123920376,9.144099215501)
  );
#155 = CARTESIAN_POINT('',(6.532398503809,0.367459844,9.839789332239));
#156 = CARTESIAN_POINT('',(6.867385946467,1.700125686488E-02,
    10.500000127093));
#157 = ORIENTED_EDGE('',*,*,#158,.T.);
#158 = EDGE_CURVE('',#136,#159,#161,.T.);
#159 = VERTEX_POINT('',#160);
#160 = CARTESIAN_POINT('',(6.88373915448,3.32568673259E-04,
    10.531584733617));
#161 = B_SPLINE_CURVE_WITH_KNOTS('',3,(#162,#163,#164,#165),
  .UNSPECIFIED.,.F.,.F.,(4,4),(6.8898E-13,3.927925663318E-05),
  .PIECEWISE_BEZIER_KNOTS.);
#162 = CARTESIAN_POINT('',(6.867385946467,1.700125686488E-02,
    10.500000127093));
#163 = CARTESIAN_POINT('',(6.872740542258,1.139936563691E-02,
    10.510553610294));
#164 = CARTESIAN_POINT('',(6.878192416381,5.843167093856E-03,
    10.521082548578));
#165 = CARTESIAN_POINT('',(6.88373915448,3.32568673259E-04,
    10.531584733617));
#166 = ORIENTED_EDGE('',*,*,#167,.T.);
#167 = EDGE_CURVE('',#159,#168,#170,.T.);
#168 = VERTEX_POINT('',#169);
#169 = CARTESIAN_POINT('',(10.,0.219223593579,11.280776406377));
#170 = B_SPLINE_CURVE_WITH_KNOTS('',3,(#171,#172,#173,#174,#175,#176,
    #177,#178),.UNSPECIFIED.,.F.,.F.,(4,2,2,4),(-3.227692393505E-03,
    -2.420769295128E-03,-1.613846196752E-03,9.2E-16),.UNSPECIFIED.);
#171 = CARTESIAN_POINT('',(6.88373915448,3.32568673259E-04,
    10.531584733617));
#172 = CARTESIAN_POINT('',(7.112391314807,3.561657548168E-03,
    10.684904355873));
#173 = CARTESIAN_POINT('',(7.356925969201,2.702081507794E-02,
    10.800032651261));
#174 = CARTESIAN_POINT('',(7.864109397935,7.885519120772E-02,
    10.989933366367));
#175 = CARTESIAN_POINT('',(8.127135344246,0.108320102789,11.063051460293
    ));
#176 = CARTESIAN_POINT('',(8.917424008896,0.184658720414,11.231489474407
    ));
#177 = CARTESIAN_POINT('',(9.454143493629,0.219223593579,11.280776406377
    ));
#178 = CARTESIAN_POINT('',(10.,0.219223593579,11.280776406377));
#179 = ORIENTED_EDGE('',*,*,#180,.F.);
#180 = EDGE_CURVE('',#32,#168,#181,.T.);
#181 = LINE('',#182,#183);
#182 = CARTESIAN_POINT('',(10.,0.,11.499999999955));
#183 = VECTOR('',#184,1.);
#184 = DIRECTION('',(9.E-17,-0.707106781187,0.707106781187));
#185 = ORIENTED_EDGE('',*,*,#31,.F.);
#186 = CONICAL_SURFACE('',#187,5.499999999955,0.785398163397);
#187 = AXIS2_PLACEMENT_3D('',#188,#189,#190);
#188 = CARTESIAN_POINT('',(10.,0.,6.));
#189 = DIRECTION('',(-0.,-1.,-0.));
#190 = DIRECTION('',(0.,0.,-1.));
#191 = ADVANCED_FACE('',(#192),#244,.F.);
#192 = FACE_BOUND('',#193,.F.);
#193 = EDGE_LOOP('',(#194,#202,#215,#224,#237,#243));
#194 = ORIENTED_EDGE('',*,*,#195,.T.);
#195 = EDGE_CURVE('',#66,#196,#198,.T.);
#196 = VERTEX_POINT('',#197);
#197 = CARTESIAN_POINT('',(-10.,0.219223593579,0.719223593623));
#198 = LINE('',#199,#200);
#199 = CARTESIAN_POINT('',(-10.,-1.766565594608E-02,0.482334344098));
#200 = VECTOR('',#201,1.);
#201 = DIRECTION('',(0.,-0.707106781187,-0.707106781187));
#202 = ORIENTED_EDGE('',*,*,#203,.T.);
#203 = EDGE_CURVE('',#196,#204,#206,.T.);
#204 = VERTEX_POINT('',#205);
#205 = CARTESIAN_POINT('',(-13.16227766011,0.,1.500000000018));
#206 = B_SPLINE_CURVE_WITH_KNOTS('',3,(#207,#208,#209,#210,#211,#212,
    #213,#214),.UNSPECIFIED.,.F.,.F.,(4,2,2,4),(3.254558168955E-03,
    4.910827771198E-03,5.73896257232E-03,6.567097373441E-03),
  .UNSPECIFIED.);
#207 = CARTESIAN_POINT('',(-10.,0.219223593579,0.719223593623));
#208 = CARTESIAN_POINT('',(-10.55522695263,0.219223593578,0.719223593623
    ));
#209 = CARTESIAN_POINT('',(-11.10072135039,0.183375680825,0.770096971722
    ));
#210 = CARTESIAN_POINT('',(-11.90313192059,0.10514371898,0.944625835647)
  );
#211 = CARTESIAN_POINT('',(-12.1701906594,7.503698682204E-02,
    1.020447502808));
#212 = CARTESIAN_POINT('',(-12.68519190854,2.307774196694E-02,
    1.218591346588));
#213 = CARTESIAN_POINT('',(-12.93277295072,-3.92048E-12,1.338720529924)
  );
#214 = CARTESIAN_POINT('',(-13.16227766011,4.E-17,1.500000000018));
#215 = ORIENTED_EDGE('',*,*,#216,.T.);
#216 = EDGE_CURVE('',#204,#217,#219,.T.);
#217 = VERTEX_POINT('',#218);
#218 = CARTESIAN_POINT('',(-13.16227765776,1.33582E-09,10.5));
#219 = CIRCLE('',#220,5.499999997284);
#220 = AXIS2_PLACEMENT_3D('',#221,#222,#223);
#221 = CARTESIAN_POINT('',(-10.,2.67164069E-09,6.));
#222 = DIRECTION('',(0.,1.,0.));
#223 = DIRECTION('',(0.,0.,-1.));
#224 = ORIENTED_EDGE('',*,*,#225,.T.);
#225 = EDGE_CURVE('',#217,#226,#228,.T.);
#226 = VERTEX_POINT('',#227);
#227 = CARTESIAN_POINT('',(-10.,0.219223593579,11.280776406377));
#228 = B_SPLINE_CURVE_WITH_KNOTS('',3,(#229,#230,#231,#232,#233,#234,
    #235,#236),.UNSPECIFIED.,.F.,.F.,(4,2,2,4),(-3.284464465625E-03,
    -2.463348349219E-03,-1.642232232812E-03,-0.),.UNSPECIFIED.);
#229 = CARTESIAN_POINT('',(-13.16227765776,1.33582034E-09,10.5));
#230 = CARTESIAN_POINT('',(-12.93282653009,-3.91938E-12,10.661241818338)
  );
#231 = CARTESIAN_POINT('',(-12.68518508081,2.307705895341E-02,
    10.781421447734));
#232 = CARTESIAN_POINT('',(-12.1699098801,7.506668770375E-02,
    10.979650352385));
#233 = CARTESIAN_POINT('',(-11.90308119796,0.105148225691,
    11.055383010996));
#234 = CARTESIAN_POINT('',(-11.10096908293,0.183352404832,
    11.229853516077));
#235 = CARTESIAN_POINT('',(-10.55545760869,0.219223593579,
    11.280776406377));
#236 = CARTESIAN_POINT('',(-10.,0.219223593579,11.280776406377));
#237 = ORIENTED_EDGE('',*,*,#238,.F.);
#238 = EDGE_CURVE('',#74,#226,#239,.T.);
#239 = LINE('',#240,#241);
#240 = CARTESIAN_POINT('',(-10.,-1.766565594608E-02,11.517665655902));
#241 = VECTOR('',#242,1.);
#242 = DIRECTION('',(9.E-17,-0.707106781187,0.707106781187));
#243 = ORIENTED_EDGE('',*,*,#73,.F.);
#244 = CONICAL_SURFACE('',#245,5.517665655902,0.785398163397);
#245 = AXIS2_PLACEMENT_3D('',#246,#247,#248);
#246 = CARTESIAN_POINT('',(-10.,-1.766565594608E-02,6.));
#247 = DIRECTION('',(-0.,-1.,-0.));
#248 = DIRECTION('',(0.,0.,-1.));
#249 = ADVANCED_FACE('',(#250),#286,.F.);
#250 = FACE_BOUND('',#251,.F.);
#251 = EDGE_LOOP('',(#252,#262,#271,#279));
#252 = ORIENTED_EDGE('',*,*,#253,.T.);
#253 = EDGE_CURVE('',#254,#256,#258,.T.);
#254 = VERTEX_POINT('',#255);
#255 = CARTESIAN_POINT('',(17.25,4.5,0.));
#256 = VERTEX_POINT('',#257);
#257 = CARTESIAN_POINT('',(17.25,4.5,12.));
#258 = LINE('',#259,#260);
#259 = CARTESIAN_POINT('',(17.25,4.5,0.));
#260 = VECTOR('',#261,1.);
#261 = DIRECTION('',(0.,0.,1.));
#262 = ORIENTED_EDGE('',*,*,#263,.T.);
#263 = EDGE_CURVE('',#256,#264,#266,.T.);
#264 = VERTEX_POINT('',#265);
#265 = CARTESIAN_POINT('',(13.75,4.5,12.));
#266 = CIRCLE('',#267,1.75);
#267 = AXIS2_PLACEMENT_3D('',#268,#269,#270);
#268 = CARTESIAN_POINT('',(15.5,4.5,12.));
#269 = DIRECTION('',(0.,0.,-1.));
#270 = DIRECTION('',(1.,0.,0.));
#271 = ORIENTED_EDGE('',*,*,#272,.F.);
#272 = EDGE_CURVE('',#273,#264,#275,.T.);
#273 = VERTEX_POINT('',#274);
#274 = CARTESIAN_POINT('',(13.75,4.5,0.));
#275 = LINE('',#276,#277);
#276 = CARTESIAN_POINT('',(13.75,4.5,0.));
#277 = VECTOR('',#278,1.);
#278 = DIRECTION('',(0.,0.,1.));
#279 = ORIENTED_EDGE('',*,*,#280,.F.);
#280 = EDGE_CURVE('',#254,#273,#281,.T.);
#281 = CIRCLE('',#282,1.75);
#282 = AXIS2_PLACEMENT_3D('',#283,#284,#285);
#283 = CARTESIAN_POINT('',(15.5,4.5,0.));
#284 = DIRECTION('',(0.,0.,-1.));
#285 = DIRECTION('',(1.,0.,0.));
#286 = CYLINDRICAL_SURFACE('',#287,1.75);
#287 = AXIS2_PLACEMENT_3D('',#288,#289,#290);
#288 = CARTESIAN_POINT('',(15.5,4.5,0.));
#289 = DIRECTION('',(0.,0.,1.));
#290 = DIRECTION('',(1.,0.,-0.));
#291 = ADVANCED_FACE('',(#292),#328,.F.);
#292 = FACE_BOUND('',#293,.F.);
#293 = EDGE_LOOP('',(#294,#304,#313,#321));
#294 = ORIENTED_EDGE('',*,*,#295,.T.);
#295 = EDGE_CURVE('',#296,#298,#300,.T.);
#296 = VERTEX_POINT('',#297);
#297 = CARTESIAN_POINT('',(-13.75,4.5,0.));
#298 = VERTEX_POINT('',#299);
#299 = CARTESIAN_POINT('',(-13.75,4.5,12.));
#300 = LINE('',#301,#302);
#301 = CARTESIAN_POINT('',(-13.75,4.5,0.));
#302 = VECTOR('',#303,1.);
#303 = DIRECTION('',(0.,0.,1.));
#304 = ORIENTED_EDGE('',*,*,#305,.T.);
#305 = EDGE_CURVE('',#298,#306,#308,.T.);
#306 = VERTEX_POINT('',#307);
#307 = CARTESIAN_POINT('',(-17.25,4.5,12.));
#308 = CIRCLE('',#309,1.75);
#309 = AXIS2_PLACEMENT_3D('',#310,#311,#312);
#310 = CARTESIAN_POINT('',(-15.5,4.5,12.));
#311 = DIRECTION('',(0.,0.,-1.));
#312 = DIRECTION('',(1.,0.,0.));
#313 = ORIENTED_EDGE('',*,*,#314,.F.);
#314 = EDGE_CURVE('',#315,#306,#317,.T.);
#315 = VERTEX_POINT('',#316);
#316 = CARTESIAN_POINT('',(-17.25,4.5,0.));
#317 = LINE('',#318,#319);
#318 = CARTESIAN_POINT('',(-17.25,4.5,0.));
#319 = VECTOR('',#320,1.);
#320 = DIRECTION('',(0.,0.,1.));
#321 = ORIENTED_EDGE('',*,*,#322,.F.);
#322 = EDGE_CURVE('',#296,#315,#323,.T.);
#323 = CIRCLE('',#324,1.75);
#324 = AXIS2_PLACEMENT_3D('',#325,#326,#327);
#325 = CARTESIAN_POINT('',(-15.5,4.5,0.));
#326 = DIRECTION('',(0.,0.,-1.));
#327 = DIRECTION('',(1.,0.,0.));
#328 = CYLINDRICAL_SURFACE('',#329,1.75);
#329 = AXIS2_PLACEMENT_3D('',#330,#331,#332);
#330 = CARTESIAN_POINT('',(-15.5,4.5,0.));
#331 = DIRECTION('',(0.,0.,1.));
#332 = DIRECTION('',(1.,0.,-0.));
#333 = ADVANCED_FACE('',(#334,#344,#354),#388,.T.);
#334 = FACE_BOUND('',#335,.T.);
#335 = EDGE_LOOP('',(#336,#343));
#336 = ORIENTED_EDGE('',*,*,#337,.T.);
#337 = EDGE_CURVE('',#22,#41,#338,.T.);
#338 = CIRCLE('',#339,2.5);
#339 = AXIS2_PLACEMENT_3D('',#340,#341,#342);
#340 = CARTESIAN_POINT('',(10.,10.,6.));
#341 = DIRECTION('',(0.,-1.,0.));
#342 = DIRECTION('',(0.,0.,-1.));
#343 = ORIENTED_EDGE('',*,*,#48,.T.);
#344 = FACE_BOUND('',#345,.T.);
#345 = EDGE_LOOP('',(#346,#353));
#346 = ORIENTED_EDGE('',*,*,#347,.T.);
#347 = EDGE_CURVE('',#64,#83,#348,.T.);
#348 = CIRCLE('',#349,2.5);
#349 = AXIS2_PLACEMENT_3D('',#350,#351,#352);
#350 = CARTESIAN_POINT('',(-10.,10.,6.));
#351 = DIRECTION('',(0.,-1.,0.));
#352 = DIRECTION('',(0.,0.,-1.));
#353 = ORIENTED_EDGE('',*,*,#90,.T.);
#354 = FACE_BOUND('',#355,.T.);
#355 = EDGE_LOOP('',(#356,#366,#374,#382));
#356 = ORIENTED_EDGE('',*,*,#357,.T.);
#357 = EDGE_CURVE('',#358,#360,#362,.T.);
#358 = VERTEX_POINT('',#359);
#359 = CARTESIAN_POINT('',(19.5,10.,1.5));
#360 = VERTEX_POINT('',#361);
#361 = CARTESIAN_POINT('',(-19.5,10.,1.5));
#362 = LINE('',#363,#364);
#363 = CARTESIAN_POINT('',(21.,10.,1.5));
#364 = VECTOR('',#365,1.);
#365 = DIRECTION('',(-1.,-0.,-0.));
#366 = ORIENTED_EDGE('',*,*,#367,.T.);
#367 = EDGE_CURVE('',#360,#368,#370,.T.);
#368 = VERTEX_POINT('',#369);
#369 = CARTESIAN_POINT('',(-19.5,10.,10.5));
#370 = LINE('',#371,#372);
#371 = CARTESIAN_POINT('',(-19.5,10.,0.));
#372 = VECTOR('',#373,1.);
#373 = DIRECTION('',(0.,-0.,1.));
#374 = ORIENTED_EDGE('',*,*,#375,.T.);
#375 = EDGE_CURVE('',#368,#376,#378,.T.);
#376 = VERTEX_POINT('',#377);
#377 = CARTESIAN_POINT('',(19.5,10.,10.5));
#378 = LINE('',#379,#380);
#379 = CARTESIAN_POINT('',(21.,10.,10.5));
#380 = VECTOR('',#381,1.);
#381 = DIRECTION('',(1.,0.,0.));
#382 = ORIENTED_EDGE('',*,*,#383,.T.);
#383 = EDGE_CURVE('',#376,#358,#384,.T.);
#384 = LINE('',#385,#386);
#385 = CARTESIAN_POINT('',(19.5,10.,0.));
#386 = VECTOR('',#387,1.);
#387 = DIRECTION('',(-0.,0.,-1.));
#388 = PLANE('',#389);
#389 = AXIS2_PLACEMENT_3D('',#390,#391,#392);
#390 = CARTESIAN_POINT('',(21.,10.,0.));
#391 = DIRECTION('',(-0.,1.,0.));
#392 = DIRECTION('',(0.,0.,1.));
#393 = ADVANCED_FACE('',(#394),#406,.F.);
#394 = FACE_BOUND('',#395,.F.);
#395 = EDGE_LOOP('',(#396,#403,#404,#405));
#396 = ORIENTED_EDGE('',*,*,#397,.T.);
#397 = EDGE_CURVE('',#32,#24,#398,.T.);
#398 = CIRCLE('',#399,2.5);
#399 = AXIS2_PLACEMENT_3D('',#400,#401,#402);
#400 = CARTESIAN_POINT('',(10.,3.,6.));
#401 = DIRECTION('',(-0.,1.,0.));
#402 = DIRECTION('',(0.,0.,-1.));
#403 = ORIENTED_EDGE('',*,*,#21,.F.);
#404 = ORIENTED_EDGE('',*,*,#337,.T.);
#405 = ORIENTED_EDGE('',*,*,#40,.T.);
#406 = CYLINDRICAL_SURFACE('',#407,2.5);
#407 = AXIS2_PLACEMENT_3D('',#408,#409,#410);
#408 = CARTESIAN_POINT('',(10.,-21.,6.));
#409 = DIRECTION('',(0.,-1.,0.));
#410 = DIRECTION('',(0.,0.,-1.));
#411 = ADVANCED_FACE('',(#412),#424,.F.);
#412 = FACE_BOUND('',#413,.F.);
#413 = EDGE_LOOP('',(#414,#421,#422,#423));
#414 = ORIENTED_EDGE('',*,*,#415,.T.);
#415 = EDGE_CURVE('',#74,#66,#416,.T.);
#416 = CIRCLE('',#417,2.5);
#417 = AXIS2_PLACEMENT_3D('',#418,#419,#420);
#418 = CARTESIAN_POINT('',(-10.,3.,6.));
#419 = DIRECTION('',(-0.,1.,0.));
#420 = DIRECTION('',(0.,0.,-1.));
#421 = ORIENTED_EDGE('',*,*,#63,.F.);
#422 = ORIENTED_EDGE('',*,*,#347,.T.);
#423 = ORIENTED_EDGE('',*,*,#82,.T.);
#424 = CYLINDRICAL_SURFACE('',#425,2.5);
#425 = AXIS2_PLACEMENT_3D('',#426,#427,#428);
#426 = CARTESIAN_POINT('',(-10.,-21.,6.));
#427 = DIRECTION('',(0.,-1.,0.));
#428 = DIRECTION('',(0.,0.,-1.));
#429 = ADVANCED_FACE('',(#430),#466,.T.);
#430 = FACE_BOUND('',#431,.T.);
#431 = EDGE_LOOP('',(#432,#443,#451,#458,#459));
#432 = ORIENTED_EDGE('',*,*,#433,.F.);
#433 = EDGE_CURVE('',#434,#436,#438,.T.);
#434 = VERTEX_POINT('',#435);
#435 = CARTESIAN_POINT('',(-21.,8.5,1.5));
#436 = VERTEX_POINT('',#437);
#437 = CARTESIAN_POINT('',(-20.56066017178,9.56066017178,1.5));
#438 = CIRCLE('',#439,1.5);
#439 = AXIS2_PLACEMENT_3D('',#440,#441,#442);
#440 = CARTESIAN_POINT('',(-19.5,8.5,1.5));
#441 = DIRECTION('',(0.,0.,-1.));
#442 = DIRECTION('',(-1.,0.,0.));
#443 = ORIENTED_EDGE('',*,*,#444,.T.);
#444 = EDGE_CURVE('',#434,#445,#447,.T.);
#445 = VERTEX_POINT('',#446);
#446 = CARTESIAN_POINT('',(-21.,8.5,10.5));
#447 = LINE('',#448,#449);
#448 = CARTESIAN_POINT('',(-21.,8.5,27.6432));
#449 = VECTOR('',#450,1.);
#450 = DIRECTION('',(-0.,-0.,1.));
#451 = ORIENTED_EDGE('',*,*,#452,.T.);
#452 = EDGE_CURVE('',#445,#368,#453,.T.);
#453 = CIRCLE('',#454,1.5);
#454 = AXIS2_PLACEMENT_3D('',#455,#456,#457);
#455 = CARTESIAN_POINT('',(-19.5,8.5,10.5));
#456 = DIRECTION('',(0.,0.,-1.));
#457 = DIRECTION('',(-1.,0.,0.));
#458 = ORIENTED_EDGE('',*,*,#367,.F.);
#459 = ORIENTED_EDGE('',*,*,#460,.F.);
#460 = EDGE_CURVE('',#436,#360,#461,.T.);
#461 = CIRCLE('',#462,1.5);
#462 = AXIS2_PLACEMENT_3D('',#463,#464,#465);
#463 = CARTESIAN_POINT('',(-19.5,8.5,1.5));
#464 = DIRECTION('',(0.,-0.,-1.));
#465 = DIRECTION('',(0.707106781187,-0.707106781187,0.));
#466 = CYLINDRICAL_SURFACE('',#467,1.5);
#467 = AXIS2_PLACEMENT_3D('',#468,#469,#470);
#468 = CARTESIAN_POINT('',(-19.5,8.5,27.6432));
#469 = DIRECTION('',(0.,0.,-1.));
#470 = DIRECTION('',(-1.,0.,0.));
#471 = ADVANCED_FACE('',(#472),#499,.T.);
#472 = FACE_BOUND('',#473,.T.);
#473 = EDGE_LOOP('',(#474,#483,#491,#498));
#474 = ORIENTED_EDGE('',*,*,#475,.T.);
#475 = EDGE_CURVE('',#358,#476,#478,.T.);
#476 = VERTEX_POINT('',#477);
#477 = CARTESIAN_POINT('',(19.5,8.5,0.));
#478 = CIRCLE('',#479,1.5);
#479 = AXIS2_PLACEMENT_3D('',#480,#481,#482);
#480 = CARTESIAN_POINT('',(19.5,8.5,1.5));
#481 = DIRECTION('',(-1.,0.,-0.));
#482 = DIRECTION('',(0.,2.31E-15,-1.));
#483 = ORIENTED_EDGE('',*,*,#484,.T.);
#484 = EDGE_CURVE('',#476,#485,#487,.T.);
#485 = VERTEX_POINT('',#486);
#486 = CARTESIAN_POINT('',(-19.5,8.5,0.));
#487 = LINE('',#488,#489);
#488 = CARTESIAN_POINT('',(-75.7512,8.5,0.));
#489 = VECTOR('',#490,1.);
#490 = DIRECTION('',(-1.,-0.,-0.));
#491 = ORIENTED_EDGE('',*,*,#492,.T.);
#492 = EDGE_CURVE('',#485,#360,#493,.T.);
#493 = CIRCLE('',#494,1.5);
#494 = AXIS2_PLACEMENT_3D('',#495,#496,#497);
#495 = CARTESIAN_POINT('',(-19.5,8.5,1.5));
#496 = DIRECTION('',(1.,0.,0.));
#497 = DIRECTION('',(0.,0.,-1.));
#498 = ORIENTED_EDGE('',*,*,#357,.F.);
#499 = CYLINDRICAL_SURFACE('',#500,1.5);
#500 = AXIS2_PLACEMENT_3D('',#501,#502,#503);
#501 = CARTESIAN_POINT('',(-75.7512,8.5,1.5));
#502 = DIRECTION('',(1.,0.,0.));
#503 = DIRECTION('',(0.,0.,-1.));
#504 = ADVANCED_FACE('',(#505),#541,.T.);
#505 = FACE_BOUND('',#506,.T.);
#506 = EDGE_LOOP('',(#507,#516,#517,#526,#534));
#507 = ORIENTED_EDGE('',*,*,#508,.T.);
#508 = EDGE_CURVE('',#509,#358,#511,.T.);
#509 = VERTEX_POINT('',#510);
#510 = CARTESIAN_POINT('',(20.56066017178,9.56066017178,1.5));
#511 = CIRCLE('',#512,1.5);
#512 = AXIS2_PLACEMENT_3D('',#513,#514,#515);
#513 = CARTESIAN_POINT('',(19.5,8.5,1.5));
#514 = DIRECTION('',(0.,-0.,1.));
#515 = DIRECTION('',(-1.,1.16E-15,0.));
#516 = ORIENTED_EDGE('',*,*,#383,.F.);
#517 = ORIENTED_EDGE('',*,*,#518,.T.);
#518 = EDGE_CURVE('',#376,#519,#521,.T.);
#519 = VERTEX_POINT('',#520);
#520 = CARTESIAN_POINT('',(21.,8.5,10.5));
#521 = CIRCLE('',#522,1.5);
#522 = AXIS2_PLACEMENT_3D('',#523,#524,#525);
#523 = CARTESIAN_POINT('',(19.5,8.5,10.5));
#524 = DIRECTION('',(0.,0.,-1.));
#525 = DIRECTION('',(-1.,0.,0.));
#526 = ORIENTED_EDGE('',*,*,#527,.T.);
#527 = EDGE_CURVE('',#519,#528,#530,.T.);
#528 = VERTEX_POINT('',#529);
#529 = CARTESIAN_POINT('',(21.,8.5,1.5));
#530 = LINE('',#531,#532);
#531 = CARTESIAN_POINT('',(21.,8.5,27.6432));
#532 = VECTOR('',#533,1.);
#533 = DIRECTION('',(0.,0.,-1.));
#534 = ORIENTED_EDGE('',*,*,#535,.T.);
#535 = EDGE_CURVE('',#528,#509,#536,.T.);
#536 = CIRCLE('',#537,1.5);
#537 = AXIS2_PLACEMENT_3D('',#538,#539,#540);
#538 = CARTESIAN_POINT('',(19.5,8.5,1.5));
#539 = DIRECTION('',(0.,-0.,1.));
#540 = DIRECTION('',(-1.,0.,0.));
#541 = CYLINDRICAL_SURFACE('',#542,1.5);
#542 = AXIS2_PLACEMENT_3D('',#543,#544,#545);
#543 = CARTESIAN_POINT('',(19.5,8.5,27.6432));
#544 = DIRECTION('',(0.,0.,-1.));
#545 = DIRECTION('',(-1.,0.,0.));
#546 = ADVANCED_FACE('',(#547),#583,.T.);
#547 = FACE_BOUND('',#548,.T.);
#548 = EDGE_LOOP('',(#549,#558,#559,#568,#576));
#549 = ORIENTED_EDGE('',*,*,#550,.T.);
#550 = EDGE_CURVE('',#551,#376,#553,.T.);
#551 = VERTEX_POINT('',#552);
#552 = CARTESIAN_POINT('',(19.5,9.56066017178,11.56066017178));
#553 = CIRCLE('',#554,1.5);
#554 = AXIS2_PLACEMENT_3D('',#555,#556,#557);
#555 = CARTESIAN_POINT('',(19.5,8.5,10.5));
#556 = DIRECTION('',(-1.,0.,0.));
#557 = DIRECTION('',(0.,0.,1.));
#558 = ORIENTED_EDGE('',*,*,#375,.F.);
#559 = ORIENTED_EDGE('',*,*,#560,.T.);
#560 = EDGE_CURVE('',#368,#561,#563,.T.);
#561 = VERTEX_POINT('',#562);
#562 = CARTESIAN_POINT('',(-19.5,8.5,12.));
#563 = CIRCLE('',#564,1.5);
#564 = AXIS2_PLACEMENT_3D('',#565,#566,#567);
#565 = CARTESIAN_POINT('',(-19.5,8.5,10.5));
#566 = DIRECTION('',(1.,0.,-0.));
#567 = DIRECTION('',(0.,-1.16E-15,1.));
#568 = ORIENTED_EDGE('',*,*,#569,.T.);
#569 = EDGE_CURVE('',#561,#570,#572,.T.);
#570 = VERTEX_POINT('',#571);
#571 = CARTESIAN_POINT('',(19.5,8.5,12.));
#572 = LINE('',#573,#574);
#573 = CARTESIAN_POINT('',(75.7512,8.5,12.));
#574 = VECTOR('',#575,1.);
#575 = DIRECTION('',(1.,-0.,-0.));
#576 = ORIENTED_EDGE('',*,*,#577,.T.);
#577 = EDGE_CURVE('',#570,#551,#578,.T.);
#578 = CIRCLE('',#579,1.5);
#579 = AXIS2_PLACEMENT_3D('',#580,#581,#582);
#580 = CARTESIAN_POINT('',(19.5,8.5,10.5));
#581 = DIRECTION('',(-1.,0.,0.));
#582 = DIRECTION('',(0.,0.,1.));
#583 = CYLINDRICAL_SURFACE('',#584,1.5);
#584 = AXIS2_PLACEMENT_3D('',#585,#586,#587);
#585 = CARTESIAN_POINT('',(75.7512,8.5,10.5));
#586 = DIRECTION('',(-1.,0.,0.));
#587 = DIRECTION('',(0.,0.,1.));
#588 = ADVANCED_FACE('',(#589),#629,.F.);
#589 = FACE_BOUND('',#590,.F.);
#590 = EDGE_LOOP('',(#591,#604,#613,#626,#627,#628));
#591 = ORIENTED_EDGE('',*,*,#592,.T.);
#592 = EDGE_CURVE('',#168,#593,#595,.T.);
#593 = VERTEX_POINT('',#594);
#594 = CARTESIAN_POINT('',(13.162277660117,0.,10.499999999982));
#595 = B_SPLINE_CURVE_WITH_KNOTS('',3,(#596,#597,#598,#599,#600,#601,
    #602,#603),.UNSPECIFIED.,.F.,.F.,(4,2,2,4),(9.2E-16,
    1.642945371583E-03,2.464418057374E-03,3.285890743165E-03),
  .UNSPECIFIED.);
#596 = CARTESIAN_POINT('',(10.,0.219223593579,11.280776406377));
#597 = CARTESIAN_POINT('',(10.555698815968,0.219223593579,
    11.280776406377));
#598 = CARTESIAN_POINT('',(11.10088258441,0.18334266617,11.229781846364)
  );
#599 = CARTESIAN_POINT('',(11.901608864069,0.105300835304,
    11.055748377864));
#600 = CARTESIAN_POINT('',(12.166910926988,7.538707695656E-02,
    10.980671689533));
#601 = CARTESIAN_POINT('',(12.684467234494,2.313181050415E-02,
    10.781829034125));
#602 = CARTESIAN_POINT('',(12.93280433309,-3.967E-12,10.6612574168));
#603 = CARTESIAN_POINT('',(13.162277660117,2.1E-16,10.499999999982));
#604 = ORIENTED_EDGE('',*,*,#605,.T.);
#605 = EDGE_CURVE('',#593,#606,#608,.T.);
#606 = VERTEX_POINT('',#607);
#607 = CARTESIAN_POINT('',(13.162277657768,1.33582E-09,1.5));
#608 = CIRCLE('',#609,5.499999999955);
#609 = AXIS2_PLACEMENT_3D('',#610,#611,#612);
#610 = CARTESIAN_POINT('',(10.,0.,6.));
#611 = DIRECTION('',(0.,1.,0.));
#612 = DIRECTION('',(-9.5E-16,0.,-1.));
#613 = ORIENTED_EDGE('',*,*,#614,.T.);
#614 = EDGE_CURVE('',#606,#106,#615,.T.);
#615 = B_SPLINE_CURVE_WITH_KNOTS('',3,(#616,#617,#618,#619,#620,#621,
    #622,#623,#624,#625),.UNSPECIFIED.,.F.,.F.,(4,2,2,2,4),(2.23766E-12,
    8.272974702054E-04,1.654594938173E-03,2.481892406141E-03,
    3.309189874109E-03),.UNSPECIFIED.);
#616 = CARTESIAN_POINT('',(13.162277657768,1.33582034E-09,1.5));
#617 = CARTESIAN_POINT('',(12.933178489269,-3.91352E-12,1.339005513361)
  );
#618 = CARTESIAN_POINT('',(12.685942096224,2.30120222805E-02,
    1.218953713303));
#619 = CARTESIAN_POINT('',(12.171523880688,7.489254852805E-02,
    1.020887014001));
#620 = CARTESIAN_POINT('',(11.905052910714,0.104938110159,0.945135154618
    ));
#621 = CARTESIAN_POINT('',(11.370335973475,0.157107466992,0.828648886261
    ));
#622 = CARTESIAN_POINT('',(11.099962810112,0.179686195174,0.78742566732)
  );
#623 = CARTESIAN_POINT('',(10.553696088634,0.21074032745,0.732666813214)
  );
#624 = CARTESIAN_POINT('',(10.276279955631,0.219223593579,0.719223593623
    ));
#625 = CARTESIAN_POINT('',(10.,0.219223593579,0.719223593623));
#626 = ORIENTED_EDGE('',*,*,#105,.F.);
#627 = ORIENTED_EDGE('',*,*,#397,.F.);
#628 = ORIENTED_EDGE('',*,*,#180,.T.);
#629 = CONICAL_SURFACE('',#630,5.499999999955,0.785398163397);
#630 = AXIS2_PLACEMENT_3D('',#631,#632,#633);
#631 = CARTESIAN_POINT('',(10.,0.,6.));
#632 = DIRECTION('',(-0.,-1.,-0.));
#633 = DIRECTION('',(0.,0.,-1.));
#634 = ADVANCED_FACE('',(#635),#705,.F.);
#635 = FACE_BOUND('',#636,.F.);
#636 = EDGE_LOOP('',(#637,#650,#659,#682,#691,#702,#703,#704));
#637 = ORIENTED_EDGE('',*,*,#638,.T.);
#638 = EDGE_CURVE('',#226,#639,#641,.T.);
#639 = VERTEX_POINT('',#640);
#640 = CARTESIAN_POINT('',(-6.883739244888,3.32569952186E-04,
    10.531584794212));
#641 = B_SPLINE_CURVE_WITH_KNOTS('',3,(#642,#643,#644,#645,#646,#647,
    #648,#649),.UNSPECIFIED.,.F.,.F.,(4,2,2,4),(-0.,1.615192342702E-03,
    2.422788514052E-03,3.230384685403E-03),.UNSPECIFIED.);
#642 = CARTESIAN_POINT('',(-10.,0.219223593579,11.280776406377));
#643 = CARTESIAN_POINT('',(-9.453688182258,0.219223593579,
    11.280776406377));
#644 = CARTESIAN_POINT('',(-8.917553174668,0.184638047599,
    11.231360407681));
#645 = CARTESIAN_POINT('',(-8.129766566861,0.108590757967,
    11.063690162343));
#646 = CARTESIAN_POINT('',(-7.869286010725,7.941016563933E-02,
    10.991651706169));
#647 = CARTESIAN_POINT('',(-7.358190209048,2.712442410094E-02,
    10.800723154392));
#648 = CARTESIAN_POINT('',(-7.112457708136,3.562601077062E-03,
    10.684948861178));
#649 = CARTESIAN_POINT('',(-6.883739244888,3.325699521859E-04,
    10.531584794212));
#650 = ORIENTED_EDGE('',*,*,#651,.T.);
#651 = EDGE_CURVE('',#639,#652,#654,.T.);
#652 = VERTEX_POINT('',#653);
#653 = CARTESIAN_POINT('',(-6.867385733429,1.700147974174E-02,
    10.500000018147));
#654 = B_SPLINE_CURVE_WITH_KNOTS('',3,(#655,#656,#657,#658),
  .UNSPECIFIED.,.F.,.F.,(4,4),(0.,3.927961318817E-05),
  .PIECEWISE_BEZIER_KNOTS.);
#655 = CARTESIAN_POINT('',(-6.883739244888,3.325699521859E-04,
    10.531584794212));
#656 = CARTESIAN_POINT('',(-6.878192402209,5.843180556591E-03,
    10.521082522586));
#657 = CARTESIAN_POINT('',(-6.872740479021,1.139942976472E-02,
    10.510553488567));
#658 = CARTESIAN_POINT('',(-6.867385733429,1.700147974174E-02,
    10.500000018147));
#659 = ORIENTED_EDGE('',*,*,#660,.T.);
#660 = EDGE_CURVE('',#652,#661,#663,.T.);
#661 = VERTEX_POINT('',#662);
#662 = CARTESIAN_POINT('',(-6.8673859465,1.700125683077E-02,
    1.499999872908));
#663 = B_SPLINE_CURVE_WITH_KNOTS('',3,(#664,#665,#666,#667,#668,#669,
    #670,#671,#672,#673,#674,#675,#676,#677,#678,#679,#680,#681),
  .UNSPECIFIED.,.F.,.F.,(4,2,2,2,2,2,2,2,4),(2.47381E-12,
    2.41497481618E-03,3.018718519607E-03,3.622462223034E-03,
    4.829949629887E-03,6.03743703674E-03,6.641180740167E-03,
    7.244924443593E-03,9.6598992573E-03),.UNSPECIFIED.);
#664 = CARTESIAN_POINT('',(-6.867385733429,1.700147974174E-02,
    10.500000018147));
#665 = CARTESIAN_POINT('',(-6.533146759841,0.366676998091,9.84126401908)
  );
#666 = CARTESIAN_POINT('',(-6.219887657972,0.639671894296,9.149052452886
    ));
#667 = CARTESIAN_POINT('',(-5.931347783305,0.874008296273,8.209593931709
    ));
#668 = CARTESIAN_POINT('',(-5.878821249632,0.915546935991,8.017987023063
    ));
#669 = CARTESIAN_POINT('',(-5.786222117432,0.9875701848,7.626430083075)
  );
#670 = CARTESIAN_POINT('',(-5.746164470768,1.018043078634,7.42602674118)
  );
#671 = CARTESIAN_POINT('',(-5.649622989233,1.090727322425,6.823911364137
    ));
#672 = CARTESIAN_POINT('',(-5.615766284965,1.115231176075,6.417470821881
    ));
#673 = CARTESIAN_POINT('',(-5.615152887391,1.115680693841,5.593845973422
    ));
#674 = CARTESIAN_POINT('',(-5.648401877278,1.091613548164,5.188833834828
    ));
#675 = CARTESIAN_POINT('',(-5.743032460098,1.020416709303,4.591090763273
    ));
#676 = CARTESIAN_POINT('',(-5.782026709252,0.990785914652,4.393450460148
    ));
#677 = CARTESIAN_POINT('',(-5.873811356604,0.919486522064,4.001260537585
    ));
#678 = CARTESIAN_POINT('',(-5.926804736846,0.877641292565,3.806245343591
    ));
#679 = CARTESIAN_POINT('',(-6.217135194725,0.642123922748,2.855900790583
    ));
#680 = CARTESIAN_POINT('',(-6.532398502367,0.367459845513,2.160210670666
    ));
#681 = CARTESIAN_POINT('',(-6.8673859465,1.700125683077E-02,
    1.499999872908));
#682 = ORIENTED_EDGE('',*,*,#683,.T.);
#683 = EDGE_CURVE('',#661,#684,#686,.T.);
#684 = VERTEX_POINT('',#685);
#685 = CARTESIAN_POINT('',(-6.883739154485,3.3256866411E-04,
    1.468415266395));
#686 = B_SPLINE_CURVE_WITH_KNOTS('',3,(#687,#688,#689,#690),
  .UNSPECIFIED.,.F.,.F.,(4,4),(6.8963E-13,3.927925660314E-05),
  .PIECEWISE_BEZIER_KNOTS.);
#687 = CARTESIAN_POINT('',(-6.8673859465,1.700125683077E-02,
    1.499999872908));
#688 = CARTESIAN_POINT('',(-6.872740542287,1.139936560632E-02,
    1.489446389717));
#689 = CARTESIAN_POINT('',(-6.878192416406,5.843167067384E-03,
    1.478917451441));
#690 = CARTESIAN_POINT('',(-6.883739154485,3.325686641104E-04,
    1.468415266395));
#691 = ORIENTED_EDGE('',*,*,#692,.T.);
#692 = EDGE_CURVE('',#684,#196,#693,.T.);
#693 = B_SPLINE_CURVE_WITH_KNOTS('',3,(#694,#695,#696,#697,#698,#699,
    #700,#701),.UNSPECIFIED.,.F.,.F.,(4,2,2,4),(2.E-17,
    8.136395422389E-04,1.627279084478E-03,3.254558168955E-03),
  .UNSPECIFIED.);
#694 = CARTESIAN_POINT('',(-6.883739154485,3.325686641104E-04,
    1.468415266395));
#695 = CARTESIAN_POINT('',(-7.112351798025,3.561099484909E-03,
    1.315122141629));
#696 = CARTESIAN_POINT('',(-7.356841689713,2.701325319524E-02,
    1.200007770952));
#697 = CARTESIAN_POINT('',(-7.863930717282,7.883587899002E-02,
    1.01012467412));
#698 = CARTESIAN_POINT('',(-8.126910015223,0.108296166902,0.937006836245
    ));
#699 = CARTESIAN_POINT('',(-8.91716903845,0.184638428489,0.768544340254)
  );
#700 = CARTESIAN_POINT('',(-9.454491463259,0.219223593578,0.719223593623
    ));
#701 = CARTESIAN_POINT('',(-10.,0.219223593579,0.719223593623));
#702 = ORIENTED_EDGE('',*,*,#195,.F.);
#703 = ORIENTED_EDGE('',*,*,#415,.F.);
#704 = ORIENTED_EDGE('',*,*,#238,.T.);
#705 = CONICAL_SURFACE('',#706,5.517665655902,0.785398163397);
#706 = AXIS2_PLACEMENT_3D('',#707,#708,#709);
#707 = CARTESIAN_POINT('',(-10.,-1.766565594608E-02,6.));
#708 = DIRECTION('',(-0.,-1.,-0.));
#709 = DIRECTION('',(0.,0.,-1.));
#710 = ADVANCED_FACE('',(#711),#736,.T.);
#711 = FACE_BOUND('',#712,.T.);
#712 = EDGE_LOOP('',(#713,#723,#729,#730));
#713 = ORIENTED_EDGE('',*,*,#714,.T.);
#714 = EDGE_CURVE('',#715,#717,#719,.T.);
#715 = VERTEX_POINT('',#716);
#716 = CARTESIAN_POINT('',(-21.,1.5,1.5));
#717 = VERTEX_POINT('',#718);
#718 = CARTESIAN_POINT('',(-21.,1.5,10.5));
#719 = LINE('',#720,#721);
#720 = CARTESIAN_POINT('',(-21.,1.5,0.));
#721 = VECTOR('',#722,1.);
#722 = DIRECTION('',(0.,0.,1.));
#723 = ORIENTED_EDGE('',*,*,#724,.T.);
#724 = EDGE_CURVE('',#717,#445,#725,.T.);
#725 = LINE('',#726,#727);
#726 = CARTESIAN_POINT('',(-21.,10.,10.5));
#727 = VECTOR('',#728,1.);
#728 = DIRECTION('',(0.,1.,-0.));
#729 = ORIENTED_EDGE('',*,*,#444,.F.);
#730 = ORIENTED_EDGE('',*,*,#731,.T.);
#731 = EDGE_CURVE('',#434,#715,#732,.T.);
#732 = LINE('',#733,#734);
#733 = CARTESIAN_POINT('',(-21.,10.,1.5));
#734 = VECTOR('',#735,1.);
#735 = DIRECTION('',(-0.,-1.,0.));
#736 = PLANE('',#737);
#737 = AXIS2_PLACEMENT_3D('',#738,#739,#740);
#738 = CARTESIAN_POINT('',(-21.,10.,0.));
#739 = DIRECTION('',(-1.,0.,0.));
#740 = DIRECTION('',(0.,0.,1.));
#741 = ADVANCED_FACE('',(#742),#762,.T.);
#742 = FACE_BOUND('',#743,.T.);
#743 = EDGE_LOOP('',(#744,#745,#746,#755));
#744 = ORIENTED_EDGE('',*,*,#560,.F.);
#745 = ORIENTED_EDGE('',*,*,#452,.F.);
#746 = ORIENTED_EDGE('',*,*,#747,.T.);
#747 = EDGE_CURVE('',#445,#748,#750,.T.);
#748 = VERTEX_POINT('',#749);
#749 = CARTESIAN_POINT('',(-20.56066017178,8.5,11.56066017178));
#750 = CIRCLE('',#751,1.5);
#751 = AXIS2_PLACEMENT_3D('',#752,#753,#754);
#752 = CARTESIAN_POINT('',(-19.5,8.5,10.5));
#753 = DIRECTION('',(-0.,1.,0.));
#754 = DIRECTION('',(0.,0.,-1.));
#755 = ORIENTED_EDGE('',*,*,#756,.T.);
#756 = EDGE_CURVE('',#748,#561,#757,.T.);
#757 = CIRCLE('',#758,1.5);
#758 = AXIS2_PLACEMENT_3D('',#759,#760,#761);
#759 = CARTESIAN_POINT('',(-19.5,8.5,10.5));
#760 = DIRECTION('',(-0.,1.,0.));
#761 = DIRECTION('',(0.707106781187,0.,-0.707106781187));
#762 = ( BOUNDED_SURFACE() B_SPLINE_SURFACE(3,3,(
    (#763,#764,#765,#766)
    ,(#767,#768,#769,#770)
    ,(#771,#772,#773,#774)
    ,(#775,#776,#777,#778
)),.UNSPECIFIED.,.F.,.F.,.F.) B_SPLINE_SURFACE_WITH_KNOTS((4,4),(4,4),(
    0.,1.),(0.,1.),.PIECEWISE_BEZIER_KNOTS.) 
GEOMETRIC_REPRESENTATION_ITEM() RATIONAL_B_SPLINE_SURFACE((
    (1.,0.333333333333,0.333333333333,1.)
    ,(0.802511186739,0.267503728913,0.267503728913,0.802511186739)
    ,(0.802511186739,0.267503728913,0.267503728913,0.802511186739)
,(1.,0.333333333333,0.333333333333,1.
))) REPRESENTATION_ITEM('') SURFACE() );
#763 = CARTESIAN_POINT('',(-20.55061672617,8.5,9.429390596585));
#764 = CARTESIAN_POINT('',(-20.55061672617,11.499866761327,
    9.429390596585));
#765 = CARTESIAN_POINT('',(-18.42939059658,11.499866761327,
    11.550616726176));
#766 = CARTESIAN_POINT('',(-18.42939059658,8.5,11.550616726176));
#767 = CARTESIAN_POINT('',(-21.18246187021,8.5,10.049436595212));
#768 = CARTESIAN_POINT('',(-21.18246187021,11.516553272792,
    10.049436595212));
#769 = CARTESIAN_POINT('',(-19.04943659521,11.516553272792,
    12.182461870214));
#770 = CARTESIAN_POINT('',(-19.04943659521,8.5,12.182461870214));
#771 = CARTESIAN_POINT('',(-21.18663354439,8.5,10.934686799161));
#772 = CARTESIAN_POINT('',(-21.18663354439,10.270520066485,
    10.934686799161));
#773 = CARTESIAN_POINT('',(-19.93468679916,10.270520066485,
    12.186633544399));
#774 = CARTESIAN_POINT('',(-19.93468679916,8.5,12.186633544399));
#775 = CARTESIAN_POINT('',(-20.56066017178,8.5,11.56066017178));
#776 = CARTESIAN_POINT('',(-20.56066017178,8.5,11.56066017178));
#777 = CARTESIAN_POINT('',(-20.56066017178,8.5,11.56066017178));
#778 = CARTESIAN_POINT('',(-20.56066017178,8.5,11.56066017178));
#779 = ADVANCED_FACE('',(#780,#790,#800),#842,.F.);
#780 = FACE_BOUND('',#781,.T.);
#781 = EDGE_LOOP('',(#782,#783));
#782 = ORIENTED_EDGE('',*,*,#280,.F.);
#783 = ORIENTED_EDGE('',*,*,#784,.F.);
#784 = EDGE_CURVE('',#273,#254,#785,.T.);
#785 = CIRCLE('',#786,1.75);
#786 = AXIS2_PLACEMENT_3D('',#787,#788,#789);
#787 = CARTESIAN_POINT('',(15.5,4.5,0.));
#788 = DIRECTION('',(0.,0.,-1.));
#789 = DIRECTION('',(1.,0.,0.));
#790 = FACE_BOUND('',#791,.T.);
#791 = EDGE_LOOP('',(#792,#793));
#792 = ORIENTED_EDGE('',*,*,#322,.F.);
#793 = ORIENTED_EDGE('',*,*,#794,.F.);
#794 = EDGE_CURVE('',#315,#296,#795,.T.);
#795 = CIRCLE('',#796,1.75);
#796 = AXIS2_PLACEMENT_3D('',#797,#798,#799);
#797 = CARTESIAN_POINT('',(-15.5,4.5,0.));
#798 = DIRECTION('',(0.,0.,-1.));
#799 = DIRECTION('',(1.,0.,0.));
#800 = FACE_BOUND('',#801,.T.);
#801 = EDGE_LOOP('',(#802,#810,#811,#819,#827,#836));
#802 = ORIENTED_EDGE('',*,*,#803,.F.);
#803 = EDGE_CURVE('',#485,#804,#806,.T.);
#804 = VERTEX_POINT('',#805);
#805 = CARTESIAN_POINT('',(-19.5,1.5,0.));
#806 = LINE('',#807,#808);
#807 = CARTESIAN_POINT('',(-19.5,0.,0.));
#808 = VECTOR('',#809,1.);
#809 = DIRECTION('',(0.,-1.,-0.));
#810 = ORIENTED_EDGE('',*,*,#484,.F.);
#811 = ORIENTED_EDGE('',*,*,#812,.F.);
#812 = EDGE_CURVE('',#813,#476,#815,.T.);
#813 = VERTEX_POINT('',#814);
#814 = CARTESIAN_POINT('',(19.5,1.5,0.));
#815 = LINE('',#816,#817);
#816 = CARTESIAN_POINT('',(19.5,0.,0.));
#817 = VECTOR('',#818,1.);
#818 = DIRECTION('',(-0.,1.,0.));
#819 = ORIENTED_EDGE('',*,*,#820,.F.);
#820 = EDGE_CURVE('',#821,#813,#823,.T.);
#821 = VERTEX_POINT('',#822);
#822 = CARTESIAN_POINT('',(7.499482552826,1.5,-0.));
#823 = LINE('',#824,#825);
#824 = CARTESIAN_POINT('',(0.,1.5,0.));
#825 = VECTOR('',#826,1.);
#826 = DIRECTION('',(1.,0.,-0.));
#827 = ORIENTED_EDGE('',*,*,#828,.F.);
#828 = EDGE_CURVE('',#829,#821,#831,.T.);
#829 = VERTEX_POINT('',#830);
#830 = CARTESIAN_POINT('',(-7.499482552826,1.5,-0.));
#831 = ( BOUNDED_CURVE() B_SPLINE_CURVE(3,(#832,#833,#834,#835),
.UNSPECIFIED.,.F.,.F.) B_SPLINE_CURVE_WITH_KNOTS((4,4),(0.,1.),
.PIECEWISE_BEZIER_KNOTS.) CURVE() GEOMETRIC_REPRESENTATION_ITEM() 
RATIONAL_B_SPLINE_CURVE((1.,0.821043680465,0.821043680465,1.)) 
REPRESENTATION_ITEM('') );
#832 = CARTESIAN_POINT('',(-7.499482552826,1.5,-9.E-17));
#833 = CARTESIAN_POINT('',(-3.044694913422,5.651570251252,-2.2E-16));
#834 = CARTESIAN_POINT('',(3.044694913422,5.651570251252,-2.2E-16));
#835 = CARTESIAN_POINT('',(7.499482552826,1.5,-9.E-17));
#836 = ORIENTED_EDGE('',*,*,#837,.F.);
#837 = EDGE_CURVE('',#804,#829,#838,.T.);
#838 = LINE('',#839,#840);
#839 = CARTESIAN_POINT('',(0.,1.5,0.));
#840 = VECTOR('',#841,1.);
#841 = DIRECTION('',(1.,0.,-0.));
#842 = PLANE('',#843);
#843 = AXIS2_PLACEMENT_3D('',#844,#845,#846);
#844 = CARTESIAN_POINT('',(0.,0.,0.));
#845 = DIRECTION('',(0.,0.,1.));
#846 = DIRECTION('',(1.,0.,-0.));
#847 = ADVANCED_FACE('',(#848),#860,.T.);
#848 = FACE_BOUND('',#849,.T.);
#849 = EDGE_LOOP('',(#850,#851,#852,#859));
#850 = ORIENTED_EDGE('',*,*,#508,.F.);
#851 = ORIENTED_EDGE('',*,*,#535,.F.);
#852 = ORIENTED_EDGE('',*,*,#853,.T.);
#853 = EDGE_CURVE('',#528,#476,#854,.T.);
#854 = CIRCLE('',#855,1.5);
#855 = AXIS2_PLACEMENT_3D('',#856,#857,#858);
#856 = CARTESIAN_POINT('',(19.5,8.5,1.5));
#857 = DIRECTION('',(0.,1.,-0.));
#858 = DIRECTION('',(-4.63E-15,-0.,-1.));
#859 = ORIENTED_EDGE('',*,*,#475,.F.);
#860 = ( BOUNDED_SURFACE() B_SPLINE_SURFACE(3,3,(
    (#861,#862,#863,#864)
    ,(#865,#866,#867,#868)
    ,(#869,#870,#871,#872)
    ,(#873,#874,#875,#876
)),.UNSPECIFIED.,.F.,.F.,.F.) B_SPLINE_SURFACE_WITH_KNOTS((4,4),(4,4),(
    0.,1.),(0.,1.),.PIECEWISE_BEZIER_KNOTS.) 
GEOMETRIC_REPRESENTATION_ITEM() RATIONAL_B_SPLINE_SURFACE((
    (1.,0.333333333333,0.333333333333,1.)
    ,(0.802511186739,0.267503728913,0.267503728913,0.802511186739)
    ,(0.802511186739,0.267503728913,0.267503728913,0.802511186739)
,(1.,0.333333333333,0.333333333333,1.
))) REPRESENTATION_ITEM('') SURFACE() );
#861 = CARTESIAN_POINT('',(18.429390596585,9.550616726176,1.5));
#862 = CARTESIAN_POINT('',(18.429390596585,9.550616726176,
    -1.499866761327));
#863 = CARTESIAN_POINT('',(20.550616726176,7.429390596585,
    -1.499866761327));
#864 = CARTESIAN_POINT('',(20.550616726176,7.429390596585,1.5));
#865 = CARTESIAN_POINT('',(19.049436595212,10.182461870214,1.5));
#866 = CARTESIAN_POINT('',(19.049436595212,10.182461870214,
    -1.516553272792));
#867 = CARTESIAN_POINT('',(21.182461870214,8.049436595212,
    -1.516553272792));
#868 = CARTESIAN_POINT('',(21.182461870214,8.049436595212,1.5));
#869 = CARTESIAN_POINT('',(19.934686799161,10.186633544399,1.5));
#870 = CARTESIAN_POINT('',(19.934686799161,10.186633544399,
    -0.270520066485));
#871 = CARTESIAN_POINT('',(21.186633544399,8.934686799161,
    -0.270520066485));
#872 = CARTESIAN_POINT('',(21.186633544399,8.934686799161,1.5));
#873 = CARTESIAN_POINT('',(20.56066017178,9.56066017178,1.5));
#874 = CARTESIAN_POINT('',(20.56066017178,9.56066017178,1.5));
#875 = CARTESIAN_POINT('',(20.56066017178,9.56066017178,1.5));
#876 = CARTESIAN_POINT('',(20.56066017178,9.56066017178,1.5));
#877 = ADVANCED_FACE('',(#878),#890,.T.);
#878 = FACE_BOUND('',#879,.T.);
#879 = EDGE_LOOP('',(#880,#881,#888,#889));
#880 = ORIENTED_EDGE('',*,*,#492,.F.);
#881 = ORIENTED_EDGE('',*,*,#882,.T.);
#882 = EDGE_CURVE('',#485,#434,#883,.T.);
#883 = CIRCLE('',#884,1.5);
#884 = AXIS2_PLACEMENT_3D('',#885,#886,#887);
#885 = CARTESIAN_POINT('',(-19.5,8.5,1.5));
#886 = DIRECTION('',(0.,1.,0.));
#887 = DIRECTION('',(0.,-0.,1.));
#888 = ORIENTED_EDGE('',*,*,#433,.T.);
#889 = ORIENTED_EDGE('',*,*,#460,.T.);
#890 = ( BOUNDED_SURFACE() B_SPLINE_SURFACE(3,3,(
    (#891,#892,#893,#894)
    ,(#895,#896,#897,#898)
    ,(#899,#900,#901,#902)
    ,(#903,#904,#905,#906
)),.UNSPECIFIED.,.F.,.F.,.F.) B_SPLINE_SURFACE_WITH_KNOTS((4,4),(4,4),(
    0.,1.),(0.,1.),.PIECEWISE_BEZIER_KNOTS.) 
GEOMETRIC_REPRESENTATION_ITEM() RATIONAL_B_SPLINE_SURFACE((
    (1.,0.333333333333,0.333333333333,1.)
    ,(0.802511186739,0.267503728913,0.267503728913,0.802511186739)
    ,(0.802511186739,0.267503728913,0.267503728913,0.802511186739)
,(1.,0.333333333333,0.333333333333,1.
))) REPRESENTATION_ITEM('') SURFACE() );
#891 = CARTESIAN_POINT('',(-20.55061672617,7.429390596585,1.5));
#892 = CARTESIAN_POINT('',(-20.55061672617,7.429390596585,
    -1.499866761327));
#893 = CARTESIAN_POINT('',(-18.42939059658,9.550616726176,
    -1.499866761327));
#894 = CARTESIAN_POINT('',(-18.42939059658,9.550616726176,1.5));
#895 = CARTESIAN_POINT('',(-21.18246187021,8.049436595212,1.5));
#896 = CARTESIAN_POINT('',(-21.18246187021,8.049436595212,
    -1.516553272792));
#897 = CARTESIAN_POINT('',(-19.04943659521,10.182461870214,
    -1.516553272792));
#898 = CARTESIAN_POINT('',(-19.04943659521,10.182461870214,1.5));
#899 = CARTESIAN_POINT('',(-21.18663354439,8.934686799161,1.5));
#900 = CARTESIAN_POINT('',(-21.18663354439,8.934686799161,
    -0.270520066485));
#901 = CARTESIAN_POINT('',(-19.93468679916,10.186633544399,
    -0.270520066485));
#902 = CARTESIAN_POINT('',(-19.93468679916,10.186633544399,1.5));
#903 = CARTESIAN_POINT('',(-20.56066017178,9.56066017178,1.5));
#904 = CARTESIAN_POINT('',(-20.56066017178,9.56066017178,1.5));
#905 = CARTESIAN_POINT('',(-20.56066017178,9.56066017178,1.5));
#906 = CARTESIAN_POINT('',(-20.56066017178,9.56066017178,1.5));
#907 = ADVANCED_FACE('',(#908),#933,.T.);
#908 = FACE_BOUND('',#909,.T.);
#909 = EDGE_LOOP('',(#910,#918,#919,#927));
#910 = ORIENTED_EDGE('',*,*,#911,.T.);
#911 = EDGE_CURVE('',#912,#528,#914,.T.);
#912 = VERTEX_POINT('',#913);
#913 = CARTESIAN_POINT('',(21.,1.5,1.5));
#914 = LINE('',#915,#916);
#915 = CARTESIAN_POINT('',(21.,0.,1.5));
#916 = VECTOR('',#917,1.);
#917 = DIRECTION('',(-0.,1.,0.));
#918 = ORIENTED_EDGE('',*,*,#527,.F.);
#919 = ORIENTED_EDGE('',*,*,#920,.T.);
#920 = EDGE_CURVE('',#519,#921,#923,.T.);
#921 = VERTEX_POINT('',#922);
#922 = CARTESIAN_POINT('',(21.,1.5,10.5));
#923 = LINE('',#924,#925);
#924 = CARTESIAN_POINT('',(21.,0.,10.5));
#925 = VECTOR('',#926,1.);
#926 = DIRECTION('',(0.,-1.,-0.));
#927 = ORIENTED_EDGE('',*,*,#928,.T.);
#928 = EDGE_CURVE('',#921,#912,#929,.T.);
#929 = LINE('',#930,#931);
#930 = CARTESIAN_POINT('',(21.,1.5,0.));
#931 = VECTOR('',#932,1.);
#932 = DIRECTION('',(0.,0.,-1.));
#933 = PLANE('',#934);
#934 = AXIS2_PLACEMENT_3D('',#935,#936,#937);
#935 = CARTESIAN_POINT('',(21.,0.,0.));
#936 = DIRECTION('',(1.,0.,0.));
#937 = DIRECTION('',(0.,0.,-1.));
#938 = ADVANCED_FACE('',(#939),#951,.T.);
#939 = FACE_BOUND('',#940,.T.);
#940 = EDGE_LOOP('',(#941,#942,#943,#950));
#941 = ORIENTED_EDGE('',*,*,#550,.F.);
#942 = ORIENTED_EDGE('',*,*,#577,.F.);
#943 = ORIENTED_EDGE('',*,*,#944,.T.);
#944 = EDGE_CURVE('',#570,#519,#945,.T.);
#945 = CIRCLE('',#946,1.5);
#946 = AXIS2_PLACEMENT_3D('',#947,#948,#949);
#947 = CARTESIAN_POINT('',(19.5,8.5,10.5));
#948 = DIRECTION('',(0.,1.,0.));
#949 = DIRECTION('',(0.,-0.,1.));
#950 = ORIENTED_EDGE('',*,*,#518,.F.);
#951 = ( BOUNDED_SURFACE() B_SPLINE_SURFACE(3,3,(
    (#952,#953,#954,#955)
    ,(#956,#957,#958,#959)
    ,(#960,#961,#962,#963)
    ,(#964,#965,#966,#967
)),.UNSPECIFIED.,.F.,.F.,.F.) B_SPLINE_SURFACE_WITH_KNOTS((4,4),(4,4),(
    0.,1.),(0.,1.),.PIECEWISE_BEZIER_KNOTS.) 
GEOMETRIC_REPRESENTATION_ITEM() RATIONAL_B_SPLINE_SURFACE((
    (1.,0.333333333333,0.333333333333,1.)
    ,(0.802511186739,0.267503728913,0.267503728913,0.802511186739)
    ,(0.802511186739,0.267503728913,0.267503728913,0.802511186739)
,(1.,0.333333333333,0.333333333333,1.
))) REPRESENTATION_ITEM('') SURFACE() );
#952 = CARTESIAN_POINT('',(19.5,9.550616726176,9.429390596585));
#953 = CARTESIAN_POINT('',(22.499866761327,9.550616726176,9.429390596585
    ));
#954 = CARTESIAN_POINT('',(22.499866761327,7.429390596585,
    11.550616726176));
#955 = CARTESIAN_POINT('',(19.5,7.429390596585,11.550616726176));
#956 = CARTESIAN_POINT('',(19.5,10.182461870214,10.049436595212));
#957 = CARTESIAN_POINT('',(22.516553272792,10.182461870214,
    10.049436595212));
#958 = CARTESIAN_POINT('',(22.516553272792,8.049436595212,
    12.182461870214));
#959 = CARTESIAN_POINT('',(19.5,8.049436595212,12.182461870214));
#960 = CARTESIAN_POINT('',(19.5,10.186633544399,10.934686799161));
#961 = CARTESIAN_POINT('',(21.270520066485,10.186633544399,
    10.934686799161));
#962 = CARTESIAN_POINT('',(21.270520066485,8.934686799161,
    12.186633544399));
#963 = CARTESIAN_POINT('',(19.5,8.934686799161,12.186633544399));
#964 = CARTESIAN_POINT('',(19.5,9.56066017178,11.56066017178));
#965 = CARTESIAN_POINT('',(19.5,9.56066017178,11.56066017178));
#966 = CARTESIAN_POINT('',(19.5,9.56066017178,11.56066017178));
#967 = CARTESIAN_POINT('',(19.5,9.56066017178,11.56066017178));
#968 = ADVANCED_FACE('',(#969,#979,#989),#1074,.T.);
#969 = FACE_BOUND('',#970,.T.);
#970 = EDGE_LOOP('',(#971,#972));
#971 = ORIENTED_EDGE('',*,*,#263,.T.);
#972 = ORIENTED_EDGE('',*,*,#973,.T.);
#973 = EDGE_CURVE('',#264,#256,#974,.T.);
#974 = CIRCLE('',#975,1.75);
#975 = AXIS2_PLACEMENT_3D('',#976,#977,#978);
#976 = CARTESIAN_POINT('',(15.5,4.5,12.));
#977 = DIRECTION('',(0.,0.,-1.));
#978 = DIRECTION('',(1.,0.,0.));
#979 = FACE_BOUND('',#980,.T.);
#980 = EDGE_LOOP('',(#981,#982));
#981 = ORIENTED_EDGE('',*,*,#305,.T.);
#982 = ORIENTED_EDGE('',*,*,#983,.T.);
#983 = EDGE_CURVE('',#306,#298,#984,.T.);
#984 = CIRCLE('',#985,1.75);
#985 = AXIS2_PLACEMENT_3D('',#986,#987,#988);
#986 = CARTESIAN_POINT('',(-15.5,4.5,12.));
#987 = DIRECTION('',(0.,0.,-1.));
#988 = DIRECTION('',(1.,0.,0.));
#989 = FACE_BOUND('',#990,.T.);
#990 = EDGE_LOOP('',(#991,#992,#1000,#1008,#1060,#1068));
#991 = ORIENTED_EDGE('',*,*,#569,.F.);
#992 = ORIENTED_EDGE('',*,*,#993,.T.);
#993 = EDGE_CURVE('',#561,#994,#996,.T.);
#994 = VERTEX_POINT('',#995);
#995 = CARTESIAN_POINT('',(-19.5,1.5,12.));
#996 = LINE('',#997,#998);
#997 = CARTESIAN_POINT('',(-19.5,0.,12.));
#998 = VECTOR('',#999,1.);
#999 = DIRECTION('',(0.,-1.,-0.));
#1000 = ORIENTED_EDGE('',*,*,#1001,.T.);
#1001 = EDGE_CURVE('',#994,#1002,#1004,.T.);
#1002 = VERTEX_POINT('',#1003);
#1003 = CARTESIAN_POINT('',(-7.499482552826,1.5,12.));
#1004 = LINE('',#1005,#1006);
#1005 = CARTESIAN_POINT('',(0.,1.5,12.));
#1006 = VECTOR('',#1007,1.);
#1007 = DIRECTION('',(1.,0.,-0.));
#1008 = ORIENTED_EDGE('',*,*,#1009,.T.);
#1009 = EDGE_CURVE('',#1002,#1010,#1012,.T.);
#1010 = VERTEX_POINT('',#1011);
#1011 = CARTESIAN_POINT('',(7.499482552826,1.5,12.));
#1012 = B_SPLINE_CURVE_WITH_KNOTS('',3,(#1013,#1014,#1015,#1016,#1017,
    #1018,#1019,#1020,#1021,#1022,#1023,#1024,#1025,#1026,#1027,#1028,
    #1029,#1030,#1031,#1032,#1033,#1034,#1035,#1036,#1037,#1038,#1039,
    #1040,#1041,#1042,#1043,#1044,#1045,#1046,#1047,#1048,#1049,#1050,
    #1051,#1052,#1053,#1054,#1055,#1056,#1057,#1058,#1059),
  .UNSPECIFIED.,.F.,.F.,(4,1,1,1,2,2,1,1,1,2,2,1,1,2,2,2,1,1,2,2,1,1,1,2
    ,2,1,1,1,1,2,2,4),(0.,6.25E-02,9.375E-02,0.109375,0.1171875,0.125,
    0.1875,0.21875,0.234375,0.2421875,0.25,0.3125,0.34375,0.359375,0.375
    ,0.5,0.5625,0.59375,0.609375,0.625,0.6875,0.71875,0.734375,0.7421875
    ,0.75,0.8125,0.84375,0.859375,0.8671875,0.87109375,0.875,1.),
  .UNSPECIFIED.);
#1013 = CARTESIAN_POINT('',(-7.499482552826,1.5,12.));
#1014 = CARTESIAN_POINT('',(-7.263009413768,1.720377474484,12.));
#1015 = CARTESIAN_POINT('',(-6.895155880858,2.034188868695,12.));
#1016 = CARTESIAN_POINT('',(-6.442991733234,2.37098123129,12.));
#1017 = CARTESIAN_POINT('',(-6.211159236282,2.532047179924,12.));
#1018 = CARTESIAN_POINT('',(-6.110570218343,2.599504679482,12.));
#1019 = CARTESIAN_POINT('',(-6.043237043378,2.644127287156,12.));
#1020 = CARTESIAN_POINT('',(-6.011270893942,2.665075143009,12.));
#1021 = CARTESIAN_POINT('',(-5.689270963583,2.873435616973,12.));
#1022 = CARTESIAN_POINT('',(-5.248848998558,3.130309086312,12.));
#1023 = CARTESIAN_POINT('',(-4.715618104739,3.393348932633,12.));
#1024 = CARTESIAN_POINT('',(-4.44415134084,3.515707388817,12.));
#1025 = CARTESIAN_POINT('',(-4.3267688741,3.566183555687,12.));
#1026 = CARTESIAN_POINT('',(-4.248282881179,3.599398073268,12.));
#1027 = CARTESIAN_POINT('',(-4.21038459716,3.615189005401,12.));
#1028 = CARTESIAN_POINT('',(-3.841976513257,3.766111759943,12.));
#1029 = CARTESIAN_POINT('',(-3.34328238593,3.942940471398,12.));
#1030 = CARTESIAN_POINT('',(-2.74837671033,4.106537785877,12.));
#1031 = CARTESIAN_POINT('',(-2.490610879276,4.167500310178,12.));
#1032 = CARTESIAN_POINT('',(-2.318143379508,4.20610852405,12.));
#1033 = CARTESIAN_POINT('',(-2.23319675264,4.224077966876,12.));
#1034 = CARTESIAN_POINT('',(-1.437090129144,4.38237507487,12.));
#1035 = CARTESIAN_POINT('',(-0.721503936216,4.452746018508,12.));
#1036 = CARTESIAN_POINT('',(0.360751968108,4.45279589924,12.));
#1037 = CARTESIAN_POINT('',(0.899408501831,4.426419277186,12.));
#1038 = CARTESIAN_POINT('',(1.523516142242,4.34944381722,12.));
#1039 = CARTESIAN_POINT('',(1.79006406336,4.30655374847,12.));
#1040 = CARTESIAN_POINT('',(1.967556725903,4.275760239102,12.));
#1041 = CARTESIAN_POINT('',(2.05796580009,4.258912493011,12.));
#1042 = CARTESIAN_POINT('',(2.491839105341,4.172682700114,12.));
#1043 = CARTESIAN_POINT('',(3.005251826551,4.044731282615,12.));
#1044 = CARTESIAN_POINT('',(3.59157165572,3.852622213329,12.));
#1045 = CARTESIAN_POINT('',(3.881566150577,3.745859574801,12.));
#1046 = CARTESIAN_POINT('',(4.005171201288,3.6978095646,12.));
#1047 = CARTESIAN_POINT('',(4.087423834156,3.665266314757,12.));
#1048 = CARTESIAN_POINT('',(4.130014658096,3.648109079886,12.));
#1049 = CARTESIAN_POINT('',(4.484936025765,3.502751164064,12.));
#1050 = CARTESIAN_POINT('',(4.947305615663,3.287879400153,12.));
#1051 = CARTESIAN_POINT('',(5.467733728307,3.000338558998,12.));
#1052 = CARTESIAN_POINT('',(5.723197015735,2.847353859273,12.));
#1053 = CARTESIAN_POINT('',(5.849740967226,2.768557939624,12.));
#1054 = CARTESIAN_POINT('',(5.903719583818,2.734294637677,12.));
#1055 = CARTESIAN_POINT('',(5.939648771439,2.711342742579,12.));
#1056 = CARTESIAN_POINT('',(5.958530674644,2.699200198174,12.));
#1057 = CARTESIAN_POINT('',(6.518291500145,2.337061782271,12.));
#1058 = CARTESIAN_POINT('',(7.026287976453,1.940986346677,12.));
#1059 = CARTESIAN_POINT('',(7.499482552826,1.5,12.));
#1060 = ORIENTED_EDGE('',*,*,#1061,.T.);
#1061 = EDGE_CURVE('',#1010,#1062,#1064,.T.);
#1062 = VERTEX_POINT('',#1063);
#1063 = CARTESIAN_POINT('',(19.5,1.5,12.));
#1064 = LINE('',#1065,#1066);
#1065 = CARTESIAN_POINT('',(0.,1.5,12.));
#1066 = VECTOR('',#1067,1.);
#1067 = DIRECTION('',(1.,0.,-0.));
#1068 = ORIENTED_EDGE('',*,*,#1069,.T.);
#1069 = EDGE_CURVE('',#1062,#570,#1070,.T.);
#1070 = LINE('',#1071,#1072);
#1071 = CARTESIAN_POINT('',(19.5,0.,12.));
#1072 = VECTOR('',#1073,1.);
#1073 = DIRECTION('',(-0.,1.,0.));
#1074 = PLANE('',#1075);
#1075 = AXIS2_PLACEMENT_3D('',#1076,#1077,#1078);
#1076 = CARTESIAN_POINT('',(0.,0.,12.));
#1077 = DIRECTION('',(0.,0.,1.));
#1078 = DIRECTION('',(1.,0.,-0.));
#1079 = ADVANCED_FACE('',(#1080),#1105,.T.);
#1080 = FACE_BOUND('',#1081,.T.);
#1081 = EDGE_LOOP('',(#1082,#1090,#1098,#1104));
#1082 = ORIENTED_EDGE('',*,*,#1083,.T.);
#1083 = EDGE_CURVE('',#606,#1084,#1086,.T.);
#1084 = VERTEX_POINT('',#1085);
#1085 = CARTESIAN_POINT('',(19.5,0.,1.5));
#1086 = LINE('',#1087,#1088);
#1087 = CARTESIAN_POINT('',(6.883596497701,0.,1.5));
#1088 = VECTOR('',#1089,1.);
#1089 = DIRECTION('',(1.,0.,0.));
#1090 = ORIENTED_EDGE('',*,*,#1091,.T.);
#1091 = EDGE_CURVE('',#1084,#1092,#1094,.T.);
#1092 = VERTEX_POINT('',#1093);
#1093 = CARTESIAN_POINT('',(19.5,-0.,10.5));
#1094 = LINE('',#1095,#1096);
#1095 = CARTESIAN_POINT('',(19.5,0.,0.));
#1096 = VECTOR('',#1097,1.);
#1097 = DIRECTION('',(-0.,0.,1.));
#1098 = ORIENTED_EDGE('',*,*,#1099,.T.);
#1099 = EDGE_CURVE('',#1092,#593,#1100,.T.);
#1100 = LINE('',#1101,#1102);
#1101 = CARTESIAN_POINT('',(6.883596497701,0.,10.5));
#1102 = VECTOR('',#1103,1.);
#1103 = DIRECTION('',(-1.,-0.,-0.));
#1104 = ORIENTED_EDGE('',*,*,#605,.T.);
#1105 = PLANE('',#1106);
#1106 = AXIS2_PLACEMENT_3D('',#1107,#1108,#1109);
#1107 = CARTESIAN_POINT('',(6.883596497701,0.,0.));
#1108 = DIRECTION('',(0.,-1.,0.));
#1109 = DIRECTION('',(0.,-0.,-1.));
#1110 = ADVANCED_FACE('',(#1111),#1162,.T.);
#1111 = FACE_BOUND('',#1112,.T.);
#1112 = EDGE_LOOP('',(#1113,#1114,#1115,#1116,#1123,#1124));
#1113 = ORIENTED_EDGE('',*,*,#167,.T.);
#1114 = ORIENTED_EDGE('',*,*,#592,.T.);
#1115 = ORIENTED_EDGE('',*,*,#1099,.F.);
#1116 = ORIENTED_EDGE('',*,*,#1117,.T.);
#1117 = EDGE_CURVE('',#1092,#1062,#1118,.T.);
#1118 = CIRCLE('',#1119,1.5);
#1119 = AXIS2_PLACEMENT_3D('',#1120,#1121,#1122);
#1120 = CARTESIAN_POINT('',(19.5,1.5,10.5));
#1121 = DIRECTION('',(-1.,-0.,-0.));
#1122 = DIRECTION('',(0.,0.,-1.));
#1123 = ORIENTED_EDGE('',*,*,#1061,.F.);
#1124 = ORIENTED_EDGE('',*,*,#1125,.T.);
#1125 = EDGE_CURVE('',#1010,#159,#1126,.T.);
#1126 = B_SPLINE_CURVE_WITH_KNOTS('',3,(#1127,#1128,#1129,#1130,#1131,
    #1132,#1133,#1134,#1135,#1136,#1137,#1138,#1139,#1140,#1141,#1142,
    #1143,#1144,#1145,#1146,#1147,#1148,#1149,#1150,#1151,#1152,#1153,
    #1154,#1155,#1156,#1157,#1158,#1159,#1160,#1161),.UNSPECIFIED.,.F.,
  .F.,(4,2,2,2,1,1,2,2,2,2,1,1,2,2,2,2,1,2,2,4),(0.,0.125,0.1875,0.21875
    ,0.234375,0.2421875,0.24609375,0.25,0.375,0.4375,0.46875,0.484375,
    0.4921875,0.5,0.625,0.6875,0.71875,0.734375,0.75,1.),.UNSPECIFIED.);
#1127 = CARTESIAN_POINT('',(7.499482552826,1.5,12.));
#1128 = CARTESIAN_POINT('',(7.441423655165,1.352575536247,12.));
#1129 = CARTESIAN_POINT('',(7.394033701934,1.232593761406,
    11.978968833071));
#1130 = CARTESIAN_POINT('',(7.338952188732,1.095539990995,
    11.945207883844));
#1131 = CARTESIAN_POINT('',(7.323258920438,1.056867484595,
    11.933447090978));
#1132 = CARTESIAN_POINT('',(7.303719872159,1.008892836123,
    11.917426541589));
#1133 = CARTESIAN_POINT('',(7.297873665093,0.994571747585,
    11.912347428322));
#1134 = CARTESIAN_POINT('',(7.290104568034,0.97553028871,11.905338843872
    ));
#1135 = CARTESIAN_POINT('',(7.286470072889,0.966619646023,
    11.901986266311));
#1136 = CARTESIAN_POINT('',(7.282667421978,0.957278180618,
    11.898379837493));
#1137 = CARTESIAN_POINT('',(7.281131484464,0.953499279124,11.89690326124
    ));
#1138 = CARTESIAN_POINT('',(7.280128363903,0.951029774712,
    11.895934615564));
#1139 = CARTESIAN_POINT('',(7.280420331238,0.951750395393,
    11.896221183797));
#1140 = CARTESIAN_POINT('',(7.238713900914,0.848937198438,
    11.855584603151));
#1141 = CARTESIAN_POINT('',(7.202079436284,0.759158240665,
    11.807752451998));
#1142 = CARTESIAN_POINT('',(7.152839941048,0.63961823038,11.729637734264
    ));
#1143 = CARTESIAN_POINT('',(7.137378809587,0.602271814061,
    11.702527832919));
#1144 = CARTESIAN_POINT('',(7.115615162823,0.549876844302,
    11.660932065282));
#1145 = CARTESIAN_POINT('',(7.105090352048,0.524584157115,
    11.639900236365));
#1146 = CARTESIAN_POINT('',(7.093436178206,0.496619185768,
    11.615088605364));
#1147 = CARTESIAN_POINT('',(7.088575412001,0.484959878549,11.60440983318
    ));
#1148 = CARTESIAN_POINT('',(7.085364652248,0.477258811904,
    11.597282092241));
#1149 = CARTESIAN_POINT('',(7.084159521119,0.47436846928,11.594587522643
    ));
#1150 = CARTESIAN_POINT('',(7.050822486319,0.394412273752,
    11.519017886074));
#1151 = CARTESIAN_POINT('',(7.023273551282,0.328653269721,
    11.442083407886));
#1152 = CARTESIAN_POINT('',(6.9876907953,0.244307383374,11.321966927581)
  );
#1153 = CARTESIAN_POINT('',(6.976786651068,0.218563111801,11.28113746832
    ));
#1154 = CARTESIAN_POINT('',(6.961865596364,0.183421868124,
    11.219156508264));
#1155 = CARTESIAN_POINT('',(6.954763859423,0.166719218619,
    11.187981247896));
#1156 = CARTESIAN_POINT('',(6.948200308098,0.151296424574,
    11.156607500456));
#1157 = CARTESIAN_POINT('',(6.943944204018,0.141296089742,
    11.135655903985));
#1158 = CARTESIAN_POINT('',(6.942095120062,0.136951779828,
    11.126308847939));
#1159 = CARTESIAN_POINT('',(6.90422549644,4.795376418105E-02,
    10.928190320475));
#1160 = CARTESIAN_POINT('',(6.885516049551,4.474998921705E-03,
    10.728270506402));
#1161 = CARTESIAN_POINT('',(6.88373915448,3.32568673259E-04,
    10.531584733617));
#1162 = CYLINDRICAL_SURFACE('',#1163,1.5);
#1163 = AXIS2_PLACEMENT_3D('',#1164,#1165,#1166);
#1164 = CARTESIAN_POINT('',(-75.7512,1.5,10.5));
#1165 = DIRECTION('',(1.,0.,0.));
#1166 = DIRECTION('',(0.,0.,-1.));
#1167 = ADVANCED_FACE('',(#1168),#1186,.F.);
#1168 = FACE_BOUND('',#1169,.F.);
#1169 = EDGE_LOOP('',(#1170,#1177,#1178,#1185));
#1170 = ORIENTED_EDGE('',*,*,#1171,.T.);
#1171 = EDGE_CURVE('',#652,#136,#1172,.T.);
#1172 = CIRCLE('',#1173,9.5);
#1173 = AXIS2_PLACEMENT_3D('',#1174,#1175,#1176);
#1174 = CARTESIAN_POINT('',(0.,-6.547220727671,10.5));
#1175 = DIRECTION('',(0.,0.,-1.));
#1176 = DIRECTION('',(1.,0.,0.));
#1177 = ORIENTED_EDGE('',*,*,#135,.F.);
#1178 = ORIENTED_EDGE('',*,*,#1179,.T.);
#1179 = EDGE_CURVE('',#127,#661,#1180,.T.);
#1180 = CIRCLE('',#1181,9.5);
#1181 = AXIS2_PLACEMENT_3D('',#1182,#1183,#1184);
#1182 = CARTESIAN_POINT('',(0.,-6.547220727671,1.5));
#1183 = DIRECTION('',(0.,0.,1.));
#1184 = DIRECTION('',(1.,0.,-0.));
#1185 = ORIENTED_EDGE('',*,*,#660,.F.);
#1186 = CYLINDRICAL_SURFACE('',#1187,9.5);
#1187 = AXIS2_PLACEMENT_3D('',#1188,#1189,#1190);
#1188 = CARTESIAN_POINT('',(0.,-6.547220727671,0.));
#1189 = DIRECTION('',(0.,0.,1.));
#1190 = DIRECTION('',(1.,0.,-0.));
#1191 = ADVANCED_FACE('',(#1192),#1253,.T.);
#1192 = FACE_BOUND('',#1193,.T.);
#1193 = EDGE_LOOP('',(#1194,#1203,#1204,#1205,#1206,#1245,#1246));
#1194 = ORIENTED_EDGE('',*,*,#1195,.F.);
#1195 = EDGE_CURVE('',#1084,#1196,#1198,.T.);
#1196 = VERTEX_POINT('',#1197);
#1197 = CARTESIAN_POINT('',(19.5,0.43933982822,0.43933982822));
#1198 = CIRCLE('',#1199,1.5);
#1199 = AXIS2_PLACEMENT_3D('',#1200,#1201,#1202);
#1200 = CARTESIAN_POINT('',(19.5,1.5,1.5));
#1201 = DIRECTION('',(1.,0.,-0.));
#1202 = DIRECTION('',(0.,8.7E-16,1.));
#1203 = ORIENTED_EDGE('',*,*,#1083,.F.);
#1204 = ORIENTED_EDGE('',*,*,#614,.T.);
#1205 = ORIENTED_EDGE('',*,*,#113,.T.);
#1206 = ORIENTED_EDGE('',*,*,#1207,.T.);
#1207 = EDGE_CURVE('',#114,#821,#1208,.T.);
#1208 = B_SPLINE_CURVE_WITH_KNOTS('',3,(#1209,#1210,#1211,#1212,#1213,
    #1214,#1215,#1216,#1217,#1218,#1219,#1220,#1221,#1222,#1223,#1224,
    #1225,#1226,#1227,#1228,#1229,#1230,#1231,#1232,#1233,#1234,#1235,
    #1236,#1237,#1238,#1239,#1240,#1241,#1242,#1243,#1244),
  .UNSPECIFIED.,.F.,.F.,(4,2,2,1,2,2,2,2,1,1,2,2,2,2,1,1,1,2,2,2,4),(0.,
    0.125,0.1875,0.21875,0.234375,0.25,0.375,0.4375,0.46875,0.484375,
    0.4921875,0.5,0.625,0.6875,0.71875,0.734375,0.7421875,0.74609375,
    0.75,0.875,1.),.UNSPECIFIED.);
#1209 = CARTESIAN_POINT('',(6.883739154485,3.325686640647E-04,
    1.468415266395));
#1210 = CARTESIAN_POINT('',(6.884627463238,2.403460268541E-03,
    1.370087741218));
#1211 = CARTESIAN_POINT('',(6.88974897934,1.419815634979E-02,
    1.270980023665));
#1212 = CARTESIAN_POINT('',(6.903781064507,4.698117312424E-02,
    1.124166784619));
#1213 = CARTESIAN_POINT('',(6.909516728064,6.041781099287E-02,
    1.075540077267));
#1214 = CARTESIAN_POINT('',(6.919707676154,8.433960898675E-02,
    1.003465576677));
#1215 = CARTESIAN_POINT('',(6.925200013387,9.724156354501E-02,
    0.967644899896));
#1216 = CARTESIAN_POINT('',(6.931287645402,0.111549654762,0.932225274405
    ));
#1217 = CARTESIAN_POINT('',(6.935478354476,0.121399818692,0.908709850991
    ));
#1218 = CARTESIAN_POINT('',(6.937860008074,0.126998102091,0.895849039086
    ));
#1219 = CARTESIAN_POINT('',(6.955927391696,0.169464605192,0.801314335139
    ));
#1220 = CARTESIAN_POINT('',(6.975818258633,0.216167620282,0.718112072777
    ));
#1221 = CARTESIAN_POINT('',(7.011401014615,0.300509747877,0.59799295316)
  );
#1222 = CARTESIAN_POINT('',(7.024219675871,0.330997486264,0.558740800869
    ));
#1223 = CARTESIAN_POINT('',(7.044884281651,0.38031643964,0.501529838239)
  );
#1224 = CARTESIAN_POINT('',(7.055575738014,0.405871821446,0.473341705774
    ));
#1225 = CARTESIAN_POINT('',(7.068677622349,0.437249634177,0.441297364044
    ));
#1226 = CARTESIAN_POINT('',(7.074427398189,0.451031023382,0.427756695646
    ));
#1227 = CARTESIAN_POINT('',(7.078290511538,0.460292627267,0.41877375322)
  );
#1228 = CARTESIAN_POINT('',(7.080623533661,0.465887478843,0.413428183467
    ));
#1229 = CARTESIAN_POINT('',(7.107398285629,0.53010812071,0.352730816189)
  );
#1230 = CARTESIAN_POINT('',(7.136411333987,0.599736208845,0.296426946788
    ));
#1231 = CARTESIAN_POINT('',(7.185650829223,0.719273924712,0.218308717988
    ));
#1232 = CARTESIAN_POINT('',(7.203017314751,0.76162427792,0.193339197051)
  );
#1233 = CARTESIAN_POINT('',(7.230497023719,0.828935767403,0.158242538326
    ));
#1234 = CARTESIAN_POINT('',(7.244594373372,0.863536328487,0.141284745841
    ));
#1235 = CARTESIAN_POINT('',(7.261666897845,0.905543912521,0.122709815798
    ));
#1236 = CARTESIAN_POINT('',(7.270359564218,0.926954495748,0.113747340964
    ));
#1237 = CARTESIAN_POINT('',(7.274118507836,0.936217233042,0.109978366264
    ));
#1238 = CARTESIAN_POINT('',(7.276631918064,0.942411625416,0.107482009056
    ));
#1239 = CARTESIAN_POINT('',(7.278675999435,0.947450308149,0.105478411656
    ));
#1240 = CARTESIAN_POINT('',(7.29453251859,0.986539990208,
    9.002834236094E-02));
#1241 = CARTESIAN_POINT('',(7.320581032278,1.049829543934,
    6.605388311857E-02));
#1242 = CARTESIAN_POINT('',(7.394023049882,1.232567092751,
    2.103598902672E-02));
#1243 = CARTESIAN_POINT('',(7.441416553797,1.352557504293,3.E-17));
#1244 = CARTESIAN_POINT('',(7.499482552826,1.5,-9.E-17));
#1245 = ORIENTED_EDGE('',*,*,#820,.T.);
#1246 = ORIENTED_EDGE('',*,*,#1247,.F.);
#1247 = EDGE_CURVE('',#1196,#813,#1248,.T.);
#1248 = CIRCLE('',#1249,1.5);
#1249 = AXIS2_PLACEMENT_3D('',#1250,#1251,#1252);
#1250 = CARTESIAN_POINT('',(19.5,1.5,1.5));
#1251 = DIRECTION('',(1.,0.,-0.));
#1252 = DIRECTION('',(0.,0.707106781187,0.707106781187));
#1253 = CYLINDRICAL_SURFACE('',#1254,1.5);
#1254 = AXIS2_PLACEMENT_3D('',#1255,#1256,#1257);
#1255 = CARTESIAN_POINT('',(75.7512,1.5,1.5));
#1256 = DIRECTION('',(-1.,0.,0.));
#1257 = DIRECTION('',(0.,0.,1.));
#1258 = ADVANCED_FACE('',(#1259),#1327,.T.);
#1259 = FACE_BOUND('',#1260,.T.);
#1260 = EDGE_LOOP('',(#1261,#1300,#1301,#1310,#1319,#1325,#1326));
#1261 = ORIENTED_EDGE('',*,*,#1262,.T.);
#1262 = EDGE_CURVE('',#639,#1002,#1263,.T.);
#1263 = B_SPLINE_CURVE_WITH_KNOTS('',3,(#1264,#1265,#1266,#1267,#1268,
    #1269,#1270,#1271,#1272,#1273,#1274,#1275,#1276,#1277,#1278,#1279,
    #1280,#1281,#1282,#1283,#1284,#1285,#1286,#1287,#1288,#1289,#1290,
    #1291,#1292,#1293,#1294,#1295,#1296,#1297,#1298,#1299),
  .UNSPECIFIED.,.F.,.F.,(4,2,2,1,2,2,2,2,1,1,2,2,2,2,1,1,1,2,2,2,4),(0.,
    0.125,0.1875,0.21875,0.234375,0.25,0.375,0.4375,0.46875,0.484375,
    0.4921875,0.5,0.625,0.6875,0.71875,0.734375,0.7421875,0.74609375,
    0.75,0.875,1.),.UNSPECIFIED.);
#1264 = CARTESIAN_POINT('',(-6.883739244888,3.325699521859E-04,
    10.531584794212));
#1265 = CARTESIAN_POINT('',(-6.884627463239,2.403460270706E-03,
    10.629912258874));
#1266 = CARTESIAN_POINT('',(-6.889748979341,1.419815637075E-02,
    10.729019976471));
#1267 = CARTESIAN_POINT('',(-6.903781064508,4.698117315875E-02,
    10.875833215514));
#1268 = CARTESIAN_POINT('',(-6.909516728065,6.041781102944E-02,
    10.924459922854));
#1269 = CARTESIAN_POINT('',(-6.919707676155,8.433960901787E-02,
    10.996534423411));
#1270 = CARTESIAN_POINT('',(-6.925200013388,9.724156357126E-02,
    11.032355100172));
#1271 = CARTESIAN_POINT('',(-6.931287645403,0.111549654779,
    11.067774725637));
#1272 = CARTESIAN_POINT('',(-6.935478354476,0.121399818702,
    11.091290149032));
#1273 = CARTESIAN_POINT('',(-6.937860008068,0.126998102081,
    11.104150960893));
#1274 = CARTESIAN_POINT('',(-6.955927391748,0.169464605284,
    11.198685665066));
#1275 = CARTESIAN_POINT('',(-6.975818258712,0.216167620456,
    11.281887927509));
#1276 = CARTESIAN_POINT('',(-7.011401014694,0.300509748078,
    11.402007047107));
#1277 = CARTESIAN_POINT('',(-7.024219675944,0.330997486457,
    11.441259199368));
#1278 = CARTESIAN_POINT('',(-7.044884281704,0.380316439789,
    11.498470161927));
#1279 = CARTESIAN_POINT('',(-7.055575738054,0.405871821565,
    11.52665829435));
#1280 = CARTESIAN_POINT('',(-7.068677622372,0.437249634244,
    11.558702636022));
#1281 = CARTESIAN_POINT('',(-7.074427398202,0.451031023422,
    11.572243304393));
#1282 = CARTESIAN_POINT('',(-7.078290511545,0.460292627289,
    11.581226246801));
#1283 = CARTESIAN_POINT('',(-7.080623533658,0.465887478838,
    11.586571816528));
#1284 = CARTESIAN_POINT('',(-7.10739828569,0.53010812083,11.647269183924
    ));
#1285 = CARTESIAN_POINT('',(-7.136411334078,0.599736209041,
    11.703573053359));
#1286 = CARTESIAN_POINT('',(-7.185650829314,0.719273924921,
    11.781691282139));
#1287 = CARTESIAN_POINT('',(-7.203017314836,0.761624278115,
    11.806660803058));
#1288 = CARTESIAN_POINT('',(-7.230497023781,0.828935767549,
    11.841757461747));
#1289 = CARTESIAN_POINT('',(-7.244594373419,0.8635363286,11.858715254211
    ));
#1290 = CARTESIAN_POINT('',(-7.261666897871,0.905543912584,
    11.877290184229));
#1291 = CARTESIAN_POINT('',(-7.270359564232,0.926954495781,
    11.886252659049));
#1292 = CARTESIAN_POINT('',(-7.274118507844,0.936217233062,
    11.890021633744));
#1293 = CARTESIAN_POINT('',(-7.276631918068,0.942411625427,
    11.892517990948));
#1294 = CARTESIAN_POINT('',(-7.278675999436,0.947450308151,
    11.894521588344));
#1295 = CARTESIAN_POINT('',(-7.294532518589,0.986539990204,
    11.909971657637));
#1296 = CARTESIAN_POINT('',(-7.320581032276,1.049829543927,
    11.933946116879));
#1297 = CARTESIAN_POINT('',(-7.394023049879,1.232567092743,
    11.978964010972));
#1298 = CARTESIAN_POINT('',(-7.441416553795,1.352557504288,12.));
#1299 = CARTESIAN_POINT('',(-7.499482552826,1.5,12.));
#1300 = ORIENTED_EDGE('',*,*,#1001,.F.);
#1301 = ORIENTED_EDGE('',*,*,#1302,.F.);
#1302 = EDGE_CURVE('',#1303,#994,#1305,.T.);
#1303 = VERTEX_POINT('',#1304);
#1304 = CARTESIAN_POINT('',(-19.5,0.43933982822,11.56066017178));
#1305 = CIRCLE('',#1306,1.5);
#1306 = AXIS2_PLACEMENT_3D('',#1307,#1308,#1309);
#1307 = CARTESIAN_POINT('',(-19.5,1.5,10.5));
#1308 = DIRECTION('',(-1.,0.,-0.));
#1309 = DIRECTION('',(0.,0.707106781187,-0.707106781187));
#1310 = ORIENTED_EDGE('',*,*,#1311,.F.);
#1311 = EDGE_CURVE('',#1312,#1303,#1314,.T.);
#1312 = VERTEX_POINT('',#1313);
#1313 = CARTESIAN_POINT('',(-19.5,0.,10.5));
#1314 = CIRCLE('',#1315,1.5);
#1315 = AXIS2_PLACEMENT_3D('',#1316,#1317,#1318);
#1316 = CARTESIAN_POINT('',(-19.5,1.5,10.5));
#1317 = DIRECTION('',(-1.,0.,0.));
#1318 = DIRECTION('',(0.,0.,1.));
#1319 = ORIENTED_EDGE('',*,*,#1320,.T.);
#1320 = EDGE_CURVE('',#1312,#217,#1321,.T.);
#1321 = LINE('',#1322,#1323);
#1322 = CARTESIAN_POINT('',(75.7512,0.,10.5));
#1323 = VECTOR('',#1324,1.);
#1324 = DIRECTION('',(1.,-0.,-0.));
#1325 = ORIENTED_EDGE('',*,*,#225,.T.);
#1326 = ORIENTED_EDGE('',*,*,#638,.T.);
#1327 = CYLINDRICAL_SURFACE('',#1328,1.5);
#1328 = AXIS2_PLACEMENT_3D('',#1329,#1330,#1331);
#1329 = CARTESIAN_POINT('',(75.7512,1.5,10.5));
#1330 = DIRECTION('',(-1.,0.,0.));
#1331 = DIRECTION('',(0.,0.,1.));
#1332 = ADVANCED_FACE('',(#1333),#1351,.T.);
#1333 = FACE_BOUND('',#1334,.T.);
#1334 = EDGE_LOOP('',(#1335,#1336,#1337,#1345));
#1335 = ORIENTED_EDGE('',*,*,#216,.T.);
#1336 = ORIENTED_EDGE('',*,*,#1320,.F.);
#1337 = ORIENTED_EDGE('',*,*,#1338,.T.);
#1338 = EDGE_CURVE('',#1312,#1339,#1341,.T.);
#1339 = VERTEX_POINT('',#1340);
#1340 = CARTESIAN_POINT('',(-19.5,0.,1.5));
#1341 = LINE('',#1342,#1343);
#1342 = CARTESIAN_POINT('',(-19.5,0.,0.));
#1343 = VECTOR('',#1344,1.);
#1344 = DIRECTION('',(0.,-0.,-1.));
#1345 = ORIENTED_EDGE('',*,*,#1346,.T.);
#1346 = EDGE_CURVE('',#1339,#204,#1347,.T.);
#1347 = LINE('',#1348,#1349);
#1348 = CARTESIAN_POINT('',(-21.,0.,1.5));
#1349 = VECTOR('',#1350,1.);
#1350 = DIRECTION('',(1.,0.,0.));
#1351 = PLANE('',#1352);
#1352 = AXIS2_PLACEMENT_3D('',#1353,#1354,#1355);
#1353 = CARTESIAN_POINT('',(-21.,0.,0.));
#1354 = DIRECTION('',(0.,-1.,0.));
#1355 = DIRECTION('',(0.,-0.,-1.));
#1356 = ADVANCED_FACE('',(#1357),#1408,.T.);
#1357 = FACE_BOUND('',#1358,.T.);
#1358 = EDGE_LOOP('',(#1359,#1366,#1367,#1405,#1406,#1407));
#1359 = ORIENTED_EDGE('',*,*,#1360,.T.);
#1360 = EDGE_CURVE('',#1339,#804,#1361,.T.);
#1361 = CIRCLE('',#1362,1.5);
#1362 = AXIS2_PLACEMENT_3D('',#1363,#1364,#1365);
#1363 = CARTESIAN_POINT('',(-19.5,1.5,1.5));
#1364 = DIRECTION('',(1.,0.,0.));
#1365 = DIRECTION('',(0.,0.,-1.));
#1366 = ORIENTED_EDGE('',*,*,#837,.T.);
#1367 = ORIENTED_EDGE('',*,*,#1368,.T.);
#1368 = EDGE_CURVE('',#829,#684,#1369,.T.);
#1369 = B_SPLINE_CURVE_WITH_KNOTS('',3,(#1370,#1371,#1372,#1373,#1374,
    #1375,#1376,#1377,#1378,#1379,#1380,#1381,#1382,#1383,#1384,#1385,
    #1386,#1387,#1388,#1389,#1390,#1391,#1392,#1393,#1394,#1395,#1396,
    #1397,#1398,#1399,#1400,#1401,#1402,#1403,#1404),.UNSPECIFIED.,.F.,
  .F.,(4,2,2,2,1,1,2,2,2,2,1,1,2,2,2,2,1,2,2,4),(0.,0.125,0.1875,0.21875
    ,0.234375,0.2421875,0.24609375,0.25,0.375,0.4375,0.46875,0.484375,
    0.4921875,0.5,0.625,0.6875,0.71875,0.734375,0.75,1.),.UNSPECIFIED.);
#1370 = CARTESIAN_POINT('',(-7.499482552826,1.5,-9.E-17));
#1371 = CARTESIAN_POINT('',(-7.441423655187,1.352575536306,3.E-17));
#1372 = CARTESIAN_POINT('',(-7.394033701967,1.232593761492,
    2.103116691357E-02));
#1373 = CARTESIAN_POINT('',(-7.338952188765,1.095539991079,
    5.479211613261E-02));
#1374 = CARTESIAN_POINT('',(-7.323258920468,1.056867484671,
    6.655290899773E-02));
#1375 = CARTESIAN_POINT('',(-7.303719872181,1.008892836178,
    8.257345839238E-02));
#1376 = CARTESIAN_POINT('',(-7.297873665111,0.994571747631,
    8.765257166129E-02));
#1377 = CARTESIAN_POINT('',(-7.290104568046,0.97553028874,
    9.46611561164E-02));
#1378 = CARTESIAN_POINT('',(-7.286470072898,0.966619646044,
    9.801373368086E-02));
#1379 = CARTESIAN_POINT('',(-7.282667421982,0.957278180629,
    0.101620162503));
#1380 = CARTESIAN_POINT('',(-7.281131484466,0.95349927913,0.103096738757
    ));
#1381 = CARTESIAN_POINT('',(-7.280128363904,0.951029774715,
    0.104065384435));
#1382 = CARTESIAN_POINT('',(-7.280420331235,0.951750395387,
    0.103778816205));
#1383 = CARTESIAN_POINT('',(-7.238713900977,0.848937198594,
    0.144415396788));
#1384 = CARTESIAN_POINT('',(-7.202079436379,0.759158240884,
    0.192247547877));
#1385 = CARTESIAN_POINT('',(-7.152839941143,0.639618230586,
    0.270362265592));
#1386 = CARTESIAN_POINT('',(-7.137378809674,0.602271814245,
    0.297472166942));
#1387 = CARTESIAN_POINT('',(-7.115615162886,0.54987684443,0.339067934612
    ));
#1388 = CARTESIAN_POINT('',(-7.105090352096,0.524584157211,
    0.360099763552));
#1389 = CARTESIAN_POINT('',(-7.093436178231,0.496619185817,
    0.384911394591));
#1390 = CARTESIAN_POINT('',(-7.088575412016,0.484959878577,
    0.395590166794));
#1391 = CARTESIAN_POINT('',(-7.085364652256,0.477258811918,
    0.402717907747));
#1392 = CARTESIAN_POINT('',(-7.084159521117,0.474368469273,
    0.405412477364));
#1393 = CARTESIAN_POINT('',(-7.05082248634,0.394412273838,0.480982113844
    ));
#1394 = CARTESIAN_POINT('',(-7.023273551313,0.328653269834,
    0.557916591973));
#1395 = CARTESIAN_POINT('',(-6.987690795331,0.244307383472,
    0.678033072269));
#1396 = CARTESIAN_POINT('',(-6.976786651097,0.218563111885,
    0.718862531539));
#1397 = CARTESIAN_POINT('',(-6.961865596385,0.18342186818,0.780843491632
    ));
#1398 = CARTESIAN_POINT('',(-6.954763859438,0.16671921866,0.812018752024
    ));
#1399 = CARTESIAN_POINT('',(-6.948200308107,0.151296424596,
    0.843392499497));
#1400 = CARTESIAN_POINT('',(-6.943944204022,0.141296089752,
    0.864344095991));
#1401 = CARTESIAN_POINT('',(-6.942095120062,0.136951779826,
    0.873691152065));
#1402 = CARTESIAN_POINT('',(-6.904225496439,4.79537641802E-02,
    1.071809679529));
#1403 = CARTESIAN_POINT('',(-6.885516049551,4.474998920973E-03,
    1.271729493601));
#1404 = CARTESIAN_POINT('',(-6.883739154485,3.325686641104E-04,
    1.468415266395));
#1405 = ORIENTED_EDGE('',*,*,#692,.T.);
#1406 = ORIENTED_EDGE('',*,*,#203,.T.);
#1407 = ORIENTED_EDGE('',*,*,#1346,.F.);
#1408 = CYLINDRICAL_SURFACE('',#1409,1.5);
#1409 = AXIS2_PLACEMENT_3D('',#1410,#1411,#1412);
#1410 = CARTESIAN_POINT('',(-75.7512,1.5,1.5));
#1411 = DIRECTION('',(1.,0.,0.));
#1412 = DIRECTION('',(0.,0.,-1.));
#1413 = ADVANCED_FACE('',(#1414),#1427,.T.);
#1414 = FACE_BOUND('',#1415,.T.);
#1415 = EDGE_LOOP('',(#1416,#1423,#1424,#1425,#1426));
#1416 = ORIENTED_EDGE('',*,*,#1417,.T.);
#1417 = EDGE_CURVE('',#717,#994,#1418,.T.);
#1418 = CIRCLE('',#1419,1.5);
#1419 = AXIS2_PLACEMENT_3D('',#1420,#1421,#1422);
#1420 = CARTESIAN_POINT('',(-19.5,1.5,10.5));
#1421 = DIRECTION('',(-0.,1.,0.));
#1422 = DIRECTION('',(0.,0.,-1.));
#1423 = ORIENTED_EDGE('',*,*,#993,.F.);
#1424 = ORIENTED_EDGE('',*,*,#756,.F.);
#1425 = ORIENTED_EDGE('',*,*,#747,.F.);
#1426 = ORIENTED_EDGE('',*,*,#724,.F.);
#1427 = CYLINDRICAL_SURFACE('',#1428,1.5);
#1428 = AXIS2_PLACEMENT_3D('',#1429,#1430,#1431);
#1429 = CARTESIAN_POINT('',(-19.5,23.03600000061,10.5));
#1430 = DIRECTION('',(0.,-1.,0.));
#1431 = DIRECTION('',(0.,0.,-1.));
#1432 = ADVANCED_FACE('',(#1433),#1460,.T.);
#1433 = FACE_BOUND('',#1434,.T.);
#1434 = EDGE_LOOP('',(#1435,#1444,#1445,#1452,#1453));
#1435 = ORIENTED_EDGE('',*,*,#1436,.T.);
#1436 = EDGE_CURVE('',#1437,#1339,#1439,.T.);
#1437 = VERTEX_POINT('',#1438);
#1438 = CARTESIAN_POINT('',(-20.56066017178,0.43933982822,1.5));
#1439 = CIRCLE('',#1440,1.5);
#1440 = AXIS2_PLACEMENT_3D('',#1441,#1442,#1443);
#1441 = CARTESIAN_POINT('',(-19.5,1.5,1.5));
#1442 = DIRECTION('',(0.,-0.,1.));
#1443 = DIRECTION('',(-1.,8.7E-16,0.));
#1444 = ORIENTED_EDGE('',*,*,#1338,.F.);
#1445 = ORIENTED_EDGE('',*,*,#1446,.T.);
#1446 = EDGE_CURVE('',#1312,#717,#1447,.T.);
#1447 = CIRCLE('',#1448,1.5);
#1448 = AXIS2_PLACEMENT_3D('',#1449,#1450,#1451);
#1449 = CARTESIAN_POINT('',(-19.5,1.5,10.5));
#1450 = DIRECTION('',(0.,0.,-1.));
#1451 = DIRECTION('',(-1.,0.,0.));
#1452 = ORIENTED_EDGE('',*,*,#714,.F.);
#1453 = ORIENTED_EDGE('',*,*,#1454,.T.);
#1454 = EDGE_CURVE('',#715,#1437,#1455,.T.);
#1455 = CIRCLE('',#1456,1.5);
#1456 = AXIS2_PLACEMENT_3D('',#1457,#1458,#1459);
#1457 = CARTESIAN_POINT('',(-19.5,1.5,1.5));
#1458 = DIRECTION('',(0.,-0.,1.));
#1459 = DIRECTION('',(-1.,0.,0.));
#1460 = CYLINDRICAL_SURFACE('',#1461,1.5);
#1461 = AXIS2_PLACEMENT_3D('',#1462,#1463,#1464);
#1462 = CARTESIAN_POINT('',(-19.5,1.5,27.6432));
#1463 = DIRECTION('',(0.,0.,-1.));
#1464 = DIRECTION('',(-1.,0.,0.));
#1465 = ADVANCED_FACE('',(#1466),#1478,.T.);
#1466 = FACE_BOUND('',#1467,.T.);
#1467 = EDGE_LOOP('',(#1468,#1475,#1476,#1477));
#1468 = ORIENTED_EDGE('',*,*,#1469,.T.);
#1469 = EDGE_CURVE('',#804,#715,#1470,.T.);
#1470 = CIRCLE('',#1471,1.5);
#1471 = AXIS2_PLACEMENT_3D('',#1472,#1473,#1474);
#1472 = CARTESIAN_POINT('',(-19.5,1.5,1.5));
#1473 = DIRECTION('',(0.,1.,0.));
#1474 = DIRECTION('',(0.,-0.,1.));
#1475 = ORIENTED_EDGE('',*,*,#731,.F.);
#1476 = ORIENTED_EDGE('',*,*,#882,.F.);
#1477 = ORIENTED_EDGE('',*,*,#803,.T.);
#1478 = CYLINDRICAL_SURFACE('',#1479,1.5);
#1479 = AXIS2_PLACEMENT_3D('',#1480,#1481,#1482);
#1480 = CARTESIAN_POINT('',(-19.5,-13.03600000108,1.5));
#1481 = DIRECTION('',(0.,1.,0.));
#1482 = DIRECTION('',(0.,-0.,1.));
#1483 = ADVANCED_FACE('',(#1484),#1490,.F.);
#1484 = FACE_BOUND('',#1485,.F.);
#1485 = EDGE_LOOP('',(#1486,#1487,#1488,#1489));
#1486 = ORIENTED_EDGE('',*,*,#973,.T.);
#1487 = ORIENTED_EDGE('',*,*,#253,.F.);
#1488 = ORIENTED_EDGE('',*,*,#784,.F.);
#1489 = ORIENTED_EDGE('',*,*,#272,.T.);
#1490 = CYLINDRICAL_SURFACE('',#1491,1.75);
#1491 = AXIS2_PLACEMENT_3D('',#1492,#1493,#1494);
#1492 = CARTESIAN_POINT('',(15.5,4.5,0.));
#1493 = DIRECTION('',(0.,0.,1.));
#1494 = DIRECTION('',(1.,0.,-0.));
#1495 = ADVANCED_FACE('',(#1496),#1502,.F.);
#1496 = FACE_BOUND('',#1497,.F.);
#1497 = EDGE_LOOP('',(#1498,#1499,#1500,#1501));
#1498 = ORIENTED_EDGE('',*,*,#983,.T.);
#1499 = ORIENTED_EDGE('',*,*,#295,.F.);
#1500 = ORIENTED_EDGE('',*,*,#794,.F.);
#1501 = ORIENTED_EDGE('',*,*,#314,.T.);
#1502 = CYLINDRICAL_SURFACE('',#1503,1.75);
#1503 = AXIS2_PLACEMENT_3D('',#1504,#1505,#1506);
#1504 = CARTESIAN_POINT('',(-15.5,4.5,0.));
#1505 = DIRECTION('',(0.,0.,1.));
#1506 = DIRECTION('',(1.,0.,-0.));
#1507 = ADVANCED_FACE('',(#1508),#1520,.T.);
#1508 = FACE_BOUND('',#1509,.T.);
#1509 = EDGE_LOOP('',(#1510,#1511,#1512,#1519));
#1510 = ORIENTED_EDGE('',*,*,#853,.F.);
#1511 = ORIENTED_EDGE('',*,*,#911,.F.);
#1512 = ORIENTED_EDGE('',*,*,#1513,.T.);
#1513 = EDGE_CURVE('',#912,#813,#1514,.T.);
#1514 = CIRCLE('',#1515,1.5);
#1515 = AXIS2_PLACEMENT_3D('',#1516,#1517,#1518);
#1516 = CARTESIAN_POINT('',(19.5,1.5,1.5));
#1517 = DIRECTION('',(-0.,1.,0.));
#1518 = DIRECTION('',(2.31E-15,0.,-1.));
#1519 = ORIENTED_EDGE('',*,*,#812,.T.);
#1520 = CYLINDRICAL_SURFACE('',#1521,1.5);
#1521 = AXIS2_PLACEMENT_3D('',#1522,#1523,#1524);
#1522 = CARTESIAN_POINT('',(19.5,23.03600000061,1.5));
#1523 = DIRECTION('',(0.,-1.,0.));
#1524 = DIRECTION('',(0.,0.,-1.));
#1525 = ADVANCED_FACE('',(#1526),#1534,.T.);
#1526 = FACE_BOUND('',#1527,.T.);
#1527 = EDGE_LOOP('',(#1528,#1529,#1530,#1531,#1532,#1533));
#1528 = ORIENTED_EDGE('',*,*,#1368,.F.);
#1529 = ORIENTED_EDGE('',*,*,#828,.T.);
#1530 = ORIENTED_EDGE('',*,*,#1207,.F.);
#1531 = ORIENTED_EDGE('',*,*,#126,.T.);
#1532 = ORIENTED_EDGE('',*,*,#1179,.T.);
#1533 = ORIENTED_EDGE('',*,*,#683,.T.);
#1534 = ( BOUNDED_SURFACE() B_SPLINE_SURFACE(3,3,(
    (#1535,#1536,#1537,#1538)
    ,(#1539,#1540,#1541,#1542)
    ,(#1543,#1544,#1545,#1546)
    ,(#1547,#1548,#1549,#1550
)),.UNSPECIFIED.,.F.,.F.,.F.) B_SPLINE_SURFACE_WITH_KNOTS((4,4),(4,4),(
    0.,1.),(0.,1.),.PIECEWISE_BEZIER_KNOTS.) 
GEOMETRIC_REPRESENTATION_ITEM() RATIONAL_B_SPLINE_SURFACE((
    (1.,0.788075297911,0.788075297911,1.)
    ,(0.804737854121,0.634194024127,0.634194024127,0.804737854121)
    ,(0.804737854121,0.634194024127,0.634194024127,0.804737854121)
,(1.,0.788075297911,0.788075297911,1.
))) REPRESENTATION_ITEM('') SURFACE() );
#1535 = CARTESIAN_POINT('',(8.043715140024,0.956021687855,0.));
#1536 = CARTESIAN_POINT('',(3.402261671082,5.931807817674,0.));
#1537 = CARTESIAN_POINT('',(-3.402261671082,5.931807817674,0.));
#1538 = CARTESIAN_POINT('',(-8.043715140024,0.956021687855,0.));
#1539 = CARTESIAN_POINT('',(7.40118342586,0.356662918043,1.009E-14));
#1540 = CARTESIAN_POINT('',(3.130489115055,4.934983407216,1.009E-14));
#1541 = CARTESIAN_POINT('',(-3.130489115055,4.934983407216,1.009E-14));
#1542 = CARTESIAN_POINT('',(-7.40118342586,0.356662918043,1.009E-14));
#1543 = CARTESIAN_POINT('',(6.946844893649,-6.714773245208E-02,
    0.62132034357));
#1544 = CARTESIAN_POINT('',(2.938316897749,4.230122106933,0.62132034357)
  );
#1545 = CARTESIAN_POINT('',(-2.938316897749,4.230122106933,0.62132034357
    ));
#1546 = CARTESIAN_POINT('',(-6.946844893649,-6.714773245199E-02,
    0.62132034357));
#1547 = CARTESIAN_POINT('',(6.946844893657,-6.714773244441E-02,
    1.500000000019));
#1548 = CARTESIAN_POINT('',(2.938316897753,4.230122106946,1.500000000019
    ));
#1549 = CARTESIAN_POINT('',(-2.938316897753,4.230122106946,
    1.500000000019));
#1550 = CARTESIAN_POINT('',(-6.946844893657,-6.714773244432E-02,
    1.500000000019));
#1551 = ADVANCED_FACE('',(#1552),#1579,.T.);
#1552 = FACE_BOUND('',#1553,.T.);
#1553 = EDGE_LOOP('',(#1554,#1561,#1562,#1571,#1578));
#1554 = ORIENTED_EDGE('',*,*,#1555,.T.);
#1555 = EDGE_CURVE('',#1084,#912,#1556,.T.);
#1556 = CIRCLE('',#1557,1.5);
#1557 = AXIS2_PLACEMENT_3D('',#1558,#1559,#1560);
#1558 = CARTESIAN_POINT('',(19.5,1.5,1.5));
#1559 = DIRECTION('',(0.,-0.,1.));
#1560 = DIRECTION('',(-1.,0.,0.));
#1561 = ORIENTED_EDGE('',*,*,#928,.F.);
#1562 = ORIENTED_EDGE('',*,*,#1563,.T.);
#1563 = EDGE_CURVE('',#921,#1564,#1566,.T.);
#1564 = VERTEX_POINT('',#1565);
#1565 = CARTESIAN_POINT('',(20.56066017178,0.43933982822,10.5));
#1566 = CIRCLE('',#1567,1.5);
#1567 = AXIS2_PLACEMENT_3D('',#1568,#1569,#1570);
#1568 = CARTESIAN_POINT('',(19.5,1.5,10.5));
#1569 = DIRECTION('',(0.,0.,-1.));
#1570 = DIRECTION('',(-1.,0.,0.));
#1571 = ORIENTED_EDGE('',*,*,#1572,.T.);
#1572 = EDGE_CURVE('',#1564,#1092,#1573,.T.);
#1573 = CIRCLE('',#1574,1.5);
#1574 = AXIS2_PLACEMENT_3D('',#1575,#1576,#1577);
#1575 = CARTESIAN_POINT('',(19.5,1.5,10.5));
#1576 = DIRECTION('',(0.,0.,-1.));
#1577 = DIRECTION('',(-1.,0.,0.));
#1578 = ORIENTED_EDGE('',*,*,#1091,.F.);
#1579 = CYLINDRICAL_SURFACE('',#1580,1.5);
#1580 = AXIS2_PLACEMENT_3D('',#1581,#1582,#1583);
#1581 = CARTESIAN_POINT('',(19.5,1.5,27.6432));
#1582 = DIRECTION('',(0.,0.,-1.));
#1583 = DIRECTION('',(-1.,0.,0.));
#1584 = ADVANCED_FACE('',(#1585),#1597,.T.);
#1585 = FACE_BOUND('',#1586,.T.);
#1586 = EDGE_LOOP('',(#1587,#1588,#1589,#1596));
#1587 = ORIENTED_EDGE('',*,*,#944,.F.);
#1588 = ORIENTED_EDGE('',*,*,#1069,.F.);
#1589 = ORIENTED_EDGE('',*,*,#1590,.T.);
#1590 = EDGE_CURVE('',#1062,#921,#1591,.T.);
#1591 = CIRCLE('',#1592,1.5);
#1592 = AXIS2_PLACEMENT_3D('',#1593,#1594,#1595);
#1593 = CARTESIAN_POINT('',(19.5,1.5,10.5));
#1594 = DIRECTION('',(0.,1.,0.));
#1595 = DIRECTION('',(0.,-0.,1.));
#1596 = ORIENTED_EDGE('',*,*,#920,.F.);
#1597 = CYLINDRICAL_SURFACE('',#1598,1.5);
#1598 = AXIS2_PLACEMENT_3D('',#1599,#1600,#1601);
#1599 = CARTESIAN_POINT('',(19.5,-13.03600000108,10.5));
#1600 = DIRECTION('',(0.,1.,0.));
#1601 = DIRECTION('',(0.,-0.,1.));
#1602 = ADVANCED_FACE('',(#1603),#1611,.T.);
#1603 = FACE_BOUND('',#1604,.T.);
#1604 = EDGE_LOOP('',(#1605,#1606,#1607,#1608,#1609,#1610));
#1605 = ORIENTED_EDGE('',*,*,#1125,.F.);
#1606 = ORIENTED_EDGE('',*,*,#1009,.F.);
#1607 = ORIENTED_EDGE('',*,*,#1262,.F.);
#1608 = ORIENTED_EDGE('',*,*,#651,.T.);
#1609 = ORIENTED_EDGE('',*,*,#1171,.T.);
#1610 = ORIENTED_EDGE('',*,*,#158,.T.);
#1611 = ( BOUNDED_SURFACE() B_SPLINE_SURFACE(3,3,(
    (#1612,#1613,#1614,#1615)
    ,(#1616,#1617,#1618,#1619)
    ,(#1620,#1621,#1622,#1623)
    ,(#1624,#1625,#1626,#1627
)),.UNSPECIFIED.,.F.,.F.,.F.) B_SPLINE_SURFACE_WITH_KNOTS((4,4),(4,4),(
    0.,1.),(0.,1.),.PIECEWISE_BEZIER_KNOTS.) 
GEOMETRIC_REPRESENTATION_ITEM() RATIONAL_B_SPLINE_SURFACE((
    (1.,0.788075296573,0.788075296573,1.)
    ,(0.804737856976,0.634194025299,0.634194025299,0.804737856976)
    ,(0.804737856976,0.634194025299,0.634194025299,0.804737856976)
,(1.,0.788075296573,0.788075296573,1.
))) REPRESENTATION_ITEM('') SURFACE() );
#1612 = CARTESIAN_POINT('',(6.946844893853,-6.714773265358E-02,
    10.500000018147));
#1613 = CARTESIAN_POINT('',(2.938316881008,4.230122125156,
    10.500000018147));
#1614 = CARTESIAN_POINT('',(-2.938316939521,4.230122109203,
    10.500000018147));
#1615 = CARTESIAN_POINT('',(-6.946844929035,-6.714777036983E-02,
    10.500000018147));
#1616 = CARTESIAN_POINT('',(6.946844901626,-6.714772540261E-02,
    11.378679666159));
#1617 = CARTESIAN_POINT('',(2.938316884296,4.230122137215,
    11.378679666159));
#1618 = CARTESIAN_POINT('',(-2.938316942809,4.230122121262,
    11.378679666159));
#1619 = CARTESIAN_POINT('',(-6.946844936808,-6.714776311887E-02,
    11.378679666159));
#1620 = CARTESIAN_POINT('',(7.401183432237,0.356662923575,12.));
#1621 = CARTESIAN_POINT('',(3.130489099825,4.934983436189,12.));
#1622 = CARTESIAN_POINT('',(-3.130489162165,4.934983419193,12.));
#1623 = CARTESIAN_POINT('',(-7.40118346972,0.356662883392,12.));
#1624 = CARTESIAN_POINT('',(8.04371514025,0.956021687612,12.));
#1625 = CARTESIAN_POINT('',(3.402261651694,5.93180783876,12.));
#1626 = CARTESIAN_POINT('',(-3.402261719446,5.931807820288,12.));
#1627 = CARTESIAN_POINT('',(-8.043715180987,0.956021643941,12.));
#1628 = ADVANCED_FACE('',(#1629),#1635,.T.);
#1629 = FACE_BOUND('',#1630,.T.);
#1630 = EDGE_LOOP('',(#1631,#1632,#1633,#1634));
#1631 = ORIENTED_EDGE('',*,*,#1572,.F.);
#1632 = ORIENTED_EDGE('',*,*,#1563,.F.);
#1633 = ORIENTED_EDGE('',*,*,#1590,.F.);
#1634 = ORIENTED_EDGE('',*,*,#1117,.F.);
#1635 = ( BOUNDED_SURFACE() B_SPLINE_SURFACE(3,3,(
    (#1636,#1637,#1638,#1639)
    ,(#1640,#1641,#1642,#1643)
    ,(#1644,#1645,#1646,#1647)
    ,(#1648,#1649,#1650,#1651
)),.UNSPECIFIED.,.F.,.F.,.F.) B_SPLINE_SURFACE_WITH_KNOTS((4,4),(4,4),(
    0.,1.),(0.,1.),.PIECEWISE_BEZIER_KNOTS.) 
GEOMETRIC_REPRESENTATION_ITEM() RATIONAL_B_SPLINE_SURFACE((
    (1.,0.333333333333,0.333333333333,1.)
    ,(0.802511186739,0.267503728913,0.267503728913,0.802511186739)
    ,(0.802511186739,0.267503728913,0.267503728913,0.802511186739)
,(1.,0.333333333333,0.333333333333,1.
))) REPRESENTATION_ITEM('') SURFACE() );
#1636 = CARTESIAN_POINT('',(18.429390596585,0.449383273824,10.5));
#1637 = CARTESIAN_POINT('',(18.429390596585,0.449383273824,
    13.499866761327));
#1638 = CARTESIAN_POINT('',(20.550616726176,2.570609403415,
    13.499866761327));
#1639 = CARTESIAN_POINT('',(20.550616726176,2.570609403415,10.5));
#1640 = CARTESIAN_POINT('',(19.049436595212,-0.182461870214,10.5));
#1641 = CARTESIAN_POINT('',(19.049436595212,-0.182461870214,
    13.516553272792));
#1642 = CARTESIAN_POINT('',(21.182461870214,1.950563404788,
    13.516553272792));
#1643 = CARTESIAN_POINT('',(21.182461870214,1.950563404788,10.5));
#1644 = CARTESIAN_POINT('',(19.934686799161,-0.186633544399,10.5));
#1645 = CARTESIAN_POINT('',(19.934686799161,-0.186633544399,
    12.270520066485));
#1646 = CARTESIAN_POINT('',(21.186633544399,1.065313200839,
    12.270520066485));
#1647 = CARTESIAN_POINT('',(21.186633544399,1.065313200839,10.5));
#1648 = CARTESIAN_POINT('',(20.56066017178,0.43933982822,10.5));
#1649 = CARTESIAN_POINT('',(20.56066017178,0.43933982822,10.5));
#1650 = CARTESIAN_POINT('',(20.56066017178,0.43933982822,10.5));
#1651 = CARTESIAN_POINT('',(20.56066017178,0.43933982822,10.5));
#1652 = ADVANCED_FACE('',(#1653),#1659,.T.);
#1653 = FACE_BOUND('',#1654,.T.);
#1654 = EDGE_LOOP('',(#1655,#1656,#1657,#1658));
#1655 = ORIENTED_EDGE('',*,*,#1436,.F.);
#1656 = ORIENTED_EDGE('',*,*,#1454,.F.);
#1657 = ORIENTED_EDGE('',*,*,#1469,.F.);
#1658 = ORIENTED_EDGE('',*,*,#1360,.F.);
#1659 = ( BOUNDED_SURFACE() B_SPLINE_SURFACE(3,3,(
    (#1660,#1661,#1662,#1663)
    ,(#1664,#1665,#1666,#1667)
    ,(#1668,#1669,#1670,#1671)
    ,(#1672,#1673,#1674,#1675
)),.UNSPECIFIED.,.F.,.F.,.F.) B_SPLINE_SURFACE_WITH_KNOTS((4,4),(4,4),(
    0.,1.),(0.,1.),.PIECEWISE_BEZIER_KNOTS.) 
GEOMETRIC_REPRESENTATION_ITEM() RATIONAL_B_SPLINE_SURFACE((
    (1.,0.333333333333,0.333333333333,1.)
    ,(0.802511186739,0.267503728913,0.267503728913,0.802511186739)
    ,(0.802511186739,0.267503728913,0.267503728913,0.802511186739)
,(1.,0.333333333333,0.333333333333,1.
))) REPRESENTATION_ITEM('') SURFACE() );
#1660 = CARTESIAN_POINT('',(-18.42939059658,0.449383273824,1.5));
#1661 = CARTESIAN_POINT('',(-18.42939059658,0.449383273824,
    -1.499866761327));
#1662 = CARTESIAN_POINT('',(-20.55061672617,2.570609403415,
    -1.499866761327));
#1663 = CARTESIAN_POINT('',(-20.55061672617,2.570609403415,1.5));
#1664 = CARTESIAN_POINT('',(-19.04943659521,-0.182461870214,1.5));
#1665 = CARTESIAN_POINT('',(-19.04943659521,-0.182461870214,
    -1.516553272792));
#1666 = CARTESIAN_POINT('',(-21.18246187021,1.950563404788,
    -1.516553272792));
#1667 = CARTESIAN_POINT('',(-21.18246187021,1.950563404788,1.5));
#1668 = CARTESIAN_POINT('',(-19.93468679916,-0.186633544399,1.5));
#1669 = CARTESIAN_POINT('',(-19.93468679916,-0.186633544399,
    -0.270520066485));
#1670 = CARTESIAN_POINT('',(-21.18663354439,1.065313200839,
    -0.270520066485));
#1671 = CARTESIAN_POINT('',(-21.18663354439,1.065313200839,1.5));
#1672 = CARTESIAN_POINT('',(-20.56066017178,0.43933982822,1.5));
#1673 = CARTESIAN_POINT('',(-20.56066017178,0.43933982822,1.5));
#1674 = CARTESIAN_POINT('',(-20.56066017178,0.43933982822,1.5));
#1675 = CARTESIAN_POINT('',(-20.56066017178,0.43933982822,1.5));
#1676 = ADVANCED_FACE('',(#1677),#1683,.T.);
#1677 = FACE_BOUND('',#1678,.T.);
#1678 = EDGE_LOOP('',(#1679,#1680,#1681,#1682));
#1679 = ORIENTED_EDGE('',*,*,#1417,.F.);
#1680 = ORIENTED_EDGE('',*,*,#1446,.F.);
#1681 = ORIENTED_EDGE('',*,*,#1311,.T.);
#1682 = ORIENTED_EDGE('',*,*,#1302,.T.);
#1683 = ( BOUNDED_SURFACE() B_SPLINE_SURFACE(3,3,(
    (#1684,#1685,#1686,#1687)
    ,(#1688,#1689,#1690,#1691)
    ,(#1692,#1693,#1694,#1695)
    ,(#1696,#1697,#1698,#1699
)),.UNSPECIFIED.,.F.,.F.,.F.) B_SPLINE_SURFACE_WITH_KNOTS((4,4),(4,4),(
    0.,1.),(0.,1.),.PIECEWISE_BEZIER_KNOTS.) 
GEOMETRIC_REPRESENTATION_ITEM() RATIONAL_B_SPLINE_SURFACE((
    (1.,0.333333333333,0.333333333333,1.)
    ,(0.802511186739,0.267503728913,0.267503728913,0.802511186739)
    ,(0.802511186739,0.267503728913,0.267503728913,0.802511186739)
,(1.,0.333333333333,0.333333333333,1.
))) REPRESENTATION_ITEM('') SURFACE() );
#1684 = CARTESIAN_POINT('',(-19.5,0.449383273824,9.429390596585));
#1685 = CARTESIAN_POINT('',(-22.49986676132,0.449383273824,
    9.429390596585));
#1686 = CARTESIAN_POINT('',(-22.49986676132,2.570609403415,
    11.550616726176));
#1687 = CARTESIAN_POINT('',(-19.5,2.570609403415,11.550616726176));
#1688 = CARTESIAN_POINT('',(-19.5,-0.182461870214,10.049436595212));
#1689 = CARTESIAN_POINT('',(-22.51655327279,-0.182461870214,
    10.049436595212));
#1690 = CARTESIAN_POINT('',(-22.51655327279,1.950563404788,
    12.182461870214));
#1691 = CARTESIAN_POINT('',(-19.5,1.950563404788,12.182461870214));
#1692 = CARTESIAN_POINT('',(-19.5,-0.186633544399,10.934686799161));
#1693 = CARTESIAN_POINT('',(-21.27052006648,-0.186633544399,
    10.934686799161));
#1694 = CARTESIAN_POINT('',(-21.27052006648,1.065313200839,
    12.186633544399));
#1695 = CARTESIAN_POINT('',(-19.5,1.065313200839,12.186633544399));
#1696 = CARTESIAN_POINT('',(-19.5,0.43933982822,11.56066017178));
#1697 = CARTESIAN_POINT('',(-19.5,0.43933982822,11.56066017178));
#1698 = CARTESIAN_POINT('',(-19.5,0.43933982822,11.56066017178));
#1699 = CARTESIAN_POINT('',(-19.5,0.43933982822,11.56066017178));
#1700 = ADVANCED_FACE('',(#1701),#1707,.T.);
#1701 = FACE_BOUND('',#1702,.T.);
#1702 = EDGE_LOOP('',(#1703,#1704,#1705,#1706));
#1703 = ORIENTED_EDGE('',*,*,#1195,.T.);
#1704 = ORIENTED_EDGE('',*,*,#1247,.T.);
#1705 = ORIENTED_EDGE('',*,*,#1513,.F.);
#1706 = ORIENTED_EDGE('',*,*,#1555,.F.);
#1707 = ( BOUNDED_SURFACE() B_SPLINE_SURFACE(3,3,(
    (#1708,#1709,#1710,#1711)
    ,(#1712,#1713,#1714,#1715)
    ,(#1716,#1717,#1718,#1719)
    ,(#1720,#1721,#1722,#1723
)),.UNSPECIFIED.,.F.,.F.,.F.) B_SPLINE_SURFACE_WITH_KNOTS((4,4),(4,4),(
    0.,1.),(0.,1.),.PIECEWISE_BEZIER_KNOTS.) 
GEOMETRIC_REPRESENTATION_ITEM() RATIONAL_B_SPLINE_SURFACE((
    (1.,0.333333333333,0.333333333333,1.)
    ,(0.802511186739,0.267503728913,0.267503728913,0.802511186739)
    ,(0.802511186739,0.267503728913,0.267503728913,0.802511186739)
,(1.,0.333333333333,0.333333333333,1.
))) REPRESENTATION_ITEM('') SURFACE() );
#1708 = CARTESIAN_POINT('',(19.5,0.449383273824,2.570609403415));
#1709 = CARTESIAN_POINT('',(22.499866761327,0.449383273824,
    2.570609403415));
#1710 = CARTESIAN_POINT('',(22.499866761327,2.570609403415,
    0.449383273824));
#1711 = CARTESIAN_POINT('',(19.5,2.570609403415,0.449383273824));
#1712 = CARTESIAN_POINT('',(19.5,-0.182461870214,1.950563404788));
#1713 = CARTESIAN_POINT('',(22.516553272792,-0.182461870214,
    1.950563404788));
#1714 = CARTESIAN_POINT('',(22.516553272792,1.950563404788,
    -0.182461870214));
#1715 = CARTESIAN_POINT('',(19.5,1.950563404788,-0.182461870214));
#1716 = CARTESIAN_POINT('',(19.5,-0.186633544399,1.065313200839));
#1717 = CARTESIAN_POINT('',(21.270520066485,-0.186633544399,
    1.065313200839));
#1718 = CARTESIAN_POINT('',(21.270520066485,1.065313200839,
    -0.186633544399));
#1719 = CARTESIAN_POINT('',(19.5,1.065313200839,-0.186633544399));
#1720 = CARTESIAN_POINT('',(19.5,0.43933982822,0.43933982822));
#1721 = CARTESIAN_POINT('',(19.5,0.43933982822,0.43933982822));
#1722 = CARTESIAN_POINT('',(19.5,0.43933982822,0.43933982822));
#1723 = CARTESIAN_POINT('',(19.5,0.43933982822,0.43933982822));
#1724 = ( GEOMETRIC_REPRESENTATION_CONTEXT(3) 
GLOBAL_UNCERTAINTY_ASSIGNED_CONTEXT((#1728)) 
GLOBAL_UNIT_ASSIGNED_CONTEXT((#1725,#1726,#1727)) REPRESENTATION_CONTEXT
('Context #1','3D Context with UNIT and UNCERTAINTY') );
#1725 = ( LENGTH_UNIT() NAMED_UNIT(*) SI_UNIT(.MILLI.,.METRE.) );
#1726 = ( NAMED_UNIT(*) PLANE_ANGLE_UNIT() SI_UNIT($,.RADIAN.) );
#1727 = ( NAMED_UNIT(*) SI_UNIT($,.STERADIAN.) SOLID_ANGLE_UNIT() );
#1728 = UNCERTAINTY_MEASURE_WITH_UNIT(LENGTH_MEASURE(1.E-04),#1725,
  'distance_accuracy_value','confusion accuracy');
#1729 = PRODUCT_RELATED_PRODUCT_CATEGORY('part',$,(#7));
#1730 = MECHANICAL_DESIGN_GEOMETRIC_PRESENTATION_REPRESENTATION('',(
    #1731),#1724);
#1731 = STYLED_ITEM('color',(#1732),#15);
#1732 = PRESENTATION_STYLE_ASSIGNMENT((#1733,#1739));
#1733 = SURFACE_STYLE_USAGE(.BOTH.,#1734);
#1734 = SURFACE_SIDE_STYLE('',(#1735));
#1735 = SURFACE_STYLE_FILL_AREA(#1736);
#1736 = FILL_AREA_STYLE('',(#1737));
#1737 = FILL_AREA_STYLE_COLOUR('',#1738);
#1738 = COLOUR_RGB('',0.101960784187,0.101960784187,0.101960784187);
#1739 = CURVE_STYLE('',#1740,POSITIVE_LENGTH_MEASURE(0.1),#1741);
#1740 = DRAUGHTING_PRE_DEFINED_CURVE_FONT('continuous');
#1741 = COLOUR_RGB('',9.803921802644E-02,9.803921802644E-02,
  9.803921802644E-02);
ENDSEC;
END-ISO-10303-21;
