ISO-10303-21;
HEADER;
FILE_DESCRIPTION(('FreeCAD Model'),'2;1');
FILE_NAME('Open CASCADE Shape Model','2026-09-03T21:58:55',('Author'),(
    ''),'Open CASCADE STEP processor 7.9','FreeCAD','Unknown');
FILE_SCHEMA(('AUTOMOTIVE_DESIGN { 1 0 10303 214 1 1 1 1 }'));
ENDSEC;
DATA;
#1 = APPLICATION_PROTOCOL_DEFINITION('international standard',
  'automotive_design',2000,#2);
#2 = APPLICATION_CONTEXT(
  'core data for automotive mechanical design processes');
#3 = SHAPE_DEFINITION_REPRESENTATION(#4,#10);
#4 = PRODUCT_DEFINITION_SHAPE('','',#5);
#5 = PRODUCT_DEFINITION('design','',#6,#9);
#6 = PRODUCT_DEFINITION_FORMATION('','',#7);
#7 = PRODUCT('42-34 motor_Standard001','42-34 motor_Standard001','',(#8)
  );
#8 = PRODUCT_CONTEXT('',#2,'mechanical');
#9 = PRODUCT_DEFINITION_CONTEXT('part definition',#2,'design');
#10 = ADVANCED_BREP_SHAPE_REPRESENTATION('',(#11,#15),#2061);
#11 = AXIS2_PLACEMENT_3D('',#12,#13,#14);
#12 = CARTESIAN_POINT('',(0.,0.,0.));
#13 = DIRECTION('',(0.,0.,1.));
#14 = DIRECTION('',(1.,0.,-0.));
#15 = MANIFOLD_SOLID_BREP('',#16);
#16 = CLOSED_SHELL('',(#17,#59,#101,#143,#185,#227,#269,#311,#353,#395,
    #437,#479,#521,#554,#594,#625,#656,#687,#718,#749,#780,#802,#868,
    #886,#904,#922,#940,#958,#978,#988,#998,#1008,#1018,#1036,#1056,
    #1074,#1103,#1128,#1145,#1157,#1197,#1283,#1432,#1454,#1471,#1488,
    #1505,#1522,#1539,#1556,#1568,#1584,#1600,#1616,#1632,#1650,#1668,
    #1686,#1704,#1744,#1855,#1877,#1894,#1911,#1928,#1945,#1962,#1979,
    #1997,#2019,#2037,#2049));
#17 = ADVANCED_FACE('',(#18),#54,.F.);
#18 = FACE_BOUND('',#19,.F.);
#19 = EDGE_LOOP('',(#20,#30,#39,#47));
#20 = ORIENTED_EDGE('',*,*,#21,.T.);
#21 = EDGE_CURVE('',#22,#24,#26,.T.);
#22 = VERTEX_POINT('',#23);
#23 = CARTESIAN_POINT('',(14.,15.5,-28.75));
#24 = VERTEX_POINT('',#25);
#25 = CARTESIAN_POINT('',(14.,15.5,-33.75));
#26 = LINE('',#27,#28);
#27 = CARTESIAN_POINT('',(14.,15.5,-28.75));
#28 = VECTOR('',#29,1.);
#29 = DIRECTION('',(0.,0.,-1.));
#30 = ORIENTED_EDGE('',*,*,#31,.F.);
#31 = EDGE_CURVE('',#32,#24,#34,.T.);
#32 = VERTEX_POINT('',#33);
#33 = CARTESIAN_POINT('',(17.,15.5,-33.75));
#34 = CIRCLE('',#35,1.5);
#35 = AXIS2_PLACEMENT_3D('',#36,#37,#38);
#36 = CARTESIAN_POINT('',(15.5,15.5,-33.75));
#37 = DIRECTION('',(0.,0.,-1.));
#38 = DIRECTION('',(-1.,0.,0.));
#39 = ORIENTED_EDGE('',*,*,#40,.F.);
#40 = EDGE_CURVE('',#41,#32,#43,.T.);
#41 = VERTEX_POINT('',#42);
#42 = CARTESIAN_POINT('',(17.,15.5,-28.75));
#43 = LINE('',#44,#45);
#44 = CARTESIAN_POINT('',(17.,15.5,-28.75));
#45 = VECTOR('',#46,1.);
#46 = DIRECTION('',(0.,0.,-1.));
#47 = ORIENTED_EDGE('',*,*,#48,.T.);
#48 = EDGE_CURVE('',#41,#22,#49,.T.);
#49 = CIRCLE('',#50,1.5);
#50 = AXIS2_PLACEMENT_3D('',#51,#52,#53);
#51 = CARTESIAN_POINT('',(15.5,15.5,-28.75));
#52 = DIRECTION('',(0.,0.,-1.));
#53 = DIRECTION('',(-1.,0.,0.));
#54 = CYLINDRICAL_SURFACE('',#55,1.5);
#55 = AXIS2_PLACEMENT_3D('',#56,#57,#58);
#56 = CARTESIAN_POINT('',(15.5,15.5,-28.75));
#57 = DIRECTION('',(0.,0.,-1.));
#58 = DIRECTION('',(-1.,0.,0.));
#59 = ADVANCED_FACE('',(#60),#96,.F.);
#60 = FACE_BOUND('',#61,.F.);
#61 = EDGE_LOOP('',(#62,#72,#81,#89));
#62 = ORIENTED_EDGE('',*,*,#63,.T.);
#63 = EDGE_CURVE('',#64,#66,#68,.T.);
#64 = VERTEX_POINT('',#65);
#65 = CARTESIAN_POINT('',(14.,-15.5,-28.75));
#66 = VERTEX_POINT('',#67);
#67 = CARTESIAN_POINT('',(14.,-15.5,-33.75));
#68 = LINE('',#69,#70);
#69 = CARTESIAN_POINT('',(14.,-15.5,-28.75));
#70 = VECTOR('',#71,1.);
#71 = DIRECTION('',(0.,0.,-1.));
#72 = ORIENTED_EDGE('',*,*,#73,.F.);
#73 = EDGE_CURVE('',#74,#66,#76,.T.);
#74 = VERTEX_POINT('',#75);
#75 = CARTESIAN_POINT('',(17.,-15.5,-33.75));
#76 = CIRCLE('',#77,1.5);
#77 = AXIS2_PLACEMENT_3D('',#78,#79,#80);
#78 = CARTESIAN_POINT('',(15.5,-15.5,-33.75));
#79 = DIRECTION('',(0.,0.,-1.));
#80 = DIRECTION('',(-1.,0.,0.));
#81 = ORIENTED_EDGE('',*,*,#82,.F.);
#82 = EDGE_CURVE('',#83,#74,#85,.T.);
#83 = VERTEX_POINT('',#84);
#84 = CARTESIAN_POINT('',(17.,-15.5,-28.75));
#85 = LINE('',#86,#87);
#86 = CARTESIAN_POINT('',(17.,-15.5,-28.75));
#87 = VECTOR('',#88,1.);
#88 = DIRECTION('',(0.,0.,-1.));
#89 = ORIENTED_EDGE('',*,*,#90,.T.);
#90 = EDGE_CURVE('',#83,#64,#91,.T.);
#91 = CIRCLE('',#92,1.5);
#92 = AXIS2_PLACEMENT_3D('',#93,#94,#95);
#93 = CARTESIAN_POINT('',(15.5,-15.5,-28.75));
#94 = DIRECTION('',(0.,0.,-1.));
#95 = DIRECTION('',(-1.,0.,0.));
#96 = CYLINDRICAL_SURFACE('',#97,1.5);
#97 = AXIS2_PLACEMENT_3D('',#98,#99,#100);
#98 = CARTESIAN_POINT('',(15.5,-15.5,-28.75));
#99 = DIRECTION('',(0.,0.,-1.));
#100 = DIRECTION('',(-1.,0.,0.));
#101 = ADVANCED_FACE('',(#102),#138,.F.);
#102 = FACE_BOUND('',#103,.F.);
#103 = EDGE_LOOP('',(#104,#114,#123,#131));
#104 = ORIENTED_EDGE('',*,*,#105,.T.);
#105 = EDGE_CURVE('',#106,#108,#110,.T.);
#106 = VERTEX_POINT('',#107);
#107 = CARTESIAN_POINT('',(-17.,-15.5,-28.75));
#108 = VERTEX_POINT('',#109);
#109 = CARTESIAN_POINT('',(-17.,-15.5,-33.75));
#110 = LINE('',#111,#112);
#111 = CARTESIAN_POINT('',(-17.,-15.5,-28.75));
#112 = VECTOR('',#113,1.);
#113 = DIRECTION('',(0.,0.,-1.));
#114 = ORIENTED_EDGE('',*,*,#115,.F.);
#115 = EDGE_CURVE('',#116,#108,#118,.T.);
#116 = VERTEX_POINT('',#117);
#117 = CARTESIAN_POINT('',(-14.,-15.5,-33.75));
#118 = CIRCLE('',#119,1.5);
#119 = AXIS2_PLACEMENT_3D('',#120,#121,#122);
#120 = CARTESIAN_POINT('',(-15.5,-15.5,-33.75));
#121 = DIRECTION('',(0.,0.,-1.));
#122 = DIRECTION('',(-1.,0.,0.));
#123 = ORIENTED_EDGE('',*,*,#124,.F.);
#124 = EDGE_CURVE('',#125,#116,#127,.T.);
#125 = VERTEX_POINT('',#126);
#126 = CARTESIAN_POINT('',(-14.,-15.5,-28.75));
#127 = LINE('',#128,#129);
#128 = CARTESIAN_POINT('',(-14.,-15.5,-28.75));
#129 = VECTOR('',#130,1.);
#130 = DIRECTION('',(0.,0.,-1.));
#131 = ORIENTED_EDGE('',*,*,#132,.T.);
#132 = EDGE_CURVE('',#125,#106,#133,.T.);
#133 = CIRCLE('',#134,1.5);
#134 = AXIS2_PLACEMENT_3D('',#135,#136,#137);
#135 = CARTESIAN_POINT('',(-15.5,-15.5,-28.75));
#136 = DIRECTION('',(0.,0.,-1.));
#137 = DIRECTION('',(-1.,0.,0.));
#138 = CYLINDRICAL_SURFACE('',#139,1.5);
#139 = AXIS2_PLACEMENT_3D('',#140,#141,#142);
#140 = CARTESIAN_POINT('',(-15.5,-15.5,-28.75));
#141 = DIRECTION('',(0.,0.,-1.));
#142 = DIRECTION('',(-1.,0.,0.));
#143 = ADVANCED_FACE('',(#144),#180,.F.);
#144 = FACE_BOUND('',#145,.F.);
#145 = EDGE_LOOP('',(#146,#156,#165,#173));
#146 = ORIENTED_EDGE('',*,*,#147,.T.);
#147 = EDGE_CURVE('',#148,#150,#152,.T.);
#148 = VERTEX_POINT('',#149);
#149 = CARTESIAN_POINT('',(-17.,15.5,-28.75));
#150 = VERTEX_POINT('',#151);
#151 = CARTESIAN_POINT('',(-17.,15.5,-33.75));
#152 = LINE('',#153,#154);
#153 = CARTESIAN_POINT('',(-17.,15.5,-28.75));
#154 = VECTOR('',#155,1.);
#155 = DIRECTION('',(0.,0.,-1.));
#156 = ORIENTED_EDGE('',*,*,#157,.F.);
#157 = EDGE_CURVE('',#158,#150,#160,.T.);
#158 = VERTEX_POINT('',#159);
#159 = CARTESIAN_POINT('',(-14.,15.5,-33.75));
#160 = CIRCLE('',#161,1.5);
#161 = AXIS2_PLACEMENT_3D('',#162,#163,#164);
#162 = CARTESIAN_POINT('',(-15.5,15.5,-33.75));
#163 = DIRECTION('',(0.,0.,-1.));
#164 = DIRECTION('',(-1.,0.,0.));
#165 = ORIENTED_EDGE('',*,*,#166,.F.);
#166 = EDGE_CURVE('',#167,#158,#169,.T.);
#167 = VERTEX_POINT('',#168);
#168 = CARTESIAN_POINT('',(-14.,15.5,-28.75));
#169 = LINE('',#170,#171);
#170 = CARTESIAN_POINT('',(-14.,15.5,-28.75));
#171 = VECTOR('',#172,1.);
#172 = DIRECTION('',(0.,0.,-1.));
#173 = ORIENTED_EDGE('',*,*,#174,.T.);
#174 = EDGE_CURVE('',#167,#148,#175,.T.);
#175 = CIRCLE('',#176,1.5);
#176 = AXIS2_PLACEMENT_3D('',#177,#178,#179);
#177 = CARTESIAN_POINT('',(-15.5,15.5,-28.75));
#178 = DIRECTION('',(0.,0.,-1.));
#179 = DIRECTION('',(-1.,0.,0.));
#180 = CYLINDRICAL_SURFACE('',#181,1.5);
#181 = AXIS2_PLACEMENT_3D('',#182,#183,#184);
#182 = CARTESIAN_POINT('',(-15.5,15.5,-28.75));
#183 = DIRECTION('',(0.,0.,-1.));
#184 = DIRECTION('',(-1.,0.,0.));
#185 = ADVANCED_FACE('',(#186),#222,.F.);
#186 = FACE_BOUND('',#187,.F.);
#187 = EDGE_LOOP('',(#188,#198,#207,#215));
#188 = ORIENTED_EDGE('',*,*,#189,.T.);
#189 = EDGE_CURVE('',#190,#192,#194,.T.);
#190 = VERTEX_POINT('',#191);
#191 = CARTESIAN_POINT('',(16.5,0.,-0.5));
#192 = VERTEX_POINT('',#193);
#193 = CARTESIAN_POINT('',(16.5,0.,0.));
#194 = LINE('',#195,#196);
#195 = CARTESIAN_POINT('',(16.5,0.,-0.5));
#196 = VECTOR('',#197,1.);
#197 = DIRECTION('',(0.,0.,1.));
#198 = ORIENTED_EDGE('',*,*,#199,.T.);
#199 = EDGE_CURVE('',#192,#200,#202,.T.);
#200 = VERTEX_POINT('',#201);
#201 = CARTESIAN_POINT('',(-16.5,2.E-15,0.));
#202 = CIRCLE('',#203,16.5);
#203 = AXIS2_PLACEMENT_3D('',#204,#205,#206);
#204 = CARTESIAN_POINT('',(0.,0.,0.));
#205 = DIRECTION('',(0.,0.,-1.));
#206 = DIRECTION('',(1.,0.,0.));
#207 = ORIENTED_EDGE('',*,*,#208,.F.);
#208 = EDGE_CURVE('',#209,#200,#211,.T.);
#209 = VERTEX_POINT('',#210);
#210 = CARTESIAN_POINT('',(-16.5,2.E-15,-0.5));
#211 = LINE('',#212,#213);
#212 = CARTESIAN_POINT('',(-16.5,2.02E-15,-0.5));
#213 = VECTOR('',#214,1.);
#214 = DIRECTION('',(0.,0.,1.));
#215 = ORIENTED_EDGE('',*,*,#216,.T.);
#216 = EDGE_CURVE('',#209,#190,#217,.T.);
#217 = CIRCLE('',#218,16.5);
#218 = AXIS2_PLACEMENT_3D('',#219,#220,#221);
#219 = CARTESIAN_POINT('',(0.,0.,-0.5));
#220 = DIRECTION('',(0.,0.,1.));
#221 = DIRECTION('',(1.,0.,-0.));
#222 = CYLINDRICAL_SURFACE('',#223,16.5);
#223 = AXIS2_PLACEMENT_3D('',#224,#225,#226);
#224 = CARTESIAN_POINT('',(0.,0.,-0.5));
#225 = DIRECTION('',(0.,0.,1.));
#226 = DIRECTION('',(1.,0.,-0.));
#227 = ADVANCED_FACE('',(#228),#264,.F.);
#228 = FACE_BOUND('',#229,.F.);
#229 = EDGE_LOOP('',(#230,#240,#249,#257));
#230 = ORIENTED_EDGE('',*,*,#231,.T.);
#231 = EDGE_CURVE('',#232,#234,#236,.T.);
#232 = VERTEX_POINT('',#233);
#233 = CARTESIAN_POINT('',(-14.,-15.5,-5.));
#234 = VERTEX_POINT('',#235);
#235 = CARTESIAN_POINT('',(-14.,-15.5,0.));
#236 = LINE('',#237,#238);
#237 = CARTESIAN_POINT('',(-14.,-15.5,-5.));
#238 = VECTOR('',#239,1.);
#239 = DIRECTION('',(0.,0.,1.));
#240 = ORIENTED_EDGE('',*,*,#241,.T.);
#241 = EDGE_CURVE('',#234,#242,#244,.T.);
#242 = VERTEX_POINT('',#243);
#243 = CARTESIAN_POINT('',(-17.,-15.5,0.));
#244 = CIRCLE('',#245,1.5);
#245 = AXIS2_PLACEMENT_3D('',#246,#247,#248);
#246 = CARTESIAN_POINT('',(-15.5,-15.5,0.));
#247 = DIRECTION('',(0.,0.,-1.));
#248 = DIRECTION('',(1.,0.,0.));
#249 = ORIENTED_EDGE('',*,*,#250,.F.);
#250 = EDGE_CURVE('',#251,#242,#253,.T.);
#251 = VERTEX_POINT('',#252);
#252 = CARTESIAN_POINT('',(-17.,-15.5,-5.));
#253 = LINE('',#254,#255);
#254 = CARTESIAN_POINT('',(-17.,-15.5,-5.));
#255 = VECTOR('',#256,1.);
#256 = DIRECTION('',(0.,0.,1.));
#257 = ORIENTED_EDGE('',*,*,#258,.T.);
#258 = EDGE_CURVE('',#251,#232,#259,.T.);
#259 = CIRCLE('',#260,1.5);
#260 = AXIS2_PLACEMENT_3D('',#261,#262,#263);
#261 = CARTESIAN_POINT('',(-15.5,-15.5,-5.));
#262 = DIRECTION('',(0.,0.,1.));
#263 = DIRECTION('',(1.,0.,-0.));
#264 = CYLINDRICAL_SURFACE('',#265,1.5);
#265 = AXIS2_PLACEMENT_3D('',#266,#267,#268);
#266 = CARTESIAN_POINT('',(-15.5,-15.5,-5.));
#267 = DIRECTION('',(0.,0.,1.));
#268 = DIRECTION('',(1.,0.,-0.));
#269 = ADVANCED_FACE('',(#270),#306,.F.);
#270 = FACE_BOUND('',#271,.F.);
#271 = EDGE_LOOP('',(#272,#282,#291,#299));
#272 = ORIENTED_EDGE('',*,*,#273,.T.);
#273 = EDGE_CURVE('',#274,#276,#278,.T.);
#274 = VERTEX_POINT('',#275);
#275 = CARTESIAN_POINT('',(17.,-15.5,-5.));
#276 = VERTEX_POINT('',#277);
#277 = CARTESIAN_POINT('',(17.,-15.5,0.));
#278 = LINE('',#279,#280);
#279 = CARTESIAN_POINT('',(17.,-15.5,-5.));
#280 = VECTOR('',#281,1.);
#281 = DIRECTION('',(0.,0.,1.));
#282 = ORIENTED_EDGE('',*,*,#283,.T.);
#283 = EDGE_CURVE('',#276,#284,#286,.T.);
#284 = VERTEX_POINT('',#285);
#285 = CARTESIAN_POINT('',(14.,-15.5,0.));
#286 = CIRCLE('',#287,1.5);
#287 = AXIS2_PLACEMENT_3D('',#288,#289,#290);
#288 = CARTESIAN_POINT('',(15.5,-15.5,0.));
#289 = DIRECTION('',(0.,0.,-1.));
#290 = DIRECTION('',(1.,0.,0.));
#291 = ORIENTED_EDGE('',*,*,#292,.F.);
#292 = EDGE_CURVE('',#293,#284,#295,.T.);
#293 = VERTEX_POINT('',#294);
#294 = CARTESIAN_POINT('',(14.,-15.5,-5.));
#295 = LINE('',#296,#297);
#296 = CARTESIAN_POINT('',(14.,-15.5,-5.));
#297 = VECTOR('',#298,1.);
#298 = DIRECTION('',(0.,0.,1.));
#299 = ORIENTED_EDGE('',*,*,#300,.T.);
#300 = EDGE_CURVE('',#293,#274,#301,.T.);
#301 = CIRCLE('',#302,1.5);
#302 = AXIS2_PLACEMENT_3D('',#303,#304,#305);
#303 = CARTESIAN_POINT('',(15.5,-15.5,-5.));
#304 = DIRECTION('',(0.,0.,1.));
#305 = DIRECTION('',(1.,0.,-0.));
#306 = CYLINDRICAL_SURFACE('',#307,1.5);
#307 = AXIS2_PLACEMENT_3D('',#308,#309,#310);
#308 = CARTESIAN_POINT('',(15.5,-15.5,-5.));
#309 = DIRECTION('',(0.,0.,1.));
#310 = DIRECTION('',(1.,0.,-0.));
#311 = ADVANCED_FACE('',(#312),#348,.F.);
#312 = FACE_BOUND('',#313,.F.);
#313 = EDGE_LOOP('',(#314,#324,#333,#341));
#314 = ORIENTED_EDGE('',*,*,#315,.T.);
#315 = EDGE_CURVE('',#316,#318,#320,.T.);
#316 = VERTEX_POINT('',#317);
#317 = CARTESIAN_POINT('',(-14.,15.5,-5.));
#318 = VERTEX_POINT('',#319);
#319 = CARTESIAN_POINT('',(-14.,15.5,0.));
#320 = LINE('',#321,#322);
#321 = CARTESIAN_POINT('',(-14.,15.5,-5.));
#322 = VECTOR('',#323,1.);
#323 = DIRECTION('',(0.,0.,1.));
#324 = ORIENTED_EDGE('',*,*,#325,.T.);
#325 = EDGE_CURVE('',#318,#326,#328,.T.);
#326 = VERTEX_POINT('',#327);
#327 = CARTESIAN_POINT('',(-17.,15.5,0.));
#328 = CIRCLE('',#329,1.5);
#329 = AXIS2_PLACEMENT_3D('',#330,#331,#332);
#330 = CARTESIAN_POINT('',(-15.5,15.5,0.));
#331 = DIRECTION('',(0.,0.,-1.));
#332 = DIRECTION('',(1.,0.,0.));
#333 = ORIENTED_EDGE('',*,*,#334,.F.);
#334 = EDGE_CURVE('',#335,#326,#337,.T.);
#335 = VERTEX_POINT('',#336);
#336 = CARTESIAN_POINT('',(-17.,15.5,-5.));
#337 = LINE('',#338,#339);
#338 = CARTESIAN_POINT('',(-17.,15.5,-5.));
#339 = VECTOR('',#340,1.);
#340 = DIRECTION('',(0.,0.,1.));
#341 = ORIENTED_EDGE('',*,*,#342,.T.);
#342 = EDGE_CURVE('',#335,#316,#343,.T.);
#343 = CIRCLE('',#344,1.5);
#344 = AXIS2_PLACEMENT_3D('',#345,#346,#347);
#345 = CARTESIAN_POINT('',(-15.5,15.5,-5.));
#346 = DIRECTION('',(0.,0.,1.));
#347 = DIRECTION('',(1.,0.,-0.));
#348 = CYLINDRICAL_SURFACE('',#349,1.5);
#349 = AXIS2_PLACEMENT_3D('',#350,#351,#352);
#350 = CARTESIAN_POINT('',(-15.5,15.5,-5.));
#351 = DIRECTION('',(0.,0.,1.));
#352 = DIRECTION('',(1.,0.,-0.));
#353 = ADVANCED_FACE('',(#354),#390,.F.);
#354 = FACE_BOUND('',#355,.F.);
#355 = EDGE_LOOP('',(#356,#366,#375,#383));
#356 = ORIENTED_EDGE('',*,*,#357,.T.);
#357 = EDGE_CURVE('',#358,#360,#362,.T.);
#358 = VERTEX_POINT('',#359);
#359 = CARTESIAN_POINT('',(17.,15.5,-5.));
#360 = VERTEX_POINT('',#361);
#361 = CARTESIAN_POINT('',(17.,15.5,0.));
#362 = LINE('',#363,#364);
#363 = CARTESIAN_POINT('',(17.,15.5,-5.));
#364 = VECTOR('',#365,1.);
#365 = DIRECTION('',(0.,0.,1.));
#366 = ORIENTED_EDGE('',*,*,#367,.T.);
#367 = EDGE_CURVE('',#360,#368,#370,.T.);
#368 = VERTEX_POINT('',#369);
#369 = CARTESIAN_POINT('',(14.,15.5,0.));
#370 = CIRCLE('',#371,1.5);
#371 = AXIS2_PLACEMENT_3D('',#372,#373,#374);
#372 = CARTESIAN_POINT('',(15.5,15.5,0.));
#373 = DIRECTION('',(0.,0.,-1.));
#374 = DIRECTION('',(1.,0.,0.));
#375 = ORIENTED_EDGE('',*,*,#376,.F.);
#376 = EDGE_CURVE('',#377,#368,#379,.T.);
#377 = VERTEX_POINT('',#378);
#378 = CARTESIAN_POINT('',(14.,15.5,-5.));
#379 = LINE('',#380,#381);
#380 = CARTESIAN_POINT('',(14.,15.5,-5.));
#381 = VECTOR('',#382,1.);
#382 = DIRECTION('',(0.,0.,1.));
#383 = ORIENTED_EDGE('',*,*,#384,.T.);
#384 = EDGE_CURVE('',#377,#358,#385,.T.);
#385 = CIRCLE('',#386,1.5);
#386 = AXIS2_PLACEMENT_3D('',#387,#388,#389);
#387 = CARTESIAN_POINT('',(15.5,15.5,-5.));
#388 = DIRECTION('',(0.,0.,1.));
#389 = DIRECTION('',(1.,0.,-0.));
#390 = CYLINDRICAL_SURFACE('',#391,1.5);
#391 = AXIS2_PLACEMENT_3D('',#392,#393,#394);
#392 = CARTESIAN_POINT('',(15.5,15.5,-5.));
#393 = DIRECTION('',(0.,0.,1.));
#394 = DIRECTION('',(1.,0.,-0.));
#395 = ADVANCED_FACE('',(#396),#432,.T.);
#396 = FACE_BOUND('',#397,.T.);
#397 = EDGE_LOOP('',(#398,#409,#417,#426));
#398 = ORIENTED_EDGE('',*,*,#399,.T.);
#399 = EDGE_CURVE('',#400,#402,#404,.T.);
#400 = VERTEX_POINT('',#401);
#401 = CARTESIAN_POINT('',(-11.,0.,2.));
#402 = VERTEX_POINT('',#403);
#403 = CARTESIAN_POINT('',(11.,1.E-15,2.));
#404 = CIRCLE('',#405,11.);
#405 = AXIS2_PLACEMENT_3D('',#406,#407,#408);
#406 = CARTESIAN_POINT('',(0.,0.,2.));
#407 = DIRECTION('',(0.,0.,-1.));
#408 = DIRECTION('',(-1.,0.,0.));
#409 = ORIENTED_EDGE('',*,*,#410,.T.);
#410 = EDGE_CURVE('',#402,#411,#413,.T.);
#411 = VERTEX_POINT('',#412);
#412 = CARTESIAN_POINT('',(11.,1.E-15,-0.5));
#413 = LINE('',#414,#415);
#414 = CARTESIAN_POINT('',(11.,1.35E-15,2.));
#415 = VECTOR('',#416,1.);
#416 = DIRECTION('',(0.,0.,-1.));
#417 = ORIENTED_EDGE('',*,*,#418,.F.);
#418 = EDGE_CURVE('',#419,#411,#421,.T.);
#419 = VERTEX_POINT('',#420);
#420 = CARTESIAN_POINT('',(-11.,0.,-0.5));
#421 = CIRCLE('',#422,11.);
#422 = AXIS2_PLACEMENT_3D('',#423,#424,#425);
#423 = CARTESIAN_POINT('',(0.,0.,-0.5));
#424 = DIRECTION('',(0.,0.,-1.));
#425 = DIRECTION('',(-1.,0.,0.));
#426 = ORIENTED_EDGE('',*,*,#427,.F.);
#427 = EDGE_CURVE('',#400,#419,#428,.T.);
#428 = LINE('',#429,#430);
#429 = CARTESIAN_POINT('',(-11.,0.,2.));
#430 = VECTOR('',#431,1.);
#431 = DIRECTION('',(0.,0.,-1.));
#432 = CYLINDRICAL_SURFACE('',#433,11.);
#433 = AXIS2_PLACEMENT_3D('',#434,#435,#436);
#434 = CARTESIAN_POINT('',(0.,0.,2.));
#435 = DIRECTION('',(0.,0.,-1.));
#436 = DIRECTION('',(-1.,0.,0.));
#437 = ADVANCED_FACE('',(#438),#474,.F.);
#438 = FACE_BOUND('',#439,.F.);
#439 = EDGE_LOOP('',(#440,#450,#459,#467));
#440 = ORIENTED_EDGE('',*,*,#441,.T.);
#441 = EDGE_CURVE('',#442,#444,#446,.T.);
#442 = VERTEX_POINT('',#443);
#443 = CARTESIAN_POINT('',(3.5,0.,-3.));
#444 = VERTEX_POINT('',#445);
#445 = CARTESIAN_POINT('',(3.5,0.,2.));
#446 = LINE('',#447,#448);
#447 = CARTESIAN_POINT('',(3.5,0.,-3.));
#448 = VECTOR('',#449,1.);
#449 = DIRECTION('',(0.,0.,1.));
#450 = ORIENTED_EDGE('',*,*,#451,.T.);
#451 = EDGE_CURVE('',#444,#452,#454,.T.);
#452 = VERTEX_POINT('',#453);
#453 = CARTESIAN_POINT('',(-3.5,0.,2.));
#454 = CIRCLE('',#455,3.5);
#455 = AXIS2_PLACEMENT_3D('',#456,#457,#458);
#456 = CARTESIAN_POINT('',(0.,0.,2.));
#457 = DIRECTION('',(0.,0.,-1.));
#458 = DIRECTION('',(1.,0.,0.));
#459 = ORIENTED_EDGE('',*,*,#460,.F.);
#460 = EDGE_CURVE('',#461,#452,#463,.T.);
#461 = VERTEX_POINT('',#462);
#462 = CARTESIAN_POINT('',(-3.5,0.,-3.));
#463 = LINE('',#464,#465);
#464 = CARTESIAN_POINT('',(-3.5,4.3E-16,-3.));
#465 = VECTOR('',#466,1.);
#466 = DIRECTION('',(0.,0.,1.));
#467 = ORIENTED_EDGE('',*,*,#468,.T.);
#468 = EDGE_CURVE('',#461,#442,#469,.T.);
#469 = CIRCLE('',#470,3.5);
#470 = AXIS2_PLACEMENT_3D('',#471,#472,#473);
#471 = CARTESIAN_POINT('',(0.,0.,-3.));
#472 = DIRECTION('',(0.,0.,1.));
#473 = DIRECTION('',(1.,0.,-0.));
#474 = CYLINDRICAL_SURFACE('',#475,3.5);
#475 = AXIS2_PLACEMENT_3D('',#476,#477,#478);
#476 = CARTESIAN_POINT('',(0.,0.,-3.));
#477 = DIRECTION('',(0.,0.,1.));
#478 = DIRECTION('',(1.,0.,-0.));
#479 = ADVANCED_FACE('',(#480),#516,.T.);
#480 = FACE_BOUND('',#481,.T.);
#481 = EDGE_LOOP('',(#482,#493,#501,#510));
#482 = ORIENTED_EDGE('',*,*,#483,.T.);
#483 = EDGE_CURVE('',#484,#486,#488,.T.);
#484 = VERTEX_POINT('',#485);
#485 = CARTESIAN_POINT('',(1.5,2.,20.));
#486 = VERTEX_POINT('',#487);
#487 = CARTESIAN_POINT('',(2.5,0.,20.));
#488 = CIRCLE('',#489,2.5);
#489 = AXIS2_PLACEMENT_3D('',#490,#491,#492);
#490 = CARTESIAN_POINT('',(0.,0.,20.));
#491 = DIRECTION('',(0.,0.,-1.));
#492 = DIRECTION('',(-1.,0.,0.));
#493 = ORIENTED_EDGE('',*,*,#494,.T.);
#494 = EDGE_CURVE('',#486,#495,#497,.T.);
#495 = VERTEX_POINT('',#496);
#496 = CARTESIAN_POINT('',(2.5,0.,-3.));
#497 = LINE('',#498,#499);
#498 = CARTESIAN_POINT('',(2.5,3.1E-16,24.));
#499 = VECTOR('',#500,1.);
#500 = DIRECTION('',(0.,0.,-1.));
#501 = ORIENTED_EDGE('',*,*,#502,.F.);
#502 = EDGE_CURVE('',#503,#495,#505,.T.);
#503 = VERTEX_POINT('',#504);
#504 = CARTESIAN_POINT('',(1.5,2.,-3.));
#505 = CIRCLE('',#506,2.5);
#506 = AXIS2_PLACEMENT_3D('',#507,#508,#509);
#507 = CARTESIAN_POINT('',(0.,0.,-3.));
#508 = DIRECTION('',(0.,0.,-1.));
#509 = DIRECTION('',(-1.,0.,0.));
#510 = ORIENTED_EDGE('',*,*,#511,.T.);
#511 = EDGE_CURVE('',#503,#484,#512,.T.);
#512 = LINE('',#513,#514);
#513 = CARTESIAN_POINT('',(1.5,2.,24.));
#514 = VECTOR('',#515,1.);
#515 = DIRECTION('',(-0.,-0.,1.));
#516 = CYLINDRICAL_SURFACE('',#517,2.5);
#517 = AXIS2_PLACEMENT_3D('',#518,#519,#520);
#518 = CARTESIAN_POINT('',(0.,0.,24.));
#519 = DIRECTION('',(0.,0.,-1.));
#520 = DIRECTION('',(-1.,0.,0.));
#521 = ADVANCED_FACE('',(#522),#549,.T.);
#522 = FACE_BOUND('',#523,.T.);
#523 = EDGE_LOOP('',(#524,#525,#534,#542));
#524 = ORIENTED_EDGE('',*,*,#494,.F.);
#525 = ORIENTED_EDGE('',*,*,#526,.T.);
#526 = EDGE_CURVE('',#486,#527,#529,.T.);
#527 = VERTEX_POINT('',#528);
#528 = CARTESIAN_POINT('',(-2.5,0.,20.));
#529 = CIRCLE('',#530,2.5);
#530 = AXIS2_PLACEMENT_3D('',#531,#532,#533);
#531 = CARTESIAN_POINT('',(0.,0.,20.));
#532 = DIRECTION('',(0.,0.,-1.));
#533 = DIRECTION('',(-1.,0.,0.));
#534 = ORIENTED_EDGE('',*,*,#535,.T.);
#535 = EDGE_CURVE('',#527,#536,#538,.T.);
#536 = VERTEX_POINT('',#537);
#537 = CARTESIAN_POINT('',(-2.5,0.,-3.));
#538 = LINE('',#539,#540);
#539 = CARTESIAN_POINT('',(-2.5,0.,24.));
#540 = VECTOR('',#541,1.);
#541 = DIRECTION('',(0.,0.,-1.));
#542 = ORIENTED_EDGE('',*,*,#543,.F.);
#543 = EDGE_CURVE('',#495,#536,#544,.T.);
#544 = CIRCLE('',#545,2.5);
#545 = AXIS2_PLACEMENT_3D('',#546,#547,#548);
#546 = CARTESIAN_POINT('',(0.,0.,-3.));
#547 = DIRECTION('',(0.,0.,-1.));
#548 = DIRECTION('',(-1.,0.,0.));
#549 = CYLINDRICAL_SURFACE('',#550,2.5);
#550 = AXIS2_PLACEMENT_3D('',#551,#552,#553);
#551 = CARTESIAN_POINT('',(0.,0.,24.));
#552 = DIRECTION('',(0.,0.,-1.));
#553 = DIRECTION('',(-1.,0.,0.));
#554 = ADVANCED_FACE('',(#555),#589,.F.);
#555 = FACE_BOUND('',#556,.T.);
#556 = EDGE_LOOP('',(#557,#567,#575,#583));
#557 = ORIENTED_EDGE('',*,*,#558,.F.);
#558 = EDGE_CURVE('',#559,#561,#563,.T.);
#559 = VERTEX_POINT('',#560);
#560 = CARTESIAN_POINT('',(-21.,17.00698948878,-5.75));
#561 = VERTEX_POINT('',#562);
#562 = CARTESIAN_POINT('',(-17.00698948878,21.,-5.75));
#563 = LINE('',#564,#565);
#564 = CARTESIAN_POINT('',(-21.,17.00698948878,-5.75));
#565 = VECTOR('',#566,1.);
#566 = DIRECTION('',(0.707106781187,0.707106781187,0.));
#567 = ORIENTED_EDGE('',*,*,#568,.T.);
#568 = EDGE_CURVE('',#559,#569,#571,.T.);
#569 = VERTEX_POINT('',#570);
#570 = CARTESIAN_POINT('',(-21.,17.00698948878,0.));
#571 = LINE('',#572,#573);
#572 = CARTESIAN_POINT('',(-21.,17.00698948878,0.));
#573 = VECTOR('',#574,1.);
#574 = DIRECTION('',(-0.,-0.,1.));
#575 = ORIENTED_EDGE('',*,*,#576,.F.);
#576 = EDGE_CURVE('',#577,#569,#579,.T.);
#577 = VERTEX_POINT('',#578);
#578 = CARTESIAN_POINT('',(-17.00698948878,21.,0.));
#579 = LINE('',#580,#581);
#580 = CARTESIAN_POINT('',(-17.00698948878,21.,0.));
#581 = VECTOR('',#582,1.);
#582 = DIRECTION('',(-0.707106781187,-0.707106781187,-0.));
#583 = ORIENTED_EDGE('',*,*,#584,.T.);
#584 = EDGE_CURVE('',#577,#561,#585,.T.);
#585 = LINE('',#586,#587);
#586 = CARTESIAN_POINT('',(-17.00698948878,21.,0.));
#587 = VECTOR('',#588,1.);
#588 = DIRECTION('',(0.,-0.,-1.));
#589 = PLANE('',#590);
#590 = AXIS2_PLACEMENT_3D('',#591,#592,#593);
#591 = CARTESIAN_POINT('',(-17.00698948878,21.,0.));
#592 = DIRECTION('',(0.707106781187,-0.707106781187,0.));
#593 = DIRECTION('',(0.707106781187,0.707106781187,0.));
#594 = ADVANCED_FACE('',(#595),#620,.F.);
#595 = FACE_BOUND('',#596,.T.);
#596 = EDGE_LOOP('',(#597,#605,#613,#619));
#597 = ORIENTED_EDGE('',*,*,#598,.F.);
#598 = EDGE_CURVE('',#599,#559,#601,.T.);
#599 = VERTEX_POINT('',#600);
#600 = CARTESIAN_POINT('',(-21.,-17.00698948878,-5.75));
#601 = LINE('',#602,#603);
#602 = CARTESIAN_POINT('',(-21.,-17.00698948878,-5.75));
#603 = VECTOR('',#604,1.);
#604 = DIRECTION('',(0.,1.,0.));
#605 = ORIENTED_EDGE('',*,*,#606,.T.);
#606 = EDGE_CURVE('',#599,#607,#609,.T.);
#607 = VERTEX_POINT('',#608);
#608 = CARTESIAN_POINT('',(-21.,-17.00698948878,0.));
#609 = LINE('',#610,#611);
#610 = CARTESIAN_POINT('',(-21.,-17.00698948878,0.));
#611 = VECTOR('',#612,1.);
#612 = DIRECTION('',(0.,0.,1.));
#613 = ORIENTED_EDGE('',*,*,#614,.F.);
#614 = EDGE_CURVE('',#569,#607,#615,.T.);
#615 = LINE('',#616,#617);
#616 = CARTESIAN_POINT('',(-21.,17.00698948878,0.));
#617 = VECTOR('',#618,1.);
#618 = DIRECTION('',(-0.,-1.,-0.));
#619 = ORIENTED_EDGE('',*,*,#568,.F.);
#620 = PLANE('',#621);
#621 = AXIS2_PLACEMENT_3D('',#622,#623,#624);
#622 = CARTESIAN_POINT('',(-21.,17.00698948878,0.));
#623 = DIRECTION('',(1.,-0.,0.));
#624 = DIRECTION('',(0.,0.,-1.));
#625 = ADVANCED_FACE('',(#626),#651,.F.);
#626 = FACE_BOUND('',#627,.T.);
#627 = EDGE_LOOP('',(#628,#636,#644,#650));
#628 = ORIENTED_EDGE('',*,*,#629,.F.);
#629 = EDGE_CURVE('',#630,#599,#632,.T.);
#630 = VERTEX_POINT('',#631);
#631 = CARTESIAN_POINT('',(-17.00698948878,-21.,-5.75));
#632 = LINE('',#633,#634);
#633 = CARTESIAN_POINT('',(-17.00698948878,-21.,-5.75));
#634 = VECTOR('',#635,1.);
#635 = DIRECTION('',(-0.707106781187,0.707106781187,0.));
#636 = ORIENTED_EDGE('',*,*,#637,.T.);
#637 = EDGE_CURVE('',#630,#638,#640,.T.);
#638 = VERTEX_POINT('',#639);
#639 = CARTESIAN_POINT('',(-17.00698948878,-21.,0.));
#640 = LINE('',#641,#642);
#641 = CARTESIAN_POINT('',(-17.00698948878,-21.,0.));
#642 = VECTOR('',#643,1.);
#643 = DIRECTION('',(0.,0.,1.));
#644 = ORIENTED_EDGE('',*,*,#645,.F.);
#645 = EDGE_CURVE('',#607,#638,#646,.T.);
#646 = LINE('',#647,#648);
#647 = CARTESIAN_POINT('',(-21.,-17.00698948878,0.));
#648 = VECTOR('',#649,1.);
#649 = DIRECTION('',(0.707106781187,-0.707106781187,-0.));
#650 = ORIENTED_EDGE('',*,*,#606,.F.);
#651 = PLANE('',#652);
#652 = AXIS2_PLACEMENT_3D('',#653,#654,#655);
#653 = CARTESIAN_POINT('',(-21.,-17.00698948878,0.));
#654 = DIRECTION('',(0.707106781187,0.707106781187,-0.));
#655 = DIRECTION('',(-0.707106781187,0.707106781187,0.));
#656 = ADVANCED_FACE('',(#657),#682,.F.);
#657 = FACE_BOUND('',#658,.T.);
#658 = EDGE_LOOP('',(#659,#667,#675,#681));
#659 = ORIENTED_EDGE('',*,*,#660,.F.);
#660 = EDGE_CURVE('',#661,#630,#663,.T.);
#661 = VERTEX_POINT('',#662);
#662 = CARTESIAN_POINT('',(17.00698948878,-21.,-5.75));
#663 = LINE('',#664,#665);
#664 = CARTESIAN_POINT('',(17.00698948878,-21.,-5.75));
#665 = VECTOR('',#666,1.);
#666 = DIRECTION('',(-1.,0.,0.));
#667 = ORIENTED_EDGE('',*,*,#668,.T.);
#668 = EDGE_CURVE('',#661,#669,#671,.T.);
#669 = VERTEX_POINT('',#670);
#670 = CARTESIAN_POINT('',(17.00698948878,-21.,0.));
#671 = LINE('',#672,#673);
#672 = CARTESIAN_POINT('',(17.00698948878,-21.,0.));
#673 = VECTOR('',#674,1.);
#674 = DIRECTION('',(0.,0.,1.));
#675 = ORIENTED_EDGE('',*,*,#676,.F.);
#676 = EDGE_CURVE('',#638,#669,#677,.T.);
#677 = LINE('',#678,#679);
#678 = CARTESIAN_POINT('',(-17.00698948878,-21.,0.));
#679 = VECTOR('',#680,1.);
#680 = DIRECTION('',(1.,-0.,0.));
#681 = ORIENTED_EDGE('',*,*,#637,.F.);
#682 = PLANE('',#683);
#683 = AXIS2_PLACEMENT_3D('',#684,#685,#686);
#684 = CARTESIAN_POINT('',(-17.00698948878,-21.,0.));
#685 = DIRECTION('',(0.,1.,-0.));
#686 = DIRECTION('',(0.,0.,1.));
#687 = ADVANCED_FACE('',(#688),#713,.F.);
#688 = FACE_BOUND('',#689,.T.);
#689 = EDGE_LOOP('',(#690,#698,#706,#712));
#690 = ORIENTED_EDGE('',*,*,#691,.F.);
#691 = EDGE_CURVE('',#692,#661,#694,.T.);
#692 = VERTEX_POINT('',#693);
#693 = CARTESIAN_POINT('',(21.,-17.00698948878,-5.75));
#694 = LINE('',#695,#696);
#695 = CARTESIAN_POINT('',(21.,-17.00698948878,-5.75));
#696 = VECTOR('',#697,1.);
#697 = DIRECTION('',(-0.707106781187,-0.707106781187,0.));
#698 = ORIENTED_EDGE('',*,*,#699,.T.);
#699 = EDGE_CURVE('',#692,#700,#702,.T.);
#700 = VERTEX_POINT('',#701);
#701 = CARTESIAN_POINT('',(21.,-17.00698948878,0.));
#702 = LINE('',#703,#704);
#703 = CARTESIAN_POINT('',(21.,-17.00698948878,0.));
#704 = VECTOR('',#705,1.);
#705 = DIRECTION('',(0.,0.,1.));
#706 = ORIENTED_EDGE('',*,*,#707,.F.);
#707 = EDGE_CURVE('',#669,#700,#708,.T.);
#708 = LINE('',#709,#710);
#709 = CARTESIAN_POINT('',(21.,-17.00698948878,0.));
#710 = VECTOR('',#711,1.);
#711 = DIRECTION('',(0.707106781187,0.707106781187,-0.));
#712 = ORIENTED_EDGE('',*,*,#668,.F.);
#713 = PLANE('',#714);
#714 = AXIS2_PLACEMENT_3D('',#715,#716,#717);
#715 = CARTESIAN_POINT('',(21.,-17.00698948878,0.));
#716 = DIRECTION('',(-0.707106781187,0.707106781187,0.));
#717 = DIRECTION('',(-0.707106781187,-0.707106781187,0.));
#718 = ADVANCED_FACE('',(#719),#744,.F.);
#719 = FACE_BOUND('',#720,.T.);
#720 = EDGE_LOOP('',(#721,#729,#737,#743));
#721 = ORIENTED_EDGE('',*,*,#722,.F.);
#722 = EDGE_CURVE('',#723,#692,#725,.T.);
#723 = VERTEX_POINT('',#724);
#724 = CARTESIAN_POINT('',(21.,17.00698948878,-5.75));
#725 = LINE('',#726,#727);
#726 = CARTESIAN_POINT('',(21.,17.00698948878,-5.75));
#727 = VECTOR('',#728,1.);
#728 = DIRECTION('',(0.,-1.,0.));
#729 = ORIENTED_EDGE('',*,*,#730,.T.);
#730 = EDGE_CURVE('',#723,#731,#733,.T.);
#731 = VERTEX_POINT('',#732);
#732 = CARTESIAN_POINT('',(21.,17.00698948878,0.));
#733 = LINE('',#734,#735);
#734 = CARTESIAN_POINT('',(21.,17.00698948878,0.));
#735 = VECTOR('',#736,1.);
#736 = DIRECTION('',(0.,0.,1.));
#737 = ORIENTED_EDGE('',*,*,#738,.F.);
#738 = EDGE_CURVE('',#700,#731,#739,.T.);
#739 = LINE('',#740,#741);
#740 = CARTESIAN_POINT('',(21.,17.00698948878,0.));
#741 = VECTOR('',#742,1.);
#742 = DIRECTION('',(0.,1.,-0.));
#743 = ORIENTED_EDGE('',*,*,#699,.F.);
#744 = PLANE('',#745);
#745 = AXIS2_PLACEMENT_3D('',#746,#747,#748);
#746 = CARTESIAN_POINT('',(21.,17.00698948878,0.));
#747 = DIRECTION('',(-1.,0.,0.));
#748 = DIRECTION('',(0.,0.,1.));
#749 = ADVANCED_FACE('',(#750),#775,.F.);
#750 = FACE_BOUND('',#751,.T.);
#751 = EDGE_LOOP('',(#752,#760,#768,#774));
#752 = ORIENTED_EDGE('',*,*,#753,.F.);
#753 = EDGE_CURVE('',#754,#723,#756,.T.);
#754 = VERTEX_POINT('',#755);
#755 = CARTESIAN_POINT('',(17.00698948878,21.,-5.75));
#756 = LINE('',#757,#758);
#757 = CARTESIAN_POINT('',(17.00698948878,21.,-5.75));
#758 = VECTOR('',#759,1.);
#759 = DIRECTION('',(0.707106781187,-0.707106781187,0.));
#760 = ORIENTED_EDGE('',*,*,#761,.T.);
#761 = EDGE_CURVE('',#754,#762,#764,.T.);
#762 = VERTEX_POINT('',#763);
#763 = CARTESIAN_POINT('',(17.00698948878,21.,0.));
#764 = LINE('',#765,#766);
#765 = CARTESIAN_POINT('',(17.00698948878,21.,0.));
#766 = VECTOR('',#767,1.);
#767 = DIRECTION('',(-0.,0.,1.));
#768 = ORIENTED_EDGE('',*,*,#769,.F.);
#769 = EDGE_CURVE('',#731,#762,#770,.T.);
#770 = LINE('',#771,#772);
#771 = CARTESIAN_POINT('',(17.00698948878,21.,0.));
#772 = VECTOR('',#773,1.);
#773 = DIRECTION('',(-0.707106781187,0.707106781187,-0.));
#774 = ORIENTED_EDGE('',*,*,#730,.F.);
#775 = PLANE('',#776);
#776 = AXIS2_PLACEMENT_3D('',#777,#778,#779);
#777 = CARTESIAN_POINT('',(17.00698948878,21.,0.));
#778 = DIRECTION('',(-0.707106781187,-0.707106781187,0.));
#779 = DIRECTION('',(0.707106781187,-0.707106781187,0.));
#780 = ADVANCED_FACE('',(#781),#797,.F.);
#781 = FACE_BOUND('',#782,.T.);
#782 = EDGE_LOOP('',(#783,#789,#790,#796));
#783 = ORIENTED_EDGE('',*,*,#784,.F.);
#784 = EDGE_CURVE('',#561,#754,#785,.T.);
#785 = LINE('',#786,#787);
#786 = CARTESIAN_POINT('',(-17.00698948878,21.,-5.75));
#787 = VECTOR('',#788,1.);
#788 = DIRECTION('',(1.,0.,0.));
#789 = ORIENTED_EDGE('',*,*,#584,.F.);
#790 = ORIENTED_EDGE('',*,*,#791,.F.);
#791 = EDGE_CURVE('',#762,#577,#792,.T.);
#792 = LINE('',#793,#794);
#793 = CARTESIAN_POINT('',(-17.00698948878,21.,0.));
#794 = VECTOR('',#795,1.);
#795 = DIRECTION('',(-1.,-0.,-0.));
#796 = ORIENTED_EDGE('',*,*,#761,.F.);
#797 = PLANE('',#798);
#798 = AXIS2_PLACEMENT_3D('',#799,#800,#801);
#799 = CARTESIAN_POINT('',(-17.00698948878,21.,0.));
#800 = DIRECTION('',(0.,-1.,0.));
#801 = DIRECTION('',(0.,-0.,-1.));
#802 = ADVANCED_FACE('',(#803,#813,#823,#833,#843,#853),#863,.T.);
#803 = FACE_BOUND('',#804,.T.);
#804 = EDGE_LOOP('',(#805,#806));
#805 = ORIENTED_EDGE('',*,*,#199,.T.);
#806 = ORIENTED_EDGE('',*,*,#807,.T.);
#807 = EDGE_CURVE('',#200,#192,#808,.T.);
#808 = CIRCLE('',#809,16.5);
#809 = AXIS2_PLACEMENT_3D('',#810,#811,#812);
#810 = CARTESIAN_POINT('',(0.,0.,0.));
#811 = DIRECTION('',(0.,0.,-1.));
#812 = DIRECTION('',(1.,0.,0.));
#813 = FACE_BOUND('',#814,.T.);
#814 = EDGE_LOOP('',(#815,#816));
#815 = ORIENTED_EDGE('',*,*,#241,.T.);
#816 = ORIENTED_EDGE('',*,*,#817,.T.);
#817 = EDGE_CURVE('',#242,#234,#818,.T.);
#818 = CIRCLE('',#819,1.5);
#819 = AXIS2_PLACEMENT_3D('',#820,#821,#822);
#820 = CARTESIAN_POINT('',(-15.5,-15.5,0.));
#821 = DIRECTION('',(0.,0.,-1.));
#822 = DIRECTION('',(1.,0.,0.));
#823 = FACE_BOUND('',#824,.T.);
#824 = EDGE_LOOP('',(#825,#826));
#825 = ORIENTED_EDGE('',*,*,#283,.T.);
#826 = ORIENTED_EDGE('',*,*,#827,.T.);
#827 = EDGE_CURVE('',#284,#276,#828,.T.);
#828 = CIRCLE('',#829,1.5);
#829 = AXIS2_PLACEMENT_3D('',#830,#831,#832);
#830 = CARTESIAN_POINT('',(15.5,-15.5,0.));
#831 = DIRECTION('',(0.,0.,-1.));
#832 = DIRECTION('',(1.,0.,0.));
#833 = FACE_BOUND('',#834,.T.);
#834 = EDGE_LOOP('',(#835,#836));
#835 = ORIENTED_EDGE('',*,*,#325,.T.);
#836 = ORIENTED_EDGE('',*,*,#837,.T.);
#837 = EDGE_CURVE('',#326,#318,#838,.T.);
#838 = CIRCLE('',#839,1.5);
#839 = AXIS2_PLACEMENT_3D('',#840,#841,#842);
#840 = CARTESIAN_POINT('',(-15.5,15.5,0.));
#841 = DIRECTION('',(0.,0.,-1.));
#842 = DIRECTION('',(1.,0.,0.));
#843 = FACE_BOUND('',#844,.T.);
#844 = EDGE_LOOP('',(#845,#846));
#845 = ORIENTED_EDGE('',*,*,#367,.T.);
#846 = ORIENTED_EDGE('',*,*,#847,.T.);
#847 = EDGE_CURVE('',#368,#360,#848,.T.);
#848 = CIRCLE('',#849,1.5);
#849 = AXIS2_PLACEMENT_3D('',#850,#851,#852);
#850 = CARTESIAN_POINT('',(15.5,15.5,0.));
#851 = DIRECTION('',(0.,0.,-1.));
#852 = DIRECTION('',(1.,0.,0.));
#853 = FACE_BOUND('',#854,.T.);
#854 = EDGE_LOOP('',(#855,#856,#857,#858,#859,#860,#861,#862));
#855 = ORIENTED_EDGE('',*,*,#614,.T.);
#856 = ORIENTED_EDGE('',*,*,#645,.T.);
#857 = ORIENTED_EDGE('',*,*,#676,.T.);
#858 = ORIENTED_EDGE('',*,*,#707,.T.);
#859 = ORIENTED_EDGE('',*,*,#738,.T.);
#860 = ORIENTED_EDGE('',*,*,#769,.T.);
#861 = ORIENTED_EDGE('',*,*,#791,.T.);
#862 = ORIENTED_EDGE('',*,*,#576,.T.);
#863 = PLANE('',#864);
#864 = AXIS2_PLACEMENT_3D('',#865,#866,#867);
#865 = CARTESIAN_POINT('',(0.,0.,0.));
#866 = DIRECTION('',(0.,0.,1.));
#867 = DIRECTION('',(1.,0.,-0.));
#868 = ADVANCED_FACE('',(#869),#881,.F.);
#869 = FACE_BOUND('',#870,.F.);
#870 = EDGE_LOOP('',(#871,#872,#873,#880));
#871 = ORIENTED_EDGE('',*,*,#807,.T.);
#872 = ORIENTED_EDGE('',*,*,#189,.F.);
#873 = ORIENTED_EDGE('',*,*,#874,.T.);
#874 = EDGE_CURVE('',#190,#209,#875,.T.);
#875 = CIRCLE('',#876,16.5);
#876 = AXIS2_PLACEMENT_3D('',#877,#878,#879);
#877 = CARTESIAN_POINT('',(0.,0.,-0.5));
#878 = DIRECTION('',(0.,0.,1.));
#879 = DIRECTION('',(1.,0.,-0.));
#880 = ORIENTED_EDGE('',*,*,#208,.T.);
#881 = CYLINDRICAL_SURFACE('',#882,16.5);
#882 = AXIS2_PLACEMENT_3D('',#883,#884,#885);
#883 = CARTESIAN_POINT('',(0.,0.,-0.5));
#884 = DIRECTION('',(0.,0.,1.));
#885 = DIRECTION('',(1.,0.,-0.));
#886 = ADVANCED_FACE('',(#887),#899,.F.);
#887 = FACE_BOUND('',#888,.F.);
#888 = EDGE_LOOP('',(#889,#890,#891,#898));
#889 = ORIENTED_EDGE('',*,*,#817,.T.);
#890 = ORIENTED_EDGE('',*,*,#231,.F.);
#891 = ORIENTED_EDGE('',*,*,#892,.T.);
#892 = EDGE_CURVE('',#232,#251,#893,.T.);
#893 = CIRCLE('',#894,1.5);
#894 = AXIS2_PLACEMENT_3D('',#895,#896,#897);
#895 = CARTESIAN_POINT('',(-15.5,-15.5,-5.));
#896 = DIRECTION('',(0.,0.,1.));
#897 = DIRECTION('',(1.,0.,-0.));
#898 = ORIENTED_EDGE('',*,*,#250,.T.);
#899 = CYLINDRICAL_SURFACE('',#900,1.5);
#900 = AXIS2_PLACEMENT_3D('',#901,#902,#903);
#901 = CARTESIAN_POINT('',(-15.5,-15.5,-5.));
#902 = DIRECTION('',(0.,0.,1.));
#903 = DIRECTION('',(1.,0.,-0.));
#904 = ADVANCED_FACE('',(#905),#917,.F.);
#905 = FACE_BOUND('',#906,.F.);
#906 = EDGE_LOOP('',(#907,#908,#909,#916));
#907 = ORIENTED_EDGE('',*,*,#827,.T.);
#908 = ORIENTED_EDGE('',*,*,#273,.F.);
#909 = ORIENTED_EDGE('',*,*,#910,.T.);
#910 = EDGE_CURVE('',#274,#293,#911,.T.);
#911 = CIRCLE('',#912,1.5);
#912 = AXIS2_PLACEMENT_3D('',#913,#914,#915);
#913 = CARTESIAN_POINT('',(15.5,-15.5,-5.));
#914 = DIRECTION('',(0.,0.,1.));
#915 = DIRECTION('',(1.,0.,-0.));
#916 = ORIENTED_EDGE('',*,*,#292,.T.);
#917 = CYLINDRICAL_SURFACE('',#918,1.5);
#918 = AXIS2_PLACEMENT_3D('',#919,#920,#921);
#919 = CARTESIAN_POINT('',(15.5,-15.5,-5.));
#920 = DIRECTION('',(0.,0.,1.));
#921 = DIRECTION('',(1.,0.,-0.));
#922 = ADVANCED_FACE('',(#923),#935,.F.);
#923 = FACE_BOUND('',#924,.F.);
#924 = EDGE_LOOP('',(#925,#926,#927,#934));
#925 = ORIENTED_EDGE('',*,*,#837,.T.);
#926 = ORIENTED_EDGE('',*,*,#315,.F.);
#927 = ORIENTED_EDGE('',*,*,#928,.T.);
#928 = EDGE_CURVE('',#316,#335,#929,.T.);
#929 = CIRCLE('',#930,1.5);
#930 = AXIS2_PLACEMENT_3D('',#931,#932,#933);
#931 = CARTESIAN_POINT('',(-15.5,15.5,-5.));
#932 = DIRECTION('',(0.,0.,1.));
#933 = DIRECTION('',(1.,0.,-0.));
#934 = ORIENTED_EDGE('',*,*,#334,.T.);
#935 = CYLINDRICAL_SURFACE('',#936,1.5);
#936 = AXIS2_PLACEMENT_3D('',#937,#938,#939);
#937 = CARTESIAN_POINT('',(-15.5,15.5,-5.));
#938 = DIRECTION('',(0.,0.,1.));
#939 = DIRECTION('',(1.,0.,-0.));
#940 = ADVANCED_FACE('',(#941),#953,.F.);
#941 = FACE_BOUND('',#942,.F.);
#942 = EDGE_LOOP('',(#943,#944,#945,#952));
#943 = ORIENTED_EDGE('',*,*,#847,.T.);
#944 = ORIENTED_EDGE('',*,*,#357,.F.);
#945 = ORIENTED_EDGE('',*,*,#946,.T.);
#946 = EDGE_CURVE('',#358,#377,#947,.T.);
#947 = CIRCLE('',#948,1.5);
#948 = AXIS2_PLACEMENT_3D('',#949,#950,#951);
#949 = CARTESIAN_POINT('',(15.5,15.5,-5.));
#950 = DIRECTION('',(0.,0.,1.));
#951 = DIRECTION('',(1.,0.,-0.));
#952 = ORIENTED_EDGE('',*,*,#376,.T.);
#953 = CYLINDRICAL_SURFACE('',#954,1.5);
#954 = AXIS2_PLACEMENT_3D('',#955,#956,#957);
#955 = CARTESIAN_POINT('',(15.5,15.5,-5.));
#956 = DIRECTION('',(0.,0.,1.));
#957 = DIRECTION('',(1.,0.,-0.));
#958 = ADVANCED_FACE('',(#959,#969),#973,.T.);
#959 = FACE_BOUND('',#960,.T.);
#960 = EDGE_LOOP('',(#961,#962));
#961 = ORIENTED_EDGE('',*,*,#418,.T.);
#962 = ORIENTED_EDGE('',*,*,#963,.T.);
#963 = EDGE_CURVE('',#411,#419,#964,.T.);
#964 = CIRCLE('',#965,11.);
#965 = AXIS2_PLACEMENT_3D('',#966,#967,#968);
#966 = CARTESIAN_POINT('',(0.,0.,-0.5));
#967 = DIRECTION('',(0.,0.,-1.));
#968 = DIRECTION('',(-1.,0.,0.));
#969 = FACE_BOUND('',#970,.T.);
#970 = EDGE_LOOP('',(#971,#972));
#971 = ORIENTED_EDGE('',*,*,#874,.T.);
#972 = ORIENTED_EDGE('',*,*,#216,.T.);
#973 = PLANE('',#974);
#974 = AXIS2_PLACEMENT_3D('',#975,#976,#977);
#975 = CARTESIAN_POINT('',(0.,0.,-0.5));
#976 = DIRECTION('',(0.,0.,1.));
#977 = DIRECTION('',(1.,0.,-0.));
#978 = ADVANCED_FACE('',(#979),#983,.T.);
#979 = FACE_BOUND('',#980,.T.);
#980 = EDGE_LOOP('',(#981,#982));
#981 = ORIENTED_EDGE('',*,*,#892,.T.);
#982 = ORIENTED_EDGE('',*,*,#258,.T.);
#983 = PLANE('',#984);
#984 = AXIS2_PLACEMENT_3D('',#985,#986,#987);
#985 = CARTESIAN_POINT('',(-15.5,-15.5,-5.));
#986 = DIRECTION('',(0.,0.,1.));
#987 = DIRECTION('',(1.,0.,-0.));
#988 = ADVANCED_FACE('',(#989),#993,.T.);
#989 = FACE_BOUND('',#990,.T.);
#990 = EDGE_LOOP('',(#991,#992));
#991 = ORIENTED_EDGE('',*,*,#910,.T.);
#992 = ORIENTED_EDGE('',*,*,#300,.T.);
#993 = PLANE('',#994);
#994 = AXIS2_PLACEMENT_3D('',#995,#996,#997);
#995 = CARTESIAN_POINT('',(15.5,-15.5,-5.));
#996 = DIRECTION('',(0.,0.,1.));
#997 = DIRECTION('',(1.,0.,-0.));
#998 = ADVANCED_FACE('',(#999),#1003,.T.);
#999 = FACE_BOUND('',#1000,.T.);
#1000 = EDGE_LOOP('',(#1001,#1002));
#1001 = ORIENTED_EDGE('',*,*,#928,.T.);
#1002 = ORIENTED_EDGE('',*,*,#342,.T.);
#1003 = PLANE('',#1004);
#1004 = AXIS2_PLACEMENT_3D('',#1005,#1006,#1007);
#1005 = CARTESIAN_POINT('',(-15.5,15.5,-5.));
#1006 = DIRECTION('',(0.,0.,1.));
#1007 = DIRECTION('',(1.,0.,-0.));
#1008 = ADVANCED_FACE('',(#1009),#1013,.T.);
#1009 = FACE_BOUND('',#1010,.T.);
#1010 = EDGE_LOOP('',(#1011,#1012));
#1011 = ORIENTED_EDGE('',*,*,#946,.T.);
#1012 = ORIENTED_EDGE('',*,*,#384,.T.);
#1013 = PLANE('',#1014);
#1014 = AXIS2_PLACEMENT_3D('',#1015,#1016,#1017);
#1015 = CARTESIAN_POINT('',(15.5,15.5,-5.));
#1016 = DIRECTION('',(0.,0.,1.));
#1017 = DIRECTION('',(1.,0.,-0.));
#1018 = ADVANCED_FACE('',(#1019),#1031,.T.);
#1019 = FACE_BOUND('',#1020,.T.);
#1020 = EDGE_LOOP('',(#1021,#1022,#1029,#1030));
#1021 = ORIENTED_EDGE('',*,*,#410,.F.);
#1022 = ORIENTED_EDGE('',*,*,#1023,.T.);
#1023 = EDGE_CURVE('',#402,#400,#1024,.T.);
#1024 = CIRCLE('',#1025,11.);
#1025 = AXIS2_PLACEMENT_3D('',#1026,#1027,#1028);
#1026 = CARTESIAN_POINT('',(0.,0.,2.));
#1027 = DIRECTION('',(0.,0.,-1.));
#1028 = DIRECTION('',(-1.,0.,0.));
#1029 = ORIENTED_EDGE('',*,*,#427,.T.);
#1030 = ORIENTED_EDGE('',*,*,#963,.F.);
#1031 = CYLINDRICAL_SURFACE('',#1032,11.);
#1032 = AXIS2_PLACEMENT_3D('',#1033,#1034,#1035);
#1033 = CARTESIAN_POINT('',(0.,0.,2.));
#1034 = DIRECTION('',(0.,0.,-1.));
#1035 = DIRECTION('',(-1.,0.,0.));
#1036 = ADVANCED_FACE('',(#1037,#1047),#1051,.T.);
#1037 = FACE_BOUND('',#1038,.T.);
#1038 = EDGE_LOOP('',(#1039,#1040));
#1039 = ORIENTED_EDGE('',*,*,#451,.T.);
#1040 = ORIENTED_EDGE('',*,*,#1041,.T.);
#1041 = EDGE_CURVE('',#452,#444,#1042,.T.);
#1042 = CIRCLE('',#1043,3.5);
#1043 = AXIS2_PLACEMENT_3D('',#1044,#1045,#1046);
#1044 = CARTESIAN_POINT('',(0.,0.,2.));
#1045 = DIRECTION('',(0.,0.,-1.));
#1046 = DIRECTION('',(1.,0.,0.));
#1047 = FACE_BOUND('',#1048,.T.);
#1048 = EDGE_LOOP('',(#1049,#1050));
#1049 = ORIENTED_EDGE('',*,*,#399,.F.);
#1050 = ORIENTED_EDGE('',*,*,#1023,.F.);
#1051 = PLANE('',#1052);
#1052 = AXIS2_PLACEMENT_3D('',#1053,#1054,#1055);
#1053 = CARTESIAN_POINT('',(0.,0.,2.));
#1054 = DIRECTION('',(0.,0.,1.));
#1055 = DIRECTION('',(1.,0.,-0.));
#1056 = ADVANCED_FACE('',(#1057),#1069,.F.);
#1057 = FACE_BOUND('',#1058,.F.);
#1058 = EDGE_LOOP('',(#1059,#1060,#1061,#1068));
#1059 = ORIENTED_EDGE('',*,*,#1041,.T.);
#1060 = ORIENTED_EDGE('',*,*,#441,.F.);
#1061 = ORIENTED_EDGE('',*,*,#1062,.T.);
#1062 = EDGE_CURVE('',#442,#461,#1063,.T.);
#1063 = CIRCLE('',#1064,3.5);
#1064 = AXIS2_PLACEMENT_3D('',#1065,#1066,#1067);
#1065 = CARTESIAN_POINT('',(0.,0.,-3.));
#1066 = DIRECTION('',(0.,0.,1.));
#1067 = DIRECTION('',(1.,0.,-0.));
#1068 = ORIENTED_EDGE('',*,*,#460,.T.);
#1069 = CYLINDRICAL_SURFACE('',#1070,3.5);
#1070 = AXIS2_PLACEMENT_3D('',#1071,#1072,#1073);
#1071 = CARTESIAN_POINT('',(0.,0.,-3.));
#1072 = DIRECTION('',(0.,0.,1.));
#1073 = DIRECTION('',(1.,0.,-0.));
#1074 = ADVANCED_FACE('',(#1075,#1094),#1098,.T.);
#1075 = FACE_BOUND('',#1076,.T.);
#1076 = EDGE_LOOP('',(#1077,#1085,#1086,#1087));
#1077 = ORIENTED_EDGE('',*,*,#1078,.T.);
#1078 = EDGE_CURVE('',#1079,#503,#1081,.T.);
#1079 = VERTEX_POINT('',#1080);
#1080 = CARTESIAN_POINT('',(-1.5,2.,-3.));
#1081 = LINE('',#1082,#1083);
#1082 = CARTESIAN_POINT('',(0.,2.,-3.));
#1083 = VECTOR('',#1084,1.);
#1084 = DIRECTION('',(1.,0.,-0.));
#1085 = ORIENTED_EDGE('',*,*,#502,.T.);
#1086 = ORIENTED_EDGE('',*,*,#543,.T.);
#1087 = ORIENTED_EDGE('',*,*,#1088,.T.);
#1088 = EDGE_CURVE('',#536,#1079,#1089,.T.);
#1089 = CIRCLE('',#1090,2.5);
#1090 = AXIS2_PLACEMENT_3D('',#1091,#1092,#1093);
#1091 = CARTESIAN_POINT('',(0.,0.,-3.));
#1092 = DIRECTION('',(0.,0.,-1.));
#1093 = DIRECTION('',(-1.,0.,0.));
#1094 = FACE_BOUND('',#1095,.T.);
#1095 = EDGE_LOOP('',(#1096,#1097));
#1096 = ORIENTED_EDGE('',*,*,#1062,.T.);
#1097 = ORIENTED_EDGE('',*,*,#468,.T.);
#1098 = PLANE('',#1099);
#1099 = AXIS2_PLACEMENT_3D('',#1100,#1101,#1102);
#1100 = CARTESIAN_POINT('',(0.,0.,-3.));
#1101 = DIRECTION('',(0.,0.,1.));
#1102 = DIRECTION('',(1.,0.,-0.));
#1103 = ADVANCED_FACE('',(#1104),#1123,.T.);
#1104 = FACE_BOUND('',#1105,.T.);
#1105 = EDGE_LOOP('',(#1106,#1107,#1116,#1122));
#1106 = ORIENTED_EDGE('',*,*,#535,.F.);
#1107 = ORIENTED_EDGE('',*,*,#1108,.T.);
#1108 = EDGE_CURVE('',#527,#1109,#1111,.T.);
#1109 = VERTEX_POINT('',#1110);
#1110 = CARTESIAN_POINT('',(-1.5,2.,20.));
#1111 = CIRCLE('',#1112,2.5);
#1112 = AXIS2_PLACEMENT_3D('',#1113,#1114,#1115);
#1113 = CARTESIAN_POINT('',(0.,0.,20.));
#1114 = DIRECTION('',(0.,0.,-1.));
#1115 = DIRECTION('',(-1.,0.,0.));
#1116 = ORIENTED_EDGE('',*,*,#1117,.T.);
#1117 = EDGE_CURVE('',#1109,#1079,#1118,.T.);
#1118 = LINE('',#1119,#1120);
#1119 = CARTESIAN_POINT('',(-1.5,2.,24.));
#1120 = VECTOR('',#1121,1.);
#1121 = DIRECTION('',(0.,-0.,-1.));
#1122 = ORIENTED_EDGE('',*,*,#1088,.F.);
#1123 = CYLINDRICAL_SURFACE('',#1124,2.5);
#1124 = AXIS2_PLACEMENT_3D('',#1125,#1126,#1127);
#1125 = CARTESIAN_POINT('',(0.,0.,24.));
#1126 = DIRECTION('',(0.,0.,-1.));
#1127 = DIRECTION('',(-1.,0.,0.));
#1128 = ADVANCED_FACE('',(#1129),#1140,.F.);
#1129 = FACE_BOUND('',#1130,.T.);
#1130 = EDGE_LOOP('',(#1131,#1132,#1133,#1134));
#1131 = ORIENTED_EDGE('',*,*,#511,.F.);
#1132 = ORIENTED_EDGE('',*,*,#1078,.F.);
#1133 = ORIENTED_EDGE('',*,*,#1117,.F.);
#1134 = ORIENTED_EDGE('',*,*,#1135,.F.);
#1135 = EDGE_CURVE('',#484,#1109,#1136,.T.);
#1136 = LINE('',#1137,#1138);
#1137 = CARTESIAN_POINT('',(-1.5,2.,20.));
#1138 = VECTOR('',#1139,1.);
#1139 = DIRECTION('',(-1.,-0.,-0.));
#1140 = PLANE('',#1141);
#1141 = AXIS2_PLACEMENT_3D('',#1142,#1143,#1144);
#1142 = CARTESIAN_POINT('',(-1.5,2.,24.));
#1143 = DIRECTION('',(0.,-1.,0.));
#1144 = DIRECTION('',(0.,-0.,-1.));
#1145 = ADVANCED_FACE('',(#1146),#1152,.T.);
#1146 = FACE_BOUND('',#1147,.T.);
#1147 = EDGE_LOOP('',(#1148,#1149,#1150,#1151));
#1148 = ORIENTED_EDGE('',*,*,#1135,.T.);
#1149 = ORIENTED_EDGE('',*,*,#1108,.F.);
#1150 = ORIENTED_EDGE('',*,*,#526,.F.);
#1151 = ORIENTED_EDGE('',*,*,#483,.F.);
#1152 = PLANE('',#1153);
#1153 = AXIS2_PLACEMENT_3D('',#1154,#1155,#1156);
#1154 = CARTESIAN_POINT('',(0.,0.,20.));
#1155 = DIRECTION('',(0.,0.,1.));
#1156 = DIRECTION('',(1.,0.,-0.));
#1157 = ADVANCED_FACE('',(#1158),#1192,.F.);
#1158 = FACE_BOUND('',#1159,.T.);
#1159 = EDGE_LOOP('',(#1160,#1170,#1178,#1186));
#1160 = ORIENTED_EDGE('',*,*,#1161,.F.);
#1161 = EDGE_CURVE('',#1162,#1164,#1166,.T.);
#1162 = VERTEX_POINT('',#1163);
#1163 = CARTESIAN_POINT('',(-21.,-8.5,-23.75));
#1164 = VERTEX_POINT('',#1165);
#1165 = CARTESIAN_POINT('',(-21.,8.5,-23.75));
#1166 = LINE('',#1167,#1168);
#1167 = CARTESIAN_POINT('',(-21.,17.00698948878,-23.75));
#1168 = VECTOR('',#1169,1.);
#1169 = DIRECTION('',(0.,1.,0.));
#1170 = ORIENTED_EDGE('',*,*,#1171,.F.);
#1171 = EDGE_CURVE('',#1172,#1162,#1174,.T.);
#1172 = VERTEX_POINT('',#1173);
#1173 = CARTESIAN_POINT('',(-21.,-8.5,-26.75));
#1174 = LINE('',#1175,#1176);
#1175 = CARTESIAN_POINT('',(-21.,-8.5,-33.75));
#1176 = VECTOR('',#1177,1.);
#1177 = DIRECTION('',(0.,-0.,1.));
#1178 = ORIENTED_EDGE('',*,*,#1179,.T.);
#1179 = EDGE_CURVE('',#1172,#1180,#1182,.T.);
#1180 = VERTEX_POINT('',#1181);
#1181 = CARTESIAN_POINT('',(-21.,8.5,-26.75));
#1182 = LINE('',#1183,#1184);
#1183 = CARTESIAN_POINT('',(-21.,-17.00698948878,-26.75));
#1184 = VECTOR('',#1185,1.);
#1185 = DIRECTION('',(0.,1.,0.));
#1186 = ORIENTED_EDGE('',*,*,#1187,.F.);
#1187 = EDGE_CURVE('',#1164,#1180,#1188,.T.);
#1188 = LINE('',#1189,#1190);
#1189 = CARTESIAN_POINT('',(-21.,8.5,0.));
#1190 = VECTOR('',#1191,1.);
#1191 = DIRECTION('',(0.,0.,-1.));
#1192 = PLANE('',#1193);
#1193 = AXIS2_PLACEMENT_3D('',#1194,#1195,#1196);
#1194 = CARTESIAN_POINT('',(-21.,-17.00698948878,-5.75));
#1195 = DIRECTION('',(-1.,0.,0.));
#1196 = DIRECTION('',(0.,0.,1.));
#1197 = ADVANCED_FACE('',(#1198,#1268),#1278,.T.);
#1198 = FACE_BOUND('',#1199,.T.);
#1199 = EDGE_LOOP('',(#1200,#1210,#1219,#1227,#1236,#1244,#1253,#1261));
#1200 = ORIENTED_EDGE('',*,*,#1201,.F.);
#1201 = EDGE_CURVE('',#1202,#1204,#1206,.T.);
#1202 = VERTEX_POINT('',#1203);
#1203 = CARTESIAN_POINT('',(-15.5,19.5,-5.75));
#1204 = VERTEX_POINT('',#1205);
#1205 = CARTESIAN_POINT('',(15.5,19.5,-5.75));
#1206 = LINE('',#1207,#1208);
#1207 = CARTESIAN_POINT('',(15.5,19.5,-5.75));
#1208 = VECTOR('',#1209,1.);
#1209 = DIRECTION('',(1.,-0.,-0.));
#1210 = ORIENTED_EDGE('',*,*,#1211,.F.);
#1211 = EDGE_CURVE('',#1212,#1202,#1214,.T.);
#1212 = VERTEX_POINT('',#1213);
#1213 = CARTESIAN_POINT('',(-19.5,15.5,-5.75));
#1214 = CIRCLE('',#1215,4.);
#1215 = AXIS2_PLACEMENT_3D('',#1216,#1217,#1218);
#1216 = CARTESIAN_POINT('',(-15.5,15.5,-5.75));
#1217 = DIRECTION('',(0.,0.,-1.));
#1218 = DIRECTION('',(1.,0.,0.));
#1219 = ORIENTED_EDGE('',*,*,#1220,.F.);
#1220 = EDGE_CURVE('',#1221,#1212,#1223,.T.);
#1221 = VERTEX_POINT('',#1222);
#1222 = CARTESIAN_POINT('',(-19.5,-15.5,-5.75));
#1223 = LINE('',#1224,#1225);
#1224 = CARTESIAN_POINT('',(-19.5,-15.5,-5.75));
#1225 = VECTOR('',#1226,1.);
#1226 = DIRECTION('',(0.,1.,0.));
#1227 = ORIENTED_EDGE('',*,*,#1228,.F.);
#1228 = EDGE_CURVE('',#1229,#1221,#1231,.T.);
#1229 = VERTEX_POINT('',#1230);
#1230 = CARTESIAN_POINT('',(-15.5,-19.5,-5.75));
#1231 = CIRCLE('',#1232,4.);
#1232 = AXIS2_PLACEMENT_3D('',#1233,#1234,#1235);
#1233 = CARTESIAN_POINT('',(-15.5,-15.5,-5.75));
#1234 = DIRECTION('',(0.,0.,-1.));
#1235 = DIRECTION('',(-1.,0.,0.));
#1236 = ORIENTED_EDGE('',*,*,#1237,.F.);
#1237 = EDGE_CURVE('',#1238,#1229,#1240,.T.);
#1238 = VERTEX_POINT('',#1239);
#1239 = CARTESIAN_POINT('',(15.5,-19.5,-5.75));
#1240 = LINE('',#1241,#1242);
#1241 = CARTESIAN_POINT('',(15.5,-19.5,-5.75));
#1242 = VECTOR('',#1243,1.);
#1243 = DIRECTION('',(-1.,0.,0.));
#1244 = ORIENTED_EDGE('',*,*,#1245,.F.);
#1245 = EDGE_CURVE('',#1246,#1238,#1248,.T.);
#1246 = VERTEX_POINT('',#1247);
#1247 = CARTESIAN_POINT('',(19.5,-15.5,-5.75));
#1248 = CIRCLE('',#1249,4.);
#1249 = AXIS2_PLACEMENT_3D('',#1250,#1251,#1252);
#1250 = CARTESIAN_POINT('',(15.5,-15.5,-5.75));
#1251 = DIRECTION('',(0.,0.,-1.));
#1252 = DIRECTION('',(1.,0.,0.));
#1253 = ORIENTED_EDGE('',*,*,#1254,.F.);
#1254 = EDGE_CURVE('',#1255,#1246,#1257,.T.);
#1255 = VERTEX_POINT('',#1256);
#1256 = CARTESIAN_POINT('',(19.5,15.5,-5.75));
#1257 = LINE('',#1258,#1259);
#1258 = CARTESIAN_POINT('',(19.5,-15.5,-5.75));
#1259 = VECTOR('',#1260,1.);
#1260 = DIRECTION('',(-0.,-1.,-0.));
#1261 = ORIENTED_EDGE('',*,*,#1262,.F.);
#1262 = EDGE_CURVE('',#1204,#1255,#1263,.T.);
#1263 = CIRCLE('',#1264,4.);
#1264 = AXIS2_PLACEMENT_3D('',#1265,#1266,#1267);
#1265 = CARTESIAN_POINT('',(15.5,15.5,-5.75));
#1266 = DIRECTION('',(0.,0.,-1.));
#1267 = DIRECTION('',(1.,0.,0.));
#1268 = FACE_BOUND('',#1269,.T.);
#1269 = EDGE_LOOP('',(#1270,#1271,#1272,#1273,#1274,#1275,#1276,#1277));
#1270 = ORIENTED_EDGE('',*,*,#558,.T.);
#1271 = ORIENTED_EDGE('',*,*,#784,.T.);
#1272 = ORIENTED_EDGE('',*,*,#753,.T.);
#1273 = ORIENTED_EDGE('',*,*,#722,.T.);
#1274 = ORIENTED_EDGE('',*,*,#691,.T.);
#1275 = ORIENTED_EDGE('',*,*,#660,.T.);
#1276 = ORIENTED_EDGE('',*,*,#629,.T.);
#1277 = ORIENTED_EDGE('',*,*,#598,.T.);
#1278 = PLANE('',#1279);
#1279 = AXIS2_PLACEMENT_3D('',#1280,#1281,#1282);
#1280 = CARTESIAN_POINT('',(0.,0.,-5.75));
#1281 = DIRECTION('',(0.,0.,-1.));
#1282 = DIRECTION('',(-1.,0.,-0.));
#1283 = ADVANCED_FACE('',(#1284,#1354),#1427,.F.);
#1284 = FACE_BOUND('',#1285,.T.);
#1285 = EDGE_LOOP('',(#1286,#1297,#1305,#1314,#1322,#1331,#1339,#1348));
#1286 = ORIENTED_EDGE('',*,*,#1287,.T.);
#1287 = EDGE_CURVE('',#1288,#1290,#1292,.T.);
#1288 = VERTEX_POINT('',#1289);
#1289 = CARTESIAN_POINT('',(15.5,19.5,-26.75));
#1290 = VERTEX_POINT('',#1291);
#1291 = CARTESIAN_POINT('',(19.5,15.5,-26.75));
#1292 = CIRCLE('',#1293,4.);
#1293 = AXIS2_PLACEMENT_3D('',#1294,#1295,#1296);
#1294 = CARTESIAN_POINT('',(15.5,15.5,-26.75));
#1295 = DIRECTION('',(0.,0.,-1.));
#1296 = DIRECTION('',(1.,0.,0.));
#1297 = ORIENTED_EDGE('',*,*,#1298,.T.);
#1298 = EDGE_CURVE('',#1290,#1299,#1301,.T.);
#1299 = VERTEX_POINT('',#1300);
#1300 = CARTESIAN_POINT('',(19.5,-15.5,-26.75));
#1301 = LINE('',#1302,#1303);
#1302 = CARTESIAN_POINT('',(19.5,-15.5,-26.75));
#1303 = VECTOR('',#1304,1.);
#1304 = DIRECTION('',(-0.,-1.,-0.));
#1305 = ORIENTED_EDGE('',*,*,#1306,.T.);
#1306 = EDGE_CURVE('',#1299,#1307,#1309,.T.);
#1307 = VERTEX_POINT('',#1308);
#1308 = CARTESIAN_POINT('',(15.5,-19.5,-26.75));
#1309 = CIRCLE('',#1310,4.);
#1310 = AXIS2_PLACEMENT_3D('',#1311,#1312,#1313);
#1311 = CARTESIAN_POINT('',(15.5,-15.5,-26.75));
#1312 = DIRECTION('',(0.,0.,-1.));
#1313 = DIRECTION('',(1.,0.,0.));
#1314 = ORIENTED_EDGE('',*,*,#1315,.T.);
#1315 = EDGE_CURVE('',#1307,#1316,#1318,.T.);
#1316 = VERTEX_POINT('',#1317);
#1317 = CARTESIAN_POINT('',(-15.5,-19.5,-26.75));
#1318 = LINE('',#1319,#1320);
#1319 = CARTESIAN_POINT('',(15.5,-19.5,-26.75));
#1320 = VECTOR('',#1321,1.);
#1321 = DIRECTION('',(-1.,0.,0.));
#1322 = ORIENTED_EDGE('',*,*,#1323,.T.);
#1323 = EDGE_CURVE('',#1316,#1324,#1326,.T.);
#1324 = VERTEX_POINT('',#1325);
#1325 = CARTESIAN_POINT('',(-19.5,-15.5,-26.75));
#1326 = CIRCLE('',#1327,4.);
#1327 = AXIS2_PLACEMENT_3D('',#1328,#1329,#1330);
#1328 = CARTESIAN_POINT('',(-15.5,-15.5,-26.75));
#1329 = DIRECTION('',(0.,0.,-1.));
#1330 = DIRECTION('',(-1.,0.,0.));
#1331 = ORIENTED_EDGE('',*,*,#1332,.T.);
#1332 = EDGE_CURVE('',#1324,#1333,#1335,.T.);
#1333 = VERTEX_POINT('',#1334);
#1334 = CARTESIAN_POINT('',(-19.5,15.5,-26.75));
#1335 = LINE('',#1336,#1337);
#1336 = CARTESIAN_POINT('',(-19.5,-15.5,-26.75));
#1337 = VECTOR('',#1338,1.);
#1338 = DIRECTION('',(0.,1.,0.));
#1339 = ORIENTED_EDGE('',*,*,#1340,.T.);
#1340 = EDGE_CURVE('',#1333,#1341,#1343,.T.);
#1341 = VERTEX_POINT('',#1342);
#1342 = CARTESIAN_POINT('',(-15.5,19.5,-26.75));
#1343 = CIRCLE('',#1344,4.);
#1344 = AXIS2_PLACEMENT_3D('',#1345,#1346,#1347);
#1345 = CARTESIAN_POINT('',(-15.5,15.5,-26.75));
#1346 = DIRECTION('',(0.,0.,-1.));
#1347 = DIRECTION('',(1.,0.,0.));
#1348 = ORIENTED_EDGE('',*,*,#1349,.T.);
#1349 = EDGE_CURVE('',#1341,#1288,#1350,.T.);
#1350 = LINE('',#1351,#1352);
#1351 = CARTESIAN_POINT('',(15.5,19.5,-26.75));
#1352 = VECTOR('',#1353,1.);
#1353 = DIRECTION('',(1.,-0.,-0.));
#1354 = FACE_BOUND('',#1355,.T.);
#1355 = EDGE_LOOP('',(#1356,#1366,#1372,#1373,#1381,#1389,#1397,#1405,
    #1413,#1421));
#1356 = ORIENTED_EDGE('',*,*,#1357,.F.);
#1357 = EDGE_CURVE('',#1358,#1360,#1362,.T.);
#1358 = VERTEX_POINT('',#1359);
#1359 = CARTESIAN_POINT('',(-21.,17.00698948878,-26.75));
#1360 = VERTEX_POINT('',#1361);
#1361 = CARTESIAN_POINT('',(-17.00698948878,21.,-26.75));
#1362 = LINE('',#1363,#1364);
#1363 = CARTESIAN_POINT('',(-21.,17.00698948878,-26.75));
#1364 = VECTOR('',#1365,1.);
#1365 = DIRECTION('',(0.707106781187,0.707106781187,0.));
#1366 = ORIENTED_EDGE('',*,*,#1367,.F.);
#1367 = EDGE_CURVE('',#1180,#1358,#1368,.T.);
#1368 = LINE('',#1369,#1370);
#1369 = CARTESIAN_POINT('',(-21.,-17.00698948878,-26.75));
#1370 = VECTOR('',#1371,1.);
#1371 = DIRECTION('',(0.,1.,0.));
#1372 = ORIENTED_EDGE('',*,*,#1179,.F.);
#1373 = ORIENTED_EDGE('',*,*,#1374,.F.);
#1374 = EDGE_CURVE('',#1375,#1172,#1377,.T.);
#1375 = VERTEX_POINT('',#1376);
#1376 = CARTESIAN_POINT('',(-21.,-17.00698948878,-26.75));
#1377 = LINE('',#1378,#1379);
#1378 = CARTESIAN_POINT('',(-21.,-17.00698948878,-26.75));
#1379 = VECTOR('',#1380,1.);
#1380 = DIRECTION('',(0.,1.,0.));
#1381 = ORIENTED_EDGE('',*,*,#1382,.F.);
#1382 = EDGE_CURVE('',#1383,#1375,#1385,.T.);
#1383 = VERTEX_POINT('',#1384);
#1384 = CARTESIAN_POINT('',(-17.00698948878,-21.,-26.75));
#1385 = LINE('',#1386,#1387);
#1386 = CARTESIAN_POINT('',(-17.00698948878,-21.,-26.75));
#1387 = VECTOR('',#1388,1.);
#1388 = DIRECTION('',(-0.707106781187,0.707106781187,0.));
#1389 = ORIENTED_EDGE('',*,*,#1390,.F.);
#1390 = EDGE_CURVE('',#1391,#1383,#1393,.T.);
#1391 = VERTEX_POINT('',#1392);
#1392 = CARTESIAN_POINT('',(17.00698948878,-21.,-26.75));
#1393 = LINE('',#1394,#1395);
#1394 = CARTESIAN_POINT('',(17.00698948878,-21.,-26.75));
#1395 = VECTOR('',#1396,1.);
#1396 = DIRECTION('',(-1.,0.,0.));
#1397 = ORIENTED_EDGE('',*,*,#1398,.F.);
#1398 = EDGE_CURVE('',#1399,#1391,#1401,.T.);
#1399 = VERTEX_POINT('',#1400);
#1400 = CARTESIAN_POINT('',(21.,-17.00698948878,-26.75));
#1401 = LINE('',#1402,#1403);
#1402 = CARTESIAN_POINT('',(21.,-17.00698948878,-26.75));
#1403 = VECTOR('',#1404,1.);
#1404 = DIRECTION('',(-0.707106781187,-0.707106781187,0.));
#1405 = ORIENTED_EDGE('',*,*,#1406,.F.);
#1406 = EDGE_CURVE('',#1407,#1399,#1409,.T.);
#1407 = VERTEX_POINT('',#1408);
#1408 = CARTESIAN_POINT('',(21.,17.00698948878,-26.75));
#1409 = LINE('',#1410,#1411);
#1410 = CARTESIAN_POINT('',(21.,17.00698948878,-26.75));
#1411 = VECTOR('',#1412,1.);
#1412 = DIRECTION('',(0.,-1.,0.));
#1413 = ORIENTED_EDGE('',*,*,#1414,.F.);
#1414 = EDGE_CURVE('',#1415,#1407,#1417,.T.);
#1415 = VERTEX_POINT('',#1416);
#1416 = CARTESIAN_POINT('',(17.00698948878,21.,-26.75));
#1417 = LINE('',#1418,#1419);
#1418 = CARTESIAN_POINT('',(17.00698948878,21.,-26.75));
#1419 = VECTOR('',#1420,1.);
#1420 = DIRECTION('',(0.707106781187,-0.707106781187,0.));
#1421 = ORIENTED_EDGE('',*,*,#1422,.F.);
#1422 = EDGE_CURVE('',#1360,#1415,#1423,.T.);
#1423 = LINE('',#1424,#1425);
#1424 = CARTESIAN_POINT('',(-17.00698948878,21.,-26.75));
#1425 = VECTOR('',#1426,1.);
#1426 = DIRECTION('',(1.,0.,0.));
#1427 = PLANE('',#1428);
#1428 = AXIS2_PLACEMENT_3D('',#1429,#1430,#1431);
#1429 = CARTESIAN_POINT('',(0.,0.,-26.75));
#1430 = DIRECTION('',(0.,0.,-1.));
#1431 = DIRECTION('',(-1.,0.,-0.));
#1432 = ADVANCED_FACE('',(#1433),#1449,.T.);
#1433 = FACE_BOUND('',#1434,.T.);
#1434 = EDGE_LOOP('',(#1435,#1436,#1442,#1443));
#1435 = ORIENTED_EDGE('',*,*,#1287,.F.);
#1436 = ORIENTED_EDGE('',*,*,#1437,.F.);
#1437 = EDGE_CURVE('',#1204,#1288,#1438,.T.);
#1438 = LINE('',#1439,#1440);
#1439 = CARTESIAN_POINT('',(15.5,19.5,-5.75));
#1440 = VECTOR('',#1441,1.);
#1441 = DIRECTION('',(-0.,-0.,-1.));
#1442 = ORIENTED_EDGE('',*,*,#1262,.T.);
#1443 = ORIENTED_EDGE('',*,*,#1444,.T.);
#1444 = EDGE_CURVE('',#1255,#1290,#1445,.T.);
#1445 = LINE('',#1446,#1447);
#1446 = CARTESIAN_POINT('',(19.5,15.5,-5.75));
#1447 = VECTOR('',#1448,1.);
#1448 = DIRECTION('',(-0.,-0.,-1.));
#1449 = CYLINDRICAL_SURFACE('',#1450,4.);
#1450 = AXIS2_PLACEMENT_3D('',#1451,#1452,#1453);
#1451 = CARTESIAN_POINT('',(15.5,15.5,-5.75));
#1452 = DIRECTION('',(-0.,-0.,-1.));
#1453 = DIRECTION('',(-1.,0.,0.));
#1454 = ADVANCED_FACE('',(#1455),#1466,.T.);
#1455 = FACE_BOUND('',#1456,.T.);
#1456 = EDGE_LOOP('',(#1457,#1458,#1464,#1465));
#1457 = ORIENTED_EDGE('',*,*,#1349,.F.);
#1458 = ORIENTED_EDGE('',*,*,#1459,.F.);
#1459 = EDGE_CURVE('',#1202,#1341,#1460,.T.);
#1460 = LINE('',#1461,#1462);
#1461 = CARTESIAN_POINT('',(-15.5,19.5,-5.75));
#1462 = VECTOR('',#1463,1.);
#1463 = DIRECTION('',(-0.,-0.,-1.));
#1464 = ORIENTED_EDGE('',*,*,#1201,.T.);
#1465 = ORIENTED_EDGE('',*,*,#1437,.T.);
#1466 = PLANE('',#1467);
#1467 = AXIS2_PLACEMENT_3D('',#1468,#1469,#1470);
#1468 = CARTESIAN_POINT('',(15.5,19.5,-5.75));
#1469 = DIRECTION('',(0.,1.,-0.));
#1470 = DIRECTION('',(0.,0.,1.));
#1471 = ADVANCED_FACE('',(#1472),#1483,.T.);
#1472 = FACE_BOUND('',#1473,.T.);
#1473 = EDGE_LOOP('',(#1474,#1475,#1481,#1482));
#1474 = ORIENTED_EDGE('',*,*,#1340,.F.);
#1475 = ORIENTED_EDGE('',*,*,#1476,.F.);
#1476 = EDGE_CURVE('',#1212,#1333,#1477,.T.);
#1477 = LINE('',#1478,#1479);
#1478 = CARTESIAN_POINT('',(-19.5,15.5,-5.75));
#1479 = VECTOR('',#1480,1.);
#1480 = DIRECTION('',(-0.,-0.,-1.));
#1481 = ORIENTED_EDGE('',*,*,#1211,.T.);
#1482 = ORIENTED_EDGE('',*,*,#1459,.T.);
#1483 = CYLINDRICAL_SURFACE('',#1484,4.);
#1484 = AXIS2_PLACEMENT_3D('',#1485,#1486,#1487);
#1485 = CARTESIAN_POINT('',(-15.5,15.5,-5.75));
#1486 = DIRECTION('',(-0.,-0.,-1.));
#1487 = DIRECTION('',(-1.,0.,0.));
#1488 = ADVANCED_FACE('',(#1489),#1500,.T.);
#1489 = FACE_BOUND('',#1490,.T.);
#1490 = EDGE_LOOP('',(#1491,#1492,#1498,#1499));
#1491 = ORIENTED_EDGE('',*,*,#1332,.F.);
#1492 = ORIENTED_EDGE('',*,*,#1493,.F.);
#1493 = EDGE_CURVE('',#1221,#1324,#1494,.T.);
#1494 = LINE('',#1495,#1496);
#1495 = CARTESIAN_POINT('',(-19.5,-15.5,-5.75));
#1496 = VECTOR('',#1497,1.);
#1497 = DIRECTION('',(-0.,-0.,-1.));
#1498 = ORIENTED_EDGE('',*,*,#1220,.T.);
#1499 = ORIENTED_EDGE('',*,*,#1476,.T.);
#1500 = PLANE('',#1501);
#1501 = AXIS2_PLACEMENT_3D('',#1502,#1503,#1504);
#1502 = CARTESIAN_POINT('',(-19.5,-15.5,-5.75));
#1503 = DIRECTION('',(-1.,0.,0.));
#1504 = DIRECTION('',(0.,0.,1.));
#1505 = ADVANCED_FACE('',(#1506),#1517,.T.);
#1506 = FACE_BOUND('',#1507,.T.);
#1507 = EDGE_LOOP('',(#1508,#1509,#1515,#1516));
#1508 = ORIENTED_EDGE('',*,*,#1323,.F.);
#1509 = ORIENTED_EDGE('',*,*,#1510,.F.);
#1510 = EDGE_CURVE('',#1229,#1316,#1511,.T.);
#1511 = LINE('',#1512,#1513);
#1512 = CARTESIAN_POINT('',(-15.5,-19.5,-5.75));
#1513 = VECTOR('',#1514,1.);
#1514 = DIRECTION('',(-0.,-0.,-1.));
#1515 = ORIENTED_EDGE('',*,*,#1228,.T.);
#1516 = ORIENTED_EDGE('',*,*,#1493,.T.);
#1517 = CYLINDRICAL_SURFACE('',#1518,4.);
#1518 = AXIS2_PLACEMENT_3D('',#1519,#1520,#1521);
#1519 = CARTESIAN_POINT('',(-15.5,-15.5,-5.75));
#1520 = DIRECTION('',(-0.,-0.,-1.));
#1521 = DIRECTION('',(-1.,0.,0.));
#1522 = ADVANCED_FACE('',(#1523),#1534,.T.);
#1523 = FACE_BOUND('',#1524,.T.);
#1524 = EDGE_LOOP('',(#1525,#1526,#1532,#1533));
#1525 = ORIENTED_EDGE('',*,*,#1315,.F.);
#1526 = ORIENTED_EDGE('',*,*,#1527,.F.);
#1527 = EDGE_CURVE('',#1238,#1307,#1528,.T.);
#1528 = LINE('',#1529,#1530);
#1529 = CARTESIAN_POINT('',(15.5,-19.5,-5.75));
#1530 = VECTOR('',#1531,1.);
#1531 = DIRECTION('',(-0.,-0.,-1.));
#1532 = ORIENTED_EDGE('',*,*,#1237,.T.);
#1533 = ORIENTED_EDGE('',*,*,#1510,.T.);
#1534 = PLANE('',#1535);
#1535 = AXIS2_PLACEMENT_3D('',#1536,#1537,#1538);
#1536 = CARTESIAN_POINT('',(15.5,-19.5,-5.75));
#1537 = DIRECTION('',(0.,-1.,0.));
#1538 = DIRECTION('',(0.,-0.,-1.));
#1539 = ADVANCED_FACE('',(#1540),#1551,.T.);
#1540 = FACE_BOUND('',#1541,.T.);
#1541 = EDGE_LOOP('',(#1542,#1543,#1549,#1550));
#1542 = ORIENTED_EDGE('',*,*,#1306,.F.);
#1543 = ORIENTED_EDGE('',*,*,#1544,.F.);
#1544 = EDGE_CURVE('',#1246,#1299,#1545,.T.);
#1545 = LINE('',#1546,#1547);
#1546 = CARTESIAN_POINT('',(19.5,-15.5,-5.75));
#1547 = VECTOR('',#1548,1.);
#1548 = DIRECTION('',(-0.,-0.,-1.));
#1549 = ORIENTED_EDGE('',*,*,#1245,.T.);
#1550 = ORIENTED_EDGE('',*,*,#1527,.T.);
#1551 = CYLINDRICAL_SURFACE('',#1552,4.);
#1552 = AXIS2_PLACEMENT_3D('',#1553,#1554,#1555);
#1553 = CARTESIAN_POINT('',(15.5,-15.5,-5.75));
#1554 = DIRECTION('',(-0.,-0.,-1.));
#1555 = DIRECTION('',(-1.,0.,0.));
#1556 = ADVANCED_FACE('',(#1557),#1563,.T.);
#1557 = FACE_BOUND('',#1558,.T.);
#1558 = EDGE_LOOP('',(#1559,#1560,#1561,#1562));
#1559 = ORIENTED_EDGE('',*,*,#1298,.F.);
#1560 = ORIENTED_EDGE('',*,*,#1444,.F.);
#1561 = ORIENTED_EDGE('',*,*,#1254,.T.);
#1562 = ORIENTED_EDGE('',*,*,#1544,.T.);
#1563 = PLANE('',#1564);
#1564 = AXIS2_PLACEMENT_3D('',#1565,#1566,#1567);
#1565 = CARTESIAN_POINT('',(19.5,-15.5,-5.75));
#1566 = DIRECTION('',(1.,0.,0.));
#1567 = DIRECTION('',(0.,0.,-1.));
#1568 = ADVANCED_FACE('',(#1569),#1579,.T.);
#1569 = FACE_BOUND('',#1570,.T.);
#1570 = EDGE_LOOP('',(#1571,#1578));
#1571 = ORIENTED_EDGE('',*,*,#1572,.T.);
#1572 = EDGE_CURVE('',#148,#167,#1573,.T.);
#1573 = CIRCLE('',#1574,1.5);
#1574 = AXIS2_PLACEMENT_3D('',#1575,#1576,#1577);
#1575 = CARTESIAN_POINT('',(-15.5,15.5,-28.75));
#1576 = DIRECTION('',(0.,0.,-1.));
#1577 = DIRECTION('',(-1.,0.,0.));
#1578 = ORIENTED_EDGE('',*,*,#174,.T.);
#1579 = PLANE('',#1580);
#1580 = AXIS2_PLACEMENT_3D('',#1581,#1582,#1583);
#1581 = CARTESIAN_POINT('',(-15.5,15.5,-28.75));
#1582 = DIRECTION('',(0.,0.,-1.));
#1583 = DIRECTION('',(-1.,0.,-0.));
#1584 = ADVANCED_FACE('',(#1585),#1595,.T.);
#1585 = FACE_BOUND('',#1586,.T.);
#1586 = EDGE_LOOP('',(#1587,#1594));
#1587 = ORIENTED_EDGE('',*,*,#1588,.T.);
#1588 = EDGE_CURVE('',#106,#125,#1589,.T.);
#1589 = CIRCLE('',#1590,1.5);
#1590 = AXIS2_PLACEMENT_3D('',#1591,#1592,#1593);
#1591 = CARTESIAN_POINT('',(-15.5,-15.5,-28.75));
#1592 = DIRECTION('',(0.,0.,-1.));
#1593 = DIRECTION('',(-1.,0.,0.));
#1594 = ORIENTED_EDGE('',*,*,#132,.T.);
#1595 = PLANE('',#1596);
#1596 = AXIS2_PLACEMENT_3D('',#1597,#1598,#1599);
#1597 = CARTESIAN_POINT('',(-15.5,-15.5,-28.75));
#1598 = DIRECTION('',(0.,0.,-1.));
#1599 = DIRECTION('',(-1.,0.,-0.));
#1600 = ADVANCED_FACE('',(#1601),#1611,.T.);
#1601 = FACE_BOUND('',#1602,.T.);
#1602 = EDGE_LOOP('',(#1603,#1610));
#1603 = ORIENTED_EDGE('',*,*,#1604,.T.);
#1604 = EDGE_CURVE('',#64,#83,#1605,.T.);
#1605 = CIRCLE('',#1606,1.5);
#1606 = AXIS2_PLACEMENT_3D('',#1607,#1608,#1609);
#1607 = CARTESIAN_POINT('',(15.5,-15.5,-28.75));
#1608 = DIRECTION('',(0.,0.,-1.));
#1609 = DIRECTION('',(-1.,0.,0.));
#1610 = ORIENTED_EDGE('',*,*,#90,.T.);
#1611 = PLANE('',#1612);
#1612 = AXIS2_PLACEMENT_3D('',#1613,#1614,#1615);
#1613 = CARTESIAN_POINT('',(15.5,-15.5,-28.75));
#1614 = DIRECTION('',(0.,0.,-1.));
#1615 = DIRECTION('',(-1.,0.,-0.));
#1616 = ADVANCED_FACE('',(#1617),#1627,.T.);
#1617 = FACE_BOUND('',#1618,.T.);
#1618 = EDGE_LOOP('',(#1619,#1626));
#1619 = ORIENTED_EDGE('',*,*,#1620,.T.);
#1620 = EDGE_CURVE('',#22,#41,#1621,.T.);
#1621 = CIRCLE('',#1622,1.5);
#1622 = AXIS2_PLACEMENT_3D('',#1623,#1624,#1625);
#1623 = CARTESIAN_POINT('',(15.5,15.5,-28.75));
#1624 = DIRECTION('',(0.,0.,-1.));
#1625 = DIRECTION('',(-1.,0.,0.));
#1626 = ORIENTED_EDGE('',*,*,#48,.T.);
#1627 = PLANE('',#1628);
#1628 = AXIS2_PLACEMENT_3D('',#1629,#1630,#1631);
#1629 = CARTESIAN_POINT('',(15.5,15.5,-28.75));
#1630 = DIRECTION('',(0.,0.,-1.));
#1631 = DIRECTION('',(-1.,0.,-0.));
#1632 = ADVANCED_FACE('',(#1633),#1645,.F.);
#1633 = FACE_BOUND('',#1634,.F.);
#1634 = EDGE_LOOP('',(#1635,#1642,#1643,#1644));
#1635 = ORIENTED_EDGE('',*,*,#1636,.F.);
#1636 = EDGE_CURVE('',#150,#158,#1637,.T.);
#1637 = CIRCLE('',#1638,1.5);
#1638 = AXIS2_PLACEMENT_3D('',#1639,#1640,#1641);
#1639 = CARTESIAN_POINT('',(-15.5,15.5,-33.75));
#1640 = DIRECTION('',(0.,0.,-1.));
#1641 = DIRECTION('',(-1.,0.,0.));
#1642 = ORIENTED_EDGE('',*,*,#147,.F.);
#1643 = ORIENTED_EDGE('',*,*,#1572,.T.);
#1644 = ORIENTED_EDGE('',*,*,#166,.T.);
#1645 = CYLINDRICAL_SURFACE('',#1646,1.5);
#1646 = AXIS2_PLACEMENT_3D('',#1647,#1648,#1649);
#1647 = CARTESIAN_POINT('',(-15.5,15.5,-28.75));
#1648 = DIRECTION('',(0.,0.,-1.));
#1649 = DIRECTION('',(-1.,0.,0.));
#1650 = ADVANCED_FACE('',(#1651),#1663,.F.);
#1651 = FACE_BOUND('',#1652,.F.);
#1652 = EDGE_LOOP('',(#1653,#1660,#1661,#1662));
#1653 = ORIENTED_EDGE('',*,*,#1654,.F.);
#1654 = EDGE_CURVE('',#108,#116,#1655,.T.);
#1655 = CIRCLE('',#1656,1.5);
#1656 = AXIS2_PLACEMENT_3D('',#1657,#1658,#1659);
#1657 = CARTESIAN_POINT('',(-15.5,-15.5,-33.75));
#1658 = DIRECTION('',(0.,0.,-1.));
#1659 = DIRECTION('',(-1.,0.,0.));
#1660 = ORIENTED_EDGE('',*,*,#105,.F.);
#1661 = ORIENTED_EDGE('',*,*,#1588,.T.);
#1662 = ORIENTED_EDGE('',*,*,#124,.T.);
#1663 = CYLINDRICAL_SURFACE('',#1664,1.5);
#1664 = AXIS2_PLACEMENT_3D('',#1665,#1666,#1667);
#1665 = CARTESIAN_POINT('',(-15.5,-15.5,-28.75));
#1666 = DIRECTION('',(0.,0.,-1.));
#1667 = DIRECTION('',(-1.,0.,0.));
#1668 = ADVANCED_FACE('',(#1669),#1681,.F.);
#1669 = FACE_BOUND('',#1670,.F.);
#1670 = EDGE_LOOP('',(#1671,#1678,#1679,#1680));
#1671 = ORIENTED_EDGE('',*,*,#1672,.F.);
#1672 = EDGE_CURVE('',#66,#74,#1673,.T.);
#1673 = CIRCLE('',#1674,1.5);
#1674 = AXIS2_PLACEMENT_3D('',#1675,#1676,#1677);
#1675 = CARTESIAN_POINT('',(15.5,-15.5,-33.75));
#1676 = DIRECTION('',(0.,0.,-1.));
#1677 = DIRECTION('',(-1.,0.,0.));
#1678 = ORIENTED_EDGE('',*,*,#63,.F.);
#1679 = ORIENTED_EDGE('',*,*,#1604,.T.);
#1680 = ORIENTED_EDGE('',*,*,#82,.T.);
#1681 = CYLINDRICAL_SURFACE('',#1682,1.5);
#1682 = AXIS2_PLACEMENT_3D('',#1683,#1684,#1685);
#1683 = CARTESIAN_POINT('',(15.5,-15.5,-28.75));
#1684 = DIRECTION('',(0.,0.,-1.));
#1685 = DIRECTION('',(-1.,0.,0.));
#1686 = ADVANCED_FACE('',(#1687),#1699,.F.);
#1687 = FACE_BOUND('',#1688,.F.);
#1688 = EDGE_LOOP('',(#1689,#1696,#1697,#1698));
#1689 = ORIENTED_EDGE('',*,*,#1690,.F.);
#1690 = EDGE_CURVE('',#24,#32,#1691,.T.);
#1691 = CIRCLE('',#1692,1.5);
#1692 = AXIS2_PLACEMENT_3D('',#1693,#1694,#1695);
#1693 = CARTESIAN_POINT('',(15.5,15.5,-33.75));
#1694 = DIRECTION('',(0.,0.,-1.));
#1695 = DIRECTION('',(-1.,0.,0.));
#1696 = ORIENTED_EDGE('',*,*,#21,.F.);
#1697 = ORIENTED_EDGE('',*,*,#1620,.T.);
#1698 = ORIENTED_EDGE('',*,*,#40,.T.);
#1699 = CYLINDRICAL_SURFACE('',#1700,1.5);
#1700 = AXIS2_PLACEMENT_3D('',#1701,#1702,#1703);
#1701 = CARTESIAN_POINT('',(15.5,15.5,-28.75));
#1702 = DIRECTION('',(0.,0.,-1.));
#1703 = DIRECTION('',(-1.,0.,0.));
#1704 = ADVANCED_FACE('',(#1705),#1739,.T.);
#1705 = FACE_BOUND('',#1706,.T.);
#1706 = EDGE_LOOP('',(#1707,#1717,#1725,#1733));
#1707 = ORIENTED_EDGE('',*,*,#1708,.T.);
#1708 = EDGE_CURVE('',#1709,#1711,#1713,.T.);
#1709 = VERTEX_POINT('',#1710);
#1710 = CARTESIAN_POINT('',(-29.7,8.5,-33.75));
#1711 = VERTEX_POINT('',#1712);
#1712 = CARTESIAN_POINT('',(-29.7,-8.5,-33.75));
#1713 = LINE('',#1714,#1715);
#1714 = CARTESIAN_POINT('',(-29.7,0.,-33.75));
#1715 = VECTOR('',#1716,1.);
#1716 = DIRECTION('',(0.,-1.,-0.));
#1717 = ORIENTED_EDGE('',*,*,#1718,.T.);
#1718 = EDGE_CURVE('',#1711,#1719,#1721,.T.);
#1719 = VERTEX_POINT('',#1720);
#1720 = CARTESIAN_POINT('',(-29.7,-8.5,-23.75));
#1721 = LINE('',#1722,#1723);
#1722 = CARTESIAN_POINT('',(-29.7,-8.5,-33.75));
#1723 = VECTOR('',#1724,1.);
#1724 = DIRECTION('',(0.,-0.,1.));
#1725 = ORIENTED_EDGE('',*,*,#1726,.T.);
#1726 = EDGE_CURVE('',#1719,#1727,#1729,.T.);
#1727 = VERTEX_POINT('',#1728);
#1728 = CARTESIAN_POINT('',(-29.7,8.5,-23.75));
#1729 = LINE('',#1730,#1731);
#1730 = CARTESIAN_POINT('',(-29.7,-1.046E-14,-23.75));
#1731 = VECTOR('',#1732,1.);
#1732 = DIRECTION('',(0.,1.,-0.));
#1733 = ORIENTED_EDGE('',*,*,#1734,.T.);
#1734 = EDGE_CURVE('',#1727,#1709,#1735,.T.);
#1735 = LINE('',#1736,#1737);
#1736 = CARTESIAN_POINT('',(-29.7,8.5,-33.75));
#1737 = VECTOR('',#1738,1.);
#1738 = DIRECTION('',(-0.,-0.,-1.));
#1739 = PLANE('',#1740);
#1740 = AXIS2_PLACEMENT_3D('',#1741,#1742,#1743);
#1741 = CARTESIAN_POINT('',(-29.7,-1.046E-14,-33.75));
#1742 = DIRECTION('',(-1.,0.,0.));
#1743 = DIRECTION('',(0.,0.,1.));
#1744 = ADVANCED_FACE('',(#1745,#1749,#1753,#1757,#1761),#1850,.F.);
#1745 = FACE_BOUND('',#1746,.T.);
#1746 = EDGE_LOOP('',(#1747,#1748));
#1747 = ORIENTED_EDGE('',*,*,#1690,.F.);
#1748 = ORIENTED_EDGE('',*,*,#31,.F.);
#1749 = FACE_BOUND('',#1750,.T.);
#1750 = EDGE_LOOP('',(#1751,#1752));
#1751 = ORIENTED_EDGE('',*,*,#1672,.F.);
#1752 = ORIENTED_EDGE('',*,*,#73,.F.);
#1753 = FACE_BOUND('',#1754,.T.);
#1754 = EDGE_LOOP('',(#1755,#1756));
#1755 = ORIENTED_EDGE('',*,*,#1654,.F.);
#1756 = ORIENTED_EDGE('',*,*,#115,.F.);
#1757 = FACE_BOUND('',#1758,.T.);
#1758 = EDGE_LOOP('',(#1759,#1760));
#1759 = ORIENTED_EDGE('',*,*,#1636,.F.);
#1760 = ORIENTED_EDGE('',*,*,#157,.F.);
#1761 = FACE_BOUND('',#1762,.T.);
#1762 = EDGE_LOOP('',(#1763,#1773,#1781,#1789,#1797,#1805,#1813,#1819,
    #1820,#1828,#1836,#1844));
#1763 = ORIENTED_EDGE('',*,*,#1764,.F.);
#1764 = EDGE_CURVE('',#1765,#1767,#1769,.T.);
#1765 = VERTEX_POINT('',#1766);
#1766 = CARTESIAN_POINT('',(21.,17.00698948878,-33.75));
#1767 = VERTEX_POINT('',#1768);
#1768 = CARTESIAN_POINT('',(17.00698948878,21.,-33.75));
#1769 = LINE('',#1770,#1771);
#1770 = CARTESIAN_POINT('',(21.,17.00698948878,-33.75));
#1771 = VECTOR('',#1772,1.);
#1772 = DIRECTION('',(-0.707106781187,0.707106781187,0.));
#1773 = ORIENTED_EDGE('',*,*,#1774,.F.);
#1774 = EDGE_CURVE('',#1775,#1765,#1777,.T.);
#1775 = VERTEX_POINT('',#1776);
#1776 = CARTESIAN_POINT('',(21.,-17.00698948878,-33.75));
#1777 = LINE('',#1778,#1779);
#1778 = CARTESIAN_POINT('',(21.,0.,-33.75));
#1779 = VECTOR('',#1780,1.);
#1780 = DIRECTION('',(-0.,1.,0.));
#1781 = ORIENTED_EDGE('',*,*,#1782,.F.);
#1782 = EDGE_CURVE('',#1783,#1775,#1785,.T.);
#1783 = VERTEX_POINT('',#1784);
#1784 = CARTESIAN_POINT('',(17.00698948878,-21.,-33.75));
#1785 = LINE('',#1786,#1787);
#1786 = CARTESIAN_POINT('',(17.00698948878,-21.,-33.75));
#1787 = VECTOR('',#1788,1.);
#1788 = DIRECTION('',(0.707106781187,0.707106781187,0.));
#1789 = ORIENTED_EDGE('',*,*,#1790,.F.);
#1790 = EDGE_CURVE('',#1791,#1783,#1793,.T.);
#1791 = VERTEX_POINT('',#1792);
#1792 = CARTESIAN_POINT('',(-17.00698948878,-21.,-33.75));
#1793 = LINE('',#1794,#1795);
#1794 = CARTESIAN_POINT('',(0.,-21.,-33.75));
#1795 = VECTOR('',#1796,1.);
#1796 = DIRECTION('',(1.,0.,-0.));
#1797 = ORIENTED_EDGE('',*,*,#1798,.F.);
#1798 = EDGE_CURVE('',#1799,#1791,#1801,.T.);
#1799 = VERTEX_POINT('',#1800);
#1800 = CARTESIAN_POINT('',(-21.,-17.00698948878,-33.75));
#1801 = LINE('',#1802,#1803);
#1802 = CARTESIAN_POINT('',(-21.,-17.00698948878,-33.75));
#1803 = VECTOR('',#1804,1.);
#1804 = DIRECTION('',(0.707106781187,-0.707106781187,0.));
#1805 = ORIENTED_EDGE('',*,*,#1806,.F.);
#1806 = EDGE_CURVE('',#1807,#1799,#1809,.T.);
#1807 = VERTEX_POINT('',#1808);
#1808 = CARTESIAN_POINT('',(-21.,-8.5,-33.75));
#1809 = LINE('',#1810,#1811);
#1810 = CARTESIAN_POINT('',(-21.,0.,-33.75));
#1811 = VECTOR('',#1812,1.);
#1812 = DIRECTION('',(0.,-1.,-0.));
#1813 = ORIENTED_EDGE('',*,*,#1814,.F.);
#1814 = EDGE_CURVE('',#1711,#1807,#1815,.T.);
#1815 = LINE('',#1816,#1817);
#1816 = CARTESIAN_POINT('',(0.,-8.5,-33.75));
#1817 = VECTOR('',#1818,1.);
#1818 = DIRECTION('',(1.,0.,-0.));
#1819 = ORIENTED_EDGE('',*,*,#1708,.F.);
#1820 = ORIENTED_EDGE('',*,*,#1821,.F.);
#1821 = EDGE_CURVE('',#1822,#1709,#1824,.T.);
#1822 = VERTEX_POINT('',#1823);
#1823 = CARTESIAN_POINT('',(-21.,8.5,-33.75));
#1824 = LINE('',#1825,#1826);
#1825 = CARTESIAN_POINT('',(0.,8.5,-33.75));
#1826 = VECTOR('',#1827,1.);
#1827 = DIRECTION('',(-1.,-0.,0.));
#1828 = ORIENTED_EDGE('',*,*,#1829,.F.);
#1829 = EDGE_CURVE('',#1830,#1822,#1832,.T.);
#1830 = VERTEX_POINT('',#1831);
#1831 = CARTESIAN_POINT('',(-21.,17.00698948878,-33.75));
#1832 = LINE('',#1833,#1834);
#1833 = CARTESIAN_POINT('',(-21.,0.,-33.75));
#1834 = VECTOR('',#1835,1.);
#1835 = DIRECTION('',(0.,-1.,-0.));
#1836 = ORIENTED_EDGE('',*,*,#1837,.F.);
#1837 = EDGE_CURVE('',#1838,#1830,#1840,.T.);
#1838 = VERTEX_POINT('',#1839);
#1839 = CARTESIAN_POINT('',(-17.00698948878,21.,-33.75));
#1840 = LINE('',#1841,#1842);
#1841 = CARTESIAN_POINT('',(-17.00698948878,21.,-33.75));
#1842 = VECTOR('',#1843,1.);
#1843 = DIRECTION('',(-0.707106781187,-0.707106781187,0.));
#1844 = ORIENTED_EDGE('',*,*,#1845,.F.);
#1845 = EDGE_CURVE('',#1767,#1838,#1846,.T.);
#1846 = LINE('',#1847,#1848);
#1847 = CARTESIAN_POINT('',(0.,21.,-33.75));
#1848 = VECTOR('',#1849,1.);
#1849 = DIRECTION('',(-1.,-0.,0.));
#1850 = PLANE('',#1851);
#1851 = AXIS2_PLACEMENT_3D('',#1852,#1853,#1854);
#1852 = CARTESIAN_POINT('',(0.,0.,-33.75));
#1853 = DIRECTION('',(0.,0.,1.));
#1854 = DIRECTION('',(1.,0.,-0.));
#1855 = ADVANCED_FACE('',(#1856),#1872,.F.);
#1856 = FACE_BOUND('',#1857,.T.);
#1857 = EDGE_LOOP('',(#1858,#1864,#1865,#1871));
#1858 = ORIENTED_EDGE('',*,*,#1859,.F.);
#1859 = EDGE_CURVE('',#1360,#1838,#1860,.T.);
#1860 = LINE('',#1861,#1862);
#1861 = CARTESIAN_POINT('',(-17.00698948878,21.,0.));
#1862 = VECTOR('',#1863,1.);
#1863 = DIRECTION('',(0.,-0.,-1.));
#1864 = ORIENTED_EDGE('',*,*,#1422,.T.);
#1865 = ORIENTED_EDGE('',*,*,#1866,.F.);
#1866 = EDGE_CURVE('',#1767,#1415,#1867,.T.);
#1867 = LINE('',#1868,#1869);
#1868 = CARTESIAN_POINT('',(17.00698948878,21.,0.));
#1869 = VECTOR('',#1870,1.);
#1870 = DIRECTION('',(-0.,0.,1.));
#1871 = ORIENTED_EDGE('',*,*,#1845,.T.);
#1872 = PLANE('',#1873);
#1873 = AXIS2_PLACEMENT_3D('',#1874,#1875,#1876);
#1874 = CARTESIAN_POINT('',(-17.00698948878,21.,0.));
#1875 = DIRECTION('',(0.,-1.,0.));
#1876 = DIRECTION('',(0.,-0.,-1.));
#1877 = ADVANCED_FACE('',(#1878),#1889,.F.);
#1878 = FACE_BOUND('',#1879,.T.);
#1879 = EDGE_LOOP('',(#1880,#1881,#1882,#1888));
#1880 = ORIENTED_EDGE('',*,*,#1866,.T.);
#1881 = ORIENTED_EDGE('',*,*,#1414,.T.);
#1882 = ORIENTED_EDGE('',*,*,#1883,.F.);
#1883 = EDGE_CURVE('',#1765,#1407,#1884,.T.);
#1884 = LINE('',#1885,#1886);
#1885 = CARTESIAN_POINT('',(21.,17.00698948878,0.));
#1886 = VECTOR('',#1887,1.);
#1887 = DIRECTION('',(0.,0.,1.));
#1888 = ORIENTED_EDGE('',*,*,#1764,.T.);
#1889 = PLANE('',#1890);
#1890 = AXIS2_PLACEMENT_3D('',#1891,#1892,#1893);
#1891 = CARTESIAN_POINT('',(17.00698948878,21.,0.));
#1892 = DIRECTION('',(-0.707106781187,-0.707106781187,0.));
#1893 = DIRECTION('',(0.707106781187,-0.707106781187,0.));
#1894 = ADVANCED_FACE('',(#1895),#1906,.F.);
#1895 = FACE_BOUND('',#1896,.T.);
#1896 = EDGE_LOOP('',(#1897,#1898,#1899,#1905));
#1897 = ORIENTED_EDGE('',*,*,#1883,.T.);
#1898 = ORIENTED_EDGE('',*,*,#1406,.T.);
#1899 = ORIENTED_EDGE('',*,*,#1900,.F.);
#1900 = EDGE_CURVE('',#1775,#1399,#1901,.T.);
#1901 = LINE('',#1902,#1903);
#1902 = CARTESIAN_POINT('',(21.,-17.00698948878,0.));
#1903 = VECTOR('',#1904,1.);
#1904 = DIRECTION('',(0.,0.,1.));
#1905 = ORIENTED_EDGE('',*,*,#1774,.T.);
#1906 = PLANE('',#1907);
#1907 = AXIS2_PLACEMENT_3D('',#1908,#1909,#1910);
#1908 = CARTESIAN_POINT('',(21.,17.00698948878,0.));
#1909 = DIRECTION('',(-1.,0.,0.));
#1910 = DIRECTION('',(0.,0.,1.));
#1911 = ADVANCED_FACE('',(#1912),#1923,.F.);
#1912 = FACE_BOUND('',#1913,.T.);
#1913 = EDGE_LOOP('',(#1914,#1915,#1916,#1922));
#1914 = ORIENTED_EDGE('',*,*,#1900,.T.);
#1915 = ORIENTED_EDGE('',*,*,#1398,.T.);
#1916 = ORIENTED_EDGE('',*,*,#1917,.F.);
#1917 = EDGE_CURVE('',#1783,#1391,#1918,.T.);
#1918 = LINE('',#1919,#1920);
#1919 = CARTESIAN_POINT('',(17.00698948878,-21.,0.));
#1920 = VECTOR('',#1921,1.);
#1921 = DIRECTION('',(0.,0.,1.));
#1922 = ORIENTED_EDGE('',*,*,#1782,.T.);
#1923 = PLANE('',#1924);
#1924 = AXIS2_PLACEMENT_3D('',#1925,#1926,#1927);
#1925 = CARTESIAN_POINT('',(21.,-17.00698948878,0.));
#1926 = DIRECTION('',(-0.707106781187,0.707106781187,0.));
#1927 = DIRECTION('',(-0.707106781187,-0.707106781187,0.));
#1928 = ADVANCED_FACE('',(#1929),#1940,.F.);
#1929 = FACE_BOUND('',#1930,.T.);
#1930 = EDGE_LOOP('',(#1931,#1932,#1933,#1939));
#1931 = ORIENTED_EDGE('',*,*,#1917,.T.);
#1932 = ORIENTED_EDGE('',*,*,#1390,.T.);
#1933 = ORIENTED_EDGE('',*,*,#1934,.F.);
#1934 = EDGE_CURVE('',#1791,#1383,#1935,.T.);
#1935 = LINE('',#1936,#1937);
#1936 = CARTESIAN_POINT('',(-17.00698948878,-21.,0.));
#1937 = VECTOR('',#1938,1.);
#1938 = DIRECTION('',(0.,0.,1.));
#1939 = ORIENTED_EDGE('',*,*,#1790,.T.);
#1940 = PLANE('',#1941);
#1941 = AXIS2_PLACEMENT_3D('',#1942,#1943,#1944);
#1942 = CARTESIAN_POINT('',(-17.00698948878,-21.,0.));
#1943 = DIRECTION('',(0.,1.,-0.));
#1944 = DIRECTION('',(0.,0.,1.));
#1945 = ADVANCED_FACE('',(#1946),#1957,.F.);
#1946 = FACE_BOUND('',#1947,.T.);
#1947 = EDGE_LOOP('',(#1948,#1949,#1950,#1956));
#1948 = ORIENTED_EDGE('',*,*,#1934,.T.);
#1949 = ORIENTED_EDGE('',*,*,#1382,.T.);
#1950 = ORIENTED_EDGE('',*,*,#1951,.F.);
#1951 = EDGE_CURVE('',#1799,#1375,#1952,.T.);
#1952 = LINE('',#1953,#1954);
#1953 = CARTESIAN_POINT('',(-21.,-17.00698948878,0.));
#1954 = VECTOR('',#1955,1.);
#1955 = DIRECTION('',(0.,0.,1.));
#1956 = ORIENTED_EDGE('',*,*,#1798,.T.);
#1957 = PLANE('',#1958);
#1958 = AXIS2_PLACEMENT_3D('',#1959,#1960,#1961);
#1959 = CARTESIAN_POINT('',(-21.,-17.00698948878,0.));
#1960 = DIRECTION('',(0.707106781187,0.707106781187,-0.));
#1961 = DIRECTION('',(-0.707106781187,0.707106781187,0.));
#1962 = ADVANCED_FACE('',(#1963),#1974,.F.);
#1963 = FACE_BOUND('',#1964,.T.);
#1964 = EDGE_LOOP('',(#1965,#1966,#1967,#1973));
#1965 = ORIENTED_EDGE('',*,*,#1951,.T.);
#1966 = ORIENTED_EDGE('',*,*,#1374,.T.);
#1967 = ORIENTED_EDGE('',*,*,#1968,.F.);
#1968 = EDGE_CURVE('',#1807,#1172,#1969,.T.);
#1969 = LINE('',#1970,#1971);
#1970 = CARTESIAN_POINT('',(-21.,-8.5,0.));
#1971 = VECTOR('',#1972,1.);
#1972 = DIRECTION('',(-0.,-0.,1.));
#1973 = ORIENTED_EDGE('',*,*,#1806,.T.);
#1974 = PLANE('',#1975);
#1975 = AXIS2_PLACEMENT_3D('',#1976,#1977,#1978);
#1976 = CARTESIAN_POINT('',(-21.,17.00698948878,0.));
#1977 = DIRECTION('',(1.,-0.,0.));
#1978 = DIRECTION('',(0.,0.,-1.));
#1979 = ADVANCED_FACE('',(#1980),#1992,.F.);
#1980 = FACE_BOUND('',#1981,.T.);
#1981 = EDGE_LOOP('',(#1982,#1983,#1984,#1985,#1991));
#1982 = ORIENTED_EDGE('',*,*,#1814,.T.);
#1983 = ORIENTED_EDGE('',*,*,#1968,.T.);
#1984 = ORIENTED_EDGE('',*,*,#1171,.T.);
#1985 = ORIENTED_EDGE('',*,*,#1986,.F.);
#1986 = EDGE_CURVE('',#1719,#1162,#1987,.T.);
#1987 = LINE('',#1988,#1989);
#1988 = CARTESIAN_POINT('',(-29.7,-8.5,-23.75));
#1989 = VECTOR('',#1990,1.);
#1990 = DIRECTION('',(1.,0.,-0.));
#1991 = ORIENTED_EDGE('',*,*,#1718,.F.);
#1992 = PLANE('',#1993);
#1993 = AXIS2_PLACEMENT_3D('',#1994,#1995,#1996);
#1994 = CARTESIAN_POINT('',(-29.7,-8.5,-33.75));
#1995 = DIRECTION('',(0.,1.,0.));
#1996 = DIRECTION('',(0.,-0.,1.));
#1997 = ADVANCED_FACE('',(#1998),#2014,.F.);
#1998 = FACE_BOUND('',#1999,.T.);
#1999 = EDGE_LOOP('',(#2000,#2006,#2007,#2013));
#2000 = ORIENTED_EDGE('',*,*,#2001,.F.);
#2001 = EDGE_CURVE('',#1180,#1822,#2002,.T.);
#2002 = LINE('',#2003,#2004);
#2003 = CARTESIAN_POINT('',(-21.,8.5,0.));
#2004 = VECTOR('',#2005,1.);
#2005 = DIRECTION('',(0.,0.,-1.));
#2006 = ORIENTED_EDGE('',*,*,#1367,.T.);
#2007 = ORIENTED_EDGE('',*,*,#2008,.F.);
#2008 = EDGE_CURVE('',#1830,#1358,#2009,.T.);
#2009 = LINE('',#2010,#2011);
#2010 = CARTESIAN_POINT('',(-21.,17.00698948878,0.));
#2011 = VECTOR('',#2012,1.);
#2012 = DIRECTION('',(-0.,-0.,1.));
#2013 = ORIENTED_EDGE('',*,*,#1829,.T.);
#2014 = PLANE('',#2015);
#2015 = AXIS2_PLACEMENT_3D('',#2016,#2017,#2018);
#2016 = CARTESIAN_POINT('',(-21.,17.00698948878,0.));
#2017 = DIRECTION('',(1.,-0.,0.));
#2018 = DIRECTION('',(0.,0.,-1.));
#2019 = ADVANCED_FACE('',(#2020),#2032,.F.);
#2020 = FACE_BOUND('',#2021,.T.);
#2021 = EDGE_LOOP('',(#2022,#2028,#2029,#2030,#2031));
#2022 = ORIENTED_EDGE('',*,*,#2023,.F.);
#2023 = EDGE_CURVE('',#1164,#1727,#2024,.T.);
#2024 = LINE('',#2025,#2026);
#2025 = CARTESIAN_POINT('',(-29.7,8.5,-23.75));
#2026 = VECTOR('',#2027,1.);
#2027 = DIRECTION('',(-1.,-0.,-0.));
#2028 = ORIENTED_EDGE('',*,*,#1187,.T.);
#2029 = ORIENTED_EDGE('',*,*,#2001,.T.);
#2030 = ORIENTED_EDGE('',*,*,#1821,.T.);
#2031 = ORIENTED_EDGE('',*,*,#1734,.F.);
#2032 = PLANE('',#2033);
#2033 = AXIS2_PLACEMENT_3D('',#2034,#2035,#2036);
#2034 = CARTESIAN_POINT('',(-29.7,8.5,-33.75));
#2035 = DIRECTION('',(0.,-1.,0.));
#2036 = DIRECTION('',(0.,-0.,-1.));
#2037 = ADVANCED_FACE('',(#2038),#2044,.F.);
#2038 = FACE_BOUND('',#2039,.T.);
#2039 = EDGE_LOOP('',(#2040,#2041,#2042,#2043));
#2040 = ORIENTED_EDGE('',*,*,#2008,.T.);
#2041 = ORIENTED_EDGE('',*,*,#1357,.T.);
#2042 = ORIENTED_EDGE('',*,*,#1859,.T.);
#2043 = ORIENTED_EDGE('',*,*,#1837,.T.);
#2044 = PLANE('',#2045);
#2045 = AXIS2_PLACEMENT_3D('',#2046,#2047,#2048);
#2046 = CARTESIAN_POINT('',(-17.00698948878,21.,0.));
#2047 = DIRECTION('',(0.707106781187,-0.707106781187,0.));
#2048 = DIRECTION('',(0.707106781187,0.707106781187,0.));
#2049 = ADVANCED_FACE('',(#2050),#2056,.F.);
#2050 = FACE_BOUND('',#2051,.T.);
#2051 = EDGE_LOOP('',(#2052,#2053,#2054,#2055));
#2052 = ORIENTED_EDGE('',*,*,#1986,.T.);
#2053 = ORIENTED_EDGE('',*,*,#1161,.T.);
#2054 = ORIENTED_EDGE('',*,*,#2023,.T.);
#2055 = ORIENTED_EDGE('',*,*,#1726,.F.);
#2056 = PLANE('',#2057);
#2057 = AXIS2_PLACEMENT_3D('',#2058,#2059,#2060);
#2058 = CARTESIAN_POINT('',(-29.7,8.5,-23.75));
#2059 = DIRECTION('',(0.,0.,-1.));
#2060 = DIRECTION('',(-1.,0.,-0.));
#2061 = ( GEOMETRIC_REPRESENTATION_CONTEXT(3) 
GLOBAL_UNCERTAINTY_ASSIGNED_CONTEXT((#2065)) 
GLOBAL_UNIT_ASSIGNED_CONTEXT((#2062,#2063,#2064)) REPRESENTATION_CONTEXT
('Context #1','3D Context with UNIT and UNCERTAINTY') );
#2062 = ( LENGTH_UNIT() NAMED_UNIT(*) SI_UNIT(.MILLI.,.METRE.) );
#2063 = ( NAMED_UNIT(*) PLANE_ANGLE_UNIT() SI_UNIT($,.RADIAN.) );
#2064 = ( NAMED_UNIT(*) SI_UNIT($,.STERADIAN.) SOLID_ANGLE_UNIT() );
#2065 = UNCERTAINTY_MEASURE_WITH_UNIT(LENGTH_MEASURE(1.E-07),#2062,
  'distance_accuracy_value','confusion accuracy');
#2066 = PRODUCT_RELATED_PRODUCT_CATEGORY('part',$,(#7));
#2067 = MECHANICAL_DESIGN_GEOMETRIC_PRESENTATION_REPRESENTATION('',(
    #2068,#2079,#2087,#2094,#2101,#2108,#2115,#2122,#2129),#2061);
#2068 = STYLED_ITEM('color',(#2069),#15);
#2069 = PRESENTATION_STYLE_ASSIGNMENT((#2070,#2076));
#2070 = SURFACE_STYLE_USAGE(.BOTH.,#2071);
#2071 = SURFACE_SIDE_STYLE('',(#2072));
#2072 = SURFACE_STYLE_FILL_AREA(#2073);
#2073 = FILL_AREA_STYLE('',(#2074));
#2074 = FILL_AREA_STYLE_COLOUR('',#2075);
#2075 = COLOUR_RGB('',0.898039222556,0.898039222556,0.898039222556);
#2076 = CURVE_STYLE('',#2077,POSITIVE_LENGTH_MEASURE(0.1),#2078);
#2077 = DRAUGHTING_PRE_DEFINED_CURVE_FONT('continuous');
#2078 = COLOUR_RGB('',9.803921802644E-02,9.803921802644E-02,
  9.803921802644E-02);
#2079 = OVER_RIDING_STYLED_ITEM('overriding color',(#2080),#1432,#2068);
#2080 = PRESENTATION_STYLE_ASSIGNMENT((#2081));
#2081 = SURFACE_STYLE_USAGE(.BOTH.,#2082);
#2082 = SURFACE_SIDE_STYLE('',(#2083));
#2083 = SURFACE_STYLE_FILL_AREA(#2084);
#2084 = FILL_AREA_STYLE('',(#2085));
#2085 = FILL_AREA_STYLE_COLOUR('',#2086);
#2086 = COLOUR_RGB('',0.250980406631,0.250980406631,0.250980406631);
#2087 = OVER_RIDING_STYLED_ITEM('overriding color',(#2088),#1454,#2068);
#2088 = PRESENTATION_STYLE_ASSIGNMENT((#2089));
#2089 = SURFACE_STYLE_USAGE(.BOTH.,#2090);
#2090 = SURFACE_SIDE_STYLE('',(#2091));
#2091 = SURFACE_STYLE_FILL_AREA(#2092);
#2092 = FILL_AREA_STYLE('',(#2093));
#2093 = FILL_AREA_STYLE_COLOUR('',#2086);
#2094 = OVER_RIDING_STYLED_ITEM('overriding color',(#2095),#1471,#2068);
#2095 = PRESENTATION_STYLE_ASSIGNMENT((#2096));
#2096 = SURFACE_STYLE_USAGE(.BOTH.,#2097);
#2097 = SURFACE_SIDE_STYLE('',(#2098));
#2098 = SURFACE_STYLE_FILL_AREA(#2099);
#2099 = FILL_AREA_STYLE('',(#2100));
#2100 = FILL_AREA_STYLE_COLOUR('',#2086);
#2101 = OVER_RIDING_STYLED_ITEM('overriding color',(#2102),#1488,#2068);
#2102 = PRESENTATION_STYLE_ASSIGNMENT((#2103));
#2103 = SURFACE_STYLE_USAGE(.BOTH.,#2104);
#2104 = SURFACE_SIDE_STYLE('',(#2105));
#2105 = SURFACE_STYLE_FILL_AREA(#2106);
#2106 = FILL_AREA_STYLE('',(#2107));
#2107 = FILL_AREA_STYLE_COLOUR('',#2086);
#2108 = OVER_RIDING_STYLED_ITEM('overriding color',(#2109),#1505,#2068);
#2109 = PRESENTATION_STYLE_ASSIGNMENT((#2110));
#2110 = SURFACE_STYLE_USAGE(.BOTH.,#2111);
#2111 = SURFACE_SIDE_STYLE('',(#2112));
#2112 = SURFACE_STYLE_FILL_AREA(#2113);
#2113 = FILL_AREA_STYLE('',(#2114));
#2114 = FILL_AREA_STYLE_COLOUR('',#2086);
#2115 = OVER_RIDING_STYLED_ITEM('overriding color',(#2116),#1522,#2068);
#2116 = PRESENTATION_STYLE_ASSIGNMENT((#2117));
#2117 = SURFACE_STYLE_USAGE(.BOTH.,#2118);
#2118 = SURFACE_SIDE_STYLE('',(#2119));
#2119 = SURFACE_STYLE_FILL_AREA(#2120);
#2120 = FILL_AREA_STYLE('',(#2121));
#2121 = FILL_AREA_STYLE_COLOUR('',#2086);
#2122 = OVER_RIDING_STYLED_ITEM('overriding color',(#2123),#1539,#2068);
#2123 = PRESENTATION_STYLE_ASSIGNMENT((#2124));
#2124 = SURFACE_STYLE_USAGE(.BOTH.,#2125);
#2125 = SURFACE_SIDE_STYLE('',(#2126));
#2126 = SURFACE_STYLE_FILL_AREA(#2127);
#2127 = FILL_AREA_STYLE('',(#2128));
#2128 = FILL_AREA_STYLE_COLOUR('',#2086);
#2129 = OVER_RIDING_STYLED_ITEM('overriding color',(#2130),#1556,#2068);
#2130 = PRESENTATION_STYLE_ASSIGNMENT((#2131));
#2131 = SURFACE_STYLE_USAGE(.BOTH.,#2132);
#2132 = SURFACE_SIDE_STYLE('',(#2133));
#2133 = SURFACE_STYLE_FILL_AREA(#2134);
#2134 = FILL_AREA_STYLE('',(#2135));
#2135 = FILL_AREA_STYLE_COLOUR('',#2086);
ENDSEC;
END-ISO-10303-21;
