ISO-10303-21;
HEADER;
FILE_DESCRIPTION(('FreeCAD Model'),'2;1');
FILE_NAME('Open CASCADE Shape Model','2026-09-03T21:59:30',('Author'),(
    ''),'Open CASCADE STEP processor 7.9','FreeCAD','Unknown');
FILE_SCHEMA(('AUTOMOTIVE_DESIGN { 1 0 10303 214 1 1 1 1 }'));
ENDSEC;
DATA;
#1 = APPLICATION_PROTOCOL_DEFINITION('international standard',
  'automotive_design',2000,#2);
#2 = APPLICATION_CONTEXT(
  'core data for automotive mechanical design processes');
#3 = SHAPE_DEFINITION_REPRESENTATION(#4,#10);
#4 = PRODUCT_DEFINITION_SHAPE('','',#5);
#5 = PRODUCT_DEFINITION('design','',#6,#9);
#6 = PRODUCT_DEFINITION_FORMATION('','',#7);
#7 = PRODUCT('Z coupler_Standard','Z coupler_Standard','',(#8));
#8 = PRODUCT_CONTEXT('',#2,'mechanical');
#9 = PRODUCT_DEFINITION_CONTEXT('part definition',#2,'design');
#10 = ADVANCED_BREP_SHAPE_REPRESENTATION('',(#11,#15),#1225);
#11 = AXIS2_PLACEMENT_3D('',#12,#13,#14);
#12 = CARTESIAN_POINT('',(0.,0.,0.));
#13 = DIRECTION('',(0.,0.,1.));
#14 = DIRECTION('',(1.,0.,-0.));
#15 = MANIFOLD_SOLID_BREP('',#16);
#16 = CLOSED_SHELL('',(#17,#279,#311,#391,#473,#505,#563,#619,#687,#764,
    #796,#837,#899,#917,#947,#979,#997,#1017,#1061,#1103,#1134,#1166,
    #1186,#1198,#1212));
#17 = ADVANCED_FACE('',(#18,#82,#146),#274,.T.);
#18 = FACE_BOUND('',#19,.T.);
#19 = EDGE_LOOP('',(#20,#53));
#20 = ORIENTED_EDGE('',*,*,#21,.T.);
#21 = EDGE_CURVE('',#22,#24,#26,.T.);
#22 = VERTEX_POINT('',#23);
#23 = CARTESIAN_POINT('',(9.854440623394,-9.,-1.7));
#24 = VERTEX_POINT('',#25);
#25 = CARTESIAN_POINT('',(9.854440623394,-9.,1.7));
#26 = B_SPLINE_CURVE_WITH_KNOTS('',3,(#27,#28,#29,#30,#31,#32,#33,#34,
    #35,#36,#37,#38,#39,#40,#41,#42,#43,#44,#45,#46,#47,#48,#49,#50,#51,
    #52),.UNSPECIFIED.,.F.,.F.,(4,2,2,2,2,2,2,2,2,2,2,2,4),(
    5.323302107369E-03,5.656008137505E-03,5.988714167641E-03,
    6.321420197777E-03,6.654126227913E-03,7.319538288186E-03,
    7.984950348458E-03,8.317656378594E-03,8.65036240873E-03,
    9.315774469002E-03,9.648480499139E-03,9.981186529275E-03,
    1.064659858955E-02),.UNSPECIFIED.);
#27 = CARTESIAN_POINT('',(9.854440623394,-9.,-1.7));
#28 = CARTESIAN_POINT('',(9.854440623394,-9.112515166356,-1.7));
#29 = CARTESIAN_POINT('',(9.856366612884,-9.223108726416,-1.688940261407
    ));
#30 = CARTESIAN_POINT('',(9.86368763577,-9.440622823124,-1.645645234595)
  );
#31 = CARTESIAN_POINT('',(9.869170110824,-9.548685213341,-1.612870001206
    ));
#32 = CARTESIAN_POINT('',(9.882744032161,-9.754431171267,-1.52749425922)
  );
#33 = CARTESIAN_POINT('',(9.890774989998,-9.851982124711,-1.47527961758)
  );
#34 = CARTESIAN_POINT('',(9.908385392164,-10.03660248779,-1.351953687508
    ));
#35 = CARTESIAN_POINT('',(9.918015061033,-10.12385716618,-1.280308294158
    ));
#36 = CARTESIAN_POINT('',(9.946437869496,-10.35858566464,-1.04557258193)
  );
#37 = CARTESIAN_POINT('',(9.965378022076,-10.48518827371,-0.856276610415
    ));
#38 = CARTESIAN_POINT('',(9.992085963075,-10.65493413131,-0.447422465834
    ));
#39 = CARTESIAN_POINT('',(9.999970706622,-10.69982768596,-0.223467187318
    ));
#40 = CARTESIAN_POINT('',(10.000014517051,-10.70008539444,0.109761505286
    ));
#41 = CARTESIAN_POINT('',(9.998117510231,-10.68902682071,0.222618058596)
  );
#42 = CARTESIAN_POINT('',(9.990876798863,-10.64562360908,0.440787180318)
  );
#43 = CARTESIAN_POINT('',(9.98557034787,-10.6135014792,0.546850391625));
#44 = CARTESIAN_POINT('',(9.965440292172,-10.48562701284,0.855945018979)
  );
#45 = CARTESIAN_POINT('',(9.946733249319,-10.36093746707,1.043042780695)
  );
#46 = CARTESIAN_POINT('',(9.917989844377,-10.12369242553,1.280561435738)
  );
#47 = CARTESIAN_POINT('',(9.908546307247,-10.03810395917,1.350769610369)
  );
#48 = CARTESIAN_POINT('',(9.890977614398,-9.854288051962,1.47391665118)
  );
#49 = CARTESIAN_POINT('',(9.882776761569,-9.754846420706,1.527282444825)
  );
#50 = CARTESIAN_POINT('',(9.862419362396,-9.446522204517,1.655341977166)
  );
#51 = CARTESIAN_POINT('',(9.854440623394,-9.225030094921,1.7));
#52 = CARTESIAN_POINT('',(9.854440623394,-9.,1.7));
#53 = ORIENTED_EDGE('',*,*,#54,.T.);
#54 = EDGE_CURVE('',#24,#22,#55,.T.);
#55 = B_SPLINE_CURVE_WITH_KNOTS('',3,(#56,#57,#58,#59,#60,#61,#62,#63,
    #64,#65,#66,#67,#68,#69,#70,#71,#72,#73,#74,#75,#76,#77,#78,#79,#80,
    #81),.UNSPECIFIED.,.F.,.F.,(4,2,2,2,2,2,2,2,2,2,2,2,4),(0.,
    3.327063817106E-04,6.654127634211E-04,9.981191451317E-04,
    1.330825526842E-03,1.996238290263E-03,2.661651053684E-03,
    2.994357435395E-03,3.327063817106E-03,3.992476580527E-03,
    4.325182962237E-03,4.657889343948E-03,5.323302107369E-03),
  .UNSPECIFIED.);
#56 = CARTESIAN_POINT('',(9.854440623394,-9.,1.7));
#57 = CARTESIAN_POINT('',(9.854440623394,-8.887484833644,1.7));
#58 = CARTESIAN_POINT('',(9.856366612884,-8.776891273584,1.688940261407)
  );
#59 = CARTESIAN_POINT('',(9.86368763577,-8.559377176876,1.645645234595)
  );
#60 = CARTESIAN_POINT('',(9.869170110824,-8.451314786659,1.612870001206)
  );
#61 = CARTESIAN_POINT('',(9.882744032161,-8.245568828733,1.52749425922)
  );
#62 = CARTESIAN_POINT('',(9.890774989998,-8.148017875289,1.47527961758)
  );
#63 = CARTESIAN_POINT('',(9.908385392164,-7.963397512202,1.351953687508)
  );
#64 = CARTESIAN_POINT('',(9.918015061033,-7.87614283382,1.280308294158)
  );
#65 = CARTESIAN_POINT('',(9.946437869496,-7.641414335356,1.04557258193)
  );
#66 = CARTESIAN_POINT('',(9.965378022076,-7.514811726284,0.856276610415)
  );
#67 = CARTESIAN_POINT('',(9.992085963075,-7.345065868684,0.447422465834)
  );
#68 = CARTESIAN_POINT('',(9.999970706622,-7.300172314038,0.223467187318)
  );
#69 = CARTESIAN_POINT('',(10.000014517051,-7.299914605556,
    -0.109761505286));
#70 = CARTESIAN_POINT('',(9.998117510231,-7.310973179283,-0.222618058596
    ));
#71 = CARTESIAN_POINT('',(9.990876798863,-7.354376390914,-0.440787180318
    ));
#72 = CARTESIAN_POINT('',(9.98557034787,-7.3864985208,-0.546850391625));
#73 = CARTESIAN_POINT('',(9.965440292172,-7.514372987157,-0.855945018979
    ));
#74 = CARTESIAN_POINT('',(9.946733249319,-7.639062532922,-1.043042780695
    ));
#75 = CARTESIAN_POINT('',(9.917989844377,-7.876307574461,-1.280561435738
    ));
#76 = CARTESIAN_POINT('',(9.908546307247,-7.961896040825,-1.350769610369
    ));
#77 = CARTESIAN_POINT('',(9.890977614398,-8.145711948038,-1.47391665118)
  );
#78 = CARTESIAN_POINT('',(9.882776761569,-8.245153579294,-1.527282444825
    ));
#79 = CARTESIAN_POINT('',(9.862419362396,-8.553477795483,-1.655341977166
    ));
#80 = CARTESIAN_POINT('',(9.854440623394,-8.774969429495,-1.7));
#81 = CARTESIAN_POINT('',(9.854440623394,-9.,-1.7));
#82 = FACE_BOUND('',#83,.T.);
#83 = EDGE_LOOP('',(#84,#117));
#84 = ORIENTED_EDGE('',*,*,#85,.T.);
#85 = EDGE_CURVE('',#86,#88,#90,.T.);
#86 = VERTEX_POINT('',#87);
#87 = CARTESIAN_POINT('',(9.854440623394,9.,-1.7));
#88 = VERTEX_POINT('',#89);
#89 = CARTESIAN_POINT('',(9.854440623394,9.,1.7));
#90 = B_SPLINE_CURVE_WITH_KNOTS('',3,(#91,#92,#93,#94,#95,#96,#97,#98,
    #99,#100,#101,#102,#103,#104,#105,#106,#107,#108,#109,#110,#111,#112
    ,#113,#114,#115,#116),.UNSPECIFIED.,.F.,.F.,(4,2,2,2,2,2,2,2,2,2,2,2
    ,4),(5.323302107369E-03,5.656008137505E-03,5.988714167641E-03,
    6.321420197777E-03,6.654126227913E-03,7.319538288186E-03,
    7.984950348458E-03,8.317656378594E-03,8.65036240873E-03,
    9.315774469002E-03,9.648480499139E-03,9.981186529275E-03,
    1.064659858955E-02),.UNSPECIFIED.);
#91 = CARTESIAN_POINT('',(9.854440623394,9.,-1.7));
#92 = CARTESIAN_POINT('',(9.854440623394,8.887484833644,-1.7));
#93 = CARTESIAN_POINT('',(9.856366612884,8.776891273584,-1.688940261407)
  );
#94 = CARTESIAN_POINT('',(9.86368763577,8.559377176876,-1.645645234595)
  );
#95 = CARTESIAN_POINT('',(9.869170110824,8.451314786659,-1.612870001206)
  );
#96 = CARTESIAN_POINT('',(9.882744032161,8.245568828733,-1.52749425922)
  );
#97 = CARTESIAN_POINT('',(9.890774989998,8.148017875289,-1.47527961758)
  );
#98 = CARTESIAN_POINT('',(9.908385392164,7.963397512202,-1.351953687508)
  );
#99 = CARTESIAN_POINT('',(9.918015061033,7.87614283382,-1.280308294158)
  );
#100 = CARTESIAN_POINT('',(9.946437869496,7.641414335356,-1.04557258193)
  );
#101 = CARTESIAN_POINT('',(9.965378022076,7.514811726284,-0.856276610415
    ));
#102 = CARTESIAN_POINT('',(9.992085963075,7.345065868684,-0.447422465834
    ));
#103 = CARTESIAN_POINT('',(9.999970706622,7.300172314038,-0.223467187318
    ));
#104 = CARTESIAN_POINT('',(10.000014517051,7.299914605556,0.109761505286
    ));
#105 = CARTESIAN_POINT('',(9.998117510231,7.310973179283,0.222618058596)
  );
#106 = CARTESIAN_POINT('',(9.990876798863,7.354376390914,0.440787180318)
  );
#107 = CARTESIAN_POINT('',(9.98557034787,7.3864985208,0.546850391625));
#108 = CARTESIAN_POINT('',(9.965440292172,7.514372987157,0.855945018979)
  );
#109 = CARTESIAN_POINT('',(9.946733249319,7.639062532922,1.043042780695)
  );
#110 = CARTESIAN_POINT('',(9.917989844377,7.876307574461,1.280561435738)
  );
#111 = CARTESIAN_POINT('',(9.908546307247,7.961896040825,1.350769610369)
  );
#112 = CARTESIAN_POINT('',(9.890977614398,8.145711948038,1.47391665118)
  );
#113 = CARTESIAN_POINT('',(9.882776761569,8.245153579294,1.527282444825)
  );
#114 = CARTESIAN_POINT('',(9.862419362396,8.553477795483,1.655341977166)
  );
#115 = CARTESIAN_POINT('',(9.854440623394,8.774969905079,1.7));
#116 = CARTESIAN_POINT('',(9.854440623394,9.,1.7));
#117 = ORIENTED_EDGE('',*,*,#118,.T.);
#118 = EDGE_CURVE('',#88,#86,#119,.T.);
#119 = B_SPLINE_CURVE_WITH_KNOTS('',3,(#120,#121,#122,#123,#124,#125,
    #126,#127,#128,#129,#130,#131,#132,#133,#134,#135,#136,#137,#138,
    #139,#140,#141,#142,#143,#144,#145),.UNSPECIFIED.,.F.,.F.,(4,2,2,2,2
    ,2,2,2,2,2,2,2,4),(0.,3.327063817106E-04,6.654127634211E-04,
    9.981191451317E-04,1.330825526842E-03,1.996238290263E-03,
    2.661651053684E-03,2.994357435395E-03,3.327063817106E-03,
    3.992476580527E-03,4.325182962237E-03,4.657889343948E-03,
    5.323302107369E-03),.UNSPECIFIED.);
#120 = CARTESIAN_POINT('',(9.854440623394,9.,1.7));
#121 = CARTESIAN_POINT('',(9.854440623394,9.112515166356,1.7));
#122 = CARTESIAN_POINT('',(9.856366612884,9.223108726416,1.688940261407)
  );
#123 = CARTESIAN_POINT('',(9.86368763577,9.440622823124,1.645645234595)
  );
#124 = CARTESIAN_POINT('',(9.869170110824,9.548685213341,1.612870001206)
  );
#125 = CARTESIAN_POINT('',(9.882744032161,9.754431171267,1.52749425922)
  );
#126 = CARTESIAN_POINT('',(9.890774989998,9.851982124711,1.47527961758)
  );
#127 = CARTESIAN_POINT('',(9.908385392164,10.036602487798,1.351953687508
    ));
#128 = CARTESIAN_POINT('',(9.918015061033,10.12385716618,1.280308294158)
  );
#129 = CARTESIAN_POINT('',(9.946437869496,10.358585664644,1.04557258193)
  );
#130 = CARTESIAN_POINT('',(9.965378022076,10.485188273716,0.856276610415
    ));
#131 = CARTESIAN_POINT('',(9.992085963075,10.654934131316,0.447422465834
    ));
#132 = CARTESIAN_POINT('',(9.999970706622,10.699827685962,0.223467187318
    ));
#133 = CARTESIAN_POINT('',(10.000014517051,10.700085394444,
    -0.109761505286));
#134 = CARTESIAN_POINT('',(9.998117510231,10.689026820717,
    -0.222618058596));
#135 = CARTESIAN_POINT('',(9.990876798863,10.645623609086,
    -0.440787180318));
#136 = CARTESIAN_POINT('',(9.98557034787,10.6135014792,-0.546850391625)
  );
#137 = CARTESIAN_POINT('',(9.965440292172,10.485627012843,
    -0.855945018979));
#138 = CARTESIAN_POINT('',(9.946733249319,10.360937467078,
    -1.043042780695));
#139 = CARTESIAN_POINT('',(9.917989844377,10.123692425539,
    -1.280561435738));
#140 = CARTESIAN_POINT('',(9.908546307247,10.038103959175,
    -1.350769610369));
#141 = CARTESIAN_POINT('',(9.890977614398,9.854288051962,-1.47391665118)
  );
#142 = CARTESIAN_POINT('',(9.882776761569,9.754846420706,-1.527282444825
    ));
#143 = CARTESIAN_POINT('',(9.862419362396,9.446522204517,-1.655341977166
    ));
#144 = CARTESIAN_POINT('',(9.854440623394,9.225030570505,-1.7));
#145 = CARTESIAN_POINT('',(9.854440623394,9.,-1.7));
#146 = FACE_BOUND('',#147,.T.);
#147 = EDGE_LOOP('',(#148,#159,#167,#176,#184,#203,#222,#230,#249,#268)
  );
#148 = ORIENTED_EDGE('',*,*,#149,.T.);
#149 = EDGE_CURVE('',#150,#152,#154,.T.);
#150 = VERTEX_POINT('',#151);
#151 = CARTESIAN_POINT('',(0.,-12.5,10.000000000003));
#152 = VERTEX_POINT('',#153);
#153 = CARTESIAN_POINT('',(1.E-15,-12.5,-10.));
#154 = CIRCLE('',#155,10.);
#155 = AXIS2_PLACEMENT_3D('',#156,#157,#158);
#156 = CARTESIAN_POINT('',(0.,-12.5,0.));
#157 = DIRECTION('',(0.,1.,0.));
#158 = DIRECTION('',(0.,-0.,1.));
#159 = ORIENTED_EDGE('',*,*,#160,.T.);
#160 = EDGE_CURVE('',#152,#161,#163,.T.);
#161 = VERTEX_POINT('',#162);
#162 = CARTESIAN_POINT('',(0.,12.54,-10.));
#163 = LINE('',#164,#165);
#164 = CARTESIAN_POINT('',(1.22E-15,-13.,-10.));
#165 = VECTOR('',#166,1.);
#166 = DIRECTION('',(0.,1.,0.));
#167 = ORIENTED_EDGE('',*,*,#168,.T.);
#168 = EDGE_CURVE('',#161,#169,#171,.T.);
#169 = VERTEX_POINT('',#170);
#170 = CARTESIAN_POINT('',(1.E-15,12.54,10.));
#171 = CIRCLE('',#172,10.);
#172 = AXIS2_PLACEMENT_3D('',#173,#174,#175);
#173 = CARTESIAN_POINT('',(0.,12.54,0.));
#174 = DIRECTION('',(0.,-1.,0.));
#175 = DIRECTION('',(0.,0.,1.));
#176 = ORIENTED_EDGE('',*,*,#177,.F.);
#177 = EDGE_CURVE('',#178,#169,#180,.T.);
#178 = VERTEX_POINT('',#179);
#179 = CARTESIAN_POINT('',(0.,10.7,10.));
#180 = LINE('',#181,#182);
#181 = CARTESIAN_POINT('',(0.,-13.,10.));
#182 = VECTOR('',#183,1.);
#183 = DIRECTION('',(0.,1.,0.));
#184 = ORIENTED_EDGE('',*,*,#185,.T.);
#185 = EDGE_CURVE('',#178,#186,#188,.T.);
#186 = VERTEX_POINT('',#187);
#187 = CARTESIAN_POINT('',(1.7,9.,9.854440623394));
#188 = B_SPLINE_CURVE_WITH_KNOTS('',3,(#189,#190,#191,#192,#193,#194,
    #195,#196,#197,#198,#199,#200,#201,#202),.UNSPECIFIED.,.F.,.F.,(4,2,
    2,2,2,2,4),(5.321063464029E-03,5.653638983071E-03,5.986214502113E-03
    ,6.318790021154E-03,6.651365540196E-03,7.31651657828E-03,
    7.981667616363E-03),.UNSPECIFIED.);
#189 = CARTESIAN_POINT('',(0.,10.7,10.));
#190 = CARTESIAN_POINT('',(0.112466073311,10.7,10.));
#191 = CARTESIAN_POINT('',(0.223013462379,10.688949796062,9.998104650529
    ));
#192 = CARTESIAN_POINT('',(0.440440116822,10.645691016416,9.990888054163
    ));
#193 = CARTESIAN_POINT('',(0.548459946613,10.612943748817,9.985480115236
    ));
#194 = CARTESIAN_POINT('',(0.754143094305,10.52763347803,9.972055436976)
  );
#195 = CARTESIAN_POINT('',(0.851666203894,10.475458431312,9.964098445786
    ));
#196 = CARTESIAN_POINT('',(1.036236963048,10.352229958919,9.94659771563)
  );
#197 = CARTESIAN_POINT('',(1.123478702069,10.280636522708,9.937001870527
    ));
#198 = CARTESIAN_POINT('',(1.358186878271,10.046071504667,9.908590751419
    ));
#199 = CARTESIAN_POINT('',(1.484800391955,9.856921878652,9.889527994515)
  );
#200 = CARTESIAN_POINT('',(1.654669892992,9.448346802476,9.862528261226)
  );
#201 = CARTESIAN_POINT('',(1.7,9.224928830189,9.854440623394));
#202 = CARTESIAN_POINT('',(1.7,9.,9.854440623394));
#203 = ORIENTED_EDGE('',*,*,#204,.T.);
#204 = EDGE_CURVE('',#186,#205,#207,.T.);
#205 = VERTEX_POINT('',#206);
#206 = CARTESIAN_POINT('',(0.,7.3,10.));
#207 = B_SPLINE_CURVE_WITH_KNOTS('',3,(#208,#209,#210,#211,#212,#213,
    #214,#215,#216,#217,#218,#219,#220,#221),.UNSPECIFIED.,.F.,.F.,(4,2,
    2,2,2,2,4),(7.981667616363E-03,8.314249441694E-03,8.646831267025E-03
    ,8.979413092356E-03,9.311994917687E-03,9.977158568349E-03,
    1.064232221901E-02),.UNSPECIFIED.);
#208 = CARTESIAN_POINT('',(1.7,9.,9.854440623394));
#209 = CARTESIAN_POINT('',(1.7,8.887533452358,9.854440623394));
#210 = CARTESIAN_POINT('',(1.68894972584,8.776986866146,9.85636494914));
#211 = CARTESIAN_POINT('',(1.645691882576,8.559563555196,9.863679811038)
  );
#212 = CARTESIAN_POINT('',(1.61294558635,8.451546344284,9.869157602902)
  );
#213 = CARTESIAN_POINT('',(1.527639980258,8.245870722151,9.882721353259)
  );
#214 = CARTESIAN_POINT('',(1.475468003557,8.148350719521,9.890746563742)
  );
#215 = CARTESIAN_POINT('',(1.352244816521,7.963782704906,9.908345339858)
  );
#216 = CARTESIAN_POINT('',(1.28065507909,7.876542539563,9.917969820676)
  );
#217 = CARTESIAN_POINT('',(1.046095991449,7.641832276661,9.94638096789)
  );
#218 = CARTESIAN_POINT('',(0.856939165041,7.515208340328,9.965318365538)
  );
#219 = CARTESIAN_POINT('',(0.448349762544,7.345329792485,9.992041700751)
  );
#220 = CARTESIAN_POINT('',(0.224944667282,7.3,10.));
#221 = CARTESIAN_POINT('',(0.,7.3,10.));
#222 = ORIENTED_EDGE('',*,*,#223,.F.);
#223 = EDGE_CURVE('',#224,#205,#226,.T.);
#224 = VERTEX_POINT('',#225);
#225 = CARTESIAN_POINT('',(0.,-7.3,10.));
#226 = LINE('',#227,#228);
#227 = CARTESIAN_POINT('',(0.,-13.,10.));
#228 = VECTOR('',#229,1.);
#229 = DIRECTION('',(0.,1.,0.));
#230 = ORIENTED_EDGE('',*,*,#231,.T.);
#231 = EDGE_CURVE('',#224,#232,#234,.T.);
#232 = VERTEX_POINT('',#233);
#233 = CARTESIAN_POINT('',(1.7,-9.,9.854440623394));
#234 = B_SPLINE_CURVE_WITH_KNOTS('',3,(#235,#236,#237,#238,#239,#240,
    #241,#242,#243,#244,#245,#246,#247,#248),.UNSPECIFIED.,.F.,.F.,(4,2,
    2,2,2,2,4),(5.321063464029E-03,5.653638983071E-03,5.986214502113E-03
    ,6.318790021154E-03,6.651365540196E-03,7.31651657828E-03,
    7.981667616363E-03),.UNSPECIFIED.);
#235 = CARTESIAN_POINT('',(0.,-7.3,10.));
#236 = CARTESIAN_POINT('',(0.112466073311,-7.3,10.));
#237 = CARTESIAN_POINT('',(0.223013462379,-7.311050203938,9.998104650529
    ));
#238 = CARTESIAN_POINT('',(0.440440116822,-7.354308983584,9.990888054163
    ));
#239 = CARTESIAN_POINT('',(0.548459946613,-7.387056251183,9.985480115236
    ));
#240 = CARTESIAN_POINT('',(0.754143094305,-7.47236652197,9.972055436976)
  );
#241 = CARTESIAN_POINT('',(0.851666203894,-7.524541568688,9.964098445786
    ));
#242 = CARTESIAN_POINT('',(1.036236963048,-7.647770041081,9.94659771563)
  );
#243 = CARTESIAN_POINT('',(1.123478702069,-7.719363477292,9.937001870527
    ));
#244 = CARTESIAN_POINT('',(1.358186878271,-7.953928495333,9.908590751419
    ));
#245 = CARTESIAN_POINT('',(1.484800391955,-8.143078121348,9.889527994515
    ));
#246 = CARTESIAN_POINT('',(1.654669892992,-8.551653197524,9.862528261226
    ));
#247 = CARTESIAN_POINT('',(1.7,-8.775071169811,9.854440623394));
#248 = CARTESIAN_POINT('',(1.7,-9.,9.854440623394));
#249 = ORIENTED_EDGE('',*,*,#250,.T.);
#250 = EDGE_CURVE('',#232,#251,#253,.T.);
#251 = VERTEX_POINT('',#252);
#252 = CARTESIAN_POINT('',(0.,-10.7,10.));
#253 = B_SPLINE_CURVE_WITH_KNOTS('',3,(#254,#255,#256,#257,#258,#259,
    #260,#261,#262,#263,#264,#265,#266,#267),.UNSPECIFIED.,.F.,.F.,(4,2,
    2,2,2,2,4),(7.981667616363E-03,8.314249441694E-03,8.646831267025E-03
    ,8.979413092356E-03,9.311994917687E-03,9.977158568349E-03,
    1.064232221901E-02),.UNSPECIFIED.);
#254 = CARTESIAN_POINT('',(1.7,-9.,9.854440623394));
#255 = CARTESIAN_POINT('',(1.7,-9.112466547642,9.854440623394));
#256 = CARTESIAN_POINT('',(1.68894972584,-9.223013133854,9.85636494914)
  );
#257 = CARTESIAN_POINT('',(1.645691882576,-9.440436444804,9.863679811038
    ));
#258 = CARTESIAN_POINT('',(1.61294558635,-9.548453655716,9.869157602902)
  );
#259 = CARTESIAN_POINT('',(1.527639980258,-9.754129277849,9.882721353259
    ));
#260 = CARTESIAN_POINT('',(1.475468003557,-9.85164928048,9.890746563742)
  );
#261 = CARTESIAN_POINT('',(1.352244816521,-10.03621729509,9.908345339858
    ));
#262 = CARTESIAN_POINT('',(1.28065507909,-10.12345746043,9.917969820676)
  );
#263 = CARTESIAN_POINT('',(1.046095991449,-10.35816772333,9.94638096789)
  );
#264 = CARTESIAN_POINT('',(0.856939165041,-10.48479165967,9.965318365538
    ));
#265 = CARTESIAN_POINT('',(0.448349762544,-10.65467020751,9.992041700751
    ));
#266 = CARTESIAN_POINT('',(0.224944667282,-10.7,10.));
#267 = CARTESIAN_POINT('',(0.,-10.7,10.));
#268 = ORIENTED_EDGE('',*,*,#269,.F.);
#269 = EDGE_CURVE('',#150,#251,#270,.T.);
#270 = LINE('',#271,#272);
#271 = CARTESIAN_POINT('',(0.,-13.,10.));
#272 = VECTOR('',#273,1.);
#273 = DIRECTION('',(0.,1.,0.));
#274 = CYLINDRICAL_SURFACE('',#275,10.);
#275 = AXIS2_PLACEMENT_3D('',#276,#277,#278);
#276 = CARTESIAN_POINT('',(0.,-13.,0.));
#277 = DIRECTION('',(0.,1.,0.));
#278 = DIRECTION('',(0.,-0.,1.));
#279 = ADVANCED_FACE('',(#280),#306,.T.);
#280 = FACE_BOUND('',#281,.T.);
#281 = EDGE_LOOP('',(#282,#293,#299,#300));
#282 = ORIENTED_EDGE('',*,*,#283,.T.);
#283 = EDGE_CURVE('',#284,#286,#288,.T.);
#284 = VERTEX_POINT('',#285);
#285 = CARTESIAN_POINT('',(0.,13.,-9.54));
#286 = VERTEX_POINT('',#287);
#287 = CARTESIAN_POINT('',(1.E-15,13.,9.54));
#288 = CIRCLE('',#289,9.54);
#289 = AXIS2_PLACEMENT_3D('',#290,#291,#292);
#290 = CARTESIAN_POINT('',(4.E-17,13.,4.E-17));
#291 = DIRECTION('',(-9.E-17,-1.,-9.E-17));
#292 = DIRECTION('',(0.,9.E-17,-1.));
#293 = ORIENTED_EDGE('',*,*,#294,.T.);
#294 = EDGE_CURVE('',#286,#169,#295,.T.);
#295 = LINE('',#296,#297);
#296 = CARTESIAN_POINT('',(1.22E-15,12.54,10.));
#297 = VECTOR('',#298,1.);
#298 = DIRECTION('',(3.E-17,-0.707106781187,0.707106781186));
#299 = ORIENTED_EDGE('',*,*,#168,.F.);
#300 = ORIENTED_EDGE('',*,*,#301,.F.);
#301 = EDGE_CURVE('',#284,#161,#302,.T.);
#302 = LINE('',#303,#304);
#303 = CARTESIAN_POINT('',(0.,12.54,-10.));
#304 = VECTOR('',#305,1.);
#305 = DIRECTION('',(-6.E-17,-0.707106781187,-0.707106781186));
#306 = CONICAL_SURFACE('',#307,10.,0.785398163397);
#307 = AXIS2_PLACEMENT_3D('',#308,#309,#310);
#308 = CARTESIAN_POINT('',(0.,12.54,0.));
#309 = DIRECTION('',(-9.E-17,-1.,-9.E-17));
#310 = DIRECTION('',(0.,9.E-17,-1.));
#311 = ADVANCED_FACE('',(#312),#386,.F.);
#312 = FACE_BOUND('',#313,.F.);
#313 = EDGE_LOOP('',(#314,#335,#341,#342,#361,#369));
#314 = ORIENTED_EDGE('',*,*,#315,.T.);
#315 = EDGE_CURVE('',#316,#318,#320,.T.);
#316 = VERTEX_POINT('',#317);
#317 = CARTESIAN_POINT('',(0.,7.3,4.));
#318 = VERTEX_POINT('',#319);
#319 = CARTESIAN_POINT('',(1.7,9.,3.620773398046));
#320 = B_SPLINE_CURVE_WITH_KNOTS('',3,(#321,#322,#323,#324,#325,#326,
    #327,#328,#329,#330,#331,#332,#333,#334),.UNSPECIFIED.,.F.,.F.,(4,2,
    2,2,2,2,4),(5.3767058234E-03,5.712716171043E-03,6.048726518686E-03,
    6.720747213971E-03,7.392767909257E-03,7.7287782569E-03,
    8.064788604543E-03),.UNSPECIFIED.);
#321 = CARTESIAN_POINT('',(0.,7.3,4.));
#322 = CARTESIAN_POINT('',(0.113721425244,7.3,4.));
#323 = CARTESIAN_POINT('',(0.22529133006,7.311293979354,3.995163124357)
  );
#324 = CARTESIAN_POINT('',(0.44437939418,7.355308186439,3.976758922496)
  );
#325 = CARTESIAN_POINT('',(0.553043583126,7.388626781638,3.962950007724)
  );
#326 = CARTESIAN_POINT('',(0.861021739851,7.517379017326,3.911772160766)
  );
#327 = CARTESIAN_POINT('',(1.047696847139,7.643438657821,3.863762347283)
  );
#328 = CARTESIAN_POINT('',(1.357205715246,7.953138020032,3.76620774869)
  );
#329 = CARTESIAN_POINT('',(1.482963310847,8.139994781868,3.716101541142)
  );
#330 = CARTESIAN_POINT('',(1.610862875526,8.445637225829,3.661593711433)
  );
#331 = CARTESIAN_POINT('',(1.644244446924,8.553781860161,3.64651313388)
  );
#332 = CARTESIAN_POINT('',(1.688699814057,8.774293625332,3.626139927637)
  );
#333 = CARTESIAN_POINT('',(1.7,8.886280877675,3.620773398046));
#334 = CARTESIAN_POINT('',(1.7,9.,3.620773398046));
#335 = ORIENTED_EDGE('',*,*,#336,.T.);
#336 = EDGE_CURVE('',#318,#186,#337,.T.);
#337 = LINE('',#338,#339);
#338 = CARTESIAN_POINT('',(1.7,9.,0.));
#339 = VECTOR('',#340,1.);
#340 = DIRECTION('',(0.,0.,1.));
#341 = ORIENTED_EDGE('',*,*,#204,.T.);
#342 = ORIENTED_EDGE('',*,*,#343,.T.);
#343 = EDGE_CURVE('',#205,#344,#346,.T.);
#344 = VERTEX_POINT('',#345);
#345 = CARTESIAN_POINT('',(-1.7,9.,9.854440623394));
#346 = B_SPLINE_CURVE_WITH_KNOTS('',3,(#347,#348,#349,#350,#351,#352,
    #353,#354,#355,#356,#357,#358,#359,#360),.UNSPECIFIED.,.F.,.F.,(4,2,
    2,2,2,2,4),(0.,3.325633134729E-04,6.651266269457E-04,
    9.976899404186E-04,1.330253253891E-03,1.995379880837E-03,
    2.660506507783E-03),.UNSPECIFIED.);
#347 = CARTESIAN_POINT('',(0.,7.3,10.));
#348 = CARTESIAN_POINT('',(-0.112466073311,7.3,10.));
#349 = CARTESIAN_POINT('',(-0.223013462379,7.311050203938,9.998104650529
    ));
#350 = CARTESIAN_POINT('',(-0.440440116822,7.354308983584,9.990888054163
    ));
#351 = CARTESIAN_POINT('',(-0.548459946613,7.387056251183,9.985480115236
    ));
#352 = CARTESIAN_POINT('',(-0.754143094305,7.47236652197,9.972055436976)
  );
#353 = CARTESIAN_POINT('',(-0.851666203894,7.524541568688,9.964098445786
    ));
#354 = CARTESIAN_POINT('',(-1.036236963048,7.647770041081,9.94659771563)
  );
#355 = CARTESIAN_POINT('',(-1.123478702069,7.719363477292,9.937001870527
    ));
#356 = CARTESIAN_POINT('',(-1.358186878271,7.953928495333,9.908590751419
    ));
#357 = CARTESIAN_POINT('',(-1.484800391955,8.143078121348,9.889527994515
    ));
#358 = CARTESIAN_POINT('',(-1.654669892992,8.551653197524,9.862528261226
    ));
#359 = CARTESIAN_POINT('',(-1.7,8.775071169811,9.854440623394));
#360 = CARTESIAN_POINT('',(-1.7,9.,9.854440623394));
#361 = ORIENTED_EDGE('',*,*,#362,.F.);
#362 = EDGE_CURVE('',#363,#344,#365,.T.);
#363 = VERTEX_POINT('',#364);
#364 = CARTESIAN_POINT('',(-1.7,9.,3.620773398046));
#365 = LINE('',#366,#367);
#366 = CARTESIAN_POINT('',(-1.7,9.,0.));
#367 = VECTOR('',#368,1.);
#368 = DIRECTION('',(0.,0.,1.));
#369 = ORIENTED_EDGE('',*,*,#370,.T.);
#370 = EDGE_CURVE('',#363,#316,#371,.T.);
#371 = B_SPLINE_CURVE_WITH_KNOTS('',3,(#372,#373,#374,#375,#376,#377,
    #378,#379,#380,#381,#382,#383,#384,#385),.UNSPECIFIED.,.F.,.F.,(4,2,
    2,2,2,2,4),(2.688399627289E-03,3.024437901803E-03,3.360476176317E-03
    ,4.032552725345E-03,4.704629274372E-03,5.040667548886E-03,
    5.3767058234E-03),.UNSPECIFIED.);
#372 = CARTESIAN_POINT('',(-1.7,9.,3.620773398046));
#373 = CARTESIAN_POINT('',(-1.7,8.886258020859,3.620773398046));
#374 = CARTESIAN_POINT('',(-1.688703084756,8.774725998796,3.626136621516
    ));
#375 = CARTESIAN_POINT('',(-1.644732462947,8.555791029568,3.646291270825
    ));
#376 = CARTESIAN_POINT('',(-1.611464217886,8.447259275368,3.661331636202
    ));
#377 = CARTESIAN_POINT('',(-1.483019314919,8.13976128409,3.716089182823)
  );
#378 = CARTESIAN_POINT('',(-1.357345962973,7.953327533231,3.766155035688
    ));
#379 = CARTESIAN_POINT('',(-1.047938052836,7.64363089341,3.863694818882)
  );
#380 = CARTESIAN_POINT('',(-0.860788257755,7.517436048099,3.911757209556
    ));
#381 = CARTESIAN_POINT('',(-0.554673503357,7.389231432292,3.962705834083
    ));
#382 = CARTESIAN_POINT('',(-0.446366272046,7.355791121889,3.976558114245
    ));
#383 = CARTESIAN_POINT('',(-0.225723808349,7.311297999639,3.995160328088
    ));
#384 = CARTESIAN_POINT('',(-0.113730876987,7.3,4.));
#385 = CARTESIAN_POINT('',(0.,7.3,4.));
#386 = CYLINDRICAL_SURFACE('',#387,1.7);
#387 = AXIS2_PLACEMENT_3D('',#388,#389,#390);
#388 = CARTESIAN_POINT('',(0.,9.,0.));
#389 = DIRECTION('',(0.,0.,1.));
#390 = DIRECTION('',(1.,0.,-0.));
#391 = ADVANCED_FACE('',(#392),#468,.F.);
#392 = FACE_BOUND('',#393,.F.);
#393 = EDGE_LOOP('',(#394,#415,#421,#422,#441,#449));
#394 = ORIENTED_EDGE('',*,*,#395,.T.);
#395 = EDGE_CURVE('',#396,#398,#400,.T.);
#396 = VERTEX_POINT('',#397);
#397 = CARTESIAN_POINT('',(0.,-10.7,2.5));
#398 = VERTEX_POINT('',#399);
#399 = CARTESIAN_POINT('',(1.7,-9.,1.833030277982));
#400 = B_SPLINE_CURVE_WITH_KNOTS('',3,(#401,#402,#403,#404,#405,#406,
    #407,#408,#409,#410,#411,#412,#413,#414),.UNSPECIFIED.,.F.,.F.,(4,2,
    2,2,2,2,4),(5.508331240731E-03,5.851850590093E-03,6.195369939455E-03
    ,6.88240863818E-03,7.225927987542E-03,7.569447336904E-03,
    8.256486035628E-03),.UNSPECIFIED.);
#401 = CARTESIAN_POINT('',(0.,-10.7,2.5));
#402 = CARTESIAN_POINT('',(0.11657314357,-10.7,2.5));
#403 = CARTESIAN_POINT('',(0.230545905445,-10.68814170691,2.491893768822
    ));
#404 = CARTESIAN_POINT('',(0.453690675249,-10.64229674795,2.461066992343
    ));
#405 = CARTESIAN_POINT('',(0.56364095133,-10.60771735929,2.437959950128)
  );
#406 = CARTESIAN_POINT('',(0.871552501867,-10.47654365126,2.352818649677
    ));
#407 = CARTESIAN_POINT('',(1.054560067548,-10.3505676982,2.273272784232)
  );
#408 = CARTESIAN_POINT('',(1.281633617861,-10.12202842229,2.148227593033
    ));
#409 = CARTESIAN_POINT('',(1.350637136481,-10.03794211096,2.105007089825
    ));
#410 = CARTESIAN_POINT('',(1.470569837678,-9.859632975553,2.02304223267)
  );
#411 = CARTESIAN_POINT('',(1.522083777535,-9.765066766177,1.984007927677
    ));
#412 = CARTESIAN_POINT('',(1.650786920876,-9.461700413734,1.880693615014
    ));
#413 = CARTESIAN_POINT('',(1.7,-9.232745308228,1.833030277982));
#414 = CARTESIAN_POINT('',(1.7,-9.,1.833030277982));
#415 = ORIENTED_EDGE('',*,*,#416,.T.);
#416 = EDGE_CURVE('',#398,#232,#417,.T.);
#417 = LINE('',#418,#419);
#418 = CARTESIAN_POINT('',(1.7,-9.,0.));
#419 = VECTOR('',#420,1.);
#420 = DIRECTION('',(0.,0.,1.));
#421 = ORIENTED_EDGE('',*,*,#250,.T.);
#422 = ORIENTED_EDGE('',*,*,#423,.T.);
#423 = EDGE_CURVE('',#251,#424,#426,.T.);
#424 = VERTEX_POINT('',#425);
#425 = CARTESIAN_POINT('',(-1.7,-9.,9.854440623394));
#426 = B_SPLINE_CURVE_WITH_KNOTS('',3,(#427,#428,#429,#430,#431,#432,
    #433,#434,#435,#436,#437,#438,#439,#440),.UNSPECIFIED.,.F.,.F.,(4,2,
    2,2,2,2,4),(0.,3.325633134729E-04,6.651266269457E-04,
    9.976899404186E-04,1.330253253891E-03,1.995379880837E-03,
    2.660506507783E-03),.UNSPECIFIED.);
#427 = CARTESIAN_POINT('',(0.,-10.7,10.));
#428 = CARTESIAN_POINT('',(-0.112466073311,-10.7,10.));
#429 = CARTESIAN_POINT('',(-0.223013462379,-10.68894979606,
    9.998104650529));
#430 = CARTESIAN_POINT('',(-0.440440116822,-10.64569101641,
    9.990888054163));
#431 = CARTESIAN_POINT('',(-0.548459946613,-10.61294374881,
    9.985480115236));
#432 = CARTESIAN_POINT('',(-0.754143094305,-10.52763347803,
    9.972055436976));
#433 = CARTESIAN_POINT('',(-0.851666203894,-10.47545843131,
    9.964098445786));
#434 = CARTESIAN_POINT('',(-1.036236963048,-10.35222995891,9.94659771563
    ));
#435 = CARTESIAN_POINT('',(-1.123478702069,-10.2806365227,9.937001870527
    ));
#436 = CARTESIAN_POINT('',(-1.358186878271,-10.04607150466,
    9.908590751419));
#437 = CARTESIAN_POINT('',(-1.484800391955,-9.856921878652,
    9.889527994515));
#438 = CARTESIAN_POINT('',(-1.654669892992,-9.448346802476,
    9.862528261226));
#439 = CARTESIAN_POINT('',(-1.7,-9.224928830189,9.854440623394));
#440 = CARTESIAN_POINT('',(-1.7,-9.,9.854440623394));
#441 = ORIENTED_EDGE('',*,*,#442,.F.);
#442 = EDGE_CURVE('',#443,#424,#445,.T.);
#443 = VERTEX_POINT('',#444);
#444 = CARTESIAN_POINT('',(-1.7,-9.,1.833030277982));
#445 = LINE('',#446,#447);
#446 = CARTESIAN_POINT('',(-1.7,-9.,0.));
#447 = VECTOR('',#448,1.);
#448 = DIRECTION('',(0.,0.,1.));
#449 = ORIENTED_EDGE('',*,*,#450,.T.);
#450 = EDGE_CURVE('',#443,#396,#451,.T.);
#451 = B_SPLINE_CURVE_WITH_KNOTS('',3,(#452,#453,#454,#455,#456,#457,
    #458,#459,#460,#461,#462,#463,#464,#465,#466,#467),.UNSPECIFIED.,.F.
  ,.F.,(4,2,2,2,2,2,2,4),(2.753004565438E-03,3.09742039985E-03,
    3.441836234261E-03,4.130667903084E-03,4.475083737496E-03,
    4.819499571908E-03,5.163915406319E-03,5.508331240731E-03),
  .UNSPECIFIED.);
#452 = CARTESIAN_POINT('',(-1.7,-9.,1.833030277982));
#453 = CARTESIAN_POINT('',(-1.7,-9.116882255792,1.833030277985));
#454 = CARTESIAN_POINT('',(-1.688093237477,-9.230582036237,
    1.844253749815));
#455 = CARTESIAN_POINT('',(-1.642587273879,-9.452475304898,
    1.884897270361));
#456 = CARTESIAN_POINT('',(-1.608486461195,-9.561150912061,
    1.914627803352));
#457 = CARTESIAN_POINT('',(-1.479775953164,-9.865297230008,
    2.018012986407));
#458 = CARTESIAN_POINT('',(-1.357104270723,-10.04620547942,
    2.106715100843));
#459 = CARTESIAN_POINT('',(-1.129565786504,-10.27501004335,
    2.231944502758));
#460 = CARTESIAN_POINT('',(-1.045093896484,-10.34521270114,
    2.273158293027));
#461 = CARTESIAN_POINT('',(-0.865232586091,-10.46737556057,
    2.347518359799));
#462 = CARTESIAN_POINT('',(-0.769343427594,-10.52005399001,
    2.381061871481));
#463 = CARTESIAN_POINT('',(-0.564032520332,-10.60758227104,
    2.437870435731));
#464 = CARTESIAN_POINT('',(-0.453793106013,-10.642259339,2.461042082469)
  );
#465 = CARTESIAN_POINT('',(-0.23091221664,-10.68808277872,2.491853900805
    ));
#466 = CARTESIAN_POINT('',(-0.116877365386,-10.7,2.5));
#467 = CARTESIAN_POINT('',(0.,-10.7,2.5));
#468 = CYLINDRICAL_SURFACE('',#469,1.7);
#469 = AXIS2_PLACEMENT_3D('',#470,#471,#472);
#470 = CARTESIAN_POINT('',(0.,-9.,0.));
#471 = DIRECTION('',(0.,0.,1.));
#472 = DIRECTION('',(1.,0.,-0.));
#473 = ADVANCED_FACE('',(#474),#500,.T.);
#474 = FACE_BOUND('',#475,.T.);
#475 = EDGE_LOOP('',(#476,#487,#493,#494));
#476 = ORIENTED_EDGE('',*,*,#477,.T.);
#477 = EDGE_CURVE('',#478,#480,#482,.T.);
#478 = VERTEX_POINT('',#479);
#479 = CARTESIAN_POINT('',(0.,-13.,9.500000000002));
#480 = VERTEX_POINT('',#481);
#481 = CARTESIAN_POINT('',(1.E-15,-13.,-9.500000000002));
#482 = CIRCLE('',#483,9.500000000002);
#483 = AXIS2_PLACEMENT_3D('',#484,#485,#486);
#484 = CARTESIAN_POINT('',(0.,-13.,0.));
#485 = DIRECTION('',(0.,1.,0.));
#486 = DIRECTION('',(0.,-0.,1.));
#487 = ORIENTED_EDGE('',*,*,#488,.T.);
#488 = EDGE_CURVE('',#480,#152,#489,.T.);
#489 = LINE('',#490,#491);
#490 = CARTESIAN_POINT('',(1.22E-15,-12.5,-10.));
#491 = VECTOR('',#492,1.);
#492 = DIRECTION('',(9.E-17,0.707106781187,-0.707106781186));
#493 = ORIENTED_EDGE('',*,*,#149,.F.);
#494 = ORIENTED_EDGE('',*,*,#495,.F.);
#495 = EDGE_CURVE('',#478,#150,#496,.T.);
#496 = LINE('',#497,#498);
#497 = CARTESIAN_POINT('',(0.,-12.5,10.000000000003));
#498 = VECTOR('',#499,1.);
#499 = DIRECTION('',(0.,0.707106781187,0.707106781186));
#500 = CONICAL_SURFACE('',#501,10.000000000003,0.785398163397);
#501 = AXIS2_PLACEMENT_3D('',#502,#503,#504);
#502 = CARTESIAN_POINT('',(0.,-12.5,0.));
#503 = DIRECTION('',(0.,1.,0.));
#504 = DIRECTION('',(0.,-0.,1.));
#505 = ADVANCED_FACE('',(#506),#558,.F.);
#506 = FACE_BOUND('',#507,.F.);
#507 = EDGE_LOOP('',(#508,#516,#517,#525));
#508 = ORIENTED_EDGE('',*,*,#509,.T.);
#509 = EDGE_CURVE('',#510,#22,#512,.T.);
#510 = VERTEX_POINT('',#511);
#511 = CARTESIAN_POINT('',(1.833030277982,-9.,-1.7));
#512 = LINE('',#513,#514);
#513 = CARTESIAN_POINT('',(0.,-9.,-1.7));
#514 = VECTOR('',#515,1.);
#515 = DIRECTION('',(1.,0.,0.));
#516 = ORIENTED_EDGE('',*,*,#21,.T.);
#517 = ORIENTED_EDGE('',*,*,#518,.F.);
#518 = EDGE_CURVE('',#519,#24,#521,.T.);
#519 = VERTEX_POINT('',#520);
#520 = CARTESIAN_POINT('',(1.833030277982,-9.,1.7));
#521 = LINE('',#522,#523);
#522 = CARTESIAN_POINT('',(0.,-9.,1.7));
#523 = VECTOR('',#524,1.);
#524 = DIRECTION('',(1.,0.,0.));
#525 = ORIENTED_EDGE('',*,*,#526,.T.);
#526 = EDGE_CURVE('',#519,#510,#527,.T.);
#527 = B_SPLINE_CURVE_WITH_KNOTS('',3,(#528,#529,#530,#531,#532,#533,
    #534,#535,#536,#537,#538,#539,#540,#541,#542,#543,#544,#545,#546,
    #547,#548,#549,#550,#551,#552,#553,#554,#555,#556,#557),
  .UNSPECIFIED.,.F.,.F.,(4,2,2,2,2,2,2,2,2,2,2,2,2,2,4),(
    5.496788038245E-03,5.840032559389E-03,6.183277080533E-03,
    6.86976612282E-03,7.213010643964E-03,7.556255165107E-03,
    7.899499686251E-03,8.242744207394E-03,8.585988728538E-03,
    8.929233249682E-03,9.272477770825E-03,9.615722291969E-03,
    1.030221133426E-02,1.06454558554E-02,1.098870037654E-02),
  .UNSPECIFIED.);
#528 = CARTESIAN_POINT('',(1.833030277982,-9.,1.7));
#529 = CARTESIAN_POINT('',(1.833030277982,-9.116663854434,1.7));
#530 = CARTESIAN_POINT('',(1.844211714222,-9.230157057503,1.688137174595
    ));
#531 = CARTESIAN_POINT('',(1.884711661431,-9.45165636382,1.642798198315)
  );
#532 = CARTESIAN_POINT('',(1.914343334963,-9.56015948754,1.608818891247)
  );
#533 = CARTESIAN_POINT('',(2.017423463533,-9.863869446548,1.480552965813
    ));
#534 = CARTESIAN_POINT('',(2.105911874159,-10.04458453342,1.358284299685
    ));
#535 = CARTESIAN_POINT('',(2.230941929971,-10.27325366731,1.131524798765
    ));
#536 = CARTESIAN_POINT('',(2.272116635957,-10.34345381501,1.047332521498
    ));
#537 = CARTESIAN_POINT('',(2.346473911779,-10.46570596108,0.868032026666
    ));
#538 = CARTESIAN_POINT('',(2.38004215766,-10.5184584781,0.772448806095)
  );
#539 = CARTESIAN_POINT('',(2.436975552962,-10.60622704598,0.567827424966
    ));
#540 = CARTESIAN_POINT('',(2.460280287283,-10.64111987649,0.457933803829
    ));
#541 = CARTESIAN_POINT('',(2.491488885173,-10.68754621328,0.234873573954
    ));
#542 = CARTESIAN_POINT('',(2.499846185011,-10.69977380126,0.119103646054
    ));
#543 = CARTESIAN_POINT('',(2.500149528457,-10.70021989501,-0.11255648614
    ));
#544 = CARTESIAN_POINT('',(2.492289445155,-10.68872517104,
    -0.226598344314));
#545 = CARTESIAN_POINT('',(2.461549439707,-10.64301907141,
    -0.451251419892));
#546 = CARTESIAN_POINT('',(2.438639443127,-10.60874513203,
    -0.560720829702));
#547 = CARTESIAN_POINT('',(2.382037323187,-10.52157825146,
    -0.766334374394));
#548 = CARTESIAN_POINT('',(2.34776352781,-10.46777542444,-0.864622284154
    ));
#549 = CARTESIAN_POINT('',(2.273042050292,-10.34502463787,
    -1.045392325576));
#550 = CARTESIAN_POINT('',(2.232566341626,-10.27611025855,
    -1.128370048914));
#551 = CARTESIAN_POINT('',(2.106784128576,-10.04640291158,
    -1.357109569552));
#552 = CARTESIAN_POINT('',(2.019373767777,-9.868792395076,-1.47800985295
    ));
#553 = CARTESIAN_POINT('',(1.91489414026,-9.562185041906,-1.608190385635
    ));
#554 = CARTESIAN_POINT('',(1.88569488274,-9.455864403437,-1.641678533828
    ));
#555 = CARTESIAN_POINT('',(1.844569180087,-9.233243700141,
    -1.687755355227));
#556 = CARTESIAN_POINT('',(1.833030277982,-9.116560372556,-1.7));
#557 = CARTESIAN_POINT('',(1.833030277982,-9.,-1.7));
#558 = CYLINDRICAL_SURFACE('',#559,1.7);
#559 = AXIS2_PLACEMENT_3D('',#560,#561,#562);
#560 = CARTESIAN_POINT('',(0.,-9.,0.));
#561 = DIRECTION('',(1.,0.,0.));
#562 = DIRECTION('',(0.,0.,-1.));
#563 = ADVANCED_FACE('',(#564),#614,.F.);
#564 = FACE_BOUND('',#565,.F.);
#565 = EDGE_LOOP('',(#566,#574,#575,#583));
#566 = ORIENTED_EDGE('',*,*,#567,.T.);
#567 = EDGE_CURVE('',#568,#86,#570,.T.);
#568 = VERTEX_POINT('',#569);
#569 = CARTESIAN_POINT('',(3.620773398046,9.,-1.7));
#570 = LINE('',#571,#572);
#571 = CARTESIAN_POINT('',(0.,9.,-1.7));
#572 = VECTOR('',#573,1.);
#573 = DIRECTION('',(1.,0.,0.));
#574 = ORIENTED_EDGE('',*,*,#85,.T.);
#575 = ORIENTED_EDGE('',*,*,#576,.F.);
#576 = EDGE_CURVE('',#577,#88,#579,.T.);
#577 = VERTEX_POINT('',#578);
#578 = CARTESIAN_POINT('',(3.620773398046,9.,1.7));
#579 = LINE('',#580,#581);
#580 = CARTESIAN_POINT('',(0.,9.,1.7));
#581 = VECTOR('',#582,1.);
#582 = DIRECTION('',(1.,0.,0.));
#583 = ORIENTED_EDGE('',*,*,#584,.T.);
#584 = EDGE_CURVE('',#577,#568,#585,.T.);
#585 = B_SPLINE_CURVE_WITH_KNOTS('',3,(#586,#587,#588,#589,#590,#591,
    #592,#593,#594,#595,#596,#597,#598,#599,#600,#601,#602,#603,#604,
    #605,#606,#607,#608,#609,#610,#611,#612,#613),.UNSPECIFIED.,.F.,.F.,
  (4,2,2,2,2,2,2,2,2,2,2,2,2,4),(5.37681823111E-03,5.712762423395E-03,
    6.04870661568E-03,6.72059500025E-03,7.39248338482E-03,
    7.728427577106E-03,8.064371769391E-03,8.400315961676E-03,
    8.736260153961E-03,9.072204346246E-03,9.408148538531E-03,
    9.744092730816E-03,1.00800369231E-02,1.075192530767E-02),
  .UNSPECIFIED.);
#586 = CARTESIAN_POINT('',(3.620773398046,9.,1.7));
#587 = CARTESIAN_POINT('',(3.620773398046,8.886246801847,1.7));
#588 = CARTESIAN_POINT('',(3.626137680456,8.774703993236,1.688700878362)
  );
#589 = CARTESIAN_POINT('',(3.646296176061,8.555748250881,1.6447216575));
#590 = CARTESIAN_POINT('',(3.661339391496,8.447206538438,1.6114468435));
#591 = CARTESIAN_POINT('',(3.716106079613,8.139684778336,1.482978044902)
  );
#592 = CARTESIAN_POINT('',(3.76617947892,7.953239288533,1.357281372781)
  );
#593 = CARTESIAN_POINT('',(3.863728100809,7.643535862392,1.047819524227)
  );
#594 = CARTESIAN_POINT('',(3.911791658964,7.517345881397,0.8606391165));
#595 = CARTESIAN_POINT('',(3.962733832434,7.389162720886,0.554476321659)
  );
#596 = CARTESIAN_POINT('',(3.976592317601,7.355709101565,0.445992164853)
  );
#597 = CARTESIAN_POINT('',(3.995142276844,7.311341387226,0.225906306445)
  );
#598 = CARTESIAN_POINT('',(3.999936903988,7.300148461308,0.114669029815)
  );
#599 = CARTESIAN_POINT('',(4.000061861117,7.299854444328,-0.110223997041
    ));
#600 = CARTESIAN_POINT('',(3.995226315067,7.311144889923,-0.224231748931
    ));
#601 = CARTESIAN_POINT('',(3.976851397298,7.355085014226,-0.443583306311
    ));
#602 = CARTESIAN_POINT('',(3.963303555819,7.387751489647,-0.55067859544)
  );
#603 = CARTESIAN_POINT('',(3.928960096278,7.474123982197,-0.757822243606
    ));
#604 = CARTESIAN_POINT('',(3.908663653571,7.526596394257,-0.855113631935
    ));
#605 = CARTESIAN_POINT('',(3.864084619997,7.649290342387,-1.038133387272
    ));
#606 = CARTESIAN_POINT('',(3.839553122842,7.720314537473,-1.124479632357
    ));
#607 = CARTESIAN_POINT('',(3.79064006989,7.875553985586,-1.279715002356)
  );
#608 = CARTESIAN_POINT('',(3.766127398373,7.960011753288,-1.349302879283
    ));
#609 = CARTESIAN_POINT('',(3.719686157967,8.143305721806,-1.472504236683
    ));
#610 = CARTESIAN_POINT('',(3.697934790312,8.241865562732,-1.525590203299
    ));
#611 = CARTESIAN_POINT('',(3.64343408035,8.547455699244,-1.653474169543)
  );
#612 = CARTESIAN_POINT('',(3.620773398046,8.772566006849,-1.7));
#613 = CARTESIAN_POINT('',(3.620773398046,9.,-1.7));
#614 = CYLINDRICAL_SURFACE('',#615,1.7);
#615 = AXIS2_PLACEMENT_3D('',#616,#617,#618);
#616 = CARTESIAN_POINT('',(0.,9.,0.));
#617 = DIRECTION('',(1.,0.,0.));
#618 = DIRECTION('',(0.,0.,-1.));
#619 = ADVANCED_FACE('',(#620),#682,.F.);
#620 = FACE_BOUND('',#621,.F.);
#621 = EDGE_LOOP('',(#622,#630,#631,#650,#658,#667,#675));
#622 = ORIENTED_EDGE('',*,*,#623,.T.);
#623 = EDGE_CURVE('',#624,#316,#626,.T.);
#624 = VERTEX_POINT('',#625);
#625 = CARTESIAN_POINT('',(0.,-5.5,4.));
#626 = LINE('',#627,#628);
#627 = CARTESIAN_POINT('',(0.,13.,4.));
#628 = VECTOR('',#629,1.);
#629 = DIRECTION('',(0.,1.,0.));
#630 = ORIENTED_EDGE('',*,*,#370,.F.);
#631 = ORIENTED_EDGE('',*,*,#632,.F.);
#632 = EDGE_CURVE('',#633,#363,#635,.T.);
#633 = VERTEX_POINT('',#634);
#634 = CARTESIAN_POINT('',(0.,10.7,4.));
#635 = B_SPLINE_CURVE_WITH_KNOTS('',3,(#636,#637,#638,#639,#640,#641,
    #642,#643,#644,#645,#646,#647,#648,#649),.UNSPECIFIED.,.F.,.F.,(4,2,
    2,2,2,2,4),(-2.E-17,3.360499534111E-04,6.720999068222E-04,
    1.344199813644E-03,2.016299720467E-03,2.352349673878E-03,
    2.688399627289E-03),.UNSPECIFIED.);
#636 = CARTESIAN_POINT('',(0.,10.7,4.));
#637 = CARTESIAN_POINT('',(-0.113721425244,10.7,4.));
#638 = CARTESIAN_POINT('',(-0.22529133006,10.688706020646,3.995163124357
    ));
#639 = CARTESIAN_POINT('',(-0.44437939418,10.644691813561,3.976758922496
    ));
#640 = CARTESIAN_POINT('',(-0.553043583126,10.611373218362,
    3.962950007724));
#641 = CARTESIAN_POINT('',(-0.861021739851,10.482620982674,
    3.911772160766));
#642 = CARTESIAN_POINT('',(-1.047696847139,10.356561342179,
    3.863762347283));
#643 = CARTESIAN_POINT('',(-1.357205715246,10.046861979968,3.76620774869
    ));
#644 = CARTESIAN_POINT('',(-1.482963310847,9.860005218132,3.716101541142
    ));
#645 = CARTESIAN_POINT('',(-1.610862875526,9.554362774171,3.661593711433
    ));
#646 = CARTESIAN_POINT('',(-1.644244446924,9.446218139839,3.64651313388)
  );
#647 = CARTESIAN_POINT('',(-1.688699814057,9.225706374668,3.626139927637
    ));
#648 = CARTESIAN_POINT('',(-1.7,9.113745932205,3.620773398046));
#649 = CARTESIAN_POINT('',(-1.7,9.,3.620773398046));
#650 = ORIENTED_EDGE('',*,*,#651,.T.);
#651 = EDGE_CURVE('',#633,#652,#654,.T.);
#652 = VERTEX_POINT('',#653);
#653 = CARTESIAN_POINT('',(0.,12.54,4.));
#654 = LINE('',#655,#656);
#655 = CARTESIAN_POINT('',(0.,13.,4.));
#656 = VECTOR('',#657,1.);
#657 = DIRECTION('',(0.,1.,0.));
#658 = ORIENTED_EDGE('',*,*,#659,.T.);
#659 = EDGE_CURVE('',#652,#660,#662,.T.);
#660 = VERTEX_POINT('',#661);
#661 = CARTESIAN_POINT('',(1.E-15,12.54,-4.));
#662 = CIRCLE('',#663,4.);
#663 = AXIS2_PLACEMENT_3D('',#664,#665,#666);
#664 = CARTESIAN_POINT('',(0.,12.54,0.));
#665 = DIRECTION('',(0.,-1.,0.));
#666 = DIRECTION('',(0.,0.,1.));
#667 = ORIENTED_EDGE('',*,*,#668,.F.);
#668 = EDGE_CURVE('',#669,#660,#671,.T.);
#669 = VERTEX_POINT('',#670);
#670 = CARTESIAN_POINT('',(0.,-5.5,-4.));
#671 = LINE('',#672,#673);
#672 = CARTESIAN_POINT('',(4.9E-16,13.,-4.));
#673 = VECTOR('',#674,1.);
#674 = DIRECTION('',(0.,1.,0.));
#675 = ORIENTED_EDGE('',*,*,#676,.T.);
#676 = EDGE_CURVE('',#669,#624,#677,.T.);
#677 = CIRCLE('',#678,4.);
#678 = AXIS2_PLACEMENT_3D('',#679,#680,#681);
#679 = CARTESIAN_POINT('',(0.,-5.5,0.));
#680 = DIRECTION('',(0.,1.,0.));
#681 = DIRECTION('',(0.,-0.,1.));
#682 = CYLINDRICAL_SURFACE('',#683,4.);
#683 = AXIS2_PLACEMENT_3D('',#684,#685,#686);
#684 = CARTESIAN_POINT('',(0.,13.,0.));
#685 = DIRECTION('',(0.,1.,0.));
#686 = DIRECTION('',(0.,-0.,1.));
#687 = ADVANCED_FACE('',(#688),#759,.F.);
#688 = FACE_BOUND('',#689,.F.);
#689 = EDGE_LOOP('',(#690,#701,#707,#708,#727,#735,#744,#752));
#690 = ORIENTED_EDGE('',*,*,#691,.T.);
#691 = EDGE_CURVE('',#692,#694,#696,.T.);
#692 = VERTEX_POINT('',#693);
#693 = CARTESIAN_POINT('',(-2.5,-12.5,0.));
#694 = VERTEX_POINT('',#695);
#695 = CARTESIAN_POINT('',(0.,-12.5,2.5));
#696 = CIRCLE('',#697,2.5);
#697 = AXIS2_PLACEMENT_3D('',#698,#699,#700);
#698 = CARTESIAN_POINT('',(0.,-12.5,0.));
#699 = DIRECTION('',(0.,1.,0.));
#700 = DIRECTION('',(0.,-0.,1.));
#701 = ORIENTED_EDGE('',*,*,#702,.T.);
#702 = EDGE_CURVE('',#694,#396,#703,.T.);
#703 = LINE('',#704,#705);
#704 = CARTESIAN_POINT('',(0.,13.,2.5));
#705 = VECTOR('',#706,1.);
#706 = DIRECTION('',(0.,1.,0.));
#707 = ORIENTED_EDGE('',*,*,#450,.F.);
#708 = ORIENTED_EDGE('',*,*,#709,.F.);
#709 = EDGE_CURVE('',#710,#443,#712,.T.);
#710 = VERTEX_POINT('',#711);
#711 = CARTESIAN_POINT('',(0.,-7.3,2.5));
#712 = B_SPLINE_CURVE_WITH_KNOTS('',3,(#713,#714,#715,#716,#717,#718,
    #719,#720,#721,#722,#723,#724,#725,#726),.UNSPECIFIED.,.F.,.F.,(4,2,
    2,2,2,2,4),(-0.,3.441255706798E-04,6.882511413595E-04,
    1.376502282719E-03,1.720627853399E-03,2.064753424079E-03,
    2.753004565438E-03),.UNSPECIFIED.);
#713 = CARTESIAN_POINT('',(0.,-7.3,2.5));
#714 = CARTESIAN_POINT('',(-0.11657314357,-7.3,2.5));
#715 = CARTESIAN_POINT('',(-0.230545905445,-7.311858293087,
    2.491893768822));
#716 = CARTESIAN_POINT('',(-0.453690675249,-7.357703252049,
    2.461066992343));
#717 = CARTESIAN_POINT('',(-0.56364095133,-7.392282640702,2.437959950128
    ));
#718 = CARTESIAN_POINT('',(-0.871552501867,-7.523456348731,
    2.352818649677));
#719 = CARTESIAN_POINT('',(-1.054560067548,-7.649432301794,
    2.273272784232));
#720 = CARTESIAN_POINT('',(-1.281633617861,-7.877971577702,
    2.148227593033));
#721 = CARTESIAN_POINT('',(-1.350637136481,-7.962057889039,
    2.105007089825));
#722 = CARTESIAN_POINT('',(-1.470569837678,-8.140367024447,2.02304223267
    ));
#723 = CARTESIAN_POINT('',(-1.522083777535,-8.234933233823,
    1.984007927677));
#724 = CARTESIAN_POINT('',(-1.650786920876,-8.538299586266,
    1.880693615014));
#725 = CARTESIAN_POINT('',(-1.7,-8.766432498405,1.833030277985));
#726 = CARTESIAN_POINT('',(-1.7,-9.,1.833030277982));
#727 = ORIENTED_EDGE('',*,*,#728,.T.);
#728 = EDGE_CURVE('',#710,#729,#731,.T.);
#729 = VERTEX_POINT('',#730);
#730 = CARTESIAN_POINT('',(0.,-5.5,2.5));
#731 = LINE('',#732,#733);
#732 = CARTESIAN_POINT('',(0.,13.,2.5));
#733 = VECTOR('',#734,1.);
#734 = DIRECTION('',(0.,1.,0.));
#735 = ORIENTED_EDGE('',*,*,#736,.T.);
#736 = EDGE_CURVE('',#729,#737,#739,.T.);
#737 = VERTEX_POINT('',#738);
#738 = CARTESIAN_POINT('',(0.,-5.5,-2.5));
#739 = CIRCLE('',#740,2.5);
#740 = AXIS2_PLACEMENT_3D('',#741,#742,#743);
#741 = CARTESIAN_POINT('',(0.,-5.5,0.));
#742 = DIRECTION('',(0.,-1.,0.));
#743 = DIRECTION('',(0.,0.,1.));
#744 = ORIENTED_EDGE('',*,*,#745,.F.);
#745 = EDGE_CURVE('',#746,#737,#748,.T.);
#746 = VERTEX_POINT('',#747);
#747 = CARTESIAN_POINT('',(0.,-12.5,-2.5));
#748 = LINE('',#749,#750);
#749 = CARTESIAN_POINT('',(3.1E-16,13.,-2.5));
#750 = VECTOR('',#751,1.);
#751 = DIRECTION('',(0.,1.,0.));
#752 = ORIENTED_EDGE('',*,*,#753,.T.);
#753 = EDGE_CURVE('',#746,#692,#754,.T.);
#754 = CIRCLE('',#755,2.5);
#755 = AXIS2_PLACEMENT_3D('',#756,#757,#758);
#756 = CARTESIAN_POINT('',(0.,-12.5,0.));
#757 = DIRECTION('',(0.,1.,0.));
#758 = DIRECTION('',(0.,-0.,1.));
#759 = CYLINDRICAL_SURFACE('',#760,2.5);
#760 = AXIS2_PLACEMENT_3D('',#761,#762,#763);
#761 = CARTESIAN_POINT('',(0.,13.,0.));
#762 = DIRECTION('',(0.,1.,0.));
#763 = DIRECTION('',(0.,-0.,1.));
#764 = ADVANCED_FACE('',(#765),#791,.F.);
#765 = FACE_BOUND('',#766,.F.);
#766 = EDGE_LOOP('',(#767,#775,#784,#790));
#767 = ORIENTED_EDGE('',*,*,#768,.T.);
#768 = EDGE_CURVE('',#652,#769,#771,.T.);
#769 = VERTEX_POINT('',#770);
#770 = CARTESIAN_POINT('',(0.,12.999999999977,4.459999999995));
#771 = LINE('',#772,#773);
#772 = CARTESIAN_POINT('',(0.,12.99999999992,4.459999999938));
#773 = VECTOR('',#774,1.);
#774 = DIRECTION('',(0.,0.707106781187,0.707106781187));
#775 = ORIENTED_EDGE('',*,*,#776,.T.);
#776 = EDGE_CURVE('',#769,#777,#779,.T.);
#777 = VERTEX_POINT('',#778);
#778 = CARTESIAN_POINT('',(1.E-15,12.999999999977,-4.459999999995));
#779 = CIRCLE('',#780,4.459999999995);
#780 = AXIS2_PLACEMENT_3D('',#781,#782,#783);
#781 = CARTESIAN_POINT('',(0.,12.999999999977,0.));
#782 = DIRECTION('',(0.,-1.,0.));
#783 = DIRECTION('',(0.,0.,1.));
#784 = ORIENTED_EDGE('',*,*,#785,.F.);
#785 = EDGE_CURVE('',#660,#777,#786,.T.);
#786 = LINE('',#787,#788);
#787 = CARTESIAN_POINT('',(5.5E-16,12.99999999992,-4.459999999938));
#788 = VECTOR('',#789,1.);
#789 = DIRECTION('',(9.E-17,0.707106781187,-0.707106781187));
#790 = ORIENTED_EDGE('',*,*,#659,.F.);
#791 = CONICAL_SURFACE('',#792,4.459999999938,0.785398163397);
#792 = AXIS2_PLACEMENT_3D('',#793,#794,#795);
#793 = CARTESIAN_POINT('',(0.,12.99999999992,0.));
#794 = DIRECTION('',(-0.,1.,0.));
#795 = DIRECTION('',(0.,0.,1.));
#796 = ADVANCED_FACE('',(#797),#832,.F.);
#797 = FACE_BOUND('',#798,.F.);
#798 = EDGE_LOOP('',(#799,#809,#818,#824,#825));
#799 = ORIENTED_EDGE('',*,*,#800,.T.);
#800 = EDGE_CURVE('',#801,#803,#805,.T.);
#801 = VERTEX_POINT('',#802);
#802 = CARTESIAN_POINT('',(2.5,-12.5,0.));
#803 = VERTEX_POINT('',#804);
#804 = CARTESIAN_POINT('',(3.000000000043,-13.00000000003,0.));
#805 = LINE('',#806,#807);
#806 = CARTESIAN_POINT('',(2.999999999872,-12.99999999986,0.));
#807 = VECTOR('',#808,1.);
#808 = DIRECTION('',(0.707106781227,-0.707106781146,0.));
#809 = ORIENTED_EDGE('',*,*,#810,.F.);
#810 = EDGE_CURVE('',#811,#803,#813,.T.);
#811 = VERTEX_POINT('',#812);
#812 = CARTESIAN_POINT('',(-3.000000000043,-13.00000000003,0.));
#813 = CIRCLE('',#814,3.000000000043);
#814 = AXIS2_PLACEMENT_3D('',#815,#816,#817);
#815 = CARTESIAN_POINT('',(0.,-13.00000000003,0.));
#816 = DIRECTION('',(2.9E-16,-1.,0.));
#817 = DIRECTION('',(1.,2.9E-16,0.));
#818 = ORIENTED_EDGE('',*,*,#819,.F.);
#819 = EDGE_CURVE('',#692,#811,#820,.T.);
#820 = LINE('',#821,#822);
#821 = CARTESIAN_POINT('',(-2.999999999872,-12.99999999986,3.7E-16));
#822 = VECTOR('',#823,1.);
#823 = DIRECTION('',(-0.707106781227,-0.707106781146,9.E-17));
#824 = ORIENTED_EDGE('',*,*,#753,.F.);
#825 = ORIENTED_EDGE('',*,*,#826,.F.);
#826 = EDGE_CURVE('',#801,#746,#827,.T.);
#827 = CIRCLE('',#828,2.5);
#828 = AXIS2_PLACEMENT_3D('',#829,#830,#831);
#829 = CARTESIAN_POINT('',(0.,-12.5,0.));
#830 = DIRECTION('',(0.,1.,0.));
#831 = DIRECTION('',(0.,-0.,1.));
#832 = CONICAL_SURFACE('',#833,2.999999999872,0.785398163454);
#833 = AXIS2_PLACEMENT_3D('',#834,#835,#836);
#834 = CARTESIAN_POINT('',(0.,-12.99999999986,0.));
#835 = DIRECTION('',(2.9E-16,-1.,0.));
#836 = DIRECTION('',(1.,2.9E-16,0.));
#837 = ADVANCED_FACE('',(#838),#894,.T.);
#838 = FACE_BOUND('',#839,.T.);
#839 = EDGE_LOOP('',(#840,#841,#848,#849,#850,#867,#868,#869,#886,#887)
  );
#840 = ORIENTED_EDGE('',*,*,#160,.F.);
#841 = ORIENTED_EDGE('',*,*,#842,.T.);
#842 = EDGE_CURVE('',#152,#150,#843,.T.);
#843 = CIRCLE('',#844,10.);
#844 = AXIS2_PLACEMENT_3D('',#845,#846,#847);
#845 = CARTESIAN_POINT('',(0.,-12.5,0.));
#846 = DIRECTION('',(0.,1.,0.));
#847 = DIRECTION('',(0.,-0.,1.));
#848 = ORIENTED_EDGE('',*,*,#269,.T.);
#849 = ORIENTED_EDGE('',*,*,#423,.T.);
#850 = ORIENTED_EDGE('',*,*,#851,.T.);
#851 = EDGE_CURVE('',#424,#224,#852,.T.);
#852 = B_SPLINE_CURVE_WITH_KNOTS('',3,(#853,#854,#855,#856,#857,#858,
    #859,#860,#861,#862,#863,#864,#865,#866),.UNSPECIFIED.,.F.,.F.,(4,2,
    2,2,2,2,4),(2.660506507783E-03,2.993076127314E-03,3.325645746844E-03
    ,3.658215366375E-03,3.990784985906E-03,4.655924224968E-03,
    5.321063464029E-03),.UNSPECIFIED.);
#853 = CARTESIAN_POINT('',(-1.7,-9.,9.854440623394));
#854 = CARTESIAN_POINT('',(-1.7,-8.887533452358,9.854440623394));
#855 = CARTESIAN_POINT('',(-1.68894972584,-8.776986866146,9.85636494914)
  );
#856 = CARTESIAN_POINT('',(-1.645691882576,-8.559563555196,
    9.863679811038));
#857 = CARTESIAN_POINT('',(-1.61294558635,-8.451546344284,9.869157602902
    ));
#858 = CARTESIAN_POINT('',(-1.527639980258,-8.245870722151,
    9.882721353259));
#859 = CARTESIAN_POINT('',(-1.475468003557,-8.148350719521,
    9.890746563742));
#860 = CARTESIAN_POINT('',(-1.352244816521,-7.963782704906,
    9.908345339858));
#861 = CARTESIAN_POINT('',(-1.28065507909,-7.876542539563,9.917969820676
    ));
#862 = CARTESIAN_POINT('',(-1.046095991449,-7.641832276661,9.94638096789
    ));
#863 = CARTESIAN_POINT('',(-0.856939165041,-7.515208340328,
    9.965318365538));
#864 = CARTESIAN_POINT('',(-0.448349762544,-7.345329792485,
    9.992041700751));
#865 = CARTESIAN_POINT('',(-0.224928156582,-7.3,10.));
#866 = CARTESIAN_POINT('',(0.,-7.3,10.));
#867 = ORIENTED_EDGE('',*,*,#223,.T.);
#868 = ORIENTED_EDGE('',*,*,#343,.T.);
#869 = ORIENTED_EDGE('',*,*,#870,.T.);
#870 = EDGE_CURVE('',#344,#178,#871,.T.);
#871 = B_SPLINE_CURVE_WITH_KNOTS('',3,(#872,#873,#874,#875,#876,#877,
    #878,#879,#880,#881,#882,#883,#884,#885),.UNSPECIFIED.,.F.,.F.,(4,2,
    2,2,2,2,4),(2.660506507783E-03,2.993076127314E-03,3.325645746844E-03
    ,3.658215366375E-03,3.990784985906E-03,4.655924224968E-03,
    5.321063464029E-03),.UNSPECIFIED.);
#872 = CARTESIAN_POINT('',(-1.7,9.,9.854440623394));
#873 = CARTESIAN_POINT('',(-1.7,9.112466547642,9.854440623394));
#874 = CARTESIAN_POINT('',(-1.68894972584,9.223013133854,9.85636494914)
  );
#875 = CARTESIAN_POINT('',(-1.645691882576,9.440436444804,9.863679811038
    ));
#876 = CARTESIAN_POINT('',(-1.61294558635,9.548453655716,9.869157602902)
  );
#877 = CARTESIAN_POINT('',(-1.527639980258,9.754129277849,9.882721353259
    ));
#878 = CARTESIAN_POINT('',(-1.475468003557,9.85164928048,9.890746563742)
  );
#879 = CARTESIAN_POINT('',(-1.352244816521,10.036217295094,
    9.908345339858));
#880 = CARTESIAN_POINT('',(-1.28065507909,10.123457460437,9.917969820676
    ));
#881 = CARTESIAN_POINT('',(-1.046095991449,10.358167723339,9.94638096789
    ));
#882 = CARTESIAN_POINT('',(-0.856939165041,10.484791659672,
    9.965318365538));
#883 = CARTESIAN_POINT('',(-0.448349762544,10.654670207515,
    9.992041700751));
#884 = CARTESIAN_POINT('',(-0.224928156582,10.7,10.));
#885 = CARTESIAN_POINT('',(0.,10.7,10.));
#886 = ORIENTED_EDGE('',*,*,#177,.T.);
#887 = ORIENTED_EDGE('',*,*,#888,.T.);
#888 = EDGE_CURVE('',#169,#161,#889,.T.);
#889 = CIRCLE('',#890,10.);
#890 = AXIS2_PLACEMENT_3D('',#891,#892,#893);
#891 = CARTESIAN_POINT('',(0.,12.54,0.));
#892 = DIRECTION('',(0.,-1.,0.));
#893 = DIRECTION('',(0.,0.,1.));
#894 = CYLINDRICAL_SURFACE('',#895,10.);
#895 = AXIS2_PLACEMENT_3D('',#896,#897,#898);
#896 = CARTESIAN_POINT('',(0.,-13.,0.));
#897 = DIRECTION('',(0.,1.,0.));
#898 = DIRECTION('',(0.,-0.,1.));
#899 = ADVANCED_FACE('',(#900),#912,.T.);
#900 = FACE_BOUND('',#901,.T.);
#901 = EDGE_LOOP('',(#902,#903,#910,#911));
#902 = ORIENTED_EDGE('',*,*,#294,.F.);
#903 = ORIENTED_EDGE('',*,*,#904,.T.);
#904 = EDGE_CURVE('',#286,#284,#905,.T.);
#905 = CIRCLE('',#906,9.54);
#906 = AXIS2_PLACEMENT_3D('',#907,#908,#909);
#907 = CARTESIAN_POINT('',(4.E-17,13.,4.E-17));
#908 = DIRECTION('',(-9.E-17,-1.,-9.E-17));
#909 = DIRECTION('',(0.,9.E-17,-1.));
#910 = ORIENTED_EDGE('',*,*,#301,.T.);
#911 = ORIENTED_EDGE('',*,*,#888,.F.);
#912 = CONICAL_SURFACE('',#913,10.,0.785398163397);
#913 = AXIS2_PLACEMENT_3D('',#914,#915,#916);
#914 = CARTESIAN_POINT('',(0.,12.54,0.));
#915 = DIRECTION('',(-9.E-17,-1.,-9.E-17));
#916 = DIRECTION('',(0.,9.E-17,-1.));
#917 = ADVANCED_FACE('',(#918),#942,.F.);
#918 = FACE_BOUND('',#919,.F.);
#919 = EDGE_LOOP('',(#920,#921,#922,#923,#940,#941));
#920 = ORIENTED_EDGE('',*,*,#870,.T.);
#921 = ORIENTED_EDGE('',*,*,#185,.T.);
#922 = ORIENTED_EDGE('',*,*,#336,.F.);
#923 = ORIENTED_EDGE('',*,*,#924,.T.);
#924 = EDGE_CURVE('',#318,#633,#925,.T.);
#925 = B_SPLINE_CURVE_WITH_KNOTS('',3,(#926,#927,#928,#929,#930,#931,
    #932,#933,#934,#935,#936,#937,#938,#939),.UNSPECIFIED.,.F.,.F.,(4,2,
    2,2,2,2,4),(-2.688623068592E-03,-2.352545185018E-03,
    -2.016467301444E-03,-1.344311534296E-03,-6.72155767148E-04,
    -3.36077883574E-04,-2.E-17),.UNSPECIFIED.);
#926 = CARTESIAN_POINT('',(1.7,9.,3.620773398046));
#927 = CARTESIAN_POINT('',(1.7,9.113741979141,3.620773398046));
#928 = CARTESIAN_POINT('',(1.688703084756,9.225274001204,3.626136621516)
  );
#929 = CARTESIAN_POINT('',(1.644732462947,9.444208970432,3.646291270825)
  );
#930 = CARTESIAN_POINT('',(1.611464217886,9.552740724632,3.661331636202)
  );
#931 = CARTESIAN_POINT('',(1.483019314919,9.86023871591,3.716089182823)
  );
#932 = CARTESIAN_POINT('',(1.357345962973,10.046672466769,3.766155035688
    ));
#933 = CARTESIAN_POINT('',(1.047938052836,10.35636910659,3.863694818882)
  );
#934 = CARTESIAN_POINT('',(0.860788257755,10.482563951901,3.911757209556
    ));
#935 = CARTESIAN_POINT('',(0.554673503357,10.610768567708,3.962705834083
    ));
#936 = CARTESIAN_POINT('',(0.446366272046,10.644208878111,3.976558114245
    ));
#937 = CARTESIAN_POINT('',(0.225723808349,10.688702000361,3.995160328088
    ));
#938 = CARTESIAN_POINT('',(0.113730876987,10.7,4.));
#939 = CARTESIAN_POINT('',(0.,10.7,4.));
#940 = ORIENTED_EDGE('',*,*,#632,.T.);
#941 = ORIENTED_EDGE('',*,*,#362,.T.);
#942 = CYLINDRICAL_SURFACE('',#943,1.7);
#943 = AXIS2_PLACEMENT_3D('',#944,#945,#946);
#944 = CARTESIAN_POINT('',(0.,9.,0.));
#945 = DIRECTION('',(0.,0.,1.));
#946 = DIRECTION('',(1.,0.,-0.));
#947 = ADVANCED_FACE('',(#948),#974,.F.);
#948 = FACE_BOUND('',#949,.F.);
#949 = EDGE_LOOP('',(#950,#951,#952,#953,#972,#973));
#950 = ORIENTED_EDGE('',*,*,#851,.T.);
#951 = ORIENTED_EDGE('',*,*,#231,.T.);
#952 = ORIENTED_EDGE('',*,*,#416,.F.);
#953 = ORIENTED_EDGE('',*,*,#954,.T.);
#954 = EDGE_CURVE('',#398,#710,#955,.T.);
#955 = B_SPLINE_CURVE_WITH_KNOTS('',3,(#956,#957,#958,#959,#960,#961,
    #962,#963,#964,#965,#966,#967,#968,#969,#970,#971),.UNSPECIFIED.,.F.
  ,.F.,(4,2,2,2,2,2,2,4),(-2.760189102316E-03,-2.415165464527E-03,
    -2.070141826737E-03,-1.380094551158E-03,-1.035070913369E-03,
    -6.90047275579E-04,-3.450236377895E-04,-0.),.UNSPECIFIED.);
#956 = CARTESIAN_POINT('',(1.7,-9.,1.833030277982));
#957 = CARTESIAN_POINT('',(1.7,-8.883117744208,1.833030277982));
#958 = CARTESIAN_POINT('',(1.688093237477,-8.769417963763,1.844253749815
    ));
#959 = CARTESIAN_POINT('',(1.642587273879,-8.547524695102,1.884897270361
    ));
#960 = CARTESIAN_POINT('',(1.608486461195,-8.438849087939,1.914627803352
    ));
#961 = CARTESIAN_POINT('',(1.479775953164,-8.134702769992,2.018012986407
    ));
#962 = CARTESIAN_POINT('',(1.357104270723,-7.953794520576,2.106715100843
    ));
#963 = CARTESIAN_POINT('',(1.129565786504,-7.724989956645,2.231944502758
    ));
#964 = CARTESIAN_POINT('',(1.045093896484,-7.654787298851,2.273158293027
    ));
#965 = CARTESIAN_POINT('',(0.865232586091,-7.532624439427,2.347518359799
    ));
#966 = CARTESIAN_POINT('',(0.769343427594,-7.479946009981,2.381061871481
    ));
#967 = CARTESIAN_POINT('',(0.564032520332,-7.39241772896,2.437870435731)
  );
#968 = CARTESIAN_POINT('',(0.453793106013,-7.357740660994,2.461042082469
    ));
#969 = CARTESIAN_POINT('',(0.23091221664,-7.311917221276,2.491853900805)
  );
#970 = CARTESIAN_POINT('',(0.116877365386,-7.3,2.5));
#971 = CARTESIAN_POINT('',(0.,-7.3,2.5));
#972 = ORIENTED_EDGE('',*,*,#709,.T.);
#973 = ORIENTED_EDGE('',*,*,#442,.T.);
#974 = CYLINDRICAL_SURFACE('',#975,1.7);
#975 = AXIS2_PLACEMENT_3D('',#976,#977,#978);
#976 = CARTESIAN_POINT('',(0.,-9.,0.));
#977 = DIRECTION('',(0.,0.,1.));
#978 = DIRECTION('',(1.,0.,-0.));
#979 = ADVANCED_FACE('',(#980),#992,.T.);
#980 = FACE_BOUND('',#981,.T.);
#981 = EDGE_LOOP('',(#982,#983,#990,#991));
#982 = ORIENTED_EDGE('',*,*,#488,.F.);
#983 = ORIENTED_EDGE('',*,*,#984,.T.);
#984 = EDGE_CURVE('',#480,#478,#985,.T.);
#985 = CIRCLE('',#986,9.500000000002);
#986 = AXIS2_PLACEMENT_3D('',#987,#988,#989);
#987 = CARTESIAN_POINT('',(0.,-13.,0.));
#988 = DIRECTION('',(0.,1.,0.));
#989 = DIRECTION('',(0.,-0.,1.));
#990 = ORIENTED_EDGE('',*,*,#495,.T.);
#991 = ORIENTED_EDGE('',*,*,#842,.F.);
#992 = CONICAL_SURFACE('',#993,10.000000000003,0.785398163397);
#993 = AXIS2_PLACEMENT_3D('',#994,#995,#996);
#994 = CARTESIAN_POINT('',(0.,-12.5,0.));
#995 = DIRECTION('',(0.,1.,0.));
#996 = DIRECTION('',(0.,-0.,1.));
#997 = ADVANCED_FACE('',(#998,#1002),#1012,.T.);
#998 = FACE_BOUND('',#999,.T.);
#999 = EDGE_LOOP('',(#1000,#1001));
#1000 = ORIENTED_EDGE('',*,*,#283,.F.);
#1001 = ORIENTED_EDGE('',*,*,#904,.F.);
#1002 = FACE_BOUND('',#1003,.T.);
#1003 = EDGE_LOOP('',(#1004,#1005));
#1004 = ORIENTED_EDGE('',*,*,#776,.T.);
#1005 = ORIENTED_EDGE('',*,*,#1006,.T.);
#1006 = EDGE_CURVE('',#777,#769,#1007,.T.);
#1007 = CIRCLE('',#1008,4.459999999995);
#1008 = AXIS2_PLACEMENT_3D('',#1009,#1010,#1011);
#1009 = CARTESIAN_POINT('',(0.,12.999999999977,0.));
#1010 = DIRECTION('',(0.,-1.,0.));
#1011 = DIRECTION('',(0.,0.,1.));
#1012 = PLANE('',#1013);
#1013 = AXIS2_PLACEMENT_3D('',#1014,#1015,#1016);
#1014 = CARTESIAN_POINT('',(0.,13.,0.));
#1015 = DIRECTION('',(0.,1.,0.));
#1016 = DIRECTION('',(0.,-0.,1.));
#1017 = ADVANCED_FACE('',(#1018),#1056,.F.);
#1018 = FACE_BOUND('',#1019,.F.);
#1019 = EDGE_LOOP('',(#1020,#1021,#1022,#1055));
#1020 = ORIENTED_EDGE('',*,*,#54,.T.);
#1021 = ORIENTED_EDGE('',*,*,#509,.F.);
#1022 = ORIENTED_EDGE('',*,*,#1023,.T.);
#1023 = EDGE_CURVE('',#510,#519,#1024,.T.);
#1024 = B_SPLINE_CURVE_WITH_KNOTS('',3,(#1025,#1026,#1027,#1028,#1029,
    #1030,#1031,#1032,#1033,#1034,#1035,#1036,#1037,#1038,#1039,#1040,
    #1041,#1042,#1043,#1044,#1045,#1046,#1047,#1048,#1049,#1050,#1051,
    #1052,#1053,#1054),.UNSPECIFIED.,.F.,.F.,(4,2,2,2,2,2,2,2,2,2,2,2,2,
    2,4),(0.,3.435492523903E-04,6.870985047807E-04,1.374197009561E-03,
    1.717746261952E-03,2.061295514342E-03,2.404844766732E-03,
    2.748394019123E-03,3.091943271513E-03,3.435492523903E-03,
    3.779041776294E-03,4.122591028684E-03,4.809689533465E-03,
    5.153238785855E-03,5.496788038245E-03),.UNSPECIFIED.);
#1025 = CARTESIAN_POINT('',(1.833030277982,-9.,-1.7));
#1026 = CARTESIAN_POINT('',(1.833030277982,-8.883336145566,-1.7));
#1027 = CARTESIAN_POINT('',(1.844211714222,-8.769842942497,
    -1.688137174595));
#1028 = CARTESIAN_POINT('',(1.884711661431,-8.54834363618,
    -1.642798198315));
#1029 = CARTESIAN_POINT('',(1.914343334963,-8.43984051246,
    -1.608818891247));
#1030 = CARTESIAN_POINT('',(2.017423463533,-8.136130553452,
    -1.480552965813));
#1031 = CARTESIAN_POINT('',(2.105911874159,-7.955415466573,
    -1.358284299685));
#1032 = CARTESIAN_POINT('',(2.230941929971,-7.726746332681,
    -1.131524798765));
#1033 = CARTESIAN_POINT('',(2.272116635957,-7.656546184985,
    -1.047332521498));
#1034 = CARTESIAN_POINT('',(2.346473911779,-7.534294038919,
    -0.868032026666));
#1035 = CARTESIAN_POINT('',(2.38004215766,-7.481541521891,
    -0.772448806095));
#1036 = CARTESIAN_POINT('',(2.436975552962,-7.39377295402,
    -0.567827424966));
#1037 = CARTESIAN_POINT('',(2.460280287283,-7.358880123502,
    -0.457933803829));
#1038 = CARTESIAN_POINT('',(2.491488885173,-7.312453786712,
    -0.234873573954));
#1039 = CARTESIAN_POINT('',(2.499846185011,-7.300226198737,
    -0.119103646054));
#1040 = CARTESIAN_POINT('',(2.500149528457,-7.299780104989,0.11255648614
    ));
#1041 = CARTESIAN_POINT('',(2.492289445155,-7.311274828952,
    0.226598344314));
#1042 = CARTESIAN_POINT('',(2.461549439707,-7.356980928588,
    0.451251419892));
#1043 = CARTESIAN_POINT('',(2.438639443127,-7.391254867965,
    0.560720829702));
#1044 = CARTESIAN_POINT('',(2.382037323187,-7.478421748536,
    0.766334374394));
#1045 = CARTESIAN_POINT('',(2.34776352781,-7.532224575552,0.864622284154
    ));
#1046 = CARTESIAN_POINT('',(2.273042050292,-7.654975362123,
    1.045392325576));
#1047 = CARTESIAN_POINT('',(2.232566341626,-7.723889741441,
    1.128370048914));
#1048 = CARTESIAN_POINT('',(2.106784128576,-7.953597088417,
    1.357109569552));
#1049 = CARTESIAN_POINT('',(2.019373767777,-8.131207604924,1.47800985295
    ));
#1050 = CARTESIAN_POINT('',(1.91489414026,-8.437814958094,1.608190385635
    ));
#1051 = CARTESIAN_POINT('',(1.88569488274,-8.544135596563,1.641678533828
    ));
#1052 = CARTESIAN_POINT('',(1.844569180087,-8.766756299859,
    1.687755355227));
#1053 = CARTESIAN_POINT('',(1.833030277982,-8.883232571817,1.7));
#1054 = CARTESIAN_POINT('',(1.833030277982,-9.,1.7));
#1055 = ORIENTED_EDGE('',*,*,#518,.T.);
#1056 = CYLINDRICAL_SURFACE('',#1057,1.7);
#1057 = AXIS2_PLACEMENT_3D('',#1058,#1059,#1060);
#1058 = CARTESIAN_POINT('',(0.,-9.,0.));
#1059 = DIRECTION('',(1.,0.,0.));
#1060 = DIRECTION('',(0.,0.,-1.));
#1061 = ADVANCED_FACE('',(#1062),#1098,.F.);
#1062 = FACE_BOUND('',#1063,.F.);
#1063 = EDGE_LOOP('',(#1064,#1065,#1066,#1097));
#1064 = ORIENTED_EDGE('',*,*,#118,.T.);
#1065 = ORIENTED_EDGE('',*,*,#567,.F.);
#1066 = ORIENTED_EDGE('',*,*,#1067,.T.);
#1067 = EDGE_CURVE('',#568,#577,#1068,.T.);
#1068 = B_SPLINE_CURVE_WITH_KNOTS('',3,(#1069,#1070,#1071,#1072,#1073,
    #1074,#1075,#1076,#1077,#1078,#1079,#1080,#1081,#1082,#1083,#1084,
    #1085,#1086,#1087,#1088,#1089,#1090,#1091,#1092,#1093,#1094,#1095,
    #1096),.UNSPECIFIED.,.F.,.F.,(4,2,2,2,2,2,2,2,2,2,2,2,2,4),(0.,
    3.360511394444E-04,6.721022788887E-04,1.344204557777E-03,
    2.016306836666E-03,2.35235797611E-03,2.688409115555E-03,
    3.024460254999E-03,3.360511394444E-03,3.696562533888E-03,
    4.032613673332E-03,4.368664812777E-03,4.704715952221E-03,
    5.37681823111E-03),.UNSPECIFIED.);
#1069 = CARTESIAN_POINT('',(3.620773398046,9.,-1.7));
#1070 = CARTESIAN_POINT('',(3.620773398046,9.113753198153,-1.7));
#1071 = CARTESIAN_POINT('',(3.626137680456,9.225296006764,
    -1.688700878362));
#1072 = CARTESIAN_POINT('',(3.646296176061,9.444251749119,-1.6447216575)
  );
#1073 = CARTESIAN_POINT('',(3.661339391496,9.552793461562,-1.6114468435)
  );
#1074 = CARTESIAN_POINT('',(3.716106079613,9.860315221664,
    -1.482978044902));
#1075 = CARTESIAN_POINT('',(3.76617947892,10.046760711467,
    -1.357281372781));
#1076 = CARTESIAN_POINT('',(3.863728100809,10.356464137608,
    -1.047819524227));
#1077 = CARTESIAN_POINT('',(3.911791658964,10.482654118603,-0.8606391165
    ));
#1078 = CARTESIAN_POINT('',(3.962733832434,10.610837279114,
    -0.554476321659));
#1079 = CARTESIAN_POINT('',(3.976592317601,10.644290898435,
    -0.445992164853));
#1080 = CARTESIAN_POINT('',(3.995142276844,10.688658612774,
    -0.225906306445));
#1081 = CARTESIAN_POINT('',(3.999936903988,10.699851538692,
    -0.114669029815));
#1082 = CARTESIAN_POINT('',(4.000061861117,10.700145555672,
    0.110223997041));
#1083 = CARTESIAN_POINT('',(3.995226315067,10.688855110077,
    0.224231748931));
#1084 = CARTESIAN_POINT('',(3.976851397298,10.644914985774,
    0.443583306311));
#1085 = CARTESIAN_POINT('',(3.963303555819,10.612248510353,0.55067859544
    ));
#1086 = CARTESIAN_POINT('',(3.928960096278,10.525876017803,
    0.757822243606));
#1087 = CARTESIAN_POINT('',(3.908663653571,10.473403605743,
    0.855113631935));
#1088 = CARTESIAN_POINT('',(3.864084619997,10.350709657613,
    1.038133387272));
#1089 = CARTESIAN_POINT('',(3.839553122842,10.279685462527,
    1.124479632357));
#1090 = CARTESIAN_POINT('',(3.79064006989,10.124446014414,1.279715002356
    ));
#1091 = CARTESIAN_POINT('',(3.766127398373,10.039988246712,
    1.349302879283));
#1092 = CARTESIAN_POINT('',(3.719686157967,9.856694278194,1.472504236683
    ));
#1093 = CARTESIAN_POINT('',(3.697934790312,9.758134437268,1.525590203299
    ));
#1094 = CARTESIAN_POINT('',(3.64343408035,9.452544300756,1.653474169543)
  );
#1095 = CARTESIAN_POINT('',(3.620773398046,9.227578822511,1.7));
#1096 = CARTESIAN_POINT('',(3.620773398046,9.,1.7));
#1097 = ORIENTED_EDGE('',*,*,#576,.T.);
#1098 = CYLINDRICAL_SURFACE('',#1099,1.7);
#1099 = AXIS2_PLACEMENT_3D('',#1100,#1101,#1102);
#1100 = CARTESIAN_POINT('',(0.,9.,0.));
#1101 = DIRECTION('',(1.,0.,0.));
#1102 = DIRECTION('',(0.,0.,-1.));
#1103 = ADVANCED_FACE('',(#1104,#1125),#1129,.F.);
#1104 = FACE_BOUND('',#1105,.F.);
#1105 = EDGE_LOOP('',(#1106,#1113,#1114,#1115,#1116,#1117,#1124));
#1106 = ORIENTED_EDGE('',*,*,#1107,.T.);
#1107 = EDGE_CURVE('',#660,#652,#1108,.T.);
#1108 = CIRCLE('',#1109,4.);
#1109 = AXIS2_PLACEMENT_3D('',#1110,#1111,#1112);
#1110 = CARTESIAN_POINT('',(0.,12.54,0.));
#1111 = DIRECTION('',(0.,-1.,0.));
#1112 = DIRECTION('',(0.,0.,1.));
#1113 = ORIENTED_EDGE('',*,*,#651,.F.);
#1114 = ORIENTED_EDGE('',*,*,#924,.F.);
#1115 = ORIENTED_EDGE('',*,*,#315,.F.);
#1116 = ORIENTED_EDGE('',*,*,#623,.F.);
#1117 = ORIENTED_EDGE('',*,*,#1118,.T.);
#1118 = EDGE_CURVE('',#624,#669,#1119,.T.);
#1119 = CIRCLE('',#1120,4.);
#1120 = AXIS2_PLACEMENT_3D('',#1121,#1122,#1123);
#1121 = CARTESIAN_POINT('',(0.,-5.5,0.));
#1122 = DIRECTION('',(0.,1.,0.));
#1123 = DIRECTION('',(0.,-0.,1.));
#1124 = ORIENTED_EDGE('',*,*,#668,.T.);
#1125 = FACE_BOUND('',#1126,.F.);
#1126 = EDGE_LOOP('',(#1127,#1128));
#1127 = ORIENTED_EDGE('',*,*,#584,.F.);
#1128 = ORIENTED_EDGE('',*,*,#1067,.F.);
#1129 = CYLINDRICAL_SURFACE('',#1130,4.);
#1130 = AXIS2_PLACEMENT_3D('',#1131,#1132,#1133);
#1131 = CARTESIAN_POINT('',(0.,13.,0.));
#1132 = DIRECTION('',(0.,1.,0.));
#1133 = DIRECTION('',(0.,-0.,1.));
#1134 = ADVANCED_FACE('',(#1135,#1157),#1161,.F.);
#1135 = FACE_BOUND('',#1136,.F.);
#1136 = EDGE_LOOP('',(#1137,#1144,#1145,#1146,#1147,#1148,#1155,#1156));
#1137 = ORIENTED_EDGE('',*,*,#1138,.T.);
#1138 = EDGE_CURVE('',#737,#729,#1139,.T.);
#1139 = CIRCLE('',#1140,2.5);
#1140 = AXIS2_PLACEMENT_3D('',#1141,#1142,#1143);
#1141 = CARTESIAN_POINT('',(0.,-5.5,0.));
#1142 = DIRECTION('',(0.,-1.,0.));
#1143 = DIRECTION('',(0.,0.,1.));
#1144 = ORIENTED_EDGE('',*,*,#728,.F.);
#1145 = ORIENTED_EDGE('',*,*,#954,.F.);
#1146 = ORIENTED_EDGE('',*,*,#395,.F.);
#1147 = ORIENTED_EDGE('',*,*,#702,.F.);
#1148 = ORIENTED_EDGE('',*,*,#1149,.T.);
#1149 = EDGE_CURVE('',#694,#801,#1150,.T.);
#1150 = CIRCLE('',#1151,2.5);
#1151 = AXIS2_PLACEMENT_3D('',#1152,#1153,#1154);
#1152 = CARTESIAN_POINT('',(0.,-12.5,0.));
#1153 = DIRECTION('',(0.,1.,0.));
#1154 = DIRECTION('',(0.,-0.,1.));
#1155 = ORIENTED_EDGE('',*,*,#826,.T.);
#1156 = ORIENTED_EDGE('',*,*,#745,.T.);
#1157 = FACE_BOUND('',#1158,.F.);
#1158 = EDGE_LOOP('',(#1159,#1160));
#1159 = ORIENTED_EDGE('',*,*,#526,.F.);
#1160 = ORIENTED_EDGE('',*,*,#1023,.F.);
#1161 = CYLINDRICAL_SURFACE('',#1162,2.5);
#1162 = AXIS2_PLACEMENT_3D('',#1163,#1164,#1165);
#1163 = CARTESIAN_POINT('',(0.,13.,0.));
#1164 = DIRECTION('',(0.,1.,0.));
#1165 = DIRECTION('',(0.,-0.,1.));
#1166 = ADVANCED_FACE('',(#1167,#1171),#1181,.F.);
#1167 = FACE_BOUND('',#1168,.T.);
#1168 = EDGE_LOOP('',(#1169,#1170));
#1169 = ORIENTED_EDGE('',*,*,#477,.F.);
#1170 = ORIENTED_EDGE('',*,*,#984,.F.);
#1171 = FACE_BOUND('',#1172,.T.);
#1172 = EDGE_LOOP('',(#1173,#1180));
#1173 = ORIENTED_EDGE('',*,*,#1174,.F.);
#1174 = EDGE_CURVE('',#803,#811,#1175,.T.);
#1175 = CIRCLE('',#1176,3.000000000043);
#1176 = AXIS2_PLACEMENT_3D('',#1177,#1178,#1179);
#1177 = CARTESIAN_POINT('',(0.,-13.00000000003,0.));
#1178 = DIRECTION('',(2.9E-16,-1.,0.));
#1179 = DIRECTION('',(1.,2.9E-16,0.));
#1180 = ORIENTED_EDGE('',*,*,#810,.F.);
#1181 = PLANE('',#1182);
#1182 = AXIS2_PLACEMENT_3D('',#1183,#1184,#1185);
#1183 = CARTESIAN_POINT('',(0.,-13.,0.));
#1184 = DIRECTION('',(0.,1.,0.));
#1185 = DIRECTION('',(0.,-0.,1.));
#1186 = ADVANCED_FACE('',(#1187),#1193,.F.);
#1187 = FACE_BOUND('',#1188,.F.);
#1188 = EDGE_LOOP('',(#1189,#1190,#1191,#1192));
#1189 = ORIENTED_EDGE('',*,*,#1006,.T.);
#1190 = ORIENTED_EDGE('',*,*,#768,.F.);
#1191 = ORIENTED_EDGE('',*,*,#1107,.F.);
#1192 = ORIENTED_EDGE('',*,*,#785,.T.);
#1193 = CONICAL_SURFACE('',#1194,4.459999999938,0.785398163397);
#1194 = AXIS2_PLACEMENT_3D('',#1195,#1196,#1197);
#1195 = CARTESIAN_POINT('',(0.,12.99999999992,0.));
#1196 = DIRECTION('',(-0.,1.,0.));
#1197 = DIRECTION('',(0.,0.,1.));
#1198 = ADVANCED_FACE('',(#1199,#1203),#1207,.T.);
#1199 = FACE_BOUND('',#1200,.T.);
#1200 = EDGE_LOOP('',(#1201,#1202));
#1201 = ORIENTED_EDGE('',*,*,#1118,.T.);
#1202 = ORIENTED_EDGE('',*,*,#676,.T.);
#1203 = FACE_BOUND('',#1204,.T.);
#1204 = EDGE_LOOP('',(#1205,#1206));
#1205 = ORIENTED_EDGE('',*,*,#736,.T.);
#1206 = ORIENTED_EDGE('',*,*,#1138,.T.);
#1207 = PLANE('',#1208);
#1208 = AXIS2_PLACEMENT_3D('',#1209,#1210,#1211);
#1209 = CARTESIAN_POINT('',(0.,-5.5,0.));
#1210 = DIRECTION('',(0.,1.,0.));
#1211 = DIRECTION('',(0.,-0.,1.));
#1212 = ADVANCED_FACE('',(#1213),#1220,.F.);
#1213 = FACE_BOUND('',#1214,.F.);
#1214 = EDGE_LOOP('',(#1215,#1216,#1217,#1218,#1219));
#1215 = ORIENTED_EDGE('',*,*,#1174,.F.);
#1216 = ORIENTED_EDGE('',*,*,#800,.F.);
#1217 = ORIENTED_EDGE('',*,*,#1149,.F.);
#1218 = ORIENTED_EDGE('',*,*,#691,.F.);
#1219 = ORIENTED_EDGE('',*,*,#819,.T.);
#1220 = CONICAL_SURFACE('',#1221,2.999999999872,0.785398163454);
#1221 = AXIS2_PLACEMENT_3D('',#1222,#1223,#1224);
#1222 = CARTESIAN_POINT('',(0.,-12.99999999986,0.));
#1223 = DIRECTION('',(2.9E-16,-1.,0.));
#1224 = DIRECTION('',(1.,2.9E-16,0.));
#1225 = ( GEOMETRIC_REPRESENTATION_CONTEXT(3) 
GLOBAL_UNCERTAINTY_ASSIGNED_CONTEXT((#1229)) 
GLOBAL_UNIT_ASSIGNED_CONTEXT((#1226,#1227,#1228)) REPRESENTATION_CONTEXT
('Context #1','3D Context with UNIT and UNCERTAINTY') );
#1226 = ( LENGTH_UNIT() NAMED_UNIT(*) SI_UNIT(.MILLI.,.METRE.) );
#1227 = ( NAMED_UNIT(*) PLANE_ANGLE_UNIT() SI_UNIT($,.RADIAN.) );
#1228 = ( NAMED_UNIT(*) SI_UNIT($,.STERADIAN.) SOLID_ANGLE_UNIT() );
#1229 = UNCERTAINTY_MEASURE_WITH_UNIT(LENGTH_MEASURE(1.E-04),#1226,
  'distance_accuracy_value','confusion accuracy');
#1230 = PRODUCT_RELATED_PRODUCT_CATEGORY('part',$,(#7));
#1231 = MECHANICAL_DESIGN_GEOMETRIC_PRESENTATION_REPRESENTATION('',(
    #1232),#1225);
#1232 = STYLED_ITEM('color',(#1233),#15);
#1233 = PRESENTATION_STYLE_ASSIGNMENT((#1234,#1240));
#1234 = SURFACE_STYLE_USAGE(.BOTH.,#1235);
#1235 = SURFACE_SIDE_STYLE('',(#1236));
#1236 = SURFACE_STYLE_FILL_AREA(#1237);
#1237 = FILL_AREA_STYLE('',(#1238));
#1238 = FILL_AREA_STYLE_COLOUR('',#1239);
#1239 = COLOUR_RGB('',0.666666687201,0.698039232327,0.768627468855);
#1240 = CURVE_STYLE('',#1241,POSITIVE_LENGTH_MEASURE(0.1),#1242);
#1241 = DRAUGHTING_PRE_DEFINED_CURVE_FONT('continuous');
#1242 = COLOUR_RGB('',9.803921802644E-02,9.803921802644E-02,
  9.803921802644E-02);
ENDSEC;
END-ISO-10303-21;
