ISO-10303-21;
HEADER;
FILE_DESCRIPTION(('FreeCAD Model'),'2;1');
FILE_NAME('Open CASCADE Shape Model','2026-09-03T21:59:17',('Author'),(
    ''),'Open CASCADE STEP processor 7.9','FreeCAD','Unknown');
FILE_SCHEMA(('AUTOMOTIVE_DESIGN { 1 0 10303 214 1 1 1 1 }'));
ENDSEC;
DATA;
#1 = APPLICATION_PROTOCOL_DEFINITION('international standard',
  'automotive_design',2000,#2);
#2 = APPLICATION_CONTEXT(
  'core data for automotive mechanical design processes');
#3 = SHAPE_DEFINITION_REPRESENTATION(#4,#10);
#4 = PRODUCT_DEFINITION_SHAPE('','',#5);
#5 = PRODUCT_DEFINITION('design','',#6,#9);
#6 = PRODUCT_DEFINITION_FORMATION('','',#7);
#7 = PRODUCT('M4X18 Flush Head Screw_Standard',
  'M4X18 Flush Head Screw_Standard','',(#8));
#8 = PRODUCT_CONTEXT('',#2,'mechanical');
#9 = PRODUCT_DEFINITION_CONTEXT('part definition',#2,'design');
#10 = ADVANCED_BREP_SHAPE_REPRESENTATION('',(#11,#15),#713);
#11 = AXIS2_PLACEMENT_3D('',#12,#13,#14);
#12 = CARTESIAN_POINT('',(0.,0.,0.));
#13 = DIRECTION('',(0.,0.,1.));
#14 = DIRECTION('',(1.,0.,-0.));
#15 = MANIFOLD_SOLID_BREP('',#16);
#16 = CLOSED_SHELL('',(#17,#77,#129,#170,#211,#243,#303,#329,#349,#368,
    #387,#397,#415,#475,#502,#526,#550,#574,#596,#613,#623,#640,#656,
    #672,#689,#699));
#17 = ADVANCED_FACE('',(#18),#72,.T.);
#18 = FACE_BOUND('',#19,.T.);
#19 = EDGE_LOOP('',(#20,#31,#39,#48,#57,#65));
#20 = ORIENTED_EDGE('',*,*,#21,.T.);
#21 = EDGE_CURVE('',#22,#24,#26,.T.);
#22 = VERTEX_POINT('',#23);
#23 = CARTESIAN_POINT('',(17.5,0.,2.00000000005));
#24 = VERTEX_POINT('',#25);
#25 = CARTESIAN_POINT('',(17.5,2.,0.));
#26 = CIRCLE('',#27,2.);
#27 = AXIS2_PLACEMENT_3D('',#28,#29,#30);
#28 = CARTESIAN_POINT('',(17.5,7.E-17,0.));
#29 = DIRECTION('',(-1.,-1.E-17,0.));
#30 = DIRECTION('',(1.E-17,-1.,0.));
#31 = ORIENTED_EDGE('',*,*,#32,.T.);
#32 = EDGE_CURVE('',#24,#33,#35,.T.);
#33 = VERTEX_POINT('',#34);
#34 = CARTESIAN_POINT('',(2.54533786307,2.,0.));
#35 = LINE('',#36,#37);
#36 = CARTESIAN_POINT('',(2.329363661691,2.,2.4E-16));
#37 = VECTOR('',#38,1.);
#38 = DIRECTION('',(-1.,-1.E-17,0.));
#39 = ORIENTED_EDGE('',*,*,#40,.T.);
#40 = EDGE_CURVE('',#33,#41,#43,.T.);
#41 = VERTEX_POINT('',#42);
#42 = CARTESIAN_POINT('',(2.54533786307,0.,2.));
#43 = CIRCLE('',#44,2.);
#44 = AXIS2_PLACEMENT_3D('',#45,#46,#47);
#45 = CARTESIAN_POINT('',(2.54533786307,-7.E-17,0.));
#46 = DIRECTION('',(1.,1.E-17,0.));
#47 = DIRECTION('',(1.E-17,-1.,0.));
#48 = ORIENTED_EDGE('',*,*,#49,.T.);
#49 = EDGE_CURVE('',#41,#50,#52,.T.);
#50 = VERTEX_POINT('',#51);
#51 = CARTESIAN_POINT('',(2.54533786307,-2.,0.));
#52 = CIRCLE('',#53,2.);
#53 = AXIS2_PLACEMENT_3D('',#54,#55,#56);
#54 = CARTESIAN_POINT('',(2.54533786307,-7.E-17,0.));
#55 = DIRECTION('',(1.,1.E-17,0.));
#56 = DIRECTION('',(1.E-17,-1.,0.));
#57 = ORIENTED_EDGE('',*,*,#58,.F.);
#58 = EDGE_CURVE('',#59,#50,#61,.T.);
#59 = VERTEX_POINT('',#60);
#60 = CARTESIAN_POINT('',(17.5,-2.,0.));
#61 = LINE('',#62,#63);
#62 = CARTESIAN_POINT('',(2.329363661691,-2.,0.));
#63 = VECTOR('',#64,1.);
#64 = DIRECTION('',(-1.,-1.E-17,0.));
#65 = ORIENTED_EDGE('',*,*,#66,.T.);
#66 = EDGE_CURVE('',#59,#22,#67,.T.);
#67 = CIRCLE('',#68,2.);
#68 = AXIS2_PLACEMENT_3D('',#69,#70,#71);
#69 = CARTESIAN_POINT('',(17.5,7.E-17,0.));
#70 = DIRECTION('',(-1.,-1.E-17,0.));
#71 = DIRECTION('',(1.E-17,-1.,0.));
#72 = CYLINDRICAL_SURFACE('',#73,2.);
#73 = AXIS2_PLACEMENT_3D('',#74,#75,#76);
#74 = CARTESIAN_POINT('',(2.329363661691,-7.E-17,0.));
#75 = DIRECTION('',(-1.,-1.E-17,0.));
#76 = DIRECTION('',(1.E-17,-1.,0.));
#77 = ADVANCED_FACE('',(#78),#124,.F.);
#78 = FACE_BOUND('',#79,.F.);
#79 = EDGE_LOOP('',(#80,#91,#98,#99,#108,#117));
#80 = ORIENTED_EDGE('',*,*,#81,.T.);
#81 = EDGE_CURVE('',#82,#84,#86,.T.);
#82 = VERTEX_POINT('',#83);
#83 = CARTESIAN_POINT('',(2.42726370839,-2.038573564753,0.));
#84 = VERTEX_POINT('',#85);
#85 = CARTESIAN_POINT('',(2.42726370839,0.,2.038573564753));
#86 = CIRCLE('',#87,2.038573564753);
#87 = AXIS2_PLACEMENT_3D('',#88,#89,#90);
#88 = CARTESIAN_POINT('',(2.42726370839,0.,1.2E-16));
#89 = DIRECTION('',(-1.,0.,0.));
#90 = DIRECTION('',(0.,0.,1.));
#91 = ORIENTED_EDGE('',*,*,#92,.T.);
#92 = EDGE_CURVE('',#84,#41,#93,.T.);
#93 = CIRCLE('',#94,0.2);
#94 = AXIS2_PLACEMENT_3D('',#95,#96,#97);
#95 = CARTESIAN_POINT('',(2.54533786307,0.,2.2));
#96 = DIRECTION('',(0.,-1.,0.));
#97 = DIRECTION('',(0.,0.,-1.));
#98 = ORIENTED_EDGE('',*,*,#49,.T.);
#99 = ORIENTED_EDGE('',*,*,#100,.T.);
#100 = EDGE_CURVE('',#50,#101,#103,.T.);
#101 = VERTEX_POINT('',#102);
#102 = CARTESIAN_POINT('',(2.54533786307,0.,-2.));
#103 = CIRCLE('',#104,2.);
#104 = AXIS2_PLACEMENT_3D('',#105,#106,#107);
#105 = CARTESIAN_POINT('',(2.54533786307,-7.E-17,0.));
#106 = DIRECTION('',(1.,1.E-17,0.));
#107 = DIRECTION('',(1.E-17,-1.,0.));
#108 = ORIENTED_EDGE('',*,*,#109,.F.);
#109 = EDGE_CURVE('',#110,#101,#112,.T.);
#110 = VERTEX_POINT('',#111);
#111 = CARTESIAN_POINT('',(2.42726370839,0.,-2.038573564753));
#112 = CIRCLE('',#113,0.2);
#113 = AXIS2_PLACEMENT_3D('',#114,#115,#116);
#114 = CARTESIAN_POINT('',(2.54533786307,2.7E-16,-2.2));
#115 = DIRECTION('',(0.,1.,1.2E-16));
#116 = DIRECTION('',(0.,-1.2E-16,1.));
#117 = ORIENTED_EDGE('',*,*,#118,.T.);
#118 = EDGE_CURVE('',#110,#82,#119,.T.);
#119 = CIRCLE('',#120,2.038573564753);
#120 = AXIS2_PLACEMENT_3D('',#121,#122,#123);
#121 = CARTESIAN_POINT('',(2.42726370839,0.,1.2E-16));
#122 = DIRECTION('',(-1.,0.,0.));
#123 = DIRECTION('',(0.,0.,1.));
#124 = TOROIDAL_SURFACE('',#125,2.2,0.2);
#125 = AXIS2_PLACEMENT_3D('',#126,#127,#128);
#126 = CARTESIAN_POINT('',(2.54533786307,0.,1.2E-16));
#127 = DIRECTION('',(-1.,0.,0.));
#128 = DIRECTION('',(0.,0.,1.));
#129 = ADVANCED_FACE('',(#130),#165,.T.);
#130 = FACE_BOUND('',#131,.T.);
#131 = EDGE_LOOP('',(#132,#143,#151,#158,#159));
#132 = ORIENTED_EDGE('',*,*,#133,.T.);
#133 = EDGE_CURVE('',#134,#136,#138,.T.);
#134 = VERTEX_POINT('',#135);
#135 = CARTESIAN_POINT('',(18.000000000086,0.,1.499999999965));
#136 = VERTEX_POINT('',#137);
#137 = CARTESIAN_POINT('',(18.000000000086,0.,-1.499999999965));
#138 = CIRCLE('',#139,1.499999999965);
#139 = AXIS2_PLACEMENT_3D('',#140,#141,#142);
#140 = CARTESIAN_POINT('',(18.000000000086,0.,0.));
#141 = DIRECTION('',(-1.,0.,0.));
#142 = DIRECTION('',(0.,0.,1.));
#143 = ORIENTED_EDGE('',*,*,#144,.T.);
#144 = EDGE_CURVE('',#136,#145,#147,.T.);
#145 = VERTEX_POINT('',#146);
#146 = CARTESIAN_POINT('',(17.5,0.,-2.00000000005));
#147 = LINE('',#148,#149);
#148 = CARTESIAN_POINT('',(17.500000000041,2.4E-16,-2.00000000001));
#149 = VECTOR('',#150,1.);
#150 = DIRECTION('',(-0.707106781187,9.E-17,-0.707106781187));
#151 = ORIENTED_EDGE('',*,*,#152,.F.);
#152 = EDGE_CURVE('',#24,#145,#153,.T.);
#153 = CIRCLE('',#154,2.);
#154 = AXIS2_PLACEMENT_3D('',#155,#156,#157);
#155 = CARTESIAN_POINT('',(17.5,7.E-17,0.));
#156 = DIRECTION('',(-1.,-1.E-17,0.));
#157 = DIRECTION('',(1.E-17,-1.,0.));
#158 = ORIENTED_EDGE('',*,*,#21,.F.);
#159 = ORIENTED_EDGE('',*,*,#160,.F.);
#160 = EDGE_CURVE('',#134,#22,#161,.T.);
#161 = LINE('',#162,#163);
#162 = CARTESIAN_POINT('',(17.500000000041,0.,2.00000000001));
#163 = VECTOR('',#164,1.);
#164 = DIRECTION('',(-0.707106781187,0.,0.707106781187));
#165 = CONICAL_SURFACE('',#166,2.00000000001,0.785398163397);
#166 = AXIS2_PLACEMENT_3D('',#167,#168,#169);
#167 = CARTESIAN_POINT('',(17.500000000041,0.,0.));
#168 = DIRECTION('',(-1.,0.,0.));
#169 = DIRECTION('',(0.,0.,1.));
#170 = ADVANCED_FACE('',(#171),#206,.T.);
#171 = FACE_BOUND('',#172,.T.);
#172 = EDGE_LOOP('',(#173,#174,#183,#191,#200));
#173 = ORIENTED_EDGE('',*,*,#81,.T.);
#174 = ORIENTED_EDGE('',*,*,#175,.T.);
#175 = EDGE_CURVE('',#84,#176,#178,.T.);
#176 = VERTEX_POINT('',#177);
#177 = CARTESIAN_POINT('',(2.42726370839,2.038573564753,0.));
#178 = CIRCLE('',#179,2.038573564753);
#179 = AXIS2_PLACEMENT_3D('',#180,#181,#182);
#180 = CARTESIAN_POINT('',(2.42726370839,0.,1.2E-16));
#181 = DIRECTION('',(-1.,0.,0.));
#182 = DIRECTION('',(0.,0.,1.));
#183 = ORIENTED_EDGE('',*,*,#184,.T.);
#184 = EDGE_CURVE('',#176,#185,#187,.T.);
#185 = VERTEX_POINT('',#186);
#186 = CARTESIAN_POINT('',(6.696000002648E-02,3.764999999987,0.));
#187 = LINE('',#188,#189);
#188 = CARTESIAN_POINT('',(6.696000002648E-02,3.764999999987,4.6E-16));
#189 = VECTOR('',#190,1.);
#190 = DIRECTION('',(-0.807132176233,0.590370773404,7.E-17));
#191 = ORIENTED_EDGE('',*,*,#192,.T.);
#192 = EDGE_CURVE('',#185,#193,#195,.T.);
#193 = VERTEX_POINT('',#194);
#194 = CARTESIAN_POINT('',(6.696000002648E-02,-3.764999999987,0.));
#195 = CIRCLE('',#196,3.764999999987);
#196 = AXIS2_PLACEMENT_3D('',#197,#198,#199);
#197 = CARTESIAN_POINT('',(6.696000002648E-02,0.,0.));
#198 = DIRECTION('',(1.,1.E-17,0.));
#199 = DIRECTION('',(1.E-17,-1.,0.));
#200 = ORIENTED_EDGE('',*,*,#201,.F.);
#201 = EDGE_CURVE('',#82,#193,#202,.T.);
#202 = LINE('',#203,#204);
#203 = CARTESIAN_POINT('',(6.696000002648E-02,-3.764999999987,0.));
#204 = VECTOR('',#205,1.);
#205 = DIRECTION('',(-0.807132176233,-0.590370773404,0.));
#206 = CONICAL_SURFACE('',#207,3.764999999987,0.631518135003);
#207 = AXIS2_PLACEMENT_3D('',#208,#209,#210);
#208 = CARTESIAN_POINT('',(6.696000002648E-02,-0.,0.));
#209 = DIRECTION('',(-1.,-1.E-17,0.));
#210 = DIRECTION('',(1.E-17,-1.,0.));
#211 = ADVANCED_FACE('',(#212),#238,.T.);
#212 = FACE_BOUND('',#213,.T.);
#213 = EDGE_LOOP('',(#214,#215,#223,#232));
#214 = ORIENTED_EDGE('',*,*,#192,.F.);
#215 = ORIENTED_EDGE('',*,*,#216,.T.);
#216 = EDGE_CURVE('',#185,#217,#219,.T.);
#217 = VERTEX_POINT('',#218);
#218 = CARTESIAN_POINT('',(3.E-15,3.765,0.));
#219 = LINE('',#220,#221);
#220 = CARTESIAN_POINT('',(2.329363661691,3.765,4.6E-16));
#221 = VECTOR('',#222,1.);
#222 = DIRECTION('',(-1.,-1.E-17,0.));
#223 = ORIENTED_EDGE('',*,*,#224,.T.);
#224 = EDGE_CURVE('',#217,#225,#227,.T.);
#225 = VERTEX_POINT('',#226);
#226 = CARTESIAN_POINT('',(3.E-15,-3.765,0.));
#227 = CIRCLE('',#228,3.765);
#228 = AXIS2_PLACEMENT_3D('',#229,#230,#231);
#229 = CARTESIAN_POINT('',(3.04E-15,-9.E-17,0.));
#230 = DIRECTION('',(1.,1.E-17,0.));
#231 = DIRECTION('',(1.E-17,-1.,0.));
#232 = ORIENTED_EDGE('',*,*,#233,.F.);
#233 = EDGE_CURVE('',#193,#225,#234,.T.);
#234 = LINE('',#235,#236);
#235 = CARTESIAN_POINT('',(2.329363661691,-3.765,0.));
#236 = VECTOR('',#237,1.);
#237 = DIRECTION('',(-1.,-1.E-17,0.));
#238 = CYLINDRICAL_SURFACE('',#239,3.765);
#239 = AXIS2_PLACEMENT_3D('',#240,#241,#242);
#240 = CARTESIAN_POINT('',(2.329363661691,-7.E-17,0.));
#241 = DIRECTION('',(-1.,-1.E-17,0.));
#242 = DIRECTION('',(1.E-17,-1.,0.));
#243 = ADVANCED_FACE('',(#244),#298,.F.);
#244 = FACE_BOUND('',#245,.F.);
#245 = EDGE_LOOP('',(#246,#257,#266,#275,#284,#292));
#246 = ORIENTED_EDGE('',*,*,#247,.F.);
#247 = EDGE_CURVE('',#248,#250,#252,.T.);
#248 = VERTEX_POINT('',#249);
#249 = CARTESIAN_POINT('',(1.500000000013,-0.718250000006,1.244045492546
    ));
#250 = VERTEX_POINT('',#251);
#251 = CARTESIAN_POINT('',(1.500000000013,-0.,1.436500000011));
#252 = CIRCLE('',#253,1.436500000011);
#253 = AXIS2_PLACEMENT_3D('',#254,#255,#256);
#254 = CARTESIAN_POINT('',(1.500000000013,-1.1E-16,-0.));
#255 = DIRECTION('',(-1.,0.,-8.E-17));
#256 = DIRECTION('',(-8.E-17,0.,1.));
#257 = ORIENTED_EDGE('',*,*,#258,.F.);
#258 = EDGE_CURVE('',#259,#248,#261,.T.);
#259 = VERTEX_POINT('',#260);
#260 = CARTESIAN_POINT('',(1.500000000017,-1.4365,-2.15E-13));
#261 = CIRCLE('',#262,1.436500000011);
#262 = AXIS2_PLACEMENT_3D('',#263,#264,#265);
#263 = CARTESIAN_POINT('',(1.500000000013,-1.1E-16,-0.));
#264 = DIRECTION('',(-1.,0.,-8.E-17));
#265 = DIRECTION('',(-8.E-17,0.,1.));
#266 = ORIENTED_EDGE('',*,*,#267,.F.);
#267 = EDGE_CURVE('',#268,#259,#270,.T.);
#268 = VERTEX_POINT('',#269);
#269 = CARTESIAN_POINT('',(1.500000000013,-0.718250000006,
    -1.244045492546));
#270 = CIRCLE('',#271,1.436500000011);
#271 = AXIS2_PLACEMENT_3D('',#272,#273,#274);
#272 = CARTESIAN_POINT('',(1.500000000013,-1.1E-16,-0.));
#273 = DIRECTION('',(-1.,0.,-8.E-17));
#274 = DIRECTION('',(-8.E-17,0.,1.));
#275 = ORIENTED_EDGE('',*,*,#276,.F.);
#276 = EDGE_CURVE('',#277,#268,#279,.T.);
#277 = VERTEX_POINT('',#278);
#278 = CARTESIAN_POINT('',(1.500000000013,0.,-1.436500000011));
#279 = CIRCLE('',#280,1.436500000011);
#280 = AXIS2_PLACEMENT_3D('',#281,#282,#283);
#281 = CARTESIAN_POINT('',(1.500000000013,-1.1E-16,-0.));
#282 = DIRECTION('',(-1.,0.,-8.E-17));
#283 = DIRECTION('',(-8.E-17,0.,1.));
#284 = ORIENTED_EDGE('',*,*,#285,.F.);
#285 = EDGE_CURVE('',#286,#277,#288,.T.);
#286 = VERTEX_POINT('',#287);
#287 = CARTESIAN_POINT('',(2.329363661829,-0.,0.));
#288 = LINE('',#289,#290);
#289 = CARTESIAN_POINT('',(1.500000000078,7.E-17,-1.436499999897));
#290 = VECTOR('',#291,1.);
#291 = DIRECTION('',(-0.500000000209,1.1E-16,-0.866025403664));
#292 = ORIENTED_EDGE('',*,*,#293,.T.);
#293 = EDGE_CURVE('',#286,#250,#294,.T.);
#294 = LINE('',#295,#296);
#295 = CARTESIAN_POINT('',(1.500000000078,-1.1E-16,1.436499999897));
#296 = VECTOR('',#297,1.);
#297 = DIRECTION('',(-0.500000000209,0.,0.866025403664));
#298 = CONICAL_SURFACE('',#299,1.436499999897,1.047197550955);
#299 = AXIS2_PLACEMENT_3D('',#300,#301,#302);
#300 = CARTESIAN_POINT('',(1.500000000078,-1.1E-16,0.));
#301 = DIRECTION('',(-1.,0.,-8.E-17));
#302 = DIRECTION('',(-8.E-17,0.,1.));
#303 = ADVANCED_FACE('',(#304),#324,.T.);
#304 = FACE_BOUND('',#305,.T.);
#305 = EDGE_LOOP('',(#306,#307,#308,#315,#316,#317));
#306 = ORIENTED_EDGE('',*,*,#32,.F.);
#307 = ORIENTED_EDGE('',*,*,#152,.T.);
#308 = ORIENTED_EDGE('',*,*,#309,.T.);
#309 = EDGE_CURVE('',#145,#59,#310,.T.);
#310 = CIRCLE('',#311,2.);
#311 = AXIS2_PLACEMENT_3D('',#312,#313,#314);
#312 = CARTESIAN_POINT('',(17.5,7.E-17,0.));
#313 = DIRECTION('',(-1.,-1.E-17,0.));
#314 = DIRECTION('',(1.E-17,-1.,0.));
#315 = ORIENTED_EDGE('',*,*,#58,.T.);
#316 = ORIENTED_EDGE('',*,*,#100,.T.);
#317 = ORIENTED_EDGE('',*,*,#318,.T.);
#318 = EDGE_CURVE('',#101,#33,#319,.T.);
#319 = CIRCLE('',#320,2.);
#320 = AXIS2_PLACEMENT_3D('',#321,#322,#323);
#321 = CARTESIAN_POINT('',(2.54533786307,-7.E-17,0.));
#322 = DIRECTION('',(1.,1.E-17,0.));
#323 = DIRECTION('',(1.E-17,-1.,0.));
#324 = CYLINDRICAL_SURFACE('',#325,2.);
#325 = AXIS2_PLACEMENT_3D('',#326,#327,#328);
#326 = CARTESIAN_POINT('',(2.329363661691,-7.E-17,0.));
#327 = DIRECTION('',(-1.,-1.E-17,0.));
#328 = DIRECTION('',(1.E-17,-1.,0.));
#329 = ADVANCED_FACE('',(#330),#344,.F.);
#330 = FACE_BOUND('',#331,.F.);
#331 = EDGE_LOOP('',(#332,#333,#334,#335,#336,#343));
#332 = ORIENTED_EDGE('',*,*,#318,.T.);
#333 = ORIENTED_EDGE('',*,*,#40,.T.);
#334 = ORIENTED_EDGE('',*,*,#92,.F.);
#335 = ORIENTED_EDGE('',*,*,#175,.T.);
#336 = ORIENTED_EDGE('',*,*,#337,.T.);
#337 = EDGE_CURVE('',#176,#110,#338,.T.);
#338 = CIRCLE('',#339,2.038573564753);
#339 = AXIS2_PLACEMENT_3D('',#340,#341,#342);
#340 = CARTESIAN_POINT('',(2.42726370839,0.,1.2E-16));
#341 = DIRECTION('',(-1.,0.,0.));
#342 = DIRECTION('',(0.,0.,1.));
#343 = ORIENTED_EDGE('',*,*,#109,.T.);
#344 = TOROIDAL_SURFACE('',#345,2.2,0.2);
#345 = AXIS2_PLACEMENT_3D('',#346,#347,#348);
#346 = CARTESIAN_POINT('',(2.54533786307,0.,1.2E-16));
#347 = DIRECTION('',(-1.,0.,0.));
#348 = DIRECTION('',(0.,0.,1.));
#349 = ADVANCED_FACE('',(#350),#363,.T.);
#350 = FACE_BOUND('',#351,.T.);
#351 = EDGE_LOOP('',(#352,#353,#360,#361,#362));
#352 = ORIENTED_EDGE('',*,*,#144,.F.);
#353 = ORIENTED_EDGE('',*,*,#354,.T.);
#354 = EDGE_CURVE('',#136,#134,#355,.T.);
#355 = CIRCLE('',#356,1.499999999965);
#356 = AXIS2_PLACEMENT_3D('',#357,#358,#359);
#357 = CARTESIAN_POINT('',(18.000000000086,0.,0.));
#358 = DIRECTION('',(-1.,0.,0.));
#359 = DIRECTION('',(0.,0.,1.));
#360 = ORIENTED_EDGE('',*,*,#160,.T.);
#361 = ORIENTED_EDGE('',*,*,#66,.F.);
#362 = ORIENTED_EDGE('',*,*,#309,.F.);
#363 = CONICAL_SURFACE('',#364,2.00000000001,0.785398163397);
#364 = AXIS2_PLACEMENT_3D('',#365,#366,#367);
#365 = CARTESIAN_POINT('',(17.500000000041,0.,0.));
#366 = DIRECTION('',(-1.,0.,0.));
#367 = DIRECTION('',(0.,0.,1.));
#368 = ADVANCED_FACE('',(#369),#382,.T.);
#369 = FACE_BOUND('',#370,.T.);
#370 = EDGE_LOOP('',(#371,#372,#373,#374,#375));
#371 = ORIENTED_EDGE('',*,*,#184,.F.);
#372 = ORIENTED_EDGE('',*,*,#337,.T.);
#373 = ORIENTED_EDGE('',*,*,#118,.T.);
#374 = ORIENTED_EDGE('',*,*,#201,.T.);
#375 = ORIENTED_EDGE('',*,*,#376,.T.);
#376 = EDGE_CURVE('',#193,#185,#377,.T.);
#377 = CIRCLE('',#378,3.764999999987);
#378 = AXIS2_PLACEMENT_3D('',#379,#380,#381);
#379 = CARTESIAN_POINT('',(6.696000002648E-02,0.,0.));
#380 = DIRECTION('',(1.,1.E-17,0.));
#381 = DIRECTION('',(1.E-17,-1.,0.));
#382 = CONICAL_SURFACE('',#383,3.764999999987,0.631518135003);
#383 = AXIS2_PLACEMENT_3D('',#384,#385,#386);
#384 = CARTESIAN_POINT('',(6.696000002648E-02,-0.,0.));
#385 = DIRECTION('',(-1.,-1.E-17,0.));
#386 = DIRECTION('',(1.E-17,-1.,0.));
#387 = ADVANCED_FACE('',(#388),#392,.T.);
#388 = FACE_BOUND('',#389,.T.);
#389 = EDGE_LOOP('',(#390,#391));
#390 = ORIENTED_EDGE('',*,*,#133,.F.);
#391 = ORIENTED_EDGE('',*,*,#354,.F.);
#392 = PLANE('',#393);
#393 = AXIS2_PLACEMENT_3D('',#394,#395,#396);
#394 = CARTESIAN_POINT('',(18.,1.3E-16,0.));
#395 = DIRECTION('',(1.,1.E-17,-0.));
#396 = DIRECTION('',(-1.E-17,1.,0.));
#397 = ADVANCED_FACE('',(#398),#410,.T.);
#398 = FACE_BOUND('',#399,.T.);
#399 = EDGE_LOOP('',(#400,#401,#402,#403));
#400 = ORIENTED_EDGE('',*,*,#216,.F.);
#401 = ORIENTED_EDGE('',*,*,#376,.F.);
#402 = ORIENTED_EDGE('',*,*,#233,.T.);
#403 = ORIENTED_EDGE('',*,*,#404,.T.);
#404 = EDGE_CURVE('',#225,#217,#405,.T.);
#405 = CIRCLE('',#406,3.765);
#406 = AXIS2_PLACEMENT_3D('',#407,#408,#409);
#407 = CARTESIAN_POINT('',(3.04E-15,-9.E-17,0.));
#408 = DIRECTION('',(1.,1.E-17,0.));
#409 = DIRECTION('',(1.E-17,-1.,0.));
#410 = CYLINDRICAL_SURFACE('',#411,3.765);
#411 = AXIS2_PLACEMENT_3D('',#412,#413,#414);
#412 = CARTESIAN_POINT('',(2.329363661691,-7.E-17,0.));
#413 = DIRECTION('',(-1.,-1.E-17,0.));
#414 = DIRECTION('',(1.E-17,-1.,0.));
#415 = ADVANCED_FACE('',(#416,#420),#470,.F.);
#416 = FACE_BOUND('',#417,.T.);
#417 = EDGE_LOOP('',(#418,#419));
#418 = ORIENTED_EDGE('',*,*,#404,.F.);
#419 = ORIENTED_EDGE('',*,*,#224,.F.);
#420 = FACE_BOUND('',#421,.T.);
#421 = EDGE_LOOP('',(#422,#432,#440,#448,#456,#464));
#422 = ORIENTED_EDGE('',*,*,#423,.F.);
#423 = EDGE_CURVE('',#424,#426,#428,.T.);
#424 = VERTEX_POINT('',#425);
#425 = CARTESIAN_POINT('',(1.E-15,0.718250000003,-1.244045492536));
#426 = VERTEX_POINT('',#427);
#427 = CARTESIAN_POINT('',(1.E-15,-0.71825,-1.244045492536));
#428 = LINE('',#429,#430);
#429 = CARTESIAN_POINT('',(1.3E-15,1.4365,-1.244045492536));
#430 = VECTOR('',#431,1.);
#431 = DIRECTION('',(1.E-17,-1.,-0.));
#432 = ORIENTED_EDGE('',*,*,#433,.F.);
#433 = EDGE_CURVE('',#434,#424,#436,.T.);
#434 = VERTEX_POINT('',#435);
#435 = CARTESIAN_POINT('',(1.E-15,1.436500000001,2.473E-12));
#436 = LINE('',#437,#438);
#437 = CARTESIAN_POINT('',(1.3E-15,1.4365,4.E-16));
#438 = VECTOR('',#439,1.);
#439 = DIRECTION('',(0.,-0.5,-0.866025403784));
#440 = ORIENTED_EDGE('',*,*,#441,.F.);
#441 = EDGE_CURVE('',#442,#434,#444,.T.);
#442 = VERTEX_POINT('',#443);
#443 = CARTESIAN_POINT('',(1.E-15,0.718249999999,1.244045492539));
#444 = LINE('',#445,#446);
#445 = CARTESIAN_POINT('',(1.31E-15,0.71825,1.244045492536));
#446 = VECTOR('',#447,1.);
#447 = DIRECTION('',(-0.,0.5,-0.866025403784));
#448 = ORIENTED_EDGE('',*,*,#449,.F.);
#449 = EDGE_CURVE('',#450,#442,#452,.T.);
#450 = VERTEX_POINT('',#451);
#451 = CARTESIAN_POINT('',(1.E-15,-0.718250000003,1.244045492536));
#452 = LINE('',#453,#454);
#453 = CARTESIAN_POINT('',(1.3E-15,1.4365,1.244045492536));
#454 = VECTOR('',#455,1.);
#455 = DIRECTION('',(-1.E-17,1.,0.));
#456 = ORIENTED_EDGE('',*,*,#457,.F.);
#457 = EDGE_CURVE('',#458,#450,#460,.T.);
#458 = VERTEX_POINT('',#459);
#459 = CARTESIAN_POINT('',(0.,-1.436499999997,-4.944E-12));
#460 = LINE('',#461,#462);
#461 = CARTESIAN_POINT('',(1.33E-15,-1.4365,1.2E-16));
#462 = VECTOR('',#463,1.);
#463 = DIRECTION('',(-0.,0.5,0.866025403784));
#464 = ORIENTED_EDGE('',*,*,#465,.F.);
#465 = EDGE_CURVE('',#426,#458,#466,.T.);
#466 = LINE('',#467,#468);
#467 = CARTESIAN_POINT('',(1.32E-15,-0.71825,-1.244045492536));
#468 = VECTOR('',#469,1.);
#469 = DIRECTION('',(0.,-0.5,0.866025403784));
#470 = PLANE('',#471);
#471 = AXIS2_PLACEMENT_3D('',#472,#473,#474);
#472 = CARTESIAN_POINT('',(1.3E-15,1.4365,0.));
#473 = DIRECTION('',(1.,1.E-17,-0.));
#474 = DIRECTION('',(-1.E-17,1.,0.));
#475 = ADVANCED_FACE('',(#476),#497,.F.);
#476 = FACE_BOUND('',#477,.T.);
#477 = EDGE_LOOP('',(#478,#484,#490,#491));
#478 = ORIENTED_EDGE('',*,*,#479,.F.);
#479 = EDGE_CURVE('',#268,#259,#480,.T.);
#480 = LINE('',#481,#482);
#481 = CARTESIAN_POINT('',(1.500000000021,-0.71825,-1.244045492536));
#482 = VECTOR('',#483,1.);
#483 = DIRECTION('',(-0.,-0.5,0.866025403784));
#484 = ORIENTED_EDGE('',*,*,#485,.F.);
#485 = EDGE_CURVE('',#426,#268,#486,.T.);
#486 = LINE('',#487,#488);
#487 = CARTESIAN_POINT('',(1.5,-0.71825,-1.244045492536));
#488 = VECTOR('',#489,1.);
#489 = DIRECTION('',(1.,1.E-17,0.));
#490 = ORIENTED_EDGE('',*,*,#465,.T.);
#491 = ORIENTED_EDGE('',*,*,#492,.F.);
#492 = EDGE_CURVE('',#259,#458,#493,.T.);
#493 = LINE('',#494,#495);
#494 = CARTESIAN_POINT('',(1.5,-1.436499999989,-1.97752E-11));
#495 = VECTOR('',#496,1.);
#496 = DIRECTION('',(-1.,-1.E-17,-0.));
#497 = PLANE('',#498);
#498 = AXIS2_PLACEMENT_3D('',#499,#500,#501);
#499 = CARTESIAN_POINT('',(1.5,-0.71825,-1.244045492536));
#500 = DIRECTION('',(1.E-17,-0.866025403784,-0.5));
#501 = DIRECTION('',(0.,0.5,-0.866025403784));
#502 = ADVANCED_FACE('',(#503),#521,.F.);
#503 = FACE_BOUND('',#504,.T.);
#504 = EDGE_LOOP('',(#505,#513,#519,#520));
#505 = ORIENTED_EDGE('',*,*,#506,.F.);
#506 = EDGE_CURVE('',#507,#268,#509,.T.);
#507 = VERTEX_POINT('',#508);
#508 = CARTESIAN_POINT('',(1.500000000013,0.718250000006,-1.244045492546
    ));
#509 = LINE('',#510,#511);
#510 = CARTESIAN_POINT('',(1.500000000021,0.71825,-1.244045492536));
#511 = VECTOR('',#512,1.);
#512 = DIRECTION('',(-0.,-1.,6.E-16));
#513 = ORIENTED_EDGE('',*,*,#514,.F.);
#514 = EDGE_CURVE('',#424,#507,#515,.T.);
#515 = LINE('',#516,#517);
#516 = CARTESIAN_POINT('',(1.5,0.71825,-1.244045492536));
#517 = VECTOR('',#518,1.);
#518 = DIRECTION('',(1.,0.,0.));
#519 = ORIENTED_EDGE('',*,*,#423,.T.);
#520 = ORIENTED_EDGE('',*,*,#485,.T.);
#521 = PLANE('',#522);
#522 = AXIS2_PLACEMENT_3D('',#523,#524,#525);
#523 = CARTESIAN_POINT('',(1.5,0.71825,-1.244045492536));
#524 = DIRECTION('',(0.,-6.E-16,-1.));
#525 = DIRECTION('',(0.,1.,-6.E-16));
#526 = ADVANCED_FACE('',(#527),#545,.F.);
#527 = FACE_BOUND('',#528,.T.);
#528 = EDGE_LOOP('',(#529,#537,#543,#544));
#529 = ORIENTED_EDGE('',*,*,#530,.F.);
#530 = EDGE_CURVE('',#531,#507,#533,.T.);
#531 = VERTEX_POINT('',#532);
#532 = CARTESIAN_POINT('',(1.500000000013,1.436500000011,0.));
#533 = LINE('',#534,#535);
#534 = CARTESIAN_POINT('',(1.500000000021,1.4365,-0.));
#535 = VECTOR('',#536,1.);
#536 = DIRECTION('',(-0.,-0.5,-0.866025403784));
#537 = ORIENTED_EDGE('',*,*,#538,.F.);
#538 = EDGE_CURVE('',#434,#531,#539,.T.);
#539 = LINE('',#540,#541);
#540 = CARTESIAN_POINT('',(1.5,1.4365,3.2E-16));
#541 = VECTOR('',#542,1.);
#542 = DIRECTION('',(1.,1.E-17,-0.));
#543 = ORIENTED_EDGE('',*,*,#433,.T.);
#544 = ORIENTED_EDGE('',*,*,#514,.T.);
#545 = PLANE('',#546);
#546 = AXIS2_PLACEMENT_3D('',#547,#548,#549);
#547 = CARTESIAN_POINT('',(1.5,1.4365,0.));
#548 = DIRECTION('',(-1.E-17,0.866025403784,-0.5));
#549 = DIRECTION('',(0.,0.5,0.866025403784));
#550 = ADVANCED_FACE('',(#551),#569,.F.);
#551 = FACE_BOUND('',#552,.T.);
#552 = EDGE_LOOP('',(#553,#561,#567,#568));
#553 = ORIENTED_EDGE('',*,*,#554,.F.);
#554 = EDGE_CURVE('',#555,#531,#557,.T.);
#555 = VERTEX_POINT('',#556);
#556 = CARTESIAN_POINT('',(1.500000000013,0.718250000006,1.244045492546)
  );
#557 = LINE('',#558,#559);
#558 = CARTESIAN_POINT('',(1.500000000021,0.71825,1.244045492536));
#559 = VECTOR('',#560,1.);
#560 = DIRECTION('',(-0.,0.5,-0.866025403784));
#561 = ORIENTED_EDGE('',*,*,#562,.F.);
#562 = EDGE_CURVE('',#442,#555,#563,.T.);
#563 = LINE('',#564,#565);
#564 = CARTESIAN_POINT('',(1.5,0.71825,1.244045492536));
#565 = VECTOR('',#566,1.);
#566 = DIRECTION('',(1.,1.E-17,0.));
#567 = ORIENTED_EDGE('',*,*,#441,.T.);
#568 = ORIENTED_EDGE('',*,*,#538,.T.);
#569 = PLANE('',#570);
#570 = AXIS2_PLACEMENT_3D('',#571,#572,#573);
#571 = CARTESIAN_POINT('',(1.5,0.71825,1.244045492536));
#572 = DIRECTION('',(-1.E-17,0.866025403784,0.5));
#573 = DIRECTION('',(0.,-0.5,0.866025403784));
#574 = ADVANCED_FACE('',(#575),#591,.F.);
#575 = FACE_BOUND('',#576,.T.);
#576 = EDGE_LOOP('',(#577,#583,#589,#590));
#577 = ORIENTED_EDGE('',*,*,#578,.F.);
#578 = EDGE_CURVE('',#248,#555,#579,.T.);
#579 = LINE('',#580,#581);
#580 = CARTESIAN_POINT('',(1.500000000021,-0.71825,1.244045492536));
#581 = VECTOR('',#582,1.);
#582 = DIRECTION('',(-0.,1.,6.E-16));
#583 = ORIENTED_EDGE('',*,*,#584,.F.);
#584 = EDGE_CURVE('',#450,#248,#585,.T.);
#585 = LINE('',#586,#587);
#586 = CARTESIAN_POINT('',(1.5,-0.71825,1.244045492536));
#587 = VECTOR('',#588,1.);
#588 = DIRECTION('',(1.,0.,-0.));
#589 = ORIENTED_EDGE('',*,*,#449,.T.);
#590 = ORIENTED_EDGE('',*,*,#562,.T.);
#591 = PLANE('',#592);
#592 = AXIS2_PLACEMENT_3D('',#593,#594,#595);
#593 = CARTESIAN_POINT('',(1.5,-0.71825,1.244045492536));
#594 = DIRECTION('',(0.,-6.E-16,1.));
#595 = DIRECTION('',(0.,-1.,-6.E-16));
#596 = ADVANCED_FACE('',(#597),#608,.F.);
#597 = FACE_BOUND('',#598,.T.);
#598 = EDGE_LOOP('',(#599,#605,#606,#607));
#599 = ORIENTED_EDGE('',*,*,#600,.F.);
#600 = EDGE_CURVE('',#259,#248,#601,.T.);
#601 = LINE('',#602,#603);
#602 = CARTESIAN_POINT('',(1.500000000021,-1.4365,3.47E-15));
#603 = VECTOR('',#604,1.);
#604 = DIRECTION('',(-0.,0.5,0.866025403784));
#605 = ORIENTED_EDGE('',*,*,#492,.T.);
#606 = ORIENTED_EDGE('',*,*,#457,.T.);
#607 = ORIENTED_EDGE('',*,*,#584,.T.);
#608 = PLANE('',#609);
#609 = AXIS2_PLACEMENT_3D('',#610,#611,#612);
#610 = CARTESIAN_POINT('',(1.5,-1.4365,3.47E-15));
#611 = DIRECTION('',(1.E-17,-0.866025403784,0.5));
#612 = DIRECTION('',(0.,-0.5,-0.866025403784));
#613 = ADVANCED_FACE('',(#614),#618,.F.);
#614 = FACE_BOUND('',#615,.T.);
#615 = EDGE_LOOP('',(#616,#617));
#616 = ORIENTED_EDGE('',*,*,#479,.T.);
#617 = ORIENTED_EDGE('',*,*,#267,.F.);
#618 = PLANE('',#619);
#619 = AXIS2_PLACEMENT_3D('',#620,#621,#622);
#620 = CARTESIAN_POINT('',(1.5,-9.4E-16,0.));
#621 = DIRECTION('',(-1.,-1.E-17,0.));
#622 = DIRECTION('',(1.E-17,-1.,0.));
#623 = ADVANCED_FACE('',(#624),#635,.F.);
#624 = FACE_BOUND('',#625,.T.);
#625 = EDGE_LOOP('',(#626,#627,#628));
#626 = ORIENTED_EDGE('',*,*,#506,.T.);
#627 = ORIENTED_EDGE('',*,*,#276,.F.);
#628 = ORIENTED_EDGE('',*,*,#629,.F.);
#629 = EDGE_CURVE('',#507,#277,#630,.T.);
#630 = CIRCLE('',#631,1.436500000011);
#631 = AXIS2_PLACEMENT_3D('',#632,#633,#634);
#632 = CARTESIAN_POINT('',(1.500000000013,-1.1E-16,-0.));
#633 = DIRECTION('',(-1.,0.,-8.E-17));
#634 = DIRECTION('',(-8.E-17,0.,1.));
#635 = PLANE('',#636);
#636 = AXIS2_PLACEMENT_3D('',#637,#638,#639);
#637 = CARTESIAN_POINT('',(1.5,-9.4E-16,0.));
#638 = DIRECTION('',(-1.,-1.E-17,0.));
#639 = DIRECTION('',(1.E-17,-1.,0.));
#640 = ADVANCED_FACE('',(#641),#651,.F.);
#641 = FACE_BOUND('',#642,.T.);
#642 = EDGE_LOOP('',(#643,#644));
#643 = ORIENTED_EDGE('',*,*,#530,.T.);
#644 = ORIENTED_EDGE('',*,*,#645,.F.);
#645 = EDGE_CURVE('',#531,#507,#646,.T.);
#646 = CIRCLE('',#647,1.436500000011);
#647 = AXIS2_PLACEMENT_3D('',#648,#649,#650);
#648 = CARTESIAN_POINT('',(1.500000000013,-1.1E-16,-0.));
#649 = DIRECTION('',(-1.,0.,-8.E-17));
#650 = DIRECTION('',(-8.E-17,0.,1.));
#651 = PLANE('',#652);
#652 = AXIS2_PLACEMENT_3D('',#653,#654,#655);
#653 = CARTESIAN_POINT('',(1.5,-9.4E-16,0.));
#654 = DIRECTION('',(-1.,-1.E-17,0.));
#655 = DIRECTION('',(1.E-17,-1.,0.));
#656 = ADVANCED_FACE('',(#657),#667,.F.);
#657 = FACE_BOUND('',#658,.T.);
#658 = EDGE_LOOP('',(#659,#660));
#659 = ORIENTED_EDGE('',*,*,#554,.T.);
#660 = ORIENTED_EDGE('',*,*,#661,.F.);
#661 = EDGE_CURVE('',#555,#531,#662,.T.);
#662 = CIRCLE('',#663,1.436500000011);
#663 = AXIS2_PLACEMENT_3D('',#664,#665,#666);
#664 = CARTESIAN_POINT('',(1.500000000013,-1.1E-16,-0.));
#665 = DIRECTION('',(-1.,0.,-8.E-17));
#666 = DIRECTION('',(-8.E-17,0.,1.));
#667 = PLANE('',#668);
#668 = AXIS2_PLACEMENT_3D('',#669,#670,#671);
#669 = CARTESIAN_POINT('',(1.5,-9.4E-16,0.));
#670 = DIRECTION('',(-1.,-1.E-17,0.));
#671 = DIRECTION('',(1.E-17,-1.,0.));
#672 = ADVANCED_FACE('',(#673),#684,.F.);
#673 = FACE_BOUND('',#674,.T.);
#674 = EDGE_LOOP('',(#675,#676,#683));
#675 = ORIENTED_EDGE('',*,*,#578,.T.);
#676 = ORIENTED_EDGE('',*,*,#677,.F.);
#677 = EDGE_CURVE('',#250,#555,#678,.T.);
#678 = CIRCLE('',#679,1.436500000011);
#679 = AXIS2_PLACEMENT_3D('',#680,#681,#682);
#680 = CARTESIAN_POINT('',(1.500000000013,-1.1E-16,-0.));
#681 = DIRECTION('',(-1.,0.,-8.E-17));
#682 = DIRECTION('',(-8.E-17,0.,1.));
#683 = ORIENTED_EDGE('',*,*,#247,.F.);
#684 = PLANE('',#685);
#685 = AXIS2_PLACEMENT_3D('',#686,#687,#688);
#686 = CARTESIAN_POINT('',(1.5,-9.4E-16,0.));
#687 = DIRECTION('',(-1.,-1.E-17,0.));
#688 = DIRECTION('',(1.E-17,-1.,0.));
#689 = ADVANCED_FACE('',(#690),#694,.F.);
#690 = FACE_BOUND('',#691,.T.);
#691 = EDGE_LOOP('',(#692,#693));
#692 = ORIENTED_EDGE('',*,*,#600,.T.);
#693 = ORIENTED_EDGE('',*,*,#258,.F.);
#694 = PLANE('',#695);
#695 = AXIS2_PLACEMENT_3D('',#696,#697,#698);
#696 = CARTESIAN_POINT('',(1.5,-9.4E-16,0.));
#697 = DIRECTION('',(-1.,-1.E-17,0.));
#698 = DIRECTION('',(1.E-17,-1.,0.));
#699 = ADVANCED_FACE('',(#700),#708,.F.);
#700 = FACE_BOUND('',#701,.F.);
#701 = EDGE_LOOP('',(#702,#703,#704,#705,#706,#707));
#702 = ORIENTED_EDGE('',*,*,#629,.F.);
#703 = ORIENTED_EDGE('',*,*,#645,.F.);
#704 = ORIENTED_EDGE('',*,*,#661,.F.);
#705 = ORIENTED_EDGE('',*,*,#677,.F.);
#706 = ORIENTED_EDGE('',*,*,#293,.F.);
#707 = ORIENTED_EDGE('',*,*,#285,.T.);
#708 = CONICAL_SURFACE('',#709,1.436499999897,1.047197550955);
#709 = AXIS2_PLACEMENT_3D('',#710,#711,#712);
#710 = CARTESIAN_POINT('',(1.500000000078,-1.1E-16,0.));
#711 = DIRECTION('',(-1.,0.,-8.E-17));
#712 = DIRECTION('',(-8.E-17,0.,1.));
#713 = ( GEOMETRIC_REPRESENTATION_CONTEXT(3) 
GLOBAL_UNCERTAINTY_ASSIGNED_CONTEXT((#717)) GLOBAL_UNIT_ASSIGNED_CONTEXT
((#714,#715,#716)) REPRESENTATION_CONTEXT('Context #1',
  '3D Context with UNIT and UNCERTAINTY') );
#714 = ( LENGTH_UNIT() NAMED_UNIT(*) SI_UNIT(.MILLI.,.METRE.) );
#715 = ( NAMED_UNIT(*) PLANE_ANGLE_UNIT() SI_UNIT($,.RADIAN.) );
#716 = ( NAMED_UNIT(*) SI_UNIT($,.STERADIAN.) SOLID_ANGLE_UNIT() );
#717 = UNCERTAINTY_MEASURE_WITH_UNIT(LENGTH_MEASURE(1.E-07),#714,
  'distance_accuracy_value','confusion accuracy');
#718 = PRODUCT_RELATED_PRODUCT_CATEGORY('part',$,(#7));
#719 = MECHANICAL_DESIGN_GEOMETRIC_PRESENTATION_REPRESENTATION('',(#720)
  ,#713);
#720 = STYLED_ITEM('color',(#721),#15);
#721 = PRESENTATION_STYLE_ASSIGNMENT((#722,#728));
#722 = SURFACE_STYLE_USAGE(.BOTH.,#723);
#723 = SURFACE_SIDE_STYLE('',(#724));
#724 = SURFACE_STYLE_FILL_AREA(#725);
#725 = FILL_AREA_STYLE('',(#726));
#726 = FILL_AREA_STYLE_COLOUR('',#727);
#727 = COLOUR_RGB('',0.101960784187,0.101960784187,0.101960784187);
#728 = CURVE_STYLE('',#729,POSITIVE_LENGTH_MEASURE(0.1),#730);
#729 = DRAUGHTING_PRE_DEFINED_CURVE_FONT('continuous');
#730 = COLOUR_RGB('',9.803921802644E-02,9.803921802644E-02,
  9.803921802644E-02);
ENDSEC;
END-ISO-10303-21;
