ISO-10303-21;
HEADER;
FILE_DESCRIPTION(('FreeCAD Model'),'2;1');
FILE_NAME('Open CASCADE Shape Model','2026-09-03T21:59:10',('Author'),(
    ''),'Open CASCADE STEP processor 7.9','FreeCAD','Unknown');
FILE_SCHEMA(('AUTOMOTIVE_DESIGN { 1 0 10303 214 1 1 1 1 }'));
ENDSEC;
DATA;
#1 = APPLICATION_PROTOCOL_DEFINITION('international standard',
  'automotive_design',2000,#2);
#2 = APPLICATION_CONTEXT(
  'core data for automotive mechanical design processes');
#3 = SHAPE_DEFINITION_REPRESENTATION(#4,#10);
#4 = PRODUCT_DEFINITION_SHAPE('','',#5);
#5 = PRODUCT_DEFINITION('design','',#6,#9);
#6 = PRODUCT_DEFINITION_FORMATION('','',#7);
#7 = PRODUCT('M3X16 Pan Head Screw_Standard002',
  'M3X16 Pan Head Screw_Standard002','',(#8));
#8 = PRODUCT_CONTEXT('',#2,'mechanical');
#9 = PRODUCT_DEFINITION_CONTEXT('part definition',#2,'design');
#10 = ADVANCED_BREP_SHAPE_REPRESENTATION('',(#11,#15),#1385);
#11 = AXIS2_PLACEMENT_3D('',#12,#13,#14);
#12 = CARTESIAN_POINT('',(0.,0.,0.));
#13 = DIRECTION('',(0.,0.,1.));
#14 = DIRECTION('',(1.,0.,-0.));
#15 = MANIFOLD_SOLID_BREP('',#16);
#16 = CLOSED_SHELL('',(#17,#104,#142,#174,#192,#253,#271,#357,#367,#453,
    #513,#544,#568,#592,#616,#640,#657,#788,#938,#1028,#1177,#1268,#1374
    ));
#17 = ADVANCED_FACE('',(#18),#87,.F.);
#18 = FACE_BOUND('',#19,.F.);
#19 = EDGE_LOOP('',(#20,#31,#40,#49));
#20 = ORIENTED_EDGE('',*,*,#21,.T.);
#21 = EDGE_CURVE('',#22,#24,#26,.T.);
#22 = VERTEX_POINT('',#23);
#23 = CARTESIAN_POINT('',(1.65,0.,1.6));
#24 = VERTEX_POINT('',#25);
#25 = CARTESIAN_POINT('',(1.75,0.,1.5));
#26 = CIRCLE('',#27,0.1);
#27 = AXIS2_PLACEMENT_3D('',#28,#29,#30);
#28 = CARTESIAN_POINT('',(1.75,0.,1.6));
#29 = DIRECTION('',(0.,-1.,0.));
#30 = DIRECTION('',(0.,0.,1.));
#31 = ORIENTED_EDGE('',*,*,#32,.T.);
#32 = EDGE_CURVE('',#24,#33,#35,.T.);
#33 = VERTEX_POINT('',#34);
#34 = CARTESIAN_POINT('',(1.75,0.,-1.5));
#35 = CIRCLE('',#36,1.5);
#36 = AXIS2_PLACEMENT_3D('',#37,#38,#39);
#37 = CARTESIAN_POINT('',(1.75,0.,0.));
#38 = DIRECTION('',(1.,0.,-0.));
#39 = DIRECTION('',(0.,0.,1.));
#40 = ORIENTED_EDGE('',*,*,#41,.F.);
#41 = EDGE_CURVE('',#42,#33,#44,.T.);
#42 = VERTEX_POINT('',#43);
#43 = CARTESIAN_POINT('',(1.65,-0.,-1.6));
#44 = CIRCLE('',#45,0.1);
#45 = AXIS2_PLACEMENT_3D('',#46,#47,#48);
#46 = CARTESIAN_POINT('',(1.75,-2.E-16,-1.6));
#47 = DIRECTION('',(0.,1.,-1.2E-16));
#48 = DIRECTION('',(0.,-1.2E-16,-1.));
#49 = ORIENTED_EDGE('',*,*,#50,.T.);
#50 = EDGE_CURVE('',#42,#22,#51,.T.);
#51 = B_SPLINE_CURVE_WITH_KNOTS('',3,(#52,#53,#54,#55,#56,#57,#58,#59,
    #60,#61,#62,#63,#64,#65,#66,#67,#68,#69,#70,#71,#72,#73,#74,#75,#76,
    #77,#78,#79,#80,#81,#82,#83,#84,#85,#86),.UNSPECIFIED.,.F.,.F.,(4,1,
    1,2,2,2,1,1,1,2,2,2,1,1,2,2,2,1,1,2,2,4),(0.,6.25E-02,9.375E-02,
    0.109375,0.125,0.25,0.3125,0.34375,0.359375,0.3671875,0.375,0.5,
    0.5625,0.59375,0.609375,0.625,0.75,0.8125,0.84375,0.859375,0.875,1.)
  ,.UNSPECIFIED.);
#52 = CARTESIAN_POINT('',(1.65,-1.2E-16,-1.6));
#53 = CARTESIAN_POINT('',(1.65,-0.101640651077,-1.6));
#54 = CARTESIAN_POINT('',(1.65,-0.251490081298,-1.585957660212));
#55 = CARTESIAN_POINT('',(1.65,-0.421744210363,-1.545000835832));
#56 = CARTESIAN_POINT('',(1.65,-0.493730935778,-1.522182033678));
#57 = CARTESIAN_POINT('',(1.65,-0.541504457188,-1.505799303925));
#58 = CARTESIAN_POINT('',(1.65,-0.56331376971,-1.497801470991));
#59 = CARTESIAN_POINT('',(1.65,-0.794053660009,-1.406539767374));
#60 = CARTESIAN_POINT('',(1.65,-0.975357058908,-1.287279663798));
#61 = CARTESIAN_POINT('',(1.65,-1.209377745394,-1.053416442949));
#62 = CARTESIAN_POINT('',(1.65,-1.31241922099,-0.927148223411));
#63 = CARTESIAN_POINT('',(1.65,-1.408188757472,-0.763496234671));
#64 = CARTESIAN_POINT('',(1.65,-1.449962146118,-0.677585473814));
#65 = CARTESIAN_POINT('',(1.65,-1.466555445624,-0.639891269199));
#66 = CARTESIAN_POINT('',(1.65,-1.477326627219,-0.614567286767));
#67 = CARTESIAN_POINT('',(1.65,-1.482984724452,-0.600753148469));
#68 = CARTESIAN_POINT('',(1.65,-1.562486197663,-0.400125724586));
#69 = CARTESIAN_POINT('',(1.65,-1.599932668313,-0.203111065292));
#70 = CARTESIAN_POINT('',(1.65,-1.600033665844,0.101555532646));
#71 = CARTESIAN_POINT('',(1.65,-1.586016575439,0.251341124043));
#72 = CARTESIAN_POINT('',(1.65,-1.545045022252,0.421632492421));
#73 = CARTESIAN_POINT('',(1.65,-1.522210439233,0.493659117101));
#74 = CARTESIAN_POINT('',(1.65,-1.50581508479,0.541464557923));
#75 = CARTESIAN_POINT('',(1.65,-1.497801470991,0.56331376971));
#76 = CARTESIAN_POINT('',(1.65,-1.406539767374,0.794053660009));
#77 = CARTESIAN_POINT('',(1.65,-1.287279663798,0.975357058908));
#78 = CARTESIAN_POINT('',(1.65,-1.053416442949,1.209377745394));
#79 = CARTESIAN_POINT('',(1.65,-0.927148223411,1.31241922099));
#80 = CARTESIAN_POINT('',(1.65,-0.763496234671,1.408188757472));
#81 = CARTESIAN_POINT('',(1.65,-0.689858439651,1.443994519168));
#82 = CARTESIAN_POINT('',(1.65,-0.639988525544,1.466700954662));
#83 = CARTESIAN_POINT('',(1.65,-0.612576074091,1.478299721842));
#84 = CARTESIAN_POINT('',(1.65,-0.399955224963,1.562553760567));
#85 = CARTESIAN_POINT('',(1.65,-0.20363804653,1.6));
#86 = CARTESIAN_POINT('',(1.65,8.E-17,1.6));
#87 = ( BOUNDED_SURFACE() B_SPLINE_SURFACE(3,3,(
    (#88,#89,#90,#91)
    ,(#92,#93,#94,#95)
    ,(#96,#97,#98,#99)
    ,(#100,#101,#102,#103
)),.UNSPECIFIED.,.F.,.F.,.F.) B_SPLINE_SURFACE_WITH_KNOTS((4,4),(4,4),(
    0.,1.),(0.,1.),.PIECEWISE_BEZIER_KNOTS.) 
GEOMETRIC_REPRESENTATION_ITEM() RATIONAL_B_SPLINE_SURFACE((
    (1.,0.333333333333,0.333333333333,1.)
    ,(0.804737854124,0.268245951375,0.268245951375,0.804737854124)
    ,(0.804737854124,0.268245951375,0.268245951375,0.804737854124)
,(1.,0.333333333333,0.333333333333,1.
))) REPRESENTATION_ITEM('') SURFACE() );
#88 = CARTESIAN_POINT('',(1.65,0.,1.6));
#89 = CARTESIAN_POINT('',(1.65,-3.2,1.6));
#90 = CARTESIAN_POINT('',(1.65,-3.2,-1.6));
#91 = CARTESIAN_POINT('',(1.65,-2.E-16,-1.6));
#92 = CARTESIAN_POINT('',(1.65,0.,1.541421356237));
#93 = CARTESIAN_POINT('',(1.65,-3.082842712475,1.541421356237));
#94 = CARTESIAN_POINT('',(1.65,-3.082842712475,-1.541421356237));
#95 = CARTESIAN_POINT('',(1.65,-1.9E-16,-1.541421356237));
#96 = CARTESIAN_POINT('',(1.691421356237,0.,1.5));
#97 = CARTESIAN_POINT('',(1.691421356237,-3.,1.5));
#98 = CARTESIAN_POINT('',(1.691421356237,-3.,-1.5));
#99 = CARTESIAN_POINT('',(1.691421356237,-1.8E-16,-1.5));
#100 = CARTESIAN_POINT('',(1.75,0.,1.5));
#101 = CARTESIAN_POINT('',(1.75,-3.,1.5));
#102 = CARTESIAN_POINT('',(1.75,-3.,-1.5));
#103 = CARTESIAN_POINT('',(1.75,-1.8E-16,-1.5));
#104 = ADVANCED_FACE('',(#105),#137,.T.);
#105 = FACE_BOUND('',#106,.T.);
#106 = EDGE_LOOP('',(#107,#118,#124,#131));
#107 = ORIENTED_EDGE('',*,*,#108,.T.);
#108 = EDGE_CURVE('',#109,#111,#113,.T.);
#109 = VERTEX_POINT('',#110);
#110 = CARTESIAN_POINT('',(17.15,0.,1.49999999998));
#111 = VERTEX_POINT('',#112);
#112 = CARTESIAN_POINT('',(17.15,0.,-1.49999999998));
#113 = CIRCLE('',#114,1.5);
#114 = AXIS2_PLACEMENT_3D('',#115,#116,#117);
#115 = CARTESIAN_POINT('',(17.15,0.,0.));
#116 = DIRECTION('',(-1.,0.,0.));
#117 = DIRECTION('',(0.,0.,1.));
#118 = ORIENTED_EDGE('',*,*,#119,.T.);
#119 = EDGE_CURVE('',#111,#33,#120,.T.);
#120 = LINE('',#121,#122);
#121 = CARTESIAN_POINT('',(7.65,1.8E-16,-1.5));
#122 = VECTOR('',#123,1.);
#123 = DIRECTION('',(-1.,0.,0.));
#124 = ORIENTED_EDGE('',*,*,#125,.T.);
#125 = EDGE_CURVE('',#33,#24,#126,.T.);
#126 = CIRCLE('',#127,1.5);
#127 = AXIS2_PLACEMENT_3D('',#128,#129,#130);
#128 = CARTESIAN_POINT('',(1.75,0.,0.));
#129 = DIRECTION('',(1.,0.,-0.));
#130 = DIRECTION('',(0.,0.,1.));
#131 = ORIENTED_EDGE('',*,*,#132,.F.);
#132 = EDGE_CURVE('',#109,#24,#133,.T.);
#133 = LINE('',#134,#135);
#134 = CARTESIAN_POINT('',(7.65,0.,1.5));
#135 = VECTOR('',#136,1.);
#136 = DIRECTION('',(-1.,0.,0.));
#137 = CYLINDRICAL_SURFACE('',#138,1.5);
#138 = AXIS2_PLACEMENT_3D('',#139,#140,#141);
#139 = CARTESIAN_POINT('',(7.65,0.,0.));
#140 = DIRECTION('',(-1.,0.,0.));
#141 = DIRECTION('',(0.,0.,1.));
#142 = ADVANCED_FACE('',(#143),#169,.T.);
#143 = FACE_BOUND('',#144,.T.);
#144 = EDGE_LOOP('',(#145,#156,#162,#163));
#145 = ORIENTED_EDGE('',*,*,#146,.T.);
#146 = EDGE_CURVE('',#147,#149,#151,.T.);
#147 = VERTEX_POINT('',#148);
#148 = CARTESIAN_POINT('',(17.650000000003,0.,0.999999999976));
#149 = VERTEX_POINT('',#150);
#150 = CARTESIAN_POINT('',(17.650000000003,0.,-0.999999999976));
#151 = CIRCLE('',#152,0.999999999976);
#152 = AXIS2_PLACEMENT_3D('',#153,#154,#155);
#153 = CARTESIAN_POINT('',(17.650000000003,0.,0.));
#154 = DIRECTION('',(-1.,0.,0.));
#155 = DIRECTION('',(0.,0.,1.));
#156 = ORIENTED_EDGE('',*,*,#157,.T.);
#157 = EDGE_CURVE('',#149,#111,#158,.T.);
#158 = LINE('',#159,#160);
#159 = CARTESIAN_POINT('',(17.150000000015,1.8E-16,-1.499999999965));
#160 = VECTOR('',#161,1.);
#161 = DIRECTION('',(-0.707106781187,9.E-17,-0.707106781187));
#162 = ORIENTED_EDGE('',*,*,#108,.F.);
#163 = ORIENTED_EDGE('',*,*,#164,.F.);
#164 = EDGE_CURVE('',#147,#109,#165,.T.);
#165 = LINE('',#166,#167);
#166 = CARTESIAN_POINT('',(17.150000000015,0.,1.499999999965));
#167 = VECTOR('',#168,1.);
#168 = DIRECTION('',(-0.707106781187,0.,0.707106781187));
#169 = CONICAL_SURFACE('',#170,1.499999999965,0.785398163397);
#170 = AXIS2_PLACEMENT_3D('',#171,#172,#173);
#171 = CARTESIAN_POINT('',(17.150000000015,0.,0.));
#172 = DIRECTION('',(-1.,0.,0.));
#173 = DIRECTION('',(0.,0.,1.));
#174 = ADVANCED_FACE('',(#175),#187,.T.);
#175 = FACE_BOUND('',#176,.T.);
#176 = EDGE_LOOP('',(#177,#178,#185,#186));
#177 = ORIENTED_EDGE('',*,*,#119,.F.);
#178 = ORIENTED_EDGE('',*,*,#179,.T.);
#179 = EDGE_CURVE('',#111,#109,#180,.T.);
#180 = CIRCLE('',#181,1.5);
#181 = AXIS2_PLACEMENT_3D('',#182,#183,#184);
#182 = CARTESIAN_POINT('',(17.15,0.,0.));
#183 = DIRECTION('',(-1.,0.,0.));
#184 = DIRECTION('',(0.,0.,1.));
#185 = ORIENTED_EDGE('',*,*,#132,.T.);
#186 = ORIENTED_EDGE('',*,*,#32,.T.);
#187 = CYLINDRICAL_SURFACE('',#188,1.5);
#188 = AXIS2_PLACEMENT_3D('',#189,#190,#191);
#189 = CARTESIAN_POINT('',(7.65,0.,0.));
#190 = DIRECTION('',(-1.,0.,0.));
#191 = DIRECTION('',(0.,0.,1.));
#192 = ADVANCED_FACE('',(#193),#236,.F.);
#193 = FACE_BOUND('',#194,.F.);
#194 = EDGE_LOOP('',(#195,#196,#197,#235));
#195 = ORIENTED_EDGE('',*,*,#125,.T.);
#196 = ORIENTED_EDGE('',*,*,#21,.F.);
#197 = ORIENTED_EDGE('',*,*,#198,.T.);
#198 = EDGE_CURVE('',#22,#42,#199,.T.);
#199 = B_SPLINE_CURVE_WITH_KNOTS('',3,(#200,#201,#202,#203,#204,#205,
    #206,#207,#208,#209,#210,#211,#212,#213,#214,#215,#216,#217,#218,
    #219,#220,#221,#222,#223,#224,#225,#226,#227,#228,#229,#230,#231,
    #232,#233,#234),.UNSPECIFIED.,.F.,.F.,(4,1,1,2,2,2,1,1,1,2,2,2,1,1,2
    ,2,2,1,1,2,2,4),(0.,6.25E-02,9.375E-02,0.109375,0.125,0.25,0.3125,
    0.34375,0.359375,0.3671875,0.375,0.5,0.5625,0.59375,0.609375,0.625,
    0.75,0.8125,0.84375,0.859375,0.875,1.),.UNSPECIFIED.);
#200 = CARTESIAN_POINT('',(1.65,8.E-17,1.6));
#201 = CARTESIAN_POINT('',(1.65,0.101640651077,1.6));
#202 = CARTESIAN_POINT('',(1.65,0.251490081298,1.585957660212));
#203 = CARTESIAN_POINT('',(1.65,0.421744210362,1.545000835832));
#204 = CARTESIAN_POINT('',(1.65,0.493730935778,1.522182033678));
#205 = CARTESIAN_POINT('',(1.65,0.541504457188,1.505799303925));
#206 = CARTESIAN_POINT('',(1.65,0.56331376971,1.497801470991));
#207 = CARTESIAN_POINT('',(1.65,0.794053660009,1.406539767374));
#208 = CARTESIAN_POINT('',(1.65,0.975357058908,1.287279663798));
#209 = CARTESIAN_POINT('',(1.65,1.209377745394,1.053416442949));
#210 = CARTESIAN_POINT('',(1.65,1.312419220991,0.927148223411));
#211 = CARTESIAN_POINT('',(1.65,1.408188757472,0.763496234671));
#212 = CARTESIAN_POINT('',(1.65,1.449962146118,0.677585473814));
#213 = CARTESIAN_POINT('',(1.65,1.466555445624,0.639891269199));
#214 = CARTESIAN_POINT('',(1.65,1.477326627219,0.614567286767));
#215 = CARTESIAN_POINT('',(1.65,1.482984724452,0.600753148469));
#216 = CARTESIAN_POINT('',(1.65,1.562486197663,0.400125724586));
#217 = CARTESIAN_POINT('',(1.65,1.599932668313,0.203111065292));
#218 = CARTESIAN_POINT('',(1.65,1.600033665844,-0.101555532646));
#219 = CARTESIAN_POINT('',(1.65,1.586016575439,-0.251341124043));
#220 = CARTESIAN_POINT('',(1.65,1.545045022252,-0.421632492422));
#221 = CARTESIAN_POINT('',(1.65,1.522210439233,-0.493659117101));
#222 = CARTESIAN_POINT('',(1.65,1.50581508479,-0.541464557923));
#223 = CARTESIAN_POINT('',(1.65,1.497801470991,-0.56331376971));
#224 = CARTESIAN_POINT('',(1.65,1.406539767374,-0.794053660009));
#225 = CARTESIAN_POINT('',(1.65,1.287279663798,-0.975357058908));
#226 = CARTESIAN_POINT('',(1.65,1.053416442949,-1.209377745394));
#227 = CARTESIAN_POINT('',(1.65,0.927148223411,-1.312419220991));
#228 = CARTESIAN_POINT('',(1.65,0.763496234671,-1.408188757472));
#229 = CARTESIAN_POINT('',(1.65,0.68985843965,-1.443994519168));
#230 = CARTESIAN_POINT('',(1.65,0.639988525544,-1.466700954662));
#231 = CARTESIAN_POINT('',(1.65,0.612576074091,-1.478299721842));
#232 = CARTESIAN_POINT('',(1.65,0.399955224963,-1.562553760567));
#233 = CARTESIAN_POINT('',(1.65,0.20363804653,-1.6));
#234 = CARTESIAN_POINT('',(1.65,-1.2E-16,-1.6));
#235 = ORIENTED_EDGE('',*,*,#41,.T.);
#236 = ( BOUNDED_SURFACE() B_SPLINE_SURFACE(3,3,(
    (#237,#238,#239,#240)
    ,(#241,#242,#243,#244)
    ,(#245,#246,#247,#248)
    ,(#249,#250,#251,#252
)),.UNSPECIFIED.,.F.,.F.,.F.) B_SPLINE_SURFACE_WITH_KNOTS((4,4),(4,4),(
    0.,1.),(0.,1.),.PIECEWISE_BEZIER_KNOTS.) 
GEOMETRIC_REPRESENTATION_ITEM() RATIONAL_B_SPLINE_SURFACE((
    (1.,0.333333333333,0.333333333333,1.)
    ,(0.804737854124,0.268245951375,0.268245951375,0.804737854124)
    ,(0.804737854124,0.268245951375,0.268245951375,0.804737854124)
,(1.,0.333333333333,0.333333333333,1.
))) REPRESENTATION_ITEM('') SURFACE() );
#237 = CARTESIAN_POINT('',(1.65,-2.E-16,-1.6));
#238 = CARTESIAN_POINT('',(1.65,3.2,-1.6));
#239 = CARTESIAN_POINT('',(1.65,3.2,1.6));
#240 = CARTESIAN_POINT('',(1.65,3.9E-16,1.6));
#241 = CARTESIAN_POINT('',(1.65,-1.9E-16,-1.541421356237));
#242 = CARTESIAN_POINT('',(1.65,3.082842712475,-1.541421356237));
#243 = CARTESIAN_POINT('',(1.65,3.082842712475,1.541421356237));
#244 = CARTESIAN_POINT('',(1.65,3.8E-16,1.541421356237));
#245 = CARTESIAN_POINT('',(1.691421356237,-1.8E-16,-1.5));
#246 = CARTESIAN_POINT('',(1.691421356237,3.,-1.5));
#247 = CARTESIAN_POINT('',(1.691421356237,3.,1.5));
#248 = CARTESIAN_POINT('',(1.691421356237,3.7E-16,1.5));
#249 = CARTESIAN_POINT('',(1.75,-1.8E-16,-1.5));
#250 = CARTESIAN_POINT('',(1.75,3.,-1.5));
#251 = CARTESIAN_POINT('',(1.75,3.,1.5));
#252 = CARTESIAN_POINT('',(1.75,3.7E-16,1.5));
#253 = ADVANCED_FACE('',(#254),#266,.T.);
#254 = FACE_BOUND('',#255,.T.);
#255 = EDGE_LOOP('',(#256,#257,#264,#265));
#256 = ORIENTED_EDGE('',*,*,#157,.F.);
#257 = ORIENTED_EDGE('',*,*,#258,.T.);
#258 = EDGE_CURVE('',#149,#147,#259,.T.);
#259 = CIRCLE('',#260,0.999999999976);
#260 = AXIS2_PLACEMENT_3D('',#261,#262,#263);
#261 = CARTESIAN_POINT('',(17.650000000003,0.,0.));
#262 = DIRECTION('',(-1.,0.,0.));
#263 = DIRECTION('',(0.,0.,1.));
#264 = ORIENTED_EDGE('',*,*,#164,.T.);
#265 = ORIENTED_EDGE('',*,*,#179,.F.);
#266 = CONICAL_SURFACE('',#267,1.499999999965,0.785398163397);
#267 = AXIS2_PLACEMENT_3D('',#268,#269,#270);
#268 = CARTESIAN_POINT('',(17.150000000015,0.,0.));
#269 = DIRECTION('',(-1.,0.,0.));
#270 = DIRECTION('',(0.,0.,1.));
#271 = ADVANCED_FACE('',(#272,#348),#352,.T.);
#272 = FACE_BOUND('',#273,.T.);
#273 = EDGE_LOOP('',(#274,#313));
#274 = ORIENTED_EDGE('',*,*,#275,.T.);
#275 = EDGE_CURVE('',#276,#278,#280,.T.);
#276 = VERTEX_POINT('',#277);
#277 = CARTESIAN_POINT('',(1.65,2.85,0.));
#278 = VERTEX_POINT('',#279);
#279 = CARTESIAN_POINT('',(1.65,-2.85,-1.E-15));
#280 = B_SPLINE_CURVE_WITH_KNOTS('',3,(#281,#282,#283,#284,#285,#286,
    #287,#288,#289,#290,#291,#292,#293,#294,#295,#296,#297,#298,#299,
    #300,#301,#302,#303,#304,#305,#306,#307,#308,#309,#310,#311,#312),
  .UNSPECIFIED.,.F.,.F.,(4,2,2,2,2,2,2,2,2,2,2,2,2,2,2,4),(0.,
    1.122882244398E-03,1.684323366597E-03,2.245764488795E-03,
    2.807205610994E-03,3.368646733193E-03,3.930087855392E-03,
    4.491528977591E-03,5.05297009979E-03,5.614411221989E-03,
    6.175852344187E-03,6.737293466386E-03,7.298734588585E-03,
    7.860175710784E-03,8.421616832983E-03,8.983057955182E-03),
  .UNSPECIFIED.);
#281 = CARTESIAN_POINT('',(1.65,2.85,1.1E-16));
#282 = CARTESIAN_POINT('',(1.65,2.85,0.376356509893));
#283 = CARTESIAN_POINT('',(1.65,2.774412838043,0.750211924883));
#284 = CARTESIAN_POINT('',(1.65,2.560975284298,1.264249471129));
#285 = CARTESIAN_POINT('',(1.65,2.4720710239,1.430498164314));
#286 = CARTESIAN_POINT('',(1.65,2.263988749756,1.741210810411));
#287 = CARTESIAN_POINT('',(1.65,2.146084294089,1.88451729564));
#288 = CARTESIAN_POINT('',(1.65,1.882995930902,2.147419278834));
#289 = CARTESIAN_POINT('',(1.65,1.7362844764,2.267686106413));
#290 = CARTESIAN_POINT('',(1.65,1.426874714324,2.474088238085));
#291 = CARTESIAN_POINT('',(1.65,1.263222904723,2.561586722611));
#292 = CARTESIAN_POINT('',(1.65,0.917733921037,2.704666910112));
#293 = CARTESIAN_POINT('',(1.65,0.737267697994,2.759231351968));
#294 = CARTESIAN_POINT('',(1.65,0.373319399893,2.831528551481));
#295 = CARTESIAN_POINT('',(1.65,0.18742540835,2.850025225272));
#296 = CARTESIAN_POINT('',(1.65,-0.188191778387,2.849974723209));
#297 = CARTESIAN_POINT('',(1.65,-0.373093271784,2.831566238377));
#298 = CARTESIAN_POINT('',(1.65,-0.737280251548,2.759236086754));
#299 = CARTESIAN_POINT('',(1.65,-0.918487092695,2.704376303554));
#300 = CARTESIAN_POINT('',(1.65,-1.263026232954,2.561646826856));
#301 = CARTESIAN_POINT('',(1.65,-1.426653836169,2.474243002233));
#302 = CARTESIAN_POINT('',(1.65,-1.736662473273,2.267426527207));
#303 = CARTESIAN_POINT('',(1.65,-1.883163465188,2.147250098386));
#304 = CARTESIAN_POINT('',(1.65,-2.145889657421,1.884713559088));
#305 = CARTESIAN_POINT('',(1.65,-2.263954484758,1.741321825784));
#306 = CARTESIAN_POINT('',(1.65,-2.472669039422,1.429545183438));
#307 = CARTESIAN_POINT('',(1.65,-2.560921974003,1.264355154636));
#308 = CARTESIAN_POINT('',(1.65,-2.703217728802,0.921699096603));
#309 = CARTESIAN_POINT('',(1.65,-2.758109399661,0.741951392115));
#310 = CARTESIAN_POINT('',(1.65,-2.831543297346,0.374194981279));
#311 = CARTESIAN_POINT('',(1.65,-2.85,0.188178254947));
#312 = CARTESIAN_POINT('',(1.65,-2.85,-5.4E-16));
#313 = ORIENTED_EDGE('',*,*,#314,.T.);
#314 = EDGE_CURVE('',#278,#276,#315,.T.);
#315 = B_SPLINE_CURVE_WITH_KNOTS('',3,(#316,#317,#318,#319,#320,#321,
    #322,#323,#324,#325,#326,#327,#328,#329,#330,#331,#332,#333,#334,
    #335,#336,#337,#338,#339,#340,#341,#342,#343,#344,#345,#346,#347),
  .UNSPECIFIED.,.F.,.F.,(4,2,2,2,2,2,2,2,2,2,2,2,2,2,2,4),(
    8.983057955182E-03,1.010594019958E-02,1.066738132178E-02,
    1.122882244398E-02,1.179026356618E-02,1.235170468837E-02,
    1.291314581057E-02,1.347458693277E-02,1.403602805497E-02,
    1.459746917717E-02,1.515891029937E-02,1.572035142157E-02,
    1.628179254377E-02,1.684323366597E-02,1.740467478816E-02,
    1.796611591036E-02),.UNSPECIFIED.);
#316 = CARTESIAN_POINT('',(1.65,-2.85,-5.4E-16));
#317 = CARTESIAN_POINT('',(1.65,-2.85,-0.376356509893));
#318 = CARTESIAN_POINT('',(1.65,-2.774412838043,-0.750211924883));
#319 = CARTESIAN_POINT('',(1.65,-2.560975284298,-1.264249471129));
#320 = CARTESIAN_POINT('',(1.65,-2.4720710239,-1.430498164314));
#321 = CARTESIAN_POINT('',(1.65,-2.263988749756,-1.741210810411));
#322 = CARTESIAN_POINT('',(1.65,-2.146084294089,-1.88451729564));
#323 = CARTESIAN_POINT('',(1.65,-1.882995930902,-2.147419278834));
#324 = CARTESIAN_POINT('',(1.65,-1.7362844764,-2.267686106413));
#325 = CARTESIAN_POINT('',(1.65,-1.426874714324,-2.474088238085));
#326 = CARTESIAN_POINT('',(1.65,-1.263222904723,-2.561586722611));
#327 = CARTESIAN_POINT('',(1.65,-0.917733921037,-2.704666910112));
#328 = CARTESIAN_POINT('',(1.65,-0.737267697994,-2.759231351968));
#329 = CARTESIAN_POINT('',(1.65,-0.373319399893,-2.831528551481));
#330 = CARTESIAN_POINT('',(1.65,-0.18742540835,-2.850025225272));
#331 = CARTESIAN_POINT('',(1.65,0.188191778387,-2.849974723209));
#332 = CARTESIAN_POINT('',(1.65,0.373093271784,-2.831566238377));
#333 = CARTESIAN_POINT('',(1.65,0.737280251548,-2.759236086754));
#334 = CARTESIAN_POINT('',(1.65,0.918487092695,-2.704376303554));
#335 = CARTESIAN_POINT('',(1.65,1.263026232954,-2.561646826856));
#336 = CARTESIAN_POINT('',(1.65,1.426653836169,-2.474243002233));
#337 = CARTESIAN_POINT('',(1.65,1.736662473273,-2.267426527207));
#338 = CARTESIAN_POINT('',(1.65,1.883163465188,-2.147250098386));
#339 = CARTESIAN_POINT('',(1.65,2.145889657421,-1.884713559088));
#340 = CARTESIAN_POINT('',(1.65,2.263954484758,-1.741321825784));
#341 = CARTESIAN_POINT('',(1.65,2.472669039422,-1.429545183438));
#342 = CARTESIAN_POINT('',(1.65,2.560921974003,-1.264355154636));
#343 = CARTESIAN_POINT('',(1.65,2.703217728802,-0.921699096603));
#344 = CARTESIAN_POINT('',(1.65,2.758109399661,-0.741951392115));
#345 = CARTESIAN_POINT('',(1.65,2.831543297346,-0.374194981279));
#346 = CARTESIAN_POINT('',(1.65,2.85,-0.188178254947));
#347 = CARTESIAN_POINT('',(1.65,2.85,1.1E-16));
#348 = FACE_BOUND('',#349,.T.);
#349 = EDGE_LOOP('',(#350,#351));
#350 = ORIENTED_EDGE('',*,*,#50,.T.);
#351 = ORIENTED_EDGE('',*,*,#198,.T.);
#352 = PLANE('',#353);
#353 = AXIS2_PLACEMENT_3D('',#354,#355,#356);
#354 = CARTESIAN_POINT('',(1.65,0.,0.));
#355 = DIRECTION('',(1.,0.,-0.));
#356 = DIRECTION('',(-0.,0.,-1.));
#357 = ADVANCED_FACE('',(#358),#362,.T.);
#358 = FACE_BOUND('',#359,.T.);
#359 = EDGE_LOOP('',(#360,#361));
#360 = ORIENTED_EDGE('',*,*,#146,.F.);
#361 = ORIENTED_EDGE('',*,*,#258,.F.);
#362 = PLANE('',#363);
#363 = AXIS2_PLACEMENT_3D('',#364,#365,#366);
#364 = CARTESIAN_POINT('',(17.65,0.,0.));
#365 = DIRECTION('',(1.,-0.,0.));
#366 = DIRECTION('',(0.,0.,-1.));
#367 = ADVANCED_FACE('',(#368,#372),#436,.T.);
#368 = FACE_BOUND('',#369,.T.);
#369 = EDGE_LOOP('',(#370,#371));
#370 = ORIENTED_EDGE('',*,*,#275,.F.);
#371 = ORIENTED_EDGE('',*,*,#314,.F.);
#372 = FACE_BOUND('',#373,.T.);
#373 = EDGE_LOOP('',(#374,#407));
#374 = ORIENTED_EDGE('',*,*,#375,.T.);
#375 = EDGE_CURVE('',#376,#378,#380,.T.);
#376 = VERTEX_POINT('',#377);
#377 = CARTESIAN_POINT('',(0.,1.65,0.));
#378 = VERTEX_POINT('',#379);
#379 = CARTESIAN_POINT('',(0.,-1.65,-0.));
#380 = B_SPLINE_CURVE_WITH_KNOTS('',3,(#381,#382,#383,#384,#385,#386,
    #387,#388,#389,#390,#391,#392,#393,#394,#395,#396,#397,#398,#399,
    #400,#401,#402,#403,#404,#405,#406),.UNSPECIFIED.,.F.,.F.,(4,2,2,2,2
    ,2,2,2,2,2,2,2,4),(0.,3.223497147099E-04,6.446994294197E-04,
    9.670491441296E-04,1.289398858839E-03,1.934098288259E-03,
    2.578797717679E-03,2.901147432389E-03,3.223497147099E-03,
    3.545846861809E-03,3.868196576518E-03,4.512896005938E-03,
    5.157595435358E-03),.UNSPECIFIED.);
#381 = CARTESIAN_POINT('',(0.,1.65,4.3E-16));
#382 = CARTESIAN_POINT('',(0.,1.65,0.108996956467));
#383 = CARTESIAN_POINT('',(-0.,1.639305824177,0.216172663937));
#384 = CARTESIAN_POINT('',(0.,1.597403866579,0.427030552601));
#385 = CARTESIAN_POINT('',(-1.3E-15,1.565688011046,0.531804172799));
#386 = CARTESIAN_POINT('',(-1.3E-15,1.482883391139,0.731608826097));
#387 = CARTESIAN_POINT('',(-0.,1.432211662877,0.826374144099));
#388 = CARTESIAN_POINT('',(-0.,1.312495934335,1.005723071064));
#389 = CARTESIAN_POINT('',(0.,1.242813845675,1.090641170545));
#390 = CARTESIAN_POINT('',(-0.,1.014490198478,1.318956901777));
#391 = CARTESIAN_POINT('',(0.,0.830438230831,1.441892747037));
#392 = CARTESIAN_POINT('',(-0.,0.433406765131,1.606499587651));
#393 = CARTESIAN_POINT('',(0.,0.216305148142,1.649854211549));
#394 = CARTESIAN_POINT('',(-0.,-0.106480128015,1.650072329159));
#395 = CARTESIAN_POINT('',(-6.5E-16,-0.215765518557,1.639384581052));
#396 = CARTESIAN_POINT('',(-6.5E-16,-0.427374387304,1.597337690242));
#397 = CARTESIAN_POINT('',(6.5E-16,-0.530224031617,1.56621882277));
#398 = CARTESIAN_POINT('',(6.5E-16,-0.729981441484,1.483679891214));
#399 = CARTESIAN_POINT('',(0.,-0.826628816082,1.432041642631));
#400 = CARTESIAN_POINT('',(-0.,-1.005467841836,1.312666326543));
#401 = CARTESIAN_POINT('',(0.,-1.088820546799,1.244518326122));
#402 = CARTESIAN_POINT('',(-0.,-1.319970780139,1.013706726979));
#403 = CARTESIAN_POINT('',(2.48499E-12,-1.441152416518,0.832120578461));
#404 = CARTESIAN_POINT('',(2.48499E-12,-1.607008947988,0.432281373437));
#405 = CARTESIAN_POINT('',(-0.,-1.65,0.217993912933));
#406 = CARTESIAN_POINT('',(0.,-1.65,-4.3E-16));
#407 = ORIENTED_EDGE('',*,*,#408,.T.);
#408 = EDGE_CURVE('',#378,#376,#409,.T.);
#409 = B_SPLINE_CURVE_WITH_KNOTS('',3,(#410,#411,#412,#413,#414,#415,
    #416,#417,#418,#419,#420,#421,#422,#423,#424,#425,#426,#427,#428,
    #429,#430,#431,#432,#433,#434,#435),.UNSPECIFIED.,.F.,.F.,(4,2,2,2,2
    ,2,2,2,2,2,2,2,4),(5.157595435358E-03,5.479945150068E-03,
    5.802294864778E-03,6.124644579488E-03,6.446994294197E-03,
    7.091693723617E-03,7.736393153037E-03,8.058742867747E-03,
    8.381092582457E-03,8.703442297167E-03,9.025792011876E-03,
    9.670491441296E-03,1.031519087072E-02),.UNSPECIFIED.);
#410 = CARTESIAN_POINT('',(0.,-1.65,-4.3E-16));
#411 = CARTESIAN_POINT('',(0.,-1.65,-0.108996956467));
#412 = CARTESIAN_POINT('',(-0.,-1.639305824177,-0.216172663937));
#413 = CARTESIAN_POINT('',(-0.,-1.597403866579,-0.427030552601));
#414 = CARTESIAN_POINT('',(1.95E-15,-1.565688011046,-0.531804172799));
#415 = CARTESIAN_POINT('',(1.95E-15,-1.482883391139,-0.731608826097));
#416 = CARTESIAN_POINT('',(-6.5E-16,-1.432211662877,-0.826374144099));
#417 = CARTESIAN_POINT('',(-6.5E-16,-1.312495934335,-1.005723071064));
#418 = CARTESIAN_POINT('',(-0.,-1.242813845675,-1.090641170545));
#419 = CARTESIAN_POINT('',(-0.,-1.014490198478,-1.318956901777));
#420 = CARTESIAN_POINT('',(0.,-0.830438230831,-1.441892747037));
#421 = CARTESIAN_POINT('',(-0.,-0.433406765131,-1.606499587651));
#422 = CARTESIAN_POINT('',(0.,-0.216305148142,-1.649854211549));
#423 = CARTESIAN_POINT('',(-0.,0.106480128015,-1.650072329159));
#424 = CARTESIAN_POINT('',(0.,0.215765518557,-1.639384581052));
#425 = CARTESIAN_POINT('',(0.,0.427374387304,-1.597337690242));
#426 = CARTESIAN_POINT('',(6.5E-16,0.530224031617,-1.56621882277));
#427 = CARTESIAN_POINT('',(6.5E-16,0.729981441484,-1.483679891214));
#428 = CARTESIAN_POINT('',(0.,0.826628816082,-1.432041642631));
#429 = CARTESIAN_POINT('',(-0.,1.005467841836,-1.312666326543));
#430 = CARTESIAN_POINT('',(0.,1.088820546799,-1.244518326122));
#431 = CARTESIAN_POINT('',(-0.,1.319970780139,-1.013706726979));
#432 = CARTESIAN_POINT('',(2.48564E-12,1.441152416518,-0.832120578461));
#433 = CARTESIAN_POINT('',(2.48564E-12,1.607008947988,-0.432281373437));
#434 = CARTESIAN_POINT('',(0.,1.65,-0.217993912933));
#435 = CARTESIAN_POINT('',(0.,1.65,4.3E-16));
#436 = ( BOUNDED_SURFACE() B_SPLINE_SURFACE(3,3,(
    (#437,#438,#439,#440)
    ,(#441,#442,#443,#444)
    ,(#445,#446,#447,#448)
    ,(#449,#450,#451,#452
)),.UNSPECIFIED.,.F.,.F.,.F.) B_SPLINE_SURFACE_WITH_KNOTS((4,4),(4,4),(
    0.,1.),(0.,1.),.PIECEWISE_BEZIER_KNOTS.) 
GEOMETRIC_REPRESENTATION_ITEM() RATIONAL_B_SPLINE_SURFACE((
    (1.,0.505683670819,0.505683670819,1.)
    ,(0.505899175489,0.255824952126,0.255824952126,0.505899175489)
    ,(0.505899175489,0.255824952126,0.255824952126,0.505899175489)
,(1.,0.505683670819,0.505683670819,1.
))) REPRESENTATION_ITEM('') SURFACE() );
#437 = CARTESIAN_POINT('',(2.263066334516,-2.862249650992,0.740956183516
    ));
#438 = CARTESIAN_POINT('',(1.3194369492,-2.862249650992,0.488418766035)
  );
#439 = CARTESIAN_POINT('',(1.3194369492,-2.862249650992,-0.488418766035)
  );
#440 = CARTESIAN_POINT('',(2.263066334516,-2.862249650992,
    -0.740956183516));
#441 = CARTESIAN_POINT('',(1.32118568363,-1.8859157382,4.260380229661));
#442 = CARTESIAN_POINT('',(-4.104533227638,-1.8859157382,2.8083302372));
#443 = CARTESIAN_POINT('',(-4.104533227638,-1.8859157382,-2.8083302372)
  );
#444 = CARTESIAN_POINT('',(1.32118568363,-1.8859157382,-4.260380229661)
  );
#445 = CARTESIAN_POINT('',(1.32118568363,1.8859157382,4.260380229661));
#446 = CARTESIAN_POINT('',(-4.104533227638,1.8859157382,2.8083302372));
#447 = CARTESIAN_POINT('',(-4.104533227638,1.8859157382,-2.8083302372));
#448 = CARTESIAN_POINT('',(1.32118568363,1.8859157382,-4.260380229661));
#449 = CARTESIAN_POINT('',(2.263066334516,2.862249650992,0.740956183516)
  );
#450 = CARTESIAN_POINT('',(1.3194369492,2.862249650992,0.488418766035));
#451 = CARTESIAN_POINT('',(1.3194369492,2.862249650992,-0.488418766035)
  );
#452 = CARTESIAN_POINT('',(2.263066334516,2.862249650992,-0.740956183516
    ));
#453 = ADVANCED_FACE('',(#454,#504),#508,.F.);
#454 = FACE_BOUND('',#455,.T.);
#455 = EDGE_LOOP('',(#456,#466,#474,#482,#490,#498));
#456 = ORIENTED_EDGE('',*,*,#457,.F.);
#457 = EDGE_CURVE('',#458,#460,#462,.T.);
#458 = VERTEX_POINT('',#459);
#459 = CARTESIAN_POINT('',(0.,1.,-0.57735026919));
#460 = VERTEX_POINT('',#461);
#461 = CARTESIAN_POINT('',(0.,-1.E-15,-1.154700538379));
#462 = LINE('',#463,#464);
#463 = CARTESIAN_POINT('',(0.,1.,-0.57735026919));
#464 = VECTOR('',#465,1.);
#465 = DIRECTION('',(0.,-0.866025403784,-0.5));
#466 = ORIENTED_EDGE('',*,*,#467,.F.);
#467 = EDGE_CURVE('',#468,#458,#470,.T.);
#468 = VERTEX_POINT('',#469);
#469 = CARTESIAN_POINT('',(0.,1.,0.57735026919));
#470 = LINE('',#471,#472);
#471 = CARTESIAN_POINT('',(0.,1.,0.));
#472 = VECTOR('',#473,1.);
#473 = DIRECTION('',(-0.,0.,-1.));
#474 = ORIENTED_EDGE('',*,*,#475,.F.);
#475 = EDGE_CURVE('',#476,#468,#478,.T.);
#476 = VERTEX_POINT('',#477);
#477 = CARTESIAN_POINT('',(0.,1.E-15,1.154700538379));
#478 = LINE('',#479,#480);
#479 = CARTESIAN_POINT('',(0.,8.9E-16,1.154700538379));
#480 = VECTOR('',#481,1.);
#481 = DIRECTION('',(0.,0.866025403784,-0.5));
#482 = ORIENTED_EDGE('',*,*,#483,.F.);
#483 = EDGE_CURVE('',#484,#476,#486,.T.);
#484 = VERTEX_POINT('',#485);
#485 = CARTESIAN_POINT('',(0.,-1.,0.57735026919));
#486 = LINE('',#487,#488);
#487 = CARTESIAN_POINT('',(0.,-1.,0.57735026919));
#488 = VECTOR('',#489,1.);
#489 = DIRECTION('',(0.,0.866025403784,0.5));
#490 = ORIENTED_EDGE('',*,*,#491,.F.);
#491 = EDGE_CURVE('',#492,#484,#494,.T.);
#492 = VERTEX_POINT('',#493);
#493 = CARTESIAN_POINT('',(0.,-1.,-0.57735026919));
#494 = LINE('',#495,#496);
#495 = CARTESIAN_POINT('',(0.,-1.,0.));
#496 = VECTOR('',#497,1.);
#497 = DIRECTION('',(0.,-0.,1.));
#498 = ORIENTED_EDGE('',*,*,#499,.F.);
#499 = EDGE_CURVE('',#460,#492,#500,.T.);
#500 = LINE('',#501,#502);
#501 = CARTESIAN_POINT('',(0.,-1.26E-15,-1.154700538379));
#502 = VECTOR('',#503,1.);
#503 = DIRECTION('',(0.,-0.866025403784,0.5));
#504 = FACE_BOUND('',#505,.T.);
#505 = EDGE_LOOP('',(#506,#507));
#506 = ORIENTED_EDGE('',*,*,#375,.F.);
#507 = ORIENTED_EDGE('',*,*,#408,.F.);
#508 = PLANE('',#509);
#509 = AXIS2_PLACEMENT_3D('',#510,#511,#512);
#510 = CARTESIAN_POINT('',(0.,0.,0.));
#511 = DIRECTION('',(1.,0.,-0.));
#512 = DIRECTION('',(-0.,0.,-1.));
#513 = ADVANCED_FACE('',(#514),#539,.T.);
#514 = FACE_BOUND('',#515,.T.);
#515 = EDGE_LOOP('',(#516,#526,#532,#533));
#516 = ORIENTED_EDGE('',*,*,#517,.T.);
#517 = EDGE_CURVE('',#518,#520,#522,.T.);
#518 = VERTEX_POINT('',#519);
#519 = CARTESIAN_POINT('',(1.04,-1.,-0.57735026919));
#520 = VERTEX_POINT('',#521);
#521 = CARTESIAN_POINT('',(1.04,-1.E-15,-1.154700538379));
#522 = LINE('',#523,#524);
#523 = CARTESIAN_POINT('',(1.04,-1.,-0.57735026919));
#524 = VECTOR('',#525,1.);
#525 = DIRECTION('',(-0.,0.866025403784,-0.5));
#526 = ORIENTED_EDGE('',*,*,#527,.T.);
#527 = EDGE_CURVE('',#520,#460,#528,.T.);
#528 = LINE('',#529,#530);
#529 = CARTESIAN_POINT('',(1.04,-1.3E-15,-1.154700538379));
#530 = VECTOR('',#531,1.);
#531 = DIRECTION('',(-1.,-0.,0.));
#532 = ORIENTED_EDGE('',*,*,#499,.T.);
#533 = ORIENTED_EDGE('',*,*,#534,.T.);
#534 = EDGE_CURVE('',#492,#518,#535,.T.);
#535 = LINE('',#536,#537);
#536 = CARTESIAN_POINT('',(1.04,-1.,-0.57735026919));
#537 = VECTOR('',#538,1.);
#538 = DIRECTION('',(1.,0.,-0.));
#539 = PLANE('',#540);
#540 = AXIS2_PLACEMENT_3D('',#541,#542,#543);
#541 = CARTESIAN_POINT('',(1.04,-1.,-0.57735026919));
#542 = DIRECTION('',(0.,0.5,0.866025403784));
#543 = DIRECTION('',(0.,-0.866025403784,0.5));
#544 = ADVANCED_FACE('',(#545),#563,.T.);
#545 = FACE_BOUND('',#546,.T.);
#546 = EDGE_LOOP('',(#547,#555,#561,#562));
#547 = ORIENTED_EDGE('',*,*,#548,.T.);
#548 = EDGE_CURVE('',#520,#549,#551,.T.);
#549 = VERTEX_POINT('',#550);
#550 = CARTESIAN_POINT('',(1.04,1.,-0.57735026919));
#551 = LINE('',#552,#553);
#552 = CARTESIAN_POINT('',(1.04,-1.26E-15,-1.154700538379));
#553 = VECTOR('',#554,1.);
#554 = DIRECTION('',(-0.,0.866025403784,0.5));
#555 = ORIENTED_EDGE('',*,*,#556,.T.);
#556 = EDGE_CURVE('',#549,#458,#557,.T.);
#557 = LINE('',#558,#559);
#558 = CARTESIAN_POINT('',(1.04,1.,-0.57735026919));
#559 = VECTOR('',#560,1.);
#560 = DIRECTION('',(-1.,-0.,-0.));
#561 = ORIENTED_EDGE('',*,*,#457,.T.);
#562 = ORIENTED_EDGE('',*,*,#527,.F.);
#563 = PLANE('',#564);
#564 = AXIS2_PLACEMENT_3D('',#565,#566,#567);
#565 = CARTESIAN_POINT('',(1.04,-1.26E-15,-1.154700538379));
#566 = DIRECTION('',(0.,-0.5,0.866025403784));
#567 = DIRECTION('',(0.,-0.866025403784,-0.5));
#568 = ADVANCED_FACE('',(#569),#587,.T.);
#569 = FACE_BOUND('',#570,.T.);
#570 = EDGE_LOOP('',(#571,#579,#585,#586));
#571 = ORIENTED_EDGE('',*,*,#572,.T.);
#572 = EDGE_CURVE('',#549,#573,#575,.T.);
#573 = VERTEX_POINT('',#574);
#574 = CARTESIAN_POINT('',(1.04,1.,0.57735026919));
#575 = LINE('',#576,#577);
#576 = CARTESIAN_POINT('',(1.04,1.,-0.57735026919));
#577 = VECTOR('',#578,1.);
#578 = DIRECTION('',(-0.,1.9E-16,1.));
#579 = ORIENTED_EDGE('',*,*,#580,.T.);
#580 = EDGE_CURVE('',#573,#468,#581,.T.);
#581 = LINE('',#582,#583);
#582 = CARTESIAN_POINT('',(1.04,1.,0.57735026919));
#583 = VECTOR('',#584,1.);
#584 = DIRECTION('',(-1.,-0.,-0.));
#585 = ORIENTED_EDGE('',*,*,#467,.T.);
#586 = ORIENTED_EDGE('',*,*,#556,.F.);
#587 = PLANE('',#588);
#588 = AXIS2_PLACEMENT_3D('',#589,#590,#591);
#589 = CARTESIAN_POINT('',(1.04,1.,-0.57735026919));
#590 = DIRECTION('',(0.,-1.,1.9E-16));
#591 = DIRECTION('',(0.,-1.9E-16,-1.));
#592 = ADVANCED_FACE('',(#593),#611,.T.);
#593 = FACE_BOUND('',#594,.T.);
#594 = EDGE_LOOP('',(#595,#603,#609,#610));
#595 = ORIENTED_EDGE('',*,*,#596,.T.);
#596 = EDGE_CURVE('',#573,#597,#599,.T.);
#597 = VERTEX_POINT('',#598);
#598 = CARTESIAN_POINT('',(1.04,1.E-15,1.154700538379));
#599 = LINE('',#600,#601);
#600 = CARTESIAN_POINT('',(1.04,1.,0.57735026919));
#601 = VECTOR('',#602,1.);
#602 = DIRECTION('',(-0.,-0.866025403784,0.5));
#603 = ORIENTED_EDGE('',*,*,#604,.T.);
#604 = EDGE_CURVE('',#597,#476,#605,.T.);
#605 = LINE('',#606,#607);
#606 = CARTESIAN_POINT('',(1.04,1.08E-15,1.154700538379));
#607 = VECTOR('',#608,1.);
#608 = DIRECTION('',(-1.,0.,-0.));
#609 = ORIENTED_EDGE('',*,*,#475,.T.);
#610 = ORIENTED_EDGE('',*,*,#580,.F.);
#611 = PLANE('',#612);
#612 = AXIS2_PLACEMENT_3D('',#613,#614,#615);
#613 = CARTESIAN_POINT('',(1.04,1.,0.57735026919));
#614 = DIRECTION('',(0.,-0.5,-0.866025403784));
#615 = DIRECTION('',(0.,0.866025403784,-0.5));
#616 = ADVANCED_FACE('',(#617),#635,.T.);
#617 = FACE_BOUND('',#618,.T.);
#618 = EDGE_LOOP('',(#619,#627,#633,#634));
#619 = ORIENTED_EDGE('',*,*,#620,.T.);
#620 = EDGE_CURVE('',#597,#621,#623,.T.);
#621 = VERTEX_POINT('',#622);
#622 = CARTESIAN_POINT('',(1.04,-1.,0.57735026919));
#623 = LINE('',#624,#625);
#624 = CARTESIAN_POINT('',(1.04,8.9E-16,1.154700538379));
#625 = VECTOR('',#626,1.);
#626 = DIRECTION('',(-0.,-0.866025403784,-0.5));
#627 = ORIENTED_EDGE('',*,*,#628,.T.);
#628 = EDGE_CURVE('',#621,#484,#629,.T.);
#629 = LINE('',#630,#631);
#630 = CARTESIAN_POINT('',(1.04,-1.,0.57735026919));
#631 = VECTOR('',#632,1.);
#632 = DIRECTION('',(-1.,0.,-0.));
#633 = ORIENTED_EDGE('',*,*,#483,.T.);
#634 = ORIENTED_EDGE('',*,*,#604,.F.);
#635 = PLANE('',#636);
#636 = AXIS2_PLACEMENT_3D('',#637,#638,#639);
#637 = CARTESIAN_POINT('',(1.04,8.9E-16,1.154700538379));
#638 = DIRECTION('',(0.,0.5,-0.866025403784));
#639 = DIRECTION('',(0.,0.866025403784,0.5));
#640 = ADVANCED_FACE('',(#641),#652,.T.);
#641 = FACE_BOUND('',#642,.T.);
#642 = EDGE_LOOP('',(#643,#649,#650,#651));
#643 = ORIENTED_EDGE('',*,*,#644,.T.);
#644 = EDGE_CURVE('',#621,#518,#645,.T.);
#645 = LINE('',#646,#647);
#646 = CARTESIAN_POINT('',(1.04,-1.,0.57735026919));
#647 = VECTOR('',#648,1.);
#648 = DIRECTION('',(-0.,0.,-1.));
#649 = ORIENTED_EDGE('',*,*,#534,.F.);
#650 = ORIENTED_EDGE('',*,*,#491,.T.);
#651 = ORIENTED_EDGE('',*,*,#628,.F.);
#652 = PLANE('',#653);
#653 = AXIS2_PLACEMENT_3D('',#654,#655,#656);
#654 = CARTESIAN_POINT('',(1.04,-1.,0.57735026919));
#655 = DIRECTION('',(0.,1.,0.));
#656 = DIRECTION('',(0.,-0.,1.));
#657 = ADVANCED_FACE('',(#658),#745,.F.);
#658 = FACE_BOUND('',#659,.F.);
#659 = EDGE_LOOP('',(#660,#661,#705));
#660 = ORIENTED_EDGE('',*,*,#517,.T.);
#661 = ORIENTED_EDGE('',*,*,#662,.T.);
#662 = EDGE_CURVE('',#520,#663,#665,.T.);
#663 = VERTEX_POINT('',#664);
#664 = CARTESIAN_POINT('',(1.542075782294,-2.199619955358E-02,
    -3.809853520022E-02));
#665 = B_SPLINE_CURVE_WITH_KNOTS('',3,(#666,#667,#668,#669,#670,#671,
    #672,#673,#674,#675,#676,#677,#678,#679,#680,#681,#682,#683,#684,
    #685,#686,#687,#688,#689,#690,#691,#692,#693,#694,#695,#696,#697,
    #698,#699,#700,#701,#702,#703,#704),.UNSPECIFIED.,.F.,.F.,(4,2,2,1,1
    ,1,2,2,2,1,1,1,2,2,2,1,1,2,2,2,1,2,2,4),(0.,0.25,0.375,0.4375,
    0.46875,0.484375,0.4921875,0.5,0.625,0.6875,0.71875,0.734375,
    0.7421875,0.75,0.8125,0.84375,0.859375,0.8671875,0.875,0.90625,
    0.921875,0.9296875,0.9375,1.),.UNSPECIFIED.);
#666 = CARTESIAN_POINT('',(1.04,-1.31E-15,-1.154700538379));
#667 = CARTESIAN_POINT('',(1.096064608883,-2.129399363157E-03,
    -1.032060740441));
#668 = CARTESIAN_POINT('',(1.145293394873,-4.065261315684E-03,
    -0.924391000255));
#669 = CARTESIAN_POINT('',(1.208882839519,-6.50114592864E-03,
    -0.785233541156));
#670 = CARTESIAN_POINT('',(1.228370365345,-7.238824544644E-03,
    -0.742574496373));
#671 = CARTESIAN_POINT('',(1.255038220498,-8.245033990111E-03,
    -0.68418284712));
#672 = CARTESIAN_POINT('',(1.267731289679,-8.72340863674E-03,
    -0.656386462885));
#673 = CARTESIAN_POINT('',(1.281418368196,-9.244332009234E-03,
    -0.626410074156));
#674 = CARTESIAN_POINT('',(1.287981531907,-9.49653414357E-03,
    -0.612035690682));
#675 = CARTESIAN_POINT('',(1.290734235879,-9.602968315455E-03,
    -0.606006842904));
#676 = CARTESIAN_POINT('',(1.292556020644,-9.673571006689E-03,
    -0.602016864384));
#677 = CARTESIAN_POINT('',(1.292624171953,-9.676134823763E-03,
    -0.601867593653));
#678 = CARTESIAN_POINT('',(1.322095484696,-1.082390248823E-02,
    -0.537321593592));
#679 = CARTESIAN_POINT('',(1.34654268786,-1.183862453004E-02,
    -0.483775100503));
#680 = CARTESIAN_POINT('',(1.378277738186,-1.31094944027E-02,
    -0.414166451854));
#681 = CARTESIAN_POINT('',(1.392911324745,-1.368690559782E-02,
    -0.38204280499));
#682 = CARTESIAN_POINT('',(1.407824449837,-1.427604361438E-02,
    -0.349266754226));
#683 = CARTESIAN_POINT('',(1.414741164244,-1.455537981966E-02,
    -0.334057695334));
#684 = CARTESIAN_POINT('',(1.417589788674,-1.467255215645E-02,
    -0.327792601089));
#685 = CARTESIAN_POINT('',(1.419463164573,-1.475019219394E-02,
    -0.323672165102));
#686 = CARTESIAN_POINT('',(1.419606390154,-1.475587630139E-02,
    -0.323357208348));
#687 = CARTESIAN_POINT('',(1.434830697783,-1.539748926486E-02,
    -0.289868112965));
#688 = CARTESIAN_POINT('',(1.446853182974,-1.595841219854E-02,
    -0.263387401276));
#689 = CARTESIAN_POINT('',(1.462621561709,-1.66733045509E-02,
    -0.228529088294));
#690 = CARTESIAN_POINT('',(1.469939413814,-1.700260349349E-02,
    -0.212317732801));
#691 = CARTESIAN_POINT('',(1.477485817726,-1.734965498549E-02,
    -0.195543006529));
#692 = CARTESIAN_POINT('',(1.480507614358,-1.749407844747E-02,
    -0.188814307192));
#693 = CARTESIAN_POINT('',(1.482474950674,-1.758987054751E-02,
    -0.184431118642));
#694 = CARTESIAN_POINT('',(1.482767177993,-1.760352415086E-02,
    -0.183780467149));
#695 = CARTESIAN_POINT('',(1.490788762188,-1.801179968414E-02,
    -0.16588812994));
#696 = CARTESIAN_POINT('',(1.496579671817,-1.834383254551E-02,
    -0.152907022919));
#697 = CARTESIAN_POINT('',(1.504326499667,-1.878945530637E-02,
    -0.135397710951));
#698 = CARTESIAN_POINT('',(1.507965029444,-1.900095776204E-02,
    -0.127134734641));
#699 = CARTESIAN_POINT('',(1.511251233,-1.920039888546E-02,
    -0.119612257005));
#700 = CARTESIAN_POINT('',(1.513363740654,-1.933234757863E-02,
    -0.114762841027));
#701 = CARTESIAN_POINT('',(1.513746048091,-1.935500309897E-02,
    -0.113886945746));
#702 = CARTESIAN_POINT('',(1.528260871379,-2.033278560094E-02,
    -8.036518690503E-02));
#703 = CARTESIAN_POINT('',(1.537798936957,-2.152098320492E-02,
    -5.684902736204E-02));
#704 = CARTESIAN_POINT('',(1.542075782294,-2.199619955358E-02,
    -3.809853520022E-02));
#705 = ORIENTED_EDGE('',*,*,#706,.T.);
#706 = EDGE_CURVE('',#663,#518,#707,.T.);
#707 = B_SPLINE_CURVE_WITH_KNOTS('',3,(#708,#709,#710,#711,#712,#713,
    #714,#715,#716,#717,#718,#719,#720,#721,#722,#723,#724,#725,#726,
    #727,#728,#729,#730,#731,#732,#733,#734,#735,#736,#737,#738,#739,
    #740,#741,#742,#743,#744),.UNSPECIFIED.,.F.,.F.,(4,2,2,2,2,2,1,2,2,2
    ,1,1,2,2,2,2,1,1,2,2,4),(0.,3.125E-02,4.6875E-02,5.46875E-02,
    6.25E-02,9.375000000001E-02,0.109375,0.1171875,0.125,0.1875,0.21875,
    0.234375,0.2421875,0.25,0.375,0.4375,0.46875,0.484375,0.4921875,0.5,
    1.),.UNSPECIFIED.);
#708 = CARTESIAN_POINT('',(1.542075782294,-2.199619955358E-02,
    -3.809853520022E-02));
#709 = CARTESIAN_POINT('',(1.540883441264,-3.062258759054E-02,
    -4.269022394388E-02));
#710 = CARTESIAN_POINT('',(1.536954144017,-3.979788758637E-02,
    -4.774572221966E-02));
#711 = CARTESIAN_POINT('',(1.529800594833,-5.55236767393E-02,
    -5.606021130053E-02));
#712 = CARTESIAN_POINT('',(1.527206144553,-6.109300844961E-02,
    -5.896523464008E-02));
#713 = CARTESIAN_POINT('',(1.522999568305,-6.993967178972E-02,
    -6.359253527166E-02));
#714 = CARTESIAN_POINT('',(1.521544892751,-7.29706869155E-02,
    -6.518065808806E-02));
#715 = CARTESIAN_POINT('',(1.518530574699,-7.919742892241E-02,
    -6.846860148422E-02));
#716 = CARTESIAN_POINT('',(1.51634029237,-8.367560832492E-02,
    -7.086032793341E-02));
#717 = CARTESIAN_POINT('',(1.511432861693,-9.365522983782E-02,
    -7.624451064924E-02));
#718 = CARTESIAN_POINT('',(1.506887613472,-0.102776270885,
    -8.120638893084E-02));
#719 = CARTESIAN_POINT('',(1.499140785622,-0.118162547412,
    -8.957317620313E-02));
#720 = CARTESIAN_POINT('',(1.495035132817,-0.126281911655,
    -9.398966242393E-02));
#721 = CARTESIAN_POINT('',(1.490581121692,-0.1350407981,
    -9.876393331776E-02));
#722 = CARTESIAN_POINT('',(1.487534367982,-0.14102222166,-0.10202850595)
  );
#723 = CARTESIAN_POINT('',(1.485309815805,-0.145380532488,
    -0.104411420168));
#724 = CARTESIAN_POINT('',(1.476864927052,-0.161908019475,
    -0.113459967905));
#725 = CARTESIAN_POINT('',(1.467855516916,-0.179436369965,
    -0.123125960349));
#726 = CARTESIAN_POINT('',(1.452087138181,-0.209981970067,
    -0.139934639349));
#727 = CARTESIAN_POINT('',(1.44363938293,-0.226318130108,-0.148920464608
    ));
#728 = CARTESIAN_POINT('',(1.432797428176,-0.247238215909,
    -0.160437195531));
#729 = CARTESIAN_POINT('',(1.427939538932,-0.256602901893,
    -0.165598771199));
#730 = CARTESIAN_POINT('',(1.424653982279,-0.262934690799,
    -0.169090572038));
#731 = CARTESIAN_POINT('',(1.422209906433,-0.267643047019,
    -0.171689010889));
#732 = CARTESIAN_POINT('',(1.406707155219,-0.29750247408,-0.188175457108
    ));
#733 = CARTESIAN_POINT('',(1.388833392775,-0.331861384029,
    -0.207226914989));
#734 = CARTESIAN_POINT('',(1.357098342448,-0.392779658924,-0.24092982934
    ));
#735 = CARTESIAN_POINT('',(1.345699257896,-0.414649152703,
    -0.253022148242));
#736 = CARTESIAN_POINT('',(1.327369529403,-0.449798754737,
    -0.272459123993));
#737 = CARTESIAN_POINT('',(1.31789688974,-0.467959903955,-0.28250258555)
  );
#738 = CARTESIAN_POINT('',(1.306306869822,-0.490174160194,
    -0.294794861538));
#739 = CARTESIAN_POINT('',(1.301224302647,-0.499914486429,
    -0.300187073497));
#740 = CARTESIAN_POINT('',(1.297810276579,-0.506456913134,
    -0.303809564203));
#741 = CARTESIAN_POINT('',(1.29525569792,-0.511352079745,-0.306520614892
    ));
#742 = CARTESIAN_POINT('',(1.236890941104,-0.623189464806,
    -0.368466855483));
#743 = CARTESIAN_POINT('',(1.152105014909,-0.785498549262,
    -0.458424374585));
#744 = CARTESIAN_POINT('',(1.04,-1.,-0.57735026919));
#745 = B_SPLINE_SURFACE_WITH_KNOTS('',3,3,(
    (#746,#747,#748,#749,#750,#751,#752)
    ,(#753,#754,#755,#756,#757,#758,#759)
    ,(#760,#761,#762,#763,#764,#765,#766)
    ,(#767,#768,#769,#770,#771,#772,#773)
    ,(#774,#775,#776,#777,#778,#779,#780)
    ,(#781,#782,#783,#784,#785,#786,#787
    )),.UNSPECIFIED.,.F.,.F.,.F.,(4,2,4),(4,3,4),(0.,0.5,1.),(0.,1.,1.01
    ),.UNSPECIFIED.);
#746 = CARTESIAN_POINT('',(1.04,-1.,-0.57735026919));
#747 = CARTESIAN_POINT('',(1.206666666667,-0.681100423396,
    -0.393233512793));
#748 = CARTESIAN_POINT('',(1.373333333333,-0.362200846793,
    -0.209116756397));
#749 = CARTESIAN_POINT('',(1.54,-4.330127018922E-02,-2.5E-02));
#750 = CARTESIAN_POINT('',(1.541666666667,-4.011227442319E-02,
    -2.315883243603E-02));
#751 = CARTESIAN_POINT('',(1.543333333333,-3.692327865715E-02,
    -2.131766487207E-02));
#752 = CARTESIAN_POINT('',(1.545,-3.373428289111E-02,-1.94764973081E-02)
  );
#753 = CARTESIAN_POINT('',(1.04,-0.833333333333,-0.673575314055));
#754 = CARTESIAN_POINT('',(1.206666666667,-0.568600423396,
    -0.459789168825));
#755 = CARTESIAN_POINT('',(1.373333333333,-0.303867513459,
    -0.246003023595));
#756 = CARTESIAN_POINT('',(1.54,-3.913460352256E-02,-3.221687836487E-02)
  );
#757 = CARTESIAN_POINT('',(1.541666666667,-3.648727442319E-02,
    -3.007901691257E-02));
#758 = CARTESIAN_POINT('',(1.543333333333,-3.383994532382E-02,
    -2.794115546027E-02));
#759 = CARTESIAN_POINT('',(1.545,-3.119261622445E-02,-2.580329400797E-02
    ));
#760 = CARTESIAN_POINT('',(1.04,-0.666666666667,-0.76980035892));
#761 = CARTESIAN_POINT('',(1.206666666667,-0.455269761992,
    -0.526022532068));
#762 = CARTESIAN_POINT('',(1.373333333333,-0.243872857317,
    -0.282244705216));
#763 = CARTESIAN_POINT('',(1.54,-3.247595264192E-02,-3.846687836487E-02)
  );
#764 = CARTESIAN_POINT('',(1.541666666667,-3.036198359517E-02,
    -3.602910009635E-02));
#765 = CARTESIAN_POINT('',(1.543333333333,-2.824801454842E-02,
    -3.359132182784E-02));
#766 = CARTESIAN_POINT('',(1.545,-2.613404550167E-02,-3.115354355932E-02
    ));
#767 = CARTESIAN_POINT('',(1.04,-0.333333333333,-0.962250448649));
#768 = CARTESIAN_POINT('',(1.206666666667,-0.227913994738,
    -0.657286445494));
#769 = CARTESIAN_POINT('',(1.373333333333,-0.122494656143,
    -0.352322442338));
#770 = CARTESIAN_POINT('',(1.54,-1.707531754731E-02,-4.735843918244E-02)
  );
#771 = CARTESIAN_POINT('',(1.541666666667,-1.602112416135E-02,
    -4.430879915088E-02));
#772 = CARTESIAN_POINT('',(1.543333333333,-1.49669307754E-02,
    -4.125915911932E-02));
#773 = CARTESIAN_POINT('',(1.545,-1.391273738945E-02,-3.820951908777E-02
    ));
#774 = CARTESIAN_POINT('',(1.04,-0.166666666667,-1.058475493514));
#775 = CARTESIAN_POINT('',(1.206666666667,-0.113888888889,
    -0.722316995676));
#776 = CARTESIAN_POINT('',(1.373333333333,-6.111111111111E-02,
    -0.386158497838));
#777 = CARTESIAN_POINT('',(1.54,-8.333333333333E-03,-5.E-02));
#778 = CARTESIAN_POINT('',(1.541666666667,-7.805555555556E-03,
    -4.663841502162E-02));
#779 = CARTESIAN_POINT('',(1.543333333333,-7.277777777778E-03,
    -4.327683004324E-02));
#780 = CARTESIAN_POINT('',(1.545,-6.75E-03,-3.991524506486E-02));
#781 = CARTESIAN_POINT('',(1.04,-1.3E-15,-1.154700538379));
#782 = CARTESIAN_POINT('',(1.206666666667,-9.E-16,-0.786467025586));
#783 = CARTESIAN_POINT('',(1.373333333333,-4.9E-16,-0.418233512793));
#784 = CARTESIAN_POINT('',(1.54,-9.E-17,-5.E-02));
#785 = CARTESIAN_POINT('',(1.541666666667,-8.E-17,-4.631766487207E-02));
#786 = CARTESIAN_POINT('',(1.543333333333,-8.E-17,-4.263532974414E-02));
#787 = CARTESIAN_POINT('',(1.545,-8.E-17,-3.895299461621E-02));
#788 = ADVANCED_FACE('',(#789),#853,.F.);
#789 = FACE_BOUND('',#790,.F.);
#790 = EDGE_LOOP('',(#791,#792,#837,#852));
#791 = ORIENTED_EDGE('',*,*,#548,.T.);
#792 = ORIENTED_EDGE('',*,*,#793,.T.);
#793 = EDGE_CURVE('',#549,#794,#796,.T.);
#794 = VERTEX_POINT('',#795);
#795 = CARTESIAN_POINT('',(1.542075782294,4.399239910715E-02,0.));
#796 = B_SPLINE_CURVE_WITH_KNOTS('',3,(#797,#798,#799,#800,#801,#802,
    #803,#804,#805,#806,#807,#808,#809,#810,#811,#812,#813,#814,#815,
    #816,#817,#818,#819,#820,#821,#822,#823,#824,#825,#826,#827,#828,
    #829,#830,#831,#832,#833,#834,#835,#836),.UNSPECIFIED.,.F.,.F.,(4,2,
    2,1,1,1,2,2,2,2,1,1,2,2,2,1,1,2,2,2,1,2,2,4),(0.,0.25,0.375,0.4375,
    0.46875,0.484375,0.4921875,0.5,0.625,0.6875,0.71875,0.734375,
    0.7421875,0.75,0.8125,0.84375,0.859375,0.8671875,0.875,0.90625,
    0.921875,0.9296875,0.9375,1.),.UNSPECIFIED.);
#797 = CARTESIAN_POINT('',(1.04,1.,-0.57735026919));
#798 = CARTESIAN_POINT('',(1.09470696881,0.895323824855,-0.514180102851)
  );
#799 = CARTESIAN_POINT('',(1.142902467644,0.803126688056,-0.458468975705
    ));
#800 = CARTESIAN_POINT('',(1.205428510928,0.683553260622,-0.386300725451
    ));
#801 = CARTESIAN_POINT('',(1.224642657862,0.646815724042,-0.364139991515
    ));
#802 = CARTESIAN_POINT('',(1.251022077022,0.596389346901,-0.333728650222
    ));
#803 = CARTESIAN_POINT('',(1.263601336292,0.572346130554,-0.319230008152
    ));
#804 = CARTESIAN_POINT('',(1.27720885073,0.546342956673,-0.303544980844)
  );
#805 = CARTESIAN_POINT('',(1.283745535938,0.533853147877,-0.296008751556
    ));
#806 = CARTESIAN_POINT('',(1.286489742739,0.528610035704,-0.292844431958
    ));
#807 = CARTESIAN_POINT('',(1.288306496225,0.525138996717,-0.290749423183
    ));
#808 = CARTESIAN_POINT('',(1.288414912321,0.524931832703,-0.290624458844
    ));
#809 = CARTESIAN_POINT('',(1.317132346229,0.470067367191,-0.257504271499
    ));
#810 = CARTESIAN_POINT('',(1.341089078435,0.424331039572,-0.229837361158
    ));
#811 = CARTESIAN_POINT('',(1.372417015417,0.36457819726,-0.193756278728)
  );
#812 = CARTESIAN_POINT('',(1.382091800857,0.346135766706,-0.18262904058)
  );
#813 = CARTESIAN_POINT('',(1.395452188685,0.320684151574,-0.167277289362
    ));
#814 = CARTESIAN_POINT('',(1.401844435016,0.308511343577,-0.159935869686
    ));
#815 = CARTESIAN_POINT('',(1.408798147465,0.295277237116,-0.151950480052
    ));
#816 = CARTESIAN_POINT('',(1.4116703296,0.289812767693,-0.148651543794)
  );
#817 = CARTESIAN_POINT('',(1.413561122058,0.286215848993,-0.146479571656
    ));
#818 = CARTESIAN_POINT('',(1.413756468392,0.285844112157,-0.146255290644
    ));
#819 = CARTESIAN_POINT('',(1.428691542474,0.257439281039,-0.129094418787
    ));
#820 = CARTESIAN_POINT('',(1.440579578245,0.234872854254,-0.115423365242
    ));
#821 = CARTESIAN_POINT('',(1.456330253447,0.205041479064,
    -9.73910277514E-02));
#822 = CARTESIAN_POINT('',(1.463685246434,0.191130246858,
    -8.89901154531E-02));
#823 = CARTESIAN_POINT('',(1.471355468513,0.176656007857,
    -8.025271964201E-02));
#824 = CARTESIAN_POINT('',(1.474447577316,0.17082863739,
    -7.673243608597E-02));
#825 = CARTESIAN_POINT('',(1.476465621134,0.16702721537,
    -7.443496684156E-02));
#826 = CARTESIAN_POINT('',(1.476795317595,0.166405846046,
    -7.405979386125E-02));
#827 = CARTESIAN_POINT('',(1.484911838997,0.15113167706,
    -6.481747382519E-02));
#828 = CARTESIAN_POINT('',(1.490812147038,0.140069101779,
    -5.81055863408E-02));
#829 = CARTESIAN_POINT('',(1.498773245478,0.12519953889,
    -4.9101160452E-02));
#830 = CARTESIAN_POINT('',(1.502531453793,0.118195752079,
    -4.486320180693E-02));
#831 = CARTESIAN_POINT('',(1.50595615075,0.111835723942,
    -4.101484320304E-02));
#832 = CARTESIAN_POINT('',(1.50816516842,0.107738412965,
    -3.853410838412E-02));
#833 = CARTESIAN_POINT('',(1.508323609977,0.107442689368,
    -3.83564379945E-02));
#834 = CARTESIAN_POINT('',(1.525778260914,7.515337879011E-02,
    -1.87660868231E-02));
#835 = CARTESIAN_POINT('',(1.53654900007,5.611126718879E-02,
    -6.922838682151E-03));
#836 = CARTESIAN_POINT('',(1.542075782294,4.399239910715E-02,3.6E-16));
#837 = ORIENTED_EDGE('',*,*,#838,.T.);
#838 = EDGE_CURVE('',#794,#663,#839,.T.);
#839 = B_SPLINE_CURVE_WITH_KNOTS('',3,(#840,#841,#842,#843,#844,#845,
    #846,#847,#848,#849,#850,#851),.UNSPECIFIED.,.F.,.F.,(4,2,2,2,2,4),(
    0.,0.25,0.5,0.625,0.75,1.),.UNSPECIFIED.);
#840 = CARTESIAN_POINT('',(1.542075782294,4.399239910715E-02,3.6E-16));
#841 = CARTESIAN_POINT('',(1.54,4.835615575886E-02,-8.976710224668E-03)
  );
#842 = CARTESIAN_POINT('',(1.54,4.690056743883E-02,-1.957758866862E-02)
  );
#843 = CARTESIAN_POINT('',(1.54,3.796106873875E-02,-3.329651100158E-02)
  );
#844 = CARTESIAN_POINT('',(1.54,3.270835927561E-02,-3.843113948637E-02)
  );
#845 = CARTESIAN_POINT('',(1.54,2.080927300432E-02,-4.515341841766E-02)
  );
#846 = CARTESIAN_POINT('',(1.54,1.690143467737E-02,-4.686146761553E-02)
  );
#847 = CARTESIAN_POINT('',(1.54,9.202805550426E-03,-4.92121451195E-02));
#848 = CARTESIAN_POINT('',(1.54,6.90671491817E-03,-4.981075346602E-02));
#849 = CARTESIAN_POINT('',(1.54,-8.774186694585E-03,-5.027256692537E-02)
  );
#850 = CARTESIAN_POINT('',(1.54,-1.65509809641E-02,-4.61176698301E-02));
#851 = CARTESIAN_POINT('',(1.542075782294,-2.199619955358E-02,
    -3.809853520022E-02));
#852 = ORIENTED_EDGE('',*,*,#662,.F.);
#853 = B_SPLINE_SURFACE_WITH_KNOTS('',3,3,(
    (#854,#855,#856,#857,#858,#859,#860)
    ,(#861,#862,#863,#864,#865,#866,#867)
    ,(#868,#869,#870,#871,#872,#873,#874)
    ,(#875,#876,#877,#878,#879,#880,#881)
    ,(#882,#883,#884,#885,#886,#887,#888)
    ,(#889,#890,#891,#892,#893,#894,#895)
    ,(#896,#897,#898,#899,#900,#901,#902)
    ,(#903,#904,#905,#906,#907,#908,#909)
    ,(#910,#911,#912,#913,#914,#915,#916)
    ,(#917,#918,#919,#920,#921,#922,#923)
    ,(#924,#925,#926,#927,#928,#929,#930)
    ,(#931,#932,#933,#934,#935,#936,#937
    )),.UNSPECIFIED.,.F.,.F.,.F.,(4,3,2,3,4),(4,3,4),(-0.54428799605,0.,
    0.5,1.,1.54428799605),(0.,1.,1.01),.UNSPECIFIED.);
#854 = CARTESIAN_POINT('',(1.04,-0.54428799605,-1.468945359415));
#855 = CARTESIAN_POINT('',(1.206666666667,-0.371930130634,
    -0.995963572943));
#856 = CARTESIAN_POINT('',(1.373333333333,-0.199572265218,
    -0.522981786472));
#857 = CARTESIAN_POINT('',(1.54,-2.721439980248E-02,-5.E-02));
#858 = CARTESIAN_POINT('',(1.541666666667,-2.549082114833E-02,
    -4.527018213528E-02));
#859 = CARTESIAN_POINT('',(1.543333333333,-2.376724249417E-02,
    -4.054036427057E-02));
#860 = CARTESIAN_POINT('',(1.545,-2.204366384001E-02,-3.581054640585E-02
    ));
#861 = CARTESIAN_POINT('',(1.04,-0.362858664033,-1.364197085737));
#862 = CARTESIAN_POINT('',(1.206666666667,-0.247953420423,
    -0.926131390491));
#863 = CARTESIAN_POINT('',(1.373333333333,-0.133048176812,
    -0.488065695246));
#864 = CARTESIAN_POINT('',(1.54,-1.814293320165E-02,-5.E-02));
#865 = CARTESIAN_POINT('',(1.541666666667,-1.699388076555E-02,
    -4.561934304754E-02));
#866 = CARTESIAN_POINT('',(1.543333333333,-1.584482832945E-02,
    -4.123868609509E-02));
#867 = CARTESIAN_POINT('',(1.545,-1.469577589334E-02,-3.685802914263E-02
    ));
#868 = CARTESIAN_POINT('',(1.04,-0.181429332017,-1.259448812058));
#869 = CARTESIAN_POINT('',(1.206666666667,-0.123976710211,
    -0.856299208039));
#870 = CARTESIAN_POINT('',(1.373333333333,-6.652408840607E-02,
    -0.453149604019));
#871 = CARTESIAN_POINT('',(1.54,-9.071466600827E-03,-5.E-02));
#872 = CARTESIAN_POINT('',(1.541666666667,-8.496940382775E-03,
    -4.596850395981E-02));
#873 = CARTESIAN_POINT('',(1.543333333333,-7.922414164723E-03,
    -4.193700791961E-02));
#874 = CARTESIAN_POINT('',(1.545,-7.34788794667E-03,-3.790551187942E-02)
  );
#875 = CARTESIAN_POINT('',(1.04,-1.26E-15,-1.154700538379));
#876 = CARTESIAN_POINT('',(1.206666666667,-8.4E-16,-0.786467025586));
#877 = CARTESIAN_POINT('',(1.373333333333,-4.2E-16,-0.418233512793));
#878 = CARTESIAN_POINT('',(1.54,0.,-5.E-02));
#879 = CARTESIAN_POINT('',(1.541666666667,0.,-4.631766487207E-02));
#880 = CARTESIAN_POINT('',(1.543333333333,1.E-17,-4.263532974414E-02));
#881 = CARTESIAN_POINT('',(1.545,1.E-17,-3.895299461621E-02));
#882 = CARTESIAN_POINT('',(1.04,0.166666666667,-1.058475493514));
#883 = CARTESIAN_POINT('',(1.206666666667,0.113888888889,-0.722316995676
    ));
#884 = CARTESIAN_POINT('',(1.373333333333,6.111111111111E-02,
    -0.386158497838));
#885 = CARTESIAN_POINT('',(1.54,8.333333333333E-03,-5.E-02));
#886 = CARTESIAN_POINT('',(1.541666666667,7.805555555556E-03,
    -4.663841502162E-02));
#887 = CARTESIAN_POINT('',(1.543333333333,7.277777777778E-03,
    -4.327683004324E-02));
#888 = CARTESIAN_POINT('',(1.545,6.75E-03,-3.991524506486E-02));
#889 = CARTESIAN_POINT('',(1.04,0.333333333333,-0.962250448649));
#890 = CARTESIAN_POINT('',(1.206666666667,0.227913994738,-0.657286445494
    ));
#891 = CARTESIAN_POINT('',(1.373333333333,0.122494656143,-0.352322442338
    ));
#892 = CARTESIAN_POINT('',(1.54,1.707531754731E-02,-4.735843918244E-02)
  );
#893 = CARTESIAN_POINT('',(1.541666666667,1.602112416135E-02,
    -4.430879915088E-02));
#894 = CARTESIAN_POINT('',(1.543333333333,1.49669307754E-02,
    -4.125915911932E-02));
#895 = CARTESIAN_POINT('',(1.545,1.391273738945E-02,-3.820951908777E-02)
  );
#896 = CARTESIAN_POINT('',(1.04,0.666666666667,-0.76980035892));
#897 = CARTESIAN_POINT('',(1.206666666667,0.455269761992,-0.526022532068
    ));
#898 = CARTESIAN_POINT('',(1.373333333333,0.243872857317,-0.282244705216
    ));
#899 = CARTESIAN_POINT('',(1.54,3.247595264192E-02,-3.846687836487E-02)
  );
#900 = CARTESIAN_POINT('',(1.541666666667,3.036198359517E-02,
    -3.602910009635E-02));
#901 = CARTESIAN_POINT('',(1.543333333333,2.824801454842E-02,
    -3.359132182784E-02));
#902 = CARTESIAN_POINT('',(1.545,2.613404550167E-02,-3.115354355932E-02)
  );
#903 = CARTESIAN_POINT('',(1.04,0.833333333333,-0.673575314055));
#904 = CARTESIAN_POINT('',(1.206666666667,0.568600423396,-0.459789168825
    ));
#905 = CARTESIAN_POINT('',(1.373333333333,0.303867513459,-0.246003023595
    ));
#906 = CARTESIAN_POINT('',(1.54,3.913460352256E-02,-3.221687836487E-02)
  );
#907 = CARTESIAN_POINT('',(1.541666666667,3.648727442319E-02,
    -3.007901691257E-02));
#908 = CARTESIAN_POINT('',(1.543333333333,3.383994532382E-02,
    -2.794115546027E-02));
#909 = CARTESIAN_POINT('',(1.545,3.119261622445E-02,-2.580329400797E-02)
  );
#910 = CARTESIAN_POINT('',(1.04,1.,-0.57735026919));
#911 = CARTESIAN_POINT('',(1.206666666667,0.681100423396,-0.393233512793
    ));
#912 = CARTESIAN_POINT('',(1.373333333333,0.362200846793,-0.209116756397
    ));
#913 = CARTESIAN_POINT('',(1.54,4.330127018922E-02,-2.5E-02));
#914 = CARTESIAN_POINT('',(1.541666666667,4.011227442319E-02,
    -2.315883243603E-02));
#915 = CARTESIAN_POINT('',(1.543333333333,3.692327865715E-02,
    -2.131766487207E-02));
#916 = CARTESIAN_POINT('',(1.545,3.373428289111E-02,-1.94764973081E-02)
  );
#917 = CARTESIAN_POINT('',(1.04,1.181429332017,-0.472601995511));
#918 = CARTESIAN_POINT('',(1.206666666667,0.803565222508,-0.320782623499
    ));
#919 = CARTESIAN_POINT('',(1.373333333333,0.425701112999,-0.168963251486
    ));
#920 = CARTESIAN_POINT('',(1.54,4.783700348964E-02,-1.71438794741E-02));
#921 = CARTESIAN_POINT('',(1.541666666667,4.405836239455E-02,
    -1.562568575398E-02));
#922 = CARTESIAN_POINT('',(1.543333333333,4.027972129946E-02,
    -1.410749203386E-02));
#923 = CARTESIAN_POINT('',(1.545,3.650108020437E-02,-1.258929831373E-02)
  );
#924 = CARTESIAN_POINT('',(1.04,1.362858664033,-0.367853721832));
#925 = CARTESIAN_POINT('',(1.206666666667,0.926030021619,-0.248331734204
    ));
#926 = CARTESIAN_POINT('',(1.373333333333,0.489201379204,-0.128809746576
    ));
#927 = CARTESIAN_POINT('',(1.54,5.237273679005E-02,-9.287758948203E-03)
  );
#928 = CARTESIAN_POINT('',(1.541666666667,4.800445036591E-02,
    -8.092539071922E-03));
#929 = CARTESIAN_POINT('',(1.543333333333,4.363616394176E-02,
    -6.897319195642E-03));
#930 = CARTESIAN_POINT('',(1.545,3.926787751762E-02,-5.702099319361E-03)
  );
#931 = CARTESIAN_POINT('',(1.04,1.54428799605,-0.263105448154));
#932 = CARTESIAN_POINT('',(1.206666666667,1.04849482073,-0.17588084491)
  );
#933 = CARTESIAN_POINT('',(1.373333333333,0.55270164541,
    -8.86562416661E-02));
#934 = CARTESIAN_POINT('',(1.54,5.690847009046E-02,-1.431638422304E-03)
  );
#935 = CARTESIAN_POINT('',(1.541666666667,5.195053833727E-02,
    -5.593923898661E-04));
#936 = CARTESIAN_POINT('',(1.543333333333,4.699260658407E-02,
    3.128536425718E-04));
#937 = CARTESIAN_POINT('',(1.545,4.203467483087E-02,1.18509967501E-03));
#938 = ADVANCED_FACE('',(#939),#985,.F.);
#939 = FACE_BOUND('',#940,.F.);
#940 = EDGE_LOOP('',(#941,#942,#984));
#941 = ORIENTED_EDGE('',*,*,#572,.T.);
#942 = ORIENTED_EDGE('',*,*,#943,.T.);
#943 = EDGE_CURVE('',#573,#794,#944,.T.);
#944 = B_SPLINE_CURVE_WITH_KNOTS('',3,(#945,#946,#947,#948,#949,#950,
    #951,#952,#953,#954,#955,#956,#957,#958,#959,#960,#961,#962,#963,
    #964,#965,#966,#967,#968,#969,#970,#971,#972,#973,#974,#975,#976,
    #977,#978,#979,#980,#981,#982,#983),.UNSPECIFIED.,.F.,.F.,(4,2,2,1,1
    ,1,2,2,2,1,1,1,2,2,2,1,1,2,2,2,1,2,2,4),(0.,0.25,0.375,0.4375,
    0.46875,0.484375,0.4921875,0.5,0.625,0.6875,0.71875,0.734375,
    0.7421875,0.75,0.8125,0.84375,0.859375,0.8671875,0.875,0.90625,
    0.921875,0.9296875,0.9375,1.),.UNSPECIFIED.);
#945 = CARTESIAN_POINT('',(1.04,1.,0.57735026919));
#946 = CARTESIAN_POINT('',(1.09606460888,0.894855519157,0.51418625628));
#947 = CARTESIAN_POINT('',(1.145293394869,0.802578719917,0.45867488056)
  );
#948 = CARTESIAN_POINT('',(1.208882839515,0.683282767517,0.386986613055)
  );
#949 = CARTESIAN_POINT('',(1.228370365341,0.646707790341,0.365018242241)
  );
#950 = CARTESIAN_POINT('',(1.255038220495,0.59664224344,0.334951014672)
  );
#951 = CARTESIAN_POINT('',(1.267731289677,0.572809055881,0.320638537958)
  );
#952 = CARTESIAN_POINT('',(1.281418368195,0.547109203412,0.305199210718)
  );
#953 = CARTESIAN_POINT('',(1.287981531906,0.534786723227,0.297793605526)
  );
#954 = CARTESIAN_POINT('',(1.290734235879,0.529618804981,0.29468700694)
  );
#955 = CARTESIAN_POINT('',(1.292556020644,0.526198683567,0.292630873955)
  );
#956 = CARTESIAN_POINT('',(1.292624171953,0.52607069323,0.292554018258)
  );
#957 = CARTESIAN_POINT('',(1.322095484695,0.470746101298,0.259287022274)
  );
#958 = CARTESIAN_POINT('',(1.346542687859,0.424880839021,0.231635000664)
  );
#959 = CARTESIAN_POINT('',(1.378277738185,0.365233415904,0.195730070745)
  );
#960 = CARTESIAN_POINT('',(1.392911324744,0.337702227255,0.179168194549)
  );
#961 = CARTESIAN_POINT('',(1.407824449837,0.309611903665,0.162269960678)
  );
#962 = CARTESIAN_POINT('',(1.414741164244,0.2965801404,0.154423518982));
#963 = CARTESIAN_POINT('',(1.417589788674,0.291212995794,0.151189497639)
  );
#964 = CARTESIAN_POINT('',(1.419463164573,0.287683413573,0.1490620414));
#965 = CARTESIAN_POINT('',(1.419606390154,0.287413495077,0.148899640442)
  );
#966 = CARTESIAN_POINT('',(1.434830697783,0.258731894207,0.131599439625)
  );
#967 = CARTESIAN_POINT('',(1.446853182974,0.236079386641,0.11787331027)
  );
#968 = CARTESIAN_POINT('',(1.462621561709,0.206248648242,
    9.982503884095E-02));
#969 = CARTESIAN_POINT('',(1.469939413814,0.192373852026,
    9.143417984444E-02));
#970 = CARTESIAN_POINT('',(1.477485817726,0.178020038679,
    8.274626130032E-02));
#971 = CARTESIAN_POINT('',(1.480507614358,0.17226502585,
    7.925683724443E-02));
#972 = CARTESIAN_POINT('',(1.482474950674,0.168516969266,
    7.698228457744E-02));
#973 = CARTESIAN_POINT('',(1.482767177993,0.167960315346,
    7.664513446388E-02));
#974 = CARTESIAN_POINT('',(1.490788762188,0.152669234556,
    6.734538887556E-02));
#975 = CARTESIAN_POINT('',(1.496579671817,0.141593282537,
    6.05672864721E-02));
#976 = CARTESIAN_POINT('',(1.504326499667,0.126652584951,
    5.142670985671E-02));
#977 = CARTESIAN_POINT('',(1.507965029444,0.119602388784,
    4.711205520259E-02));
#978 = CARTESIAN_POINT('',(1.511251233,0.113187452613,4.317809530514E-02
    ));
#979 = CARTESIAN_POINT('',(1.513363740654,0.109053709529,
    4.063911639563E-02));
#980 = CARTESIAN_POINT('',(1.513746048091,0.108306489725,
    4.0181548499E-02));
#981 = CARTESIAN_POINT('',(1.528260871379,7.976468624012E-02,
    2.257388459244E-02));
#982 = CARTESIAN_POINT('',(1.537798936957,5.999319347846E-02,
    9.786795511167E-03));
#983 = CARTESIAN_POINT('',(1.542075782294,4.399239910715E-02,3.6E-16));
#984 = ORIENTED_EDGE('',*,*,#793,.F.);
#985 = B_SPLINE_SURFACE_WITH_KNOTS('',3,3,(
    (#986,#987,#988,#989,#990,#991,#992)
    ,(#993,#994,#995,#996,#997,#998,#999)
    ,(#1000,#1001,#1002,#1003,#1004,#1005,#1006)
    ,(#1007,#1008,#1009,#1010,#1011,#1012,#1013)
    ,(#1014,#1015,#1016,#1017,#1018,#1019,#1020)
    ,(#1021,#1022,#1023,#1024,#1025,#1026,#1027
  )),.UNSPECIFIED.,.F.,.F.,.F.,(4,2,4),(4,3,4),(0.,0.5,1.),(0.,1.,1.01),
  .UNSPECIFIED.);
#986 = CARTESIAN_POINT('',(1.04,1.,-0.57735026919));
#987 = CARTESIAN_POINT('',(1.206666666667,0.681100423396,-0.393233512793
    ));
#988 = CARTESIAN_POINT('',(1.373333333333,0.362200846793,-0.209116756397
    ));
#989 = CARTESIAN_POINT('',(1.54,4.330127018922E-02,-2.5E-02));
#990 = CARTESIAN_POINT('',(1.541666666667,4.011227442319E-02,
    -2.315883243603E-02));
#991 = CARTESIAN_POINT('',(1.543333333333,3.692327865715E-02,
    -2.131766487207E-02));
#992 = CARTESIAN_POINT('',(1.545,3.373428289111E-02,-1.94764973081E-02)
  );
#993 = CARTESIAN_POINT('',(1.04,1.,-0.38490017946));
#994 = CARTESIAN_POINT('',(1.206666666667,0.682489312285,-0.262527826852
    ));
#995 = CARTESIAN_POINT('',(1.373333333333,0.364978624571,-0.140155474243
    ));
#996 = CARTESIAN_POINT('',(1.54,4.746793685589E-02,-1.778312163513E-02)
  );
#997 = CARTESIAN_POINT('',(1.541666666667,4.429282997874E-02,
    -1.655939810905E-02));
#998 = CARTESIAN_POINT('',(1.543333333333,4.111772310159E-02,
    -1.533567458297E-02));
#999 = CARTESIAN_POINT('',(1.545,3.794261622445E-02,-1.411195105688E-02)
  );
#1000 = CARTESIAN_POINT('',(1.04,1.,-0.19245008973));
#1001 = CARTESIAN_POINT('',(1.206666666667,0.68318375673,-0.131263913426
    ));
#1002 = CARTESIAN_POINT('',(1.373333333333,0.366367513459,
    -7.007773712167E-02));
#1003 = CARTESIAN_POINT('',(1.54,4.955127018922E-02,-8.891560817565E-03)
  );
#1004 = CARTESIAN_POINT('',(1.541666666667,4.638310775652E-02,
    -8.279699054524E-03));
#1005 = CARTESIAN_POINT('',(1.543333333333,4.321494532382E-02,
    -7.667837291483E-03));
#1006 = CARTESIAN_POINT('',(1.545,4.004678289111E-02,-7.055975528442E-03
    ));
#1007 = CARTESIAN_POINT('',(1.04,1.,0.19245008973));
#1008 = CARTESIAN_POINT('',(1.206666666667,0.68318375673,0.131263913426)
  );
#1009 = CARTESIAN_POINT('',(1.373333333333,0.366367513459,
    7.007773712167E-02));
#1010 = CARTESIAN_POINT('',(1.54,4.955127018922E-02,8.891560817565E-03)
  );
#1011 = CARTESIAN_POINT('',(1.541666666667,4.638310775652E-02,
    8.279699054524E-03));
#1012 = CARTESIAN_POINT('',(1.543333333333,4.321494532382E-02,
    7.667837291483E-03));
#1013 = CARTESIAN_POINT('',(1.545,4.004678289111E-02,7.055975528442E-03)
  );
#1014 = CARTESIAN_POINT('',(1.04,1.,0.38490017946));
#1015 = CARTESIAN_POINT('',(1.206666666667,0.682489312285,0.262527826852
    ));
#1016 = CARTESIAN_POINT('',(1.373333333333,0.364978624571,0.140155474243
    ));
#1017 = CARTESIAN_POINT('',(1.54,4.746793685589E-02,1.778312163513E-02)
  );
#1018 = CARTESIAN_POINT('',(1.541666666667,4.429282997874E-02,
    1.655939810905E-02));
#1019 = CARTESIAN_POINT('',(1.543333333333,4.111772310159E-02,
    1.533567458297E-02));
#1020 = CARTESIAN_POINT('',(1.545,3.794261622445E-02,1.411195105688E-02)
  );
#1021 = CARTESIAN_POINT('',(1.04,1.,0.57735026919));
#1022 = CARTESIAN_POINT('',(1.206666666667,0.681100423396,0.393233512793
    ));
#1023 = CARTESIAN_POINT('',(1.373333333333,0.362200846793,0.209116756397
    ));
#1024 = CARTESIAN_POINT('',(1.54,4.330127018922E-02,2.5E-02));
#1025 = CARTESIAN_POINT('',(1.541666666667,4.011227442319E-02,
    2.315883243603E-02));
#1026 = CARTESIAN_POINT('',(1.543333333333,3.692327865715E-02,
    2.131766487207E-02));
#1027 = CARTESIAN_POINT('',(1.545,3.373428289111E-02,1.94764973081E-02)
  );
#1028 = ADVANCED_FACE('',(#1029),#1092,.F.);
#1029 = FACE_BOUND('',#1030,.F.);
#1030 = EDGE_LOOP('',(#1031,#1032,#1076,#1091));
#1031 = ORIENTED_EDGE('',*,*,#596,.T.);
#1032 = ORIENTED_EDGE('',*,*,#1033,.T.);
#1033 = EDGE_CURVE('',#597,#1034,#1036,.T.);
#1034 = VERTEX_POINT('',#1035);
#1035 = CARTESIAN_POINT('',(1.542075782294,-2.199619955358E-02,
    3.809853520021E-02));
#1036 = B_SPLINE_CURVE_WITH_KNOTS('',3,(#1037,#1038,#1039,#1040,#1041,
    #1042,#1043,#1044,#1045,#1046,#1047,#1048,#1049,#1050,#1051,#1052,
    #1053,#1054,#1055,#1056,#1057,#1058,#1059,#1060,#1061,#1062,#1063,
    #1064,#1065,#1066,#1067,#1068,#1069,#1070,#1071,#1072,#1073,#1074,
    #1075),.UNSPECIFIED.,.F.,.F.,(4,2,2,1,1,1,2,2,2,1,1,1,2,2,2,1,1,2,2,
    2,1,2,2,4),(0.,0.25,0.375,0.4375,0.46875,0.484375,0.4921875,0.5,
    0.625,0.6875,0.71875,0.734375,0.7421875,0.75,0.8125,0.84375,0.859375
    ,0.8671875,0.875,0.90625,0.921875,0.9296875,0.9375,1.),
  .UNSPECIFIED.);
#1037 = CARTESIAN_POINT('',(1.04,9.8E-16,1.154700538379));
#1038 = CARTESIAN_POINT('',(1.094706968811,-2.368881237733E-03,
    1.032463228361));
#1039 = CARTESIAN_POINT('',(1.142902467645,-4.517564220715E-03,
    0.924762602162));
#1040 = CARTESIAN_POINT('',(1.20542851093,-7.230388570047E-03,
    0.78512485126));
#1041 = CARTESIAN_POINT('',(1.224642657864,-8.053378834935E-03,
    0.742228844342));
#1042 = CARTESIAN_POINT('',(1.251022077023,-9.177184387598E-03,
    0.683352650071));
#1043 = CARTESIAN_POINT('',(1.263601336293,-9.711768566617E-03,
    0.655281292892));
#1044 = CARTESIAN_POINT('',(1.27720885073,-1.029381373468E-02,
    0.624919370078));
#1045 = CARTESIAN_POINT('',(1.283745535938,-1.057547534906E-02,
    0.610334763729));
#1046 = CARTESIAN_POINT('',(1.286489742739,-1.069430042001E-02,
    0.604211935594));
#1047 = CARTESIAN_POINT('',(1.288306496225,-1.077311174638E-02,
    0.600158423266));
#1048 = CARTESIAN_POINT('',(1.288414912321,-1.077775203147E-02,
    0.599916531798));
#1049 = CARTESIAN_POINT('',(1.317132346229,-1.202844289429E-02,
    0.535842417227));
#1050 = CARTESIAN_POINT('',(1.341089078435,-1.312052628442E-02,
    0.482400140462));
#1051 = CARTESIAN_POINT('',(1.372417015417,-1.44912391091E-02,
    0.412612119857));
#1052 = CARTESIAN_POINT('',(1.386929193577,-1.511412255845E-02,
    0.380309271195));
#1053 = CARTESIAN_POINT('',(1.401844435016,-1.574714566382E-02,
    0.347146595736));
#1054 = CARTESIAN_POINT('',(1.408798147465,-1.604564271604E-02,
    0.331692828528));
#1055 = CARTESIAN_POINT('',(1.4116703296,-1.617037060909E-02,
    0.32531099106));
#1056 = CARTESIAN_POINT('',(1.413561122058,-1.625289430686E-02,
    0.321109982022));
#1057 = CARTESIAN_POINT('',(1.413756468392,-1.626125894344E-02,
    0.320675907972));
#1058 = CARTESIAN_POINT('',(1.428691542474,-1.692059436276E-02,
    0.287496166705));
#1059 = CARTESIAN_POINT('',(1.440579578245,-1.747686063702E-02,
    0.261117541065));
#1060 = CARTESIAN_POINT('',(1.456330253447,-1.817763539838E-02,
    0.226266643574));
#1061 = CARTESIAN_POINT('',(1.463685246434,-1.849742276068E-02,
    0.210018706937));
#1062 = CARTESIAN_POINT('',(1.471355468513,-1.882710999547E-02,
    0.193114950356));
#1063 = CARTESIAN_POINT('',(1.474447577316,-1.896207975023E-02,
    0.186308157717));
#1064 = CARTESIAN_POINT('',(1.476465621134,-1.905103547011E-02,
    0.181867295054));
#1065 = CARTESIAN_POINT('',(1.476795317595,-1.906526014022E-02,
    0.181141586945));
#1066 = CARTESIAN_POINT('',(1.484911838997,-1.943225958821E-02,
    0.163292608563));
#1067 = CARTESIAN_POINT('',(1.490812147038,-1.97136370168E-02,
    0.150356193596));
#1068 = CARTESIAN_POINT('',(1.498773245478,-2.007691713805E-02,
    0.132976561446));
#1069 = CARTESIAN_POINT('',(1.502531453793,-2.024520357954E-02,
    0.124792124823));
#1070 = CARTESIAN_POINT('',(1.50595615075,-2.039796582506E-02,
    0.117359999586));
#1071 = CARTESIAN_POINT('',(1.50816516842,-2.049768970975E-02,
    0.112571256783));
#1072 = CARTESIAN_POINT('',(1.508323609977,-2.050369498189E-02,
    0.112226317441));
#1073 = CARTESIAN_POINT('',(1.525778260914,-2.132478147662E-02,
    7.446777862402E-02));
#1074 = CARTESIAN_POINT('',(1.53654900007,-2.206027942935E-02,
    5.205520216511E-02));
#1075 = CARTESIAN_POINT('',(1.542075782294,-2.199619955358E-02,
    3.809853520021E-02));
#1076 = ORIENTED_EDGE('',*,*,#1077,.T.);
#1077 = EDGE_CURVE('',#1034,#794,#1078,.T.);
#1078 = B_SPLINE_CURVE_WITH_KNOTS('',3,(#1079,#1080,#1081,#1082,#1083,
    #1084,#1085,#1086,#1087,#1088,#1089,#1090),.UNSPECIFIED.,.F.,.F.,(4,
    2,2,2,2,4),(0.,0.25,0.5,0.625,0.75,1.),.UNSPECIFIED.);
#1079 = CARTESIAN_POINT('',(1.542075782294,-2.199619955358E-02,
    3.809853520021E-02));
#1080 = CARTESIAN_POINT('',(1.54,-1.640401878246E-02,4.636601442886E-02)
  );
#1081 = CARTESIAN_POINT('',(1.54,-6.495594587546E-03,5.040587718824E-02)
  );
#1082 = CARTESIAN_POINT('',(1.54,9.855090015384E-03,4.952350538336E-02)
  );
#1083 = CARTESIAN_POINT('',(1.54,1.692816345377E-02,4.754183979198E-02)
  );
#1084 = CARTESIAN_POINT('',(1.54,2.869937091524E-02,4.059806826486E-02)
  );
#1085 = CARTESIAN_POINT('',(1.54,3.213250407499E-02,3.806780559877E-02)
  );
#1086 = CARTESIAN_POINT('',(1.54,3.8017565073E-02,3.257593595251E-02));
#1087 = CARTESIAN_POINT('',(1.54,3.968402042413E-02,3.088676730884E-02)
  );
#1088 = CARTESIAN_POINT('',(1.54,4.792441341811E-02,1.753761488763E-02)
  );
#1089 = CARTESIAN_POINT('',(1.54,4.821456411826E-02,8.725264942591E-03)
  );
#1090 = CARTESIAN_POINT('',(1.542075782294,4.399239910715E-02,3.6E-16));
#1091 = ORIENTED_EDGE('',*,*,#943,.F.);
#1092 = B_SPLINE_SURFACE_WITH_KNOTS('',3,3,(
    (#1093,#1094,#1095,#1096,#1097,#1098,#1099)
    ,(#1100,#1101,#1102,#1103,#1104,#1105,#1106)
    ,(#1107,#1108,#1109,#1110,#1111,#1112,#1113)
    ,(#1114,#1115,#1116,#1117,#1118,#1119,#1120)
    ,(#1121,#1122,#1123,#1124,#1125,#1126,#1127)
    ,(#1128,#1129,#1130,#1131,#1132,#1133,#1134)
    ,(#1135,#1136,#1137,#1138,#1139,#1140,#1141)
    ,(#1142,#1143,#1144,#1145,#1146,#1147,#1148)
    ,(#1149,#1150,#1151,#1152,#1153,#1154,#1155)
    ,(#1156,#1157,#1158,#1159,#1160,#1161,#1162)
    ,(#1163,#1164,#1165,#1166,#1167,#1168,#1169)
    ,(#1170,#1171,#1172,#1173,#1174,#1175,#1176
  )),.UNSPECIFIED.,.F.,.F.,.F.,(4,3,2,3,4),(4,3,4),(-0.54428799605,0.,
    0.5,1.,1.54428799605),(0.,1.,1.01),.UNSPECIFIED.);
#1093 = CARTESIAN_POINT('',(1.04,1.54428799605,0.263105448154));
#1094 = CARTESIAN_POINT('',(1.206666666667,1.04849482073,0.17588084491)
  );
#1095 = CARTESIAN_POINT('',(1.373333333333,0.55270164541,
    8.86562416661E-02));
#1096 = CARTESIAN_POINT('',(1.54,5.690847009046E-02,1.431638422304E-03)
  );
#1097 = CARTESIAN_POINT('',(1.541666666667,5.195053833727E-02,
    5.593923898662E-04));
#1098 = CARTESIAN_POINT('',(1.543333333333,4.699260658407E-02,
    -3.128536425717E-04));
#1099 = CARTESIAN_POINT('',(1.545,4.203467483087E-02,-1.18509967501E-03)
  );
#1100 = CARTESIAN_POINT('',(1.04,1.362858664033,0.367853721832));
#1101 = CARTESIAN_POINT('',(1.206666666667,0.926030021619,0.248331734204
    ));
#1102 = CARTESIAN_POINT('',(1.373333333333,0.489201379204,0.128809746576
    ));
#1103 = CARTESIAN_POINT('',(1.54,5.237273679005E-02,9.287758948203E-03)
  );
#1104 = CARTESIAN_POINT('',(1.541666666667,4.800445036591E-02,
    8.092539071922E-03));
#1105 = CARTESIAN_POINT('',(1.543333333333,4.363616394176E-02,
    6.897319195642E-03));
#1106 = CARTESIAN_POINT('',(1.545,3.926787751762E-02,5.702099319361E-03)
  );
#1107 = CARTESIAN_POINT('',(1.04,1.181429332017,0.472601995511));
#1108 = CARTESIAN_POINT('',(1.206666666667,0.803565222508,0.320782623499
    ));
#1109 = CARTESIAN_POINT('',(1.373333333333,0.425701112999,0.168963251486
    ));
#1110 = CARTESIAN_POINT('',(1.54,4.783700348964E-02,1.71438794741E-02));
#1111 = CARTESIAN_POINT('',(1.541666666667,4.405836239455E-02,
    1.562568575398E-02));
#1112 = CARTESIAN_POINT('',(1.543333333333,4.027972129946E-02,
    1.410749203386E-02));
#1113 = CARTESIAN_POINT('',(1.545,3.650108020437E-02,1.258929831373E-02)
  );
#1114 = CARTESIAN_POINT('',(1.04,1.,0.57735026919));
#1115 = CARTESIAN_POINT('',(1.206666666667,0.681100423396,0.393233512793
    ));
#1116 = CARTESIAN_POINT('',(1.373333333333,0.362200846793,0.209116756397
    ));
#1117 = CARTESIAN_POINT('',(1.54,4.330127018922E-02,2.5E-02));
#1118 = CARTESIAN_POINT('',(1.541666666667,4.011227442319E-02,
    2.315883243603E-02));
#1119 = CARTESIAN_POINT('',(1.543333333333,3.692327865715E-02,
    2.131766487207E-02));
#1120 = CARTESIAN_POINT('',(1.545,3.373428289111E-02,1.94764973081E-02)
  );
#1121 = CARTESIAN_POINT('',(1.04,0.833333333333,0.673575314055));
#1122 = CARTESIAN_POINT('',(1.206666666667,0.568600423396,0.459789168825
    ));
#1123 = CARTESIAN_POINT('',(1.373333333333,0.303867513459,0.246003023595
    ));
#1124 = CARTESIAN_POINT('',(1.54,3.913460352256E-02,3.221687836487E-02)
  );
#1125 = CARTESIAN_POINT('',(1.541666666667,3.648727442319E-02,
    3.007901691257E-02));
#1126 = CARTESIAN_POINT('',(1.543333333333,3.383994532382E-02,
    2.794115546027E-02));
#1127 = CARTESIAN_POINT('',(1.545,3.119261622445E-02,2.580329400797E-02)
  );
#1128 = CARTESIAN_POINT('',(1.04,0.666666666667,0.76980035892));
#1129 = CARTESIAN_POINT('',(1.206666666667,0.455269761992,0.526022532068
    ));
#1130 = CARTESIAN_POINT('',(1.373333333333,0.243872857317,0.282244705216
    ));
#1131 = CARTESIAN_POINT('',(1.54,3.247595264192E-02,3.846687836487E-02)
  );
#1132 = CARTESIAN_POINT('',(1.541666666667,3.036198359517E-02,
    3.602910009635E-02));
#1133 = CARTESIAN_POINT('',(1.543333333333,2.824801454842E-02,
    3.359132182784E-02));
#1134 = CARTESIAN_POINT('',(1.545,2.613404550167E-02,3.115354355932E-02)
  );
#1135 = CARTESIAN_POINT('',(1.04,0.333333333333,0.962250448649));
#1136 = CARTESIAN_POINT('',(1.206666666667,0.227913994738,0.657286445494
    ));
#1137 = CARTESIAN_POINT('',(1.373333333333,0.122494656143,0.352322442338
    ));
#1138 = CARTESIAN_POINT('',(1.54,1.707531754731E-02,4.735843918244E-02)
  );
#1139 = CARTESIAN_POINT('',(1.541666666667,1.602112416135E-02,
    4.430879915088E-02));
#1140 = CARTESIAN_POINT('',(1.543333333333,1.49669307754E-02,
    4.125915911932E-02));
#1141 = CARTESIAN_POINT('',(1.545,1.391273738945E-02,3.820951908777E-02)
  );
#1142 = CARTESIAN_POINT('',(1.04,0.166666666667,1.058475493514));
#1143 = CARTESIAN_POINT('',(1.206666666667,0.113888888889,0.722316995676
    ));
#1144 = CARTESIAN_POINT('',(1.373333333333,6.111111111111E-02,
    0.386158497838));
#1145 = CARTESIAN_POINT('',(1.54,8.333333333333E-03,5.E-02));
#1146 = CARTESIAN_POINT('',(1.541666666667,7.805555555556E-03,
    4.663841502162E-02));
#1147 = CARTESIAN_POINT('',(1.543333333333,7.277777777778E-03,
    4.327683004324E-02));
#1148 = CARTESIAN_POINT('',(1.545,6.75E-03,3.991524506486E-02));
#1149 = CARTESIAN_POINT('',(1.04,8.7E-16,1.154700538379));
#1150 = CARTESIAN_POINT('',(1.206666666667,5.9E-16,0.786467025586));
#1151 = CARTESIAN_POINT('',(1.373333333333,3.1E-16,0.418233512793));
#1152 = CARTESIAN_POINT('',(1.54,3.E-17,5.E-02));
#1153 = CARTESIAN_POINT('',(1.541666666667,3.E-17,4.631766487207E-02));
#1154 = CARTESIAN_POINT('',(1.543333333333,2.E-17,4.263532974414E-02));
#1155 = CARTESIAN_POINT('',(1.545,2.E-17,3.895299461621E-02));
#1156 = CARTESIAN_POINT('',(1.04,-0.181429332017,1.259448812058));
#1157 = CARTESIAN_POINT('',(1.206666666667,-0.123976710211,
    0.856299208039));
#1158 = CARTESIAN_POINT('',(1.373333333333,-6.652408840607E-02,
    0.453149604019));
#1159 = CARTESIAN_POINT('',(1.54,-9.071466600827E-03,5.E-02));
#1160 = CARTESIAN_POINT('',(1.541666666667,-8.496940382775E-03,
    4.596850395981E-02));
#1161 = CARTESIAN_POINT('',(1.543333333333,-7.922414164723E-03,
    4.193700791961E-02));
#1162 = CARTESIAN_POINT('',(1.545,-7.34788794667E-03,3.790551187942E-02)
  );
#1163 = CARTESIAN_POINT('',(1.04,-0.362858664033,1.364197085737));
#1164 = CARTESIAN_POINT('',(1.206666666667,-0.247953420423,
    0.926131390491));
#1165 = CARTESIAN_POINT('',(1.373333333333,-0.133048176812,
    0.488065695246));
#1166 = CARTESIAN_POINT('',(1.54,-1.814293320165E-02,5.E-02));
#1167 = CARTESIAN_POINT('',(1.541666666667,-1.699388076555E-02,
    4.561934304754E-02));
#1168 = CARTESIAN_POINT('',(1.543333333333,-1.584482832945E-02,
    4.123868609509E-02));
#1169 = CARTESIAN_POINT('',(1.545,-1.469577589334E-02,3.685802914263E-02
    ));
#1170 = CARTESIAN_POINT('',(1.04,-0.54428799605,1.468945359415));
#1171 = CARTESIAN_POINT('',(1.206666666667,-0.371930130634,
    0.995963572943));
#1172 = CARTESIAN_POINT('',(1.373333333333,-0.199572265218,
    0.522981786472));
#1173 = CARTESIAN_POINT('',(1.54,-2.721439980248E-02,5.E-02));
#1174 = CARTESIAN_POINT('',(1.541666666667,-2.549082114833E-02,
    4.527018213528E-02));
#1175 = CARTESIAN_POINT('',(1.543333333333,-2.376724249417E-02,
    4.054036427057E-02));
#1176 = CARTESIAN_POINT('',(1.545,-2.204366384001E-02,3.581054640585E-02
    ));
#1177 = ADVANCED_FACE('',(#1178),#1225,.F.);
#1178 = FACE_BOUND('',#1179,.F.);
#1179 = EDGE_LOOP('',(#1180,#1181,#1224));
#1180 = ORIENTED_EDGE('',*,*,#620,.T.);
#1181 = ORIENTED_EDGE('',*,*,#1182,.T.);
#1182 = EDGE_CURVE('',#621,#1034,#1183,.T.);
#1183 = B_SPLINE_CURVE_WITH_KNOTS('',3,(#1184,#1185,#1186,#1187,#1188,
    #1189,#1190,#1191,#1192,#1193,#1194,#1195,#1196,#1197,#1198,#1199,
    #1200,#1201,#1202,#1203,#1204,#1205,#1206,#1207,#1208,#1209,#1210,
    #1211,#1212,#1213,#1214,#1215,#1216,#1217,#1218,#1219,#1220,#1221,
    #1222,#1223),.UNSPECIFIED.,.F.,.F.,(4,2,2,1,1,1,2,2,2,2,1,1,2,2,2,1,
    1,2,2,2,1,2,2,4),(0.,0.25,0.375,0.4375,0.46875,0.484375,0.4921875,
    0.5,0.625,0.6875,0.71875,0.734375,0.7421875,0.75,0.8125,0.84375,
    0.859375,0.8671875,0.875,0.90625,0.921875,0.9296875,0.9375,1.),
  .UNSPECIFIED.);
#1184 = CARTESIAN_POINT('',(1.04,-1.,0.57735026919));
#1185 = CARTESIAN_POINT('',(1.096064608881,-0.892726119792,
    0.517874484166));
#1186 = CARTESIAN_POINT('',(1.14529339487,-0.798513458598,0.465716119703
    ));
#1187 = CARTESIAN_POINT('',(1.208882839516,-0.676781621586,
    0.398246928109));
#1188 = CARTESIAN_POINT('',(1.228370365342,-0.639468965794,
    0.377556254138));
#1189 = CARTESIAN_POINT('',(1.255038220496,-0.588397209448,
    0.349231832452));
#1190 = CARTESIAN_POINT('',(1.267731289677,-0.564085647243,
    0.335747924931));
#1191 = CARTESIAN_POINT('',(1.281418368195,-0.537864871402,0.32121086344
    ));
#1192 = CARTESIAN_POINT('',(1.287981531906,-0.525290189083,
    0.314242085158));
#1193 = CARTESIAN_POINT('',(1.290734235879,-0.520015836665,
    0.311319835965));
#1194 = CARTESIAN_POINT('',(1.292556020644,-0.51652511256,0.309385990429
    ));
#1195 = CARTESIAN_POINT('',(1.292624171953,-0.516394558406,
    0.309313575394));
#1196 = CARTESIAN_POINT('',(1.322095484695,-0.459922198809,
    0.278034571319));
#1197 = CARTESIAN_POINT('',(1.346542687859,-0.41304221449,0.252140099841
    ));
#1198 = CARTESIAN_POINT('',(1.378277738186,-0.352123921501,
    0.218436381111));
#1199 = CARTESIAN_POINT('',(1.388033462558,-0.333384854938,
    0.208061867332));
#1200 = CARTESIAN_POINT('',(1.401433110512,-0.307627053389,
    0.193801372518));
#1201 = CARTESIAN_POINT('',(1.407824449837,-0.29533586005,0.186996793549
    ));
#1202 = CARTESIAN_POINT('',(1.414741164244,-0.28202476058,0.179634176353
    ));
#1203 = CARTESIAN_POINT('',(1.417589788674,-0.276540443637,0.17660310345
    ));
#1204 = CARTESIAN_POINT('',(1.419463164573,-0.272933221379,
    0.174610123702));
#1205 = CARTESIAN_POINT('',(1.419606390154,-0.272657618775,
    0.174457567906));
#1206 = CARTESIAN_POINT('',(1.434830697783,-0.243334404942,0.15826867334
    ));
#1207 = CARTESIAN_POINT('',(1.446853182974,-0.220120974443,
    0.145514091006));
#1208 = CARTESIAN_POINT('',(1.462621561709,-0.189575343691,
    0.128704049453));
#1209 = CARTESIAN_POINT('',(1.469939413814,-0.175371248532,
    0.120883552956));
#1210 = CARTESIAN_POINT('',(1.477485817726,-0.160670383694,
    0.112796745229));
#1211 = CARTESIAN_POINT('',(1.480507614358,-0.154770947402,
    0.109557469947));
#1212 = CARTESIAN_POINT('',(1.482474950674,-0.150927098718,
    0.107448834064));
#1213 = CARTESIAN_POINT('',(1.482767177993,-0.150356791195,
    0.107135332685));
#1214 = CARTESIAN_POINT('',(1.490788762188,-0.134657434872,
    9.85427410643E-02));
#1215 = CARTESIAN_POINT('',(1.496579671817,-0.123249449992,
    9.233973644653E-02));
#1216 = CARTESIAN_POINT('',(1.504326499667,-0.107863129644,
    8.397100109397E-02));
#1217 = CARTESIAN_POINT('',(1.507965029444,-0.100601431022,
    8.002267943898E-02));
#1218 = CARTESIAN_POINT('',(1.511251233,-9.398705372808E-02,
    7.643416170039E-02));
#1219 = CARTESIAN_POINT('',(1.513363740654,-8.972136195061E-02,
    7.412372463143E-02));
#1220 = CARTESIAN_POINT('',(1.513746048091,-8.895148662603E-02,
    7.370539724707E-02));
#1221 = CARTESIAN_POINT('',(1.528260871379,-5.943190063923E-02,
    5.779130231261E-02));
#1222 = CARTESIAN_POINT('',(1.537798936957,-3.847221027357E-02,
    4.706223185093E-02));
#1223 = CARTESIAN_POINT('',(1.542075782294,-2.199619955358E-02,
    3.809853520021E-02));
#1224 = ORIENTED_EDGE('',*,*,#1033,.F.);
#1225 = B_SPLINE_SURFACE_WITH_KNOTS('',3,3,(
    (#1226,#1227,#1228,#1229,#1230,#1231,#1232)
    ,(#1233,#1234,#1235,#1236,#1237,#1238,#1239)
    ,(#1240,#1241,#1242,#1243,#1244,#1245,#1246)
    ,(#1247,#1248,#1249,#1250,#1251,#1252,#1253)
    ,(#1254,#1255,#1256,#1257,#1258,#1259,#1260)
    ,(#1261,#1262,#1263,#1264,#1265,#1266,#1267
  )),.UNSPECIFIED.,.F.,.F.,.F.,(4,2,4),(4,3,4),(0.,0.5,1.),(0.,1.,1.01),
  .UNSPECIFIED.);
#1226 = CARTESIAN_POINT('',(1.04,8.9E-16,1.154700538379));
#1227 = CARTESIAN_POINT('',(1.206666666667,6.E-16,0.786467025586));
#1228 = CARTESIAN_POINT('',(1.373333333333,3.2E-16,0.418233512793));
#1229 = CARTESIAN_POINT('',(1.54,3.E-17,5.E-02));
#1230 = CARTESIAN_POINT('',(1.541666666667,3.E-17,4.631766487207E-02));
#1231 = CARTESIAN_POINT('',(1.543333333333,2.E-17,4.263532974414E-02));
#1232 = CARTESIAN_POINT('',(1.545,2.E-17,3.895299461621E-02));
#1233 = CARTESIAN_POINT('',(1.04,-0.166666666667,1.058475493514));
#1234 = CARTESIAN_POINT('',(1.206666666667,-0.113888888889,
    0.722316995676));
#1235 = CARTESIAN_POINT('',(1.373333333333,-6.111111111111E-02,
    0.386158497838));
#1236 = CARTESIAN_POINT('',(1.54,-8.333333333333E-03,5.E-02));
#1237 = CARTESIAN_POINT('',(1.541666666667,-7.805555555556E-03,
    4.663841502162E-02));
#1238 = CARTESIAN_POINT('',(1.543333333333,-7.277777777778E-03,
    4.327683004324E-02));
#1239 = CARTESIAN_POINT('',(1.545,-6.75E-03,3.991524506486E-02));
#1240 = CARTESIAN_POINT('',(1.04,-0.333333333333,0.962250448649));
#1241 = CARTESIAN_POINT('',(1.206666666667,-0.227913994738,
    0.657286445494));
#1242 = CARTESIAN_POINT('',(1.373333333333,-0.122494656143,
    0.352322442338));
#1243 = CARTESIAN_POINT('',(1.54,-1.707531754731E-02,4.735843918244E-02)
  );
#1244 = CARTESIAN_POINT('',(1.541666666667,-1.602112416135E-02,
    4.430879915088E-02));
#1245 = CARTESIAN_POINT('',(1.543333333333,-1.49669307754E-02,
    4.125915911932E-02));
#1246 = CARTESIAN_POINT('',(1.545,-1.391273738945E-02,3.820951908777E-02
    ));
#1247 = CARTESIAN_POINT('',(1.04,-0.666666666667,0.76980035892));
#1248 = CARTESIAN_POINT('',(1.206666666667,-0.455269761992,
    0.526022532068));
#1249 = CARTESIAN_POINT('',(1.373333333333,-0.243872857317,
    0.282244705216));
#1250 = CARTESIAN_POINT('',(1.54,-3.247595264192E-02,3.846687836487E-02)
  );
#1251 = CARTESIAN_POINT('',(1.541666666667,-3.036198359517E-02,
    3.602910009635E-02));
#1252 = CARTESIAN_POINT('',(1.543333333333,-2.824801454842E-02,
    3.359132182784E-02));
#1253 = CARTESIAN_POINT('',(1.545,-2.613404550167E-02,3.115354355932E-02
    ));
#1254 = CARTESIAN_POINT('',(1.04,-0.833333333333,0.673575314055));
#1255 = CARTESIAN_POINT('',(1.206666666667,-0.568600423396,
    0.459789168825));
#1256 = CARTESIAN_POINT('',(1.373333333333,-0.303867513459,
    0.246003023595));
#1257 = CARTESIAN_POINT('',(1.54,-3.913460352256E-02,3.221687836487E-02)
  );
#1258 = CARTESIAN_POINT('',(1.541666666667,-3.648727442319E-02,
    3.007901691257E-02));
#1259 = CARTESIAN_POINT('',(1.543333333333,-3.383994532382E-02,
    2.794115546027E-02));
#1260 = CARTESIAN_POINT('',(1.545,-3.119261622445E-02,2.580329400797E-02
    ));
#1261 = CARTESIAN_POINT('',(1.04,-1.,0.57735026919));
#1262 = CARTESIAN_POINT('',(1.206666666667,-0.681100423396,
    0.393233512793));
#1263 = CARTESIAN_POINT('',(1.373333333333,-0.362200846793,
    0.209116756397));
#1264 = CARTESIAN_POINT('',(1.54,-4.330127018922E-02,2.5E-02));
#1265 = CARTESIAN_POINT('',(1.541666666667,-4.011227442319E-02,
    2.315883243603E-02));
#1266 = CARTESIAN_POINT('',(1.543333333333,-3.692327865715E-02,
    2.131766487207E-02));
#1267 = CARTESIAN_POINT('',(1.545,-3.373428289111E-02,1.94764973081E-02)
  );
#1268 = ADVANCED_FACE('',(#1269),#1289,.F.);
#1269 = FACE_BOUND('',#1270,.F.);
#1270 = EDGE_LOOP('',(#1271,#1272,#1273,#1288));
#1271 = ORIENTED_EDGE('',*,*,#644,.T.);
#1272 = ORIENTED_EDGE('',*,*,#706,.F.);
#1273 = ORIENTED_EDGE('',*,*,#1274,.T.);
#1274 = EDGE_CURVE('',#663,#1034,#1275,.T.);
#1275 = B_SPLINE_CURVE_WITH_KNOTS('',3,(#1276,#1277,#1278,#1279,#1280,
    #1281,#1282,#1283,#1284,#1285,#1286,#1287),.UNSPECIFIED.,.F.,.F.,(4,
    2,2,2,2,4),(0.,0.25,0.5,0.625,0.75,1.),.UNSPECIFIED.);
#1276 = CARTESIAN_POINT('',(1.542075782294,-2.199619955358E-02,
    -3.809853520022E-02));
#1277 = CARTESIAN_POINT('',(1.54,-3.19521369764E-02,-3.73893042042E-02)
  );
#1278 = CARTESIAN_POINT('',(1.54,-4.040497285128E-02,-3.082828851962E-02
    ));
#1279 = CARTESIAN_POINT('',(1.54,-4.781615875413E-02,-1.622699438177E-02
    ));
#1280 = CARTESIAN_POINT('',(1.54,-4.963652272939E-02,-9.110700305604E-03
    ));
#1281 = CARTESIAN_POINT('',(1.54,-4.950864391956E-02,4.555350152801E-03)
  );
#1282 = CARTESIAN_POINT('',(1.54,-4.903393875236E-02,8.79366201676E-03)
  );
#1283 = CARTESIAN_POINT('',(1.54,-4.722037062343E-02,1.663620916699E-02)
  );
#1284 = CARTESIAN_POINT('',(1.54,-4.65907353423E-02,1.892398615718E-02)
  );
#1285 = CARTESIAN_POINT('',(1.54,-3.915022672353E-02,3.273495203774E-02)
  );
#1286 = CARTESIAN_POINT('',(1.54,-3.166358315416E-02,3.739240488751E-02)
  );
#1287 = CARTESIAN_POINT('',(1.542075782294,-2.199619955358E-02,
    3.809853520021E-02));
#1288 = ORIENTED_EDGE('',*,*,#1182,.F.);
#1289 = B_SPLINE_SURFACE_WITH_KNOTS('',3,3,(
    (#1290,#1291,#1292,#1293,#1294,#1295,#1296)
    ,(#1297,#1298,#1299,#1300,#1301,#1302,#1303)
    ,(#1304,#1305,#1306,#1307,#1308,#1309,#1310)
    ,(#1311,#1312,#1313,#1314,#1315,#1316,#1317)
    ,(#1318,#1319,#1320,#1321,#1322,#1323,#1324)
    ,(#1325,#1326,#1327,#1328,#1329,#1330,#1331)
    ,(#1332,#1333,#1334,#1335,#1336,#1337,#1338)
    ,(#1339,#1340,#1341,#1342,#1343,#1344,#1345)
    ,(#1346,#1347,#1348,#1349,#1350,#1351,#1352)
    ,(#1353,#1354,#1355,#1356,#1357,#1358,#1359)
    ,(#1360,#1361,#1362,#1363,#1364,#1365,#1366)
    ,(#1367,#1368,#1369,#1370,#1371,#1372,#1373
  )),.UNSPECIFIED.,.F.,.F.,.F.,(4,3,2,3,4),(4,3,4),(-0.54428799605,0.,
    0.5,1.,1.54428799605),(0.,1.,1.01),.UNSPECIFIED.);
#1290 = CARTESIAN_POINT('',(1.04,-1.,1.205839911262));
#1291 = CARTESIAN_POINT('',(1.206666666667,-0.676564690096,
    0.820082728034));
#1292 = CARTESIAN_POINT('',(1.373333333333,-0.353129380192,
    0.434325544806));
#1293 = CARTESIAN_POINT('',(1.54,-2.969407028798E-02,4.85683615777E-02)
  );
#1294 = CARTESIAN_POINT('',(1.541666666667,-2.645971718894E-02,
    4.471078974542E-02));
#1295 = CARTESIAN_POINT('',(1.543333333333,-2.32253640899E-02,
    4.085321791314E-02));
#1296 = CARTESIAN_POINT('',(1.545,-1.999101099086E-02,3.699564608086E-02
    ));
#1297 = CARTESIAN_POINT('',(1.04,-1.,0.996343363904));
#1298 = CARTESIAN_POINT('',(1.206666666667,-0.678076601196,
    0.677799656287));
#1299 = CARTESIAN_POINT('',(1.373333333333,-0.356153202392,
    0.359255948669));
#1300 = CARTESIAN_POINT('',(1.54,-3.422980358839E-02,4.07122410518E-02)
  );
#1301 = CARTESIAN_POINT('',(1.541666666667,-3.101056960036E-02,
    3.752680397562E-02));
#1302 = CARTESIAN_POINT('',(1.543333333333,-2.779133561232E-02,
    3.434136689945E-02));
#1303 = CARTESIAN_POINT('',(1.545,-2.457210162428E-02,3.115592982327E-02
    ));
#1304 = CARTESIAN_POINT('',(1.04,-1.,0.786846816547));
#1305 = CARTESIAN_POINT('',(1.206666666667,-0.679588512296,0.53551658454
    ));
#1306 = CARTESIAN_POINT('',(1.373333333333,-0.359177024593,
    0.284186352533));
#1307 = CARTESIAN_POINT('',(1.54,-3.876553688881E-02,3.28561205259E-02)
  );
#1308 = CARTESIAN_POINT('',(1.541666666667,-3.556142201177E-02,
    3.034281820583E-02));
#1309 = CARTESIAN_POINT('',(1.543333333333,-3.235730713473E-02,
    2.782951588576E-02));
#1310 = CARTESIAN_POINT('',(1.545,-2.91531922577E-02,2.531621356569E-02)
  );
#1311 = CARTESIAN_POINT('',(1.04,-1.,0.57735026919));
#1312 = CARTESIAN_POINT('',(1.206666666667,-0.681100423396,
    0.393233512793));
#1313 = CARTESIAN_POINT('',(1.373333333333,-0.362200846793,
    0.209116756397));
#1314 = CARTESIAN_POINT('',(1.54,-4.330127018922E-02,2.5E-02));
#1315 = CARTESIAN_POINT('',(1.541666666667,-4.011227442319E-02,
    2.315883243603E-02));
#1316 = CARTESIAN_POINT('',(1.543333333333,-3.692327865715E-02,
    2.131766487207E-02));
#1317 = CARTESIAN_POINT('',(1.545,-3.373428289111E-02,1.94764973081E-02)
  );
#1318 = CARTESIAN_POINT('',(1.04,-1.,0.38490017946));
#1319 = CARTESIAN_POINT('',(1.206666666667,-0.682489312285,
    0.262527826852));
#1320 = CARTESIAN_POINT('',(1.373333333333,-0.364978624571,
    0.140155474243));
#1321 = CARTESIAN_POINT('',(1.54,-4.746793685589E-02,1.778312163513E-02)
  );
#1322 = CARTESIAN_POINT('',(1.541666666667,-4.429282997874E-02,
    1.655939810905E-02));
#1323 = CARTESIAN_POINT('',(1.543333333333,-4.111772310159E-02,
    1.533567458297E-02));
#1324 = CARTESIAN_POINT('',(1.545,-3.794261622445E-02,1.411195105688E-02
    ));
#1325 = CARTESIAN_POINT('',(1.04,-1.,0.19245008973));
#1326 = CARTESIAN_POINT('',(1.206666666667,-0.68318375673,0.131263913426
    ));
#1327 = CARTESIAN_POINT('',(1.373333333333,-0.366367513459,
    7.007773712167E-02));
#1328 = CARTESIAN_POINT('',(1.54,-4.955127018922E-02,8.891560817565E-03)
  );
#1329 = CARTESIAN_POINT('',(1.541666666667,-4.638310775652E-02,
    8.279699054524E-03));
#1330 = CARTESIAN_POINT('',(1.543333333333,-4.321494532382E-02,
    7.667837291483E-03));
#1331 = CARTESIAN_POINT('',(1.545,-4.004678289111E-02,7.055975528442E-03
    ));
#1332 = CARTESIAN_POINT('',(1.04,-1.,-0.19245008973));
#1333 = CARTESIAN_POINT('',(1.206666666667,-0.68318375673,
    -0.131263913426));
#1334 = CARTESIAN_POINT('',(1.373333333333,-0.366367513459,
    -7.007773712167E-02));
#1335 = CARTESIAN_POINT('',(1.54,-4.955127018922E-02,-8.891560817565E-03
    ));
#1336 = CARTESIAN_POINT('',(1.541666666667,-4.638310775652E-02,
    -8.279699054524E-03));
#1337 = CARTESIAN_POINT('',(1.543333333333,-4.321494532382E-02,
    -7.667837291483E-03));
#1338 = CARTESIAN_POINT('',(1.545,-4.004678289111E-02,
    -7.055975528442E-03));
#1339 = CARTESIAN_POINT('',(1.04,-1.,-0.38490017946));
#1340 = CARTESIAN_POINT('',(1.206666666667,-0.682489312285,
    -0.262527826852));
#1341 = CARTESIAN_POINT('',(1.373333333333,-0.364978624571,
    -0.140155474243));
#1342 = CARTESIAN_POINT('',(1.54,-4.746793685589E-02,-1.778312163513E-02
    ));
#1343 = CARTESIAN_POINT('',(1.541666666667,-4.429282997874E-02,
    -1.655939810905E-02));
#1344 = CARTESIAN_POINT('',(1.543333333333,-4.111772310159E-02,
    -1.533567458297E-02));
#1345 = CARTESIAN_POINT('',(1.545,-3.794261622445E-02,
    -1.411195105688E-02));
#1346 = CARTESIAN_POINT('',(1.04,-1.,-0.57735026919));
#1347 = CARTESIAN_POINT('',(1.206666666667,-0.681100423396,
    -0.393233512793));
#1348 = CARTESIAN_POINT('',(1.373333333333,-0.362200846793,
    -0.209116756397));
#1349 = CARTESIAN_POINT('',(1.54,-4.330127018922E-02,-2.5E-02));
#1350 = CARTESIAN_POINT('',(1.541666666667,-4.011227442319E-02,
    -2.315883243603E-02));
#1351 = CARTESIAN_POINT('',(1.543333333333,-3.692327865715E-02,
    -2.131766487207E-02));
#1352 = CARTESIAN_POINT('',(1.545,-3.373428289111E-02,-1.94764973081E-02
    ));
#1353 = CARTESIAN_POINT('',(1.04,-1.,-0.786846816547));
#1354 = CARTESIAN_POINT('',(1.206666666667,-0.679588512296,
    -0.53551658454));
#1355 = CARTESIAN_POINT('',(1.373333333333,-0.359177024593,
    -0.284186352533));
#1356 = CARTESIAN_POINT('',(1.54,-3.876553688881E-02,-3.28561205259E-02)
  );
#1357 = CARTESIAN_POINT('',(1.541666666667,-3.556142201177E-02,
    -3.034281820583E-02));
#1358 = CARTESIAN_POINT('',(1.543333333333,-3.235730713473E-02,
    -2.782951588576E-02));
#1359 = CARTESIAN_POINT('',(1.545,-2.91531922577E-02,-2.531621356569E-02
    ));
#1360 = CARTESIAN_POINT('',(1.04,-1.,-0.996343363904));
#1361 = CARTESIAN_POINT('',(1.206666666667,-0.678076601196,
    -0.677799656287));
#1362 = CARTESIAN_POINT('',(1.373333333333,-0.356153202392,
    -0.359255948669));
#1363 = CARTESIAN_POINT('',(1.54,-3.422980358839E-02,-4.07122410518E-02)
  );
#1364 = CARTESIAN_POINT('',(1.541666666667,-3.101056960036E-02,
    -3.752680397562E-02));
#1365 = CARTESIAN_POINT('',(1.543333333333,-2.779133561232E-02,
    -3.434136689945E-02));
#1366 = CARTESIAN_POINT('',(1.545,-2.457210162428E-02,
    -3.115592982327E-02));
#1367 = CARTESIAN_POINT('',(1.04,-1.,-1.205839911262));
#1368 = CARTESIAN_POINT('',(1.206666666667,-0.676564690096,
    -0.820082728034));
#1369 = CARTESIAN_POINT('',(1.373333333333,-0.353129380192,
    -0.434325544806));
#1370 = CARTESIAN_POINT('',(1.54,-2.969407028798E-02,-4.85683615777E-02)
  );
#1371 = CARTESIAN_POINT('',(1.541666666667,-2.645971718894E-02,
    -4.471078974542E-02));
#1372 = CARTESIAN_POINT('',(1.543333333333,-2.32253640899E-02,
    -4.085321791314E-02));
#1373 = CARTESIAN_POINT('',(1.545,-1.999101099086E-02,
    -3.699564608086E-02));
#1374 = ADVANCED_FACE('',(#1375),#1380,.F.);
#1375 = FACE_BOUND('',#1376,.F.);
#1376 = EDGE_LOOP('',(#1377,#1378,#1379));
#1377 = ORIENTED_EDGE('',*,*,#1274,.F.);
#1378 = ORIENTED_EDGE('',*,*,#838,.F.);
#1379 = ORIENTED_EDGE('',*,*,#1077,.F.);
#1380 = PLANE('',#1381);
#1381 = AXIS2_PLACEMENT_3D('',#1382,#1383,#1384);
#1382 = CARTESIAN_POINT('',(1.54,0.,0.));
#1383 = DIRECTION('',(1.,0.,-0.));
#1384 = DIRECTION('',(-0.,0.,-1.));
#1385 = ( GEOMETRIC_REPRESENTATION_CONTEXT(3) 
GLOBAL_UNCERTAINTY_ASSIGNED_CONTEXT((#1389)) 
GLOBAL_UNIT_ASSIGNED_CONTEXT((#1386,#1387,#1388)) REPRESENTATION_CONTEXT
('Context #1','3D Context with UNIT and UNCERTAINTY') );
#1386 = ( LENGTH_UNIT() NAMED_UNIT(*) SI_UNIT(.MILLI.,.METRE.) );
#1387 = ( NAMED_UNIT(*) PLANE_ANGLE_UNIT() SI_UNIT($,.RADIAN.) );
#1388 = ( NAMED_UNIT(*) SI_UNIT($,.STERADIAN.) SOLID_ANGLE_UNIT() );
#1389 = UNCERTAINTY_MEASURE_WITH_UNIT(LENGTH_MEASURE(2.E-03),#1386,
  'distance_accuracy_value','confusion accuracy');
#1390 = PRODUCT_RELATED_PRODUCT_CATEGORY('part',$,(#7));
#1391 = MECHANICAL_DESIGN_GEOMETRIC_PRESENTATION_REPRESENTATION('',(
    #1392),#1385);
#1392 = STYLED_ITEM('color',(#1393),#15);
#1393 = PRESENTATION_STYLE_ASSIGNMENT((#1394,#1400));
#1394 = SURFACE_STYLE_USAGE(.BOTH.,#1395);
#1395 = SURFACE_SIDE_STYLE('',(#1396));
#1396 = SURFACE_STYLE_FILL_AREA(#1397);
#1397 = FILL_AREA_STYLE('',(#1398));
#1398 = FILL_AREA_STYLE_COLOUR('',#1399);
#1399 = COLOUR_RGB('',0.898039222556,0.898039222556,0.898039222556);
#1400 = CURVE_STYLE('',#1401,POSITIVE_LENGTH_MEASURE(0.1),#1402);
#1401 = DRAUGHTING_PRE_DEFINED_CURVE_FONT('continuous');
#1402 = COLOUR_RGB('',9.803921802644E-02,9.803921802644E-02,
  9.803921802644E-02);
ENDSEC;
END-ISO-10303-21;
