ISO-10303-21;
HEADER;
FILE_DESCRIPTION(('FreeCAD Model'),'2;1');
FILE_NAME('Open CASCADE Shape Model','2026-09-03T22:04:48',('Author'),(
    ''),'Open CASCADE STEP processor 7.9','FreeCAD','Unknown');
FILE_SCHEMA(('AUTOMOTIVE_DESIGN { 1 0 10303 214 1 1 1 1 }'));
ENDSEC;
DATA;
#1 = APPLICATION_PROTOCOL_DEFINITION('international standard',
  'automotive_design',2000,#2);
#2 = APPLICATION_CONTEXT(
  'core data for automotive mechanical design processes');
#3 = SHAPE_DEFINITION_REPRESENTATION(#4,#10);
#4 = PRODUCT_DEFINITION_SHAPE('','',#5);
#5 = PRODUCT_DEFINITION('design','',#6,#9);
#6 = PRODUCT_DEFINITION_FORMATION('','',#7);
#7 = PRODUCT('Body093','Body093','',(#8));
#8 = PRODUCT_CONTEXT('',#2,'mechanical');
#9 = PRODUCT_DEFINITION_CONTEXT('part definition',#2,'design');
#10 = ADVANCED_BREP_SHAPE_REPRESENTATION('',(#11,#15),#1481);
#11 = AXIS2_PLACEMENT_3D('',#12,#13,#14);
#12 = CARTESIAN_POINT('',(0.,0.,0.));
#13 = DIRECTION('',(0.,0.,1.));
#14 = DIRECTION('',(1.,0.,-0.));
#15 = MANIFOLD_SOLID_BREP('',#16);
#16 = CLOSED_SHELL('',(#17,#57,#99,#149,#237,#302,#333,#407,#424,#472,
    #496,#552,#576,#617,#657,#705,#753,#784,#854,#876,#920,#934,#951,
    #976,#1008,#1025,#1044,#1083,#1108,#1142,#1154,#1178,#1202,#1214,
    #1227,#1251,#1275,#1287,#1300,#1337,#1390,#1418,#1437,#1449,#1465));
#17 = ADVANCED_FACE('',(#18),#52,.F.);
#18 = FACE_BOUND('',#19,.F.);
#19 = EDGE_LOOP('',(#20,#30,#38,#46));
#20 = ORIENTED_EDGE('',*,*,#21,.F.);
#21 = EDGE_CURVE('',#22,#24,#26,.T.);
#22 = VERTEX_POINT('',#23);
#23 = CARTESIAN_POINT('',(-10.,10.,-23.));
#24 = VERTEX_POINT('',#25);
#25 = CARTESIAN_POINT('',(5.,10.,-23.));
#26 = LINE('',#27,#28);
#27 = CARTESIAN_POINT('',(-10.,10.,-23.));
#28 = VECTOR('',#29,1.);
#29 = DIRECTION('',(1.,0.,0.));
#30 = ORIENTED_EDGE('',*,*,#31,.T.);
#31 = EDGE_CURVE('',#22,#32,#34,.T.);
#32 = VERTEX_POINT('',#33);
#33 = CARTESIAN_POINT('',(-10.,-10.,-23.));
#34 = LINE('',#35,#36);
#35 = CARTESIAN_POINT('',(-10.,10.,-23.));
#36 = VECTOR('',#37,1.);
#37 = DIRECTION('',(0.,-1.,0.));
#38 = ORIENTED_EDGE('',*,*,#39,.T.);
#39 = EDGE_CURVE('',#32,#40,#42,.T.);
#40 = VERTEX_POINT('',#41);
#41 = CARTESIAN_POINT('',(5.,-10.,-23.));
#42 = LINE('',#43,#44);
#43 = CARTESIAN_POINT('',(-10.,-10.,-23.));
#44 = VECTOR('',#45,1.);
#45 = DIRECTION('',(1.,0.,0.));
#46 = ORIENTED_EDGE('',*,*,#47,.T.);
#47 = EDGE_CURVE('',#40,#24,#48,.T.);
#48 = LINE('',#49,#50);
#49 = CARTESIAN_POINT('',(5.,-10.,-23.));
#50 = VECTOR('',#51,1.);
#51 = DIRECTION('',(0.,1.,0.));
#52 = PLANE('',#53);
#53 = AXIS2_PLACEMENT_3D('',#54,#55,#56);
#54 = CARTESIAN_POINT('',(0.,0.,-23.));
#55 = DIRECTION('',(0.,0.,1.));
#56 = DIRECTION('',(1.,0.,0.));
#57 = ADVANCED_FACE('',(#58,#83),#94,.F.);
#58 = FACE_BOUND('',#59,.F.);
#59 = EDGE_LOOP('',(#60,#68,#76,#82));
#60 = ORIENTED_EDGE('',*,*,#61,.T.);
#61 = EDGE_CURVE('',#40,#62,#64,.T.);
#62 = VERTEX_POINT('',#63);
#63 = CARTESIAN_POINT('',(5.,-10.,-103.));
#64 = LINE('',#65,#66);
#65 = CARTESIAN_POINT('',(5.,-10.,-23.));
#66 = VECTOR('',#67,1.);
#67 = DIRECTION('',(0.,0.,-1.));
#68 = ORIENTED_EDGE('',*,*,#69,.T.);
#69 = EDGE_CURVE('',#62,#70,#72,.T.);
#70 = VERTEX_POINT('',#71);
#71 = CARTESIAN_POINT('',(5.,10.,-103.));
#72 = LINE('',#73,#74);
#73 = CARTESIAN_POINT('',(5.,-10.,-103.));
#74 = VECTOR('',#75,1.);
#75 = DIRECTION('',(0.,1.,0.));
#76 = ORIENTED_EDGE('',*,*,#77,.F.);
#77 = EDGE_CURVE('',#24,#70,#78,.T.);
#78 = LINE('',#79,#80);
#79 = CARTESIAN_POINT('',(5.,10.,-23.));
#80 = VECTOR('',#81,1.);
#81 = DIRECTION('',(0.,0.,-1.));
#82 = ORIENTED_EDGE('',*,*,#47,.F.);
#83 = FACE_BOUND('',#84,.F.);
#84 = EDGE_LOOP('',(#85));
#85 = ORIENTED_EDGE('',*,*,#86,.F.);
#86 = EDGE_CURVE('',#87,#87,#89,.T.);
#87 = VERTEX_POINT('',#88);
#88 = CARTESIAN_POINT('',(5.,8.,-90.));
#89 = CIRCLE('',#90,8.);
#90 = AXIS2_PLACEMENT_3D('',#91,#92,#93);
#91 = CARTESIAN_POINT('',(5.,0.,-90.));
#92 = DIRECTION('',(1.,0.,0.));
#93 = DIRECTION('',(-0.,1.,0.));
#94 = PLANE('',#95);
#95 = AXIS2_PLACEMENT_3D('',#96,#97,#98);
#96 = CARTESIAN_POINT('',(5.,-10.,-23.));
#97 = DIRECTION('',(1.,0.,0.));
#98 = DIRECTION('',(0.,1.,0.));
#99 = ADVANCED_FACE('',(#100,#133),#144,.T.);
#100 = FACE_BOUND('',#101,.T.);
#101 = EDGE_LOOP('',(#102,#110,#111,#119,#127));
#102 = ORIENTED_EDGE('',*,*,#103,.T.);
#103 = EDGE_CURVE('',#104,#22,#106,.T.);
#104 = VERTEX_POINT('',#105);
#105 = CARTESIAN_POINT('',(-10.,10.,5.));
#106 = LINE('',#107,#108);
#107 = CARTESIAN_POINT('',(-10.,10.,-1.E-17));
#108 = VECTOR('',#109,1.);
#109 = DIRECTION('',(0.,0.,-1.));
#110 = ORIENTED_EDGE('',*,*,#31,.T.);
#111 = ORIENTED_EDGE('',*,*,#112,.F.);
#112 = EDGE_CURVE('',#113,#32,#115,.T.);
#113 = VERTEX_POINT('',#114);
#114 = CARTESIAN_POINT('',(-10.,-10.,5.));
#115 = LINE('',#116,#117);
#116 = CARTESIAN_POINT('',(-10.,-10.,-20.));
#117 = VECTOR('',#118,1.);
#118 = DIRECTION('',(0.,0.,-1.));
#119 = ORIENTED_EDGE('',*,*,#120,.F.);
#120 = EDGE_CURVE('',#121,#113,#123,.T.);
#121 = VERTEX_POINT('',#122);
#122 = CARTESIAN_POINT('',(-10.,-1.6E-14,5.));
#123 = LINE('',#124,#125);
#124 = CARTESIAN_POINT('',(-10.,10.,5.));
#125 = VECTOR('',#126,1.);
#126 = DIRECTION('',(0.,-1.,0.));
#127 = ORIENTED_EDGE('',*,*,#128,.F.);
#128 = EDGE_CURVE('',#104,#121,#129,.T.);
#129 = LINE('',#130,#131);
#130 = CARTESIAN_POINT('',(-10.,10.,5.));
#131 = VECTOR('',#132,1.);
#132 = DIRECTION('',(0.,-1.,0.));
#133 = FACE_BOUND('',#134,.T.);
#134 = EDGE_LOOP('',(#135));
#135 = ORIENTED_EDGE('',*,*,#136,.F.);
#136 = EDGE_CURVE('',#137,#137,#139,.T.);
#137 = VERTEX_POINT('',#138);
#138 = CARTESIAN_POINT('',(-10.,8.,-10.));
#139 = CIRCLE('',#140,8.);
#140 = AXIS2_PLACEMENT_3D('',#141,#142,#143);
#141 = CARTESIAN_POINT('',(-10.,-3.08E-15,-10.));
#142 = DIRECTION('',(-1.,0.,0.));
#143 = DIRECTION('',(0.,1.,0.));
#144 = PLANE('',#145);
#145 = AXIS2_PLACEMENT_3D('',#146,#147,#148);
#146 = CARTESIAN_POINT('',(-10.,-2.E-17,-9.));
#147 = DIRECTION('',(-1.,-0.,-0.));
#148 = DIRECTION('',(0.,0.,-1.));
#149 = ADVANCED_FACE('',(#150),#232,.T.);
#150 = FACE_BOUND('',#151,.T.);
#151 = EDGE_LOOP('',(#152,#160,#161,#162,#170,#178,#186,#194,#202,#210,
    #218,#226));
#152 = ORIENTED_EDGE('',*,*,#153,.F.);
#153 = EDGE_CURVE('',#104,#154,#156,.T.);
#154 = VERTEX_POINT('',#155);
#155 = CARTESIAN_POINT('',(-5.5,10.,5.));
#156 = LINE('',#157,#158);
#157 = CARTESIAN_POINT('',(-10.,10.,5.));
#158 = VECTOR('',#159,1.);
#159 = DIRECTION('',(1.,0.,0.));
#160 = ORIENTED_EDGE('',*,*,#128,.T.);
#161 = ORIENTED_EDGE('',*,*,#120,.T.);
#162 = ORIENTED_EDGE('',*,*,#163,.T.);
#163 = EDGE_CURVE('',#113,#164,#166,.T.);
#164 = VERTEX_POINT('',#165);
#165 = CARTESIAN_POINT('',(-5.5,-10.,5.));
#166 = LINE('',#167,#168);
#167 = CARTESIAN_POINT('',(-10.,-10.,5.));
#168 = VECTOR('',#169,1.);
#169 = DIRECTION('',(1.,0.,0.));
#170 = ORIENTED_EDGE('',*,*,#171,.T.);
#171 = EDGE_CURVE('',#164,#172,#174,.T.);
#172 = VERTEX_POINT('',#173);
#173 = CARTESIAN_POINT('',(-5.5,-4.681818181818,5.));
#174 = LINE('',#175,#176);
#175 = CARTESIAN_POINT('',(-5.5,-10.,5.));
#176 = VECTOR('',#177,1.);
#177 = DIRECTION('',(0.,1.,0.));
#178 = ORIENTED_EDGE('',*,*,#179,.T.);
#179 = EDGE_CURVE('',#172,#180,#182,.T.);
#180 = VERTEX_POINT('',#181);
#181 = CARTESIAN_POINT('',(-6.2,-5.,5.));
#182 = LINE('',#183,#184);
#183 = CARTESIAN_POINT('',(-4.,-4.,5.));
#184 = VECTOR('',#185,1.);
#185 = DIRECTION('',(-0.910366477463,-0.413802944301,0.));
#186 = ORIENTED_EDGE('',*,*,#187,.F.);
#187 = EDGE_CURVE('',#188,#180,#190,.T.);
#188 = VERTEX_POINT('',#189);
#189 = CARTESIAN_POINT('',(-7.95,-5.,5.));
#190 = LINE('',#191,#192);
#191 = CARTESIAN_POINT('',(-7.95,-5.,5.));
#192 = VECTOR('',#193,1.);
#193 = DIRECTION('',(1.,0.,0.));
#194 = ORIENTED_EDGE('',*,*,#195,.F.);
#195 = EDGE_CURVE('',#196,#188,#198,.T.);
#196 = VERTEX_POINT('',#197);
#197 = CARTESIAN_POINT('',(-7.95,-5.5E-14,5.));
#198 = LINE('',#199,#200);
#199 = CARTESIAN_POINT('',(-7.95,5.,5.));
#200 = VECTOR('',#201,1.);
#201 = DIRECTION('',(0.,-1.,0.));
#202 = ORIENTED_EDGE('',*,*,#203,.F.);
#203 = EDGE_CURVE('',#204,#196,#206,.T.);
#204 = VERTEX_POINT('',#205);
#205 = CARTESIAN_POINT('',(-7.95,5.,5.));
#206 = LINE('',#207,#208);
#207 = CARTESIAN_POINT('',(-7.95,5.,5.));
#208 = VECTOR('',#209,1.);
#209 = DIRECTION('',(0.,-1.,0.));
#210 = ORIENTED_EDGE('',*,*,#211,.F.);
#211 = EDGE_CURVE('',#212,#204,#214,.T.);
#212 = VERTEX_POINT('',#213);
#213 = CARTESIAN_POINT('',(-6.2,5.,5.));
#214 = LINE('',#215,#216);
#215 = CARTESIAN_POINT('',(-6.2,5.,5.));
#216 = VECTOR('',#217,1.);
#217 = DIRECTION('',(-1.,0.,0.));
#218 = ORIENTED_EDGE('',*,*,#219,.F.);
#219 = EDGE_CURVE('',#220,#212,#222,.T.);
#220 = VERTEX_POINT('',#221);
#221 = CARTESIAN_POINT('',(-5.5,4.681818181818,5.));
#222 = LINE('',#223,#224);
#223 = CARTESIAN_POINT('',(-4.,4.,5.));
#224 = VECTOR('',#225,1.);
#225 = DIRECTION('',(-0.910366477463,0.413802944301,0.));
#226 = ORIENTED_EDGE('',*,*,#227,.F.);
#227 = EDGE_CURVE('',#154,#220,#228,.T.);
#228 = LINE('',#229,#230);
#229 = CARTESIAN_POINT('',(-5.5,10.,5.));
#230 = VECTOR('',#231,1.);
#231 = DIRECTION('',(0.,-1.,0.));
#232 = PLANE('',#233);
#233 = AXIS2_PLACEMENT_3D('',#234,#235,#236);
#234 = CARTESIAN_POINT('',(-8.07526821987,-7.34E-15,5.));
#235 = DIRECTION('',(0.,0.,1.));
#236 = DIRECTION('',(1.,0.,0.));
#237 = ADVANCED_FACE('',(#238,#286),#297,.T.);
#238 = FACE_BOUND('',#239,.T.);
#239 = EDGE_LOOP('',(#240,#250,#256,#257,#265,#273,#279,#280));
#240 = ORIENTED_EDGE('',*,*,#241,.T.);
#241 = EDGE_CURVE('',#242,#244,#246,.T.);
#242 = VERTEX_POINT('',#243);
#243 = CARTESIAN_POINT('',(-5.5,-10.,-20.));
#244 = VERTEX_POINT('',#245);
#245 = CARTESIAN_POINT('',(-5.5,10.,-20.));
#246 = LINE('',#247,#248);
#247 = CARTESIAN_POINT('',(-5.5,-10.,-20.));
#248 = VECTOR('',#249,1.);
#249 = DIRECTION('',(0.,1.,0.));
#250 = ORIENTED_EDGE('',*,*,#251,.F.);
#251 = EDGE_CURVE('',#154,#244,#252,.T.);
#252 = LINE('',#253,#254);
#253 = CARTESIAN_POINT('',(-5.5,10.,-1.E-17));
#254 = VECTOR('',#255,1.);
#255 = DIRECTION('',(0.,0.,-1.));
#256 = ORIENTED_EDGE('',*,*,#227,.T.);
#257 = ORIENTED_EDGE('',*,*,#258,.T.);
#258 = EDGE_CURVE('',#220,#259,#261,.T.);
#259 = VERTEX_POINT('',#260);
#260 = CARTESIAN_POINT('',(-5.5,4.681818181818,0.));
#261 = LINE('',#262,#263);
#262 = CARTESIAN_POINT('',(-5.5,4.681818181818,5.));
#263 = VECTOR('',#264,1.);
#264 = DIRECTION('',(-0.,-0.,-1.));
#265 = ORIENTED_EDGE('',*,*,#266,.F.);
#266 = EDGE_CURVE('',#267,#259,#269,.T.);
#267 = VERTEX_POINT('',#268);
#268 = CARTESIAN_POINT('',(-5.5,-4.681818181818,0.));
#269 = LINE('',#270,#271);
#270 = CARTESIAN_POINT('',(-5.5,-10.,0.));
#271 = VECTOR('',#272,1.);
#272 = DIRECTION('',(0.,1.,0.));
#273 = ORIENTED_EDGE('',*,*,#274,.F.);
#274 = EDGE_CURVE('',#172,#267,#275,.T.);
#275 = LINE('',#276,#277);
#276 = CARTESIAN_POINT('',(-5.5,-4.681818181818,5.));
#277 = VECTOR('',#278,1.);
#278 = DIRECTION('',(-0.,-0.,-1.));
#279 = ORIENTED_EDGE('',*,*,#171,.F.);
#280 = ORIENTED_EDGE('',*,*,#281,.F.);
#281 = EDGE_CURVE('',#242,#164,#282,.T.);
#282 = LINE('',#283,#284);
#283 = CARTESIAN_POINT('',(-5.5,-10.,0.));
#284 = VECTOR('',#285,1.);
#285 = DIRECTION('',(0.,0.,1.));
#286 = FACE_BOUND('',#287,.T.);
#287 = EDGE_LOOP('',(#288));
#288 = ORIENTED_EDGE('',*,*,#289,.T.);
#289 = EDGE_CURVE('',#290,#290,#292,.T.);
#290 = VERTEX_POINT('',#291);
#291 = CARTESIAN_POINT('',(-5.5,8.,-10.));
#292 = CIRCLE('',#293,8.);
#293 = AXIS2_PLACEMENT_3D('',#294,#295,#296);
#294 = CARTESIAN_POINT('',(-5.5,-3.08E-15,-10.));
#295 = DIRECTION('',(-1.,0.,0.));
#296 = DIRECTION('',(0.,1.,0.));
#297 = PLANE('',#298);
#298 = AXIS2_PLACEMENT_3D('',#299,#300,#301);
#299 = CARTESIAN_POINT('',(-5.5,0.,-6.968181818182));
#300 = DIRECTION('',(1.,5.6E-16,2.3E-16));
#301 = DIRECTION('',(-5.6E-16,1.,0.));
#302 = ADVANCED_FACE('',(#303),#328,.T.);
#303 = FACE_BOUND('',#304,.T.);
#304 = EDGE_LOOP('',(#305,#313,#314,#322));
#305 = ORIENTED_EDGE('',*,*,#306,.F.);
#306 = EDGE_CURVE('',#244,#307,#309,.T.);
#307 = VERTEX_POINT('',#308);
#308 = CARTESIAN_POINT('',(5.5,10.,-20.));
#309 = LINE('',#310,#311);
#310 = CARTESIAN_POINT('',(-10.,10.,-20.));
#311 = VECTOR('',#312,1.);
#312 = DIRECTION('',(1.,0.,0.));
#313 = ORIENTED_EDGE('',*,*,#241,.F.);
#314 = ORIENTED_EDGE('',*,*,#315,.T.);
#315 = EDGE_CURVE('',#242,#316,#318,.T.);
#316 = VERTEX_POINT('',#317);
#317 = CARTESIAN_POINT('',(5.5,-10.,-20.));
#318 = LINE('',#319,#320);
#319 = CARTESIAN_POINT('',(-10.,-10.,-20.));
#320 = VECTOR('',#321,1.);
#321 = DIRECTION('',(1.,0.,0.));
#322 = ORIENTED_EDGE('',*,*,#323,.T.);
#323 = EDGE_CURVE('',#316,#307,#324,.T.);
#324 = LINE('',#325,#326);
#325 = CARTESIAN_POINT('',(5.5,-10.,-20.));
#326 = VECTOR('',#327,1.);
#327 = DIRECTION('',(0.,1.,0.));
#328 = PLANE('',#329);
#329 = AXIS2_PLACEMENT_3D('',#330,#331,#332);
#330 = CARTESIAN_POINT('',(0.,0.,-20.));
#331 = DIRECTION('',(0.,0.,1.));
#332 = DIRECTION('',(1.,0.,0.));
#333 = ADVANCED_FACE('',(#334,#391),#402,.T.);
#334 = FACE_BOUND('',#335,.T.);
#335 = EDGE_LOOP('',(#336,#344,#352,#360,#368,#376,#384,#390));
#336 = ORIENTED_EDGE('',*,*,#337,.F.);
#337 = EDGE_CURVE('',#338,#316,#340,.T.);
#338 = VERTEX_POINT('',#339);
#339 = CARTESIAN_POINT('',(5.5,-10.,5.));
#340 = LINE('',#341,#342);
#341 = CARTESIAN_POINT('',(5.5,-10.,-1.E-17));
#342 = VECTOR('',#343,1.);
#343 = DIRECTION('',(0.,0.,-1.));
#344 = ORIENTED_EDGE('',*,*,#345,.F.);
#345 = EDGE_CURVE('',#346,#338,#348,.T.);
#346 = VERTEX_POINT('',#347);
#347 = CARTESIAN_POINT('',(5.5,-4.681818181818,5.));
#348 = LINE('',#349,#350);
#349 = CARTESIAN_POINT('',(5.5,-4.,5.));
#350 = VECTOR('',#351,1.);
#351 = DIRECTION('',(0.,-1.,0.));
#352 = ORIENTED_EDGE('',*,*,#353,.T.);
#353 = EDGE_CURVE('',#346,#354,#356,.T.);
#354 = VERTEX_POINT('',#355);
#355 = CARTESIAN_POINT('',(5.5,-4.681818181818,0.));
#356 = LINE('',#357,#358);
#357 = CARTESIAN_POINT('',(5.5,-4.681818181818,5.));
#358 = VECTOR('',#359,1.);
#359 = DIRECTION('',(-0.,-0.,-1.));
#360 = ORIENTED_EDGE('',*,*,#361,.T.);
#361 = EDGE_CURVE('',#354,#362,#364,.T.);
#362 = VERTEX_POINT('',#363);
#363 = CARTESIAN_POINT('',(5.5,4.681818181818,0.));
#364 = LINE('',#365,#366);
#365 = CARTESIAN_POINT('',(5.5,-10.,0.));
#366 = VECTOR('',#367,1.);
#367 = DIRECTION('',(0.,1.,0.));
#368 = ORIENTED_EDGE('',*,*,#369,.F.);
#369 = EDGE_CURVE('',#370,#362,#372,.T.);
#370 = VERTEX_POINT('',#371);
#371 = CARTESIAN_POINT('',(5.5,4.681818181818,5.));
#372 = LINE('',#373,#374);
#373 = CARTESIAN_POINT('',(5.5,4.681818181818,5.));
#374 = VECTOR('',#375,1.);
#375 = DIRECTION('',(-0.,-0.,-1.));
#376 = ORIENTED_EDGE('',*,*,#377,.T.);
#377 = EDGE_CURVE('',#370,#378,#380,.T.);
#378 = VERTEX_POINT('',#379);
#379 = CARTESIAN_POINT('',(5.5,10.,5.));
#380 = LINE('',#381,#382);
#381 = CARTESIAN_POINT('',(5.5,3.999999999999,5.));
#382 = VECTOR('',#383,1.);
#383 = DIRECTION('',(0.,1.,0.));
#384 = ORIENTED_EDGE('',*,*,#385,.F.);
#385 = EDGE_CURVE('',#307,#378,#386,.T.);
#386 = LINE('',#387,#388);
#387 = CARTESIAN_POINT('',(5.5,10.,0.));
#388 = VECTOR('',#389,1.);
#389 = DIRECTION('',(0.,0.,1.));
#390 = ORIENTED_EDGE('',*,*,#323,.F.);
#391 = FACE_BOUND('',#392,.T.);
#392 = EDGE_LOOP('',(#393));
#393 = ORIENTED_EDGE('',*,*,#394,.F.);
#394 = EDGE_CURVE('',#395,#395,#397,.T.);
#395 = VERTEX_POINT('',#396);
#396 = CARTESIAN_POINT('',(5.5,8.,-10.));
#397 = CIRCLE('',#398,8.);
#398 = AXIS2_PLACEMENT_3D('',#399,#400,#401);
#399 = CARTESIAN_POINT('',(5.5,-3.08E-15,-10.));
#400 = DIRECTION('',(-1.,0.,0.));
#401 = DIRECTION('',(0.,1.,0.));
#402 = PLANE('',#403);
#403 = AXIS2_PLACEMENT_3D('',#404,#405,#406);
#404 = CARTESIAN_POINT('',(5.5,1.42E-15,-6.968181818182));
#405 = DIRECTION('',(-1.,5.6E-16,2.3E-16));
#406 = DIRECTION('',(-5.6E-16,-1.,0.));
#407 = ADVANCED_FACE('',(#408),#419,.F.);
#408 = FACE_BOUND('',#409,.T.);
#409 = EDGE_LOOP('',(#410,#411,#417,#418));
#410 = ORIENTED_EDGE('',*,*,#136,.T.);
#411 = ORIENTED_EDGE('',*,*,#412,.T.);
#412 = EDGE_CURVE('',#137,#290,#413,.T.);
#413 = LINE('',#414,#415);
#414 = CARTESIAN_POINT('',(-139.4916415303,8.,-10.));
#415 = VECTOR('',#416,1.);
#416 = DIRECTION('',(1.,0.,0.));
#417 = ORIENTED_EDGE('',*,*,#289,.F.);
#418 = ORIENTED_EDGE('',*,*,#412,.F.);
#419 = CYLINDRICAL_SURFACE('',#420,8.);
#420 = AXIS2_PLACEMENT_3D('',#421,#422,#423);
#421 = CARTESIAN_POINT('',(-139.4916415303,-3.08E-15,-10.));
#422 = DIRECTION('',(-1.,-0.,-0.));
#423 = DIRECTION('',(0.,1.,0.));
#424 = ADVANCED_FACE('',(#425),#467,.T.);
#425 = FACE_BOUND('',#426,.T.);
#426 = EDGE_LOOP('',(#427,#437,#445,#451,#452,#453,#461));
#427 = ORIENTED_EDGE('',*,*,#428,.T.);
#428 = EDGE_CURVE('',#429,#431,#433,.T.);
#429 = VERTEX_POINT('',#430);
#430 = CARTESIAN_POINT('',(-4.,-4.,5.));
#431 = VERTEX_POINT('',#432);
#432 = CARTESIAN_POINT('',(-4.,-4.,40.));
#433 = LINE('',#434,#435);
#434 = CARTESIAN_POINT('',(-4.,-4.,5.));
#435 = VECTOR('',#436,1.);
#436 = DIRECTION('',(0.,0.,1.));
#437 = ORIENTED_EDGE('',*,*,#438,.T.);
#438 = EDGE_CURVE('',#431,#439,#441,.T.);
#439 = VERTEX_POINT('',#440);
#440 = CARTESIAN_POINT('',(-6.2,-5.,40.));
#441 = LINE('',#442,#443);
#442 = CARTESIAN_POINT('',(-4.,-4.,40.));
#443 = VECTOR('',#444,1.);
#444 = DIRECTION('',(-0.910366477463,-0.413802944301,0.));
#445 = ORIENTED_EDGE('',*,*,#446,.F.);
#446 = EDGE_CURVE('',#180,#439,#447,.T.);
#447 = LINE('',#448,#449);
#448 = CARTESIAN_POINT('',(-6.2,-5.,5.));
#449 = VECTOR('',#450,1.);
#450 = DIRECTION('',(0.,0.,1.));
#451 = ORIENTED_EDGE('',*,*,#179,.F.);
#452 = ORIENTED_EDGE('',*,*,#274,.T.);
#453 = ORIENTED_EDGE('',*,*,#454,.T.);
#454 = EDGE_CURVE('',#267,#455,#457,.T.);
#455 = VERTEX_POINT('',#456);
#456 = CARTESIAN_POINT('',(-4.,-4.,0.));
#457 = LINE('',#458,#459);
#458 = CARTESIAN_POINT('',(-1.58904109589,-2.904109589041,0.));
#459 = VECTOR('',#460,1.);
#460 = DIRECTION('',(0.910366477463,0.413802944301,0.));
#461 = ORIENTED_EDGE('',*,*,#462,.F.);
#462 = EDGE_CURVE('',#429,#455,#463,.T.);
#463 = LINE('',#464,#465);
#464 = CARTESIAN_POINT('',(-4.,-4.,5.));
#465 = VECTOR('',#466,1.);
#466 = DIRECTION('',(-0.,-0.,-1.));
#467 = PLANE('',#468);
#468 = AXIS2_PLACEMENT_3D('',#469,#470,#471);
#469 = CARTESIAN_POINT('',(-5.058742576712,-4.481246625778,
    20.045319576577));
#470 = DIRECTION('',(0.413802944301,-0.910366477463,0.));
#471 = DIRECTION('',(-0.910366477463,-0.413802944301,0.));
#472 = ADVANCED_FACE('',(#473),#491,.F.);
#473 = FACE_BOUND('',#474,.F.);
#474 = EDGE_LOOP('',(#475,#483,#489,#490));
#475 = ORIENTED_EDGE('',*,*,#476,.T.);
#476 = EDGE_CURVE('',#188,#477,#479,.T.);
#477 = VERTEX_POINT('',#478);
#478 = CARTESIAN_POINT('',(-7.95,-5.,40.));
#479 = LINE('',#480,#481);
#480 = CARTESIAN_POINT('',(-7.95,-5.,5.));
#481 = VECTOR('',#482,1.);
#482 = DIRECTION('',(0.,0.,1.));
#483 = ORIENTED_EDGE('',*,*,#484,.T.);
#484 = EDGE_CURVE('',#477,#439,#485,.T.);
#485 = LINE('',#486,#487);
#486 = CARTESIAN_POINT('',(-7.95,-5.,40.));
#487 = VECTOR('',#488,1.);
#488 = DIRECTION('',(1.,0.,0.));
#489 = ORIENTED_EDGE('',*,*,#446,.F.);
#490 = ORIENTED_EDGE('',*,*,#187,.F.);
#491 = PLANE('',#492);
#492 = AXIS2_PLACEMENT_3D('',#493,#494,#495);
#493 = CARTESIAN_POINT('',(-7.95,-5.,5.));
#494 = DIRECTION('',(0.,1.,0.));
#495 = DIRECTION('',(1.,0.,0.));
#496 = ADVANCED_FACE('',(#497,#516,#527),#547,.T.);
#497 = FACE_BOUND('',#498,.T.);
#498 = EDGE_LOOP('',(#499,#507,#508,#509,#510));
#499 = ORIENTED_EDGE('',*,*,#500,.F.);
#500 = EDGE_CURVE('',#204,#501,#503,.T.);
#501 = VERTEX_POINT('',#502);
#502 = CARTESIAN_POINT('',(-7.95,5.,40.));
#503 = LINE('',#504,#505);
#504 = CARTESIAN_POINT('',(-7.95,5.,5.));
#505 = VECTOR('',#506,1.);
#506 = DIRECTION('',(0.,0.,1.));
#507 = ORIENTED_EDGE('',*,*,#203,.T.);
#508 = ORIENTED_EDGE('',*,*,#195,.T.);
#509 = ORIENTED_EDGE('',*,*,#476,.T.);
#510 = ORIENTED_EDGE('',*,*,#511,.F.);
#511 = EDGE_CURVE('',#501,#477,#512,.T.);
#512 = LINE('',#513,#514);
#513 = CARTESIAN_POINT('',(-7.95,5.,40.));
#514 = VECTOR('',#515,1.);
#515 = DIRECTION('',(0.,-1.,0.));
#516 = FACE_BOUND('',#517,.T.);
#517 = EDGE_LOOP('',(#518));
#518 = ORIENTED_EDGE('',*,*,#519,.F.);
#519 = EDGE_CURVE('',#520,#520,#522,.T.);
#520 = VERTEX_POINT('',#521);
#521 = CARTESIAN_POINT('',(-7.95,-3.,34.));
#522 = CIRCLE('',#523,3.);
#523 = AXIS2_PLACEMENT_3D('',#524,#525,#526);
#524 = CARTESIAN_POINT('',(-7.95,0.,34.));
#525 = DIRECTION('',(-1.,0.,0.));
#526 = DIRECTION('',(0.,-1.,0.));
#527 = FACE_BOUND('',#528,.T.);
#528 = EDGE_LOOP('',(#529,#540));
#529 = ORIENTED_EDGE('',*,*,#530,.F.);
#530 = EDGE_CURVE('',#531,#533,#535,.T.);
#531 = VERTEX_POINT('',#532);
#532 = CARTESIAN_POINT('',(-7.95,-5.5E-14,5.));
#533 = VERTEX_POINT('',#534);
#534 = CARTESIAN_POINT('',(-7.95,-3.,8.));
#535 = CIRCLE('',#536,3.);
#536 = AXIS2_PLACEMENT_3D('',#537,#538,#539);
#537 = CARTESIAN_POINT('',(-7.95,0.,8.));
#538 = DIRECTION('',(-1.,0.,0.));
#539 = DIRECTION('',(0.,-1.,0.));
#540 = ORIENTED_EDGE('',*,*,#541,.F.);
#541 = EDGE_CURVE('',#533,#531,#542,.T.);
#542 = CIRCLE('',#543,3.);
#543 = AXIS2_PLACEMENT_3D('',#544,#545,#546);
#544 = CARTESIAN_POINT('',(-7.95,0.,8.));
#545 = DIRECTION('',(-1.,0.,0.));
#546 = DIRECTION('',(0.,-1.,0.));
#547 = PLANE('',#548);
#548 = AXIS2_PLACEMENT_3D('',#549,#550,#551);
#549 = CARTESIAN_POINT('',(-7.95,0.,22.5));
#550 = DIRECTION('',(-1.,-0.,-0.));
#551 = DIRECTION('',(0.,0.,-1.));
#552 = ADVANCED_FACE('',(#553),#571,.F.);
#553 = FACE_BOUND('',#554,.F.);
#554 = EDGE_LOOP('',(#555,#563,#569,#570));
#555 = ORIENTED_EDGE('',*,*,#556,.T.);
#556 = EDGE_CURVE('',#212,#557,#559,.T.);
#557 = VERTEX_POINT('',#558);
#558 = CARTESIAN_POINT('',(-6.2,5.,40.));
#559 = LINE('',#560,#561);
#560 = CARTESIAN_POINT('',(-6.2,5.,5.));
#561 = VECTOR('',#562,1.);
#562 = DIRECTION('',(0.,0.,1.));
#563 = ORIENTED_EDGE('',*,*,#564,.T.);
#564 = EDGE_CURVE('',#557,#501,#565,.T.);
#565 = LINE('',#566,#567);
#566 = CARTESIAN_POINT('',(-6.2,5.,40.));
#567 = VECTOR('',#568,1.);
#568 = DIRECTION('',(-1.,0.,0.));
#569 = ORIENTED_EDGE('',*,*,#500,.F.);
#570 = ORIENTED_EDGE('',*,*,#211,.F.);
#571 = PLANE('',#572);
#572 = AXIS2_PLACEMENT_3D('',#573,#574,#575);
#573 = CARTESIAN_POINT('',(-6.2,5.,5.));
#574 = DIRECTION('',(0.,-1.,0.));
#575 = DIRECTION('',(-1.,0.,0.));
#576 = ADVANCED_FACE('',(#577),#612,.T.);
#577 = FACE_BOUND('',#578,.T.);
#578 = EDGE_LOOP('',(#579,#589,#597,#603,#604,#605,#606));
#579 = ORIENTED_EDGE('',*,*,#580,.F.);
#580 = EDGE_CURVE('',#581,#583,#585,.T.);
#581 = VERTEX_POINT('',#582);
#582 = CARTESIAN_POINT('',(-4.,4.,5.));
#583 = VERTEX_POINT('',#584);
#584 = CARTESIAN_POINT('',(-4.,4.,40.));
#585 = LINE('',#586,#587);
#586 = CARTESIAN_POINT('',(-4.,4.,5.));
#587 = VECTOR('',#588,1.);
#588 = DIRECTION('',(0.,0.,1.));
#589 = ORIENTED_EDGE('',*,*,#590,.T.);
#590 = EDGE_CURVE('',#581,#591,#593,.T.);
#591 = VERTEX_POINT('',#592);
#592 = CARTESIAN_POINT('',(-4.,4.,0.));
#593 = LINE('',#594,#595);
#594 = CARTESIAN_POINT('',(-4.,4.,5.));
#595 = VECTOR('',#596,1.);
#596 = DIRECTION('',(-0.,-0.,-1.));
#597 = ORIENTED_EDGE('',*,*,#598,.F.);
#598 = EDGE_CURVE('',#259,#591,#599,.T.);
#599 = LINE('',#600,#601);
#600 = CARTESIAN_POINT('',(-1.58904109589,2.904109589041,-4.4E-16));
#601 = VECTOR('',#602,1.);
#602 = DIRECTION('',(0.910366477463,-0.413802944301,0.));
#603 = ORIENTED_EDGE('',*,*,#258,.F.);
#604 = ORIENTED_EDGE('',*,*,#219,.T.);
#605 = ORIENTED_EDGE('',*,*,#556,.T.);
#606 = ORIENTED_EDGE('',*,*,#607,.F.);
#607 = EDGE_CURVE('',#583,#557,#608,.T.);
#608 = LINE('',#609,#610);
#609 = CARTESIAN_POINT('',(-4.,4.,40.));
#610 = VECTOR('',#611,1.);
#611 = DIRECTION('',(-0.910366477463,0.413802944301,0.));
#612 = PLANE('',#613);
#613 = AXIS2_PLACEMENT_3D('',#614,#615,#616);
#614 = CARTESIAN_POINT('',(-5.058742576712,4.481246625778,
    20.045319576577));
#615 = DIRECTION('',(0.413802944301,0.910366477463,0.));
#616 = DIRECTION('',(0.910366477463,-0.413802944301,0.));
#617 = ADVANCED_FACE('',(#618),#652,.T.);
#618 = FACE_BOUND('',#619,.T.);
#619 = EDGE_LOOP('',(#620,#621,#622,#630,#636,#637,#645,#651));
#620 = ORIENTED_EDGE('',*,*,#266,.T.);
#621 = ORIENTED_EDGE('',*,*,#598,.T.);
#622 = ORIENTED_EDGE('',*,*,#623,.T.);
#623 = EDGE_CURVE('',#591,#624,#626,.T.);
#624 = VERTEX_POINT('',#625);
#625 = CARTESIAN_POINT('',(4.,4.,0.));
#626 = LINE('',#627,#628);
#627 = CARTESIAN_POINT('',(-5.5,3.999999999999,0.));
#628 = VECTOR('',#629,1.);
#629 = DIRECTION('',(1.,0.,0.));
#630 = ORIENTED_EDGE('',*,*,#631,.T.);
#631 = EDGE_CURVE('',#624,#362,#632,.T.);
#632 = LINE('',#633,#634);
#633 = CARTESIAN_POINT('',(2.33904109589,3.24501867995,0.));
#634 = VECTOR('',#635,1.);
#635 = DIRECTION('',(0.910366477463,0.413802944301,0.));
#636 = ORIENTED_EDGE('',*,*,#361,.F.);
#637 = ORIENTED_EDGE('',*,*,#638,.T.);
#638 = EDGE_CURVE('',#354,#639,#641,.T.);
#639 = VERTEX_POINT('',#640);
#640 = CARTESIAN_POINT('',(4.,-4.,0.));
#641 = LINE('',#642,#643);
#642 = CARTESIAN_POINT('',(1.58904109589,-2.904109589041,0.));
#643 = VECTOR('',#644,1.);
#644 = DIRECTION('',(-0.910366477463,0.413802944301,0.));
#645 = ORIENTED_EDGE('',*,*,#646,.F.);
#646 = EDGE_CURVE('',#455,#639,#647,.T.);
#647 = LINE('',#648,#649);
#648 = CARTESIAN_POINT('',(-5.5,-4.,0.));
#649 = VECTOR('',#650,1.);
#650 = DIRECTION('',(1.,0.,0.));
#651 = ORIENTED_EDGE('',*,*,#454,.F.);
#652 = PLANE('',#653);
#653 = AXIS2_PLACEMENT_3D('',#654,#655,#656);
#654 = CARTESIAN_POINT('',(-1.4E-16,-1.1426E-13,-1.E-17));
#655 = DIRECTION('',(-0.,-0.,-1.));
#656 = DIRECTION('',(-1.,0.,0.));
#657 = ADVANCED_FACE('',(#658),#700,.T.);
#658 = FACE_BOUND('',#659,.T.);
#659 = EDGE_LOOP('',(#660,#661,#669,#677,#685,#693,#699));
#660 = ORIENTED_EDGE('',*,*,#353,.F.);
#661 = ORIENTED_EDGE('',*,*,#662,.T.);
#662 = EDGE_CURVE('',#346,#663,#665,.T.);
#663 = VERTEX_POINT('',#664);
#664 = CARTESIAN_POINT('',(6.2,-5.,5.));
#665 = LINE('',#666,#667);
#666 = CARTESIAN_POINT('',(4.,-4.,5.));
#667 = VECTOR('',#668,1.);
#668 = DIRECTION('',(0.910366477463,-0.413802944301,0.));
#669 = ORIENTED_EDGE('',*,*,#670,.T.);
#670 = EDGE_CURVE('',#663,#671,#673,.T.);
#671 = VERTEX_POINT('',#672);
#672 = CARTESIAN_POINT('',(6.2,-5.,40.));
#673 = LINE('',#674,#675);
#674 = CARTESIAN_POINT('',(6.2,-5.,5.));
#675 = VECTOR('',#676,1.);
#676 = DIRECTION('',(0.,0.,1.));
#677 = ORIENTED_EDGE('',*,*,#678,.F.);
#678 = EDGE_CURVE('',#679,#671,#681,.T.);
#679 = VERTEX_POINT('',#680);
#680 = CARTESIAN_POINT('',(4.,-4.,40.));
#681 = LINE('',#682,#683);
#682 = CARTESIAN_POINT('',(4.,-4.,40.));
#683 = VECTOR('',#684,1.);
#684 = DIRECTION('',(0.910366477463,-0.413802944301,0.));
#685 = ORIENTED_EDGE('',*,*,#686,.F.);
#686 = EDGE_CURVE('',#687,#679,#689,.T.);
#687 = VERTEX_POINT('',#688);
#688 = CARTESIAN_POINT('',(4.,-4.,5.));
#689 = LINE('',#690,#691);
#690 = CARTESIAN_POINT('',(4.,-4.,5.));
#691 = VECTOR('',#692,1.);
#692 = DIRECTION('',(0.,0.,1.));
#693 = ORIENTED_EDGE('',*,*,#694,.T.);
#694 = EDGE_CURVE('',#687,#639,#695,.T.);
#695 = LINE('',#696,#697);
#696 = CARTESIAN_POINT('',(4.,-4.,5.));
#697 = VECTOR('',#698,1.);
#698 = DIRECTION('',(-0.,-0.,-1.));
#699 = ORIENTED_EDGE('',*,*,#638,.F.);
#700 = PLANE('',#701);
#701 = AXIS2_PLACEMENT_3D('',#702,#703,#704);
#702 = CARTESIAN_POINT('',(5.058742576712,-4.481246625778,
    20.045319576577));
#703 = DIRECTION('',(-0.413802944301,-0.910366477463,-0.));
#704 = DIRECTION('',(-0.910366477463,0.413802944301,0.));
#705 = ADVANCED_FACE('',(#706),#748,.T.);
#706 = FACE_BOUND('',#707,.T.);
#707 = EDGE_LOOP('',(#708,#716,#724,#732,#740,#746,#747));
#708 = ORIENTED_EDGE('',*,*,#709,.F.);
#709 = EDGE_CURVE('',#710,#624,#712,.T.);
#710 = VERTEX_POINT('',#711);
#711 = CARTESIAN_POINT('',(4.,4.,5.));
#712 = LINE('',#713,#714);
#713 = CARTESIAN_POINT('',(4.,4.,5.));
#714 = VECTOR('',#715,1.);
#715 = DIRECTION('',(-0.,-0.,-1.));
#716 = ORIENTED_EDGE('',*,*,#717,.T.);
#717 = EDGE_CURVE('',#710,#718,#720,.T.);
#718 = VERTEX_POINT('',#719);
#719 = CARTESIAN_POINT('',(4.,4.,40.));
#720 = LINE('',#721,#722);
#721 = CARTESIAN_POINT('',(4.,4.,5.));
#722 = VECTOR('',#723,1.);
#723 = DIRECTION('',(0.,0.,1.));
#724 = ORIENTED_EDGE('',*,*,#725,.F.);
#725 = EDGE_CURVE('',#726,#718,#728,.T.);
#726 = VERTEX_POINT('',#727);
#727 = CARTESIAN_POINT('',(6.2,5.,40.));
#728 = LINE('',#729,#730);
#729 = CARTESIAN_POINT('',(6.2,5.,40.));
#730 = VECTOR('',#731,1.);
#731 = DIRECTION('',(-0.910366477463,-0.413802944301,0.));
#732 = ORIENTED_EDGE('',*,*,#733,.F.);
#733 = EDGE_CURVE('',#734,#726,#736,.T.);
#734 = VERTEX_POINT('',#735);
#735 = CARTESIAN_POINT('',(6.2,5.,5.));
#736 = LINE('',#737,#738);
#737 = CARTESIAN_POINT('',(6.2,5.,5.));
#738 = VECTOR('',#739,1.);
#739 = DIRECTION('',(0.,0.,1.));
#740 = ORIENTED_EDGE('',*,*,#741,.T.);
#741 = EDGE_CURVE('',#734,#370,#742,.T.);
#742 = LINE('',#743,#744);
#743 = CARTESIAN_POINT('',(6.2,5.,5.));
#744 = VECTOR('',#745,1.);
#745 = DIRECTION('',(-0.910366477463,-0.413802944301,0.));
#746 = ORIENTED_EDGE('',*,*,#369,.T.);
#747 = ORIENTED_EDGE('',*,*,#631,.F.);
#748 = PLANE('',#749);
#749 = AXIS2_PLACEMENT_3D('',#750,#751,#752);
#750 = CARTESIAN_POINT('',(5.058742576712,4.481246625778,20.045319576577
    ));
#751 = DIRECTION('',(-0.413802944301,0.910366477463,0.));
#752 = DIRECTION('',(0.910366477463,0.413802944301,0.));
#753 = ADVANCED_FACE('',(#754),#779,.F.);
#754 = FACE_BOUND('',#755,.F.);
#755 = EDGE_LOOP('',(#756,#766,#772,#773));
#756 = ORIENTED_EDGE('',*,*,#757,.T.);
#757 = EDGE_CURVE('',#758,#760,#762,.T.);
#758 = VERTEX_POINT('',#759);
#759 = CARTESIAN_POINT('',(7.95,5.,5.));
#760 = VERTEX_POINT('',#761);
#761 = CARTESIAN_POINT('',(7.95,5.,40.));
#762 = LINE('',#763,#764);
#763 = CARTESIAN_POINT('',(7.95,5.,5.));
#764 = VECTOR('',#765,1.);
#765 = DIRECTION('',(0.,0.,1.));
#766 = ORIENTED_EDGE('',*,*,#767,.T.);
#767 = EDGE_CURVE('',#760,#726,#768,.T.);
#768 = LINE('',#769,#770);
#769 = CARTESIAN_POINT('',(7.95,5.,40.));
#770 = VECTOR('',#771,1.);
#771 = DIRECTION('',(-1.,0.,0.));
#772 = ORIENTED_EDGE('',*,*,#733,.F.);
#773 = ORIENTED_EDGE('',*,*,#774,.F.);
#774 = EDGE_CURVE('',#758,#734,#775,.T.);
#775 = LINE('',#776,#777);
#776 = CARTESIAN_POINT('',(7.95,5.,5.));
#777 = VECTOR('',#778,1.);
#778 = DIRECTION('',(-1.,0.,0.));
#779 = PLANE('',#780);
#780 = AXIS2_PLACEMENT_3D('',#781,#782,#783);
#781 = CARTESIAN_POINT('',(7.95,5.,5.));
#782 = DIRECTION('',(0.,-1.,0.));
#783 = DIRECTION('',(-1.,0.,0.));
#784 = ADVANCED_FACE('',(#785,#818,#829),#849,.F.);
#785 = FACE_BOUND('',#786,.F.);
#786 = EDGE_LOOP('',(#787,#797,#805,#811,#812));
#787 = ORIENTED_EDGE('',*,*,#788,.F.);
#788 = EDGE_CURVE('',#789,#791,#793,.T.);
#789 = VERTEX_POINT('',#790);
#790 = CARTESIAN_POINT('',(7.95,-5.,5.));
#791 = VERTEX_POINT('',#792);
#792 = CARTESIAN_POINT('',(7.95,-3.42E-13,5.));
#793 = LINE('',#794,#795);
#794 = CARTESIAN_POINT('',(7.95,-5.,5.));
#795 = VECTOR('',#796,1.);
#796 = DIRECTION('',(0.,1.,0.));
#797 = ORIENTED_EDGE('',*,*,#798,.T.);
#798 = EDGE_CURVE('',#789,#799,#801,.T.);
#799 = VERTEX_POINT('',#800);
#800 = CARTESIAN_POINT('',(7.95,-5.,40.));
#801 = LINE('',#802,#803);
#802 = CARTESIAN_POINT('',(7.95,-5.,5.));
#803 = VECTOR('',#804,1.);
#804 = DIRECTION('',(0.,0.,1.));
#805 = ORIENTED_EDGE('',*,*,#806,.T.);
#806 = EDGE_CURVE('',#799,#760,#807,.T.);
#807 = LINE('',#808,#809);
#808 = CARTESIAN_POINT('',(7.95,-5.,40.));
#809 = VECTOR('',#810,1.);
#810 = DIRECTION('',(0.,1.,0.));
#811 = ORIENTED_EDGE('',*,*,#757,.F.);
#812 = ORIENTED_EDGE('',*,*,#813,.F.);
#813 = EDGE_CURVE('',#791,#758,#814,.T.);
#814 = LINE('',#815,#816);
#815 = CARTESIAN_POINT('',(7.95,-5.,5.));
#816 = VECTOR('',#817,1.);
#817 = DIRECTION('',(0.,1.,0.));
#818 = FACE_BOUND('',#819,.F.);
#819 = EDGE_LOOP('',(#820));
#820 = ORIENTED_EDGE('',*,*,#821,.T.);
#821 = EDGE_CURVE('',#822,#822,#824,.T.);
#822 = VERTEX_POINT('',#823);
#823 = CARTESIAN_POINT('',(7.95,3.,34.));
#824 = CIRCLE('',#825,3.);
#825 = AXIS2_PLACEMENT_3D('',#826,#827,#828);
#826 = CARTESIAN_POINT('',(7.95,0.,34.));
#827 = DIRECTION('',(1.,0.,0.));
#828 = DIRECTION('',(0.,1.,0.));
#829 = FACE_BOUND('',#830,.F.);
#830 = EDGE_LOOP('',(#831,#842));
#831 = ORIENTED_EDGE('',*,*,#832,.T.);
#832 = EDGE_CURVE('',#833,#835,#837,.T.);
#833 = VERTEX_POINT('',#834);
#834 = CARTESIAN_POINT('',(7.95,3.,8.));
#835 = VERTEX_POINT('',#836);
#836 = CARTESIAN_POINT('',(7.95,-3.42E-13,5.));
#837 = CIRCLE('',#838,3.);
#838 = AXIS2_PLACEMENT_3D('',#839,#840,#841);
#839 = CARTESIAN_POINT('',(7.95,0.,8.));
#840 = DIRECTION('',(1.,0.,0.));
#841 = DIRECTION('',(0.,1.,0.));
#842 = ORIENTED_EDGE('',*,*,#843,.T.);
#843 = EDGE_CURVE('',#835,#833,#844,.T.);
#844 = CIRCLE('',#845,3.);
#845 = AXIS2_PLACEMENT_3D('',#846,#847,#848);
#846 = CARTESIAN_POINT('',(7.95,0.,8.));
#847 = DIRECTION('',(1.,0.,0.));
#848 = DIRECTION('',(0.,1.,0.));
#849 = PLANE('',#850);
#850 = AXIS2_PLACEMENT_3D('',#851,#852,#853);
#851 = CARTESIAN_POINT('',(7.95,-5.,5.));
#852 = DIRECTION('',(-1.,0.,0.));
#853 = DIRECTION('',(0.,1.,0.));
#854 = ADVANCED_FACE('',(#855),#871,.F.);
#855 = FACE_BOUND('',#856,.F.);
#856 = EDGE_LOOP('',(#857,#858,#864,#865));
#857 = ORIENTED_EDGE('',*,*,#670,.T.);
#858 = ORIENTED_EDGE('',*,*,#859,.T.);
#859 = EDGE_CURVE('',#671,#799,#860,.T.);
#860 = LINE('',#861,#862);
#861 = CARTESIAN_POINT('',(6.2,-5.,40.));
#862 = VECTOR('',#863,1.);
#863 = DIRECTION('',(1.,0.,0.));
#864 = ORIENTED_EDGE('',*,*,#798,.F.);
#865 = ORIENTED_EDGE('',*,*,#866,.F.);
#866 = EDGE_CURVE('',#663,#789,#867,.T.);
#867 = LINE('',#868,#869);
#868 = CARTESIAN_POINT('',(6.2,-5.,5.));
#869 = VECTOR('',#870,1.);
#870 = DIRECTION('',(1.,0.,0.));
#871 = PLANE('',#872);
#872 = AXIS2_PLACEMENT_3D('',#873,#874,#875);
#873 = CARTESIAN_POINT('',(6.2,-5.,5.));
#874 = DIRECTION('',(0.,1.,0.));
#875 = DIRECTION('',(1.,0.,0.));
#876 = ADVANCED_FACE('',(#877,#893,#904),#915,.T.);
#877 = FACE_BOUND('',#878,.T.);
#878 = EDGE_LOOP('',(#879,#880,#886,#887));
#879 = ORIENTED_EDGE('',*,*,#580,.T.);
#880 = ORIENTED_EDGE('',*,*,#881,.T.);
#881 = EDGE_CURVE('',#583,#431,#882,.T.);
#882 = LINE('',#883,#884);
#883 = CARTESIAN_POINT('',(-4.,4.,40.));
#884 = VECTOR('',#885,1.);
#885 = DIRECTION('',(-1.1E-16,-1.,0.));
#886 = ORIENTED_EDGE('',*,*,#428,.F.);
#887 = ORIENTED_EDGE('',*,*,#888,.F.);
#888 = EDGE_CURVE('',#581,#429,#889,.T.);
#889 = LINE('',#890,#891);
#890 = CARTESIAN_POINT('',(-4.,4.,5.));
#891 = VECTOR('',#892,1.);
#892 = DIRECTION('',(-1.1E-16,-1.,0.));
#893 = FACE_BOUND('',#894,.T.);
#894 = EDGE_LOOP('',(#895));
#895 = ORIENTED_EDGE('',*,*,#896,.T.);
#896 = EDGE_CURVE('',#897,#897,#899,.T.);
#897 = VERTEX_POINT('',#898);
#898 = CARTESIAN_POINT('',(-4.,-1.4,8.));
#899 = CIRCLE('',#900,1.4);
#900 = AXIS2_PLACEMENT_3D('',#901,#902,#903);
#901 = CARTESIAN_POINT('',(-4.,0.,8.));
#902 = DIRECTION('',(-1.,0.,0.));
#903 = DIRECTION('',(0.,-1.,0.));
#904 = FACE_BOUND('',#905,.T.);
#905 = EDGE_LOOP('',(#906));
#906 = ORIENTED_EDGE('',*,*,#907,.T.);
#907 = EDGE_CURVE('',#908,#908,#910,.T.);
#908 = VERTEX_POINT('',#909);
#909 = CARTESIAN_POINT('',(-4.,-1.4,34.));
#910 = CIRCLE('',#911,1.4);
#911 = AXIS2_PLACEMENT_3D('',#912,#913,#914);
#912 = CARTESIAN_POINT('',(-4.,0.,34.));
#913 = DIRECTION('',(-1.,0.,0.));
#914 = DIRECTION('',(0.,-1.,0.));
#915 = PLANE('',#916);
#916 = AXIS2_PLACEMENT_3D('',#917,#918,#919);
#917 = CARTESIAN_POINT('',(-4.,0.,22.5));
#918 = DIRECTION('',(1.,0.,0.));
#919 = DIRECTION('',(0.,0.,1.));
#920 = ADVANCED_FACE('',(#921),#929,.T.);
#921 = FACE_BOUND('',#922,.F.);
#922 = EDGE_LOOP('',(#923,#924,#925,#926,#927,#928));
#923 = ORIENTED_EDGE('',*,*,#881,.T.);
#924 = ORIENTED_EDGE('',*,*,#438,.T.);
#925 = ORIENTED_EDGE('',*,*,#484,.F.);
#926 = ORIENTED_EDGE('',*,*,#511,.F.);
#927 = ORIENTED_EDGE('',*,*,#564,.F.);
#928 = ORIENTED_EDGE('',*,*,#607,.F.);
#929 = PLANE('',#930);
#930 = AXIS2_PLACEMENT_3D('',#931,#932,#933);
#931 = CARTESIAN_POINT('',(-3.E-16,3.E-17,40.));
#932 = DIRECTION('',(0.,0.,1.));
#933 = DIRECTION('',(1.,0.,0.));
#934 = ADVANCED_FACE('',(#935),#946,.F.);
#935 = FACE_BOUND('',#936,.F.);
#936 = EDGE_LOOP('',(#937,#938,#939,#945));
#937 = ORIENTED_EDGE('',*,*,#646,.F.);
#938 = ORIENTED_EDGE('',*,*,#462,.F.);
#939 = ORIENTED_EDGE('',*,*,#940,.T.);
#940 = EDGE_CURVE('',#429,#687,#941,.T.);
#941 = LINE('',#942,#943);
#942 = CARTESIAN_POINT('',(-5.5,-4.,5.));
#943 = VECTOR('',#944,1.);
#944 = DIRECTION('',(1.,0.,0.));
#945 = ORIENTED_EDGE('',*,*,#694,.T.);
#946 = PLANE('',#947);
#947 = AXIS2_PLACEMENT_3D('',#948,#949,#950);
#948 = CARTESIAN_POINT('',(-5.5,-4.,0.));
#949 = DIRECTION('',(0.,1.,0.));
#950 = DIRECTION('',(1.,0.,0.));
#951 = ADVANCED_FACE('',(#952),#971,.T.);
#952 = FACE_BOUND('',#953,.F.);
#953 = EDGE_LOOP('',(#954,#962,#963,#964));
#954 = ORIENTED_EDGE('',*,*,#955,.F.);
#955 = EDGE_CURVE('',#520,#956,#958,.T.);
#956 = VERTEX_POINT('',#957);
#957 = CARTESIAN_POINT('',(-10.,-3.,34.));
#958 = LINE('',#959,#960);
#959 = CARTESIAN_POINT('',(-7.95,-3.,34.));
#960 = VECTOR('',#961,1.);
#961 = DIRECTION('',(-1.,0.,0.));
#962 = ORIENTED_EDGE('',*,*,#519,.F.);
#963 = ORIENTED_EDGE('',*,*,#955,.T.);
#964 = ORIENTED_EDGE('',*,*,#965,.F.);
#965 = EDGE_CURVE('',#956,#956,#966,.T.);
#966 = CIRCLE('',#967,3.);
#967 = AXIS2_PLACEMENT_3D('',#968,#969,#970);
#968 = CARTESIAN_POINT('',(-10.,0.,34.));
#969 = DIRECTION('',(1.,0.,0.));
#970 = DIRECTION('',(0.,-1.,0.));
#971 = CYLINDRICAL_SURFACE('',#972,3.);
#972 = AXIS2_PLACEMENT_3D('',#973,#974,#975);
#973 = CARTESIAN_POINT('',(-7.95,0.,34.));
#974 = DIRECTION('',(1.,0.,0.));
#975 = DIRECTION('',(0.,-1.,0.));
#976 = ADVANCED_FACE('',(#977),#1003,.T.);
#977 = FACE_BOUND('',#978,.F.);
#978 = EDGE_LOOP('',(#979,#988,#993,#994,#995,#996));
#979 = ORIENTED_EDGE('',*,*,#980,.F.);
#980 = EDGE_CURVE('',#981,#121,#983,.T.);
#981 = VERTEX_POINT('',#982);
#982 = CARTESIAN_POINT('',(-10.,-3.,8.));
#983 = CIRCLE('',#984,3.);
#984 = AXIS2_PLACEMENT_3D('',#985,#986,#987);
#985 = CARTESIAN_POINT('',(-10.,0.,8.));
#986 = DIRECTION('',(1.,0.,0.));
#987 = DIRECTION('',(0.,-1.,0.));
#988 = ORIENTED_EDGE('',*,*,#989,.T.);
#989 = EDGE_CURVE('',#981,#533,#990,.T.);
#990 = B_SPLINE_CURVE_WITH_KNOTS('',1,(#991,#992),.UNSPECIFIED.,.F.,.F.,
  (2,2),(-2.05,0.),.PIECEWISE_BEZIER_KNOTS.);
#991 = CARTESIAN_POINT('',(-10.,-3.,8.));
#992 = CARTESIAN_POINT('',(-7.95,-3.,8.));
#993 = ORIENTED_EDGE('',*,*,#530,.F.);
#994 = ORIENTED_EDGE('',*,*,#541,.F.);
#995 = ORIENTED_EDGE('',*,*,#989,.F.);
#996 = ORIENTED_EDGE('',*,*,#997,.F.);
#997 = EDGE_CURVE('',#121,#981,#998,.T.);
#998 = CIRCLE('',#999,3.);
#999 = AXIS2_PLACEMENT_3D('',#1000,#1001,#1002);
#1000 = CARTESIAN_POINT('',(-10.,0.,8.));
#1001 = DIRECTION('',(1.,0.,0.));
#1002 = DIRECTION('',(0.,-1.,0.));
#1003 = CYLINDRICAL_SURFACE('',#1004,3.);
#1004 = AXIS2_PLACEMENT_3D('',#1005,#1006,#1007);
#1005 = CARTESIAN_POINT('',(-7.95,0.,8.));
#1006 = DIRECTION('',(1.,0.,0.));
#1007 = DIRECTION('',(0.,-1.,0.));
#1008 = ADVANCED_FACE('',(#1009),#1020,.T.);
#1009 = FACE_BOUND('',#1010,.T.);
#1010 = EDGE_LOOP('',(#1011,#1012,#1013,#1019));
#1011 = ORIENTED_EDGE('',*,*,#623,.F.);
#1012 = ORIENTED_EDGE('',*,*,#590,.F.);
#1013 = ORIENTED_EDGE('',*,*,#1014,.T.);
#1014 = EDGE_CURVE('',#581,#710,#1015,.T.);
#1015 = LINE('',#1016,#1017);
#1016 = CARTESIAN_POINT('',(-5.5,3.999999999999,5.));
#1017 = VECTOR('',#1018,1.);
#1018 = DIRECTION('',(1.,0.,0.));
#1019 = ORIENTED_EDGE('',*,*,#709,.T.);
#1020 = PLANE('',#1021);
#1021 = AXIS2_PLACEMENT_3D('',#1022,#1023,#1024);
#1022 = CARTESIAN_POINT('',(-5.5,3.999999999999,0.));
#1023 = DIRECTION('',(0.,1.,0.));
#1024 = DIRECTION('',(1.,0.,0.));
#1025 = ADVANCED_FACE('',(#1026),#1039,.T.);
#1026 = FACE_BOUND('',#1027,.F.);
#1027 = EDGE_LOOP('',(#1028,#1034,#1035,#1036,#1037,#1038));
#1028 = ORIENTED_EDGE('',*,*,#1029,.T.);
#1029 = EDGE_CURVE('',#679,#718,#1030,.T.);
#1030 = LINE('',#1031,#1032);
#1031 = CARTESIAN_POINT('',(4.,-4.,40.));
#1032 = VECTOR('',#1033,1.);
#1033 = DIRECTION('',(0.,1.,0.));
#1034 = ORIENTED_EDGE('',*,*,#725,.F.);
#1035 = ORIENTED_EDGE('',*,*,#767,.F.);
#1036 = ORIENTED_EDGE('',*,*,#806,.F.);
#1037 = ORIENTED_EDGE('',*,*,#859,.F.);
#1038 = ORIENTED_EDGE('',*,*,#678,.F.);
#1039 = PLANE('',#1040);
#1040 = AXIS2_PLACEMENT_3D('',#1041,#1042,#1043);
#1041 = CARTESIAN_POINT('',(-3.E-16,3.E-17,40.));
#1042 = DIRECTION('',(0.,0.,1.));
#1043 = DIRECTION('',(1.,0.,0.));
#1044 = ADVANCED_FACE('',(#1045,#1056,#1067),#1078,.T.);
#1045 = FACE_BOUND('',#1046,.T.);
#1046 = EDGE_LOOP('',(#1047,#1048,#1049,#1050));
#1047 = ORIENTED_EDGE('',*,*,#686,.T.);
#1048 = ORIENTED_EDGE('',*,*,#1029,.T.);
#1049 = ORIENTED_EDGE('',*,*,#717,.F.);
#1050 = ORIENTED_EDGE('',*,*,#1051,.F.);
#1051 = EDGE_CURVE('',#687,#710,#1052,.T.);
#1052 = LINE('',#1053,#1054);
#1053 = CARTESIAN_POINT('',(4.,-4.,5.));
#1054 = VECTOR('',#1055,1.);
#1055 = DIRECTION('',(0.,1.,0.));
#1056 = FACE_BOUND('',#1057,.T.);
#1057 = EDGE_LOOP('',(#1058));
#1058 = ORIENTED_EDGE('',*,*,#1059,.T.);
#1059 = EDGE_CURVE('',#1060,#1060,#1062,.T.);
#1060 = VERTEX_POINT('',#1061);
#1061 = CARTESIAN_POINT('',(4.,1.6,34.));
#1062 = CIRCLE('',#1063,1.6);
#1063 = AXIS2_PLACEMENT_3D('',#1064,#1065,#1066);
#1064 = CARTESIAN_POINT('',(4.,0.,34.));
#1065 = DIRECTION('',(1.,0.,0.));
#1066 = DIRECTION('',(0.,1.,0.));
#1067 = FACE_BOUND('',#1068,.T.);
#1068 = EDGE_LOOP('',(#1069));
#1069 = ORIENTED_EDGE('',*,*,#1070,.T.);
#1070 = EDGE_CURVE('',#1071,#1071,#1073,.T.);
#1071 = VERTEX_POINT('',#1072);
#1072 = CARTESIAN_POINT('',(4.,1.6,8.));
#1073 = CIRCLE('',#1074,1.6);
#1074 = AXIS2_PLACEMENT_3D('',#1075,#1076,#1077);
#1075 = CARTESIAN_POINT('',(4.,0.,8.));
#1076 = DIRECTION('',(1.,0.,0.));
#1077 = DIRECTION('',(0.,1.,0.));
#1078 = PLANE('',#1079);
#1079 = AXIS2_PLACEMENT_3D('',#1080,#1081,#1082);
#1080 = CARTESIAN_POINT('',(4.,-4.,5.));
#1081 = DIRECTION('',(-1.,0.,0.));
#1082 = DIRECTION('',(0.,1.,0.));
#1083 = ADVANCED_FACE('',(#1084),#1103,.T.);
#1084 = FACE_BOUND('',#1085,.F.);
#1085 = EDGE_LOOP('',(#1086,#1094,#1095,#1096));
#1086 = ORIENTED_EDGE('',*,*,#1087,.F.);
#1087 = EDGE_CURVE('',#822,#1088,#1090,.T.);
#1088 = VERTEX_POINT('',#1089);
#1089 = CARTESIAN_POINT('',(10.,3.,34.));
#1090 = LINE('',#1091,#1092);
#1091 = CARTESIAN_POINT('',(7.95,3.,34.));
#1092 = VECTOR('',#1093,1.);
#1093 = DIRECTION('',(1.,0.,0.));
#1094 = ORIENTED_EDGE('',*,*,#821,.F.);
#1095 = ORIENTED_EDGE('',*,*,#1087,.T.);
#1096 = ORIENTED_EDGE('',*,*,#1097,.F.);
#1097 = EDGE_CURVE('',#1088,#1088,#1098,.T.);
#1098 = CIRCLE('',#1099,3.);
#1099 = AXIS2_PLACEMENT_3D('',#1100,#1101,#1102);
#1100 = CARTESIAN_POINT('',(10.,0.,34.));
#1101 = DIRECTION('',(-1.,0.,0.));
#1102 = DIRECTION('',(0.,1.,0.));
#1103 = CYLINDRICAL_SURFACE('',#1104,3.);
#1104 = AXIS2_PLACEMENT_3D('',#1105,#1106,#1107);
#1105 = CARTESIAN_POINT('',(7.95,0.,34.));
#1106 = DIRECTION('',(-1.,-0.,-0.));
#1107 = DIRECTION('',(0.,1.,0.));
#1108 = ADVANCED_FACE('',(#1109),#1137,.T.);
#1109 = FACE_BOUND('',#1110,.F.);
#1110 = EDGE_LOOP('',(#1111,#1112,#1119,#1128,#1135,#1136));
#1111 = ORIENTED_EDGE('',*,*,#832,.F.);
#1112 = ORIENTED_EDGE('',*,*,#1113,.F.);
#1113 = EDGE_CURVE('',#1114,#833,#1116,.T.);
#1114 = VERTEX_POINT('',#1115);
#1115 = CARTESIAN_POINT('',(10.,3.,8.));
#1116 = B_SPLINE_CURVE_WITH_KNOTS('',1,(#1117,#1118),.UNSPECIFIED.,.F.,
  .F.,(2,2),(-2.05,0.),.PIECEWISE_BEZIER_KNOTS.);
#1117 = CARTESIAN_POINT('',(10.,3.,8.));
#1118 = CARTESIAN_POINT('',(7.95,3.,8.));
#1119 = ORIENTED_EDGE('',*,*,#1120,.F.);
#1120 = EDGE_CURVE('',#1121,#1114,#1123,.T.);
#1121 = VERTEX_POINT('',#1122);
#1122 = CARTESIAN_POINT('',(10.,3.915425E-09,5.));
#1123 = CIRCLE('',#1124,3.);
#1124 = AXIS2_PLACEMENT_3D('',#1125,#1126,#1127);
#1125 = CARTESIAN_POINT('',(10.,0.,8.));
#1126 = DIRECTION('',(-1.,0.,0.));
#1127 = DIRECTION('',(0.,1.,0.));
#1128 = ORIENTED_EDGE('',*,*,#1129,.F.);
#1129 = EDGE_CURVE('',#1114,#1121,#1130,.T.);
#1130 = CIRCLE('',#1131,3.);
#1131 = AXIS2_PLACEMENT_3D('',#1132,#1133,#1134);
#1132 = CARTESIAN_POINT('',(10.,0.,8.));
#1133 = DIRECTION('',(-1.,0.,0.));
#1134 = DIRECTION('',(0.,1.,0.));
#1135 = ORIENTED_EDGE('',*,*,#1113,.T.);
#1136 = ORIENTED_EDGE('',*,*,#843,.F.);
#1137 = CYLINDRICAL_SURFACE('',#1138,3.);
#1138 = AXIS2_PLACEMENT_3D('',#1139,#1140,#1141);
#1139 = CARTESIAN_POINT('',(7.95,0.,8.));
#1140 = DIRECTION('',(-1.,-0.,-0.));
#1141 = DIRECTION('',(0.,1.,0.));
#1142 = ADVANCED_FACE('',(#1143),#1149,.T.);
#1143 = FACE_BOUND('',#1144,.T.);
#1144 = EDGE_LOOP('',(#1145,#1146,#1147,#1148));
#1145 = ORIENTED_EDGE('',*,*,#1014,.F.);
#1146 = ORIENTED_EDGE('',*,*,#888,.T.);
#1147 = ORIENTED_EDGE('',*,*,#940,.T.);
#1148 = ORIENTED_EDGE('',*,*,#1051,.T.);
#1149 = PLANE('',#1150);
#1150 = AXIS2_PLACEMENT_3D('',#1151,#1152,#1153);
#1151 = CARTESIAN_POINT('',(3.E-17,-4.345E-14,5.));
#1152 = DIRECTION('',(0.,0.,1.));
#1153 = DIRECTION('',(1.,0.,0.));
#1154 = ADVANCED_FACE('',(#1155),#1173,.F.);
#1155 = FACE_BOUND('',#1156,.F.);
#1156 = EDGE_LOOP('',(#1157,#1158,#1165,#1172));
#1157 = ORIENTED_EDGE('',*,*,#896,.T.);
#1158 = ORIENTED_EDGE('',*,*,#1159,.T.);
#1159 = EDGE_CURVE('',#897,#1160,#1162,.T.);
#1160 = VERTEX_POINT('',#1161);
#1161 = CARTESIAN_POINT('',(-10.,-1.4,8.));
#1162 = B_SPLINE_CURVE_WITH_KNOTS('',1,(#1163,#1164),.UNSPECIFIED.,.F.,
  .F.,(2,2),(-3.95,2.05),.PIECEWISE_BEZIER_KNOTS.);
#1163 = CARTESIAN_POINT('',(-4.,-1.4,8.));
#1164 = CARTESIAN_POINT('',(-10.,-1.4,8.));
#1165 = ORIENTED_EDGE('',*,*,#1166,.T.);
#1166 = EDGE_CURVE('',#1160,#1160,#1167,.T.);
#1167 = CIRCLE('',#1168,1.4);
#1168 = AXIS2_PLACEMENT_3D('',#1169,#1170,#1171);
#1169 = CARTESIAN_POINT('',(-10.,0.,8.));
#1170 = DIRECTION('',(1.,0.,0.));
#1171 = DIRECTION('',(0.,-1.,0.));
#1172 = ORIENTED_EDGE('',*,*,#1159,.F.);
#1173 = CYLINDRICAL_SURFACE('',#1174,1.4);
#1174 = AXIS2_PLACEMENT_3D('',#1175,#1176,#1177);
#1175 = CARTESIAN_POINT('',(-7.95,0.,8.));
#1176 = DIRECTION('',(-1.,0.,0.));
#1177 = DIRECTION('',(0.,-1.,0.));
#1178 = ADVANCED_FACE('',(#1179),#1197,.F.);
#1179 = FACE_BOUND('',#1180,.F.);
#1180 = EDGE_LOOP('',(#1181,#1182,#1189,#1196));
#1181 = ORIENTED_EDGE('',*,*,#907,.T.);
#1182 = ORIENTED_EDGE('',*,*,#1183,.T.);
#1183 = EDGE_CURVE('',#908,#1184,#1186,.T.);
#1184 = VERTEX_POINT('',#1185);
#1185 = CARTESIAN_POINT('',(-10.,-1.4,34.));
#1186 = B_SPLINE_CURVE_WITH_KNOTS('',1,(#1187,#1188),.UNSPECIFIED.,.F.,
  .F.,(2,2),(-3.95,2.05),.PIECEWISE_BEZIER_KNOTS.);
#1187 = CARTESIAN_POINT('',(-4.,-1.4,34.));
#1188 = CARTESIAN_POINT('',(-10.,-1.4,34.));
#1189 = ORIENTED_EDGE('',*,*,#1190,.T.);
#1190 = EDGE_CURVE('',#1184,#1184,#1191,.T.);
#1191 = CIRCLE('',#1192,1.4);
#1192 = AXIS2_PLACEMENT_3D('',#1193,#1194,#1195);
#1193 = CARTESIAN_POINT('',(-10.,0.,34.));
#1194 = DIRECTION('',(1.,0.,0.));
#1195 = DIRECTION('',(0.,-1.,0.));
#1196 = ORIENTED_EDGE('',*,*,#1183,.F.);
#1197 = CYLINDRICAL_SURFACE('',#1198,1.4);
#1198 = AXIS2_PLACEMENT_3D('',#1199,#1200,#1201);
#1199 = CARTESIAN_POINT('',(-7.95,0.,34.));
#1200 = DIRECTION('',(-1.,0.,0.));
#1201 = DIRECTION('',(0.,-1.,0.));
#1202 = ADVANCED_FACE('',(#1203,#1206),#1209,.F.);
#1203 = FACE_BOUND('',#1204,.F.);
#1204 = EDGE_LOOP('',(#1205));
#1205 = ORIENTED_EDGE('',*,*,#965,.T.);
#1206 = FACE_BOUND('',#1207,.F.);
#1207 = EDGE_LOOP('',(#1208));
#1208 = ORIENTED_EDGE('',*,*,#1190,.F.);
#1209 = PLANE('',#1210);
#1210 = AXIS2_PLACEMENT_3D('',#1211,#1212,#1213);
#1211 = CARTESIAN_POINT('',(-10.,10.,0.));
#1212 = DIRECTION('',(1.,0.,0.));
#1213 = DIRECTION('',(0.,-1.,0.));
#1214 = ADVANCED_FACE('',(#1215,#1219),#1222,.F.);
#1215 = FACE_BOUND('',#1216,.F.);
#1216 = EDGE_LOOP('',(#1217,#1218));
#1217 = ORIENTED_EDGE('',*,*,#980,.T.);
#1218 = ORIENTED_EDGE('',*,*,#997,.T.);
#1219 = FACE_BOUND('',#1220,.F.);
#1220 = EDGE_LOOP('',(#1221));
#1221 = ORIENTED_EDGE('',*,*,#1166,.F.);
#1222 = PLANE('',#1223);
#1223 = AXIS2_PLACEMENT_3D('',#1224,#1225,#1226);
#1224 = CARTESIAN_POINT('',(-10.,10.,0.));
#1225 = DIRECTION('',(1.,0.,0.));
#1226 = DIRECTION('',(0.,-1.,0.));
#1227 = ADVANCED_FACE('',(#1228),#1246,.F.);
#1228 = FACE_BOUND('',#1229,.F.);
#1229 = EDGE_LOOP('',(#1230,#1231,#1238,#1245));
#1230 = ORIENTED_EDGE('',*,*,#1059,.T.);
#1231 = ORIENTED_EDGE('',*,*,#1232,.T.);
#1232 = EDGE_CURVE('',#1060,#1233,#1235,.T.);
#1233 = VERTEX_POINT('',#1234);
#1234 = CARTESIAN_POINT('',(10.,1.6,34.));
#1235 = B_SPLINE_CURVE_WITH_KNOTS('',1,(#1236,#1237),.UNSPECIFIED.,.F.,
  .F.,(2,2),(-3.95,2.05),.PIECEWISE_BEZIER_KNOTS.);
#1236 = CARTESIAN_POINT('',(4.,1.6,34.));
#1237 = CARTESIAN_POINT('',(10.,1.6,34.));
#1238 = ORIENTED_EDGE('',*,*,#1239,.T.);
#1239 = EDGE_CURVE('',#1233,#1233,#1240,.T.);
#1240 = CIRCLE('',#1241,1.6);
#1241 = AXIS2_PLACEMENT_3D('',#1242,#1243,#1244);
#1242 = CARTESIAN_POINT('',(10.,0.,34.));
#1243 = DIRECTION('',(-1.,0.,0.));
#1244 = DIRECTION('',(0.,1.,0.));
#1245 = ORIENTED_EDGE('',*,*,#1232,.F.);
#1246 = CYLINDRICAL_SURFACE('',#1247,1.6);
#1247 = AXIS2_PLACEMENT_3D('',#1248,#1249,#1250);
#1248 = CARTESIAN_POINT('',(7.95,0.,34.));
#1249 = DIRECTION('',(1.,0.,0.));
#1250 = DIRECTION('',(0.,1.,0.));
#1251 = ADVANCED_FACE('',(#1252),#1270,.F.);
#1252 = FACE_BOUND('',#1253,.F.);
#1253 = EDGE_LOOP('',(#1254,#1255,#1262,#1269));
#1254 = ORIENTED_EDGE('',*,*,#1070,.T.);
#1255 = ORIENTED_EDGE('',*,*,#1256,.T.);
#1256 = EDGE_CURVE('',#1071,#1257,#1259,.T.);
#1257 = VERTEX_POINT('',#1258);
#1258 = CARTESIAN_POINT('',(10.,1.6,8.));
#1259 = B_SPLINE_CURVE_WITH_KNOTS('',1,(#1260,#1261),.UNSPECIFIED.,.F.,
  .F.,(2,2),(-3.95,2.05),.PIECEWISE_BEZIER_KNOTS.);
#1260 = CARTESIAN_POINT('',(4.,1.6,8.));
#1261 = CARTESIAN_POINT('',(10.,1.6,8.));
#1262 = ORIENTED_EDGE('',*,*,#1263,.T.);
#1263 = EDGE_CURVE('',#1257,#1257,#1264,.T.);
#1264 = CIRCLE('',#1265,1.6);
#1265 = AXIS2_PLACEMENT_3D('',#1266,#1267,#1268);
#1266 = CARTESIAN_POINT('',(10.,0.,8.));
#1267 = DIRECTION('',(-1.,0.,0.));
#1268 = DIRECTION('',(0.,1.,0.));
#1269 = ORIENTED_EDGE('',*,*,#1256,.F.);
#1270 = CYLINDRICAL_SURFACE('',#1271,1.6);
#1271 = AXIS2_PLACEMENT_3D('',#1272,#1273,#1274);
#1272 = CARTESIAN_POINT('',(7.95,0.,8.));
#1273 = DIRECTION('',(1.,0.,0.));
#1274 = DIRECTION('',(0.,1.,0.));
#1275 = ADVANCED_FACE('',(#1276,#1279),#1282,.F.);
#1276 = FACE_BOUND('',#1277,.F.);
#1277 = EDGE_LOOP('',(#1278));
#1278 = ORIENTED_EDGE('',*,*,#1097,.T.);
#1279 = FACE_BOUND('',#1280,.F.);
#1280 = EDGE_LOOP('',(#1281));
#1281 = ORIENTED_EDGE('',*,*,#1239,.F.);
#1282 = PLANE('',#1283);
#1283 = AXIS2_PLACEMENT_3D('',#1284,#1285,#1286);
#1284 = CARTESIAN_POINT('',(10.,-10.,0.));
#1285 = DIRECTION('',(-1.,0.,0.));
#1286 = DIRECTION('',(0.,1.,0.));
#1287 = ADVANCED_FACE('',(#1288,#1292),#1295,.F.);
#1288 = FACE_BOUND('',#1289,.F.);
#1289 = EDGE_LOOP('',(#1290,#1291));
#1290 = ORIENTED_EDGE('',*,*,#1129,.T.);
#1291 = ORIENTED_EDGE('',*,*,#1120,.T.);
#1292 = FACE_BOUND('',#1293,.F.);
#1293 = EDGE_LOOP('',(#1294));
#1294 = ORIENTED_EDGE('',*,*,#1263,.F.);
#1295 = PLANE('',#1296);
#1296 = AXIS2_PLACEMENT_3D('',#1297,#1298,#1299);
#1297 = CARTESIAN_POINT('',(10.,-10.,0.));
#1298 = DIRECTION('',(-1.,0.,0.));
#1299 = DIRECTION('',(0.,1.,0.));
#1300 = ADVANCED_FACE('',(#1301),#1332,.T.);
#1301 = FACE_BOUND('',#1302,.T.);
#1302 = EDGE_LOOP('',(#1303,#1304,#1305,#1306,#1307,#1308,#1316,#1324,
    #1330,#1331));
#1303 = ORIENTED_EDGE('',*,*,#103,.F.);
#1304 = ORIENTED_EDGE('',*,*,#153,.T.);
#1305 = ORIENTED_EDGE('',*,*,#251,.T.);
#1306 = ORIENTED_EDGE('',*,*,#306,.T.);
#1307 = ORIENTED_EDGE('',*,*,#385,.T.);
#1308 = ORIENTED_EDGE('',*,*,#1309,.T.);
#1309 = EDGE_CURVE('',#378,#1310,#1312,.T.);
#1310 = VERTEX_POINT('',#1311);
#1311 = CARTESIAN_POINT('',(13.5,10.,5.));
#1312 = LINE('',#1313,#1314);
#1313 = CARTESIAN_POINT('',(5.5,10.,5.));
#1314 = VECTOR('',#1315,1.);
#1315 = DIRECTION('',(1.,0.,0.));
#1316 = ORIENTED_EDGE('',*,*,#1317,.F.);
#1317 = EDGE_CURVE('',#1318,#1310,#1320,.T.);
#1318 = VERTEX_POINT('',#1319);
#1319 = CARTESIAN_POINT('',(13.5,10.,-103.));
#1320 = LINE('',#1321,#1322);
#1321 = CARTESIAN_POINT('',(13.5,10.,0.));
#1322 = VECTOR('',#1323,1.);
#1323 = DIRECTION('',(0.,0.,1.));
#1324 = ORIENTED_EDGE('',*,*,#1325,.F.);
#1325 = EDGE_CURVE('',#70,#1318,#1326,.T.);
#1326 = LINE('',#1327,#1328);
#1327 = CARTESIAN_POINT('',(10.,10.,-103.));
#1328 = VECTOR('',#1329,1.);
#1329 = DIRECTION('',(1.,0.,0.));
#1330 = ORIENTED_EDGE('',*,*,#77,.F.);
#1331 = ORIENTED_EDGE('',*,*,#21,.F.);
#1332 = PLANE('',#1333);
#1333 = AXIS2_PLACEMENT_3D('',#1334,#1335,#1336);
#1334 = CARTESIAN_POINT('',(5.304313099042,10.,-39.41533546325));
#1335 = DIRECTION('',(0.,1.,0.));
#1336 = DIRECTION('',(0.,-0.,1.));
#1337 = ADVANCED_FACE('',(#1338,#1363,#1374),#1385,.T.);
#1338 = FACE_BOUND('',#1339,.T.);
#1339 = EDGE_LOOP('',(#1340,#1350,#1356,#1357));
#1340 = ORIENTED_EDGE('',*,*,#1341,.T.);
#1341 = EDGE_CURVE('',#1342,#1344,#1346,.T.);
#1342 = VERTEX_POINT('',#1343);
#1343 = CARTESIAN_POINT('',(13.5,-10.,5.));
#1344 = VERTEX_POINT('',#1345);
#1345 = CARTESIAN_POINT('',(13.5,-10.,-103.));
#1346 = LINE('',#1347,#1348);
#1347 = CARTESIAN_POINT('',(13.5,-10.,-23.));
#1348 = VECTOR('',#1349,1.);
#1349 = DIRECTION('',(0.,0.,-1.));
#1350 = ORIENTED_EDGE('',*,*,#1351,.T.);
#1351 = EDGE_CURVE('',#1344,#1318,#1352,.T.);
#1352 = LINE('',#1353,#1354);
#1353 = CARTESIAN_POINT('',(13.5,-10.,-103.));
#1354 = VECTOR('',#1355,1.);
#1355 = DIRECTION('',(0.,1.,0.));
#1356 = ORIENTED_EDGE('',*,*,#1317,.T.);
#1357 = ORIENTED_EDGE('',*,*,#1358,.F.);
#1358 = EDGE_CURVE('',#1342,#1310,#1359,.T.);
#1359 = LINE('',#1360,#1361);
#1360 = CARTESIAN_POINT('',(13.5,-10.,5.));
#1361 = VECTOR('',#1362,1.);
#1362 = DIRECTION('',(0.,1.,0.));
#1363 = FACE_BOUND('',#1364,.T.);
#1364 = EDGE_LOOP('',(#1365));
#1365 = ORIENTED_EDGE('',*,*,#1366,.F.);
#1366 = EDGE_CURVE('',#1367,#1367,#1369,.T.);
#1367 = VERTEX_POINT('',#1368);
#1368 = CARTESIAN_POINT('',(13.5,8.,-90.));
#1369 = CIRCLE('',#1370,8.);
#1370 = AXIS2_PLACEMENT_3D('',#1371,#1372,#1373);
#1371 = CARTESIAN_POINT('',(13.5,0.,-90.));
#1372 = DIRECTION('',(1.,0.,0.));
#1373 = DIRECTION('',(-0.,1.,0.));
#1374 = FACE_BOUND('',#1375,.T.);
#1375 = EDGE_LOOP('',(#1376));
#1376 = ORIENTED_EDGE('',*,*,#1377,.T.);
#1377 = EDGE_CURVE('',#1378,#1378,#1380,.T.);
#1378 = VERTEX_POINT('',#1379);
#1379 = CARTESIAN_POINT('',(13.5,8.,-10.));
#1380 = CIRCLE('',#1381,8.);
#1381 = AXIS2_PLACEMENT_3D('',#1382,#1383,#1384);
#1382 = CARTESIAN_POINT('',(13.5,-3.08E-15,-10.));
#1383 = DIRECTION('',(-1.,0.,0.));
#1384 = DIRECTION('',(0.,1.,0.));
#1385 = PLANE('',#1386);
#1386 = AXIS2_PLACEMENT_3D('',#1387,#1388,#1389);
#1387 = CARTESIAN_POINT('',(13.5,-3.6E-16,-49.));
#1388 = DIRECTION('',(1.,0.,0.));
#1389 = DIRECTION('',(0.,0.,1.));
#1390 = ADVANCED_FACE('',(#1391),#1413,.T.);
#1391 = FACE_BOUND('',#1392,.T.);
#1392 = EDGE_LOOP('',(#1393,#1394,#1395,#1396,#1397,#1398,#1404,#1405,
    #1411,#1412));
#1393 = ORIENTED_EDGE('',*,*,#281,.T.);
#1394 = ORIENTED_EDGE('',*,*,#163,.F.);
#1395 = ORIENTED_EDGE('',*,*,#112,.T.);
#1396 = ORIENTED_EDGE('',*,*,#39,.T.);
#1397 = ORIENTED_EDGE('',*,*,#61,.T.);
#1398 = ORIENTED_EDGE('',*,*,#1399,.F.);
#1399 = EDGE_CURVE('',#1344,#62,#1400,.T.);
#1400 = LINE('',#1401,#1402);
#1401 = CARTESIAN_POINT('',(10.,-10.,-103.));
#1402 = VECTOR('',#1403,1.);
#1403 = DIRECTION('',(-1.,0.,0.));
#1404 = ORIENTED_EDGE('',*,*,#1341,.F.);
#1405 = ORIENTED_EDGE('',*,*,#1406,.F.);
#1406 = EDGE_CURVE('',#338,#1342,#1407,.T.);
#1407 = LINE('',#1408,#1409);
#1408 = CARTESIAN_POINT('',(10.,-10.,5.));
#1409 = VECTOR('',#1410,1.);
#1410 = DIRECTION('',(1.,0.,0.));
#1411 = ORIENTED_EDGE('',*,*,#337,.T.);
#1412 = ORIENTED_EDGE('',*,*,#315,.F.);
#1413 = PLANE('',#1414);
#1414 = AXIS2_PLACEMENT_3D('',#1415,#1416,#1417);
#1415 = CARTESIAN_POINT('',(5.304313099042,-10.,-39.41533546325));
#1416 = DIRECTION('',(-0.,-1.,-0.));
#1417 = DIRECTION('',(0.,0.,-1.));
#1418 = ADVANCED_FACE('',(#1419),#1432,.T.);
#1419 = FACE_BOUND('',#1420,.T.);
#1420 = EDGE_LOOP('',(#1421,#1422,#1423,#1424,#1425,#1426,#1427,#1428,
    #1429,#1430,#1431));
#1421 = ORIENTED_EDGE('',*,*,#377,.F.);
#1422 = ORIENTED_EDGE('',*,*,#741,.F.);
#1423 = ORIENTED_EDGE('',*,*,#774,.F.);
#1424 = ORIENTED_EDGE('',*,*,#813,.F.);
#1425 = ORIENTED_EDGE('',*,*,#788,.F.);
#1426 = ORIENTED_EDGE('',*,*,#866,.F.);
#1427 = ORIENTED_EDGE('',*,*,#662,.F.);
#1428 = ORIENTED_EDGE('',*,*,#345,.T.);
#1429 = ORIENTED_EDGE('',*,*,#1406,.T.);
#1430 = ORIENTED_EDGE('',*,*,#1358,.T.);
#1431 = ORIENTED_EDGE('',*,*,#1309,.F.);
#1432 = PLANE('',#1433);
#1433 = AXIS2_PLACEMENT_3D('',#1434,#1435,#1436);
#1434 = CARTESIAN_POINT('',(9.627345318226,-6.45E-15,5.));
#1435 = DIRECTION('',(0.,0.,1.));
#1436 = DIRECTION('',(1.,0.,-0.));
#1437 = ADVANCED_FACE('',(#1438),#1444,.T.);
#1438 = FACE_BOUND('',#1439,.T.);
#1439 = EDGE_LOOP('',(#1440,#1441,#1442,#1443));
#1440 = ORIENTED_EDGE('',*,*,#1399,.T.);
#1441 = ORIENTED_EDGE('',*,*,#69,.T.);
#1442 = ORIENTED_EDGE('',*,*,#1325,.T.);
#1443 = ORIENTED_EDGE('',*,*,#1351,.F.);
#1444 = PLANE('',#1445);
#1445 = AXIS2_PLACEMENT_3D('',#1446,#1447,#1448);
#1446 = CARTESIAN_POINT('',(9.25,-1.62E-15,-103.));
#1447 = DIRECTION('',(-0.,-0.,-1.));
#1448 = DIRECTION('',(-1.,0.,0.));
#1449 = ADVANCED_FACE('',(#1450),#1460,.F.);
#1450 = FACE_BOUND('',#1451,.F.);
#1451 = EDGE_LOOP('',(#1452,#1453,#1458,#1459));
#1452 = ORIENTED_EDGE('',*,*,#1366,.F.);
#1453 = ORIENTED_EDGE('',*,*,#1454,.F.);
#1454 = EDGE_CURVE('',#87,#1367,#1455,.T.);
#1455 = B_SPLINE_CURVE_WITH_KNOTS('',1,(#1456,#1457),.UNSPECIFIED.,.F.,
  .F.,(2,2),(-5.,3.5),.PIECEWISE_BEZIER_KNOTS.);
#1456 = CARTESIAN_POINT('',(5.,8.,-90.));
#1457 = CARTESIAN_POINT('',(13.5,8.,-90.));
#1458 = ORIENTED_EDGE('',*,*,#86,.T.);
#1459 = ORIENTED_EDGE('',*,*,#1454,.T.);
#1460 = CYLINDRICAL_SURFACE('',#1461,8.);
#1461 = AXIS2_PLACEMENT_3D('',#1462,#1463,#1464);
#1462 = CARTESIAN_POINT('',(10.,0.,-90.));
#1463 = DIRECTION('',(1.,0.,0.));
#1464 = DIRECTION('',(-0.,1.,0.));
#1465 = ADVANCED_FACE('',(#1466),#1476,.F.);
#1466 = FACE_BOUND('',#1467,.T.);
#1467 = EDGE_LOOP('',(#1468,#1469,#1474,#1475));
#1468 = ORIENTED_EDGE('',*,*,#1377,.F.);
#1469 = ORIENTED_EDGE('',*,*,#1470,.T.);
#1470 = EDGE_CURVE('',#1378,#395,#1471,.T.);
#1471 = B_SPLINE_CURVE_WITH_KNOTS('',1,(#1472,#1473),.UNSPECIFIED.,.F.,
  .F.,(2,2),(-152.9916415303,-144.9916415303),.PIECEWISE_BEZIER_KNOTS.);
#1472 = CARTESIAN_POINT('',(13.5,8.,-10.));
#1473 = CARTESIAN_POINT('',(5.5,8.,-10.));
#1474 = ORIENTED_EDGE('',*,*,#394,.T.);
#1475 = ORIENTED_EDGE('',*,*,#1470,.F.);
#1476 = CYLINDRICAL_SURFACE('',#1477,8.);
#1477 = AXIS2_PLACEMENT_3D('',#1478,#1479,#1480);
#1478 = CARTESIAN_POINT('',(-139.4916415303,-3.08E-15,-10.));
#1479 = DIRECTION('',(-1.,-0.,-0.));
#1480 = DIRECTION('',(0.,1.,0.));
#1481 = ( GEOMETRIC_REPRESENTATION_CONTEXT(3) 
GLOBAL_UNCERTAINTY_ASSIGNED_CONTEXT((#1485)) 
GLOBAL_UNIT_ASSIGNED_CONTEXT((#1482,#1483,#1484)) REPRESENTATION_CONTEXT
('Context #1','3D Context with UNIT and UNCERTAINTY') );
#1482 = ( LENGTH_UNIT() NAMED_UNIT(*) SI_UNIT(.MILLI.,.METRE.) );
#1483 = ( NAMED_UNIT(*) PLANE_ANGLE_UNIT() SI_UNIT($,.RADIAN.) );
#1484 = ( NAMED_UNIT(*) SI_UNIT($,.STERADIAN.) SOLID_ANGLE_UNIT() );
#1485 = UNCERTAINTY_MEASURE_WITH_UNIT(LENGTH_MEASURE(2.E-06),#1482,
  'distance_accuracy_value','confusion accuracy');
#1486 = PRODUCT_RELATED_PRODUCT_CATEGORY('part',$,(#7));
#1487 = MECHANICAL_DESIGN_GEOMETRIC_PRESENTATION_REPRESENTATION('',(
    #1488),#1481);
#1488 = STYLED_ITEM('color',(#1489),#15);
#1489 = PRESENTATION_STYLE_ASSIGNMENT((#1490,#1496));
#1490 = SURFACE_STYLE_USAGE(.BOTH.,#1491);
#1491 = SURFACE_SIDE_STYLE('',(#1492));
#1492 = SURFACE_STYLE_FILL_AREA(#1493);
#1493 = FILL_AREA_STYLE('',(#1494));
#1494 = FILL_AREA_STYLE_COLOUR('',#1495);
#1495 = COLOUR_RGB('',0.447058818107,0.474509808674,0.501960817233);
#1496 = CURVE_STYLE('',#1497,POSITIVE_LENGTH_MEASURE(0.1),#1498);
#1497 = DRAUGHTING_PRE_DEFINED_CURVE_FONT('continuous');
#1498 = COLOUR_RGB('',9.803921802644E-02,9.803921802644E-02,
  9.803921802644E-02);
ENDSEC;
END-ISO-10303-21;
