ISO-10303-21;
HEADER;
FILE_DESCRIPTION(('FreeCAD Model'),'2;1');
FILE_NAME('Open CASCADE Shape Model','2026-09-03T22:00:44',('Author'),(
    ''),'Open CASCADE STEP processor 7.9','FreeCAD','Unknown');
FILE_SCHEMA(('AUTOMOTIVE_DESIGN { 1 0 10303 214 1 1 1 1 }'));
ENDSEC;
DATA;
#1 = APPLICATION_PROTOCOL_DEFINITION('international standard',
  'automotive_design',2000,#2);
#2 = APPLICATION_CONTEXT(
  'core data for automotive mechanical design processes');
#3 = SHAPE_DEFINITION_REPRESENTATION(#4,#10);
#4 = PRODUCT_DEFINITION_SHAPE('','',#5);
#5 = PRODUCT_DEFINITION('design','',#6,#9);
#6 = PRODUCT_DEFINITION_FORMATION('','',#7);
#7 = PRODUCT('Body089','Body089','',(#8));
#8 = PRODUCT_CONTEXT('',#2,'mechanical');
#9 = PRODUCT_DEFINITION_CONTEXT('part definition',#2,'design');
#10 = ADVANCED_BREP_SHAPE_REPRESENTATION('',(#11,#15),#1514);
#11 = AXIS2_PLACEMENT_3D('',#12,#13,#14);
#12 = CARTESIAN_POINT('',(0.,0.,0.));
#13 = DIRECTION('',(0.,0.,1.));
#14 = DIRECTION('',(1.,0.,-0.));
#15 = MANIFOLD_SOLID_BREP('',#16);
#16 = CLOSED_SHELL('',(#17,#57,#109,#181,#249,#268,#280,#297,#345,#369,
    #429,#453,#494,#543,#601,#615,#639,#661,#678,#695,#707,#731,#779,
    #856,#897,#914,#970,#994,#1025,#1073,#1097,#1132,#1149,#1174,#1191,
    #1215,#1263,#1295,#1319,#1344,#1361,#1381,#1398,#1430,#1454,#1479,
    #1496));
#17 = ADVANCED_FACE('',(#18),#52,.T.);
#18 = FACE_BOUND('',#19,.T.);
#19 = EDGE_LOOP('',(#20,#30,#38,#46));
#20 = ORIENTED_EDGE('',*,*,#21,.T.);
#21 = EDGE_CURVE('',#22,#24,#26,.T.);
#22 = VERTEX_POINT('',#23);
#23 = CARTESIAN_POINT('',(10.,-6.,0.));
#24 = VERTEX_POINT('',#25);
#25 = CARTESIAN_POINT('',(10.,-6.,24.000000313431));
#26 = LINE('',#27,#28);
#27 = CARTESIAN_POINT('',(10.,-6.,0.));
#28 = VECTOR('',#29,1.);
#29 = DIRECTION('',(0.,0.,1.));
#30 = ORIENTED_EDGE('',*,*,#31,.F.);
#31 = EDGE_CURVE('',#32,#24,#34,.T.);
#32 = VERTEX_POINT('',#33);
#33 = CARTESIAN_POINT('',(5.5,-6.,24.000000313431));
#34 = LINE('',#35,#36);
#35 = CARTESIAN_POINT('',(-10.,-6.,24.000000313431));
#36 = VECTOR('',#37,1.);
#37 = DIRECTION('',(1.,0.,0.));
#38 = ORIENTED_EDGE('',*,*,#39,.F.);
#39 = EDGE_CURVE('',#40,#32,#42,.T.);
#40 = VERTEX_POINT('',#41);
#41 = CARTESIAN_POINT('',(5.5,-6.,0.));
#42 = LINE('',#43,#44);
#43 = CARTESIAN_POINT('',(5.5,-6.,0.));
#44 = VECTOR('',#45,1.);
#45 = DIRECTION('',(0.,0.,1.));
#46 = ORIENTED_EDGE('',*,*,#47,.F.);
#47 = EDGE_CURVE('',#22,#40,#48,.T.);
#48 = LINE('',#49,#50);
#49 = CARTESIAN_POINT('',(10.,-6.,0.));
#50 = VECTOR('',#51,1.);
#51 = DIRECTION('',(-1.,0.,0.));
#52 = PLANE('',#53);
#53 = AXIS2_PLACEMENT_3D('',#54,#55,#56);
#54 = CARTESIAN_POINT('',(7.75,-6.,15.));
#55 = DIRECTION('',(-0.,-1.,-0.));
#56 = DIRECTION('',(0.,0.,-1.));
#57 = ADVANCED_FACE('',(#58,#93),#104,.T.);
#58 = FACE_BOUND('',#59,.T.);
#59 = EDGE_LOOP('',(#60,#61,#69,#77,#86));
#60 = ORIENTED_EDGE('',*,*,#21,.F.);
#61 = ORIENTED_EDGE('',*,*,#62,.T.);
#62 = EDGE_CURVE('',#22,#63,#65,.T.);
#63 = VERTEX_POINT('',#64);
#64 = CARTESIAN_POINT('',(10.,6.,0.));
#65 = LINE('',#66,#67);
#66 = CARTESIAN_POINT('',(10.,-6.,0.));
#67 = VECTOR('',#68,1.);
#68 = DIRECTION('',(0.,1.,0.));
#69 = ORIENTED_EDGE('',*,*,#70,.T.);
#70 = EDGE_CURVE('',#63,#71,#73,.T.);
#71 = VERTEX_POINT('',#72);
#72 = CARTESIAN_POINT('',(10.,6.,24.));
#73 = LINE('',#74,#75);
#74 = CARTESIAN_POINT('',(10.,6.,10.));
#75 = VECTOR('',#76,1.);
#76 = DIRECTION('',(0.,0.,1.));
#77 = ORIENTED_EDGE('',*,*,#78,.F.);
#78 = EDGE_CURVE('',#79,#71,#81,.T.);
#79 = VERTEX_POINT('',#80);
#80 = CARTESIAN_POINT('',(10.,0.,30.));
#81 = CIRCLE('',#82,6.);
#82 = AXIS2_PLACEMENT_3D('',#83,#84,#85);
#83 = CARTESIAN_POINT('',(10.,0.,24.));
#84 = DIRECTION('',(-1.,0.,0.));
#85 = DIRECTION('',(0.,-1.,0.));
#86 = ORIENTED_EDGE('',*,*,#87,.F.);
#87 = EDGE_CURVE('',#24,#79,#88,.T.);
#88 = CIRCLE('',#89,6.);
#89 = AXIS2_PLACEMENT_3D('',#90,#91,#92);
#90 = CARTESIAN_POINT('',(10.,0.,24.));
#91 = DIRECTION('',(-1.,0.,0.));
#92 = DIRECTION('',(0.,-1.,0.));
#93 = FACE_BOUND('',#94,.T.);
#94 = EDGE_LOOP('',(#95));
#95 = ORIENTED_EDGE('',*,*,#96,.F.);
#96 = EDGE_CURVE('',#97,#97,#99,.T.);
#97 = VERTEX_POINT('',#98);
#98 = CARTESIAN_POINT('',(10.,1.4,24.));
#99 = CIRCLE('',#100,1.4);
#100 = AXIS2_PLACEMENT_3D('',#101,#102,#103);
#101 = CARTESIAN_POINT('',(10.,0.,24.));
#102 = DIRECTION('',(1.,0.,0.));
#103 = DIRECTION('',(0.,1.,0.));
#104 = PLANE('',#105);
#105 = AXIS2_PLACEMENT_3D('',#106,#107,#108);
#106 = CARTESIAN_POINT('',(10.,-1.84652564E-09,13.896946260477));
#107 = DIRECTION('',(1.,0.,0.));
#108 = DIRECTION('',(0.,0.,1.));
#109 = ADVANCED_FACE('',(#110),#176,.F.);
#110 = FACE_BOUND('',#111,.F.);
#111 = EDGE_LOOP('',(#112,#113,#114,#122,#130,#138,#146,#154,#162,#170)
  );
#112 = ORIENTED_EDGE('',*,*,#47,.F.);
#113 = ORIENTED_EDGE('',*,*,#62,.T.);
#114 = ORIENTED_EDGE('',*,*,#115,.F.);
#115 = EDGE_CURVE('',#116,#63,#118,.T.);
#116 = VERTEX_POINT('',#117);
#117 = CARTESIAN_POINT('',(5.5,6.,0.));
#118 = LINE('',#119,#120);
#119 = CARTESIAN_POINT('',(5.5,6.,0.));
#120 = VECTOR('',#121,1.);
#121 = DIRECTION('',(1.,0.,0.));
#122 = ORIENTED_EDGE('',*,*,#123,.F.);
#123 = EDGE_CURVE('',#124,#116,#126,.T.);
#124 = VERTEX_POINT('',#125);
#125 = CARTESIAN_POINT('',(5.5,4.681818181818,0.));
#126 = LINE('',#127,#128);
#127 = CARTESIAN_POINT('',(5.5,4.,0.));
#128 = VECTOR('',#129,1.);
#129 = DIRECTION('',(0.,1.,0.));
#130 = ORIENTED_EDGE('',*,*,#131,.F.);
#131 = EDGE_CURVE('',#132,#124,#134,.T.);
#132 = VERTEX_POINT('',#133);
#133 = CARTESIAN_POINT('',(6.2,5.,0.));
#134 = LINE('',#135,#136);
#135 = CARTESIAN_POINT('',(6.2,5.,0.));
#136 = VECTOR('',#137,1.);
#137 = DIRECTION('',(-0.910366477463,-0.413802944301,0.));
#138 = ORIENTED_EDGE('',*,*,#139,.T.);
#139 = EDGE_CURVE('',#132,#140,#142,.T.);
#140 = VERTEX_POINT('',#141);
#141 = CARTESIAN_POINT('',(7.95,5.,0.));
#142 = LINE('',#143,#144);
#143 = CARTESIAN_POINT('',(6.2,5.,0.));
#144 = VECTOR('',#145,1.);
#145 = DIRECTION('',(1.,0.,0.));
#146 = ORIENTED_EDGE('',*,*,#147,.T.);
#147 = EDGE_CURVE('',#140,#148,#150,.T.);
#148 = VERTEX_POINT('',#149);
#149 = CARTESIAN_POINT('',(7.95,-5.,0.));
#150 = LINE('',#151,#152);
#151 = CARTESIAN_POINT('',(7.95,5.,0.));
#152 = VECTOR('',#153,1.);
#153 = DIRECTION('',(0.,-1.,0.));
#154 = ORIENTED_EDGE('',*,*,#155,.T.);
#155 = EDGE_CURVE('',#148,#156,#158,.T.);
#156 = VERTEX_POINT('',#157);
#157 = CARTESIAN_POINT('',(6.2,-5.,0.));
#158 = LINE('',#159,#160);
#159 = CARTESIAN_POINT('',(7.95,-5.,0.));
#160 = VECTOR('',#161,1.);
#161 = DIRECTION('',(-1.,0.,0.));
#162 = ORIENTED_EDGE('',*,*,#163,.F.);
#163 = EDGE_CURVE('',#164,#156,#166,.T.);
#164 = VERTEX_POINT('',#165);
#165 = CARTESIAN_POINT('',(5.5,-4.681818181818,0.));
#166 = LINE('',#167,#168);
#167 = CARTESIAN_POINT('',(4.,-4.,0.));
#168 = VECTOR('',#169,1.);
#169 = DIRECTION('',(0.910366477463,-0.413802944301,0.));
#170 = ORIENTED_EDGE('',*,*,#171,.F.);
#171 = EDGE_CURVE('',#40,#164,#172,.T.);
#172 = LINE('',#173,#174);
#173 = CARTESIAN_POINT('',(5.5,-6.,0.));
#174 = VECTOR('',#175,1.);
#175 = DIRECTION('',(0.,1.,0.));
#176 = PLANE('',#177);
#177 = AXIS2_PLACEMENT_3D('',#178,#179,#180);
#178 = CARTESIAN_POINT('',(0.,0.,0.));
#179 = DIRECTION('',(0.,0.,1.));
#180 = DIRECTION('',(1.,0.,0.));
#181 = ADVANCED_FACE('',(#182,#233),#244,.T.);
#182 = FACE_BOUND('',#183,.T.);
#183 = EDGE_LOOP('',(#184,#193,#202,#208,#209,#217,#225,#231,#232));
#184 = ORIENTED_EDGE('',*,*,#185,.T.);
#185 = EDGE_CURVE('',#32,#186,#188,.T.);
#186 = VERTEX_POINT('',#187);
#187 = CARTESIAN_POINT('',(5.5,0.,30.));
#188 = CIRCLE('',#189,6.);
#189 = AXIS2_PLACEMENT_3D('',#190,#191,#192);
#190 = CARTESIAN_POINT('',(5.5,0.,24.));
#191 = DIRECTION('',(-1.,0.,0.));
#192 = DIRECTION('',(0.,-1.,0.));
#193 = ORIENTED_EDGE('',*,*,#194,.T.);
#194 = EDGE_CURVE('',#186,#195,#197,.T.);
#195 = VERTEX_POINT('',#196);
#196 = CARTESIAN_POINT('',(5.5,6.,24.));
#197 = CIRCLE('',#198,6.);
#198 = AXIS2_PLACEMENT_3D('',#199,#200,#201);
#199 = CARTESIAN_POINT('',(5.5,0.,24.));
#200 = DIRECTION('',(-1.,0.,0.));
#201 = DIRECTION('',(0.,-1.,0.));
#202 = ORIENTED_EDGE('',*,*,#203,.F.);
#203 = EDGE_CURVE('',#116,#195,#204,.T.);
#204 = LINE('',#205,#206);
#205 = CARTESIAN_POINT('',(5.5,6.,10.));
#206 = VECTOR('',#207,1.);
#207 = DIRECTION('',(0.,0.,1.));
#208 = ORIENTED_EDGE('',*,*,#123,.F.);
#209 = ORIENTED_EDGE('',*,*,#210,.T.);
#210 = EDGE_CURVE('',#124,#211,#213,.T.);
#211 = VERTEX_POINT('',#212);
#212 = CARTESIAN_POINT('',(5.5,4.681818181818,10.));
#213 = LINE('',#214,#215);
#214 = CARTESIAN_POINT('',(5.5,4.681818181818,0.));
#215 = VECTOR('',#216,1.);
#216 = DIRECTION('',(0.,0.,1.));
#217 = ORIENTED_EDGE('',*,*,#218,.F.);
#218 = EDGE_CURVE('',#219,#211,#221,.T.);
#219 = VERTEX_POINT('',#220);
#220 = CARTESIAN_POINT('',(5.5,-4.681818181818,10.));
#221 = LINE('',#222,#223);
#222 = CARTESIAN_POINT('',(5.5,-6.,10.));
#223 = VECTOR('',#224,1.);
#224 = DIRECTION('',(0.,1.,0.));
#225 = ORIENTED_EDGE('',*,*,#226,.F.);
#226 = EDGE_CURVE('',#164,#219,#227,.T.);
#227 = LINE('',#228,#229);
#228 = CARTESIAN_POINT('',(5.5,-4.681818181818,0.));
#229 = VECTOR('',#230,1.);
#230 = DIRECTION('',(0.,0.,1.));
#231 = ORIENTED_EDGE('',*,*,#171,.F.);
#232 = ORIENTED_EDGE('',*,*,#39,.T.);
#233 = FACE_BOUND('',#234,.T.);
#234 = EDGE_LOOP('',(#235));
#235 = ORIENTED_EDGE('',*,*,#236,.T.);
#236 = EDGE_CURVE('',#237,#237,#239,.T.);
#237 = VERTEX_POINT('',#238);
#238 = CARTESIAN_POINT('',(5.5,1.4,24.));
#239 = CIRCLE('',#240,1.4);
#240 = AXIS2_PLACEMENT_3D('',#241,#242,#243);
#241 = CARTESIAN_POINT('',(5.5,0.,24.));
#242 = DIRECTION('',(1.,0.,0.));
#243 = DIRECTION('',(0.,1.,0.));
#244 = PLANE('',#245);
#245 = AXIS2_PLACEMENT_3D('',#246,#247,#248);
#246 = CARTESIAN_POINT('',(5.5,-1.47210983E-09,13.042253847655));
#247 = DIRECTION('',(-1.,-0.,-0.));
#248 = DIRECTION('',(0.,0.,-1.));
#249 = ADVANCED_FACE('',(#250),#263,.T.);
#250 = FACE_BOUND('',#251,.T.);
#251 = EDGE_LOOP('',(#252,#253,#259,#260,#261,#262));
#252 = ORIENTED_EDGE('',*,*,#78,.T.);
#253 = ORIENTED_EDGE('',*,*,#254,.F.);
#254 = EDGE_CURVE('',#195,#71,#255,.T.);
#255 = LINE('',#256,#257);
#256 = CARTESIAN_POINT('',(-10.,6.,24.));
#257 = VECTOR('',#258,1.);
#258 = DIRECTION('',(1.,0.,0.));
#259 = ORIENTED_EDGE('',*,*,#194,.F.);
#260 = ORIENTED_EDGE('',*,*,#185,.F.);
#261 = ORIENTED_EDGE('',*,*,#31,.T.);
#262 = ORIENTED_EDGE('',*,*,#87,.T.);
#263 = CYLINDRICAL_SURFACE('',#264,6.);
#264 = AXIS2_PLACEMENT_3D('',#265,#266,#267);
#265 = CARTESIAN_POINT('',(-10.,0.,24.));
#266 = DIRECTION('',(-1.,0.,0.));
#267 = DIRECTION('',(0.,-1.,0.));
#268 = ADVANCED_FACE('',(#269),#275,.T.);
#269 = FACE_BOUND('',#270,.T.);
#270 = EDGE_LOOP('',(#271,#272,#273,#274));
#271 = ORIENTED_EDGE('',*,*,#115,.F.);
#272 = ORIENTED_EDGE('',*,*,#203,.T.);
#273 = ORIENTED_EDGE('',*,*,#254,.T.);
#274 = ORIENTED_EDGE('',*,*,#70,.F.);
#275 = PLANE('',#276);
#276 = AXIS2_PLACEMENT_3D('',#277,#278,#279);
#277 = CARTESIAN_POINT('',(7.75,6.,15.));
#278 = DIRECTION('',(0.,1.,0.));
#279 = DIRECTION('',(0.,0.,1.));
#280 = ADVANCED_FACE('',(#281),#292,.F.);
#281 = FACE_BOUND('',#282,.F.);
#282 = EDGE_LOOP('',(#283,#284,#290,#291));
#283 = ORIENTED_EDGE('',*,*,#96,.F.);
#284 = ORIENTED_EDGE('',*,*,#285,.T.);
#285 = EDGE_CURVE('',#97,#237,#286,.T.);
#286 = LINE('',#287,#288);
#287 = CARTESIAN_POINT('',(10.,1.4,24.));
#288 = VECTOR('',#289,1.);
#289 = DIRECTION('',(-1.,-0.,-0.));
#290 = ORIENTED_EDGE('',*,*,#236,.T.);
#291 = ORIENTED_EDGE('',*,*,#285,.F.);
#292 = CYLINDRICAL_SURFACE('',#293,1.4);
#293 = AXIS2_PLACEMENT_3D('',#294,#295,#296);
#294 = CARTESIAN_POINT('',(10.,0.,24.));
#295 = DIRECTION('',(1.,0.,0.));
#296 = DIRECTION('',(0.,1.,0.));
#297 = ADVANCED_FACE('',(#298),#340,.T.);
#298 = FACE_BOUND('',#299,.T.);
#299 = EDGE_LOOP('',(#300,#310,#318,#324,#325,#326,#334));
#300 = ORIENTED_EDGE('',*,*,#301,.T.);
#301 = EDGE_CURVE('',#302,#304,#306,.T.);
#302 = VERTEX_POINT('',#303);
#303 = CARTESIAN_POINT('',(4.,-4.,0.));
#304 = VERTEX_POINT('',#305);
#305 = CARTESIAN_POINT('',(4.,-4.,-25.));
#306 = LINE('',#307,#308);
#307 = CARTESIAN_POINT('',(4.,-4.,0.));
#308 = VECTOR('',#309,1.);
#309 = DIRECTION('',(-0.,-0.,-1.));
#310 = ORIENTED_EDGE('',*,*,#311,.T.);
#311 = EDGE_CURVE('',#304,#312,#314,.T.);
#312 = VERTEX_POINT('',#313);
#313 = CARTESIAN_POINT('',(6.2,-5.,-25.));
#314 = LINE('',#315,#316);
#315 = CARTESIAN_POINT('',(4.,-4.,-25.));
#316 = VECTOR('',#317,1.);
#317 = DIRECTION('',(0.910366477463,-0.413802944301,0.));
#318 = ORIENTED_EDGE('',*,*,#319,.F.);
#319 = EDGE_CURVE('',#156,#312,#320,.T.);
#320 = LINE('',#321,#322);
#321 = CARTESIAN_POINT('',(6.2,-5.,0.));
#322 = VECTOR('',#323,1.);
#323 = DIRECTION('',(-0.,-0.,-1.));
#324 = ORIENTED_EDGE('',*,*,#163,.F.);
#325 = ORIENTED_EDGE('',*,*,#226,.T.);
#326 = ORIENTED_EDGE('',*,*,#327,.F.);
#327 = EDGE_CURVE('',#328,#219,#330,.T.);
#328 = VERTEX_POINT('',#329);
#329 = CARTESIAN_POINT('',(4.,-4.,10.));
#330 = LINE('',#331,#332);
#331 = CARTESIAN_POINT('',(4.,-4.,10.));
#332 = VECTOR('',#333,1.);
#333 = DIRECTION('',(0.910366477463,-0.413802944301,0.));
#334 = ORIENTED_EDGE('',*,*,#335,.F.);
#335 = EDGE_CURVE('',#302,#328,#336,.T.);
#336 = LINE('',#337,#338);
#337 = CARTESIAN_POINT('',(4.,-4.,0.));
#338 = VECTOR('',#339,1.);
#339 = DIRECTION('',(0.,0.,1.));
#340 = PLANE('',#341);
#341 = AXIS2_PLACEMENT_3D('',#342,#343,#344);
#342 = CARTESIAN_POINT('',(5.006458653648,-4.457481206204,
    -7.602751308037));
#343 = DIRECTION('',(-0.413802944301,-0.910366477463,-0.));
#344 = DIRECTION('',(-0.910366477463,0.413802944301,0.));
#345 = ADVANCED_FACE('',(#346),#364,.F.);
#346 = FACE_BOUND('',#347,.F.);
#347 = EDGE_LOOP('',(#348,#356,#362,#363));
#348 = ORIENTED_EDGE('',*,*,#349,.T.);
#349 = EDGE_CURVE('',#148,#350,#352,.T.);
#350 = VERTEX_POINT('',#351);
#351 = CARTESIAN_POINT('',(7.95,-5.,-25.));
#352 = LINE('',#353,#354);
#353 = CARTESIAN_POINT('',(7.95,-5.,0.));
#354 = VECTOR('',#355,1.);
#355 = DIRECTION('',(-0.,-0.,-1.));
#356 = ORIENTED_EDGE('',*,*,#357,.T.);
#357 = EDGE_CURVE('',#350,#312,#358,.T.);
#358 = LINE('',#359,#360);
#359 = CARTESIAN_POINT('',(7.95,-5.,-25.));
#360 = VECTOR('',#361,1.);
#361 = DIRECTION('',(-1.,0.,0.));
#362 = ORIENTED_EDGE('',*,*,#319,.F.);
#363 = ORIENTED_EDGE('',*,*,#155,.F.);
#364 = PLANE('',#365);
#365 = AXIS2_PLACEMENT_3D('',#366,#367,#368);
#366 = CARTESIAN_POINT('',(7.95,-5.,0.));
#367 = DIRECTION('',(0.,1.,0.));
#368 = DIRECTION('',(-1.,0.,0.));
#369 = ADVANCED_FACE('',(#370,#388),#424,.F.);
#370 = FACE_BOUND('',#371,.F.);
#371 = EDGE_LOOP('',(#372,#380,#386,#387));
#372 = ORIENTED_EDGE('',*,*,#373,.T.);
#373 = EDGE_CURVE('',#140,#374,#376,.T.);
#374 = VERTEX_POINT('',#375);
#375 = CARTESIAN_POINT('',(7.95,5.,-25.));
#376 = LINE('',#377,#378);
#377 = CARTESIAN_POINT('',(7.95,5.,0.));
#378 = VECTOR('',#379,1.);
#379 = DIRECTION('',(-0.,-0.,-1.));
#380 = ORIENTED_EDGE('',*,*,#381,.T.);
#381 = EDGE_CURVE('',#374,#350,#382,.T.);
#382 = LINE('',#383,#384);
#383 = CARTESIAN_POINT('',(7.95,5.,-25.));
#384 = VECTOR('',#385,1.);
#385 = DIRECTION('',(0.,-1.,0.));
#386 = ORIENTED_EDGE('',*,*,#349,.F.);
#387 = ORIENTED_EDGE('',*,*,#147,.F.);
#388 = FACE_BOUND('',#389,.F.);
#389 = EDGE_LOOP('',(#390,#401,#409,#418));
#390 = ORIENTED_EDGE('',*,*,#391,.F.);
#391 = EDGE_CURVE('',#392,#394,#396,.T.);
#392 = VERTEX_POINT('',#393);
#393 = CARTESIAN_POINT('',(7.95,-1.601047734248,-8.6));
#394 = VERTEX_POINT('',#395);
#395 = CARTESIAN_POINT('',(7.95,1.601047734248,-8.6));
#396 = CIRCLE('',#397,1.601047734248);
#397 = AXIS2_PLACEMENT_3D('',#398,#399,#400);
#398 = CARTESIAN_POINT('',(7.95,0.,-8.6));
#399 = DIRECTION('',(-1.,0.,0.));
#400 = DIRECTION('',(0.,-1.,0.));
#401 = ORIENTED_EDGE('',*,*,#402,.T.);
#402 = EDGE_CURVE('',#392,#403,#405,.T.);
#403 = VERTEX_POINT('',#404);
#404 = CARTESIAN_POINT('',(7.95,-1.601047734248,-18.59999999999));
#405 = LINE('',#406,#407);
#406 = CARTESIAN_POINT('',(7.95,-1.601047734248,-4.3));
#407 = VECTOR('',#408,1.);
#408 = DIRECTION('',(0.,0.,-1.));
#409 = ORIENTED_EDGE('',*,*,#410,.F.);
#410 = EDGE_CURVE('',#411,#403,#413,.T.);
#411 = VERTEX_POINT('',#412);
#412 = CARTESIAN_POINT('',(7.95,1.601047734248,-18.59999999999));
#413 = CIRCLE('',#414,1.601047734248);
#414 = AXIS2_PLACEMENT_3D('',#415,#416,#417);
#415 = CARTESIAN_POINT('',(7.95,0.,-18.6));
#416 = DIRECTION('',(-1.,0.,0.));
#417 = DIRECTION('',(0.,-1.,0.));
#418 = ORIENTED_EDGE('',*,*,#419,.F.);
#419 = EDGE_CURVE('',#394,#411,#420,.T.);
#420 = LINE('',#421,#422);
#421 = CARTESIAN_POINT('',(7.95,1.601047734248,-4.3));
#422 = VECTOR('',#423,1.);
#423 = DIRECTION('',(0.,0.,-1.));
#424 = PLANE('',#425);
#425 = AXIS2_PLACEMENT_3D('',#426,#427,#428);
#426 = CARTESIAN_POINT('',(7.95,5.,0.));
#427 = DIRECTION('',(-1.,0.,0.));
#428 = DIRECTION('',(0.,-1.,0.));
#429 = ADVANCED_FACE('',(#430),#448,.F.);
#430 = FACE_BOUND('',#431,.F.);
#431 = EDGE_LOOP('',(#432,#440,#446,#447));
#432 = ORIENTED_EDGE('',*,*,#433,.T.);
#433 = EDGE_CURVE('',#132,#434,#436,.T.);
#434 = VERTEX_POINT('',#435);
#435 = CARTESIAN_POINT('',(6.2,5.,-25.));
#436 = LINE('',#437,#438);
#437 = CARTESIAN_POINT('',(6.2,5.,0.));
#438 = VECTOR('',#439,1.);
#439 = DIRECTION('',(-0.,-0.,-1.));
#440 = ORIENTED_EDGE('',*,*,#441,.T.);
#441 = EDGE_CURVE('',#434,#374,#442,.T.);
#442 = LINE('',#443,#444);
#443 = CARTESIAN_POINT('',(6.2,5.,-25.));
#444 = VECTOR('',#445,1.);
#445 = DIRECTION('',(1.,0.,0.));
#446 = ORIENTED_EDGE('',*,*,#373,.F.);
#447 = ORIENTED_EDGE('',*,*,#139,.F.);
#448 = PLANE('',#449);
#449 = AXIS2_PLACEMENT_3D('',#450,#451,#452);
#450 = CARTESIAN_POINT('',(6.2,5.,0.));
#451 = DIRECTION('',(0.,-1.,0.));
#452 = DIRECTION('',(1.,0.,0.));
#453 = ADVANCED_FACE('',(#454),#489,.T.);
#454 = FACE_BOUND('',#455,.T.);
#455 = EDGE_LOOP('',(#456,#457,#465,#473,#481,#487,#488));
#456 = ORIENTED_EDGE('',*,*,#433,.T.);
#457 = ORIENTED_EDGE('',*,*,#458,.T.);
#458 = EDGE_CURVE('',#434,#459,#461,.T.);
#459 = VERTEX_POINT('',#460);
#460 = CARTESIAN_POINT('',(4.,4.,-25.));
#461 = LINE('',#462,#463);
#462 = CARTESIAN_POINT('',(6.2,5.,-25.));
#463 = VECTOR('',#464,1.);
#464 = DIRECTION('',(-0.910366477463,-0.413802944301,0.));
#465 = ORIENTED_EDGE('',*,*,#466,.F.);
#466 = EDGE_CURVE('',#467,#459,#469,.T.);
#467 = VERTEX_POINT('',#468);
#468 = CARTESIAN_POINT('',(4.,4.,0.));
#469 = LINE('',#470,#471);
#470 = CARTESIAN_POINT('',(4.,4.,0.));
#471 = VECTOR('',#472,1.);
#472 = DIRECTION('',(-0.,-0.,-1.));
#473 = ORIENTED_EDGE('',*,*,#474,.T.);
#474 = EDGE_CURVE('',#467,#475,#477,.T.);
#475 = VERTEX_POINT('',#476);
#476 = CARTESIAN_POINT('',(4.,4.,10.));
#477 = LINE('',#478,#479);
#478 = CARTESIAN_POINT('',(4.,4.,0.));
#479 = VECTOR('',#480,1.);
#480 = DIRECTION('',(0.,0.,1.));
#481 = ORIENTED_EDGE('',*,*,#482,.F.);
#482 = EDGE_CURVE('',#211,#475,#483,.T.);
#483 = LINE('',#484,#485);
#484 = CARTESIAN_POINT('',(6.2,5.,10.));
#485 = VECTOR('',#486,1.);
#486 = DIRECTION('',(-0.910366477463,-0.413802944301,0.));
#487 = ORIENTED_EDGE('',*,*,#210,.F.);
#488 = ORIENTED_EDGE('',*,*,#131,.F.);
#489 = PLANE('',#490);
#490 = AXIS2_PLACEMENT_3D('',#491,#492,#493);
#491 = CARTESIAN_POINT('',(5.006458653648,4.457481206204,-7.602751308037
    ));
#492 = DIRECTION('',(-0.413802944301,0.910366477463,0.));
#493 = DIRECTION('',(0.910366477463,0.413802944301,0.));
#494 = ADVANCED_FACE('',(#495),#538,.T.);
#495 = FACE_BOUND('',#496,.T.);
#496 = EDGE_LOOP('',(#497,#498,#499,#500,#508,#516,#524,#532));
#497 = ORIENTED_EDGE('',*,*,#327,.T.);
#498 = ORIENTED_EDGE('',*,*,#218,.T.);
#499 = ORIENTED_EDGE('',*,*,#482,.T.);
#500 = ORIENTED_EDGE('',*,*,#501,.F.);
#501 = EDGE_CURVE('',#502,#475,#504,.T.);
#502 = VERTEX_POINT('',#503);
#503 = CARTESIAN_POINT('',(-4.,4.,10.));
#504 = LINE('',#505,#506);
#505 = CARTESIAN_POINT('',(-5.5,4.,10.));
#506 = VECTOR('',#507,1.);
#507 = DIRECTION('',(1.,0.,0.));
#508 = ORIENTED_EDGE('',*,*,#509,.F.);
#509 = EDGE_CURVE('',#510,#502,#512,.T.);
#510 = VERTEX_POINT('',#511);
#511 = CARTESIAN_POINT('',(-5.5,4.681818181818,10.));
#512 = LINE('',#513,#514);
#513 = CARTESIAN_POINT('',(-6.2,5.,10.));
#514 = VECTOR('',#515,1.);
#515 = DIRECTION('',(0.910366477463,-0.413802944301,0.));
#516 = ORIENTED_EDGE('',*,*,#517,.T.);
#517 = EDGE_CURVE('',#510,#518,#520,.T.);
#518 = VERTEX_POINT('',#519);
#519 = CARTESIAN_POINT('',(-5.5,-4.681818181818,10.));
#520 = LINE('',#521,#522);
#521 = CARTESIAN_POINT('',(-5.5,6.,10.));
#522 = VECTOR('',#523,1.);
#523 = DIRECTION('',(0.,-1.,0.));
#524 = ORIENTED_EDGE('',*,*,#525,.T.);
#525 = EDGE_CURVE('',#518,#526,#528,.T.);
#526 = VERTEX_POINT('',#527);
#527 = CARTESIAN_POINT('',(-4.,-4.,10.));
#528 = LINE('',#529,#530);
#529 = CARTESIAN_POINT('',(-6.2,-5.,10.));
#530 = VECTOR('',#531,1.);
#531 = DIRECTION('',(0.910366477463,0.413802944301,0.));
#532 = ORIENTED_EDGE('',*,*,#533,.F.);
#533 = EDGE_CURVE('',#328,#526,#534,.T.);
#534 = LINE('',#535,#536);
#535 = CARTESIAN_POINT('',(5.5,-4.,10.));
#536 = VECTOR('',#537,1.);
#537 = DIRECTION('',(-1.,0.,0.));
#538 = PLANE('',#539);
#539 = AXIS2_PLACEMENT_3D('',#540,#541,#542);
#540 = CARTESIAN_POINT('',(0.,6.6E-16,10.));
#541 = DIRECTION('',(0.,0.,1.));
#542 = DIRECTION('',(1.,0.,0.));
#543 = ADVANCED_FACE('',(#544,#560),#596,.F.);
#544 = FACE_BOUND('',#545,.F.);
#545 = EDGE_LOOP('',(#546,#547,#553,#554));
#546 = ORIENTED_EDGE('',*,*,#301,.T.);
#547 = ORIENTED_EDGE('',*,*,#548,.T.);
#548 = EDGE_CURVE('',#304,#459,#549,.T.);
#549 = LINE('',#550,#551);
#550 = CARTESIAN_POINT('',(4.,-4.,-25.));
#551 = VECTOR('',#552,1.);
#552 = DIRECTION('',(0.,1.,0.));
#553 = ORIENTED_EDGE('',*,*,#466,.F.);
#554 = ORIENTED_EDGE('',*,*,#555,.F.);
#555 = EDGE_CURVE('',#302,#467,#556,.T.);
#556 = LINE('',#557,#558);
#557 = CARTESIAN_POINT('',(4.,-4.,0.));
#558 = VECTOR('',#559,1.);
#559 = DIRECTION('',(0.,1.,0.));
#560 = FACE_BOUND('',#561,.F.);
#561 = EDGE_LOOP('',(#562,#572,#581,#589));
#562 = ORIENTED_EDGE('',*,*,#563,.T.);
#563 = EDGE_CURVE('',#564,#566,#568,.T.);
#564 = VERTEX_POINT('',#565);
#565 = CARTESIAN_POINT('',(4.,-1.601047734248,-18.59999999999));
#566 = VERTEX_POINT('',#567);
#567 = CARTESIAN_POINT('',(4.,-1.601047734248,-8.6));
#568 = LINE('',#569,#570);
#569 = CARTESIAN_POINT('',(4.,-1.601047734248,-4.3));
#570 = VECTOR('',#571,1.);
#571 = DIRECTION('',(0.,0.,1.));
#572 = ORIENTED_EDGE('',*,*,#573,.T.);
#573 = EDGE_CURVE('',#566,#574,#576,.T.);
#574 = VERTEX_POINT('',#575);
#575 = CARTESIAN_POINT('',(4.,1.601047734248,-8.6));
#576 = CIRCLE('',#577,1.601047734248);
#577 = AXIS2_PLACEMENT_3D('',#578,#579,#580);
#578 = CARTESIAN_POINT('',(4.,0.,-8.6));
#579 = DIRECTION('',(-1.,0.,0.));
#580 = DIRECTION('',(0.,-1.,0.));
#581 = ORIENTED_EDGE('',*,*,#582,.F.);
#582 = EDGE_CURVE('',#583,#574,#585,.T.);
#583 = VERTEX_POINT('',#584);
#584 = CARTESIAN_POINT('',(4.,1.601047734248,-18.59999999999));
#585 = LINE('',#586,#587);
#586 = CARTESIAN_POINT('',(4.,1.601047734248,-4.3));
#587 = VECTOR('',#588,1.);
#588 = DIRECTION('',(0.,0.,1.));
#589 = ORIENTED_EDGE('',*,*,#590,.T.);
#590 = EDGE_CURVE('',#583,#564,#591,.T.);
#591 = CIRCLE('',#592,1.601047734248);
#592 = AXIS2_PLACEMENT_3D('',#593,#594,#595);
#593 = CARTESIAN_POINT('',(4.,0.,-18.6));
#594 = DIRECTION('',(-1.,0.,0.));
#595 = DIRECTION('',(0.,-1.,0.));
#596 = PLANE('',#597);
#597 = AXIS2_PLACEMENT_3D('',#598,#599,#600);
#598 = CARTESIAN_POINT('',(4.,-4.,0.));
#599 = DIRECTION('',(1.,0.,0.));
#600 = DIRECTION('',(0.,1.,0.));
#601 = ADVANCED_FACE('',(#602),#610,.F.);
#602 = FACE_BOUND('',#603,.T.);
#603 = EDGE_LOOP('',(#604,#605,#606,#607,#608,#609));
#604 = ORIENTED_EDGE('',*,*,#441,.T.);
#605 = ORIENTED_EDGE('',*,*,#381,.T.);
#606 = ORIENTED_EDGE('',*,*,#357,.T.);
#607 = ORIENTED_EDGE('',*,*,#311,.F.);
#608 = ORIENTED_EDGE('',*,*,#548,.T.);
#609 = ORIENTED_EDGE('',*,*,#458,.F.);
#610 = PLANE('',#611);
#611 = AXIS2_PLACEMENT_3D('',#612,#613,#614);
#612 = CARTESIAN_POINT('',(-1.E-16,0.,-25.));
#613 = DIRECTION('',(0.,0.,1.));
#614 = DIRECTION('',(1.,0.,0.));
#615 = ADVANCED_FACE('',(#616),#634,.T.);
#616 = FACE_BOUND('',#617,.T.);
#617 = EDGE_LOOP('',(#618,#626,#627,#628));
#618 = ORIENTED_EDGE('',*,*,#619,.F.);
#619 = EDGE_CURVE('',#302,#620,#622,.T.);
#620 = VERTEX_POINT('',#621);
#621 = CARTESIAN_POINT('',(-4.,-4.,0.));
#622 = LINE('',#623,#624);
#623 = CARTESIAN_POINT('',(5.5,-4.,0.));
#624 = VECTOR('',#625,1.);
#625 = DIRECTION('',(-1.,0.,0.));
#626 = ORIENTED_EDGE('',*,*,#335,.T.);
#627 = ORIENTED_EDGE('',*,*,#533,.T.);
#628 = ORIENTED_EDGE('',*,*,#629,.F.);
#629 = EDGE_CURVE('',#620,#526,#630,.T.);
#630 = LINE('',#631,#632);
#631 = CARTESIAN_POINT('',(-4.,-4.,0.));
#632 = VECTOR('',#633,1.);
#633 = DIRECTION('',(0.,0.,1.));
#634 = PLANE('',#635);
#635 = AXIS2_PLACEMENT_3D('',#636,#637,#638);
#636 = CARTESIAN_POINT('',(5.5,-4.,0.));
#637 = DIRECTION('',(0.,-1.,0.));
#638 = DIRECTION('',(-1.,0.,0.));
#639 = ADVANCED_FACE('',(#640),#656,.F.);
#640 = FACE_BOUND('',#641,.F.);
#641 = EDGE_LOOP('',(#642,#643,#649,#650));
#642 = ORIENTED_EDGE('',*,*,#573,.F.);
#643 = ORIENTED_EDGE('',*,*,#644,.T.);
#644 = EDGE_CURVE('',#566,#392,#645,.T.);
#645 = LINE('',#646,#647);
#646 = CARTESIAN_POINT('',(-7.95,-1.601047734248,-8.6));
#647 = VECTOR('',#648,1.);
#648 = DIRECTION('',(1.,0.,0.));
#649 = ORIENTED_EDGE('',*,*,#391,.T.);
#650 = ORIENTED_EDGE('',*,*,#651,.F.);
#651 = EDGE_CURVE('',#574,#394,#652,.T.);
#652 = LINE('',#653,#654);
#653 = CARTESIAN_POINT('',(-7.95,1.601047734248,-8.6));
#654 = VECTOR('',#655,1.);
#655 = DIRECTION('',(1.,0.,0.));
#656 = CYLINDRICAL_SURFACE('',#657,1.601047734248);
#657 = AXIS2_PLACEMENT_3D('',#658,#659,#660);
#658 = CARTESIAN_POINT('',(-7.95,0.,-8.6));
#659 = DIRECTION('',(-1.,0.,0.));
#660 = DIRECTION('',(0.,-1.,0.));
#661 = ADVANCED_FACE('',(#662),#673,.F.);
#662 = FACE_BOUND('',#663,.F.);
#663 = EDGE_LOOP('',(#664,#665,#666,#667));
#664 = ORIENTED_EDGE('',*,*,#582,.T.);
#665 = ORIENTED_EDGE('',*,*,#651,.T.);
#666 = ORIENTED_EDGE('',*,*,#419,.T.);
#667 = ORIENTED_EDGE('',*,*,#668,.F.);
#668 = EDGE_CURVE('',#583,#411,#669,.T.);
#669 = LINE('',#670,#671);
#670 = CARTESIAN_POINT('',(-7.95,1.601047734248,-18.59999999999));
#671 = VECTOR('',#672,1.);
#672 = DIRECTION('',(1.,0.,0.));
#673 = PLANE('',#674);
#674 = AXIS2_PLACEMENT_3D('',#675,#676,#677);
#675 = CARTESIAN_POINT('',(-7.95,1.601047734248,-8.6));
#676 = DIRECTION('',(0.,1.,0.));
#677 = DIRECTION('',(0.,0.,-1.));
#678 = ADVANCED_FACE('',(#679),#690,.F.);
#679 = FACE_BOUND('',#680,.F.);
#680 = EDGE_LOOP('',(#681,#682,#683,#684));
#681 = ORIENTED_EDGE('',*,*,#590,.F.);
#682 = ORIENTED_EDGE('',*,*,#668,.T.);
#683 = ORIENTED_EDGE('',*,*,#410,.T.);
#684 = ORIENTED_EDGE('',*,*,#685,.F.);
#685 = EDGE_CURVE('',#564,#403,#686,.T.);
#686 = LINE('',#687,#688);
#687 = CARTESIAN_POINT('',(-7.95,-1.601047734248,-18.59999999999));
#688 = VECTOR('',#689,1.);
#689 = DIRECTION('',(1.,0.,0.));
#690 = CYLINDRICAL_SURFACE('',#691,1.601047734248);
#691 = AXIS2_PLACEMENT_3D('',#692,#693,#694);
#692 = CARTESIAN_POINT('',(-7.95,0.,-18.6));
#693 = DIRECTION('',(-1.,0.,0.));
#694 = DIRECTION('',(0.,-1.,0.));
#695 = ADVANCED_FACE('',(#696),#702,.T.);
#696 = FACE_BOUND('',#697,.T.);
#697 = EDGE_LOOP('',(#698,#699,#700,#701));
#698 = ORIENTED_EDGE('',*,*,#563,.T.);
#699 = ORIENTED_EDGE('',*,*,#644,.T.);
#700 = ORIENTED_EDGE('',*,*,#402,.T.);
#701 = ORIENTED_EDGE('',*,*,#685,.F.);
#702 = PLANE('',#703);
#703 = AXIS2_PLACEMENT_3D('',#704,#705,#706);
#704 = CARTESIAN_POINT('',(-7.95,-1.601047734248,-8.6));
#705 = DIRECTION('',(0.,1.,0.));
#706 = DIRECTION('',(0.,0.,-1.));
#707 = ADVANCED_FACE('',(#708),#726,.T.);
#708 = FACE_BOUND('',#709,.T.);
#709 = EDGE_LOOP('',(#710,#718,#724,#725));
#710 = ORIENTED_EDGE('',*,*,#711,.F.);
#711 = EDGE_CURVE('',#712,#467,#714,.T.);
#712 = VERTEX_POINT('',#713);
#713 = CARTESIAN_POINT('',(-4.,4.,0.));
#714 = LINE('',#715,#716);
#715 = CARTESIAN_POINT('',(-5.5,4.,0.));
#716 = VECTOR('',#717,1.);
#717 = DIRECTION('',(1.,0.,0.));
#718 = ORIENTED_EDGE('',*,*,#719,.T.);
#719 = EDGE_CURVE('',#712,#502,#720,.T.);
#720 = LINE('',#721,#722);
#721 = CARTESIAN_POINT('',(-4.,4.,0.));
#722 = VECTOR('',#723,1.);
#723 = DIRECTION('',(0.,0.,1.));
#724 = ORIENTED_EDGE('',*,*,#501,.T.);
#725 = ORIENTED_EDGE('',*,*,#474,.F.);
#726 = PLANE('',#727);
#727 = AXIS2_PLACEMENT_3D('',#728,#729,#730);
#728 = CARTESIAN_POINT('',(-5.5,4.,0.));
#729 = DIRECTION('',(0.,1.,0.));
#730 = DIRECTION('',(1.,0.,0.));
#731 = ADVANCED_FACE('',(#732),#774,.T.);
#732 = FACE_BOUND('',#733,.T.);
#733 = EDGE_LOOP('',(#734,#742,#750,#758,#766,#772,#773));
#734 = ORIENTED_EDGE('',*,*,#735,.F.);
#735 = EDGE_CURVE('',#736,#518,#738,.T.);
#736 = VERTEX_POINT('',#737);
#737 = CARTESIAN_POINT('',(-5.5,-4.681818181818,0.));
#738 = LINE('',#739,#740);
#739 = CARTESIAN_POINT('',(-5.5,-4.681818181818,0.));
#740 = VECTOR('',#741,1.);
#741 = DIRECTION('',(0.,0.,1.));
#742 = ORIENTED_EDGE('',*,*,#743,.F.);
#743 = EDGE_CURVE('',#744,#736,#746,.T.);
#744 = VERTEX_POINT('',#745);
#745 = CARTESIAN_POINT('',(-6.2,-5.,0.));
#746 = LINE('',#747,#748);
#747 = CARTESIAN_POINT('',(-6.2,-5.,0.));
#748 = VECTOR('',#749,1.);
#749 = DIRECTION('',(0.910366477463,0.413802944301,0.));
#750 = ORIENTED_EDGE('',*,*,#751,.T.);
#751 = EDGE_CURVE('',#744,#752,#754,.T.);
#752 = VERTEX_POINT('',#753);
#753 = CARTESIAN_POINT('',(-6.2,-5.,-25.));
#754 = LINE('',#755,#756);
#755 = CARTESIAN_POINT('',(-6.2,-5.,0.));
#756 = VECTOR('',#757,1.);
#757 = DIRECTION('',(-0.,-0.,-1.));
#758 = ORIENTED_EDGE('',*,*,#759,.T.);
#759 = EDGE_CURVE('',#752,#760,#762,.T.);
#760 = VERTEX_POINT('',#761);
#761 = CARTESIAN_POINT('',(-4.,-4.,-25.));
#762 = LINE('',#763,#764);
#763 = CARTESIAN_POINT('',(-6.2,-5.,-25.));
#764 = VECTOR('',#765,1.);
#765 = DIRECTION('',(0.910366477463,0.413802944301,0.));
#766 = ORIENTED_EDGE('',*,*,#767,.F.);
#767 = EDGE_CURVE('',#620,#760,#768,.T.);
#768 = LINE('',#769,#770);
#769 = CARTESIAN_POINT('',(-4.,-4.,0.));
#770 = VECTOR('',#771,1.);
#771 = DIRECTION('',(-0.,-0.,-1.));
#772 = ORIENTED_EDGE('',*,*,#629,.T.);
#773 = ORIENTED_EDGE('',*,*,#525,.F.);
#774 = PLANE('',#775);
#775 = AXIS2_PLACEMENT_3D('',#776,#777,#778);
#776 = CARTESIAN_POINT('',(-5.006458653648,-4.457481206204,
    -7.602751308037));
#777 = DIRECTION('',(0.413802944301,-0.910366477463,0.));
#778 = DIRECTION('',(-0.910366477463,-0.413802944301,0.));
#779 = ADVANCED_FACE('',(#780,#840),#851,.T.);
#780 = FACE_BOUND('',#781,.T.);
#781 = EDGE_LOOP('',(#782,#790,#791,#792,#800,#808,#816,#825,#834));
#782 = ORIENTED_EDGE('',*,*,#783,.F.);
#783 = EDGE_CURVE('',#736,#784,#786,.T.);
#784 = VERTEX_POINT('',#785);
#785 = CARTESIAN_POINT('',(-5.5,-6.,0.));
#786 = LINE('',#787,#788);
#787 = CARTESIAN_POINT('',(-5.5,-4.,0.));
#788 = VECTOR('',#789,1.);
#789 = DIRECTION('',(0.,-1.,0.));
#790 = ORIENTED_EDGE('',*,*,#735,.T.);
#791 = ORIENTED_EDGE('',*,*,#517,.F.);
#792 = ORIENTED_EDGE('',*,*,#793,.F.);
#793 = EDGE_CURVE('',#794,#510,#796,.T.);
#794 = VERTEX_POINT('',#795);
#795 = CARTESIAN_POINT('',(-5.5,4.681818181818,0.));
#796 = LINE('',#797,#798);
#797 = CARTESIAN_POINT('',(-5.5,4.681818181818,0.));
#798 = VECTOR('',#799,1.);
#799 = DIRECTION('',(0.,0.,1.));
#800 = ORIENTED_EDGE('',*,*,#801,.F.);
#801 = EDGE_CURVE('',#802,#794,#804,.T.);
#802 = VERTEX_POINT('',#803);
#803 = CARTESIAN_POINT('',(-5.5,6.,0.));
#804 = LINE('',#805,#806);
#805 = CARTESIAN_POINT('',(-5.5,6.,0.));
#806 = VECTOR('',#807,1.);
#807 = DIRECTION('',(0.,-1.,0.));
#808 = ORIENTED_EDGE('',*,*,#809,.T.);
#809 = EDGE_CURVE('',#802,#810,#812,.T.);
#810 = VERTEX_POINT('',#811);
#811 = CARTESIAN_POINT('',(-5.5,6.,24.));
#812 = LINE('',#813,#814);
#813 = CARTESIAN_POINT('',(-5.5,6.,0.));
#814 = VECTOR('',#815,1.);
#815 = DIRECTION('',(0.,0.,1.));
#816 = ORIENTED_EDGE('',*,*,#817,.F.);
#817 = EDGE_CURVE('',#818,#810,#820,.T.);
#818 = VERTEX_POINT('',#819);
#819 = CARTESIAN_POINT('',(-5.5,0.,30.));
#820 = CIRCLE('',#821,6.);
#821 = AXIS2_PLACEMENT_3D('',#822,#823,#824);
#822 = CARTESIAN_POINT('',(-5.5,0.,24.));
#823 = DIRECTION('',(-1.,0.,0.));
#824 = DIRECTION('',(0.,-1.,0.));
#825 = ORIENTED_EDGE('',*,*,#826,.F.);
#826 = EDGE_CURVE('',#827,#818,#829,.T.);
#827 = VERTEX_POINT('',#828);
#828 = CARTESIAN_POINT('',(-5.5,-6.,24.000000313431));
#829 = CIRCLE('',#830,6.);
#830 = AXIS2_PLACEMENT_3D('',#831,#832,#833);
#831 = CARTESIAN_POINT('',(-5.5,0.,24.));
#832 = DIRECTION('',(-1.,0.,0.));
#833 = DIRECTION('',(0.,-1.,0.));
#834 = ORIENTED_EDGE('',*,*,#835,.F.);
#835 = EDGE_CURVE('',#784,#827,#836,.T.);
#836 = LINE('',#837,#838);
#837 = CARTESIAN_POINT('',(-5.5,-6.,10.));
#838 = VECTOR('',#839,1.);
#839 = DIRECTION('',(0.,0.,1.));
#840 = FACE_BOUND('',#841,.T.);
#841 = EDGE_LOOP('',(#842));
#842 = ORIENTED_EDGE('',*,*,#843,.T.);
#843 = EDGE_CURVE('',#844,#844,#846,.T.);
#844 = VERTEX_POINT('',#845);
#845 = CARTESIAN_POINT('',(-5.5,-1.6,24.));
#846 = CIRCLE('',#847,1.6);
#847 = AXIS2_PLACEMENT_3D('',#848,#849,#850);
#848 = CARTESIAN_POINT('',(-5.5,0.,24.));
#849 = DIRECTION('',(-1.,0.,0.));
#850 = DIRECTION('',(0.,-1.,0.));
#851 = PLANE('',#852);
#852 = AXIS2_PLACEMENT_3D('',#853,#854,#855);
#853 = CARTESIAN_POINT('',(-5.5,0.,13.977272727273));
#854 = DIRECTION('',(1.,0.,0.));
#855 = DIRECTION('',(0.,0.,1.));
#856 = ADVANCED_FACE('',(#857),#892,.T.);
#857 = FACE_BOUND('',#858,.T.);
#858 = EDGE_LOOP('',(#859,#860,#861,#862,#870,#878,#886));
#859 = ORIENTED_EDGE('',*,*,#793,.T.);
#860 = ORIENTED_EDGE('',*,*,#509,.T.);
#861 = ORIENTED_EDGE('',*,*,#719,.F.);
#862 = ORIENTED_EDGE('',*,*,#863,.T.);
#863 = EDGE_CURVE('',#712,#864,#866,.T.);
#864 = VERTEX_POINT('',#865);
#865 = CARTESIAN_POINT('',(-4.,4.,-25.));
#866 = LINE('',#867,#868);
#867 = CARTESIAN_POINT('',(-4.,4.,0.));
#868 = VECTOR('',#869,1.);
#869 = DIRECTION('',(-0.,-0.,-1.));
#870 = ORIENTED_EDGE('',*,*,#871,.F.);
#871 = EDGE_CURVE('',#872,#864,#874,.T.);
#872 = VERTEX_POINT('',#873);
#873 = CARTESIAN_POINT('',(-6.2,5.,-25.));
#874 = LINE('',#875,#876);
#875 = CARTESIAN_POINT('',(-6.2,5.,-25.));
#876 = VECTOR('',#877,1.);
#877 = DIRECTION('',(0.910366477463,-0.413802944301,0.));
#878 = ORIENTED_EDGE('',*,*,#879,.F.);
#879 = EDGE_CURVE('',#880,#872,#882,.T.);
#880 = VERTEX_POINT('',#881);
#881 = CARTESIAN_POINT('',(-6.2,5.,0.));
#882 = LINE('',#883,#884);
#883 = CARTESIAN_POINT('',(-6.2,5.,0.));
#884 = VECTOR('',#885,1.);
#885 = DIRECTION('',(-0.,-0.,-1.));
#886 = ORIENTED_EDGE('',*,*,#887,.T.);
#887 = EDGE_CURVE('',#880,#794,#888,.T.);
#888 = LINE('',#889,#890);
#889 = CARTESIAN_POINT('',(-6.2,5.,0.));
#890 = VECTOR('',#891,1.);
#891 = DIRECTION('',(0.910366477463,-0.413802944301,0.));
#892 = PLANE('',#893);
#893 = AXIS2_PLACEMENT_3D('',#894,#895,#896);
#894 = CARTESIAN_POINT('',(-5.006458653648,4.457481206204,
    -7.602751308037));
#895 = DIRECTION('',(0.413802944301,0.910366477463,0.));
#896 = DIRECTION('',(0.910366477463,-0.413802944301,0.));
#897 = ADVANCED_FACE('',(#898),#909,.F.);
#898 = FACE_BOUND('',#899,.F.);
#899 = EDGE_LOOP('',(#900,#901,#902,#903));
#900 = ORIENTED_EDGE('',*,*,#619,.F.);
#901 = ORIENTED_EDGE('',*,*,#555,.T.);
#902 = ORIENTED_EDGE('',*,*,#711,.F.);
#903 = ORIENTED_EDGE('',*,*,#904,.T.);
#904 = EDGE_CURVE('',#712,#620,#905,.T.);
#905 = LINE('',#906,#907);
#906 = CARTESIAN_POINT('',(-4.,4.,0.));
#907 = VECTOR('',#908,1.);
#908 = DIRECTION('',(0.,-1.,0.));
#909 = PLANE('',#910);
#910 = AXIS2_PLACEMENT_3D('',#911,#912,#913);
#911 = CARTESIAN_POINT('',(0.,0.,0.));
#912 = DIRECTION('',(0.,0.,1.));
#913 = DIRECTION('',(1.,0.,0.));
#914 = ADVANCED_FACE('',(#915),#965,.F.);
#915 = FACE_BOUND('',#916,.F.);
#916 = EDGE_LOOP('',(#917,#918,#919,#927,#935,#941,#942,#943,#951,#959)
  );
#917 = ORIENTED_EDGE('',*,*,#783,.F.);
#918 = ORIENTED_EDGE('',*,*,#743,.F.);
#919 = ORIENTED_EDGE('',*,*,#920,.F.);
#920 = EDGE_CURVE('',#921,#744,#923,.T.);
#921 = VERTEX_POINT('',#922);
#922 = CARTESIAN_POINT('',(-7.95,-5.,0.));
#923 = LINE('',#924,#925);
#924 = CARTESIAN_POINT('',(-7.95,-5.,0.));
#925 = VECTOR('',#926,1.);
#926 = DIRECTION('',(1.,0.,0.));
#927 = ORIENTED_EDGE('',*,*,#928,.F.);
#928 = EDGE_CURVE('',#929,#921,#931,.T.);
#929 = VERTEX_POINT('',#930);
#930 = CARTESIAN_POINT('',(-7.95,5.,0.));
#931 = LINE('',#932,#933);
#932 = CARTESIAN_POINT('',(-7.95,5.,0.));
#933 = VECTOR('',#934,1.);
#934 = DIRECTION('',(0.,-1.,0.));
#935 = ORIENTED_EDGE('',*,*,#936,.F.);
#936 = EDGE_CURVE('',#880,#929,#937,.T.);
#937 = LINE('',#938,#939);
#938 = CARTESIAN_POINT('',(-6.2,5.,0.));
#939 = VECTOR('',#940,1.);
#940 = DIRECTION('',(-1.,0.,0.));
#941 = ORIENTED_EDGE('',*,*,#887,.T.);
#942 = ORIENTED_EDGE('',*,*,#801,.F.);
#943 = ORIENTED_EDGE('',*,*,#944,.F.);
#944 = EDGE_CURVE('',#945,#802,#947,.T.);
#945 = VERTEX_POINT('',#946);
#946 = CARTESIAN_POINT('',(-10.,6.,0.));
#947 = LINE('',#948,#949);
#948 = CARTESIAN_POINT('',(-10.,6.,0.));
#949 = VECTOR('',#950,1.);
#950 = DIRECTION('',(1.,0.,0.));
#951 = ORIENTED_EDGE('',*,*,#952,.T.);
#952 = EDGE_CURVE('',#945,#953,#955,.T.);
#953 = VERTEX_POINT('',#954);
#954 = CARTESIAN_POINT('',(-10.,-6.,0.));
#955 = LINE('',#956,#957);
#956 = CARTESIAN_POINT('',(-10.,6.,0.));
#957 = VECTOR('',#958,1.);
#958 = DIRECTION('',(0.,-1.,0.));
#959 = ORIENTED_EDGE('',*,*,#960,.F.);
#960 = EDGE_CURVE('',#784,#953,#961,.T.);
#961 = LINE('',#962,#963);
#962 = CARTESIAN_POINT('',(-5.5,-6.,0.));
#963 = VECTOR('',#964,1.);
#964 = DIRECTION('',(-1.,0.,0.));
#965 = PLANE('',#966);
#966 = AXIS2_PLACEMENT_3D('',#967,#968,#969);
#967 = CARTESIAN_POINT('',(0.,0.,0.));
#968 = DIRECTION('',(0.,0.,1.));
#969 = DIRECTION('',(1.,0.,0.));
#970 = ADVANCED_FACE('',(#971),#989,.T.);
#971 = FACE_BOUND('',#972,.T.);
#972 = EDGE_LOOP('',(#973,#981,#987,#988));
#973 = ORIENTED_EDGE('',*,*,#974,.T.);
#974 = EDGE_CURVE('',#921,#975,#977,.T.);
#975 = VERTEX_POINT('',#976);
#976 = CARTESIAN_POINT('',(-7.95,-5.,-25.));
#977 = LINE('',#978,#979);
#978 = CARTESIAN_POINT('',(-7.95,-5.,0.));
#979 = VECTOR('',#980,1.);
#980 = DIRECTION('',(-0.,-0.,-1.));
#981 = ORIENTED_EDGE('',*,*,#982,.T.);
#982 = EDGE_CURVE('',#975,#752,#983,.T.);
#983 = LINE('',#984,#985);
#984 = CARTESIAN_POINT('',(-7.95,-5.,-25.));
#985 = VECTOR('',#986,1.);
#986 = DIRECTION('',(1.,0.,0.));
#987 = ORIENTED_EDGE('',*,*,#751,.F.);
#988 = ORIENTED_EDGE('',*,*,#920,.F.);
#989 = PLANE('',#990);
#990 = AXIS2_PLACEMENT_3D('',#991,#992,#993);
#991 = CARTESIAN_POINT('',(-7.95,-5.,0.));
#992 = DIRECTION('',(0.,-1.,0.));
#993 = DIRECTION('',(1.,0.,0.));
#994 = ADVANCED_FACE('',(#995),#1020,.F.);
#995 = FACE_BOUND('',#996,.T.);
#996 = EDGE_LOOP('',(#997,#998,#1004,#1005,#1006,#1014));
#997 = ORIENTED_EDGE('',*,*,#871,.T.);
#998 = ORIENTED_EDGE('',*,*,#999,.T.);
#999 = EDGE_CURVE('',#864,#760,#1000,.T.);
#1000 = LINE('',#1001,#1002);
#1001 = CARTESIAN_POINT('',(-4.,4.,-25.));
#1002 = VECTOR('',#1003,1.);
#1003 = DIRECTION('',(0.,-1.,0.));
#1004 = ORIENTED_EDGE('',*,*,#759,.F.);
#1005 = ORIENTED_EDGE('',*,*,#982,.F.);
#1006 = ORIENTED_EDGE('',*,*,#1007,.F.);
#1007 = EDGE_CURVE('',#1008,#975,#1010,.T.);
#1008 = VERTEX_POINT('',#1009);
#1009 = CARTESIAN_POINT('',(-7.95,5.,-25.));
#1010 = LINE('',#1011,#1012);
#1011 = CARTESIAN_POINT('',(-7.95,5.,-25.));
#1012 = VECTOR('',#1013,1.);
#1013 = DIRECTION('',(0.,-1.,0.));
#1014 = ORIENTED_EDGE('',*,*,#1015,.F.);
#1015 = EDGE_CURVE('',#872,#1008,#1016,.T.);
#1016 = LINE('',#1017,#1018);
#1017 = CARTESIAN_POINT('',(-6.2,5.,-25.));
#1018 = VECTOR('',#1019,1.);
#1019 = DIRECTION('',(-1.,0.,0.));
#1020 = PLANE('',#1021);
#1021 = AXIS2_PLACEMENT_3D('',#1022,#1023,#1024);
#1022 = CARTESIAN_POINT('',(-1.E-16,0.,-25.));
#1023 = DIRECTION('',(0.,0.,1.));
#1024 = DIRECTION('',(1.,0.,0.));
#1025 = ADVANCED_FACE('',(#1026,#1032),#1068,.F.);
#1026 = FACE_BOUND('',#1027,.F.);
#1027 = EDGE_LOOP('',(#1028,#1029,#1030,#1031));
#1028 = ORIENTED_EDGE('',*,*,#863,.T.);
#1029 = ORIENTED_EDGE('',*,*,#999,.T.);
#1030 = ORIENTED_EDGE('',*,*,#767,.F.);
#1031 = ORIENTED_EDGE('',*,*,#904,.F.);
#1032 = FACE_BOUND('',#1033,.F.);
#1033 = EDGE_LOOP('',(#1034,#1045,#1053,#1062));
#1034 = ORIENTED_EDGE('',*,*,#1035,.F.);
#1035 = EDGE_CURVE('',#1036,#1038,#1040,.T.);
#1036 = VERTEX_POINT('',#1037);
#1037 = CARTESIAN_POINT('',(-4.,-1.601047734248,-8.6));
#1038 = VERTEX_POINT('',#1039);
#1039 = CARTESIAN_POINT('',(-4.,1.601047734248,-8.6));
#1040 = CIRCLE('',#1041,1.601047734248);
#1041 = AXIS2_PLACEMENT_3D('',#1042,#1043,#1044);
#1042 = CARTESIAN_POINT('',(-4.,0.,-8.6));
#1043 = DIRECTION('',(-1.,0.,0.));
#1044 = DIRECTION('',(0.,-1.,0.));
#1045 = ORIENTED_EDGE('',*,*,#1046,.T.);
#1046 = EDGE_CURVE('',#1036,#1047,#1049,.T.);
#1047 = VERTEX_POINT('',#1048);
#1048 = CARTESIAN_POINT('',(-4.,-1.601047734248,-18.59999999999));
#1049 = LINE('',#1050,#1051);
#1050 = CARTESIAN_POINT('',(-4.,-1.601047734248,-4.3));
#1051 = VECTOR('',#1052,1.);
#1052 = DIRECTION('',(0.,0.,-1.));
#1053 = ORIENTED_EDGE('',*,*,#1054,.F.);
#1054 = EDGE_CURVE('',#1055,#1047,#1057,.T.);
#1055 = VERTEX_POINT('',#1056);
#1056 = CARTESIAN_POINT('',(-4.,1.601047734248,-18.59999999999));
#1057 = CIRCLE('',#1058,1.601047734248);
#1058 = AXIS2_PLACEMENT_3D('',#1059,#1060,#1061);
#1059 = CARTESIAN_POINT('',(-4.,0.,-18.6));
#1060 = DIRECTION('',(-1.,0.,0.));
#1061 = DIRECTION('',(0.,-1.,0.));
#1062 = ORIENTED_EDGE('',*,*,#1063,.F.);
#1063 = EDGE_CURVE('',#1038,#1055,#1064,.T.);
#1064 = LINE('',#1065,#1066);
#1065 = CARTESIAN_POINT('',(-4.,1.601047734248,-4.3));
#1066 = VECTOR('',#1067,1.);
#1067 = DIRECTION('',(0.,0.,-1.));
#1068 = PLANE('',#1069);
#1069 = AXIS2_PLACEMENT_3D('',#1070,#1071,#1072);
#1070 = CARTESIAN_POINT('',(-4.,4.,0.));
#1071 = DIRECTION('',(-1.,0.,0.));
#1072 = DIRECTION('',(0.,-1.,0.));
#1073 = ADVANCED_FACE('',(#1074),#1092,.T.);
#1074 = FACE_BOUND('',#1075,.T.);
#1075 = EDGE_LOOP('',(#1076,#1077,#1078,#1086));
#1076 = ORIENTED_EDGE('',*,*,#960,.F.);
#1077 = ORIENTED_EDGE('',*,*,#835,.T.);
#1078 = ORIENTED_EDGE('',*,*,#1079,.F.);
#1079 = EDGE_CURVE('',#1080,#827,#1082,.T.);
#1080 = VERTEX_POINT('',#1081);
#1081 = CARTESIAN_POINT('',(-10.,-6.,24.000000313431));
#1082 = LINE('',#1083,#1084);
#1083 = CARTESIAN_POINT('',(-10.,-6.,24.000000313431));
#1084 = VECTOR('',#1085,1.);
#1085 = DIRECTION('',(1.,0.,0.));
#1086 = ORIENTED_EDGE('',*,*,#1087,.F.);
#1087 = EDGE_CURVE('',#953,#1080,#1088,.T.);
#1088 = LINE('',#1089,#1090);
#1089 = CARTESIAN_POINT('',(-10.,-6.,10.));
#1090 = VECTOR('',#1091,1.);
#1091 = DIRECTION('',(0.,0.,1.));
#1092 = PLANE('',#1093);
#1093 = AXIS2_PLACEMENT_3D('',#1094,#1095,#1096);
#1094 = CARTESIAN_POINT('',(-7.75,-6.,15.));
#1095 = DIRECTION('',(-0.,-1.,-0.));
#1096 = DIRECTION('',(0.,0.,-1.));
#1097 = ADVANCED_FACE('',(#1098),#1127,.T.);
#1098 = FACE_BOUND('',#1099,.T.);
#1099 = EDGE_LOOP('',(#1100,#1101,#1109,#1118,#1125,#1126));
#1100 = ORIENTED_EDGE('',*,*,#817,.T.);
#1101 = ORIENTED_EDGE('',*,*,#1102,.F.);
#1102 = EDGE_CURVE('',#1103,#810,#1105,.T.);
#1103 = VERTEX_POINT('',#1104);
#1104 = CARTESIAN_POINT('',(-10.,6.,24.));
#1105 = LINE('',#1106,#1107);
#1106 = CARTESIAN_POINT('',(-10.,6.,24.));
#1107 = VECTOR('',#1108,1.);
#1108 = DIRECTION('',(1.,0.,0.));
#1109 = ORIENTED_EDGE('',*,*,#1110,.F.);
#1110 = EDGE_CURVE('',#1111,#1103,#1113,.T.);
#1111 = VERTEX_POINT('',#1112);
#1112 = CARTESIAN_POINT('',(-10.,0.,30.));
#1113 = CIRCLE('',#1114,6.);
#1114 = AXIS2_PLACEMENT_3D('',#1115,#1116,#1117);
#1115 = CARTESIAN_POINT('',(-10.,0.,24.));
#1116 = DIRECTION('',(-1.,0.,0.));
#1117 = DIRECTION('',(0.,-1.,0.));
#1118 = ORIENTED_EDGE('',*,*,#1119,.F.);
#1119 = EDGE_CURVE('',#1080,#1111,#1120,.T.);
#1120 = CIRCLE('',#1121,6.);
#1121 = AXIS2_PLACEMENT_3D('',#1122,#1123,#1124);
#1122 = CARTESIAN_POINT('',(-10.,0.,24.));
#1123 = DIRECTION('',(-1.,0.,0.));
#1124 = DIRECTION('',(0.,-1.,0.));
#1125 = ORIENTED_EDGE('',*,*,#1079,.T.);
#1126 = ORIENTED_EDGE('',*,*,#826,.T.);
#1127 = CYLINDRICAL_SURFACE('',#1128,6.);
#1128 = AXIS2_PLACEMENT_3D('',#1129,#1130,#1131);
#1129 = CARTESIAN_POINT('',(-10.,0.,24.));
#1130 = DIRECTION('',(-1.,0.,0.));
#1131 = DIRECTION('',(0.,-1.,0.));
#1132 = ADVANCED_FACE('',(#1133),#1144,.T.);
#1133 = FACE_BOUND('',#1134,.T.);
#1134 = EDGE_LOOP('',(#1135,#1136,#1142,#1143));
#1135 = ORIENTED_EDGE('',*,*,#944,.F.);
#1136 = ORIENTED_EDGE('',*,*,#1137,.T.);
#1137 = EDGE_CURVE('',#945,#1103,#1138,.T.);
#1138 = LINE('',#1139,#1140);
#1139 = CARTESIAN_POINT('',(-10.,6.,10.));
#1140 = VECTOR('',#1141,1.);
#1141 = DIRECTION('',(0.,0.,1.));
#1142 = ORIENTED_EDGE('',*,*,#1102,.T.);
#1143 = ORIENTED_EDGE('',*,*,#809,.F.);
#1144 = PLANE('',#1145);
#1145 = AXIS2_PLACEMENT_3D('',#1146,#1147,#1148);
#1146 = CARTESIAN_POINT('',(-7.75,6.,15.));
#1147 = DIRECTION('',(0.,1.,0.));
#1148 = DIRECTION('',(0.,0.,1.));
#1149 = ADVANCED_FACE('',(#1150),#1169,.F.);
#1150 = FACE_BOUND('',#1151,.F.);
#1151 = EDGE_LOOP('',(#1152,#1161,#1167,#1168));
#1152 = ORIENTED_EDGE('',*,*,#1153,.F.);
#1153 = EDGE_CURVE('',#1154,#1154,#1156,.T.);
#1154 = VERTEX_POINT('',#1155);
#1155 = CARTESIAN_POINT('',(-9.,-1.6,24.));
#1156 = CIRCLE('',#1157,1.6);
#1157 = AXIS2_PLACEMENT_3D('',#1158,#1159,#1160);
#1158 = CARTESIAN_POINT('',(-9.,0.,24.));
#1159 = DIRECTION('',(-1.,0.,0.));
#1160 = DIRECTION('',(0.,-1.,0.));
#1161 = ORIENTED_EDGE('',*,*,#1162,.T.);
#1162 = EDGE_CURVE('',#1154,#844,#1163,.T.);
#1163 = LINE('',#1164,#1165);
#1164 = CARTESIAN_POINT('',(-10.,-1.6,24.));
#1165 = VECTOR('',#1166,1.);
#1166 = DIRECTION('',(1.,0.,0.));
#1167 = ORIENTED_EDGE('',*,*,#843,.T.);
#1168 = ORIENTED_EDGE('',*,*,#1162,.F.);
#1169 = CYLINDRICAL_SURFACE('',#1170,1.6);
#1170 = AXIS2_PLACEMENT_3D('',#1171,#1172,#1173);
#1171 = CARTESIAN_POINT('',(-10.,0.,24.));
#1172 = DIRECTION('',(-1.,0.,0.));
#1173 = DIRECTION('',(0.,-1.,0.));
#1174 = ADVANCED_FACE('',(#1175),#1186,.T.);
#1175 = FACE_BOUND('',#1176,.T.);
#1176 = EDGE_LOOP('',(#1177,#1178,#1179,#1185));
#1177 = ORIENTED_EDGE('',*,*,#879,.T.);
#1178 = ORIENTED_EDGE('',*,*,#1015,.T.);
#1179 = ORIENTED_EDGE('',*,*,#1180,.F.);
#1180 = EDGE_CURVE('',#929,#1008,#1181,.T.);
#1181 = LINE('',#1182,#1183);
#1182 = CARTESIAN_POINT('',(-7.95,5.,0.));
#1183 = VECTOR('',#1184,1.);
#1184 = DIRECTION('',(-0.,-0.,-1.));
#1185 = ORIENTED_EDGE('',*,*,#936,.F.);
#1186 = PLANE('',#1187);
#1187 = AXIS2_PLACEMENT_3D('',#1188,#1189,#1190);
#1188 = CARTESIAN_POINT('',(-6.2,5.,0.));
#1189 = DIRECTION('',(0.,1.,0.));
#1190 = DIRECTION('',(-1.,0.,0.));
#1191 = ADVANCED_FACE('',(#1192,#1199),#1210,.T.);
#1192 = FACE_BOUND('',#1193,.T.);
#1193 = EDGE_LOOP('',(#1194,#1195,#1196,#1197,#1198));
#1194 = ORIENTED_EDGE('',*,*,#1137,.F.);
#1195 = ORIENTED_EDGE('',*,*,#952,.T.);
#1196 = ORIENTED_EDGE('',*,*,#1087,.T.);
#1197 = ORIENTED_EDGE('',*,*,#1119,.T.);
#1198 = ORIENTED_EDGE('',*,*,#1110,.T.);
#1199 = FACE_BOUND('',#1200,.T.);
#1200 = EDGE_LOOP('',(#1201));
#1201 = ORIENTED_EDGE('',*,*,#1202,.F.);
#1202 = EDGE_CURVE('',#1203,#1203,#1205,.T.);
#1203 = VERTEX_POINT('',#1204);
#1204 = CARTESIAN_POINT('',(-10.,-4.,24.));
#1205 = CIRCLE('',#1206,4.);
#1206 = AXIS2_PLACEMENT_3D('',#1207,#1208,#1209);
#1207 = CARTESIAN_POINT('',(-10.,0.,24.));
#1208 = DIRECTION('',(-1.,0.,0.));
#1209 = DIRECTION('',(0.,-1.,0.));
#1210 = PLANE('',#1211);
#1211 = AXIS2_PLACEMENT_3D('',#1212,#1213,#1214);
#1212 = CARTESIAN_POINT('',(-10.,0.,15.));
#1213 = DIRECTION('',(-1.,-0.,-0.));
#1214 = DIRECTION('',(0.,0.,-1.));
#1215 = ADVANCED_FACE('',(#1216,#1222),#1258,.T.);
#1216 = FACE_BOUND('',#1217,.T.);
#1217 = EDGE_LOOP('',(#1218,#1219,#1220,#1221));
#1218 = ORIENTED_EDGE('',*,*,#1180,.T.);
#1219 = ORIENTED_EDGE('',*,*,#1007,.T.);
#1220 = ORIENTED_EDGE('',*,*,#974,.F.);
#1221 = ORIENTED_EDGE('',*,*,#928,.F.);
#1222 = FACE_BOUND('',#1223,.T.);
#1223 = EDGE_LOOP('',(#1224,#1235,#1243,#1252));
#1224 = ORIENTED_EDGE('',*,*,#1225,.F.);
#1225 = EDGE_CURVE('',#1226,#1228,#1230,.T.);
#1226 = VERTEX_POINT('',#1227);
#1227 = CARTESIAN_POINT('',(-7.95,-3.,-8.6));
#1228 = VERTEX_POINT('',#1229);
#1229 = CARTESIAN_POINT('',(-7.95,3.,-8.6));
#1230 = CIRCLE('',#1231,3.);
#1231 = AXIS2_PLACEMENT_3D('',#1232,#1233,#1234);
#1232 = CARTESIAN_POINT('',(-7.95,0.,-8.6));
#1233 = DIRECTION('',(-1.,0.,0.));
#1234 = DIRECTION('',(0.,-1.,0.));
#1235 = ORIENTED_EDGE('',*,*,#1236,.T.);
#1236 = EDGE_CURVE('',#1226,#1237,#1239,.T.);
#1237 = VERTEX_POINT('',#1238);
#1238 = CARTESIAN_POINT('',(-7.95,-3.,-18.6));
#1239 = LINE('',#1240,#1241);
#1240 = CARTESIAN_POINT('',(-7.95,-3.,-8.6));
#1241 = VECTOR('',#1242,1.);
#1242 = DIRECTION('',(0.,0.,-1.));
#1243 = ORIENTED_EDGE('',*,*,#1244,.F.);
#1244 = EDGE_CURVE('',#1245,#1237,#1247,.T.);
#1245 = VERTEX_POINT('',#1246);
#1246 = CARTESIAN_POINT('',(-7.95,3.,-18.6));
#1247 = CIRCLE('',#1248,3.);
#1248 = AXIS2_PLACEMENT_3D('',#1249,#1250,#1251);
#1249 = CARTESIAN_POINT('',(-7.95,0.,-18.6));
#1250 = DIRECTION('',(-1.,0.,0.));
#1251 = DIRECTION('',(0.,-1.,0.));
#1252 = ORIENTED_EDGE('',*,*,#1253,.F.);
#1253 = EDGE_CURVE('',#1228,#1245,#1254,.T.);
#1254 = LINE('',#1255,#1256);
#1255 = CARTESIAN_POINT('',(-7.95,3.,-8.6));
#1256 = VECTOR('',#1257,1.);
#1257 = DIRECTION('',(0.,0.,-1.));
#1258 = PLANE('',#1259);
#1259 = AXIS2_PLACEMENT_3D('',#1260,#1261,#1262);
#1260 = CARTESIAN_POINT('',(-7.95,5.,0.));
#1261 = DIRECTION('',(-1.,0.,0.));
#1262 = DIRECTION('',(0.,-1.,0.));
#1263 = ADVANCED_FACE('',(#1264),#1290,.F.);
#1264 = FACE_BOUND('',#1265,.F.);
#1265 = EDGE_LOOP('',(#1266,#1267,#1275,#1284));
#1266 = ORIENTED_EDGE('',*,*,#1035,.T.);
#1267 = ORIENTED_EDGE('',*,*,#1268,.F.);
#1268 = EDGE_CURVE('',#1269,#1038,#1271,.T.);
#1269 = VERTEX_POINT('',#1270);
#1270 = CARTESIAN_POINT('',(-9.,1.601047734248,-8.6));
#1271 = LINE('',#1272,#1273);
#1272 = CARTESIAN_POINT('',(-7.95,1.601047734248,-8.6));
#1273 = VECTOR('',#1274,1.);
#1274 = DIRECTION('',(1.,0.,0.));
#1275 = ORIENTED_EDGE('',*,*,#1276,.T.);
#1276 = EDGE_CURVE('',#1269,#1277,#1279,.T.);
#1277 = VERTEX_POINT('',#1278);
#1278 = CARTESIAN_POINT('',(-9.,-1.601047734248,-8.6));
#1279 = CIRCLE('',#1280,1.601047734248);
#1280 = AXIS2_PLACEMENT_3D('',#1281,#1282,#1283);
#1281 = CARTESIAN_POINT('',(-9.,0.,-8.6));
#1282 = DIRECTION('',(1.,0.,0.));
#1283 = DIRECTION('',(0.,-1.,0.));
#1284 = ORIENTED_EDGE('',*,*,#1285,.F.);
#1285 = EDGE_CURVE('',#1036,#1277,#1286,.T.);
#1286 = LINE('',#1287,#1288);
#1287 = CARTESIAN_POINT('',(-7.95,-1.601047734248,-8.6));
#1288 = VECTOR('',#1289,1.);
#1289 = DIRECTION('',(-1.,0.,0.));
#1290 = CYLINDRICAL_SURFACE('',#1291,1.601047734248);
#1291 = AXIS2_PLACEMENT_3D('',#1292,#1293,#1294);
#1292 = CARTESIAN_POINT('',(-7.95,0.,-8.6));
#1293 = DIRECTION('',(-1.,0.,0.));
#1294 = DIRECTION('',(0.,-1.,0.));
#1295 = ADVANCED_FACE('',(#1296),#1314,.T.);
#1296 = FACE_BOUND('',#1297,.T.);
#1297 = EDGE_LOOP('',(#1298,#1299,#1300,#1308));
#1298 = ORIENTED_EDGE('',*,*,#1063,.F.);
#1299 = ORIENTED_EDGE('',*,*,#1268,.F.);
#1300 = ORIENTED_EDGE('',*,*,#1301,.T.);
#1301 = EDGE_CURVE('',#1269,#1302,#1304,.T.);
#1302 = VERTEX_POINT('',#1303);
#1303 = CARTESIAN_POINT('',(-9.,1.601047734248,-18.59999999999));
#1304 = LINE('',#1305,#1306);
#1305 = CARTESIAN_POINT('',(-9.,1.601047734248,3.2));
#1306 = VECTOR('',#1307,1.);
#1307 = DIRECTION('',(0.,0.,-1.));
#1308 = ORIENTED_EDGE('',*,*,#1309,.F.);
#1309 = EDGE_CURVE('',#1055,#1302,#1310,.T.);
#1310 = LINE('',#1311,#1312);
#1311 = CARTESIAN_POINT('',(-7.95,1.601047734248,-18.59999999999));
#1312 = VECTOR('',#1313,1.);
#1313 = DIRECTION('',(-1.,0.,0.));
#1314 = PLANE('',#1315);
#1315 = AXIS2_PLACEMENT_3D('',#1316,#1317,#1318);
#1316 = CARTESIAN_POINT('',(-6.5,1.601047734248,-13.59999999999));
#1317 = DIRECTION('',(-0.,-1.,-0.));
#1318 = DIRECTION('',(0.,0.,-1.));
#1319 = ADVANCED_FACE('',(#1320),#1339,.F.);
#1320 = FACE_BOUND('',#1321,.F.);
#1321 = EDGE_LOOP('',(#1322,#1323,#1331,#1338));
#1322 = ORIENTED_EDGE('',*,*,#1054,.T.);
#1323 = ORIENTED_EDGE('',*,*,#1324,.F.);
#1324 = EDGE_CURVE('',#1325,#1047,#1327,.T.);
#1325 = VERTEX_POINT('',#1326);
#1326 = CARTESIAN_POINT('',(-9.,-1.601047734248,-18.59999999999));
#1327 = LINE('',#1328,#1329);
#1328 = CARTESIAN_POINT('',(-7.95,-1.601047734248,-18.59999999999));
#1329 = VECTOR('',#1330,1.);
#1330 = DIRECTION('',(1.,0.,0.));
#1331 = ORIENTED_EDGE('',*,*,#1332,.T.);
#1332 = EDGE_CURVE('',#1325,#1302,#1333,.T.);
#1333 = CIRCLE('',#1334,1.601047734248);
#1334 = AXIS2_PLACEMENT_3D('',#1335,#1336,#1337);
#1335 = CARTESIAN_POINT('',(-9.,0.,-18.6));
#1336 = DIRECTION('',(1.,0.,0.));
#1337 = DIRECTION('',(0.,-1.,0.));
#1338 = ORIENTED_EDGE('',*,*,#1309,.F.);
#1339 = CYLINDRICAL_SURFACE('',#1340,1.601047734248);
#1340 = AXIS2_PLACEMENT_3D('',#1341,#1342,#1343);
#1341 = CARTESIAN_POINT('',(-7.95,0.,-18.6));
#1342 = DIRECTION('',(-1.,0.,0.));
#1343 = DIRECTION('',(0.,-1.,0.));
#1344 = ADVANCED_FACE('',(#1345),#1356,.T.);
#1345 = FACE_BOUND('',#1346,.T.);
#1346 = EDGE_LOOP('',(#1347,#1348,#1354,#1355));
#1347 = ORIENTED_EDGE('',*,*,#1324,.F.);
#1348 = ORIENTED_EDGE('',*,*,#1349,.F.);
#1349 = EDGE_CURVE('',#1277,#1325,#1350,.T.);
#1350 = LINE('',#1351,#1352);
#1351 = CARTESIAN_POINT('',(-9.,-1.601047734248,3.2));
#1352 = VECTOR('',#1353,1.);
#1353 = DIRECTION('',(0.,0.,-1.));
#1354 = ORIENTED_EDGE('',*,*,#1285,.F.);
#1355 = ORIENTED_EDGE('',*,*,#1046,.T.);
#1356 = PLANE('',#1357);
#1357 = AXIS2_PLACEMENT_3D('',#1358,#1359,#1360);
#1358 = CARTESIAN_POINT('',(-6.5,-1.601047734248,-13.59999999999));
#1359 = DIRECTION('',(0.,1.,0.));
#1360 = DIRECTION('',(0.,0.,1.));
#1361 = ADVANCED_FACE('',(#1362,#1373),#1376,.F.);
#1362 = FACE_BOUND('',#1363,.T.);
#1363 = EDGE_LOOP('',(#1364));
#1364 = ORIENTED_EDGE('',*,*,#1365,.T.);
#1365 = EDGE_CURVE('',#1366,#1366,#1368,.T.);
#1366 = VERTEX_POINT('',#1367);
#1367 = CARTESIAN_POINT('',(-9.,-4.,24.));
#1368 = CIRCLE('',#1369,4.);
#1369 = AXIS2_PLACEMENT_3D('',#1370,#1371,#1372);
#1370 = CARTESIAN_POINT('',(-9.,0.,24.));
#1371 = DIRECTION('',(-1.,0.,0.));
#1372 = DIRECTION('',(0.,-1.,0.));
#1373 = FACE_BOUND('',#1374,.F.);
#1374 = EDGE_LOOP('',(#1375));
#1375 = ORIENTED_EDGE('',*,*,#1153,.T.);
#1376 = PLANE('',#1377);
#1377 = AXIS2_PLACEMENT_3D('',#1378,#1379,#1380);
#1378 = CARTESIAN_POINT('',(-9.,8.E-17,24.));
#1379 = DIRECTION('',(1.,0.,0.));
#1380 = DIRECTION('',(0.,0.,1.));
#1381 = ADVANCED_FACE('',(#1382),#1393,.F.);
#1382 = FACE_BOUND('',#1383,.F.);
#1383 = EDGE_LOOP('',(#1384,#1390,#1391,#1392));
#1384 = ORIENTED_EDGE('',*,*,#1385,.T.);
#1385 = EDGE_CURVE('',#1203,#1366,#1386,.T.);
#1386 = LINE('',#1387,#1388);
#1387 = CARTESIAN_POINT('',(-10.,-4.,24.));
#1388 = VECTOR('',#1389,1.);
#1389 = DIRECTION('',(1.,0.,0.));
#1390 = ORIENTED_EDGE('',*,*,#1365,.T.);
#1391 = ORIENTED_EDGE('',*,*,#1385,.F.);
#1392 = ORIENTED_EDGE('',*,*,#1202,.F.);
#1393 = CYLINDRICAL_SURFACE('',#1394,4.);
#1394 = AXIS2_PLACEMENT_3D('',#1395,#1396,#1397);
#1395 = CARTESIAN_POINT('',(-10.,0.,24.));
#1396 = DIRECTION('',(-1.,0.,0.));
#1397 = DIRECTION('',(0.,-1.,0.));
#1398 = ADVANCED_FACE('',(#1399),#1425,.T.);
#1399 = FACE_BOUND('',#1400,.F.);
#1400 = EDGE_LOOP('',(#1401,#1402,#1410,#1419));
#1401 = ORIENTED_EDGE('',*,*,#1225,.F.);
#1402 = ORIENTED_EDGE('',*,*,#1403,.T.);
#1403 = EDGE_CURVE('',#1226,#1404,#1406,.T.);
#1404 = VERTEX_POINT('',#1405);
#1405 = CARTESIAN_POINT('',(-9.,-3.,-8.6));
#1406 = LINE('',#1407,#1408);
#1407 = CARTESIAN_POINT('',(-7.95,-3.,-8.6));
#1408 = VECTOR('',#1409,1.);
#1409 = DIRECTION('',(-1.,0.,0.));
#1410 = ORIENTED_EDGE('',*,*,#1411,.F.);
#1411 = EDGE_CURVE('',#1412,#1404,#1414,.T.);
#1412 = VERTEX_POINT('',#1413);
#1413 = CARTESIAN_POINT('',(-9.,3.,-8.6));
#1414 = CIRCLE('',#1415,3.);
#1415 = AXIS2_PLACEMENT_3D('',#1416,#1417,#1418);
#1416 = CARTESIAN_POINT('',(-9.,0.,-8.6));
#1417 = DIRECTION('',(1.,0.,0.));
#1418 = DIRECTION('',(0.,-1.,0.));
#1419 = ORIENTED_EDGE('',*,*,#1420,.F.);
#1420 = EDGE_CURVE('',#1228,#1412,#1421,.T.);
#1421 = LINE('',#1422,#1423);
#1422 = CARTESIAN_POINT('',(-7.95,3.,-8.6));
#1423 = VECTOR('',#1424,1.);
#1424 = DIRECTION('',(-1.,0.,0.));
#1425 = CYLINDRICAL_SURFACE('',#1426,3.);
#1426 = AXIS2_PLACEMENT_3D('',#1427,#1428,#1429);
#1427 = CARTESIAN_POINT('',(-7.95,0.,-8.6));
#1428 = DIRECTION('',(1.,0.,0.));
#1429 = DIRECTION('',(0.,-1.,0.));
#1430 = ADVANCED_FACE('',(#1431),#1449,.F.);
#1431 = FACE_BOUND('',#1432,.F.);
#1432 = EDGE_LOOP('',(#1433,#1434,#1435,#1443));
#1433 = ORIENTED_EDGE('',*,*,#1253,.F.);
#1434 = ORIENTED_EDGE('',*,*,#1420,.T.);
#1435 = ORIENTED_EDGE('',*,*,#1436,.T.);
#1436 = EDGE_CURVE('',#1412,#1437,#1439,.T.);
#1437 = VERTEX_POINT('',#1438);
#1438 = CARTESIAN_POINT('',(-9.,3.,-18.6));
#1439 = LINE('',#1440,#1441);
#1440 = CARTESIAN_POINT('',(-9.,3.,3.2));
#1441 = VECTOR('',#1442,1.);
#1442 = DIRECTION('',(0.,0.,-1.));
#1443 = ORIENTED_EDGE('',*,*,#1444,.F.);
#1444 = EDGE_CURVE('',#1245,#1437,#1445,.T.);
#1445 = LINE('',#1446,#1447);
#1446 = CARTESIAN_POINT('',(-7.95,3.,-18.6));
#1447 = VECTOR('',#1448,1.);
#1448 = DIRECTION('',(-1.,0.,0.));
#1449 = PLANE('',#1450);
#1450 = AXIS2_PLACEMENT_3D('',#1451,#1452,#1453);
#1451 = CARTESIAN_POINT('',(-7.95,3.,-8.6));
#1452 = DIRECTION('',(-0.,-1.,-0.));
#1453 = DIRECTION('',(0.,0.,-1.));
#1454 = ADVANCED_FACE('',(#1455),#1474,.T.);
#1455 = FACE_BOUND('',#1456,.F.);
#1456 = EDGE_LOOP('',(#1457,#1458,#1459,#1468));
#1457 = ORIENTED_EDGE('',*,*,#1244,.F.);
#1458 = ORIENTED_EDGE('',*,*,#1444,.T.);
#1459 = ORIENTED_EDGE('',*,*,#1460,.F.);
#1460 = EDGE_CURVE('',#1461,#1437,#1463,.T.);
#1461 = VERTEX_POINT('',#1462);
#1462 = CARTESIAN_POINT('',(-9.,-3.,-18.6));
#1463 = CIRCLE('',#1464,3.);
#1464 = AXIS2_PLACEMENT_3D('',#1465,#1466,#1467);
#1465 = CARTESIAN_POINT('',(-9.,0.,-18.6));
#1466 = DIRECTION('',(1.,0.,0.));
#1467 = DIRECTION('',(0.,-1.,0.));
#1468 = ORIENTED_EDGE('',*,*,#1469,.F.);
#1469 = EDGE_CURVE('',#1237,#1461,#1470,.T.);
#1470 = LINE('',#1471,#1472);
#1471 = CARTESIAN_POINT('',(-7.95,-3.,-18.6));
#1472 = VECTOR('',#1473,1.);
#1473 = DIRECTION('',(-1.,0.,0.));
#1474 = CYLINDRICAL_SURFACE('',#1475,3.);
#1475 = AXIS2_PLACEMENT_3D('',#1476,#1477,#1478);
#1476 = CARTESIAN_POINT('',(-7.95,0.,-18.6));
#1477 = DIRECTION('',(1.,0.,0.));
#1478 = DIRECTION('',(0.,-1.,0.));
#1479 = ADVANCED_FACE('',(#1480),#1491,.T.);
#1480 = FACE_BOUND('',#1481,.T.);
#1481 = EDGE_LOOP('',(#1482,#1483,#1484,#1490));
#1482 = ORIENTED_EDGE('',*,*,#1236,.F.);
#1483 = ORIENTED_EDGE('',*,*,#1403,.T.);
#1484 = ORIENTED_EDGE('',*,*,#1485,.T.);
#1485 = EDGE_CURVE('',#1404,#1461,#1486,.T.);
#1486 = LINE('',#1487,#1488);
#1487 = CARTESIAN_POINT('',(-9.,-3.,3.2));
#1488 = VECTOR('',#1489,1.);
#1489 = DIRECTION('',(0.,0.,-1.));
#1490 = ORIENTED_EDGE('',*,*,#1469,.F.);
#1491 = PLANE('',#1492);
#1492 = AXIS2_PLACEMENT_3D('',#1493,#1494,#1495);
#1493 = CARTESIAN_POINT('',(-7.95,-3.,-8.6));
#1494 = DIRECTION('',(-0.,-1.,-0.));
#1495 = DIRECTION('',(0.,0.,-1.));
#1496 = ADVANCED_FACE('',(#1497,#1503),#1509,.T.);
#1497 = FACE_BOUND('',#1498,.T.);
#1498 = EDGE_LOOP('',(#1499,#1500,#1501,#1502));
#1499 = ORIENTED_EDGE('',*,*,#1411,.F.);
#1500 = ORIENTED_EDGE('',*,*,#1436,.T.);
#1501 = ORIENTED_EDGE('',*,*,#1460,.F.);
#1502 = ORIENTED_EDGE('',*,*,#1485,.F.);
#1503 = FACE_BOUND('',#1504,.T.);
#1504 = EDGE_LOOP('',(#1505,#1506,#1507,#1508));
#1505 = ORIENTED_EDGE('',*,*,#1276,.T.);
#1506 = ORIENTED_EDGE('',*,*,#1349,.T.);
#1507 = ORIENTED_EDGE('',*,*,#1332,.T.);
#1508 = ORIENTED_EDGE('',*,*,#1301,.F.);
#1509 = PLANE('',#1510);
#1510 = AXIS2_PLACEMENT_3D('',#1511,#1512,#1513);
#1511 = CARTESIAN_POINT('',(-9.,0.,15.));
#1512 = DIRECTION('',(-1.,-0.,-0.));
#1513 = DIRECTION('',(0.,0.,-1.));
#1514 = ( GEOMETRIC_REPRESENTATION_CONTEXT(3) 
GLOBAL_UNCERTAINTY_ASSIGNED_CONTEXT((#1518)) 
GLOBAL_UNIT_ASSIGNED_CONTEXT((#1515,#1516,#1517)) REPRESENTATION_CONTEXT
('Context #1','3D Context with UNIT and UNCERTAINTY') );
#1515 = ( LENGTH_UNIT() NAMED_UNIT(*) SI_UNIT(.MILLI.,.METRE.) );
#1516 = ( NAMED_UNIT(*) PLANE_ANGLE_UNIT() SI_UNIT($,.RADIAN.) );
#1517 = ( NAMED_UNIT(*) SI_UNIT($,.STERADIAN.) SOLID_ANGLE_UNIT() );
#1518 = UNCERTAINTY_MEASURE_WITH_UNIT(LENGTH_MEASURE(5.E-06),#1515,
  'distance_accuracy_value','confusion accuracy');
#1519 = PRODUCT_RELATED_PRODUCT_CATEGORY('part',$,(#7));
#1520 = MECHANICAL_DESIGN_GEOMETRIC_PRESENTATION_REPRESENTATION('',(
    #1521),#1514);
#1521 = STYLED_ITEM('color',(#1522),#15);
#1522 = PRESENTATION_STYLE_ASSIGNMENT((#1523,#1529));
#1523 = SURFACE_STYLE_USAGE(.BOTH.,#1524);
#1524 = SURFACE_SIDE_STYLE('',(#1525));
#1525 = SURFACE_STYLE_FILL_AREA(#1526);
#1526 = FILL_AREA_STYLE('',(#1527));
#1527 = FILL_AREA_STYLE_COLOUR('',#1528);
#1528 = COLOUR_RGB('',0.447058818107,0.474509808674,0.501960817233);
#1529 = CURVE_STYLE('',#1530,POSITIVE_LENGTH_MEASURE(0.1),#1531);
#1530 = DRAUGHTING_PRE_DEFINED_CURVE_FONT('continuous');
#1531 = COLOUR_RGB('',9.803921802644E-02,9.803921802644E-02,
  9.803921802644E-02);
ENDSEC;
END-ISO-10303-21;
