ISO-10303-21;
HEADER;
FILE_DESCRIPTION(('FreeCAD Model'),'2;1');
FILE_NAME('Open CASCADE Shape Model','2026-09-03T22:04:15',('Author'),(
    ''),'Open CASCADE STEP processor 7.9','FreeCAD','Unknown');
FILE_SCHEMA(('AUTOMOTIVE_DESIGN { 1 0 10303 214 1 1 1 1 }'));
ENDSEC;
DATA;
#1 = APPLICATION_PROTOCOL_DEFINITION('international standard',
  'automotive_design',2000,#2);
#2 = APPLICATION_CONTEXT(
  'core data for automotive mechanical design processes');
#3 = SHAPE_DEFINITION_REPRESENTATION(#4,#10);
#4 = PRODUCT_DEFINITION_SHAPE('','',#5);
#5 = PRODUCT_DEFINITION('design','',#6,#9);
#6 = PRODUCT_DEFINITION_FORMATION('','',#7);
#7 = PRODUCT('F688 pillow_Standard004','F688 pillow_Standard004','',(#8)
  );
#8 = PRODUCT_CONTEXT('',#2,'mechanical');
#9 = PRODUCT_DEFINITION_CONTEXT('part definition',#2,'design');
#10 = ADVANCED_BREP_SHAPE_REPRESENTATION('',(#11,#15),#505);
#11 = AXIS2_PLACEMENT_3D('',#12,#13,#14);
#12 = CARTESIAN_POINT('',(0.,0.,0.));
#13 = DIRECTION('',(0.,0.,1.));
#14 = DIRECTION('',(1.,0.,-0.));
#15 = MANIFOLD_SOLID_BREP('',#16);
#16 = CLOSED_SHELL('',(#17,#159,#201,#243,#281,#307,#325,#343,#363,#469,
    #481));
#17 = ADVANCED_FACE('',(#18),#142,.T.);
#18 = FACE_BOUND('',#19,.T.);
#19 = EDGE_LOOP('',(#20,#117,#126,#135));
#20 = ORIENTED_EDGE('',*,*,#21,.F.);
#21 = EDGE_CURVE('',#22,#24,#26,.T.);
#22 = VERTEX_POINT('',#23);
#23 = CARTESIAN_POINT('',(1.E-15,5.,-7.5));
#24 = VERTEX_POINT('',#25);
#25 = CARTESIAN_POINT('',(0.,5.,7.5));
#26 = B_SPLINE_CURVE_WITH_KNOTS('',3,(#27,#28,#29,#30,#31,#32,#33,#34,
    #35,#36,#37,#38,#39,#40,#41,#42,#43,#44,#45,#46,#47,#48,#49,#50,#51,
    #52,#53,#54,#55,#56,#57,#58,#59,#60,#61,#62,#63,#64,#65,#66,#67,#68,
    #69,#70,#71,#72,#73,#74,#75,#76,#77,#78,#79,#80,#81,#82,#83,#84,#85,
    #86,#87,#88,#89,#90,#91,#92,#93,#94,#95,#96,#97,#98,#99,#100,#101,
    #102,#103,#104,#105,#106,#107,#108,#109,#110,#111,#112,#113,#114,
    #115,#116),.UNSPECIFIED.,.F.,.F.,(4,1,1,1,2,2,1,1,1,2,2,1,1,2,2,2,1,
    1,2,2,1,1,1,2,2,1,1,1,2,2,2,1,1,1,2,2,1,1,1,2,2,1,1,2,2,2,1,1,2,2,1,
    1,1,2,2,1,1,1,2,2,4),(0.,3.125E-02,4.6875E-02,5.46875E-02,
    5.859375E-02,6.25E-02,9.375E-02,0.109375,0.1171875,0.12109375,0.125,
    0.15625,0.171875,0.1796875,0.1875,0.25,0.28125,0.296875,0.3046875,
    0.3125,0.34375,0.359375,0.3671875,0.37109375,0.375,0.40625,0.421875,
    0.4296875,0.43359375,0.4375,0.5,0.53125,0.546875,0.5546875,
    0.55859375,0.5625,0.59375,0.609375,0.6171875,0.62109375,0.625,
    0.65625,0.671875,0.6796875,0.6875,0.75,0.78125,0.796875,0.8046875,
    0.8125,0.84375,0.859375,0.8671875,0.87109375,0.875,0.90625,0.921875,
    0.9296875,0.93359375,0.9375,1.),.UNSPECIFIED.);
#27 = CARTESIAN_POINT('',(9.3E-16,5.,-7.5));
#28 = CARTESIAN_POINT('',(-0.229279509158,5.,-7.5));
#29 = CARTESIAN_POINT('',(-0.571829502663,5.,-7.484348782891));
#30 = CARTESIAN_POINT('',(-0.969074938846,5.,-7.438699399655));
#31 = CARTESIAN_POINT('',(-1.167098601211,5.,-7.409027300551));
#32 = CARTESIAN_POINT('',(-1.251837515997,5.,-7.394843385046));
#33 = CARTESIAN_POINT('',(-1.308301599391,5.,-7.385061374352));
#34 = CARTESIAN_POINT('',(-1.334847267584,5.,-7.38031664163));
#35 = CARTESIAN_POINT('',(-1.603727897149,5.,-7.330579235081));
#36 = CARTESIAN_POINT('',(-1.957480078771,5.,-7.247248713405));
#37 = CARTESIAN_POINT('',(-2.361869139514,5.,-7.120255307127));
#38 = CARTESIAN_POINT('',(-2.561983215432,5.,-7.049314987908));
#39 = CARTESIAN_POINT('',(-2.647300579157,5.,-7.017316933368));
#40 = CARTESIAN_POINT('',(-2.70407975238,5.,-6.9956304391));
#41 = CARTESIAN_POINT('',(-2.731273235373,5.,-6.985063787916));
#42 = CARTESIAN_POINT('',(-2.996207012443,5.,-6.880200018385));
#43 = CARTESIAN_POINT('',(-3.340749884074,5.,-6.723297598219));
#44 = CARTESIAN_POINT('',(-3.727487779835,5.,-6.510347668308));
#45 = CARTESIAN_POINT('',(-3.88996928063,5.,-6.412676889835));
#46 = CARTESIAN_POINT('',(-3.997565100788,5.,-6.346139365787));
#47 = CARTESIAN_POINT('',(-4.049936921215,5.,-6.312853953258));
#48 = CARTESIAN_POINT('',(-4.537162983776,5.,-5.994365381196));
#49 = CARTESIAN_POINT('',(-4.9374105491,5.,-5.669138632804));
#50 = CARTESIAN_POINT('',(-5.486246013798,5.,-5.120381971947));
#51 = CARTESIAN_POINT('',(-5.745225564378,5.,-4.833289343169));
#52 = CARTESIAN_POINT('',(-6.020351555291,5.,-4.476097920816));
#53 = CARTESIAN_POINT('',(-6.13247337609,5.,-4.318248020784));
#54 = CARTESIAN_POINT('',(-6.205934741476,5.,-4.211955229233));
#55 = CARTESIAN_POINT('',(-6.242814197749,5.,-4.157067791968));
#56 = CARTESIAN_POINT('',(-6.416074879705,5.,-3.892094584069));
#57 = CARTESIAN_POINT('',(-6.607024529357,5.,-3.565190305746));
#58 = CARTESIAN_POINT('',(-6.800113575402,5.,-3.168163230556));
#59 = CARTESIAN_POINT('',(-6.88923671212,5.,-2.965740005342));
#60 = CARTESIAN_POINT('',(-6.925842045076,5.,-2.878149404331));
#61 = CARTESIAN_POINT('',(-6.949892201033,5.,-2.819569494723));
#62 = CARTESIAN_POINT('',(-6.962226692733,5.,-2.788958801643));
#63 = CARTESIAN_POINT('',(-7.06289677985,5.,-2.534722482286));
#64 = CARTESIAN_POINT('',(-7.180182421906,5.,-2.190733174138));
#65 = CARTESIAN_POINT('',(-7.287368674629,5.,-1.780649103869));
#66 = CARTESIAN_POINT('',(-7.333550051905,5.,-1.573416266043));
#67 = CARTESIAN_POINT('',(-7.351753838791,5.,-1.48413273497));
#68 = CARTESIAN_POINT('',(-7.363536756282,5.,-1.424506056984));
#69 = CARTESIAN_POINT('',(-7.369575219724,5.,-1.39289322707));
#70 = CARTESIAN_POINT('',(-7.458230957531,5.,-0.913997549425));
#71 = CARTESIAN_POINT('',(-7.499967586422,5.,-0.458383790378));
#72 = CARTESIAN_POINT('',(-7.500016206789,5.,0.229191895189));
#73 = CARTESIAN_POINT('',(-7.484377144771,5.,0.571676178217));
#74 = CARTESIAN_POINT('',(-7.438720671065,5.,0.968959945511));
#75 = CARTESIAN_POINT('',(-7.409039708874,5.,1.167031521766));
#76 = CARTESIAN_POINT('',(-7.394850855363,5.,1.251797131433));
#77 = CARTESIAN_POINT('',(-7.385065299434,5.,1.308280380383));
#78 = CARTESIAN_POINT('',(-7.38031664163,5.,1.334847267583));
#79 = CARTESIAN_POINT('',(-7.330579235081,5.,1.603727897153));
#80 = CARTESIAN_POINT('',(-7.247248713404,5.,1.957480078777));
#81 = CARTESIAN_POINT('',(-7.120255307126,5.,2.361869139519));
#82 = CARTESIAN_POINT('',(-7.049314987907,5.,2.561983215435));
#83 = CARTESIAN_POINT('',(-7.017316933368,5.,2.647300579158));
#84 = CARTESIAN_POINT('',(-6.995630439099,5.,2.704079752381));
#85 = CARTESIAN_POINT('',(-6.985063787916,5.,2.731273235372));
#86 = CARTESIAN_POINT('',(-6.880200018383,5.,2.996207012448));
#87 = CARTESIAN_POINT('',(-6.723297598215,5.,3.340749884082));
#88 = CARTESIAN_POINT('',(-6.510347668305,5.,3.727487779841));
#89 = CARTESIAN_POINT('',(-6.412676889833,5.,3.889969280634));
#90 = CARTESIAN_POINT('',(-6.346139365786,5.,3.99756510079));
#91 = CARTESIAN_POINT('',(-6.312853953258,5.,4.049936921215));
#92 = CARTESIAN_POINT('',(-5.994365381194,5.,4.537162983778));
#93 = CARTESIAN_POINT('',(-5.669138632805,5.,4.9374105491));
#94 = CARTESIAN_POINT('',(-5.120381971946,5.,5.486246013799));
#95 = CARTESIAN_POINT('',(-4.833289343168,5.,5.745225564379));
#96 = CARTESIAN_POINT('',(-4.476097920815,5.,6.020351555292));
#97 = CARTESIAN_POINT('',(-4.318248020783,5.,6.132473376091));
#98 = CARTESIAN_POINT('',(-4.211955229233,5.,6.205934741476));
#99 = CARTESIAN_POINT('',(-4.157067791969,5.,6.242814197749));
#100 = CARTESIAN_POINT('',(-3.892094584069,5.,6.416074879705));
#101 = CARTESIAN_POINT('',(-3.565190305745,5.,6.607024529358));
#102 = CARTESIAN_POINT('',(-3.168163230555,5.,6.800113575402));
#103 = CARTESIAN_POINT('',(-2.965740005341,5.,6.88923671212));
#104 = CARTESIAN_POINT('',(-2.878149404331,5.,6.925842045077));
#105 = CARTESIAN_POINT('',(-2.819569494723,5.,6.949892201033));
#106 = CARTESIAN_POINT('',(-2.788958801643,5.,6.962226692733));
#107 = CARTESIAN_POINT('',(-2.534722482286,5.,7.06289677985));
#108 = CARTESIAN_POINT('',(-2.190733174138,5.,7.180182421906));
#109 = CARTESIAN_POINT('',(-1.780649103869,5.,7.287368674629));
#110 = CARTESIAN_POINT('',(-1.573416266043,5.,7.333550051905));
#111 = CARTESIAN_POINT('',(-1.48413273497,5.,7.351753838791));
#112 = CARTESIAN_POINT('',(-1.424506056984,5.,7.363536756282));
#113 = CARTESIAN_POINT('',(-1.392904187045,5.,7.369573190754));
#114 = CARTESIAN_POINT('',(-0.913822189826,5.,7.458263421041));
#115 = CARTESIAN_POINT('',(-0.458914558796,5.,7.5));
#116 = CARTESIAN_POINT('',(0.,5.,7.5));
#117 = ORIENTED_EDGE('',*,*,#118,.T.);
#118 = EDGE_CURVE('',#22,#119,#121,.T.);
#119 = VERTEX_POINT('',#120);
#120 = CARTESIAN_POINT('',(0.,4.5,-8.));
#121 = CIRCLE('',#122,0.5);
#122 = AXIS2_PLACEMENT_3D('',#123,#124,#125);
#123 = CARTESIAN_POINT('',(9.2E-16,4.5,-7.5));
#124 = DIRECTION('',(-1.,0.,-1.2E-16));
#125 = DIRECTION('',(1.2E-16,0.,-1.));
#126 = ORIENTED_EDGE('',*,*,#127,.F.);
#127 = EDGE_CURVE('',#128,#119,#130,.T.);
#128 = VERTEX_POINT('',#129);
#129 = CARTESIAN_POINT('',(1.E-15,4.5,8.));
#130 = CIRCLE('',#131,8.);
#131 = AXIS2_PLACEMENT_3D('',#132,#133,#134);
#132 = CARTESIAN_POINT('',(0.,4.5,0.));
#133 = DIRECTION('',(0.,-1.,-0.));
#134 = DIRECTION('',(0.,0.,-1.));
#135 = ORIENTED_EDGE('',*,*,#136,.F.);
#136 = EDGE_CURVE('',#24,#128,#137,.T.);
#137 = CIRCLE('',#138,0.5);
#138 = AXIS2_PLACEMENT_3D('',#139,#140,#141);
#139 = CARTESIAN_POINT('',(0.,4.5,7.5));
#140 = DIRECTION('',(1.,0.,-0.));
#141 = DIRECTION('',(0.,0.,1.));
#142 = ( BOUNDED_SURFACE() B_SPLINE_SURFACE(3,3,(
    (#143,#144,#145,#146)
    ,(#147,#148,#149,#150)
    ,(#151,#152,#153,#154)
    ,(#155,#156,#157,#158
)),.UNSPECIFIED.,.F.,.F.,.F.) B_SPLINE_SURFACE_WITH_KNOTS((4,4),(4,4),(
    0.,1.),(0.,1.),.PIECEWISE_BEZIER_KNOTS.) 
GEOMETRIC_REPRESENTATION_ITEM() RATIONAL_B_SPLINE_SURFACE((
    (1.,0.333333333333,0.333333333333,1.)
    ,(0.804737854124,0.268245951375,0.268245951375,0.804737854124)
    ,(0.804737854124,0.268245951375,0.268245951375,0.804737854124)
,(1.,0.333333333333,0.333333333333,1.
))) REPRESENTATION_ITEM('') SURFACE() );
#143 = CARTESIAN_POINT('',(9.2E-16,5.,-7.5));
#144 = CARTESIAN_POINT('',(-15.,5.,-7.5));
#145 = CARTESIAN_POINT('',(-15.,5.,7.5));
#146 = CARTESIAN_POINT('',(-1.84E-15,5.,7.5));
#147 = CARTESIAN_POINT('',(9.5E-16,5.,-7.792893218813));
#148 = CARTESIAN_POINT('',(-15.58578643762,5.,-7.792893218813));
#149 = CARTESIAN_POINT('',(-15.58578643762,5.,7.792893218813));
#150 = CARTESIAN_POINT('',(-1.91E-15,5.,7.792893218813));
#151 = CARTESIAN_POINT('',(9.8E-16,4.792893218813,-8.));
#152 = CARTESIAN_POINT('',(-16.,4.792893218813,-8.));
#153 = CARTESIAN_POINT('',(-16.,4.792893218813,8.));
#154 = CARTESIAN_POINT('',(-1.96E-15,4.792893218813,8.));
#155 = CARTESIAN_POINT('',(9.8E-16,4.5,-8.));
#156 = CARTESIAN_POINT('',(-16.,4.5,-8.));
#157 = CARTESIAN_POINT('',(-16.,4.5,8.));
#158 = CARTESIAN_POINT('',(-1.96E-15,4.5,8.));
#159 = ADVANCED_FACE('',(#160),#196,.T.);
#160 = FACE_BOUND('',#161,.T.);
#161 = EDGE_LOOP('',(#162,#173,#181,#190));
#162 = ORIENTED_EDGE('',*,*,#163,.T.);
#163 = EDGE_CURVE('',#164,#166,#168,.T.);
#164 = VERTEX_POINT('',#165);
#165 = CARTESIAN_POINT('',(0.,1.,-9.));
#166 = VERTEX_POINT('',#167);
#167 = CARTESIAN_POINT('',(1.E-15,1.,9.));
#168 = CIRCLE('',#169,9.);
#169 = AXIS2_PLACEMENT_3D('',#170,#171,#172);
#170 = CARTESIAN_POINT('',(0.,1.,0.));
#171 = DIRECTION('',(0.,-1.,0.));
#172 = DIRECTION('',(0.,0.,-1.));
#173 = ORIENTED_EDGE('',*,*,#174,.T.);
#174 = EDGE_CURVE('',#166,#175,#177,.T.);
#175 = VERTEX_POINT('',#176);
#176 = CARTESIAN_POINT('',(1.E-15,0.,9.));
#177 = LINE('',#178,#179);
#178 = CARTESIAN_POINT('',(1.1E-15,1.,9.));
#179 = VECTOR('',#180,1.);
#180 = DIRECTION('',(0.,-1.,0.));
#181 = ORIENTED_EDGE('',*,*,#182,.T.);
#182 = EDGE_CURVE('',#175,#183,#185,.T.);
#183 = VERTEX_POINT('',#184);
#184 = CARTESIAN_POINT('',(0.,0.,-9.));
#185 = CIRCLE('',#186,9.);
#186 = AXIS2_PLACEMENT_3D('',#187,#188,#189);
#187 = CARTESIAN_POINT('',(0.,0.,0.));
#188 = DIRECTION('',(-0.,1.,0.));
#189 = DIRECTION('',(0.,0.,-1.));
#190 = ORIENTED_EDGE('',*,*,#191,.F.);
#191 = EDGE_CURVE('',#164,#183,#192,.T.);
#192 = LINE('',#193,#194);
#193 = CARTESIAN_POINT('',(0.,1.,-9.));
#194 = VECTOR('',#195,1.);
#195 = DIRECTION('',(0.,-1.,0.));
#196 = CYLINDRICAL_SURFACE('',#197,9.);
#197 = AXIS2_PLACEMENT_3D('',#198,#199,#200);
#198 = CARTESIAN_POINT('',(0.,1.,0.));
#199 = DIRECTION('',(0.,-1.,0.));
#200 = DIRECTION('',(0.,0.,-1.));
#201 = ADVANCED_FACE('',(#202),#238,.F.);
#202 = FACE_BOUND('',#203,.F.);
#203 = EDGE_LOOP('',(#204,#214,#223,#231));
#204 = ORIENTED_EDGE('',*,*,#205,.T.);
#205 = EDGE_CURVE('',#206,#208,#210,.T.);
#206 = VERTEX_POINT('',#207);
#207 = CARTESIAN_POINT('',(0.,5.,-4.));
#208 = VERTEX_POINT('',#209);
#209 = CARTESIAN_POINT('',(0.,0.,-4.));
#210 = LINE('',#211,#212);
#211 = CARTESIAN_POINT('',(0.,5.,-4.));
#212 = VECTOR('',#213,1.);
#213 = DIRECTION('',(-0.,-1.,-0.));
#214 = ORIENTED_EDGE('',*,*,#215,.F.);
#215 = EDGE_CURVE('',#216,#208,#218,.T.);
#216 = VERTEX_POINT('',#217);
#217 = CARTESIAN_POINT('',(0.,0.,4.));
#218 = CIRCLE('',#219,4.);
#219 = AXIS2_PLACEMENT_3D('',#220,#221,#222);
#220 = CARTESIAN_POINT('',(0.,0.,0.));
#221 = DIRECTION('',(0.,-1.,-0.));
#222 = DIRECTION('',(0.,0.,-1.));
#223 = ORIENTED_EDGE('',*,*,#224,.F.);
#224 = EDGE_CURVE('',#225,#216,#227,.T.);
#225 = VERTEX_POINT('',#226);
#226 = CARTESIAN_POINT('',(0.,5.,4.));
#227 = LINE('',#228,#229);
#228 = CARTESIAN_POINT('',(4.9E-16,5.,4.));
#229 = VECTOR('',#230,1.);
#230 = DIRECTION('',(-0.,-1.,-0.));
#231 = ORIENTED_EDGE('',*,*,#232,.T.);
#232 = EDGE_CURVE('',#225,#206,#233,.T.);
#233 = CIRCLE('',#234,4.);
#234 = AXIS2_PLACEMENT_3D('',#235,#236,#237);
#235 = CARTESIAN_POINT('',(0.,5.,0.));
#236 = DIRECTION('',(0.,-1.,-0.));
#237 = DIRECTION('',(0.,0.,-1.));
#238 = CYLINDRICAL_SURFACE('',#239,4.);
#239 = AXIS2_PLACEMENT_3D('',#240,#241,#242);
#240 = CARTESIAN_POINT('',(0.,5.,0.));
#241 = DIRECTION('',(-0.,-1.,-0.));
#242 = DIRECTION('',(0.,0.,-1.));
#243 = ADVANCED_FACE('',(#244),#276,.T.);
#244 = FACE_BOUND('',#245,.T.);
#245 = EDGE_LOOP('',(#246,#253,#261,#270));
#246 = ORIENTED_EDGE('',*,*,#247,.T.);
#247 = EDGE_CURVE('',#119,#128,#248,.T.);
#248 = CIRCLE('',#249,8.);
#249 = AXIS2_PLACEMENT_3D('',#250,#251,#252);
#250 = CARTESIAN_POINT('',(0.,4.5,0.));
#251 = DIRECTION('',(0.,-1.,-0.));
#252 = DIRECTION('',(0.,0.,-1.));
#253 = ORIENTED_EDGE('',*,*,#254,.T.);
#254 = EDGE_CURVE('',#128,#255,#257,.T.);
#255 = VERTEX_POINT('',#256);
#256 = CARTESIAN_POINT('',(1.E-15,1.,8.));
#257 = LINE('',#258,#259);
#258 = CARTESIAN_POINT('',(9.8E-16,5.,8.));
#259 = VECTOR('',#260,1.);
#260 = DIRECTION('',(-0.,-1.,-0.));
#261 = ORIENTED_EDGE('',*,*,#262,.T.);
#262 = EDGE_CURVE('',#255,#263,#265,.T.);
#263 = VERTEX_POINT('',#264);
#264 = CARTESIAN_POINT('',(0.,1.,-8.));
#265 = CIRCLE('',#266,8.);
#266 = AXIS2_PLACEMENT_3D('',#267,#268,#269);
#267 = CARTESIAN_POINT('',(0.,1.,0.));
#268 = DIRECTION('',(0.,1.,0.));
#269 = DIRECTION('',(0.,0.,-1.));
#270 = ORIENTED_EDGE('',*,*,#271,.F.);
#271 = EDGE_CURVE('',#119,#263,#272,.T.);
#272 = LINE('',#273,#274);
#273 = CARTESIAN_POINT('',(0.,5.,-8.));
#274 = VECTOR('',#275,1.);
#275 = DIRECTION('',(-0.,-1.,-0.));
#276 = CYLINDRICAL_SURFACE('',#277,8.);
#277 = AXIS2_PLACEMENT_3D('',#278,#279,#280);
#278 = CARTESIAN_POINT('',(0.,5.,0.));
#279 = DIRECTION('',(-0.,-1.,-0.));
#280 = DIRECTION('',(0.,0.,-1.));
#281 = ADVANCED_FACE('',(#282,#292),#302,.F.);
#282 = FACE_BOUND('',#283,.T.);
#283 = EDGE_LOOP('',(#284,#291));
#284 = ORIENTED_EDGE('',*,*,#285,.F.);
#285 = EDGE_CURVE('',#183,#175,#286,.T.);
#286 = CIRCLE('',#287,9.);
#287 = AXIS2_PLACEMENT_3D('',#288,#289,#290);
#288 = CARTESIAN_POINT('',(0.,0.,0.));
#289 = DIRECTION('',(-0.,1.,0.));
#290 = DIRECTION('',(0.,0.,-1.));
#291 = ORIENTED_EDGE('',*,*,#182,.F.);
#292 = FACE_BOUND('',#293,.T.);
#293 = EDGE_LOOP('',(#294,#301));
#294 = ORIENTED_EDGE('',*,*,#295,.F.);
#295 = EDGE_CURVE('',#208,#216,#296,.T.);
#296 = CIRCLE('',#297,4.);
#297 = AXIS2_PLACEMENT_3D('',#298,#299,#300);
#298 = CARTESIAN_POINT('',(0.,0.,0.));
#299 = DIRECTION('',(0.,-1.,-0.));
#300 = DIRECTION('',(0.,0.,-1.));
#301 = ORIENTED_EDGE('',*,*,#215,.F.);
#302 = PLANE('',#303);
#303 = AXIS2_PLACEMENT_3D('',#304,#305,#306);
#304 = CARTESIAN_POINT('',(0.,0.,0.));
#305 = DIRECTION('',(0.,1.,0.));
#306 = DIRECTION('',(0.,-0.,1.));
#307 = ADVANCED_FACE('',(#308),#320,.T.);
#308 = FACE_BOUND('',#309,.T.);
#309 = EDGE_LOOP('',(#310,#311,#318,#319));
#310 = ORIENTED_EDGE('',*,*,#174,.F.);
#311 = ORIENTED_EDGE('',*,*,#312,.T.);
#312 = EDGE_CURVE('',#166,#164,#313,.T.);
#313 = CIRCLE('',#314,9.);
#314 = AXIS2_PLACEMENT_3D('',#315,#316,#317);
#315 = CARTESIAN_POINT('',(0.,1.,0.));
#316 = DIRECTION('',(0.,-1.,0.));
#317 = DIRECTION('',(0.,0.,-1.));
#318 = ORIENTED_EDGE('',*,*,#191,.T.);
#319 = ORIENTED_EDGE('',*,*,#285,.T.);
#320 = CYLINDRICAL_SURFACE('',#321,9.);
#321 = AXIS2_PLACEMENT_3D('',#322,#323,#324);
#322 = CARTESIAN_POINT('',(0.,1.,0.));
#323 = DIRECTION('',(0.,-1.,0.));
#324 = DIRECTION('',(0.,0.,-1.));
#325 = ADVANCED_FACE('',(#326),#338,.F.);
#326 = FACE_BOUND('',#327,.F.);
#327 = EDGE_LOOP('',(#328,#329,#330,#337));
#328 = ORIENTED_EDGE('',*,*,#295,.F.);
#329 = ORIENTED_EDGE('',*,*,#205,.F.);
#330 = ORIENTED_EDGE('',*,*,#331,.T.);
#331 = EDGE_CURVE('',#206,#225,#332,.T.);
#332 = CIRCLE('',#333,4.);
#333 = AXIS2_PLACEMENT_3D('',#334,#335,#336);
#334 = CARTESIAN_POINT('',(0.,5.,0.));
#335 = DIRECTION('',(0.,-1.,-0.));
#336 = DIRECTION('',(0.,0.,-1.));
#337 = ORIENTED_EDGE('',*,*,#224,.T.);
#338 = CYLINDRICAL_SURFACE('',#339,4.);
#339 = AXIS2_PLACEMENT_3D('',#340,#341,#342);
#340 = CARTESIAN_POINT('',(0.,5.,0.));
#341 = DIRECTION('',(-0.,-1.,-0.));
#342 = DIRECTION('',(0.,0.,-1.));
#343 = ADVANCED_FACE('',(#344,#354),#358,.F.);
#344 = FACE_BOUND('',#345,.T.);
#345 = EDGE_LOOP('',(#346,#353));
#346 = ORIENTED_EDGE('',*,*,#347,.F.);
#347 = EDGE_CURVE('',#263,#255,#348,.T.);
#348 = CIRCLE('',#349,8.);
#349 = AXIS2_PLACEMENT_3D('',#350,#351,#352);
#350 = CARTESIAN_POINT('',(0.,1.,0.));
#351 = DIRECTION('',(0.,1.,0.));
#352 = DIRECTION('',(0.,0.,-1.));
#353 = ORIENTED_EDGE('',*,*,#262,.F.);
#354 = FACE_BOUND('',#355,.T.);
#355 = EDGE_LOOP('',(#356,#357));
#356 = ORIENTED_EDGE('',*,*,#163,.F.);
#357 = ORIENTED_EDGE('',*,*,#312,.F.);
#358 = PLANE('',#359);
#359 = AXIS2_PLACEMENT_3D('',#360,#361,#362);
#360 = CARTESIAN_POINT('',(0.,1.,0.));
#361 = DIRECTION('',(0.,-1.,0.));
#362 = DIRECTION('',(0.,-0.,-1.));
#363 = ADVANCED_FACE('',(#364,#368),#464,.T.);
#364 = FACE_BOUND('',#365,.T.);
#365 = EDGE_LOOP('',(#366,#367));
#366 = ORIENTED_EDGE('',*,*,#331,.T.);
#367 = ORIENTED_EDGE('',*,*,#232,.T.);
#368 = FACE_BOUND('',#369,.T.);
#369 = EDGE_LOOP('',(#370,#463));
#370 = ORIENTED_EDGE('',*,*,#371,.T.);
#371 = EDGE_CURVE('',#24,#22,#372,.T.);
#372 = B_SPLINE_CURVE_WITH_KNOTS('',3,(#373,#374,#375,#376,#377,#378,
    #379,#380,#381,#382,#383,#384,#385,#386,#387,#388,#389,#390,#391,
    #392,#393,#394,#395,#396,#397,#398,#399,#400,#401,#402,#403,#404,
    #405,#406,#407,#408,#409,#410,#411,#412,#413,#414,#415,#416,#417,
    #418,#419,#420,#421,#422,#423,#424,#425,#426,#427,#428,#429,#430,
    #431,#432,#433,#434,#435,#436,#437,#438,#439,#440,#441,#442,#443,
    #444,#445,#446,#447,#448,#449,#450,#451,#452,#453,#454,#455,#456,
    #457,#458,#459,#460,#461,#462),.UNSPECIFIED.,.F.,.F.,(4,1,1,1,2,2,1,
    1,1,2,2,1,1,2,2,2,1,1,2,2,1,1,1,2,2,1,1,1,2,2,2,1,1,1,2,2,1,1,1,2,2,
    1,1,2,2,2,1,1,2,2,1,1,1,2,2,1,1,1,2,2,4),(0.,3.125E-02,4.6875E-02,
    5.46875E-02,5.859375E-02,6.25E-02,9.375E-02,0.109375,0.1171875,
    0.12109375,0.125,0.15625,0.171875,0.1796875,0.1875,0.25,0.28125,
    0.296875,0.3046875,0.3125,0.34375,0.359375,0.3671875,0.37109375,
    0.375,0.40625,0.421875,0.4296875,0.43359375,0.4375,0.5,0.53125,
    0.546875,0.5546875,0.55859375,0.5625,0.59375,0.609375,0.6171875,
    0.62109375,0.625,0.65625,0.671875,0.6796875,0.6875,0.75,0.78125,
    0.796875,0.8046875,0.8125,0.84375,0.859375,0.8671875,0.87109375,
    0.875,0.90625,0.921875,0.9296875,0.93359375,0.9375,1.),
  .UNSPECIFIED.);
#373 = CARTESIAN_POINT('',(0.,5.,7.5));
#374 = CARTESIAN_POINT('',(0.229279509159,5.,7.5));
#375 = CARTESIAN_POINT('',(0.571829502664,5.,7.484348782891));
#376 = CARTESIAN_POINT('',(0.969074938847,5.,7.438699399655));
#377 = CARTESIAN_POINT('',(1.167098601211,5.,7.409027300551));
#378 = CARTESIAN_POINT('',(1.251837515997,5.,7.394843385046));
#379 = CARTESIAN_POINT('',(1.308301599392,5.,7.385061374352));
#380 = CARTESIAN_POINT('',(1.334847267584,5.,7.38031664163));
#381 = CARTESIAN_POINT('',(1.603727897149,5.,7.330579235081));
#382 = CARTESIAN_POINT('',(1.957480078771,5.,7.247248713404));
#383 = CARTESIAN_POINT('',(2.361869139514,5.,7.120255307127));
#384 = CARTESIAN_POINT('',(2.561983215432,5.,7.049314987908));
#385 = CARTESIAN_POINT('',(2.647300579157,5.,7.017316933368));
#386 = CARTESIAN_POINT('',(2.70407975238,5.,6.9956304391));
#387 = CARTESIAN_POINT('',(2.731273235373,5.,6.985063787916));
#388 = CARTESIAN_POINT('',(2.996207012443,5.,6.880200018385));
#389 = CARTESIAN_POINT('',(3.340749884075,5.,6.72329759822));
#390 = CARTESIAN_POINT('',(3.727487779835,5.,6.510347668308));
#391 = CARTESIAN_POINT('',(3.88996928063,5.,6.412676889835));
#392 = CARTESIAN_POINT('',(3.997565100788,5.,6.346139365787));
#393 = CARTESIAN_POINT('',(4.049936921215,5.,6.312853953258));
#394 = CARTESIAN_POINT('',(4.537162983775,5.,5.994365381196));
#395 = CARTESIAN_POINT('',(4.937410549101,5.,5.669138632803));
#396 = CARTESIAN_POINT('',(5.486246013798,5.,5.120381971947));
#397 = CARTESIAN_POINT('',(5.745225564378,5.,4.833289343169));
#398 = CARTESIAN_POINT('',(6.020351555291,5.,4.476097920816));
#399 = CARTESIAN_POINT('',(6.13247337609,5.,4.318248020784));
#400 = CARTESIAN_POINT('',(6.205934741476,5.,4.211955229233));
#401 = CARTESIAN_POINT('',(6.242814197749,5.,4.157067791968));
#402 = CARTESIAN_POINT('',(6.416074879704,5.,3.892094584071));
#403 = CARTESIAN_POINT('',(6.607024529355,5.,3.565190305748));
#404 = CARTESIAN_POINT('',(6.8001135754,5.,3.168163230558));
#405 = CARTESIAN_POINT('',(6.889236712119,5.,2.965740005343));
#406 = CARTESIAN_POINT('',(6.925842045076,5.,2.878149404332));
#407 = CARTESIAN_POINT('',(6.949892201033,5.,2.819569494724));
#408 = CARTESIAN_POINT('',(6.962226692733,5.,2.788958801642));
#409 = CARTESIAN_POINT('',(7.062896779849,5.,2.53472248229));
#410 = CARTESIAN_POINT('',(7.180182421905,5.,2.190733174144));
#411 = CARTESIAN_POINT('',(7.287368674628,5.,1.780649103874));
#412 = CARTESIAN_POINT('',(7.333550051905,5.,1.573416266046));
#413 = CARTESIAN_POINT('',(7.351753838791,5.,1.484132734972));
#414 = CARTESIAN_POINT('',(7.363536756282,5.,1.424506056985));
#415 = CARTESIAN_POINT('',(7.369575219724,5.,1.39289322707));
#416 = CARTESIAN_POINT('',(7.458230957531,5.,0.91399754943));
#417 = CARTESIAN_POINT('',(7.499967586422,5.,0.458383790377));
#418 = CARTESIAN_POINT('',(7.500016206789,5.,-0.229191895188));
#419 = CARTESIAN_POINT('',(7.484377144771,5.,-0.571676178216));
#420 = CARTESIAN_POINT('',(7.438720671065,5.,-0.968959945511));
#421 = CARTESIAN_POINT('',(7.409039708874,5.,-1.167031521765));
#422 = CARTESIAN_POINT('',(7.394850855363,5.,-1.251797131433));
#423 = CARTESIAN_POINT('',(7.385065299434,5.,-1.308280380383));
#424 = CARTESIAN_POINT('',(7.38031664163,5.,-1.334847267584));
#425 = CARTESIAN_POINT('',(7.330579235081,5.,-1.603727897149));
#426 = CARTESIAN_POINT('',(7.247248713405,5.,-1.957480078771));
#427 = CARTESIAN_POINT('',(7.120255307127,5.,-2.361869139514));
#428 = CARTESIAN_POINT('',(7.049314987908,5.,-2.561983215432));
#429 = CARTESIAN_POINT('',(7.017316933368,5.,-2.647300579157));
#430 = CARTESIAN_POINT('',(6.9956304391,5.,-2.70407975238));
#431 = CARTESIAN_POINT('',(6.985063787916,5.,-2.731273235373));
#432 = CARTESIAN_POINT('',(6.880200018385,5.,-2.996207012444));
#433 = CARTESIAN_POINT('',(6.723297598219,5.,-3.340749884076));
#434 = CARTESIAN_POINT('',(6.510347668308,5.,-3.727487779836));
#435 = CARTESIAN_POINT('',(6.412676889835,5.,-3.88996928063));
#436 = CARTESIAN_POINT('',(6.346139365787,5.,-3.997565100788));
#437 = CARTESIAN_POINT('',(6.312853953258,5.,-4.049936921215));
#438 = CARTESIAN_POINT('',(5.994365381196,5.,-4.537162983776));
#439 = CARTESIAN_POINT('',(5.669138632804,5.,-4.9374105491));
#440 = CARTESIAN_POINT('',(5.120381971947,5.,-5.486246013798));
#441 = CARTESIAN_POINT('',(4.833289343169,5.,-5.745225564378));
#442 = CARTESIAN_POINT('',(4.476097920816,5.,-6.020351555291));
#443 = CARTESIAN_POINT('',(4.318248020784,5.,-6.13247337609));
#444 = CARTESIAN_POINT('',(4.211955229233,5.,-6.205934741476));
#445 = CARTESIAN_POINT('',(4.157067791968,5.,-6.242814197749));
#446 = CARTESIAN_POINT('',(3.89209458407,5.,-6.416074879704));
#447 = CARTESIAN_POINT('',(3.565190305747,5.,-6.607024529356));
#448 = CARTESIAN_POINT('',(3.168163230557,5.,-6.800113575401));
#449 = CARTESIAN_POINT('',(2.965740005342,5.,-6.889236712119));
#450 = CARTESIAN_POINT('',(2.878149404332,5.,-6.925842045076));
#451 = CARTESIAN_POINT('',(2.819569494724,5.,-6.949892201033));
#452 = CARTESIAN_POINT('',(2.788958801642,5.,-6.962226692733));
#453 = CARTESIAN_POINT('',(2.534722482289,5.,-7.06289677985));
#454 = CARTESIAN_POINT('',(2.190733174142,5.,-7.180182421905));
#455 = CARTESIAN_POINT('',(1.780649103872,5.,-7.287368674629));
#456 = CARTESIAN_POINT('',(1.573416266045,5.,-7.333550051905));
#457 = CARTESIAN_POINT('',(1.484132734971,5.,-7.351753838791));
#458 = CARTESIAN_POINT('',(1.424506056985,5.,-7.363536756282));
#459 = CARTESIAN_POINT('',(1.392904187045,5.,-7.369573190754));
#460 = CARTESIAN_POINT('',(0.913822189828,5.,-7.458263421041));
#461 = CARTESIAN_POINT('',(0.458914558797,5.,-7.5));
#462 = CARTESIAN_POINT('',(9.3E-16,5.,-7.5));
#463 = ORIENTED_EDGE('',*,*,#21,.T.);
#464 = PLANE('',#465);
#465 = AXIS2_PLACEMENT_3D('',#466,#467,#468);
#466 = CARTESIAN_POINT('',(0.,5.,0.));
#467 = DIRECTION('',(0.,1.,0.));
#468 = DIRECTION('',(0.,-0.,1.));
#469 = ADVANCED_FACE('',(#470),#476,.T.);
#470 = FACE_BOUND('',#471,.T.);
#471 = EDGE_LOOP('',(#472,#473,#474,#475));
#472 = ORIENTED_EDGE('',*,*,#254,.F.);
#473 = ORIENTED_EDGE('',*,*,#127,.T.);
#474 = ORIENTED_EDGE('',*,*,#271,.T.);
#475 = ORIENTED_EDGE('',*,*,#347,.T.);
#476 = CYLINDRICAL_SURFACE('',#477,8.);
#477 = AXIS2_PLACEMENT_3D('',#478,#479,#480);
#478 = CARTESIAN_POINT('',(0.,5.,0.));
#479 = DIRECTION('',(-0.,-1.,-0.));
#480 = DIRECTION('',(0.,0.,-1.));
#481 = ADVANCED_FACE('',(#482),#488,.T.);
#482 = FACE_BOUND('',#483,.T.);
#483 = EDGE_LOOP('',(#484,#485,#486,#487));
#484 = ORIENTED_EDGE('',*,*,#118,.F.);
#485 = ORIENTED_EDGE('',*,*,#371,.F.);
#486 = ORIENTED_EDGE('',*,*,#136,.T.);
#487 = ORIENTED_EDGE('',*,*,#247,.F.);
#488 = ( BOUNDED_SURFACE() B_SPLINE_SURFACE(3,3,(
    (#489,#490,#491,#492)
    ,(#493,#494,#495,#496)
    ,(#497,#498,#499,#500)
    ,(#501,#502,#503,#504
)),.UNSPECIFIED.,.F.,.F.,.F.) B_SPLINE_SURFACE_WITH_KNOTS((4,4),(4,4),(
    0.,1.),(0.,1.),.PIECEWISE_BEZIER_KNOTS.) 
GEOMETRIC_REPRESENTATION_ITEM() RATIONAL_B_SPLINE_SURFACE((
    (1.,0.333333333333,0.333333333333,1.)
    ,(0.804737854124,0.268245951375,0.268245951375,0.804737854124)
    ,(0.804737854124,0.268245951375,0.268245951375,0.804737854124)
,(1.,0.333333333333,0.333333333333,1.
))) REPRESENTATION_ITEM('') SURFACE() );
#489 = CARTESIAN_POINT('',(0.,5.,7.5));
#490 = CARTESIAN_POINT('',(15.,5.,7.5));
#491 = CARTESIAN_POINT('',(15.,5.,-7.5));
#492 = CARTESIAN_POINT('',(9.2E-16,5.,-7.5));
#493 = CARTESIAN_POINT('',(0.,5.,7.792893218813));
#494 = CARTESIAN_POINT('',(15.585786437627,5.,7.792893218813));
#495 = CARTESIAN_POINT('',(15.585786437627,5.,-7.792893218813));
#496 = CARTESIAN_POINT('',(9.5E-16,5.,-7.792893218813));
#497 = CARTESIAN_POINT('',(0.,4.792893218813,8.));
#498 = CARTESIAN_POINT('',(16.,4.792893218813,8.));
#499 = CARTESIAN_POINT('',(16.,4.792893218813,-8.));
#500 = CARTESIAN_POINT('',(9.8E-16,4.792893218813,-8.));
#501 = CARTESIAN_POINT('',(0.,4.5,8.));
#502 = CARTESIAN_POINT('',(16.,4.5,8.));
#503 = CARTESIAN_POINT('',(16.,4.5,-8.));
#504 = CARTESIAN_POINT('',(9.8E-16,4.5,-8.));
#505 = ( GEOMETRIC_REPRESENTATION_CONTEXT(3) 
GLOBAL_UNCERTAINTY_ASSIGNED_CONTEXT((#509)) GLOBAL_UNIT_ASSIGNED_CONTEXT
((#506,#507,#508)) REPRESENTATION_CONTEXT('Context #1',
  '3D Context with UNIT and UNCERTAINTY') );
#506 = ( LENGTH_UNIT() NAMED_UNIT(*) SI_UNIT(.MILLI.,.METRE.) );
#507 = ( NAMED_UNIT(*) PLANE_ANGLE_UNIT() SI_UNIT($,.RADIAN.) );
#508 = ( NAMED_UNIT(*) SI_UNIT($,.STERADIAN.) SOLID_ANGLE_UNIT() );
#509 = UNCERTAINTY_MEASURE_WITH_UNIT(LENGTH_MEASURE(1.E-07),#506,
  'distance_accuracy_value','confusion accuracy');
#510 = PRODUCT_RELATED_PRODUCT_CATEGORY('part',$,(#7));
#511 = MECHANICAL_DESIGN_GEOMETRIC_PRESENTATION_REPRESENTATION('',(#512)
  ,#505);
#512 = STYLED_ITEM('color',(#513),#15);
#513 = PRESENTATION_STYLE_ASSIGNMENT((#514,#520));
#514 = SURFACE_STYLE_USAGE(.BOTH.,#515);
#515 = SURFACE_SIDE_STYLE('',(#516));
#516 = SURFACE_STYLE_FILL_AREA(#517);
#517 = FILL_AREA_STYLE('',(#518));
#518 = FILL_AREA_STYLE_COLOUR('',#519);
#519 = COLOUR_RGB('',0.898039222556,0.898039222556,0.898039222556);
#520 = CURVE_STYLE('',#521,POSITIVE_LENGTH_MEASURE(0.1),#522);
#521 = DRAUGHTING_PRE_DEFINED_CURVE_FONT('continuous');
#522 = COLOUR_RGB('',9.803921802644E-02,9.803921802644E-02,
  9.803921802644E-02);
ENDSEC;
END-ISO-10303-21;
