ISO-10303-21;
HEADER;
FILE_DESCRIPTION(('FreeCAD Model'),'2;1');
FILE_NAME('Open CASCADE Shape Model','2026-09-03T22:01:32',('Author'),(
    ''),'Open CASCADE STEP processor 7.9','FreeCAD','Unknown');
FILE_SCHEMA(('AUTOMOTIVE_DESIGN { 1 0 10303 214 1 1 1 1 }'));
ENDSEC;
DATA;
#1 = APPLICATION_PROTOCOL_DEFINITION('international standard',
  'automotive_design',2000,#2);
#2 = APPLICATION_CONTEXT(
  'core data for automotive mechanical design processes');
#3 = SHAPE_DEFINITION_REPRESENTATION(#4,#10);
#4 = PRODUCT_DEFINITION_SHAPE('','',#5);
#5 = PRODUCT_DEFINITION('design','',#6,#9);
#6 = PRODUCT_DEFINITION_FORMATION('','',#7);
#7 = PRODUCT('Body090','Body090','',(#8));
#8 = PRODUCT_CONTEXT('',#2,'mechanical');
#9 = PRODUCT_DEFINITION_CONTEXT('part definition',#2,'design');
#10 = ADVANCED_BREP_SHAPE_REPRESENTATION('',(#11,#15),#383);
#11 = AXIS2_PLACEMENT_3D('',#12,#13,#14);
#12 = CARTESIAN_POINT('',(0.,0.,0.));
#13 = DIRECTION('',(0.,0.,1.));
#14 = DIRECTION('',(1.,0.,-0.));
#15 = MANIFOLD_SOLID_BREP('',#16);
#16 = CLOSED_SHELL('',(#17,#45,#71,#96,#121,#157,#166,#225,#256,#280,
    #304,#328,#352,#369));
#17 = ADVANCED_FACE('',(#18,#29),#40,.F.);
#18 = FACE_BOUND('',#19,.F.);
#19 = EDGE_LOOP('',(#20));
#20 = ORIENTED_EDGE('',*,*,#21,.F.);
#21 = EDGE_CURVE('',#22,#22,#24,.T.);
#22 = VERTEX_POINT('',#23);
#23 = CARTESIAN_POINT('',(1.6,0.,20.));
#24 = CIRCLE('',#25,1.6);
#25 = AXIS2_PLACEMENT_3D('',#26,#27,#28);
#26 = CARTESIAN_POINT('',(0.,0.,20.));
#27 = DIRECTION('',(0.,0.,1.));
#28 = DIRECTION('',(1.,0.,-0.));
#29 = FACE_BOUND('',#30,.F.);
#30 = EDGE_LOOP('',(#31));
#31 = ORIENTED_EDGE('',*,*,#32,.T.);
#32 = EDGE_CURVE('',#33,#33,#35,.T.);
#33 = VERTEX_POINT('',#34);
#34 = CARTESIAN_POINT('',(2.85,0.,20.));
#35 = CIRCLE('',#36,2.85);
#36 = AXIS2_PLACEMENT_3D('',#37,#38,#39);
#37 = CARTESIAN_POINT('',(0.,0.,20.));
#38 = DIRECTION('',(0.,0.,1.));
#39 = DIRECTION('',(1.,0.,0.));
#40 = PLANE('',#41);
#41 = AXIS2_PLACEMENT_3D('',#42,#43,#44);
#42 = CARTESIAN_POINT('',(-1.8E-16,2.4E-16,20.));
#43 = DIRECTION('',(0.,0.,1.));
#44 = DIRECTION('',(1.,0.,0.));
#45 = ADVANCED_FACE('',(#46),#66,.F.);
#46 = FACE_BOUND('',#47,.F.);
#47 = EDGE_LOOP('',(#48,#57,#58,#59));
#48 = ORIENTED_EDGE('',*,*,#49,.F.);
#49 = EDGE_CURVE('',#22,#50,#52,.T.);
#50 = VERTEX_POINT('',#51);
#51 = CARTESIAN_POINT('',(1.5,0.,19.9));
#52 = CIRCLE('',#53,0.1);
#53 = AXIS2_PLACEMENT_3D('',#54,#55,#56);
#54 = CARTESIAN_POINT('',(1.6,0.,19.9));
#55 = DIRECTION('',(0.,-1.,0.));
#56 = DIRECTION('',(1.,0.,0.));
#57 = ORIENTED_EDGE('',*,*,#21,.T.);
#58 = ORIENTED_EDGE('',*,*,#49,.T.);
#59 = ORIENTED_EDGE('',*,*,#60,.F.);
#60 = EDGE_CURVE('',#50,#50,#61,.T.);
#61 = CIRCLE('',#62,1.5);
#62 = AXIS2_PLACEMENT_3D('',#63,#64,#65);
#63 = CARTESIAN_POINT('',(0.,0.,19.9));
#64 = DIRECTION('',(0.,0.,1.));
#65 = DIRECTION('',(1.,0.,-0.));
#66 = TOROIDAL_SURFACE('',#67,1.6,0.1);
#67 = AXIS2_PLACEMENT_3D('',#68,#69,#70);
#68 = CARTESIAN_POINT('',(0.,0.,19.9));
#69 = DIRECTION('',(0.,0.,1.));
#70 = DIRECTION('',(1.,0.,-0.));
#71 = ADVANCED_FACE('',(#72),#91,.T.);
#72 = FACE_BOUND('',#73,.F.);
#73 = EDGE_LOOP('',(#74,#82,#89,#90));
#74 = ORIENTED_EDGE('',*,*,#75,.T.);
#75 = EDGE_CURVE('',#33,#76,#78,.T.);
#76 = VERTEX_POINT('',#77);
#77 = CARTESIAN_POINT('',(2.85,0.,20.05));
#78 = LINE('',#79,#80);
#79 = CARTESIAN_POINT('',(2.85,0.,20.));
#80 = VECTOR('',#81,1.);
#81 = DIRECTION('',(0.,0.,1.));
#82 = ORIENTED_EDGE('',*,*,#83,.T.);
#83 = EDGE_CURVE('',#76,#76,#84,.T.);
#84 = CIRCLE('',#85,2.85);
#85 = AXIS2_PLACEMENT_3D('',#86,#87,#88);
#86 = CARTESIAN_POINT('',(0.,0.,20.05));
#87 = DIRECTION('',(0.,0.,1.));
#88 = DIRECTION('',(1.,0.,0.));
#89 = ORIENTED_EDGE('',*,*,#75,.F.);
#90 = ORIENTED_EDGE('',*,*,#32,.F.);
#91 = CYLINDRICAL_SURFACE('',#92,2.85);
#92 = AXIS2_PLACEMENT_3D('',#93,#94,#95);
#93 = CARTESIAN_POINT('',(0.,0.,20.));
#94 = DIRECTION('',(-0.,-0.,-1.));
#95 = DIRECTION('',(1.,0.,0.));
#96 = ADVANCED_FACE('',(#97),#116,.T.);
#97 = FACE_BOUND('',#98,.F.);
#98 = EDGE_LOOP('',(#99,#107,#108,#109));
#99 = ORIENTED_EDGE('',*,*,#100,.T.);
#100 = EDGE_CURVE('',#101,#50,#103,.T.);
#101 = VERTEX_POINT('',#102);
#102 = CARTESIAN_POINT('',(1.5,0.,0.));
#103 = LINE('',#104,#105);
#104 = CARTESIAN_POINT('',(1.5,0.,0.));
#105 = VECTOR('',#106,1.);
#106 = DIRECTION('',(0.,0.,1.));
#107 = ORIENTED_EDGE('',*,*,#60,.T.);
#108 = ORIENTED_EDGE('',*,*,#100,.F.);
#109 = ORIENTED_EDGE('',*,*,#110,.F.);
#110 = EDGE_CURVE('',#101,#101,#111,.T.);
#111 = CIRCLE('',#112,1.5);
#112 = AXIS2_PLACEMENT_3D('',#113,#114,#115);
#113 = CARTESIAN_POINT('',(0.,0.,0.));
#114 = DIRECTION('',(0.,0.,1.));
#115 = DIRECTION('',(1.,0.,0.));
#116 = CYLINDRICAL_SURFACE('',#117,1.5);
#117 = AXIS2_PLACEMENT_3D('',#118,#119,#120);
#118 = CARTESIAN_POINT('',(0.,0.,0.));
#119 = DIRECTION('',(-0.,-0.,-1.));
#120 = DIRECTION('',(1.,0.,0.));
#121 = ADVANCED_FACE('',(#122),#142,.T.);
#122 = FACE_BOUND('',#123,.T.);
#123 = EDGE_LOOP('',(#124,#133,#134,#135));
#124 = ORIENTED_EDGE('',*,*,#125,.F.);
#125 = EDGE_CURVE('',#76,#126,#128,.T.);
#126 = VERTEX_POINT('',#127);
#127 = CARTESIAN_POINT('',(1.25,0.,21.65));
#128 = CIRCLE('',#129,1.6);
#129 = AXIS2_PLACEMENT_3D('',#130,#131,#132);
#130 = CARTESIAN_POINT('',(1.25,0.,20.05));
#131 = DIRECTION('',(0.,-1.,0.));
#132 = DIRECTION('',(1.,0.,0.));
#133 = ORIENTED_EDGE('',*,*,#83,.T.);
#134 = ORIENTED_EDGE('',*,*,#125,.T.);
#135 = ORIENTED_EDGE('',*,*,#136,.F.);
#136 = EDGE_CURVE('',#126,#126,#137,.T.);
#137 = CIRCLE('',#138,1.25);
#138 = AXIS2_PLACEMENT_3D('',#139,#140,#141);
#139 = CARTESIAN_POINT('',(0.,0.,21.65));
#140 = DIRECTION('',(0.,0.,1.));
#141 = DIRECTION('',(1.,0.,0.));
#142 = SURFACE_OF_REVOLUTION('',#143,#154);
#143 = B_SPLINE_CURVE_WITH_KNOTS('',5,(#144,#145,#146,#147,#148,#149,
    #150,#151,#152,#153),.UNSPECIFIED.,.F.,.F.,(6,4,6),(0.,
    0.785398163397,1.570796326795),.UNSPECIFIED.);
#144 = CARTESIAN_POINT('',(2.85,0.,20.05));
#145 = CARTESIAN_POINT('',(2.85,0.,20.301327412287));
#146 = CARTESIAN_POINT('',(2.800663051287,0.,20.552658806371));
#147 = CARTESIAN_POINT('',(2.701917809508,0.,20.791050908292));
#148 = CARTESIAN_POINT('',(2.559086167425,0.,21.003655532372));
#149 = CARTESIAN_POINT('',(2.203655532372,0.,21.359086167425));
#150 = CARTESIAN_POINT('',(1.991050908292,0.,21.501917809508));
#151 = CARTESIAN_POINT('',(1.752658806371,0.,21.600663051287));
#152 = CARTESIAN_POINT('',(1.501327412287,0.,21.65));
#153 = CARTESIAN_POINT('',(1.25,0.,21.65));
#154 = AXIS1_PLACEMENT('',#155,#156);
#155 = CARTESIAN_POINT('',(0.,0.,20.05));
#156 = DIRECTION('',(0.,0.,1.));
#157 = ADVANCED_FACE('',(#158),#161,.F.);
#158 = FACE_BOUND('',#159,.F.);
#159 = EDGE_LOOP('',(#160));
#160 = ORIENTED_EDGE('',*,*,#110,.T.);
#161 = PLANE('',#162);
#162 = AXIS2_PLACEMENT_3D('',#163,#164,#165);
#163 = CARTESIAN_POINT('',(-1.1E-16,0.,0.));
#164 = DIRECTION('',(0.,0.,1.));
#165 = DIRECTION('',(1.,0.,0.));
#166 = ADVANCED_FACE('',(#167,#170),#220,.T.);
#167 = FACE_BOUND('',#168,.T.);
#168 = EDGE_LOOP('',(#169));
#169 = ORIENTED_EDGE('',*,*,#136,.T.);
#170 = FACE_BOUND('',#171,.T.);
#171 = EDGE_LOOP('',(#172,#182,#190,#198,#206,#214));
#172 = ORIENTED_EDGE('',*,*,#173,.F.);
#173 = EDGE_CURVE('',#174,#176,#178,.T.);
#174 = VERTEX_POINT('',#175);
#175 = CARTESIAN_POINT('',(0.,1.183568051839,21.65));
#176 = VERTEX_POINT('',#177);
#177 = CARTESIAN_POINT('',(-1.025,0.591784025919,21.65));
#178 = LINE('',#179,#180);
#179 = CARTESIAN_POINT('',(0.,1.183568051839,21.65));
#180 = VECTOR('',#181,1.);
#181 = DIRECTION('',(-0.866025403784,-0.5,0.));
#182 = ORIENTED_EDGE('',*,*,#183,.F.);
#183 = EDGE_CURVE('',#184,#174,#186,.T.);
#184 = VERTEX_POINT('',#185);
#185 = CARTESIAN_POINT('',(1.025,0.591784025919,21.65));
#186 = LINE('',#187,#188);
#187 = CARTESIAN_POINT('',(1.025,0.591784025919,21.65));
#188 = VECTOR('',#189,1.);
#189 = DIRECTION('',(-0.866025403784,0.5,0.));
#190 = ORIENTED_EDGE('',*,*,#191,.F.);
#191 = EDGE_CURVE('',#192,#184,#194,.T.);
#192 = VERTEX_POINT('',#193);
#193 = CARTESIAN_POINT('',(1.025,-0.591784025919,21.65));
#194 = LINE('',#195,#196);
#195 = CARTESIAN_POINT('',(1.025,-0.591784025919,21.65));
#196 = VECTOR('',#197,1.);
#197 = DIRECTION('',(0.,1.,0.));
#198 = ORIENTED_EDGE('',*,*,#199,.F.);
#199 = EDGE_CURVE('',#200,#192,#202,.T.);
#200 = VERTEX_POINT('',#201);
#201 = CARTESIAN_POINT('',(0.,-1.183568051839,21.65));
#202 = LINE('',#203,#204);
#203 = CARTESIAN_POINT('',(0.,-1.183568051839,21.65));
#204 = VECTOR('',#205,1.);
#205 = DIRECTION('',(0.866025403784,0.5,0.));
#206 = ORIENTED_EDGE('',*,*,#207,.F.);
#207 = EDGE_CURVE('',#208,#200,#210,.T.);
#208 = VERTEX_POINT('',#209);
#209 = CARTESIAN_POINT('',(-1.025,-0.591784025919,21.65));
#210 = LINE('',#211,#212);
#211 = CARTESIAN_POINT('',(-1.025,-0.591784025919,21.65));
#212 = VECTOR('',#213,1.);
#213 = DIRECTION('',(0.866025403784,-0.5,0.));
#214 = ORIENTED_EDGE('',*,*,#215,.F.);
#215 = EDGE_CURVE('',#176,#208,#216,.T.);
#216 = LINE('',#217,#218);
#217 = CARTESIAN_POINT('',(-1.025,0.591784025919,21.65));
#218 = VECTOR('',#219,1.);
#219 = DIRECTION('',(0.,-1.,0.));
#220 = PLANE('',#221);
#221 = AXIS2_PLACEMENT_3D('',#222,#223,#224);
#222 = CARTESIAN_POINT('',(-1.8E-16,2.4E-16,21.65));
#223 = DIRECTION('',(0.,0.,1.));
#224 = DIRECTION('',(1.,0.,0.));
#225 = ADVANCED_FACE('',(#226),#251,.F.);
#226 = FACE_BOUND('',#227,.F.);
#227 = EDGE_LOOP('',(#228,#236,#244,#250));
#228 = ORIENTED_EDGE('',*,*,#229,.T.);
#229 = EDGE_CURVE('',#174,#230,#232,.T.);
#230 = VERTEX_POINT('',#231);
#231 = CARTESIAN_POINT('',(0.,1.183568051839,20.15));
#232 = LINE('',#233,#234);
#233 = CARTESIAN_POINT('',(0.,1.183568051839,21.65));
#234 = VECTOR('',#235,1.);
#235 = DIRECTION('',(-0.,-0.,-1.));
#236 = ORIENTED_EDGE('',*,*,#237,.T.);
#237 = EDGE_CURVE('',#230,#238,#240,.T.);
#238 = VERTEX_POINT('',#239);
#239 = CARTESIAN_POINT('',(-1.025,0.591784025919,20.15));
#240 = LINE('',#241,#242);
#241 = CARTESIAN_POINT('',(0.,1.183568051839,20.15));
#242 = VECTOR('',#243,1.);
#243 = DIRECTION('',(-0.866025403784,-0.5,0.));
#244 = ORIENTED_EDGE('',*,*,#245,.F.);
#245 = EDGE_CURVE('',#176,#238,#246,.T.);
#246 = LINE('',#247,#248);
#247 = CARTESIAN_POINT('',(-1.025,0.591784025919,21.65));
#248 = VECTOR('',#249,1.);
#249 = DIRECTION('',(-0.,-0.,-1.));
#250 = ORIENTED_EDGE('',*,*,#173,.F.);
#251 = PLANE('',#252);
#252 = AXIS2_PLACEMENT_3D('',#253,#254,#255);
#253 = CARTESIAN_POINT('',(0.,1.183568051839,21.65));
#254 = DIRECTION('',(-0.5,0.866025403784,0.));
#255 = DIRECTION('',(-0.866025403784,-0.5,0.));
#256 = ADVANCED_FACE('',(#257),#275,.F.);
#257 = FACE_BOUND('',#258,.F.);
#258 = EDGE_LOOP('',(#259,#260,#268,#274));
#259 = ORIENTED_EDGE('',*,*,#245,.T.);
#260 = ORIENTED_EDGE('',*,*,#261,.T.);
#261 = EDGE_CURVE('',#238,#262,#264,.T.);
#262 = VERTEX_POINT('',#263);
#263 = CARTESIAN_POINT('',(-1.025,-0.591784025919,20.15));
#264 = LINE('',#265,#266);
#265 = CARTESIAN_POINT('',(-1.025,0.591784025919,20.15));
#266 = VECTOR('',#267,1.);
#267 = DIRECTION('',(0.,-1.,0.));
#268 = ORIENTED_EDGE('',*,*,#269,.F.);
#269 = EDGE_CURVE('',#208,#262,#270,.T.);
#270 = LINE('',#271,#272);
#271 = CARTESIAN_POINT('',(-1.025,-0.591784025919,21.65));
#272 = VECTOR('',#273,1.);
#273 = DIRECTION('',(-0.,-0.,-1.));
#274 = ORIENTED_EDGE('',*,*,#215,.F.);
#275 = PLANE('',#276);
#276 = AXIS2_PLACEMENT_3D('',#277,#278,#279);
#277 = CARTESIAN_POINT('',(-1.025,0.591784025919,21.65));
#278 = DIRECTION('',(-1.,0.,0.));
#279 = DIRECTION('',(0.,-1.,0.));
#280 = ADVANCED_FACE('',(#281),#299,.F.);
#281 = FACE_BOUND('',#282,.F.);
#282 = EDGE_LOOP('',(#283,#284,#292,#298));
#283 = ORIENTED_EDGE('',*,*,#269,.T.);
#284 = ORIENTED_EDGE('',*,*,#285,.T.);
#285 = EDGE_CURVE('',#262,#286,#288,.T.);
#286 = VERTEX_POINT('',#287);
#287 = CARTESIAN_POINT('',(0.,-1.183568051839,20.15));
#288 = LINE('',#289,#290);
#289 = CARTESIAN_POINT('',(-1.025,-0.591784025919,20.15));
#290 = VECTOR('',#291,1.);
#291 = DIRECTION('',(0.866025403784,-0.5,0.));
#292 = ORIENTED_EDGE('',*,*,#293,.F.);
#293 = EDGE_CURVE('',#200,#286,#294,.T.);
#294 = LINE('',#295,#296);
#295 = CARTESIAN_POINT('',(0.,-1.183568051839,21.65));
#296 = VECTOR('',#297,1.);
#297 = DIRECTION('',(-0.,-0.,-1.));
#298 = ORIENTED_EDGE('',*,*,#207,.F.);
#299 = PLANE('',#300);
#300 = AXIS2_PLACEMENT_3D('',#301,#302,#303);
#301 = CARTESIAN_POINT('',(-1.025,-0.591784025919,21.65));
#302 = DIRECTION('',(-0.5,-0.866025403784,0.));
#303 = DIRECTION('',(0.866025403784,-0.5,0.));
#304 = ADVANCED_FACE('',(#305),#323,.F.);
#305 = FACE_BOUND('',#306,.F.);
#306 = EDGE_LOOP('',(#307,#308,#316,#322));
#307 = ORIENTED_EDGE('',*,*,#293,.T.);
#308 = ORIENTED_EDGE('',*,*,#309,.T.);
#309 = EDGE_CURVE('',#286,#310,#312,.T.);
#310 = VERTEX_POINT('',#311);
#311 = CARTESIAN_POINT('',(1.025,-0.591784025919,20.15));
#312 = LINE('',#313,#314);
#313 = CARTESIAN_POINT('',(0.,-1.183568051839,20.15));
#314 = VECTOR('',#315,1.);
#315 = DIRECTION('',(0.866025403784,0.5,0.));
#316 = ORIENTED_EDGE('',*,*,#317,.F.);
#317 = EDGE_CURVE('',#192,#310,#318,.T.);
#318 = LINE('',#319,#320);
#319 = CARTESIAN_POINT('',(1.025,-0.591784025919,21.65));
#320 = VECTOR('',#321,1.);
#321 = DIRECTION('',(-0.,-0.,-1.));
#322 = ORIENTED_EDGE('',*,*,#199,.F.);
#323 = PLANE('',#324);
#324 = AXIS2_PLACEMENT_3D('',#325,#326,#327);
#325 = CARTESIAN_POINT('',(0.,-1.183568051839,21.65));
#326 = DIRECTION('',(0.5,-0.866025403784,0.));
#327 = DIRECTION('',(0.866025403784,0.5,0.));
#328 = ADVANCED_FACE('',(#329),#347,.F.);
#329 = FACE_BOUND('',#330,.F.);
#330 = EDGE_LOOP('',(#331,#332,#340,#346));
#331 = ORIENTED_EDGE('',*,*,#317,.T.);
#332 = ORIENTED_EDGE('',*,*,#333,.T.);
#333 = EDGE_CURVE('',#310,#334,#336,.T.);
#334 = VERTEX_POINT('',#335);
#335 = CARTESIAN_POINT('',(1.025,0.591784025919,20.15));
#336 = LINE('',#337,#338);
#337 = CARTESIAN_POINT('',(1.025,-0.591784025919,20.15));
#338 = VECTOR('',#339,1.);
#339 = DIRECTION('',(0.,1.,0.));
#340 = ORIENTED_EDGE('',*,*,#341,.F.);
#341 = EDGE_CURVE('',#184,#334,#342,.T.);
#342 = LINE('',#343,#344);
#343 = CARTESIAN_POINT('',(1.025,0.591784025919,21.65));
#344 = VECTOR('',#345,1.);
#345 = DIRECTION('',(-0.,-0.,-1.));
#346 = ORIENTED_EDGE('',*,*,#191,.F.);
#347 = PLANE('',#348);
#348 = AXIS2_PLACEMENT_3D('',#349,#350,#351);
#349 = CARTESIAN_POINT('',(1.025,-0.591784025919,21.65));
#350 = DIRECTION('',(1.,0.,0.));
#351 = DIRECTION('',(0.,1.,0.));
#352 = ADVANCED_FACE('',(#353),#364,.F.);
#353 = FACE_BOUND('',#354,.F.);
#354 = EDGE_LOOP('',(#355,#356,#362,#363));
#355 = ORIENTED_EDGE('',*,*,#341,.T.);
#356 = ORIENTED_EDGE('',*,*,#357,.T.);
#357 = EDGE_CURVE('',#334,#230,#358,.T.);
#358 = LINE('',#359,#360);
#359 = CARTESIAN_POINT('',(1.025,0.591784025919,20.15));
#360 = VECTOR('',#361,1.);
#361 = DIRECTION('',(-0.866025403784,0.5,0.));
#362 = ORIENTED_EDGE('',*,*,#229,.F.);
#363 = ORIENTED_EDGE('',*,*,#183,.F.);
#364 = PLANE('',#365);
#365 = AXIS2_PLACEMENT_3D('',#366,#367,#368);
#366 = CARTESIAN_POINT('',(1.025,0.591784025919,21.65));
#367 = DIRECTION('',(0.5,0.866025403784,0.));
#368 = DIRECTION('',(-0.866025403784,0.5,0.));
#369 = ADVANCED_FACE('',(#370),#378,.T.);
#370 = FACE_BOUND('',#371,.T.);
#371 = EDGE_LOOP('',(#372,#373,#374,#375,#376,#377));
#372 = ORIENTED_EDGE('',*,*,#237,.T.);
#373 = ORIENTED_EDGE('',*,*,#261,.T.);
#374 = ORIENTED_EDGE('',*,*,#285,.T.);
#375 = ORIENTED_EDGE('',*,*,#309,.T.);
#376 = ORIENTED_EDGE('',*,*,#333,.T.);
#377 = ORIENTED_EDGE('',*,*,#357,.T.);
#378 = PLANE('',#379);
#379 = AXIS2_PLACEMENT_3D('',#380,#381,#382);
#380 = CARTESIAN_POINT('',(2.E-17,-2.E-17,20.15));
#381 = DIRECTION('',(0.,0.,1.));
#382 = DIRECTION('',(1.,0.,0.));
#383 = ( GEOMETRIC_REPRESENTATION_CONTEXT(3) 
GLOBAL_UNCERTAINTY_ASSIGNED_CONTEXT((#387)) GLOBAL_UNIT_ASSIGNED_CONTEXT
((#384,#385,#386)) REPRESENTATION_CONTEXT('Context #1',
  '3D Context with UNIT and UNCERTAINTY') );
#384 = ( LENGTH_UNIT() NAMED_UNIT(*) SI_UNIT(.MILLI.,.METRE.) );
#385 = ( NAMED_UNIT(*) PLANE_ANGLE_UNIT() SI_UNIT($,.RADIAN.) );
#386 = ( NAMED_UNIT(*) SI_UNIT($,.STERADIAN.) SOLID_ANGLE_UNIT() );
#387 = UNCERTAINTY_MEASURE_WITH_UNIT(LENGTH_MEASURE(1.E-07),#384,
  'distance_accuracy_value','confusion accuracy');
#388 = PRODUCT_RELATED_PRODUCT_CATEGORY('part',$,(#7));
#389 = MECHANICAL_DESIGN_GEOMETRIC_PRESENTATION_REPRESENTATION('',(#390)
  ,#383);
#390 = STYLED_ITEM('color',(#391),#15);
#391 = PRESENTATION_STYLE_ASSIGNMENT((#392,#398));
#392 = SURFACE_STYLE_USAGE(.BOTH.,#393);
#393 = SURFACE_SIDE_STYLE('',(#394));
#394 = SURFACE_STYLE_FILL_AREA(#395);
#395 = FILL_AREA_STYLE('',(#396));
#396 = FILL_AREA_STYLE_COLOUR('',#397);
#397 = COLOUR_RGB('',0.447058818107,0.474509808674,0.501960817233);
#398 = CURVE_STYLE('',#399,POSITIVE_LENGTH_MEASURE(0.1),#400);
#399 = DRAUGHTING_PRE_DEFINED_CURVE_FONT('continuous');
#400 = COLOUR_RGB('',9.803921802644E-02,9.803921802644E-02,
  9.803921802644E-02);
ENDSEC;
END-ISO-10303-21;
