ISO-10303-21;
HEADER;
FILE_DESCRIPTION(('FreeCAD Model'),'2;1');
FILE_NAME('Open CASCADE Shape Model','2026-09-03T22:05:20',('Author'),(
    ''),'Open CASCADE STEP processor 7.9','FreeCAD','Unknown');
FILE_SCHEMA(('AUTOMOTIVE_DESIGN { 1 0 10303 214 1 1 1 1 }'));
ENDSEC;
DATA;
#1 = APPLICATION_PROTOCOL_DEFINITION('international standard',
  'automotive_design',2000,#2);
#2 = APPLICATION_CONTEXT(
  'core data for automotive mechanical design processes');
#3 = SHAPE_DEFINITION_REPRESENTATION(#4,#10);
#4 = PRODUCT_DEFINITION_SHAPE('','',#5);
#5 = PRODUCT_DEFINITION('design','',#6,#9);
#6 = PRODUCT_DEFINITION_FORMATION('','',#7);
#7 = PRODUCT('Body096','Body096','',(#8));
#8 = PRODUCT_CONTEXT('',#2,'mechanical');
#9 = PRODUCT_DEFINITION_CONTEXT('part definition',#2,'design');
#10 = ADVANCED_BREP_SHAPE_REPRESENTATION('',(#11,#15),#441);
#11 = AXIS2_PLACEMENT_3D('',#12,#13,#14);
#12 = CARTESIAN_POINT('',(0.,0.,0.));
#13 = DIRECTION('',(0.,0.,1.));
#14 = DIRECTION('',(1.,0.,-0.));
#15 = MANIFOLD_SOLID_BREP('',#16);
#16 = CLOSED_SHELL('',(#17,#57,#158,#183,#208,#293,#310,#327,#344,#361,
    #378,#395,#412,#429));
#17 = ADVANCED_FACE('',(#18),#52,.F.);
#18 = FACE_BOUND('',#19,.F.);
#19 = EDGE_LOOP('',(#20,#30,#38,#46));
#20 = ORIENTED_EDGE('',*,*,#21,.F.);
#21 = EDGE_CURVE('',#22,#24,#26,.T.);
#22 = VERTEX_POINT('',#23);
#23 = CARTESIAN_POINT('',(-0.125,3.927831216351,0.));
#24 = VERTEX_POINT('',#25);
#25 = CARTESIAN_POINT('',(-3.339101615138,2.072168783649,0.));
#26 = LINE('',#27,#28);
#27 = CARTESIAN_POINT('',(0.,4.,0.));
#28 = VECTOR('',#29,1.);
#29 = DIRECTION('',(-0.866025403784,-0.5,0.));
#30 = ORIENTED_EDGE('',*,*,#31,.T.);
#31 = EDGE_CURVE('',#22,#32,#34,.T.);
#32 = VERTEX_POINT('',#33);
#33 = CARTESIAN_POINT('',(-0.125,3.927831216351,35.));
#34 = LINE('',#35,#36);
#35 = CARTESIAN_POINT('',(-0.125,3.927831216351,0.));
#36 = VECTOR('',#37,1.);
#37 = DIRECTION('',(0.,0.,1.));
#38 = ORIENTED_EDGE('',*,*,#39,.T.);
#39 = EDGE_CURVE('',#32,#40,#42,.T.);
#40 = VERTEX_POINT('',#41);
#41 = CARTESIAN_POINT('',(-3.339101615138,2.072168783649,35.));
#42 = LINE('',#43,#44);
#43 = CARTESIAN_POINT('',(0.,4.,35.));
#44 = VECTOR('',#45,1.);
#45 = DIRECTION('',(-0.866025403784,-0.5,0.));
#46 = ORIENTED_EDGE('',*,*,#47,.F.);
#47 = EDGE_CURVE('',#24,#40,#48,.T.);
#48 = LINE('',#49,#50);
#49 = CARTESIAN_POINT('',(-3.339101615138,2.072168783649,0.));
#50 = VECTOR('',#51,1.);
#51 = DIRECTION('',(0.,0.,1.));
#52 = PLANE('',#53);
#53 = AXIS2_PLACEMENT_3D('',#54,#55,#56);
#54 = CARTESIAN_POINT('',(0.,4.,0.));
#55 = DIRECTION('',(0.5,-0.866025403784,0.));
#56 = DIRECTION('',(-0.866025403784,-0.5,0.));
#57 = ADVANCED_FACE('',(#58),#153,.F.);
#58 = FACE_BOUND('',#59,.F.);
#59 = EDGE_LOOP('',(#60,#61,#70,#78,#87,#95,#104,#112,#121,#129,#138,
    #146));
#60 = ORIENTED_EDGE('',*,*,#21,.T.);
#61 = ORIENTED_EDGE('',*,*,#62,.T.);
#62 = EDGE_CURVE('',#24,#63,#65,.T.);
#63 = VERTEX_POINT('',#64);
#64 = CARTESIAN_POINT('',(-3.464101615138,1.855662432703,0.));
#65 = CIRCLE('',#66,0.25);
#66 = AXIS2_PLACEMENT_3D('',#67,#68,#69);
#67 = CARTESIAN_POINT('',(-3.214101615138,1.855662432703,0.));
#68 = DIRECTION('',(-0.,0.,1.));
#69 = DIRECTION('',(0.,-1.,0.));
#70 = ORIENTED_EDGE('',*,*,#71,.T.);
#71 = EDGE_CURVE('',#63,#72,#74,.T.);
#72 = VERTEX_POINT('',#73);
#73 = CARTESIAN_POINT('',(-3.464101615138,-1.855662432703,0.));
#74 = LINE('',#75,#76);
#75 = CARTESIAN_POINT('',(-3.464101615138,2.,0.));
#76 = VECTOR('',#77,1.);
#77 = DIRECTION('',(0.,-1.,0.));
#78 = ORIENTED_EDGE('',*,*,#79,.T.);
#79 = EDGE_CURVE('',#72,#80,#82,.T.);
#80 = VERTEX_POINT('',#81);
#81 = CARTESIAN_POINT('',(-3.339101615138,-2.072168783649,0.));
#82 = CIRCLE('',#83,0.25);
#83 = AXIS2_PLACEMENT_3D('',#84,#85,#86);
#84 = CARTESIAN_POINT('',(-3.214101615138,-1.855662432703,0.));
#85 = DIRECTION('',(-0.,0.,1.));
#86 = DIRECTION('',(0.,-1.,0.));
#87 = ORIENTED_EDGE('',*,*,#88,.T.);
#88 = EDGE_CURVE('',#80,#89,#91,.T.);
#89 = VERTEX_POINT('',#90);
#90 = CARTESIAN_POINT('',(-0.125,-3.927831216351,0.));
#91 = LINE('',#92,#93);
#92 = CARTESIAN_POINT('',(-3.464101615138,-2.,0.));
#93 = VECTOR('',#94,1.);
#94 = DIRECTION('',(0.866025403784,-0.5,0.));
#95 = ORIENTED_EDGE('',*,*,#96,.T.);
#96 = EDGE_CURVE('',#89,#97,#99,.T.);
#97 = VERTEX_POINT('',#98);
#98 = CARTESIAN_POINT('',(0.125,-3.927831216351,0.));
#99 = CIRCLE('',#100,0.25);
#100 = AXIS2_PLACEMENT_3D('',#101,#102,#103);
#101 = CARTESIAN_POINT('',(2.2E-16,-3.711324865405,0.));
#102 = DIRECTION('',(-0.,0.,1.));
#103 = DIRECTION('',(0.,-1.,0.));
#104 = ORIENTED_EDGE('',*,*,#105,.T.);
#105 = EDGE_CURVE('',#97,#106,#108,.T.);
#106 = VERTEX_POINT('',#107);
#107 = CARTESIAN_POINT('',(3.339101615138,-2.072168783649,0.));
#108 = LINE('',#109,#110);
#109 = CARTESIAN_POINT('',(0.,-4.,0.));
#110 = VECTOR('',#111,1.);
#111 = DIRECTION('',(0.866025403784,0.5,0.));
#112 = ORIENTED_EDGE('',*,*,#113,.T.);
#113 = EDGE_CURVE('',#106,#114,#116,.T.);
#114 = VERTEX_POINT('',#115);
#115 = CARTESIAN_POINT('',(3.464101615138,-1.855662432703,0.));
#116 = CIRCLE('',#117,0.25);
#117 = AXIS2_PLACEMENT_3D('',#118,#119,#120);
#118 = CARTESIAN_POINT('',(3.214101615138,-1.855662432703,0.));
#119 = DIRECTION('',(-0.,0.,1.));
#120 = DIRECTION('',(0.,-1.,0.));
#121 = ORIENTED_EDGE('',*,*,#122,.T.);
#122 = EDGE_CURVE('',#114,#123,#125,.T.);
#123 = VERTEX_POINT('',#124);
#124 = CARTESIAN_POINT('',(3.464101615138,1.855662432703,0.));
#125 = LINE('',#126,#127);
#126 = CARTESIAN_POINT('',(3.464101615138,-2.,0.));
#127 = VECTOR('',#128,1.);
#128 = DIRECTION('',(0.,1.,0.));
#129 = ORIENTED_EDGE('',*,*,#130,.T.);
#130 = EDGE_CURVE('',#123,#131,#133,.T.);
#131 = VERTEX_POINT('',#132);
#132 = CARTESIAN_POINT('',(3.339101615138,2.072168783649,0.));
#133 = CIRCLE('',#134,0.25);
#134 = AXIS2_PLACEMENT_3D('',#135,#136,#137);
#135 = CARTESIAN_POINT('',(3.214101615138,1.855662432703,0.));
#136 = DIRECTION('',(-0.,0.,1.));
#137 = DIRECTION('',(0.,-1.,0.));
#138 = ORIENTED_EDGE('',*,*,#139,.T.);
#139 = EDGE_CURVE('',#131,#140,#142,.T.);
#140 = VERTEX_POINT('',#141);
#141 = CARTESIAN_POINT('',(0.125,3.927831216351,0.));
#142 = LINE('',#143,#144);
#143 = CARTESIAN_POINT('',(3.464101615138,2.,0.));
#144 = VECTOR('',#145,1.);
#145 = DIRECTION('',(-0.866025403784,0.5,0.));
#146 = ORIENTED_EDGE('',*,*,#147,.F.);
#147 = EDGE_CURVE('',#22,#140,#148,.T.);
#148 = CIRCLE('',#149,0.25);
#149 = AXIS2_PLACEMENT_3D('',#150,#151,#152);
#150 = CARTESIAN_POINT('',(-2.2E-16,3.711324865405,0.));
#151 = DIRECTION('',(-0.,-0.,-1.));
#152 = DIRECTION('',(0.,-1.,0.));
#153 = PLANE('',#154);
#154 = AXIS2_PLACEMENT_3D('',#155,#156,#157);
#155 = CARTESIAN_POINT('',(-4.E-17,7.E-17,0.));
#156 = DIRECTION('',(0.,0.,1.));
#157 = DIRECTION('',(1.,0.,0.));
#158 = ADVANCED_FACE('',(#159),#178,.T.);
#159 = FACE_BOUND('',#160,.F.);
#160 = EDGE_LOOP('',(#161,#162,#170,#177));
#161 = ORIENTED_EDGE('',*,*,#147,.T.);
#162 = ORIENTED_EDGE('',*,*,#163,.T.);
#163 = EDGE_CURVE('',#140,#164,#166,.T.);
#164 = VERTEX_POINT('',#165);
#165 = CARTESIAN_POINT('',(0.125,3.927831216351,35.));
#166 = LINE('',#167,#168);
#167 = CARTESIAN_POINT('',(0.125,3.927831216351,0.));
#168 = VECTOR('',#169,1.);
#169 = DIRECTION('',(0.,0.,1.));
#170 = ORIENTED_EDGE('',*,*,#171,.F.);
#171 = EDGE_CURVE('',#32,#164,#172,.T.);
#172 = CIRCLE('',#173,0.25);
#173 = AXIS2_PLACEMENT_3D('',#174,#175,#176);
#174 = CARTESIAN_POINT('',(-2.2E-16,3.711324865405,35.));
#175 = DIRECTION('',(-0.,-0.,-1.));
#176 = DIRECTION('',(0.,-1.,0.));
#177 = ORIENTED_EDGE('',*,*,#31,.F.);
#178 = CYLINDRICAL_SURFACE('',#179,0.25);
#179 = AXIS2_PLACEMENT_3D('',#180,#181,#182);
#180 = CARTESIAN_POINT('',(-2.2E-16,3.711324865405,0.));
#181 = DIRECTION('',(0.,0.,1.));
#182 = DIRECTION('',(-0.5,0.866025403784,0.));
#183 = ADVANCED_FACE('',(#184),#203,.T.);
#184 = FACE_BOUND('',#185,.T.);
#185 = EDGE_LOOP('',(#186,#187,#195,#202));
#186 = ORIENTED_EDGE('',*,*,#62,.T.);
#187 = ORIENTED_EDGE('',*,*,#188,.T.);
#188 = EDGE_CURVE('',#63,#189,#191,.T.);
#189 = VERTEX_POINT('',#190);
#190 = CARTESIAN_POINT('',(-3.464101615138,1.855662432703,35.));
#191 = LINE('',#192,#193);
#192 = CARTESIAN_POINT('',(-3.464101615138,1.855662432703,0.));
#193 = VECTOR('',#194,1.);
#194 = DIRECTION('',(0.,0.,1.));
#195 = ORIENTED_EDGE('',*,*,#196,.F.);
#196 = EDGE_CURVE('',#40,#189,#197,.T.);
#197 = CIRCLE('',#198,0.25);
#198 = AXIS2_PLACEMENT_3D('',#199,#200,#201);
#199 = CARTESIAN_POINT('',(-3.214101615138,1.855662432703,35.));
#200 = DIRECTION('',(-0.,0.,1.));
#201 = DIRECTION('',(0.,-1.,0.));
#202 = ORIENTED_EDGE('',*,*,#47,.F.);
#203 = CYLINDRICAL_SURFACE('',#204,0.25);
#204 = AXIS2_PLACEMENT_3D('',#205,#206,#207);
#205 = CARTESIAN_POINT('',(-3.214101615138,1.855662432703,0.));
#206 = DIRECTION('',(0.,0.,1.));
#207 = DIRECTION('',(-0.5,0.866025403784,0.));
#208 = ADVANCED_FACE('',(#209),#288,.T.);
#209 = FACE_BOUND('',#210,.T.);
#210 = EDGE_LOOP('',(#211,#212,#213,#221,#230,#238,#247,#255,#264,#272,
    #281,#287));
#211 = ORIENTED_EDGE('',*,*,#39,.T.);
#212 = ORIENTED_EDGE('',*,*,#196,.T.);
#213 = ORIENTED_EDGE('',*,*,#214,.T.);
#214 = EDGE_CURVE('',#189,#215,#217,.T.);
#215 = VERTEX_POINT('',#216);
#216 = CARTESIAN_POINT('',(-3.464101615138,-1.855662432703,35.));
#217 = LINE('',#218,#219);
#218 = CARTESIAN_POINT('',(-3.464101615138,2.,35.));
#219 = VECTOR('',#220,1.);
#220 = DIRECTION('',(0.,-1.,0.));
#221 = ORIENTED_EDGE('',*,*,#222,.T.);
#222 = EDGE_CURVE('',#215,#223,#225,.T.);
#223 = VERTEX_POINT('',#224);
#224 = CARTESIAN_POINT('',(-3.339101615138,-2.072168783649,35.));
#225 = CIRCLE('',#226,0.25);
#226 = AXIS2_PLACEMENT_3D('',#227,#228,#229);
#227 = CARTESIAN_POINT('',(-3.214101615138,-1.855662432703,35.));
#228 = DIRECTION('',(-0.,0.,1.));
#229 = DIRECTION('',(0.,-1.,0.));
#230 = ORIENTED_EDGE('',*,*,#231,.T.);
#231 = EDGE_CURVE('',#223,#232,#234,.T.);
#232 = VERTEX_POINT('',#233);
#233 = CARTESIAN_POINT('',(-0.125,-3.927831216351,35.));
#234 = LINE('',#235,#236);
#235 = CARTESIAN_POINT('',(-3.464101615138,-2.,35.));
#236 = VECTOR('',#237,1.);
#237 = DIRECTION('',(0.866025403784,-0.5,0.));
#238 = ORIENTED_EDGE('',*,*,#239,.T.);
#239 = EDGE_CURVE('',#232,#240,#242,.T.);
#240 = VERTEX_POINT('',#241);
#241 = CARTESIAN_POINT('',(0.125,-3.927831216351,35.));
#242 = CIRCLE('',#243,0.25);
#243 = AXIS2_PLACEMENT_3D('',#244,#245,#246);
#244 = CARTESIAN_POINT('',(2.2E-16,-3.711324865405,35.));
#245 = DIRECTION('',(-0.,0.,1.));
#246 = DIRECTION('',(0.,-1.,0.));
#247 = ORIENTED_EDGE('',*,*,#248,.T.);
#248 = EDGE_CURVE('',#240,#249,#251,.T.);
#249 = VERTEX_POINT('',#250);
#250 = CARTESIAN_POINT('',(3.339101615138,-2.072168783649,35.));
#251 = LINE('',#252,#253);
#252 = CARTESIAN_POINT('',(0.,-4.,35.));
#253 = VECTOR('',#254,1.);
#254 = DIRECTION('',(0.866025403784,0.5,0.));
#255 = ORIENTED_EDGE('',*,*,#256,.T.);
#256 = EDGE_CURVE('',#249,#257,#259,.T.);
#257 = VERTEX_POINT('',#258);
#258 = CARTESIAN_POINT('',(3.464101615138,-1.855662432703,35.));
#259 = CIRCLE('',#260,0.25);
#260 = AXIS2_PLACEMENT_3D('',#261,#262,#263);
#261 = CARTESIAN_POINT('',(3.214101615138,-1.855662432703,35.));
#262 = DIRECTION('',(-0.,0.,1.));
#263 = DIRECTION('',(0.,-1.,0.));
#264 = ORIENTED_EDGE('',*,*,#265,.T.);
#265 = EDGE_CURVE('',#257,#266,#268,.T.);
#266 = VERTEX_POINT('',#267);
#267 = CARTESIAN_POINT('',(3.464101615138,1.855662432703,35.));
#268 = LINE('',#269,#270);
#269 = CARTESIAN_POINT('',(3.464101615138,-2.,35.));
#270 = VECTOR('',#271,1.);
#271 = DIRECTION('',(0.,1.,0.));
#272 = ORIENTED_EDGE('',*,*,#273,.T.);
#273 = EDGE_CURVE('',#266,#274,#276,.T.);
#274 = VERTEX_POINT('',#275);
#275 = CARTESIAN_POINT('',(3.339101615138,2.072168783649,35.));
#276 = CIRCLE('',#277,0.25);
#277 = AXIS2_PLACEMENT_3D('',#278,#279,#280);
#278 = CARTESIAN_POINT('',(3.214101615138,1.855662432703,35.));
#279 = DIRECTION('',(-0.,0.,1.));
#280 = DIRECTION('',(0.,-1.,0.));
#281 = ORIENTED_EDGE('',*,*,#282,.T.);
#282 = EDGE_CURVE('',#274,#164,#283,.T.);
#283 = LINE('',#284,#285);
#284 = CARTESIAN_POINT('',(3.464101615138,2.,35.));
#285 = VECTOR('',#286,1.);
#286 = DIRECTION('',(-0.866025403784,0.5,0.));
#287 = ORIENTED_EDGE('',*,*,#171,.F.);
#288 = PLANE('',#289);
#289 = AXIS2_PLACEMENT_3D('',#290,#291,#292);
#290 = CARTESIAN_POINT('',(-4.E-17,7.E-17,35.));
#291 = DIRECTION('',(0.,0.,1.));
#292 = DIRECTION('',(1.,0.,0.));
#293 = ADVANCED_FACE('',(#294),#305,.F.);
#294 = FACE_BOUND('',#295,.F.);
#295 = EDGE_LOOP('',(#296,#297,#303,#304));
#296 = ORIENTED_EDGE('',*,*,#139,.F.);
#297 = ORIENTED_EDGE('',*,*,#298,.T.);
#298 = EDGE_CURVE('',#131,#274,#299,.T.);
#299 = LINE('',#300,#301);
#300 = CARTESIAN_POINT('',(3.339101615138,2.072168783649,0.));
#301 = VECTOR('',#302,1.);
#302 = DIRECTION('',(0.,0.,1.));
#303 = ORIENTED_EDGE('',*,*,#282,.T.);
#304 = ORIENTED_EDGE('',*,*,#163,.F.);
#305 = PLANE('',#306);
#306 = AXIS2_PLACEMENT_3D('',#307,#308,#309);
#307 = CARTESIAN_POINT('',(3.464101615138,2.,0.));
#308 = DIRECTION('',(-0.5,-0.866025403784,0.));
#309 = DIRECTION('',(-0.866025403784,0.5,0.));
#310 = ADVANCED_FACE('',(#311),#322,.F.);
#311 = FACE_BOUND('',#312,.F.);
#312 = EDGE_LOOP('',(#313,#314,#315,#316));
#313 = ORIENTED_EDGE('',*,*,#71,.F.);
#314 = ORIENTED_EDGE('',*,*,#188,.T.);
#315 = ORIENTED_EDGE('',*,*,#214,.T.);
#316 = ORIENTED_EDGE('',*,*,#317,.F.);
#317 = EDGE_CURVE('',#72,#215,#318,.T.);
#318 = LINE('',#319,#320);
#319 = CARTESIAN_POINT('',(-3.464101615138,-1.855662432703,0.));
#320 = VECTOR('',#321,1.);
#321 = DIRECTION('',(0.,0.,1.));
#322 = PLANE('',#323);
#323 = AXIS2_PLACEMENT_3D('',#324,#325,#326);
#324 = CARTESIAN_POINT('',(-3.464101615138,2.,0.));
#325 = DIRECTION('',(1.,0.,0.));
#326 = DIRECTION('',(0.,-1.,0.));
#327 = ADVANCED_FACE('',(#328),#339,.T.);
#328 = FACE_BOUND('',#329,.T.);
#329 = EDGE_LOOP('',(#330,#331,#332,#333));
#330 = ORIENTED_EDGE('',*,*,#130,.T.);
#331 = ORIENTED_EDGE('',*,*,#298,.T.);
#332 = ORIENTED_EDGE('',*,*,#273,.F.);
#333 = ORIENTED_EDGE('',*,*,#334,.F.);
#334 = EDGE_CURVE('',#123,#266,#335,.T.);
#335 = LINE('',#336,#337);
#336 = CARTESIAN_POINT('',(3.464101615138,1.855662432703,0.));
#337 = VECTOR('',#338,1.);
#338 = DIRECTION('',(0.,0.,1.));
#339 = CYLINDRICAL_SURFACE('',#340,0.25);
#340 = AXIS2_PLACEMENT_3D('',#341,#342,#343);
#341 = CARTESIAN_POINT('',(3.214101615138,1.855662432703,0.));
#342 = DIRECTION('',(0.,0.,1.));
#343 = DIRECTION('',(1.,0.,-0.));
#344 = ADVANCED_FACE('',(#345),#356,.T.);
#345 = FACE_BOUND('',#346,.T.);
#346 = EDGE_LOOP('',(#347,#348,#354,#355));
#347 = ORIENTED_EDGE('',*,*,#79,.T.);
#348 = ORIENTED_EDGE('',*,*,#349,.T.);
#349 = EDGE_CURVE('',#80,#223,#350,.T.);
#350 = LINE('',#351,#352);
#351 = CARTESIAN_POINT('',(-3.339101615138,-2.072168783649,0.));
#352 = VECTOR('',#353,1.);
#353 = DIRECTION('',(0.,0.,1.));
#354 = ORIENTED_EDGE('',*,*,#222,.F.);
#355 = ORIENTED_EDGE('',*,*,#317,.F.);
#356 = CYLINDRICAL_SURFACE('',#357,0.25);
#357 = AXIS2_PLACEMENT_3D('',#358,#359,#360);
#358 = CARTESIAN_POINT('',(-3.214101615138,-1.855662432703,0.));
#359 = DIRECTION('',(0.,0.,1.));
#360 = DIRECTION('',(-1.,0.,0.));
#361 = ADVANCED_FACE('',(#362),#373,.F.);
#362 = FACE_BOUND('',#363,.F.);
#363 = EDGE_LOOP('',(#364,#365,#371,#372));
#364 = ORIENTED_EDGE('',*,*,#122,.F.);
#365 = ORIENTED_EDGE('',*,*,#366,.T.);
#366 = EDGE_CURVE('',#114,#257,#367,.T.);
#367 = LINE('',#368,#369);
#368 = CARTESIAN_POINT('',(3.464101615138,-1.855662432703,0.));
#369 = VECTOR('',#370,1.);
#370 = DIRECTION('',(0.,0.,1.));
#371 = ORIENTED_EDGE('',*,*,#265,.T.);
#372 = ORIENTED_EDGE('',*,*,#334,.F.);
#373 = PLANE('',#374);
#374 = AXIS2_PLACEMENT_3D('',#375,#376,#377);
#375 = CARTESIAN_POINT('',(3.464101615138,-2.,0.));
#376 = DIRECTION('',(-1.,0.,0.));
#377 = DIRECTION('',(0.,1.,0.));
#378 = ADVANCED_FACE('',(#379),#390,.F.);
#379 = FACE_BOUND('',#380,.F.);
#380 = EDGE_LOOP('',(#381,#382,#383,#384));
#381 = ORIENTED_EDGE('',*,*,#88,.F.);
#382 = ORIENTED_EDGE('',*,*,#349,.T.);
#383 = ORIENTED_EDGE('',*,*,#231,.T.);
#384 = ORIENTED_EDGE('',*,*,#385,.F.);
#385 = EDGE_CURVE('',#89,#232,#386,.T.);
#386 = LINE('',#387,#388);
#387 = CARTESIAN_POINT('',(-0.125,-3.927831216351,0.));
#388 = VECTOR('',#389,1.);
#389 = DIRECTION('',(0.,0.,1.));
#390 = PLANE('',#391);
#391 = AXIS2_PLACEMENT_3D('',#392,#393,#394);
#392 = CARTESIAN_POINT('',(-3.464101615138,-2.,0.));
#393 = DIRECTION('',(0.5,0.866025403784,0.));
#394 = DIRECTION('',(0.866025403784,-0.5,0.));
#395 = ADVANCED_FACE('',(#396),#407,.T.);
#396 = FACE_BOUND('',#397,.T.);
#397 = EDGE_LOOP('',(#398,#399,#400,#401));
#398 = ORIENTED_EDGE('',*,*,#113,.T.);
#399 = ORIENTED_EDGE('',*,*,#366,.T.);
#400 = ORIENTED_EDGE('',*,*,#256,.F.);
#401 = ORIENTED_EDGE('',*,*,#402,.F.);
#402 = EDGE_CURVE('',#106,#249,#403,.T.);
#403 = LINE('',#404,#405);
#404 = CARTESIAN_POINT('',(3.339101615138,-2.072168783649,0.));
#405 = VECTOR('',#406,1.);
#406 = DIRECTION('',(0.,0.,1.));
#407 = CYLINDRICAL_SURFACE('',#408,0.25);
#408 = AXIS2_PLACEMENT_3D('',#409,#410,#411);
#409 = CARTESIAN_POINT('',(3.214101615138,-1.855662432703,0.));
#410 = DIRECTION('',(0.,0.,1.));
#411 = DIRECTION('',(0.5,-0.866025403784,0.));
#412 = ADVANCED_FACE('',(#413),#424,.T.);
#413 = FACE_BOUND('',#414,.T.);
#414 = EDGE_LOOP('',(#415,#416,#422,#423));
#415 = ORIENTED_EDGE('',*,*,#96,.T.);
#416 = ORIENTED_EDGE('',*,*,#417,.T.);
#417 = EDGE_CURVE('',#97,#240,#418,.T.);
#418 = LINE('',#419,#420);
#419 = CARTESIAN_POINT('',(0.125,-3.927831216351,0.));
#420 = VECTOR('',#421,1.);
#421 = DIRECTION('',(0.,0.,1.));
#422 = ORIENTED_EDGE('',*,*,#239,.F.);
#423 = ORIENTED_EDGE('',*,*,#385,.F.);
#424 = CYLINDRICAL_SURFACE('',#425,0.25);
#425 = AXIS2_PLACEMENT_3D('',#426,#427,#428);
#426 = CARTESIAN_POINT('',(2.2E-16,-3.711324865405,0.));
#427 = DIRECTION('',(0.,0.,1.));
#428 = DIRECTION('',(-0.5,-0.866025403784,0.));
#429 = ADVANCED_FACE('',(#430),#436,.F.);
#430 = FACE_BOUND('',#431,.F.);
#431 = EDGE_LOOP('',(#432,#433,#434,#435));
#432 = ORIENTED_EDGE('',*,*,#105,.F.);
#433 = ORIENTED_EDGE('',*,*,#417,.T.);
#434 = ORIENTED_EDGE('',*,*,#248,.T.);
#435 = ORIENTED_EDGE('',*,*,#402,.F.);
#436 = PLANE('',#437);
#437 = AXIS2_PLACEMENT_3D('',#438,#439,#440);
#438 = CARTESIAN_POINT('',(0.,-4.,0.));
#439 = DIRECTION('',(-0.5,0.866025403784,0.));
#440 = DIRECTION('',(0.866025403784,0.5,0.));
#441 = ( GEOMETRIC_REPRESENTATION_CONTEXT(3) 
GLOBAL_UNCERTAINTY_ASSIGNED_CONTEXT((#445)) GLOBAL_UNIT_ASSIGNED_CONTEXT
((#442,#443,#444)) REPRESENTATION_CONTEXT('Context #1',
  '3D Context with UNIT and UNCERTAINTY') );
#442 = ( LENGTH_UNIT() NAMED_UNIT(*) SI_UNIT(.MILLI.,.METRE.) );
#443 = ( NAMED_UNIT(*) PLANE_ANGLE_UNIT() SI_UNIT($,.RADIAN.) );
#444 = ( NAMED_UNIT(*) SI_UNIT($,.STERADIAN.) SOLID_ANGLE_UNIT() );
#445 = UNCERTAINTY_MEASURE_WITH_UNIT(LENGTH_MEASURE(1.E-07),#442,
  'distance_accuracy_value','confusion accuracy');
#446 = PRODUCT_RELATED_PRODUCT_CATEGORY('part',$,(#7));
#447 = MECHANICAL_DESIGN_GEOMETRIC_PRESENTATION_REPRESENTATION('',(#448)
  ,#441);
#448 = STYLED_ITEM('color',(#449),#15);
#449 = PRESENTATION_STYLE_ASSIGNMENT((#450,#456));
#450 = SURFACE_STYLE_USAGE(.BOTH.,#451);
#451 = SURFACE_SIDE_STYLE('',(#452));
#452 = SURFACE_STYLE_FILL_AREA(#453);
#453 = FILL_AREA_STYLE('',(#454));
#454 = FILL_AREA_STYLE_COLOUR('',#455);
#455 = COLOUR_RGB('',0.447058818107,0.474509808674,0.501960817233);
#456 = CURVE_STYLE('',#457,POSITIVE_LENGTH_MEASURE(0.1),#458);
#457 = DRAUGHTING_PRE_DEFINED_CURVE_FONT('continuous');
#458 = COLOUR_RGB('',9.803921802644E-02,9.803921802644E-02,
  9.803921802644E-02);
ENDSEC;
END-ISO-10303-21;
