ISO-10303-21;
HEADER;
FILE_DESCRIPTION(('FreeCAD Model'),'2;1');
FILE_NAME('Open CASCADE Shape Model','2026-08-31T05:34:15',('Author'),(
    ''),'Open CASCADE STEP processor 7.9','FreeCAD','Unknown');
FILE_SCHEMA(('AUTOMOTIVE_DESIGN { 1 0 10303 214 1 1 1 1 }'));
ENDSEC;
DATA;
#1 = APPLICATION_PROTOCOL_DEFINITION('international standard',
  'automotive_design',2000,#2);
#2 = APPLICATION_CONTEXT(
  'core data for automotive mechanical design processes');
#3 = SHAPE_DEFINITION_REPRESENTATION(#4,#10);
#4 = PRODUCT_DEFINITION_SHAPE('','',#5);
#5 = PRODUCT_DEFINITION('design','',#6,#9);
#6 = PRODUCT_DEFINITION_FORMATION('','',#7);
#7 = PRODUCT('M5X45 Socket Head Screw_Standard002',
  'M5X45 Socket Head Screw_Standard002','',(#8));
#8 = PRODUCT_CONTEXT('',#2,'mechanical');
#9 = PRODUCT_DEFINITION_CONTEXT('part definition',#2,'design');
#10 = SHAPE_REPRESENTATION('',(#11,#15,#19),#23);
#11 = AXIS2_PLACEMENT_3D('',#12,#13,#14);
#12 = CARTESIAN_POINT('',(0.,0.,0.));
#13 = DIRECTION('',(0.,0.,1.));
#14 = DIRECTION('',(1.,0.,-0.));
#15 = AXIS2_PLACEMENT_3D('',#16,#17,#18);
#16 = CARTESIAN_POINT('',(160.4,30.,-10.));
#17 = DIRECTION('',(0.,0.226621235076,0.973982964847));
#18 = DIRECTION('',(-1.,0.,0.));
#19 = AXIS2_PLACEMENT_3D('',#20,#21,#22);
#20 = CARTESIAN_POINT('',(160.4,30.,-10.));
#21 = DIRECTION('',(0.,0.226621235076,0.973982964847));
#22 = DIRECTION('',(-1.,0.,0.));
#23 = ( GEOMETRIC_REPRESENTATION_CONTEXT(3) 
GLOBAL_UNCERTAINTY_ASSIGNED_CONTEXT((#27)) GLOBAL_UNIT_ASSIGNED_CONTEXT(
(#24,#25,#26)) REPRESENTATION_CONTEXT('Context #1',
  '3D Context with UNIT and UNCERTAINTY') );
#24 = ( LENGTH_UNIT() NAMED_UNIT(*) SI_UNIT(.MILLI.,.METRE.) );
#25 = ( NAMED_UNIT(*) PLANE_ANGLE_UNIT() SI_UNIT($,.RADIAN.) );
#26 = ( NAMED_UNIT(*) SI_UNIT($,.STERADIAN.) SOLID_ANGLE_UNIT() );
#27 = UNCERTAINTY_MEASURE_WITH_UNIT(LENGTH_MEASURE(2.E-05),#24,
  'distance_accuracy_value','confusion accuracy');
#28 = PRODUCT_RELATED_PRODUCT_CATEGORY('part',$,(#7));
#29 = SHAPE_DEFINITION_REPRESENTATION(#30,#36);
#30 = PRODUCT_DEFINITION_SHAPE('','',#31);
#31 = PRODUCT_DEFINITION('design','',#32,#35);
#32 = PRODUCT_DEFINITION_FORMATION('','',#33);
#33 = PRODUCT('M5X45 Socket Head Screw_Standard',
  'M5X45 Socket Head Screw_Standard','',(#34));
#34 = PRODUCT_CONTEXT('',#2,'mechanical');
#35 = PRODUCT_DEFINITION_CONTEXT('part definition',#2,'design');
#36 = ADVANCED_BREP_SHAPE_REPRESENTATION('',(#11,#37),#823);
#37 = MANIFOLD_SOLID_BREP('',#38);
#38 = CLOSED_SHELL('',(#39,#129,#185,#232,#273,#305,#356,#375,#439,#458,
    #478,#488,#506,#536,#596,#625,#647,#669,#691,#715,#732,#748,#758,
    #768,#778,#794,#810));
#39 = ADVANCED_FACE('',(#40),#112,.F.);
#40 = FACE_BOUND('',#41,.F.);
#41 = EDGE_LOOP('',(#42,#53,#96,#105));
#42 = ORIENTED_EDGE('',*,*,#43,.T.);
#43 = EDGE_CURVE('',#44,#46,#48,.T.);
#44 = VERTEX_POINT('',#45);
#45 = CARTESIAN_POINT('',(0.2,2.5,0.));
#46 = VERTEX_POINT('',#47);
#47 = CARTESIAN_POINT('',(2.E-15,2.7,0.));
#48 = CIRCLE('',#49,0.2);
#49 = AXIS2_PLACEMENT_3D('',#50,#51,#52);
#50 = CARTESIAN_POINT('',(0.2,2.7,0.));
#51 = DIRECTION('',(0.,0.,-1.));
#52 = DIRECTION('',(0.,1.,0.));
#53 = ORIENTED_EDGE('',*,*,#54,.T.);
#54 = EDGE_CURVE('',#46,#55,#57,.T.);
#55 = VERTEX_POINT('',#56);
#56 = CARTESIAN_POINT('',(3.E-15,-2.7,-0.));
#57 = B_SPLINE_CURVE_WITH_KNOTS('',3,(#58,#59,#60,#61,#62,#63,#64,#65,
    #66,#67,#68,#69,#70,#71,#72,#73,#74,#75,#76,#77,#78,#79,#80,#81,#82,
    #83,#84,#85,#86,#87,#88,#89,#90,#91,#92,#93,#94,#95),.UNSPECIFIED.,
  .F.,.F.,(4,1,1,1,2,2,2,1,1,1,2,2,2,1,1,1,2,2,2,1,1,1,2,2,4),(0.,
    6.25E-02,9.375E-02,0.109375,0.1171875,0.125,0.25,0.3125,0.34375,
    0.359375,0.3671875,0.375,0.5,0.5625,0.59375,0.609375,0.6171875,0.625
    ,0.75,0.8125,0.84375,0.859375,0.8671875,0.875,1.),.UNSPECIFIED.);
#58 = CARTESIAN_POINT('',(2.37E-15,2.7,1.3E-16));
#59 = CARTESIAN_POINT('',(2.39E-15,2.7,-0.17175835936));
#60 = CARTESIAN_POINT('',(2.39E-15,2.676303551609,-0.424809093358));
#61 = CARTESIAN_POINT('',(2.39E-15,2.607188910467,-0.712008040862));
#62 = CARTESIAN_POINT('',(2.4E-15,2.562264393725,-0.853600787409));
#63 = CARTESIAN_POINT('',(2.4E-15,2.54078948737,-0.913853380098));
#64 = CARTESIAN_POINT('',(2.4E-15,2.525979207125,-0.953926216786));
#65 = CARTESIAN_POINT('',(2.4E-15,2.519017083079,-0.972173293209));
#66 = CARTESIAN_POINT('',(2.41E-15,2.373009689498,-1.34077447755));
#67 = CARTESIAN_POINT('',(2.42E-15,2.17309321421,-1.64538864757));
#68 = CARTESIAN_POINT('',(2.44E-15,1.777235856701,-2.041088140021));
#69 = CARTESIAN_POINT('',(2.45E-15,1.56385494315,-2.215168026091));
#70 = CARTESIAN_POINT('',(2.46E-15,1.287869133115,-2.376663971237));
#71 = CARTESIAN_POINT('',(2.47E-15,1.143115875374,-2.447012629992));
#72 = CARTESIAN_POINT('',(2.47E-15,1.079630117901,-2.474933630783));
#73 = CARTESIAN_POINT('',(2.47E-15,1.036984358028,-2.493052425891));
#74 = CARTESIAN_POINT('',(2.47E-15,1.013829514799,-2.502525385799));
#75 = CARTESIAN_POINT('',(2.49E-15,0.674274932113,-2.636876845976));
#76 = CARTESIAN_POINT('',(2.51E-15,0.34368715538,-2.700067512025));
#77 = CARTESIAN_POINT('',(2.53E-15,-0.17184357769,-2.699966243987));
#78 = CARTESIAN_POINT('',(2.54E-15,-0.424958225435,-2.676244478586));
#79 = CARTESIAN_POINT('',(2.56E-15,-0.71211988992,-2.6071446057));
#80 = CARTESIAN_POINT('',(2.56E-15,-0.853666032692,-2.562238549278));
#81 = CARTESIAN_POINT('',(2.57E-15,-0.913892660422,-2.540773927958));
#82 = CARTESIAN_POINT('',(2.57E-15,-0.953946855601,-2.525971031841));
#83 = CARTESIAN_POINT('',(2.57E-15,-0.972173293209,-2.519017083079));
#84 = CARTESIAN_POINT('',(2.59E-15,-1.34077447755,-2.373009689499));
#85 = CARTESIAN_POINT('',(2.6E-15,-1.64538864757,-2.173093214209));
#86 = CARTESIAN_POINT('',(2.62E-15,-2.04108814002,-1.777235856701));
#87 = CARTESIAN_POINT('',(2.63E-15,-2.215168026091,-1.56385494315));
#88 = CARTESIAN_POINT('',(2.64E-15,-2.376663971237,-1.287869133115));
#89 = CARTESIAN_POINT('',(2.64E-15,-2.447012629992,-1.143115875374));
#90 = CARTESIAN_POINT('',(2.64E-15,-2.474933630783,-1.079630117901));
#91 = CARTESIAN_POINT('',(2.64E-15,-2.493052425891,-1.036984358028));
#92 = CARTESIAN_POINT('',(2.65E-15,-2.502529596738,-1.013818872238));
#93 = CARTESIAN_POINT('',(2.65E-15,-2.636809470956,-0.674445213082));
#94 = CARTESIAN_POINT('',(2.66E-15,-2.7,-0.343159974476));
#95 = CARTESIAN_POINT('',(2.64E-15,-2.7,-2.E-16));
#96 = ORIENTED_EDGE('',*,*,#97,.F.);
#97 = EDGE_CURVE('',#98,#55,#100,.T.);
#98 = VERTEX_POINT('',#99);
#99 = CARTESIAN_POINT('',(0.2,-2.5,0.));
#100 = CIRCLE('',#101,0.2);
#101 = AXIS2_PLACEMENT_3D('',#102,#103,#104);
#102 = CARTESIAN_POINT('',(0.2,-2.7,-3.3E-16));
#103 = DIRECTION('',(0.,-1.2E-16,1.));
#104 = DIRECTION('',(1.4E-16,-1.,-1.2E-16));
#105 = ORIENTED_EDGE('',*,*,#106,.T.);
#106 = EDGE_CURVE('',#98,#44,#107,.T.);
#107 = CIRCLE('',#108,2.5);
#108 = AXIS2_PLACEMENT_3D('',#109,#110,#111);
#109 = CARTESIAN_POINT('',(0.2,-3.8E-16,0.));
#110 = DIRECTION('',(1.,5.E-17,0.));
#111 = DIRECTION('',(5.E-17,-1.,0.));
#112 = ( BOUNDED_SURFACE() B_SPLINE_SURFACE(3,3,(
    (#113,#114,#115,#116)
    ,(#117,#118,#119,#120)
    ,(#121,#122,#123,#124)
    ,(#125,#126,#127,#128
)),.UNSPECIFIED.,.F.,.F.,.F.) B_SPLINE_SURFACE_WITH_KNOTS((4,4),(4,4),(
    0.,1.),(0.,1.),.PIECEWISE_BEZIER_KNOTS.) 
GEOMETRIC_REPRESENTATION_ITEM() RATIONAL_B_SPLINE_SURFACE((
    (1.,0.333333333333,0.333333333333,1.)
    ,(0.804737854124,0.268245951375,0.268245951375,0.804737854124)
    ,(0.804737854124,0.268245951375,0.268245951375,0.804737854124)
,(1.,0.333333333333,0.333333333333,1.
))) REPRESENTATION_ITEM('') SURFACE() );
#113 = CARTESIAN_POINT('',(0.2,2.5,3.1E-16));
#114 = CARTESIAN_POINT('',(0.2,2.5,-5.));
#115 = CARTESIAN_POINT('',(0.2,-2.5,-5.));
#116 = CARTESIAN_POINT('',(0.2,-2.5,-6.1E-16));
#117 = CARTESIAN_POINT('',(8.284271247462E-02,2.5,3.1E-16));
#118 = CARTESIAN_POINT('',(8.284271247462E-02,2.5,-5.));
#119 = CARTESIAN_POINT('',(8.284271247462E-02,-2.5,-5.));
#120 = CARTESIAN_POINT('',(8.284271247462E-02,-2.5,-6.1E-16));
#121 = CARTESIAN_POINT('',(1.65E-15,2.582842712475,3.2E-16));
#122 = CARTESIAN_POINT('',(1.65E-15,2.582842712475,-5.165685424949));
#123 = CARTESIAN_POINT('',(1.9E-15,-2.582842712475,-5.165685424949));
#124 = CARTESIAN_POINT('',(1.9E-15,-2.582842712475,-6.3E-16));
#125 = CARTESIAN_POINT('',(2.36E-15,2.7,3.3E-16));
#126 = CARTESIAN_POINT('',(2.36E-15,2.7,-5.4));
#127 = CARTESIAN_POINT('',(2.62E-15,-2.7,-5.4));
#128 = CARTESIAN_POINT('',(2.62E-15,-2.7,-6.6E-16));
#129 = ADVANCED_FACE('',(#130),#168,.T.);
#130 = FACE_BOUND('',#131,.T.);
#131 = EDGE_LOOP('',(#132,#143,#152,#161));
#132 = ORIENTED_EDGE('',*,*,#133,.T.);
#133 = EDGE_CURVE('',#134,#136,#138,.T.);
#134 = VERTEX_POINT('',#135);
#135 = CARTESIAN_POINT('',(-5.,3.75,0.));
#136 = VERTEX_POINT('',#137);
#137 = CARTESIAN_POINT('',(-5.,-3.75,-0.));
#138 = ( BOUNDED_CURVE() B_SPLINE_CURVE(3,(#139,#140,#141,#142),
.UNSPECIFIED.,.F.,.F.) B_SPLINE_CURVE_WITH_KNOTS((4,4),(0.,1.),
.PIECEWISE_BEZIER_KNOTS.) CURVE() GEOMETRIC_REPRESENTATION_ITEM() 
RATIONAL_B_SPLINE_CURVE((1.,0.333333333333,0.333333333333,1.)) 
REPRESENTATION_ITEM('') );
#139 = CARTESIAN_POINT('',(-5.,3.75,2.E-16));
#140 = CARTESIAN_POINT('',(-5.,3.75,7.5));
#141 = CARTESIAN_POINT('',(-5.,-3.75,7.5));
#142 = CARTESIAN_POINT('',(-5.,-3.75,-2.8E-16));
#143 = ORIENTED_EDGE('',*,*,#144,.T.);
#144 = EDGE_CURVE('',#136,#145,#147,.T.);
#145 = VERTEX_POINT('',#146);
#146 = CARTESIAN_POINT('',(-4.5,-4.25,0.));
#147 = CIRCLE('',#148,0.5);
#148 = AXIS2_PLACEMENT_3D('',#149,#150,#151);
#149 = CARTESIAN_POINT('',(-4.5,-3.75,-4.6E-16));
#150 = DIRECTION('',(0.,-1.2E-16,1.));
#151 = DIRECTION('',(-0.,-1.,-1.2E-16));
#152 = ORIENTED_EDGE('',*,*,#153,.F.);
#153 = EDGE_CURVE('',#154,#145,#156,.T.);
#154 = VERTEX_POINT('',#155);
#155 = CARTESIAN_POINT('',(-4.5,4.25,1.E-15));
#156 = CIRCLE('',#157,4.25);
#157 = AXIS2_PLACEMENT_3D('',#158,#159,#160);
#158 = CARTESIAN_POINT('',(-4.5,-6.1E-16,0.));
#159 = DIRECTION('',(1.,5.E-17,0.));
#160 = DIRECTION('',(5.E-17,-1.,0.));
#161 = ORIENTED_EDGE('',*,*,#162,.F.);
#162 = EDGE_CURVE('',#134,#154,#163,.T.);
#163 = CIRCLE('',#164,0.5);
#164 = AXIS2_PLACEMENT_3D('',#165,#166,#167);
#165 = CARTESIAN_POINT('',(-4.5,3.75,0.));
#166 = DIRECTION('',(0.,0.,-1.));
#167 = DIRECTION('',(0.,1.,0.));
#168 = ( BOUNDED_SURFACE() B_SPLINE_SURFACE(3,3,(
    (#169,#170,#171,#172)
    ,(#173,#174,#175,#176)
    ,(#177,#178,#179,#180)
    ,(#181,#182,#183,#184
)),.UNSPECIFIED.,.F.,.F.,.F.) B_SPLINE_SURFACE_WITH_KNOTS((4,4),(4,4),(
    0.,1.),(0.,1.),.PIECEWISE_BEZIER_KNOTS.) 
GEOMETRIC_REPRESENTATION_ITEM() RATIONAL_B_SPLINE_SURFACE((
    (1.,0.333333333333,0.333333333333,1.)
    ,(0.804737854124,0.268245951375,0.268245951375,0.804737854124)
    ,(0.804737854124,0.268245951375,0.268245951375,0.804737854124)
,(1.,0.333333333333,0.333333333333,1.
))) REPRESENTATION_ITEM('') SURFACE() );
#169 = CARTESIAN_POINT('',(-5.,-3.75,-4.6E-16));
#170 = CARTESIAN_POINT('',(-5.,-3.75,7.5));
#171 = CARTESIAN_POINT('',(-5.,3.75,7.5));
#172 = CARTESIAN_POINT('',(-5.,3.75,9.2E-16));
#173 = CARTESIAN_POINT('',(-5.,-4.042893218813,-5.E-16));
#174 = CARTESIAN_POINT('',(-5.,-4.042893218813,8.085786437627));
#175 = CARTESIAN_POINT('',(-5.,4.042893218813,8.085786437627));
#176 = CARTESIAN_POINT('',(-5.,4.042893218813,9.9E-16));
#177 = CARTESIAN_POINT('',(-4.792893218813,-4.25,-5.2E-16));
#178 = CARTESIAN_POINT('',(-4.792893218813,-4.25,8.5));
#179 = CARTESIAN_POINT('',(-4.792893218813,4.25,8.5));
#180 = CARTESIAN_POINT('',(-4.792893218813,4.25,1.04E-15));
#181 = CARTESIAN_POINT('',(-4.5,-4.25,-5.2E-16));
#182 = CARTESIAN_POINT('',(-4.5,-4.25,8.5));
#183 = CARTESIAN_POINT('',(-4.5,4.25,8.5));
#184 = CARTESIAN_POINT('',(-4.5,4.25,1.04E-15));
#185 = ADVANCED_FACE('',(#186),#227,.T.);
#186 = FACE_BOUND('',#187,.T.);
#187 = EDGE_LOOP('',(#188,#199,#205,#212,#220));
#188 = ORIENTED_EDGE('',*,*,#189,.T.);
#189 = EDGE_CURVE('',#190,#192,#194,.T.);
#190 = VERTEX_POINT('',#191);
#191 = CARTESIAN_POINT('',(44.7,1.E-15,2.499999999975));
#192 = VERTEX_POINT('',#193);
#193 = CARTESIAN_POINT('',(44.7,2.5,0.));
#194 = CIRCLE('',#195,2.5);
#195 = AXIS2_PLACEMENT_3D('',#196,#197,#198);
#196 = CARTESIAN_POINT('',(44.7,1.8E-15,0.));
#197 = DIRECTION('',(-1.,-5.E-17,0.));
#198 = DIRECTION('',(5.E-17,-1.,0.));
#199 = ORIENTED_EDGE('',*,*,#200,.T.);
#200 = EDGE_CURVE('',#192,#44,#201,.T.);
#201 = LINE('',#202,#203);
#202 = CARTESIAN_POINT('',(-1.177001858152,2.5,3.1E-16));
#203 = VECTOR('',#204,1.);
#204 = DIRECTION('',(-1.,-5.E-17,0.));
#205 = ORIENTED_EDGE('',*,*,#206,.T.);
#206 = EDGE_CURVE('',#44,#98,#207,.T.);
#207 = CIRCLE('',#208,2.5);
#208 = AXIS2_PLACEMENT_3D('',#209,#210,#211);
#209 = CARTESIAN_POINT('',(0.2,-3.8E-16,0.));
#210 = DIRECTION('',(1.,5.E-17,0.));
#211 = DIRECTION('',(5.E-17,-1.,0.));
#212 = ORIENTED_EDGE('',*,*,#213,.F.);
#213 = EDGE_CURVE('',#214,#98,#216,.T.);
#214 = VERTEX_POINT('',#215);
#215 = CARTESIAN_POINT('',(44.7,-2.5,0.));
#216 = LINE('',#217,#218);
#217 = CARTESIAN_POINT('',(-1.177001858152,-2.5,0.));
#218 = VECTOR('',#219,1.);
#219 = DIRECTION('',(-1.,-5.E-17,0.));
#220 = ORIENTED_EDGE('',*,*,#221,.T.);
#221 = EDGE_CURVE('',#214,#190,#222,.T.);
#222 = CIRCLE('',#223,2.5);
#223 = AXIS2_PLACEMENT_3D('',#224,#225,#226);
#224 = CARTESIAN_POINT('',(44.7,1.8E-15,0.));
#225 = DIRECTION('',(-1.,-5.E-17,0.));
#226 = DIRECTION('',(5.E-17,-1.,0.));
#227 = CYLINDRICAL_SURFACE('',#228,2.5);
#228 = AXIS2_PLACEMENT_3D('',#229,#230,#231);
#229 = CARTESIAN_POINT('',(-1.177001858152,-4.5E-16,0.));
#230 = DIRECTION('',(-1.,-5.E-17,0.));
#231 = DIRECTION('',(5.E-17,-1.,0.));
#232 = ADVANCED_FACE('',(#233),#268,.T.);
#233 = FACE_BOUND('',#234,.T.);
#234 = EDGE_LOOP('',(#235,#246,#254,#261,#262));
#235 = ORIENTED_EDGE('',*,*,#236,.T.);
#236 = EDGE_CURVE('',#237,#239,#241,.T.);
#237 = VERTEX_POINT('',#238);
#238 = CARTESIAN_POINT('',(45.200000000023,1.E-15,1.999999999953));
#239 = VERTEX_POINT('',#240);
#240 = CARTESIAN_POINT('',(45.200000000023,1.E-15,-1.999999999953));
#241 = CIRCLE('',#242,1.999999999953);
#242 = AXIS2_PLACEMENT_3D('',#243,#244,#245);
#243 = CARTESIAN_POINT('',(45.200000000023,8.7E-16,0.));
#244 = DIRECTION('',(-1.,0.,0.));
#245 = DIRECTION('',(0.,0.,1.));
#246 = ORIENTED_EDGE('',*,*,#247,.T.);
#247 = EDGE_CURVE('',#239,#248,#250,.T.);
#248 = VERTEX_POINT('',#249);
#249 = CARTESIAN_POINT('',(44.7,1.E-15,-2.499999999975));
#250 = LINE('',#251,#252);
#251 = CARTESIAN_POINT('',(44.700000000091,1.17E-15,-2.499999999884));
#252 = VECTOR('',#253,1.);
#253 = DIRECTION('',(-0.707106781187,9.E-17,-0.707106781187));
#254 = ORIENTED_EDGE('',*,*,#255,.F.);
#255 = EDGE_CURVE('',#192,#248,#256,.T.);
#256 = CIRCLE('',#257,2.5);
#257 = AXIS2_PLACEMENT_3D('',#258,#259,#260);
#258 = CARTESIAN_POINT('',(44.7,1.8E-15,0.));
#259 = DIRECTION('',(-1.,-5.E-17,0.));
#260 = DIRECTION('',(5.E-17,-1.,0.));
#261 = ORIENTED_EDGE('',*,*,#189,.F.);
#262 = ORIENTED_EDGE('',*,*,#263,.F.);
#263 = EDGE_CURVE('',#237,#190,#264,.T.);
#264 = LINE('',#265,#266);
#265 = CARTESIAN_POINT('',(44.700000000091,8.7E-16,2.499999999884));
#266 = VECTOR('',#267,1.);
#267 = DIRECTION('',(-0.707106781187,0.,0.707106781187));
#268 = CONICAL_SURFACE('',#269,2.499999999884,0.785398163397);
#269 = AXIS2_PLACEMENT_3D('',#270,#271,#272);
#270 = CARTESIAN_POINT('',(44.700000000091,8.7E-16,0.));
#271 = DIRECTION('',(-1.,0.,0.));
#272 = DIRECTION('',(0.,0.,1.));
#273 = ADVANCED_FACE('',(#274),#300,.T.);
#274 = FACE_BOUND('',#275,.T.);
#275 = EDGE_LOOP('',(#276,#287,#293,#294));
#276 = ORIENTED_EDGE('',*,*,#277,.T.);
#277 = EDGE_CURVE('',#278,#280,#282,.T.);
#278 = VERTEX_POINT('',#279);
#279 = CARTESIAN_POINT('',(3.E-15,-4.25,0.));
#280 = VERTEX_POINT('',#281);
#281 = CARTESIAN_POINT('',(3.E-15,4.25,1.E-15));
#282 = CIRCLE('',#283,4.25);
#283 = AXIS2_PLACEMENT_3D('',#284,#285,#286);
#284 = CARTESIAN_POINT('',(3.25E-15,-3.9E-16,0.));
#285 = DIRECTION('',(-1.,-5.E-17,0.));
#286 = DIRECTION('',(5.E-17,-1.,0.));
#287 = ORIENTED_EDGE('',*,*,#288,.T.);
#288 = EDGE_CURVE('',#280,#154,#289,.T.);
#289 = LINE('',#290,#291);
#290 = CARTESIAN_POINT('',(-1.177001858152,4.25,5.2E-16));
#291 = VECTOR('',#292,1.);
#292 = DIRECTION('',(-1.,-5.E-17,0.));
#293 = ORIENTED_EDGE('',*,*,#153,.T.);
#294 = ORIENTED_EDGE('',*,*,#295,.F.);
#295 = EDGE_CURVE('',#278,#145,#296,.T.);
#296 = LINE('',#297,#298);
#297 = CARTESIAN_POINT('',(-1.177001858152,-4.25,0.));
#298 = VECTOR('',#299,1.);
#299 = DIRECTION('',(-1.,-5.E-17,0.));
#300 = CYLINDRICAL_SURFACE('',#301,4.25);
#301 = AXIS2_PLACEMENT_3D('',#302,#303,#304);
#302 = CARTESIAN_POINT('',(-1.177001858152,-4.5E-16,0.));
#303 = DIRECTION('',(-1.,-5.E-17,0.));
#304 = DIRECTION('',(5.E-17,-1.,0.));
#305 = ADVANCED_FACE('',(#306),#351,.F.);
#306 = FACE_BOUND('',#307,.F.);
#307 = EDGE_LOOP('',(#308,#319,#328,#337,#345));
#308 = ORIENTED_EDGE('',*,*,#309,.F.);
#309 = EDGE_CURVE('',#310,#312,#314,.T.);
#310 = VERTEX_POINT('',#311);
#311 = CARTESIAN_POINT('',(-2.500000000007,-1.145750000035,
    -1.984497212832));
#312 = VERTEX_POINT('',#313);
#313 = CARTESIAN_POINT('',(-2.500000000007,-2.291500000069,1.E-15));
#314 = CIRCLE('',#315,2.291500000069);
#315 = AXIS2_PLACEMENT_3D('',#316,#317,#318);
#316 = CARTESIAN_POINT('',(-2.500000000007,-6.5E-16,0.));
#317 = DIRECTION('',(-1.,-9.E-17,0.));
#318 = DIRECTION('',(9.E-17,-1.,0.));
#319 = ORIENTED_EDGE('',*,*,#320,.F.);
#320 = EDGE_CURVE('',#321,#310,#323,.T.);
#321 = VERTEX_POINT('',#322);
#322 = CARTESIAN_POINT('',(-2.499999999941,1.145749999978,
    -1.984497212734));
#323 = CIRCLE('',#324,2.291499999956);
#324 = AXIS2_PLACEMENT_3D('',#325,#326,#327);
#325 = CARTESIAN_POINT('',(-2.499999999941,-6.5E-16,0.));
#326 = DIRECTION('',(-1.,-9.E-17,0.));
#327 = DIRECTION('',(9.E-17,-1.,0.));
#328 = ORIENTED_EDGE('',*,*,#329,.F.);
#329 = EDGE_CURVE('',#330,#321,#332,.T.);
#330 = VERTEX_POINT('',#331);
#331 = CARTESIAN_POINT('',(-2.499999999984,2.291500000017,2.4696E-11));
#332 = CIRCLE('',#333,2.291499999956);
#333 = AXIS2_PLACEMENT_3D('',#334,#335,#336);
#334 = CARTESIAN_POINT('',(-2.499999999941,-6.5E-16,0.));
#335 = DIRECTION('',(-1.,-9.E-17,0.));
#336 = DIRECTION('',(9.E-17,-1.,0.));
#337 = ORIENTED_EDGE('',*,*,#338,.F.);
#338 = EDGE_CURVE('',#339,#330,#341,.T.);
#339 = VERTEX_POINT('',#340);
#340 = CARTESIAN_POINT('',(-1.177001858053,-1.7053E-10,0.));
#341 = LINE('',#342,#343);
#342 = CARTESIAN_POINT('',(-2.499999999941,2.291499999956,2.8E-16));
#343 = VECTOR('',#344,1.);
#344 = DIRECTION('',(-0.500000000054,0.866025403753,1.1E-16));
#345 = ORIENTED_EDGE('',*,*,#346,.T.);
#346 = EDGE_CURVE('',#339,#312,#347,.T.);
#347 = LINE('',#348,#349);
#348 = CARTESIAN_POINT('',(-2.499999999941,-2.291499999956,0.));
#349 = VECTOR('',#350,1.);
#350 = DIRECTION('',(-0.500000000054,-0.866025403753,0.));
#351 = CONICAL_SURFACE('',#352,2.291499999956,1.047197551134);
#352 = AXIS2_PLACEMENT_3D('',#353,#354,#355);
#353 = CARTESIAN_POINT('',(-2.499999999941,-6.5E-16,0.));
#354 = DIRECTION('',(-1.,-9.E-17,-0.));
#355 = DIRECTION('',(9.E-17,-1.,0.));
#356 = ADVANCED_FACE('',(#357),#370,.T.);
#357 = FACE_BOUND('',#358,.T.);
#358 = EDGE_LOOP('',(#359,#360,#361,#368,#369));
#359 = ORIENTED_EDGE('',*,*,#200,.F.);
#360 = ORIENTED_EDGE('',*,*,#255,.T.);
#361 = ORIENTED_EDGE('',*,*,#362,.T.);
#362 = EDGE_CURVE('',#248,#214,#363,.T.);
#363 = CIRCLE('',#364,2.5);
#364 = AXIS2_PLACEMENT_3D('',#365,#366,#367);
#365 = CARTESIAN_POINT('',(44.7,1.8E-15,0.));
#366 = DIRECTION('',(-1.,-5.E-17,0.));
#367 = DIRECTION('',(5.E-17,-1.,0.));
#368 = ORIENTED_EDGE('',*,*,#213,.T.);
#369 = ORIENTED_EDGE('',*,*,#106,.T.);
#370 = CYLINDRICAL_SURFACE('',#371,2.5);
#371 = AXIS2_PLACEMENT_3D('',#372,#373,#374);
#372 = CARTESIAN_POINT('',(-1.177001858152,-4.5E-16,0.));
#373 = DIRECTION('',(-1.,-5.E-17,0.));
#374 = DIRECTION('',(5.E-17,-1.,0.));
#375 = ADVANCED_FACE('',(#376),#422,.F.);
#376 = FACE_BOUND('',#377,.F.);
#377 = EDGE_LOOP('',(#378,#419,#420,#421));
#378 = ORIENTED_EDGE('',*,*,#379,.T.);
#379 = EDGE_CURVE('',#55,#46,#380,.T.);
#380 = B_SPLINE_CURVE_WITH_KNOTS('',3,(#381,#382,#383,#384,#385,#386,
    #387,#388,#389,#390,#391,#392,#393,#394,#395,#396,#397,#398,#399,
    #400,#401,#402,#403,#404,#405,#406,#407,#408,#409,#410,#411,#412,
    #413,#414,#415,#416,#417,#418),.UNSPECIFIED.,.F.,.F.,(4,1,1,1,2,2,2,
    1,1,1,2,2,2,1,1,1,2,2,2,1,1,1,2,2,4),(0.,6.25E-02,9.375E-02,0.109375
    ,0.1171875,0.125,0.25,0.3125,0.34375,0.359375,0.3671875,0.375,0.5,
    0.5625,0.59375,0.609375,0.6171875,0.625,0.75,0.8125,0.84375,0.859375
    ,0.8671875,0.875,1.),.UNSPECIFIED.);
#381 = CARTESIAN_POINT('',(2.64E-15,-2.7,-2.E-16));
#382 = CARTESIAN_POINT('',(2.66E-15,-2.7,0.17175835936));
#383 = CARTESIAN_POINT('',(2.65E-15,-2.676303551609,0.424809093358));
#384 = CARTESIAN_POINT('',(2.65E-15,-2.607188910467,0.712008040862));
#385 = CARTESIAN_POINT('',(2.65E-15,-2.562264393725,0.853600787408));
#386 = CARTESIAN_POINT('',(2.65E-15,-2.54078948737,0.913853380098));
#387 = CARTESIAN_POINT('',(2.65E-15,-2.525979207125,0.953926216786));
#388 = CARTESIAN_POINT('',(2.65E-15,-2.519017083079,0.972173293209));
#389 = CARTESIAN_POINT('',(2.64E-15,-2.373009689498,1.34077447755));
#390 = CARTESIAN_POINT('',(2.63E-15,-2.173093214211,1.645388647569));
#391 = CARTESIAN_POINT('',(2.61E-15,-1.7772358567,2.041088140021));
#392 = CARTESIAN_POINT('',(2.6E-15,-1.563854943149,2.215168026092));
#393 = CARTESIAN_POINT('',(2.59E-15,-1.287869133114,2.376663971237));
#394 = CARTESIAN_POINT('',(2.58E-15,-1.143115875373,2.447012629992));
#395 = CARTESIAN_POINT('',(2.58E-15,-1.079630117901,2.474933630783));
#396 = CARTESIAN_POINT('',(2.57E-15,-1.036984358028,2.493052425891));
#397 = CARTESIAN_POINT('',(2.57E-15,-1.013829514799,2.502525385799));
#398 = CARTESIAN_POINT('',(2.56E-15,-0.674274932112,2.636876845976));
#399 = CARTESIAN_POINT('',(2.54E-15,-0.343687155381,2.700067512025));
#400 = CARTESIAN_POINT('',(2.51E-15,0.17184357769,2.699966243987));
#401 = CARTESIAN_POINT('',(2.5E-15,0.424958225435,2.676244478586));
#402 = CARTESIAN_POINT('',(2.49E-15,0.712119889921,2.6071446057));
#403 = CARTESIAN_POINT('',(2.48E-15,0.853666032693,2.562238549278));
#404 = CARTESIAN_POINT('',(2.48E-15,0.913892660422,2.540773927958));
#405 = CARTESIAN_POINT('',(2.48E-15,0.953946855601,2.525971031841));
#406 = CARTESIAN_POINT('',(2.47E-15,0.972173293209,2.519017083079));
#407 = CARTESIAN_POINT('',(2.46E-15,1.340774477551,2.373009689498));
#408 = CARTESIAN_POINT('',(2.44E-15,1.645388647569,2.173093214211));
#409 = CARTESIAN_POINT('',(2.42E-15,2.041088140021,1.7772358567));
#410 = CARTESIAN_POINT('',(2.41E-15,2.215168026092,1.563854943149));
#411 = CARTESIAN_POINT('',(2.41E-15,2.376663971237,1.287869133114));
#412 = CARTESIAN_POINT('',(2.4E-15,2.447012629992,1.143115875373));
#413 = CARTESIAN_POINT('',(2.4E-15,2.474933630783,1.079630117901));
#414 = CARTESIAN_POINT('',(2.4E-15,2.493052425891,1.036984358028));
#415 = CARTESIAN_POINT('',(2.4E-15,2.502529596738,1.013818872238));
#416 = CARTESIAN_POINT('',(2.39E-15,2.636809470956,0.674445213081));
#417 = CARTESIAN_POINT('',(2.39E-15,2.7,0.343159974475));
#418 = CARTESIAN_POINT('',(2.37E-15,2.7,1.3E-16));
#419 = ORIENTED_EDGE('',*,*,#43,.F.);
#420 = ORIENTED_EDGE('',*,*,#206,.T.);
#421 = ORIENTED_EDGE('',*,*,#97,.T.);
#422 = ( BOUNDED_SURFACE() B_SPLINE_SURFACE(3,3,(
    (#423,#424,#425,#426)
    ,(#427,#428,#429,#430)
    ,(#431,#432,#433,#434)
    ,(#435,#436,#437,#438
)),.UNSPECIFIED.,.F.,.F.,.F.) B_SPLINE_SURFACE_WITH_KNOTS((4,4),(4,4),(
    0.,1.),(0.,1.),.PIECEWISE_BEZIER_KNOTS.) 
GEOMETRIC_REPRESENTATION_ITEM() RATIONAL_B_SPLINE_SURFACE((
    (1.,0.333333333333,0.333333333333,1.)
    ,(0.804737854124,0.268245951375,0.268245951375,0.804737854124)
    ,(0.804737854124,0.268245951375,0.268245951375,0.804737854124)
,(1.,0.333333333333,0.333333333333,1.
))) REPRESENTATION_ITEM('') SURFACE() );
#423 = CARTESIAN_POINT('',(0.2,-2.5,-3.1E-16));
#424 = CARTESIAN_POINT('',(0.2,-2.5,5.));
#425 = CARTESIAN_POINT('',(0.2,2.5,5.));
#426 = CARTESIAN_POINT('',(0.2,2.5,6.1E-16));
#427 = CARTESIAN_POINT('',(8.284271247462E-02,-2.5,-3.1E-16));
#428 = CARTESIAN_POINT('',(8.284271247462E-02,-2.5,5.));
#429 = CARTESIAN_POINT('',(8.284271247462E-02,2.5,5.));
#430 = CARTESIAN_POINT('',(8.284271247462E-02,2.5,6.1E-16));
#431 = CARTESIAN_POINT('',(1.91E-15,-2.582842712475,-3.2E-16));
#432 = CARTESIAN_POINT('',(1.91E-15,-2.582842712475,5.165685424949));
#433 = CARTESIAN_POINT('',(1.66E-15,2.582842712475,5.165685424949));
#434 = CARTESIAN_POINT('',(1.66E-15,2.582842712475,6.3E-16));
#435 = CARTESIAN_POINT('',(2.63E-15,-2.7,-3.3E-16));
#436 = CARTESIAN_POINT('',(2.63E-15,-2.7,5.4));
#437 = CARTESIAN_POINT('',(2.36E-15,2.7,5.4));
#438 = CARTESIAN_POINT('',(2.36E-15,2.7,6.6E-16));
#439 = ADVANCED_FACE('',(#440),#453,.T.);
#440 = FACE_BOUND('',#441,.T.);
#441 = EDGE_LOOP('',(#442,#443,#450,#451,#452));
#442 = ORIENTED_EDGE('',*,*,#247,.F.);
#443 = ORIENTED_EDGE('',*,*,#444,.T.);
#444 = EDGE_CURVE('',#239,#237,#445,.T.);
#445 = CIRCLE('',#446,1.999999999953);
#446 = AXIS2_PLACEMENT_3D('',#447,#448,#449);
#447 = CARTESIAN_POINT('',(45.200000000023,8.7E-16,0.));
#448 = DIRECTION('',(-1.,0.,0.));
#449 = DIRECTION('',(0.,0.,1.));
#450 = ORIENTED_EDGE('',*,*,#263,.T.);
#451 = ORIENTED_EDGE('',*,*,#221,.F.);
#452 = ORIENTED_EDGE('',*,*,#362,.F.);
#453 = CONICAL_SURFACE('',#454,2.499999999884,0.785398163397);
#454 = AXIS2_PLACEMENT_3D('',#455,#456,#457);
#455 = CARTESIAN_POINT('',(44.700000000091,8.7E-16,0.));
#456 = DIRECTION('',(-1.,0.,0.));
#457 = DIRECTION('',(0.,0.,1.));
#458 = ADVANCED_FACE('',(#459,#463),#473,.F.);
#459 = FACE_BOUND('',#460,.T.);
#460 = EDGE_LOOP('',(#461,#462));
#461 = ORIENTED_EDGE('',*,*,#54,.T.);
#462 = ORIENTED_EDGE('',*,*,#379,.T.);
#463 = FACE_BOUND('',#464,.T.);
#464 = EDGE_LOOP('',(#465,#466));
#465 = ORIENTED_EDGE('',*,*,#277,.F.);
#466 = ORIENTED_EDGE('',*,*,#467,.F.);
#467 = EDGE_CURVE('',#280,#278,#468,.T.);
#468 = CIRCLE('',#469,4.25);
#469 = AXIS2_PLACEMENT_3D('',#470,#471,#472);
#470 = CARTESIAN_POINT('',(3.25E-15,-3.9E-16,0.));
#471 = DIRECTION('',(-1.,-5.E-17,0.));
#472 = DIRECTION('',(5.E-17,-1.,0.));
#473 = PLANE('',#474);
#474 = AXIS2_PLACEMENT_3D('',#475,#476,#477);
#475 = CARTESIAN_POINT('',(2.31E-15,4.25,0.));
#476 = DIRECTION('',(-1.,-5.E-17,0.));
#477 = DIRECTION('',(5.E-17,-1.,0.));
#478 = ADVANCED_FACE('',(#479),#483,.F.);
#479 = FACE_BOUND('',#480,.T.);
#480 = EDGE_LOOP('',(#481,#482));
#481 = ORIENTED_EDGE('',*,*,#236,.F.);
#482 = ORIENTED_EDGE('',*,*,#444,.F.);
#483 = PLANE('',#484);
#484 = AXIS2_PLACEMENT_3D('',#485,#486,#487);
#485 = CARTESIAN_POINT('',(45.2,9.6E-16,0.));
#486 = DIRECTION('',(-1.,0.,0.));
#487 = DIRECTION('',(0.,0.,1.));
#488 = ADVANCED_FACE('',(#489),#501,.T.);
#489 = FACE_BOUND('',#490,.T.);
#490 = EDGE_LOOP('',(#491,#492,#493,#494));
#491 = ORIENTED_EDGE('',*,*,#288,.F.);
#492 = ORIENTED_EDGE('',*,*,#467,.T.);
#493 = ORIENTED_EDGE('',*,*,#295,.T.);
#494 = ORIENTED_EDGE('',*,*,#495,.T.);
#495 = EDGE_CURVE('',#145,#154,#496,.T.);
#496 = CIRCLE('',#497,4.25);
#497 = AXIS2_PLACEMENT_3D('',#498,#499,#500);
#498 = CARTESIAN_POINT('',(-4.5,-6.1E-16,0.));
#499 = DIRECTION('',(1.,5.E-17,0.));
#500 = DIRECTION('',(5.E-17,-1.,0.));
#501 = CYLINDRICAL_SURFACE('',#502,4.25);
#502 = AXIS2_PLACEMENT_3D('',#503,#504,#505);
#503 = CARTESIAN_POINT('',(-1.177001858152,-4.5E-16,0.));
#504 = DIRECTION('',(-1.,-5.E-17,0.));
#505 = DIRECTION('',(5.E-17,-1.,0.));
#506 = ADVANCED_FACE('',(#507),#519,.T.);
#507 = FACE_BOUND('',#508,.T.);
#508 = EDGE_LOOP('',(#509,#510,#517,#518));
#509 = ORIENTED_EDGE('',*,*,#144,.F.);
#510 = ORIENTED_EDGE('',*,*,#511,.T.);
#511 = EDGE_CURVE('',#136,#134,#512,.T.);
#512 = ( BOUNDED_CURVE() B_SPLINE_CURVE(3,(#513,#514,#515,#516),
.UNSPECIFIED.,.F.,.F.) B_SPLINE_CURVE_WITH_KNOTS((4,4),(0.,1.),
.PIECEWISE_BEZIER_KNOTS.) CURVE() GEOMETRIC_REPRESENTATION_ITEM() 
RATIONAL_B_SPLINE_CURVE((1.,0.333333333333,0.333333333333,1.)) 
REPRESENTATION_ITEM('') );
#513 = CARTESIAN_POINT('',(-5.,-3.75,-2.8E-16));
#514 = CARTESIAN_POINT('',(-5.,-3.75,-7.5));
#515 = CARTESIAN_POINT('',(-5.,3.75,-7.5));
#516 = CARTESIAN_POINT('',(-5.,3.75,2.E-16));
#517 = ORIENTED_EDGE('',*,*,#162,.T.);
#518 = ORIENTED_EDGE('',*,*,#495,.F.);
#519 = ( BOUNDED_SURFACE() B_SPLINE_SURFACE(3,3,(
    (#520,#521,#522,#523)
    ,(#524,#525,#526,#527)
    ,(#528,#529,#530,#531)
    ,(#532,#533,#534,#535
)),.UNSPECIFIED.,.F.,.F.,.F.) B_SPLINE_SURFACE_WITH_KNOTS((4,4),(4,4),(
    0.,1.),(0.,1.),.PIECEWISE_BEZIER_KNOTS.) 
GEOMETRIC_REPRESENTATION_ITEM() RATIONAL_B_SPLINE_SURFACE((
    (1.,0.333333333333,0.333333333333,1.)
    ,(0.804737854124,0.268245951375,0.268245951375,0.804737854124)
    ,(0.804737854124,0.268245951375,0.268245951375,0.804737854124)
,(1.,0.333333333333,0.333333333333,1.
))) REPRESENTATION_ITEM('') SURFACE() );
#520 = CARTESIAN_POINT('',(-5.,3.75,4.6E-16));
#521 = CARTESIAN_POINT('',(-5.,3.75,-7.5));
#522 = CARTESIAN_POINT('',(-5.,-3.75,-7.5));
#523 = CARTESIAN_POINT('',(-5.,-3.75,-9.2E-16));
#524 = CARTESIAN_POINT('',(-5.,4.042893218813,5.E-16));
#525 = CARTESIAN_POINT('',(-5.,4.042893218813,-8.085786437627));
#526 = CARTESIAN_POINT('',(-5.,-4.042893218813,-8.085786437627));
#527 = CARTESIAN_POINT('',(-5.,-4.042893218813,-9.9E-16));
#528 = CARTESIAN_POINT('',(-4.792893218813,4.25,5.2E-16));
#529 = CARTESIAN_POINT('',(-4.792893218813,4.25,-8.5));
#530 = CARTESIAN_POINT('',(-4.792893218813,-4.25,-8.5));
#531 = CARTESIAN_POINT('',(-4.792893218813,-4.25,-1.04E-15));
#532 = CARTESIAN_POINT('',(-4.5,4.25,5.2E-16));
#533 = CARTESIAN_POINT('',(-4.5,4.25,-8.5));
#534 = CARTESIAN_POINT('',(-4.5,-4.25,-8.5));
#535 = CARTESIAN_POINT('',(-4.5,-4.25,-1.04E-15));
#536 = ADVANCED_FACE('',(#537,#541),#591,.F.);
#537 = FACE_BOUND('',#538,.T.);
#538 = EDGE_LOOP('',(#539,#540));
#539 = ORIENTED_EDGE('',*,*,#511,.F.);
#540 = ORIENTED_EDGE('',*,*,#133,.F.);
#541 = FACE_BOUND('',#542,.T.);
#542 = EDGE_LOOP('',(#543,#553,#561,#569,#577,#585));
#543 = ORIENTED_EDGE('',*,*,#544,.F.);
#544 = EDGE_CURVE('',#545,#547,#549,.T.);
#545 = VERTEX_POINT('',#546);
#546 = CARTESIAN_POINT('',(-5.,-1.14575,-1.984497212772));
#547 = VERTEX_POINT('',#548);
#548 = CARTESIAN_POINT('',(-5.,-2.2915,1.E-15));
#549 = LINE('',#550,#551);
#550 = CARTESIAN_POINT('',(-5.,-1.14575,-1.984497212772));
#551 = VECTOR('',#552,1.);
#552 = DIRECTION('',(0.,-0.5,0.866025403784));
#553 = ORIENTED_EDGE('',*,*,#554,.F.);
#554 = EDGE_CURVE('',#555,#545,#557,.T.);
#555 = VERTEX_POINT('',#556);
#556 = CARTESIAN_POINT('',(-5.,1.14575,-1.984497212772));
#557 = LINE('',#558,#559);
#558 = CARTESIAN_POINT('',(-5.,2.2915,-1.984497212772));
#559 = VECTOR('',#560,1.);
#560 = DIRECTION('',(5.E-17,-1.,-0.));
#561 = ORIENTED_EDGE('',*,*,#562,.F.);
#562 = EDGE_CURVE('',#563,#555,#565,.T.);
#563 = VERTEX_POINT('',#564);
#564 = CARTESIAN_POINT('',(-5.,2.2915,1.E-15));
#565 = LINE('',#566,#567);
#566 = CARTESIAN_POINT('',(-5.,2.2915,2.39E-15));
#567 = VECTOR('',#568,1.);
#568 = DIRECTION('',(0.,-0.5,-0.866025403784));
#569 = ORIENTED_EDGE('',*,*,#570,.F.);
#570 = EDGE_CURVE('',#571,#563,#573,.T.);
#571 = VERTEX_POINT('',#572);
#572 = CARTESIAN_POINT('',(-5.,1.14575,1.984497212772));
#573 = LINE('',#574,#575);
#574 = CARTESIAN_POINT('',(-5.,1.14575,1.984497212772));
#575 = VECTOR('',#576,1.);
#576 = DIRECTION('',(0.,0.5,-0.866025403784));
#577 = ORIENTED_EDGE('',*,*,#578,.F.);
#578 = EDGE_CURVE('',#579,#571,#581,.T.);
#579 = VERTEX_POINT('',#580);
#580 = CARTESIAN_POINT('',(-5.,-1.14575,1.984497212772));
#581 = LINE('',#582,#583);
#582 = CARTESIAN_POINT('',(-5.,2.2915,1.984497212772));
#583 = VECTOR('',#584,1.);
#584 = DIRECTION('',(-5.E-17,1.,0.));
#585 = ORIENTED_EDGE('',*,*,#586,.F.);
#586 = EDGE_CURVE('',#547,#579,#587,.T.);
#587 = LINE('',#588,#589);
#588 = CARTESIAN_POINT('',(-5.,-2.2915,0.));
#589 = VECTOR('',#590,1.);
#590 = DIRECTION('',(0.,0.5,0.866025403784));
#591 = PLANE('',#592);
#592 = AXIS2_PLACEMENT_3D('',#593,#594,#595);
#593 = CARTESIAN_POINT('',(-5.,2.2915,0.));
#594 = DIRECTION('',(1.,5.E-17,0.));
#595 = DIRECTION('',(-5.E-17,1.,0.));
#596 = ADVANCED_FACE('',(#597),#620,.F.);
#597 = FACE_BOUND('',#598,.T.);
#598 = EDGE_LOOP('',(#599,#607,#613,#619));
#599 = ORIENTED_EDGE('',*,*,#600,.F.);
#600 = EDGE_CURVE('',#601,#579,#603,.T.);
#601 = VERTEX_POINT('',#602);
#602 = CARTESIAN_POINT('',(-2.499999999941,-1.145749999978,
    1.984497212734));
#603 = LINE('',#604,#605);
#604 = CARTESIAN_POINT('',(-2.5,-1.14575,1.984497212772));
#605 = VECTOR('',#606,1.);
#606 = DIRECTION('',(-1.,-0.,0.));
#607 = ORIENTED_EDGE('',*,*,#608,.F.);
#608 = EDGE_CURVE('',#312,#601,#609,.T.);
#609 = LINE('',#610,#611);
#610 = CARTESIAN_POINT('',(-2.5,-2.2915,3.47E-15));
#611 = VECTOR('',#612,1.);
#612 = DIRECTION('',(-0.,0.5,0.866025403784));
#613 = ORIENTED_EDGE('',*,*,#614,.F.);
#614 = EDGE_CURVE('',#547,#312,#615,.T.);
#615 = LINE('',#616,#617);
#616 = CARTESIAN_POINT('',(-2.5,-2.2915,9.5E-16));
#617 = VECTOR('',#618,1.);
#618 = DIRECTION('',(1.,0.,-0.));
#619 = ORIENTED_EDGE('',*,*,#586,.T.);
#620 = PLANE('',#621);
#621 = AXIS2_PLACEMENT_3D('',#622,#623,#624);
#622 = CARTESIAN_POINT('',(-2.5,-2.2915,3.47E-15));
#623 = DIRECTION('',(0.,-0.866025403784,0.5));
#624 = DIRECTION('',(-0.,-0.5,-0.866025403784));
#625 = ADVANCED_FACE('',(#626),#642,.F.);
#626 = FACE_BOUND('',#627,.T.);
#627 = EDGE_LOOP('',(#628,#629,#635,#641));
#628 = ORIENTED_EDGE('',*,*,#614,.T.);
#629 = ORIENTED_EDGE('',*,*,#630,.F.);
#630 = EDGE_CURVE('',#310,#312,#631,.T.);
#631 = LINE('',#632,#633);
#632 = CARTESIAN_POINT('',(-2.5,-1.14575,-1.984497212772));
#633 = VECTOR('',#634,1.);
#634 = DIRECTION('',(-0.,-0.5,0.866025403784));
#635 = ORIENTED_EDGE('',*,*,#636,.F.);
#636 = EDGE_CURVE('',#545,#310,#637,.T.);
#637 = LINE('',#638,#639);
#638 = CARTESIAN_POINT('',(-2.5,-1.14575,-1.984497212772));
#639 = VECTOR('',#640,1.);
#640 = DIRECTION('',(1.,0.,0.));
#641 = ORIENTED_EDGE('',*,*,#544,.T.);
#642 = PLANE('',#643);
#643 = AXIS2_PLACEMENT_3D('',#644,#645,#646);
#644 = CARTESIAN_POINT('',(-2.5,-1.14575,-1.984497212772));
#645 = DIRECTION('',(0.,-0.866025403784,-0.5));
#646 = DIRECTION('',(0.,0.5,-0.866025403784));
#647 = ADVANCED_FACE('',(#648),#664,.F.);
#648 = FACE_BOUND('',#649,.T.);
#649 = EDGE_LOOP('',(#650,#651,#657,#663));
#650 = ORIENTED_EDGE('',*,*,#636,.T.);
#651 = ORIENTED_EDGE('',*,*,#652,.F.);
#652 = EDGE_CURVE('',#321,#310,#653,.T.);
#653 = LINE('',#654,#655);
#654 = CARTESIAN_POINT('',(-2.5,1.14575,-1.984497212772));
#655 = VECTOR('',#656,1.);
#656 = DIRECTION('',(-0.,-1.,7.6E-16));
#657 = ORIENTED_EDGE('',*,*,#658,.F.);
#658 = EDGE_CURVE('',#555,#321,#659,.T.);
#659 = LINE('',#660,#661);
#660 = CARTESIAN_POINT('',(-2.5,1.14575,-1.984497212772));
#661 = VECTOR('',#662,1.);
#662 = DIRECTION('',(1.,0.,0.));
#663 = ORIENTED_EDGE('',*,*,#554,.T.);
#664 = PLANE('',#665);
#665 = AXIS2_PLACEMENT_3D('',#666,#667,#668);
#666 = CARTESIAN_POINT('',(-2.5,1.14575,-1.984497212772));
#667 = DIRECTION('',(0.,-7.6E-16,-1.));
#668 = DIRECTION('',(0.,1.,-7.6E-16));
#669 = ADVANCED_FACE('',(#670),#686,.F.);
#670 = FACE_BOUND('',#671,.T.);
#671 = EDGE_LOOP('',(#672,#673,#679,#685));
#672 = ORIENTED_EDGE('',*,*,#658,.T.);
#673 = ORIENTED_EDGE('',*,*,#674,.F.);
#674 = EDGE_CURVE('',#330,#321,#675,.T.);
#675 = LINE('',#676,#677);
#676 = CARTESIAN_POINT('',(-2.5,2.2915,0.));
#677 = VECTOR('',#678,1.);
#678 = DIRECTION('',(-0.,-0.5,-0.866025403784));
#679 = ORIENTED_EDGE('',*,*,#680,.F.);
#680 = EDGE_CURVE('',#563,#330,#681,.T.);
#681 = LINE('',#682,#683);
#682 = CARTESIAN_POINT('',(-2.5,2.2915,1.72E-15));
#683 = VECTOR('',#684,1.);
#684 = DIRECTION('',(1.,0.,-0.));
#685 = ORIENTED_EDGE('',*,*,#562,.T.);
#686 = PLANE('',#687);
#687 = AXIS2_PLACEMENT_3D('',#688,#689,#690);
#688 = CARTESIAN_POINT('',(-2.5,2.2915,0.));
#689 = DIRECTION('',(-0.,0.866025403784,-0.5));
#690 = DIRECTION('',(0.,0.5,0.866025403784));
#691 = ADVANCED_FACE('',(#692),#710,.F.);
#692 = FACE_BOUND('',#693,.T.);
#693 = EDGE_LOOP('',(#694,#695,#703,#709));
#694 = ORIENTED_EDGE('',*,*,#680,.T.);
#695 = ORIENTED_EDGE('',*,*,#696,.F.);
#696 = EDGE_CURVE('',#697,#330,#699,.T.);
#697 = VERTEX_POINT('',#698);
#698 = CARTESIAN_POINT('',(-2.499999999941,1.145749999978,1.984497212734
    ));
#699 = LINE('',#700,#701);
#700 = CARTESIAN_POINT('',(-2.5,1.14575,1.984497212772));
#701 = VECTOR('',#702,1.);
#702 = DIRECTION('',(-0.,0.5,-0.866025403784));
#703 = ORIENTED_EDGE('',*,*,#704,.F.);
#704 = EDGE_CURVE('',#571,#697,#705,.T.);
#705 = LINE('',#706,#707);
#706 = CARTESIAN_POINT('',(-2.5,1.14575,1.984497212772));
#707 = VECTOR('',#708,1.);
#708 = DIRECTION('',(1.,0.,0.));
#709 = ORIENTED_EDGE('',*,*,#570,.T.);
#710 = PLANE('',#711);
#711 = AXIS2_PLACEMENT_3D('',#712,#713,#714);
#712 = CARTESIAN_POINT('',(-2.5,1.14575,1.984497212772));
#713 = DIRECTION('',(-0.,0.866025403784,0.5));
#714 = DIRECTION('',(-0.,-0.5,0.866025403784));
#715 = ADVANCED_FACE('',(#716),#727,.F.);
#716 = FACE_BOUND('',#717,.T.);
#717 = EDGE_LOOP('',(#718,#719,#725,#726));
#718 = ORIENTED_EDGE('',*,*,#704,.T.);
#719 = ORIENTED_EDGE('',*,*,#720,.F.);
#720 = EDGE_CURVE('',#601,#697,#721,.T.);
#721 = LINE('',#722,#723);
#722 = CARTESIAN_POINT('',(-2.5,-1.14575,1.984497212772));
#723 = VECTOR('',#724,1.);
#724 = DIRECTION('',(-0.,1.,-7.6E-16));
#725 = ORIENTED_EDGE('',*,*,#600,.T.);
#726 = ORIENTED_EDGE('',*,*,#578,.T.);
#727 = PLANE('',#728);
#728 = AXIS2_PLACEMENT_3D('',#729,#730,#731);
#729 = CARTESIAN_POINT('',(-2.5,-1.14575,1.984497212772));
#730 = DIRECTION('',(-0.,7.6E-16,1.));
#731 = DIRECTION('',(0.,-1.,7.6E-16));
#732 = ADVANCED_FACE('',(#733),#743,.F.);
#733 = FACE_BOUND('',#734,.T.);
#734 = EDGE_LOOP('',(#735,#742));
#735 = ORIENTED_EDGE('',*,*,#736,.F.);
#736 = EDGE_CURVE('',#312,#601,#737,.T.);
#737 = CIRCLE('',#738,2.291499999956);
#738 = AXIS2_PLACEMENT_3D('',#739,#740,#741);
#739 = CARTESIAN_POINT('',(-2.499999999941,-6.5E-16,0.));
#740 = DIRECTION('',(-1.,-9.E-17,0.));
#741 = DIRECTION('',(9.E-17,-1.,0.));
#742 = ORIENTED_EDGE('',*,*,#608,.T.);
#743 = PLANE('',#744);
#744 = AXIS2_PLACEMENT_3D('',#745,#746,#747);
#745 = CARTESIAN_POINT('',(-2.5,-2.5E-16,0.));
#746 = DIRECTION('',(-1.,-0.,0.));
#747 = DIRECTION('',(0.,-1.,0.));
#748 = ADVANCED_FACE('',(#749),#753,.F.);
#749 = FACE_BOUND('',#750,.T.);
#750 = EDGE_LOOP('',(#751,#752));
#751 = ORIENTED_EDGE('',*,*,#309,.F.);
#752 = ORIENTED_EDGE('',*,*,#630,.T.);
#753 = PLANE('',#754);
#754 = AXIS2_PLACEMENT_3D('',#755,#756,#757);
#755 = CARTESIAN_POINT('',(-2.5,-2.5E-16,0.));
#756 = DIRECTION('',(-1.,-0.,0.));
#757 = DIRECTION('',(0.,-1.,0.));
#758 = ADVANCED_FACE('',(#759),#763,.F.);
#759 = FACE_BOUND('',#760,.T.);
#760 = EDGE_LOOP('',(#761,#762));
#761 = ORIENTED_EDGE('',*,*,#320,.F.);
#762 = ORIENTED_EDGE('',*,*,#652,.T.);
#763 = PLANE('',#764);
#764 = AXIS2_PLACEMENT_3D('',#765,#766,#767);
#765 = CARTESIAN_POINT('',(-2.5,-2.5E-16,0.));
#766 = DIRECTION('',(-1.,-0.,0.));
#767 = DIRECTION('',(0.,-1.,0.));
#768 = ADVANCED_FACE('',(#769),#773,.F.);
#769 = FACE_BOUND('',#770,.T.);
#770 = EDGE_LOOP('',(#771,#772));
#771 = ORIENTED_EDGE('',*,*,#329,.F.);
#772 = ORIENTED_EDGE('',*,*,#674,.T.);
#773 = PLANE('',#774);
#774 = AXIS2_PLACEMENT_3D('',#775,#776,#777);
#775 = CARTESIAN_POINT('',(-2.5,-2.5E-16,0.));
#776 = DIRECTION('',(-1.,-0.,0.));
#777 = DIRECTION('',(0.,-1.,0.));
#778 = ADVANCED_FACE('',(#779),#789,.F.);
#779 = FACE_BOUND('',#780,.T.);
#780 = EDGE_LOOP('',(#781,#788));
#781 = ORIENTED_EDGE('',*,*,#782,.F.);
#782 = EDGE_CURVE('',#697,#330,#783,.T.);
#783 = CIRCLE('',#784,2.291499999956);
#784 = AXIS2_PLACEMENT_3D('',#785,#786,#787);
#785 = CARTESIAN_POINT('',(-2.499999999941,-6.5E-16,0.));
#786 = DIRECTION('',(-1.,-9.E-17,0.));
#787 = DIRECTION('',(9.E-17,-1.,0.));
#788 = ORIENTED_EDGE('',*,*,#696,.T.);
#789 = PLANE('',#790);
#790 = AXIS2_PLACEMENT_3D('',#791,#792,#793);
#791 = CARTESIAN_POINT('',(-2.5,-2.5E-16,0.));
#792 = DIRECTION('',(-1.,-0.,0.));
#793 = DIRECTION('',(0.,-1.,0.));
#794 = ADVANCED_FACE('',(#795),#805,.F.);
#795 = FACE_BOUND('',#796,.T.);
#796 = EDGE_LOOP('',(#797,#804));
#797 = ORIENTED_EDGE('',*,*,#798,.F.);
#798 = EDGE_CURVE('',#601,#697,#799,.T.);
#799 = CIRCLE('',#800,2.291499999956);
#800 = AXIS2_PLACEMENT_3D('',#801,#802,#803);
#801 = CARTESIAN_POINT('',(-2.499999999941,-6.5E-16,0.));
#802 = DIRECTION('',(-1.,-9.E-17,0.));
#803 = DIRECTION('',(9.E-17,-1.,0.));
#804 = ORIENTED_EDGE('',*,*,#720,.T.);
#805 = PLANE('',#806);
#806 = AXIS2_PLACEMENT_3D('',#807,#808,#809);
#807 = CARTESIAN_POINT('',(-2.5,-2.5E-16,0.));
#808 = DIRECTION('',(-1.,-0.,0.));
#809 = DIRECTION('',(0.,-1.,0.));
#810 = ADVANCED_FACE('',(#811),#818,.F.);
#811 = FACE_BOUND('',#812,.F.);
#812 = EDGE_LOOP('',(#813,#814,#815,#816,#817));
#813 = ORIENTED_EDGE('',*,*,#782,.F.);
#814 = ORIENTED_EDGE('',*,*,#798,.F.);
#815 = ORIENTED_EDGE('',*,*,#736,.F.);
#816 = ORIENTED_EDGE('',*,*,#346,.F.);
#817 = ORIENTED_EDGE('',*,*,#338,.T.);
#818 = CONICAL_SURFACE('',#819,2.291499999956,1.047197551134);
#819 = AXIS2_PLACEMENT_3D('',#820,#821,#822);
#820 = CARTESIAN_POINT('',(-2.499999999941,-6.5E-16,0.));
#821 = DIRECTION('',(-1.,-9.E-17,-0.));
#822 = DIRECTION('',(9.E-17,-1.,0.));
#823 = ( GEOMETRIC_REPRESENTATION_CONTEXT(3) 
GLOBAL_UNCERTAINTY_ASSIGNED_CONTEXT((#827)) GLOBAL_UNIT_ASSIGNED_CONTEXT
((#824,#825,#826)) REPRESENTATION_CONTEXT('Context #1',
  '3D Context with UNIT and UNCERTAINTY') );
#824 = ( LENGTH_UNIT() NAMED_UNIT(*) SI_UNIT(.MILLI.,.METRE.) );
#825 = ( NAMED_UNIT(*) PLANE_ANGLE_UNIT() SI_UNIT($,.RADIAN.) );
#826 = ( NAMED_UNIT(*) SI_UNIT($,.STERADIAN.) SOLID_ANGLE_UNIT() );
#827 = UNCERTAINTY_MEASURE_WITH_UNIT(LENGTH_MEASURE(2.E-05),#824,
  'distance_accuracy_value','confusion accuracy');
#828 = CONTEXT_DEPENDENT_SHAPE_REPRESENTATION(#829,#831);
#829 = ( REPRESENTATION_RELATIONSHIP('','',#36,#10) 
REPRESENTATION_RELATIONSHIP_WITH_TRANSFORMATION(#830) 
SHAPE_REPRESENTATION_RELATIONSHIP() );
#830 = ITEM_DEFINED_TRANSFORMATION('','',#11,#15);
#831 = PRODUCT_DEFINITION_SHAPE('Placement','Placement of an item',#832
  );
#832 = NEXT_ASSEMBLY_USAGE_OCCURRENCE('16',
  'M5X45 Socket Head Screw_Standard','',#5,#31,$);
#833 = PRODUCT_RELATED_PRODUCT_CATEGORY('part',$,(#33));
#834 = SHAPE_DEFINITION_REPRESENTATION(#835,#841);
#835 = PRODUCT_DEFINITION_SHAPE('','',#836);
#836 = PRODUCT_DEFINITION('design','',#837,#840);
#837 = PRODUCT_DEFINITION_FORMATION('','',#838);
#838 = PRODUCT('M5X45 Socket Head Screw_Standard001',
  'M5X45 Socket Head Screw_Standard001','',(#839));
#839 = PRODUCT_CONTEXT('',#2,'mechanical');
#840 = PRODUCT_DEFINITION_CONTEXT('part definition',#2,'design');
#841 = ADVANCED_BREP_SHAPE_REPRESENTATION('',(#11,#842),#1136);
#842 = MANIFOLD_SOLID_BREP('',#843);
#843 = CLOSED_SHELL('',(#844,#886,#919,#961,#994,#1036,#1061,#1078,#1103
    ,#1120));
#844 = ADVANCED_FACE('',(#845),#881,.T.);
#845 = FACE_BOUND('',#846,.T.);
#846 = EDGE_LOOP('',(#847,#858,#866,#875));
#847 = ORIENTED_EDGE('',*,*,#848,.T.);
#848 = EDGE_CURVE('',#849,#851,#853,.T.);
#849 = VERTEX_POINT('',#850);
#850 = CARTESIAN_POINT('',(1.2,-4.3,0.));
#851 = VERTEX_POINT('',#852);
#852 = CARTESIAN_POINT('',(1.2,4.3,1.E-15));
#853 = CIRCLE('',#854,4.3);
#854 = AXIS2_PLACEMENT_3D('',#855,#856,#857);
#855 = CARTESIAN_POINT('',(1.2,6.E-17,0.));
#856 = DIRECTION('',(-1.,-5.E-17,0.));
#857 = DIRECTION('',(5.E-17,-1.,0.));
#858 = ORIENTED_EDGE('',*,*,#859,.T.);
#859 = EDGE_CURVE('',#851,#860,#862,.T.);
#860 = VERTEX_POINT('',#861);
#861 = CARTESIAN_POINT('',(0.2,4.3,1.E-15));
#862 = LINE('',#863,#864);
#863 = CARTESIAN_POINT('',(1.2,4.3,5.3E-16));
#864 = VECTOR('',#865,1.);
#865 = DIRECTION('',(-1.,-5.E-17,-0.));
#866 = ORIENTED_EDGE('',*,*,#867,.T.);
#867 = EDGE_CURVE('',#860,#868,#870,.T.);
#868 = VERTEX_POINT('',#869);
#869 = CARTESIAN_POINT('',(0.2,-4.3,0.));
#870 = CIRCLE('',#871,4.3);
#871 = AXIS2_PLACEMENT_3D('',#872,#873,#874);
#872 = CARTESIAN_POINT('',(0.2,1.E-17,0.));
#873 = DIRECTION('',(1.,5.E-17,0.));
#874 = DIRECTION('',(5.E-17,-1.,0.));
#875 = ORIENTED_EDGE('',*,*,#876,.F.);
#876 = EDGE_CURVE('',#849,#868,#877,.T.);
#877 = LINE('',#878,#879);
#878 = CARTESIAN_POINT('',(1.2,-4.3,0.));
#879 = VECTOR('',#880,1.);
#880 = DIRECTION('',(-1.,-5.E-17,-0.));
#881 = CYLINDRICAL_SURFACE('',#882,4.3);
#882 = AXIS2_PLACEMENT_3D('',#883,#884,#885);
#883 = CARTESIAN_POINT('',(1.2,6.E-17,0.));
#884 = DIRECTION('',(-1.,-5.E-17,-0.));
#885 = DIRECTION('',(5.E-17,-1.,0.));
#886 = ADVANCED_FACE('',(#887),#914,.T.);
#887 = FACE_BOUND('',#888,.T.);
#888 = EDGE_LOOP('',(#889,#898,#899,#908));
#889 = ORIENTED_EDGE('',*,*,#890,.T.);
#890 = EDGE_CURVE('',#891,#849,#893,.T.);
#891 = VERTEX_POINT('',#892);
#892 = CARTESIAN_POINT('',(1.2,-0.63593269228,-4.252715557252));
#893 = CIRCLE('',#894,4.3);
#894 = AXIS2_PLACEMENT_3D('',#895,#896,#897);
#895 = CARTESIAN_POINT('',(1.2,6.E-17,0.));
#896 = DIRECTION('',(-1.,-5.E-17,0.));
#897 = DIRECTION('',(5.E-17,-1.,0.));
#898 = ORIENTED_EDGE('',*,*,#876,.T.);
#899 = ORIENTED_EDGE('',*,*,#900,.T.);
#900 = EDGE_CURVE('',#868,#901,#903,.T.);
#901 = VERTEX_POINT('',#902);
#902 = CARTESIAN_POINT('',(0.2,-0.63593269228,-4.252715557252));
#903 = CIRCLE('',#904,4.3);
#904 = AXIS2_PLACEMENT_3D('',#905,#906,#907);
#905 = CARTESIAN_POINT('',(0.2,1.E-17,0.));
#906 = DIRECTION('',(1.,5.E-17,0.));
#907 = DIRECTION('',(5.E-17,-1.,0.));
#908 = ORIENTED_EDGE('',*,*,#909,.T.);
#909 = EDGE_CURVE('',#901,#891,#910,.T.);
#910 = LINE('',#911,#912);
#911 = CARTESIAN_POINT('',(1.2,-0.63593269228,-4.252715557252));
#912 = VECTOR('',#913,1.);
#913 = DIRECTION('',(1.,5.E-17,0.));
#914 = CYLINDRICAL_SURFACE('',#915,4.3);
#915 = AXIS2_PLACEMENT_3D('',#916,#917,#918);
#916 = CARTESIAN_POINT('',(1.2,6.E-17,0.));
#917 = DIRECTION('',(-1.,-5.E-17,-0.));
#918 = DIRECTION('',(5.E-17,-1.,0.));
#919 = ADVANCED_FACE('',(#920),#956,.F.);
#920 = FACE_BOUND('',#921,.F.);
#921 = EDGE_LOOP('',(#922,#932,#941,#949));
#922 = ORIENTED_EDGE('',*,*,#923,.F.);
#923 = EDGE_CURVE('',#924,#926,#928,.T.);
#924 = VERTEX_POINT('',#925);
#925 = CARTESIAN_POINT('',(0.2,0.37443104382,-2.724390095677));
#926 = VERTEX_POINT('',#927);
#927 = CARTESIAN_POINT('',(1.2,0.37443104382,-2.724390095677));
#928 = LINE('',#929,#930);
#929 = CARTESIAN_POINT('',(1.2,0.37443104382,-2.724390095677));
#930 = VECTOR('',#931,1.);
#931 = DIRECTION('',(1.,5.E-17,-0.));
#932 = ORIENTED_EDGE('',*,*,#933,.F.);
#933 = EDGE_CURVE('',#934,#924,#936,.T.);
#934 = VERTEX_POINT('',#935);
#935 = CARTESIAN_POINT('',(0.2,2.75,0.));
#936 = CIRCLE('',#937,2.75);
#937 = AXIS2_PLACEMENT_3D('',#938,#939,#940);
#938 = CARTESIAN_POINT('',(0.2,1.E-17,0.));
#939 = DIRECTION('',(-1.,-5.E-17,0.));
#940 = DIRECTION('',(5.E-17,-1.,0.));
#941 = ORIENTED_EDGE('',*,*,#942,.F.);
#942 = EDGE_CURVE('',#943,#934,#945,.T.);
#943 = VERTEX_POINT('',#944);
#944 = CARTESIAN_POINT('',(1.2,2.75,0.));
#945 = LINE('',#946,#947);
#946 = CARTESIAN_POINT('',(1.2,2.75,3.4E-16));
#947 = VECTOR('',#948,1.);
#948 = DIRECTION('',(-1.,-5.E-17,-0.));
#949 = ORIENTED_EDGE('',*,*,#950,.T.);
#950 = EDGE_CURVE('',#943,#926,#951,.T.);
#951 = CIRCLE('',#952,2.75);
#952 = AXIS2_PLACEMENT_3D('',#953,#954,#955);
#953 = CARTESIAN_POINT('',(1.2,6.E-17,0.));
#954 = DIRECTION('',(-1.,-5.E-17,0.));
#955 = DIRECTION('',(5.E-17,-1.,0.));
#956 = CYLINDRICAL_SURFACE('',#957,2.75);
#957 = AXIS2_PLACEMENT_3D('',#958,#959,#960);
#958 = CARTESIAN_POINT('',(1.2,6.E-17,0.));
#959 = DIRECTION('',(-1.,-5.E-17,-0.));
#960 = DIRECTION('',(5.E-17,-1.,0.));
#961 = ADVANCED_FACE('',(#962),#989,.F.);
#962 = FACE_BOUND('',#963,.F.);
#963 = EDGE_LOOP('',(#964,#973,#981,#988));
#964 = ORIENTED_EDGE('',*,*,#965,.F.);
#965 = EDGE_CURVE('',#966,#934,#968,.T.);
#966 = VERTEX_POINT('',#967);
#967 = CARTESIAN_POINT('',(0.2,-2.75,0.));
#968 = CIRCLE('',#969,2.75);
#969 = AXIS2_PLACEMENT_3D('',#970,#971,#972);
#970 = CARTESIAN_POINT('',(0.2,1.E-17,0.));
#971 = DIRECTION('',(-1.,-5.E-17,0.));
#972 = DIRECTION('',(5.E-17,-1.,0.));
#973 = ORIENTED_EDGE('',*,*,#974,.F.);
#974 = EDGE_CURVE('',#975,#966,#977,.T.);
#975 = VERTEX_POINT('',#976);
#976 = CARTESIAN_POINT('',(1.2,-2.75,0.));
#977 = LINE('',#978,#979);
#978 = CARTESIAN_POINT('',(1.2,-2.75,0.));
#979 = VECTOR('',#980,1.);
#980 = DIRECTION('',(-1.,-5.E-17,-0.));
#981 = ORIENTED_EDGE('',*,*,#982,.T.);
#982 = EDGE_CURVE('',#975,#943,#983,.T.);
#983 = CIRCLE('',#984,2.75);
#984 = AXIS2_PLACEMENT_3D('',#985,#986,#987);
#985 = CARTESIAN_POINT('',(1.2,6.E-17,0.));
#986 = DIRECTION('',(-1.,-5.E-17,0.));
#987 = DIRECTION('',(5.E-17,-1.,0.));
#988 = ORIENTED_EDGE('',*,*,#942,.T.);
#989 = CYLINDRICAL_SURFACE('',#990,2.75);
#990 = AXIS2_PLACEMENT_3D('',#991,#992,#993);
#991 = CARTESIAN_POINT('',(1.2,6.E-17,0.));
#992 = DIRECTION('',(-1.,-5.E-17,-0.));
#993 = DIRECTION('',(5.E-17,-1.,0.));
#994 = ADVANCED_FACE('',(#995),#1031,.F.);
#995 = FACE_BOUND('',#996,.T.);
#996 = EDGE_LOOP('',(#997,#1005,#1006,#1007,#1016,#1022,#1023,#1024));
#997 = ORIENTED_EDGE('',*,*,#998,.F.);
#998 = EDGE_CURVE('',#924,#999,#1001,.T.);
#999 = VERTEX_POINT('',#1000);
#1000 = CARTESIAN_POINT('',(0.2,0.37443104382,-4.283666816341));
#1001 = LINE('',#1002,#1003);
#1002 = CARTESIAN_POINT('',(0.2,0.37443104382,0.));
#1003 = VECTOR('',#1004,1.);
#1004 = DIRECTION('',(-0.,-0.,-1.));
#1005 = ORIENTED_EDGE('',*,*,#933,.F.);
#1006 = ORIENTED_EDGE('',*,*,#965,.F.);
#1007 = ORIENTED_EDGE('',*,*,#1008,.F.);
#1008 = EDGE_CURVE('',#1009,#966,#1011,.T.);
#1009 = VERTEX_POINT('',#1010);
#1010 = CARTESIAN_POINT('',(0.2,-0.63593269228,-2.675460635272));
#1011 = CIRCLE('',#1012,2.75);
#1012 = AXIS2_PLACEMENT_3D('',#1013,#1014,#1015);
#1013 = CARTESIAN_POINT('',(0.2,1.E-17,0.));
#1014 = DIRECTION('',(-1.,-5.E-17,0.));
#1015 = DIRECTION('',(5.E-17,-1.,0.));
#1016 = ORIENTED_EDGE('',*,*,#1017,.F.);
#1017 = EDGE_CURVE('',#901,#1009,#1018,.T.);
#1018 = LINE('',#1019,#1020);
#1019 = CARTESIAN_POINT('',(0.2,-0.63593269228,0.));
#1020 = VECTOR('',#1021,1.);
#1021 = DIRECTION('',(0.,0.,1.));
#1022 = ORIENTED_EDGE('',*,*,#900,.F.);
#1023 = ORIENTED_EDGE('',*,*,#867,.F.);
#1024 = ORIENTED_EDGE('',*,*,#1025,.F.);
#1025 = EDGE_CURVE('',#999,#860,#1026,.T.);
#1026 = CIRCLE('',#1027,4.3);
#1027 = AXIS2_PLACEMENT_3D('',#1028,#1029,#1030);
#1028 = CARTESIAN_POINT('',(0.2,1.E-17,0.));
#1029 = DIRECTION('',(1.,5.E-17,0.));
#1030 = DIRECTION('',(5.E-17,-1.,0.));
#1031 = PLANE('',#1032);
#1032 = AXIS2_PLACEMENT_3D('',#1033,#1034,#1035);
#1033 = CARTESIAN_POINT('',(0.2,1.E-17,0.));
#1034 = DIRECTION('',(1.,5.E-17,-0.));
#1035 = DIRECTION('',(-5.E-17,1.,0.));
#1036 = ADVANCED_FACE('',(#1037),#1056,.T.);
#1037 = FACE_BOUND('',#1038,.T.);
#1038 = EDGE_LOOP('',(#1039,#1040,#1049,#1055));
#1039 = ORIENTED_EDGE('',*,*,#859,.F.);
#1040 = ORIENTED_EDGE('',*,*,#1041,.T.);
#1041 = EDGE_CURVE('',#851,#1042,#1044,.T.);
#1042 = VERTEX_POINT('',#1043);
#1043 = CARTESIAN_POINT('',(1.2,0.37443104382,-4.283666816341));
#1044 = CIRCLE('',#1045,4.3);
#1045 = AXIS2_PLACEMENT_3D('',#1046,#1047,#1048);
#1046 = CARTESIAN_POINT('',(1.2,6.E-17,0.));
#1047 = DIRECTION('',(-1.,-5.E-17,0.));
#1048 = DIRECTION('',(5.E-17,-1.,0.));
#1049 = ORIENTED_EDGE('',*,*,#1050,.T.);
#1050 = EDGE_CURVE('',#1042,#999,#1051,.T.);
#1051 = LINE('',#1052,#1053);
#1052 = CARTESIAN_POINT('',(1.2,0.37443104382,-4.283666816341));
#1053 = VECTOR('',#1054,1.);
#1054 = DIRECTION('',(-1.,-5.E-17,-0.));
#1055 = ORIENTED_EDGE('',*,*,#1025,.T.);
#1056 = CYLINDRICAL_SURFACE('',#1057,4.3);
#1057 = AXIS2_PLACEMENT_3D('',#1058,#1059,#1060);
#1058 = CARTESIAN_POINT('',(1.2,6.E-17,0.));
#1059 = DIRECTION('',(-1.,-5.E-17,-0.));
#1060 = DIRECTION('',(5.E-17,-1.,0.));
#1061 = ADVANCED_FACE('',(#1062),#1073,.F.);
#1062 = FACE_BOUND('',#1063,.T.);
#1063 = EDGE_LOOP('',(#1064,#1065,#1071,#1072));
#1064 = ORIENTED_EDGE('',*,*,#1050,.F.);
#1065 = ORIENTED_EDGE('',*,*,#1066,.F.);
#1066 = EDGE_CURVE('',#926,#1042,#1067,.T.);
#1067 = LINE('',#1068,#1069);
#1068 = CARTESIAN_POINT('',(1.2,0.37443104382,-2.724390095677));
#1069 = VECTOR('',#1070,1.);
#1070 = DIRECTION('',(-0.,-0.,-1.));
#1071 = ORIENTED_EDGE('',*,*,#923,.F.);
#1072 = ORIENTED_EDGE('',*,*,#998,.T.);
#1073 = PLANE('',#1074);
#1074 = AXIS2_PLACEMENT_3D('',#1075,#1076,#1077);
#1075 = CARTESIAN_POINT('',(1.2,0.37443104382,-2.724390095677));
#1076 = DIRECTION('',(-5.E-17,1.,0.));
#1077 = DIRECTION('',(-1.,-5.E-17,0.));
#1078 = ADVANCED_FACE('',(#1079),#1098,.F.);
#1079 = FACE_BOUND('',#1080,.F.);
#1080 = EDGE_LOOP('',(#1081,#1082,#1090,#1097));
#1081 = ORIENTED_EDGE('',*,*,#1008,.F.);
#1082 = ORIENTED_EDGE('',*,*,#1083,.T.);
#1083 = EDGE_CURVE('',#1009,#1084,#1086,.T.);
#1084 = VERTEX_POINT('',#1085);
#1085 = CARTESIAN_POINT('',(1.2,-0.63593269228,-2.675460635272));
#1086 = LINE('',#1087,#1088);
#1087 = CARTESIAN_POINT('',(1.2,-0.63593269228,-2.675460635272));
#1088 = VECTOR('',#1089,1.);
#1089 = DIRECTION('',(1.,5.E-17,0.));
#1090 = ORIENTED_EDGE('',*,*,#1091,.T.);
#1091 = EDGE_CURVE('',#1084,#975,#1092,.T.);
#1092 = CIRCLE('',#1093,2.75);
#1093 = AXIS2_PLACEMENT_3D('',#1094,#1095,#1096);
#1094 = CARTESIAN_POINT('',(1.2,6.E-17,0.));
#1095 = DIRECTION('',(-1.,-5.E-17,0.));
#1096 = DIRECTION('',(5.E-17,-1.,0.));
#1097 = ORIENTED_EDGE('',*,*,#974,.T.);
#1098 = CYLINDRICAL_SURFACE('',#1099,2.75);
#1099 = AXIS2_PLACEMENT_3D('',#1100,#1101,#1102);
#1100 = CARTESIAN_POINT('',(1.2,6.E-17,0.));
#1101 = DIRECTION('',(-1.,-5.E-17,-0.));
#1102 = DIRECTION('',(5.E-17,-1.,0.));
#1103 = ADVANCED_FACE('',(#1104),#1115,.F.);
#1104 = FACE_BOUND('',#1105,.T.);
#1105 = EDGE_LOOP('',(#1106,#1107,#1113,#1114));
#1106 = ORIENTED_EDGE('',*,*,#1083,.T.);
#1107 = ORIENTED_EDGE('',*,*,#1108,.F.);
#1108 = EDGE_CURVE('',#891,#1084,#1109,.T.);
#1109 = LINE('',#1110,#1111);
#1110 = CARTESIAN_POINT('',(1.2,-0.63593269228,-2.675460635272));
#1111 = VECTOR('',#1112,1.);
#1112 = DIRECTION('',(-0.,0.,1.));
#1113 = ORIENTED_EDGE('',*,*,#909,.F.);
#1114 = ORIENTED_EDGE('',*,*,#1017,.T.);
#1115 = PLANE('',#1116);
#1116 = AXIS2_PLACEMENT_3D('',#1117,#1118,#1119);
#1117 = CARTESIAN_POINT('',(1.2,-0.63593269228,-2.675460635272));
#1118 = DIRECTION('',(5.E-17,-1.,0.));
#1119 = DIRECTION('',(1.,5.E-17,0.));
#1120 = ADVANCED_FACE('',(#1121),#1131,.T.);
#1121 = FACE_BOUND('',#1122,.T.);
#1122 = EDGE_LOOP('',(#1123,#1124,#1125,#1126,#1127,#1128,#1129,#1130));
#1123 = ORIENTED_EDGE('',*,*,#1091,.T.);
#1124 = ORIENTED_EDGE('',*,*,#982,.T.);
#1125 = ORIENTED_EDGE('',*,*,#950,.T.);
#1126 = ORIENTED_EDGE('',*,*,#1066,.T.);
#1127 = ORIENTED_EDGE('',*,*,#1041,.F.);
#1128 = ORIENTED_EDGE('',*,*,#848,.F.);
#1129 = ORIENTED_EDGE('',*,*,#890,.F.);
#1130 = ORIENTED_EDGE('',*,*,#1108,.T.);
#1131 = PLANE('',#1132);
#1132 = AXIS2_PLACEMENT_3D('',#1133,#1134,#1135);
#1133 = CARTESIAN_POINT('',(1.2,6.E-17,0.));
#1134 = DIRECTION('',(1.,5.E-17,-0.));
#1135 = DIRECTION('',(-5.E-17,1.,0.));
#1136 = ( GEOMETRIC_REPRESENTATION_CONTEXT(3) 
GLOBAL_UNCERTAINTY_ASSIGNED_CONTEXT((#1140)) 
GLOBAL_UNIT_ASSIGNED_CONTEXT((#1137,#1138,#1139)) REPRESENTATION_CONTEXT
('Context #1','3D Context with UNIT and UNCERTAINTY') );
#1137 = ( LENGTH_UNIT() NAMED_UNIT(*) SI_UNIT(.MILLI.,.METRE.) );
#1138 = ( NAMED_UNIT(*) PLANE_ANGLE_UNIT() SI_UNIT($,.RADIAN.) );
#1139 = ( NAMED_UNIT(*) SI_UNIT($,.STERADIAN.) SOLID_ANGLE_UNIT() );
#1140 = UNCERTAINTY_MEASURE_WITH_UNIT(LENGTH_MEASURE(1.E-07),#1137,
  'distance_accuracy_value','confusion accuracy');
#1141 = CONTEXT_DEPENDENT_SHAPE_REPRESENTATION(#1142,#1144);
#1142 = ( REPRESENTATION_RELATIONSHIP('','',#841,#10) 
REPRESENTATION_RELATIONSHIP_WITH_TRANSFORMATION(#1143) 
SHAPE_REPRESENTATION_RELATIONSHIP() );
#1143 = ITEM_DEFINED_TRANSFORMATION('','',#11,#19);
#1144 = PRODUCT_DEFINITION_SHAPE('Placement','Placement of an item',
  #1145);
#1145 = NEXT_ASSEMBLY_USAGE_OCCURRENCE('17',
  'M5X45 Socket Head Screw_Standard001','',#5,#836,$);
#1146 = PRODUCT_RELATED_PRODUCT_CATEGORY('part',$,(#838));
#1147 = MECHANICAL_DESIGN_GEOMETRIC_PRESENTATION_REPRESENTATION('',(
    #1148),#823);
#1148 = STYLED_ITEM('color',(#1149),#37);
#1149 = PRESENTATION_STYLE_ASSIGNMENT((#1150,#1156));
#1150 = SURFACE_STYLE_USAGE(.BOTH.,#1151);
#1151 = SURFACE_SIDE_STYLE('',(#1152));
#1152 = SURFACE_STYLE_FILL_AREA(#1153);
#1153 = FILL_AREA_STYLE('',(#1154));
#1154 = FILL_AREA_STYLE_COLOUR('',#1155);
#1155 = COLOUR_RGB('',0.101960784187,0.101960784187,0.101960784187);
#1156 = CURVE_STYLE('',#1157,POSITIVE_LENGTH_MEASURE(0.1),#1158);
#1157 = DRAUGHTING_PRE_DEFINED_CURVE_FONT('continuous');
#1158 = COLOUR_RGB('',9.803921802644E-02,9.803921802644E-02,
  9.803921802644E-02);
#1159 = MECHANICAL_DESIGN_GEOMETRIC_PRESENTATION_REPRESENTATION('',(
    #1160),#1136);
#1160 = STYLED_ITEM('color',(#1161),#842);
#1161 = PRESENTATION_STYLE_ASSIGNMENT((#1162,#1167));
#1162 = SURFACE_STYLE_USAGE(.BOTH.,#1163);
#1163 = SURFACE_SIDE_STYLE('',(#1164));
#1164 = SURFACE_STYLE_FILL_AREA(#1165);
#1165 = FILL_AREA_STYLE('',(#1166));
#1166 = FILL_AREA_STYLE_COLOUR('',#1155);
#1167 = CURVE_STYLE('',#1168,POSITIVE_LENGTH_MEASURE(0.1),#1158);
#1168 = DRAUGHTING_PRE_DEFINED_CURVE_FONT('continuous');
ENDSEC;
END-ISO-10303-21;
