ISO-10303-21;
HEADER;
FILE_DESCRIPTION(('FreeCAD Model'),'2;1');
FILE_NAME('Open CASCADE Shape Model','2026-08-31T05:44:38',('Author'),(
    ''),'Open CASCADE STEP processor 7.9','FreeCAD','Unknown');
FILE_SCHEMA(('AUTOMOTIVE_DESIGN { 1 0 10303 214 1 1 1 1 }'));
ENDSEC;
DATA;
#1 = APPLICATION_PROTOCOL_DEFINITION('international standard',
  'automotive_design',2000,#2);
#2 = APPLICATION_CONTEXT(
  'core data for automotive mechanical design processes');
#3 = SHAPE_DEFINITION_REPRESENTATION(#4,#10);
#4 = PRODUCT_DEFINITION_SHAPE('','',#5);
#5 = PRODUCT_DEFINITION('design','',#6,#9);
#6 = PRODUCT_DEFINITION_FORMATION('','',#7);
#7 = PRODUCT('Body001','Body001','',(#8));
#8 = PRODUCT_CONTEXT('',#2,'mechanical');
#9 = PRODUCT_DEFINITION_CONTEXT('part definition',#2,'design');
#10 = ADVANCED_BREP_SHAPE_REPRESENTATION('',(#11,#15),#940);
#11 = AXIS2_PLACEMENT_3D('',#12,#13,#14);
#12 = CARTESIAN_POINT('',(0.,0.,0.));
#13 = DIRECTION('',(0.,0.,1.));
#14 = DIRECTION('',(1.,0.,-0.));
#15 = MANIFOLD_SOLID_BREP('',#16);
#16 = CLOSED_SHELL('',(#17,#49,#74,#226,#235,#298,#322,#346,#395,#420,
    #445,#477,#501,#526,#690,#715,#732,#757,#781,#806,#848,#865,#877,
    #894,#906,#931));
#17 = ADVANCED_FACE('',(#18),#44,.T.);
#18 = FACE_BOUND('',#19,.F.);
#19 = EDGE_LOOP('',(#20,#29,#36,#37));
#20 = ORIENTED_EDGE('',*,*,#21,.F.);
#21 = EDGE_CURVE('',#22,#24,#26,.T.);
#22 = VERTEX_POINT('',#23);
#23 = CARTESIAN_POINT('',(-13.1,-10.,18.));
#24 = VERTEX_POINT('',#25);
#25 = CARTESIAN_POINT('',(-13.1,-10.,5.));
#26 = B_SPLINE_CURVE_WITH_KNOTS('',1,(#27,#28),.UNSPECIFIED.,.F.,.F.,(2,
    2),(-14.,0.),.PIECEWISE_BEZIER_KNOTS.);
#27 = CARTESIAN_POINT('',(-13.1,-10.,19.));
#28 = CARTESIAN_POINT('',(-13.1,-10.,5.));
#29 = ORIENTED_EDGE('',*,*,#30,.T.);
#30 = EDGE_CURVE('',#22,#22,#31,.T.);
#31 = CIRCLE('',#32,2.4);
#32 = AXIS2_PLACEMENT_3D('',#33,#34,#35);
#33 = CARTESIAN_POINT('',(-15.5,-10.,18.));
#34 = DIRECTION('',(0.,0.,1.));
#35 = DIRECTION('',(1.,0.,-0.));
#36 = ORIENTED_EDGE('',*,*,#21,.T.);
#37 = ORIENTED_EDGE('',*,*,#38,.F.);
#38 = EDGE_CURVE('',#24,#24,#39,.T.);
#39 = CIRCLE('',#40,2.4);
#40 = AXIS2_PLACEMENT_3D('',#41,#42,#43);
#41 = CARTESIAN_POINT('',(-15.5,-10.,5.));
#42 = DIRECTION('',(0.,0.,1.));
#43 = DIRECTION('',(1.,0.,0.));
#44 = CYLINDRICAL_SURFACE('',#45,2.4);
#45 = AXIS2_PLACEMENT_3D('',#46,#47,#48);
#46 = CARTESIAN_POINT('',(-15.5,-10.,5.));
#47 = DIRECTION('',(-0.,-0.,-1.));
#48 = DIRECTION('',(1.,0.,0.));
#49 = ADVANCED_FACE('',(#50),#69,.T.);
#50 = FACE_BOUND('',#51,.T.);
#51 = EDGE_LOOP('',(#52,#60,#61,#62));
#52 = ORIENTED_EDGE('',*,*,#53,.F.);
#53 = EDGE_CURVE('',#22,#54,#56,.T.);
#54 = VERTEX_POINT('',#55);
#55 = CARTESIAN_POINT('',(-14.1,-10.,19.));
#56 = LINE('',#57,#58);
#57 = CARTESIAN_POINT('',(-13.1,-10.,18.));
#58 = VECTOR('',#59,1.);
#59 = DIRECTION('',(-0.707106781187,0.,0.707106781187));
#60 = ORIENTED_EDGE('',*,*,#30,.T.);
#61 = ORIENTED_EDGE('',*,*,#53,.T.);
#62 = ORIENTED_EDGE('',*,*,#63,.F.);
#63 = EDGE_CURVE('',#54,#54,#64,.T.);
#64 = CIRCLE('',#65,1.4);
#65 = AXIS2_PLACEMENT_3D('',#66,#67,#68);
#66 = CARTESIAN_POINT('',(-15.5,-10.,19.));
#67 = DIRECTION('',(0.,0.,1.));
#68 = DIRECTION('',(1.,0.,-0.));
#69 = CONICAL_SURFACE('',#70,2.4,0.785398163397);
#70 = AXIS2_PLACEMENT_3D('',#71,#72,#73);
#71 = CARTESIAN_POINT('',(-15.5,-10.,18.));
#72 = DIRECTION('',(-0.,-0.,-1.));
#73 = DIRECTION('',(1.,0.,-0.));
#74 = ADVANCED_FACE('',(#75,#109,#120,#123,#134,#188,#199,#210),#221,.T.
  );
#75 = FACE_BOUND('',#76,.T.);
#76 = EDGE_LOOP('',(#77,#87,#95,#103));
#77 = ORIENTED_EDGE('',*,*,#78,.T.);
#78 = EDGE_CURVE('',#79,#81,#83,.T.);
#79 = VERTEX_POINT('',#80);
#80 = CARTESIAN_POINT('',(-35.,20.,5.));
#81 = VERTEX_POINT('',#82);
#82 = CARTESIAN_POINT('',(-35.,-20.,5.));
#83 = LINE('',#84,#85);
#84 = CARTESIAN_POINT('',(-35.,22.5,5.));
#85 = VECTOR('',#86,1.);
#86 = DIRECTION('',(0.,-1.,0.));
#87 = ORIENTED_EDGE('',*,*,#88,.F.);
#88 = EDGE_CURVE('',#89,#81,#91,.T.);
#89 = VERTEX_POINT('',#90);
#90 = CARTESIAN_POINT('',(35.,-20.,5.));
#91 = LINE('',#92,#93);
#92 = CARTESIAN_POINT('',(35.,-20.,5.));
#93 = VECTOR('',#94,1.);
#94 = DIRECTION('',(-1.,0.,0.));
#95 = ORIENTED_EDGE('',*,*,#96,.T.);
#96 = EDGE_CURVE('',#89,#97,#99,.T.);
#97 = VERTEX_POINT('',#98);
#98 = CARTESIAN_POINT('',(35.,20.,5.));
#99 = LINE('',#100,#101);
#100 = CARTESIAN_POINT('',(35.,-22.5,5.));
#101 = VECTOR('',#102,1.);
#102 = DIRECTION('',(0.,1.,0.));
#103 = ORIENTED_EDGE('',*,*,#104,.F.);
#104 = EDGE_CURVE('',#79,#97,#105,.T.);
#105 = LINE('',#106,#107);
#106 = CARTESIAN_POINT('',(-35.,20.,5.));
#107 = VECTOR('',#108,1.);
#108 = DIRECTION('',(1.,0.,0.));
#109 = FACE_BOUND('',#110,.T.);
#110 = EDGE_LOOP('',(#111));
#111 = ORIENTED_EDGE('',*,*,#112,.F.);
#112 = EDGE_CURVE('',#113,#113,#115,.T.);
#113 = VERTEX_POINT('',#114);
#114 = CARTESIAN_POINT('',(-27.,-10.,5.));
#115 = CIRCLE('',#116,3.);
#116 = AXIS2_PLACEMENT_3D('',#117,#118,#119);
#117 = CARTESIAN_POINT('',(-30.,-10.,5.));
#118 = DIRECTION('',(0.,0.,1.));
#119 = DIRECTION('',(1.,0.,0.));
#120 = FACE_BOUND('',#121,.T.);
#121 = EDGE_LOOP('',(#122));
#122 = ORIENTED_EDGE('',*,*,#38,.F.);
#123 = FACE_BOUND('',#124,.T.);
#124 = EDGE_LOOP('',(#125));
#125 = ORIENTED_EDGE('',*,*,#126,.F.);
#126 = EDGE_CURVE('',#127,#127,#129,.T.);
#127 = VERTEX_POINT('',#128);
#128 = CARTESIAN_POINT('',(33.,-10.,5.));
#129 = CIRCLE('',#130,3.);
#130 = AXIS2_PLACEMENT_3D('',#131,#132,#133);
#131 = CARTESIAN_POINT('',(30.,-10.,5.));
#132 = DIRECTION('',(0.,0.,1.));
#133 = DIRECTION('',(1.,0.,0.));
#134 = FACE_BOUND('',#135,.T.);
#135 = EDGE_LOOP('',(#136,#147,#155,#164,#173,#182));
#136 = ORIENTED_EDGE('',*,*,#137,.F.);
#137 = EDGE_CURVE('',#138,#140,#142,.T.);
#138 = VERTEX_POINT('',#139);
#139 = CARTESIAN_POINT('',(-29.07996667272,3.75,5.));
#140 = VERTEX_POINT('',#141);
#141 = CARTESIAN_POINT('',(-29.07996667272,-3.75,5.));
#142 = CIRCLE('',#143,3.75);
#143 = AXIS2_PLACEMENT_3D('',#144,#145,#146);
#144 = CARTESIAN_POINT('',(-29.07996667272,0.,5.));
#145 = DIRECTION('',(0.,0.,1.));
#146 = DIRECTION('',(1.,0.,0.));
#147 = ORIENTED_EDGE('',*,*,#148,.T.);
#148 = EDGE_CURVE('',#138,#149,#151,.T.);
#149 = VERTEX_POINT('',#150);
#150 = CARTESIAN_POINT('',(-16.57996667272,3.75,5.));
#151 = LINE('',#152,#153);
#152 = CARTESIAN_POINT('',(-29.07996667272,3.75,5.));
#153 = VECTOR('',#154,1.);
#154 = DIRECTION('',(1.,0.,0.));
#155 = ORIENTED_EDGE('',*,*,#156,.T.);
#156 = EDGE_CURVE('',#149,#157,#159,.T.);
#157 = VERTEX_POINT('',#158);
#158 = CARTESIAN_POINT('',(-11.29782701492,7.183521781803,5.));
#159 = CIRCLE('',#160,5.779790134096);
#160 = AXIS2_PLACEMENT_3D('',#161,#162,#163);
#161 = CARTESIAN_POINT('',(-16.57996662054,9.529790134096,5.));
#162 = DIRECTION('',(0.,0.,1.));
#163 = DIRECTION('',(1.,0.,0.));
#164 = ORIENTED_EDGE('',*,*,#165,.F.);
#165 = EDGE_CURVE('',#166,#157,#168,.T.);
#166 = VERTEX_POINT('',#167);
#167 = CARTESIAN_POINT('',(-11.29782707754,-7.183521640836,5.));
#168 = ELLIPSE('',#169,20.079966672722,18.75);
#169 = AXIS2_PLACEMENT_3D('',#170,#171,#172);
#170 = CARTESIAN_POINT('',(7.25,0.,5.));
#171 = DIRECTION('',(-0.,0.,1.));
#172 = DIRECTION('',(1.,-1.855E-14,0.));
#173 = ORIENTED_EDGE('',*,*,#174,.T.);
#174 = EDGE_CURVE('',#166,#175,#177,.T.);
#175 = VERTEX_POINT('',#176);
#176 = CARTESIAN_POINT('',(-16.57996667272,-3.75,5.));
#177 = CIRCLE('',#178,5.779789820935);
#178 = AXIS2_PLACEMENT_3D('',#179,#180,#181);
#179 = CARTESIAN_POINT('',(-16.57996641698,-9.529789820935,5.));
#180 = DIRECTION('',(0.,0.,1.));
#181 = DIRECTION('',(1.,0.,0.));
#182 = ORIENTED_EDGE('',*,*,#183,.F.);
#183 = EDGE_CURVE('',#140,#175,#184,.T.);
#184 = LINE('',#185,#186);
#185 = CARTESIAN_POINT('',(-29.07996667272,-3.75,5.));
#186 = VECTOR('',#187,1.);
#187 = DIRECTION('',(1.,0.,0.));
#188 = FACE_BOUND('',#189,.T.);
#189 = EDGE_LOOP('',(#190));
#190 = ORIENTED_EDGE('',*,*,#191,.F.);
#191 = EDGE_CURVE('',#192,#192,#194,.T.);
#192 = VERTEX_POINT('',#193);
#193 = CARTESIAN_POINT('',(-27.,10.,5.));
#194 = CIRCLE('',#195,3.);
#195 = AXIS2_PLACEMENT_3D('',#196,#197,#198);
#196 = CARTESIAN_POINT('',(-30.,10.,5.));
#197 = DIRECTION('',(0.,0.,1.));
#198 = DIRECTION('',(1.,0.,0.));
#199 = FACE_BOUND('',#200,.T.);
#200 = EDGE_LOOP('',(#201));
#201 = ORIENTED_EDGE('',*,*,#202,.F.);
#202 = EDGE_CURVE('',#203,#203,#205,.T.);
#203 = VERTEX_POINT('',#204);
#204 = CARTESIAN_POINT('',(-13.1,10.,5.));
#205 = CIRCLE('',#206,2.4);
#206 = AXIS2_PLACEMENT_3D('',#207,#208,#209);
#207 = CARTESIAN_POINT('',(-15.5,10.,5.));
#208 = DIRECTION('',(0.,0.,1.));
#209 = DIRECTION('',(1.,0.,0.));
#210 = FACE_BOUND('',#211,.T.);
#211 = EDGE_LOOP('',(#212));
#212 = ORIENTED_EDGE('',*,*,#213,.F.);
#213 = EDGE_CURVE('',#214,#214,#216,.T.);
#214 = VERTEX_POINT('',#215);
#215 = CARTESIAN_POINT('',(33.,10.,5.));
#216 = CIRCLE('',#217,3.);
#217 = AXIS2_PLACEMENT_3D('',#218,#219,#220);
#218 = CARTESIAN_POINT('',(30.,10.,5.));
#219 = DIRECTION('',(0.,0.,1.));
#220 = DIRECTION('',(1.,0.,0.));
#221 = PLANE('',#222);
#222 = AXIS2_PLACEMENT_3D('',#223,#224,#225);
#223 = CARTESIAN_POINT('',(0.,0.,5.));
#224 = DIRECTION('',(0.,0.,1.));
#225 = DIRECTION('',(1.,0.,0.));
#226 = ADVANCED_FACE('',(#227),#230,.T.);
#227 = FACE_BOUND('',#228,.T.);
#228 = EDGE_LOOP('',(#229));
#229 = ORIENTED_EDGE('',*,*,#63,.T.);
#230 = PLANE('',#231);
#231 = AXIS2_PLACEMENT_3D('',#232,#233,#234);
#232 = CARTESIAN_POINT('',(-1.227509557885,-8.E-17,19.));
#233 = DIRECTION('',(0.,0.,1.));
#234 = DIRECTION('',(1.,0.,0.));
#235 = ADVANCED_FACE('',(#236),#293,.T.);
#236 = FACE_BOUND('',#237,.T.);
#237 = EDGE_LOOP('',(#238,#248,#256,#264,#270,#271,#279,#287));
#238 = ORIENTED_EDGE('',*,*,#239,.T.);
#239 = EDGE_CURVE('',#240,#242,#244,.T.);
#240 = VERTEX_POINT('',#241);
#241 = CARTESIAN_POINT('',(-35.,22.5,0.));
#242 = VERTEX_POINT('',#243);
#243 = CARTESIAN_POINT('',(-35.,-22.5,0.));
#244 = LINE('',#245,#246);
#245 = CARTESIAN_POINT('',(-35.,22.5,0.));
#246 = VECTOR('',#247,1.);
#247 = DIRECTION('',(0.,-1.,0.));
#248 = ORIENTED_EDGE('',*,*,#249,.T.);
#249 = EDGE_CURVE('',#242,#250,#252,.T.);
#250 = VERTEX_POINT('',#251);
#251 = CARTESIAN_POINT('',(-35.,-22.5,15.));
#252 = LINE('',#253,#254);
#253 = CARTESIAN_POINT('',(-35.,-22.5,5.));
#254 = VECTOR('',#255,1.);
#255 = DIRECTION('',(0.,0.,1.));
#256 = ORIENTED_EDGE('',*,*,#257,.F.);
#257 = EDGE_CURVE('',#258,#250,#260,.T.);
#258 = VERTEX_POINT('',#259);
#259 = CARTESIAN_POINT('',(-35.,-20.,15.));
#260 = LINE('',#261,#262);
#261 = CARTESIAN_POINT('',(-35.,-20.,15.));
#262 = VECTOR('',#263,1.);
#263 = DIRECTION('',(0.,-1.,0.));
#264 = ORIENTED_EDGE('',*,*,#265,.F.);
#265 = EDGE_CURVE('',#81,#258,#266,.T.);
#266 = LINE('',#267,#268);
#267 = CARTESIAN_POINT('',(-35.,-20.,5.));
#268 = VECTOR('',#269,1.);
#269 = DIRECTION('',(0.,0.,1.));
#270 = ORIENTED_EDGE('',*,*,#78,.F.);
#271 = ORIENTED_EDGE('',*,*,#272,.T.);
#272 = EDGE_CURVE('',#79,#273,#275,.T.);
#273 = VERTEX_POINT('',#274);
#274 = CARTESIAN_POINT('',(-35.,20.,15.));
#275 = LINE('',#276,#277);
#276 = CARTESIAN_POINT('',(-35.,20.,5.));
#277 = VECTOR('',#278,1.);
#278 = DIRECTION('',(0.,0.,1.));
#279 = ORIENTED_EDGE('',*,*,#280,.F.);
#280 = EDGE_CURVE('',#281,#273,#283,.T.);
#281 = VERTEX_POINT('',#282);
#282 = CARTESIAN_POINT('',(-35.,22.5,15.));
#283 = LINE('',#284,#285);
#284 = CARTESIAN_POINT('',(-35.,22.5,15.));
#285 = VECTOR('',#286,1.);
#286 = DIRECTION('',(0.,-1.,0.));
#287 = ORIENTED_EDGE('',*,*,#288,.F.);
#288 = EDGE_CURVE('',#240,#281,#289,.T.);
#289 = LINE('',#290,#291);
#290 = CARTESIAN_POINT('',(-35.,22.5,5.));
#291 = VECTOR('',#292,1.);
#292 = DIRECTION('',(0.,0.,1.));
#293 = PLANE('',#294);
#294 = AXIS2_PLACEMENT_3D('',#295,#296,#297);
#295 = CARTESIAN_POINT('',(-35.,0.,5.));
#296 = DIRECTION('',(-1.,-0.,-0.));
#297 = DIRECTION('',(0.,0.,-1.));
#298 = ADVANCED_FACE('',(#299),#317,.F.);
#299 = FACE_BOUND('',#300,.F.);
#300 = EDGE_LOOP('',(#301,#302,#310,#316));
#301 = ORIENTED_EDGE('',*,*,#272,.T.);
#302 = ORIENTED_EDGE('',*,*,#303,.T.);
#303 = EDGE_CURVE('',#273,#304,#306,.T.);
#304 = VERTEX_POINT('',#305);
#305 = CARTESIAN_POINT('',(35.,20.,15.));
#306 = LINE('',#307,#308);
#307 = CARTESIAN_POINT('',(-35.,20.,15.));
#308 = VECTOR('',#309,1.);
#309 = DIRECTION('',(1.,0.,0.));
#310 = ORIENTED_EDGE('',*,*,#311,.F.);
#311 = EDGE_CURVE('',#97,#304,#312,.T.);
#312 = LINE('',#313,#314);
#313 = CARTESIAN_POINT('',(35.,20.,5.));
#314 = VECTOR('',#315,1.);
#315 = DIRECTION('',(0.,0.,1.));
#316 = ORIENTED_EDGE('',*,*,#104,.F.);
#317 = PLANE('',#318);
#318 = AXIS2_PLACEMENT_3D('',#319,#320,#321);
#319 = CARTESIAN_POINT('',(-35.,20.,5.));
#320 = DIRECTION('',(0.,1.,0.));
#321 = DIRECTION('',(1.,0.,0.));
#322 = ADVANCED_FACE('',(#323),#341,.F.);
#323 = FACE_BOUND('',#324,.F.);
#324 = EDGE_LOOP('',(#325,#333,#339,#340));
#325 = ORIENTED_EDGE('',*,*,#326,.T.);
#326 = EDGE_CURVE('',#89,#327,#329,.T.);
#327 = VERTEX_POINT('',#328);
#328 = CARTESIAN_POINT('',(35.,-20.,15.));
#329 = LINE('',#330,#331);
#330 = CARTESIAN_POINT('',(35.,-20.,5.));
#331 = VECTOR('',#332,1.);
#332 = DIRECTION('',(0.,0.,1.));
#333 = ORIENTED_EDGE('',*,*,#334,.T.);
#334 = EDGE_CURVE('',#327,#258,#335,.T.);
#335 = LINE('',#336,#337);
#336 = CARTESIAN_POINT('',(35.,-20.,15.));
#337 = VECTOR('',#338,1.);
#338 = DIRECTION('',(-1.,0.,0.));
#339 = ORIENTED_EDGE('',*,*,#265,.F.);
#340 = ORIENTED_EDGE('',*,*,#88,.F.);
#341 = PLANE('',#342);
#342 = AXIS2_PLACEMENT_3D('',#343,#344,#345);
#343 = CARTESIAN_POINT('',(35.,-20.,5.));
#344 = DIRECTION('',(0.,-1.,0.));
#345 = DIRECTION('',(-1.,0.,0.));
#346 = ADVANCED_FACE('',(#347),#390,.T.);
#347 = FACE_BOUND('',#348,.T.);
#348 = EDGE_LOOP('',(#349,#359,#367,#375,#381,#382,#383,#384));
#349 = ORIENTED_EDGE('',*,*,#350,.F.);
#350 = EDGE_CURVE('',#351,#353,#355,.T.);
#351 = VERTEX_POINT('',#352);
#352 = CARTESIAN_POINT('',(35.,-22.5,0.));
#353 = VERTEX_POINT('',#354);
#354 = CARTESIAN_POINT('',(35.,-22.5,15.));
#355 = LINE('',#356,#357);
#356 = CARTESIAN_POINT('',(35.,-22.5,0.));
#357 = VECTOR('',#358,1.);
#358 = DIRECTION('',(0.,0.,1.));
#359 = ORIENTED_EDGE('',*,*,#360,.T.);
#360 = EDGE_CURVE('',#351,#361,#363,.T.);
#361 = VERTEX_POINT('',#362);
#362 = CARTESIAN_POINT('',(35.,22.5,0.));
#363 = LINE('',#364,#365);
#364 = CARTESIAN_POINT('',(35.,-22.5,0.));
#365 = VECTOR('',#366,1.);
#366 = DIRECTION('',(0.,1.,0.));
#367 = ORIENTED_EDGE('',*,*,#368,.T.);
#368 = EDGE_CURVE('',#361,#369,#371,.T.);
#369 = VERTEX_POINT('',#370);
#370 = CARTESIAN_POINT('',(35.,22.5,15.));
#371 = LINE('',#372,#373);
#372 = CARTESIAN_POINT('',(35.,22.5,0.));
#373 = VECTOR('',#374,1.);
#374 = DIRECTION('',(0.,0.,1.));
#375 = ORIENTED_EDGE('',*,*,#376,.F.);
#376 = EDGE_CURVE('',#304,#369,#377,.T.);
#377 = LINE('',#378,#379);
#378 = CARTESIAN_POINT('',(35.,20.,15.));
#379 = VECTOR('',#380,1.);
#380 = DIRECTION('',(0.,1.,0.));
#381 = ORIENTED_EDGE('',*,*,#311,.F.);
#382 = ORIENTED_EDGE('',*,*,#96,.F.);
#383 = ORIENTED_EDGE('',*,*,#326,.T.);
#384 = ORIENTED_EDGE('',*,*,#385,.F.);
#385 = EDGE_CURVE('',#353,#327,#386,.T.);
#386 = LINE('',#387,#388);
#387 = CARTESIAN_POINT('',(35.,-22.5,15.));
#388 = VECTOR('',#389,1.);
#389 = DIRECTION('',(0.,1.,0.));
#390 = PLANE('',#391);
#391 = AXIS2_PLACEMENT_3D('',#392,#393,#394);
#392 = CARTESIAN_POINT('',(35.,0.,5.));
#393 = DIRECTION('',(1.,0.,0.));
#394 = DIRECTION('',(0.,0.,1.));
#395 = ADVANCED_FACE('',(#396),#415,.F.);
#396 = FACE_BOUND('',#397,.T.);
#397 = EDGE_LOOP('',(#398,#406,#407,#408));
#398 = ORIENTED_EDGE('',*,*,#399,.T.);
#399 = EDGE_CURVE('',#400,#113,#402,.T.);
#400 = VERTEX_POINT('',#401);
#401 = CARTESIAN_POINT('',(-27.,-10.,0.));
#402 = LINE('',#403,#404);
#403 = CARTESIAN_POINT('',(-27.,-10.,0.));
#404 = VECTOR('',#405,1.);
#405 = DIRECTION('',(0.,0.,1.));
#406 = ORIENTED_EDGE('',*,*,#112,.T.);
#407 = ORIENTED_EDGE('',*,*,#399,.F.);
#408 = ORIENTED_EDGE('',*,*,#409,.F.);
#409 = EDGE_CURVE('',#400,#400,#410,.T.);
#410 = CIRCLE('',#411,3.);
#411 = AXIS2_PLACEMENT_3D('',#412,#413,#414);
#412 = CARTESIAN_POINT('',(-30.,-10.,0.));
#413 = DIRECTION('',(0.,0.,1.));
#414 = DIRECTION('',(1.,0.,0.));
#415 = CYLINDRICAL_SURFACE('',#416,3.);
#416 = AXIS2_PLACEMENT_3D('',#417,#418,#419);
#417 = CARTESIAN_POINT('',(-30.,-10.,0.));
#418 = DIRECTION('',(-0.,-0.,-1.));
#419 = DIRECTION('',(1.,0.,0.));
#420 = ADVANCED_FACE('',(#421),#440,.F.);
#421 = FACE_BOUND('',#422,.T.);
#422 = EDGE_LOOP('',(#423,#431,#432,#433));
#423 = ORIENTED_EDGE('',*,*,#424,.T.);
#424 = EDGE_CURVE('',#425,#127,#427,.T.);
#425 = VERTEX_POINT('',#426);
#426 = CARTESIAN_POINT('',(33.,-10.,0.));
#427 = LINE('',#428,#429);
#428 = CARTESIAN_POINT('',(33.,-10.,0.));
#429 = VECTOR('',#430,1.);
#430 = DIRECTION('',(0.,0.,1.));
#431 = ORIENTED_EDGE('',*,*,#126,.T.);
#432 = ORIENTED_EDGE('',*,*,#424,.F.);
#433 = ORIENTED_EDGE('',*,*,#434,.F.);
#434 = EDGE_CURVE('',#425,#425,#435,.T.);
#435 = CIRCLE('',#436,3.);
#436 = AXIS2_PLACEMENT_3D('',#437,#438,#439);
#437 = CARTESIAN_POINT('',(30.,-10.,0.));
#438 = DIRECTION('',(0.,0.,1.));
#439 = DIRECTION('',(1.,0.,0.));
#440 = CYLINDRICAL_SURFACE('',#441,3.);
#441 = AXIS2_PLACEMENT_3D('',#442,#443,#444);
#442 = CARTESIAN_POINT('',(30.,-10.,0.));
#443 = DIRECTION('',(-0.,-0.,-1.));
#444 = DIRECTION('',(1.,0.,0.));
#445 = ADVANCED_FACE('',(#446),#472,.F.);
#446 = FACE_BOUND('',#447,.F.);
#447 = EDGE_LOOP('',(#448,#449,#457,#466));
#448 = ORIENTED_EDGE('',*,*,#137,.F.);
#449 = ORIENTED_EDGE('',*,*,#450,.T.);
#450 = EDGE_CURVE('',#138,#451,#453,.T.);
#451 = VERTEX_POINT('',#452);
#452 = CARTESIAN_POINT('',(-29.07996667272,3.75,0.));
#453 = LINE('',#454,#455);
#454 = CARTESIAN_POINT('',(-29.07996667272,3.75,5.));
#455 = VECTOR('',#456,1.);
#456 = DIRECTION('',(-0.,-0.,-1.));
#457 = ORIENTED_EDGE('',*,*,#458,.T.);
#458 = EDGE_CURVE('',#451,#459,#461,.T.);
#459 = VERTEX_POINT('',#460);
#460 = CARTESIAN_POINT('',(-29.07996667272,-3.75,0.));
#461 = CIRCLE('',#462,3.75);
#462 = AXIS2_PLACEMENT_3D('',#463,#464,#465);
#463 = CARTESIAN_POINT('',(-29.07996667272,0.,0.));
#464 = DIRECTION('',(0.,0.,1.));
#465 = DIRECTION('',(1.,0.,0.));
#466 = ORIENTED_EDGE('',*,*,#467,.F.);
#467 = EDGE_CURVE('',#140,#459,#468,.T.);
#468 = LINE('',#469,#470);
#469 = CARTESIAN_POINT('',(-29.07996667272,-3.75,5.));
#470 = VECTOR('',#471,1.);
#471 = DIRECTION('',(-0.,-0.,-1.));
#472 = CYLINDRICAL_SURFACE('',#473,3.75);
#473 = AXIS2_PLACEMENT_3D('',#474,#475,#476);
#474 = CARTESIAN_POINT('',(-29.07996667272,0.,5.));
#475 = DIRECTION('',(0.,0.,1.));
#476 = DIRECTION('',(1.,0.,0.));
#477 = ADVANCED_FACE('',(#478),#496,.F.);
#478 = FACE_BOUND('',#479,.F.);
#479 = EDGE_LOOP('',(#480,#481,#482,#490));
#480 = ORIENTED_EDGE('',*,*,#183,.F.);
#481 = ORIENTED_EDGE('',*,*,#467,.T.);
#482 = ORIENTED_EDGE('',*,*,#483,.F.);
#483 = EDGE_CURVE('',#484,#459,#486,.T.);
#484 = VERTEX_POINT('',#485);
#485 = CARTESIAN_POINT('',(-16.57996667272,-3.75,0.));
#486 = LINE('',#487,#488);
#487 = CARTESIAN_POINT('',(-14.53998333636,-3.75,0.));
#488 = VECTOR('',#489,1.);
#489 = DIRECTION('',(-1.,0.,0.));
#490 = ORIENTED_EDGE('',*,*,#491,.F.);
#491 = EDGE_CURVE('',#175,#484,#492,.T.);
#492 = LINE('',#493,#494);
#493 = CARTESIAN_POINT('',(-16.57996667272,-3.75,5.));
#494 = VECTOR('',#495,1.);
#495 = DIRECTION('',(-0.,-0.,-1.));
#496 = PLANE('',#497);
#497 = AXIS2_PLACEMENT_3D('',#498,#499,#500);
#498 = CARTESIAN_POINT('',(-29.07996667272,-3.75,5.));
#499 = DIRECTION('',(0.,-1.,0.));
#500 = DIRECTION('',(1.,0.,0.));
#501 = ADVANCED_FACE('',(#502),#521,.T.);
#502 = FACE_BOUND('',#503,.T.);
#503 = EDGE_LOOP('',(#504,#505,#513,#520));
#504 = ORIENTED_EDGE('',*,*,#174,.F.);
#505 = ORIENTED_EDGE('',*,*,#506,.T.);
#506 = EDGE_CURVE('',#166,#507,#509,.T.);
#507 = VERTEX_POINT('',#508);
#508 = CARTESIAN_POINT('',(-11.29782707754,-7.183521640836,0.));
#509 = LINE('',#510,#511);
#510 = CARTESIAN_POINT('',(-11.29782707754,-7.183521640836,5.));
#511 = VECTOR('',#512,1.);
#512 = DIRECTION('',(-0.,-0.,-1.));
#513 = ORIENTED_EDGE('',*,*,#514,.T.);
#514 = EDGE_CURVE('',#507,#484,#515,.T.);
#515 = CIRCLE('',#516,5.779789820935);
#516 = AXIS2_PLACEMENT_3D('',#517,#518,#519);
#517 = CARTESIAN_POINT('',(-16.57996641698,-9.529789820935,0.));
#518 = DIRECTION('',(0.,0.,1.));
#519 = DIRECTION('',(1.,0.,0.));
#520 = ORIENTED_EDGE('',*,*,#491,.F.);
#521 = CYLINDRICAL_SURFACE('',#522,5.779789820935);
#522 = AXIS2_PLACEMENT_3D('',#523,#524,#525);
#523 = CARTESIAN_POINT('',(-16.57996641698,-9.529789820935,5.));
#524 = DIRECTION('',(0.,0.,1.));
#525 = DIRECTION('',(1.,0.,0.));
#526 = ADVANCED_FACE('',(#527),#682,.F.);
#527 = FACE_BOUND('',#528,.F.);
#528 = EDGE_LOOP('',(#529,#530,#531,#676));
#529 = ORIENTED_EDGE('',*,*,#165,.F.);
#530 = ORIENTED_EDGE('',*,*,#506,.T.);
#531 = ORIENTED_EDGE('',*,*,#532,.F.);
#532 = EDGE_CURVE('',#533,#507,#535,.T.);
#533 = VERTEX_POINT('',#534);
#534 = CARTESIAN_POINT('',(-11.29782701492,7.183521781803,0.));
#535 = B_SPLINE_CURVE_WITH_KNOTS('',7,(#536,#537,#538,#539,#540,#541,
    #542,#543,#544,#545,#546,#547,#548,#549,#550,#551,#552,#553,#554,
    #555,#556,#557,#558,#559,#560,#561,#562,#563,#564,#565,#566,#567,
    #568,#569,#570,#571,#572,#573,#574,#575,#576,#577,#578,#579,#580,
    #581,#582,#583,#584,#585,#586,#587,#588,#589,#590,#591,#592,#593,
    #594,#595,#596,#597,#598,#599,#600,#601,#602,#603,#604,#605,#606,
    #607,#608,#609,#610,#611,#612,#613,#614,#615,#616,#617,#618,#619,
    #620,#621,#622,#623,#624,#625,#626,#627,#628,#629,#630,#631,#632,
    #633,#634,#635,#636,#637,#638,#639,#640,#641,#642,#643,#644,#645,
    #646,#647,#648,#649,#650,#651,#652,#653,#654,#655,#656,#657,#658,
    #659,#660,#661,#662,#663,#664,#665,#666,#667,#668,#669,#670,#671,
    #672,#673,#674,#675),.UNSPECIFIED.,.F.,.F.,(8,6,6,6,6,6,6,6,6,6,6,6,
    6,6,6,6,6,6,6,6,6,6,6,8),(0.,7.877014362258E-02,0.121048080856,
    0.149544812153,0.215250329489,0.266636227556,0.288104268527,
    0.319582482677,0.368678977895,0.413971666371,0.441205644907,
    0.500001013839,0.541392616288,0.558797462903,0.586031249617,
    0.631323619079,0.680419768492,0.711897760926,0.733365650685,
    0.784751186801,0.850456241302,0.878952771858,0.921230411268,1.),
  .UNSPECIFIED.);
#536 = CARTESIAN_POINT('',(-11.29782701492,7.183521781803,0.));
#537 = CARTESIAN_POINT('',(-10.80802994134,8.286198940854,0.));
#538 = CARTESIAN_POINT('',(-10.23234128417,9.350798748534,0.));
#539 = CARTESIAN_POINT('',(-9.575551119701,10.369643254498,0.));
#540 = CARTESIAN_POINT('',(-8.843361987625,11.336312632366,0.));
#541 = CARTESIAN_POINT('',(-8.041973471932,12.245357300766,0.));
#542 = CARTESIAN_POINT('',(-7.177958874914,13.092207950278,0.));
#543 = CARTESIAN_POINT('',(-5.764474984571,14.292231721954,0.));
#544 = CARTESIAN_POINT('',(-5.254685361972,14.692390615256,0.));
#545 = CARTESIAN_POINT('',(-4.729814216548,15.073018090836,0.));
#546 = CARTESIAN_POINT('',(-4.190893096717,15.433620993489,0.));
#547 = CARTESIAN_POINT('',(-3.638953842995,15.773769675999,0.));
#548 = CARTESIAN_POINT('',(-3.075024054799,16.093091439815,0.));
#549 = CARTESIAN_POINT('',(-2.112619888733,16.592242149979,0.));
#550 = CARTESIAN_POINT('',(-1.720132305419,16.783611973573,0.));
#551 = CARTESIAN_POINT('',(-1.32297137271,16.965275120345,0.));
#552 = CARTESIAN_POINT('',(-0.921447244812,17.137143518605,0.));
#553 = CARTESIAN_POINT('',(-0.515868372514,17.299138676197,0.));
#554 = CARTESIAN_POINT('',(-0.106541210971,17.451191005546,0.));
#555 = CARTESIAN_POINT('',(1.257965569533,17.920762563093,0.));
#556 = CARTESIAN_POINT('',(2.227991156579,18.195093259164,0.));
#557 = CARTESIAN_POINT('',(3.21260428522,18.415493195081,0.));
#558 = CARTESIAN_POINT('',(4.208129810044,18.581433542828,0.));
#559 = CARTESIAN_POINT('',(5.210922872966,18.692577410968,0.));
#560 = CARTESIAN_POINT('',(6.217371787533,18.748762567412,0.));
#561 = CARTESIAN_POINT('',(8.011070793651,18.750939527044,0.));
#562 = CARTESIAN_POINT('',(8.798276988177,18.718277863413,0.));
#563 = CARTESIAN_POINT('',(9.583804590823,18.651998620346,0.));
#564 = CARTESIAN_POINT('',(10.36592823582,18.552161172029,0.));
#565 = CARTESIAN_POINT('',(11.142912597483,18.418888788153,0.));
#566 = CARTESIAN_POINT('',(11.913012880076,18.252372604311,0.));
#567 = CARTESIAN_POINT('',(12.992599680476,17.969529573615,0.));
#568 = CARTESIAN_POINT('',(13.309215407587,17.880427381631,0.));
#569 = CARTESIAN_POINT('',(13.624193982615,17.785588262944,0.));
#570 = CARTESIAN_POINT('',(13.937406308223,17.685034008271,0.));
#571 = CARTESIAN_POINT('',(14.248722696125,17.578788952544,0.));
#572 = CARTESIAN_POINT('',(14.558012867093,17.466879974913,0.));
#573 = CARTESIAN_POINT('',(15.315489836528,17.176984549169,0.));
#574 = CARTESIAN_POINT('',(15.761195826924,16.992518729606,0.));
#575 = CARTESIAN_POINT('',(16.201851493744,16.796032358042,0.));
#576 = CARTESIAN_POINT('',(16.637040983144,16.587631704694,0.));
#577 = CARTESIAN_POINT('',(17.066345605777,16.367437205617,0.));
#578 = CARTESIAN_POINT('',(17.48934442674,16.135584676305,0.));
#579 = CARTESIAN_POINT('',(18.554870846297,15.512661400044,0.));
#580 = CARTESIAN_POINT('',(19.18776247159,15.105105082395,0.));
#581 = CARTESIAN_POINT('',(19.802680188401,14.670138712451,0.));
#582 = CARTESIAN_POINT('',(20.398006051144,14.20844445122,0.));
#583 = CARTESIAN_POINT('',(20.972121661875,13.720815804462,0.));
#584 = CARTESIAN_POINT('',(21.523419845823,13.208172367143,0.));
#585 = CARTESIAN_POINT('',(22.536398066521,12.176558791433,0.));
#586 = CARTESIAN_POINT('',(23.001718331277,11.661149817355,0.));
#587 = CARTESIAN_POINT('',(23.445030645646,11.12619570286,0.));
#588 = CARTESIAN_POINT('',(23.86511897181,10.57263601146,0.));
#589 = CARTESIAN_POINT('',(24.260809059942,10.001511971333,0.));
#590 = CARTESIAN_POINT('',(24.630981801188,9.413976316327,0.));
#591 = CARTESIAN_POINT('',(25.18120139946,8.448929161952,0.));
#592 = CARTESIAN_POINT('',(25.378208374352,8.081077121794,0.));
#593 = CARTESIAN_POINT('',(25.565386329077,7.708028339847,0.));
#594 = CARTESIAN_POINT('',(25.742519900523,7.330072619419,0.));
#595 = CARTESIAN_POINT('',(25.909406447156,6.947512863312,0.));
#596 = CARTESIAN_POINT('',(26.065857229443,6.560665600115,0.));
#597 = CARTESIAN_POINT('',(26.526555143614,5.326155527627,0.));
#598 = CARTESIAN_POINT('',(26.79199191339,4.463930367116,0.));
#599 = CARTESIAN_POINT('',(27.006207569666,3.586611254217,0.));
#600 = CARTESIAN_POINT('',(27.167837532397,2.69777105301,0.));
#601 = CARTESIAN_POINT('',(27.275928167883,1.801123972702,0.));
#602 = CARTESIAN_POINT('',(27.329966676648,0.900528552306,0.));
#603 = CARTESIAN_POINT('',(27.329966669959,-0.633967064995,0.));
#604 = CARTESIAN_POINT('',(27.303184811252,-1.267946657113,0.));
#605 = CARTESIAN_POINT('',(27.24961923365,-1.900558938291,0.));
#606 = CARTESIAN_POINT('',(27.169392601406,-2.530451325775,0.));
#607 = CARTESIAN_POINT('',(27.062741106432,-3.156297449745,0.));
#608 = CARTESIAN_POINT('',(26.930010559019,-3.776796895889,0.));
#609 = CARTESIAN_POINT('',(26.705074210085,-4.648807113547,0.));
#610 = CARTESIAN_POINT('',(26.633958113959,-4.905770259638,0.));
#611 = CARTESIAN_POINT('',(26.558344991767,-5.161471966163,0.));
#612 = CARTESIAN_POINT('',(26.478271471065,-5.415820748482,0.));
#613 = CARTESIAN_POINT('',(26.393777095614,-5.668726918674,0.));
#614 = CARTESIAN_POINT('',(26.304904325371,-5.920102585544,0.));
#615 = CARTESIAN_POINT('',(26.065857172245,-6.560665743148,0.));
#616 = CARTESIAN_POINT('',(25.90940638658,-6.947513005169,0.));
#617 = CARTESIAN_POINT('',(25.742519836608,-7.330072760014,0.));
#618 = CARTESIAN_POINT('',(25.565386261866,-7.708028479095,0.));
#619 = CARTESIAN_POINT('',(25.378208303892,-8.081077259611,0.));
#620 = CARTESIAN_POINT('',(25.181201325801,-8.448929298256,0.));
#621 = CARTESIAN_POINT('',(24.630981719109,-9.413976448461,0.));
#622 = CARTESIAN_POINT('',(24.260808972731,-10.00151210066,0.));
#623 = CARTESIAN_POINT('',(23.865118879615,-10.57263613778,0.));
#624 = CARTESIAN_POINT('',(23.445030548627,-11.12619582598,0.));
#625 = CARTESIAN_POINT('',(23.001718229605,-11.6611499371,0.));
#626 = CARTESIAN_POINT('',(22.536397960366,-12.17655890763,0.));
#627 = CARTESIAN_POINT('',(21.523419730702,-13.20817247561,0.));
#628 = CARTESIAN_POINT('',(20.972121542297,-13.72081590873,0.));
#629 = CARTESIAN_POINT('',(20.39800592733,-14.20844455111,0.));
#630 = CARTESIAN_POINT('',(19.802680060571,-14.67013880782,0.));
#631 = CARTESIAN_POINT('',(19.187762339964,-15.10510517309,0.));
#632 = CARTESIAN_POINT('',(18.554870711107,-15.51266148594,0.));
#633 = CARTESIAN_POINT('',(17.48934428611,-16.13558475411,0.));
#634 = CARTESIAN_POINT('',(17.066345463142,-16.3674372802,0.));
#635 = CARTESIAN_POINT('',(16.6370408386,-16.58763177601,0.));
#636 = CARTESIAN_POINT('',(16.201851347386,-16.79603242605,0.));
#637 = CARTESIAN_POINT('',(15.761195678846,-16.99251879427,0.));
#638 = CARTESIAN_POINT('',(15.315489686825,-17.17698461046,0.));
#639 = CARTESIAN_POINT('',(14.558012714851,-17.46688003045,0.));
#640 = CARTESIAN_POINT('',(14.248722542918,-17.57878900572,0.));
#641 = CARTESIAN_POINT('',(13.937406154095,-17.68503405908,0.));
#642 = CARTESIAN_POINT('',(13.624193827612,-17.78558831138,0.));
#643 = CARTESIAN_POINT('',(13.309215251752,-17.88042742767,0.));
#644 = CARTESIAN_POINT('',(12.992599523854,-17.96952961725,0.));
#645 = CARTESIAN_POINT('',(11.913012721074,-18.25237263972,0.));
#646 = CARTESIAN_POINT('',(11.142912437103,-18.4188888177,0.));
#647 = CARTESIAN_POINT('',(10.365928074317,-18.55216119567,0.));
#648 = CARTESIAN_POINT('',(9.583804428452,-18.65199863806,0.));
#649 = CARTESIAN_POINT('',(8.798276825195,-18.71827787517,0.));
#650 = CARTESIAN_POINT('',(8.011070630312,-18.75093953282,0.));
#651 = CARTESIAN_POINT('',(6.21737162428,-18.74876255956,0.));
#652 = CARTESIAN_POINT('',(5.210922710319,-18.69257739549,0.));
#653 = CARTESIAN_POINT('',(4.208129648419,-18.58143351975,0.));
#654 = CARTESIAN_POINT('',(3.212604125034,-18.41549316446,0.));
#655 = CARTESIAN_POINT('',(2.227990998248,-18.19509322106,0.));
#656 = CARTESIAN_POINT('',(1.257965413477,-17.9207625176,0.));
#657 = CARTESIAN_POINT('',(-0.106541363066,-17.45119094964,0.));
#658 = CARTESIAN_POINT('',(-0.515868523269,-17.29913861718,0.));
#659 = CARTESIAN_POINT('',(-0.921447394147,-17.13714345651,0.));
#660 = CARTESIAN_POINT('',(-1.322971520549,-16.9652750552,0.));
#661 = CARTESIAN_POINT('',(-1.720132451683,-16.78361190541,0.));
#662 = CARTESIAN_POINT('',(-2.112620033344,-16.59224207883,0.));
#663 = CARTESIAN_POINT('',(-3.075024195048,-16.09309136135,0.));
#664 = CARTESIAN_POINT('',(-3.638953980443,-15.77376959326,0.));
#665 = CARTESIAN_POINT('',(-4.190893231195,-15.43362090656,0.));
#666 = CARTESIAN_POINT('',(-4.729814347888,-15.07301799982,0.));
#667 = CARTESIAN_POINT('',(-5.254685490007,-14.69239052024,0.));
#668 = CARTESIAN_POINT('',(-5.764475109134,-14.29223162305,0.));
#669 = CARTESIAN_POINT('',(-7.177958989066,-13.09220784059,0.));
#670 = CARTESIAN_POINT('',(-8.041973578733,-12.24535718448,0.));
#671 = CARTESIAN_POINT('',(-8.843362086552,-11.33631250992,0.));
#672 = CARTESIAN_POINT('',(-9.575551210184,-10.36964312649,0.));
#673 = CARTESIAN_POINT('',(-10.23234136577,-9.350798615493,0.));
#674 = CARTESIAN_POINT('',(-10.80803001362,-8.286198803496,0.));
#675 = CARTESIAN_POINT('',(-11.29782707754,-7.183521640836,0.));
#676 = ORIENTED_EDGE('',*,*,#677,.F.);
#677 = EDGE_CURVE('',#157,#533,#678,.T.);
#678 = LINE('',#679,#680);
#679 = CARTESIAN_POINT('',(-11.29782701492,7.183521781803,5.));
#680 = VECTOR('',#681,1.);
#681 = DIRECTION('',(-0.,-0.,-1.));
#682 = SURFACE_OF_LINEAR_EXTRUSION('',#683,#688);
#683 = ELLIPSE('',#684,20.079966672722,18.75);
#684 = AXIS2_PLACEMENT_3D('',#685,#686,#687);
#685 = CARTESIAN_POINT('',(7.25,0.,5.));
#686 = DIRECTION('',(-0.,0.,1.));
#687 = DIRECTION('',(1.,-1.855E-14,0.));
#688 = VECTOR('',#689,1.);
#689 = DIRECTION('',(0.,0.,1.));
#690 = ADVANCED_FACE('',(#691),#710,.T.);
#691 = FACE_BOUND('',#692,.T.);
#692 = EDGE_LOOP('',(#693,#694,#702,#709));
#693 = ORIENTED_EDGE('',*,*,#156,.F.);
#694 = ORIENTED_EDGE('',*,*,#695,.T.);
#695 = EDGE_CURVE('',#149,#696,#698,.T.);
#696 = VERTEX_POINT('',#697);
#697 = CARTESIAN_POINT('',(-16.57996667272,3.75,0.));
#698 = LINE('',#699,#700);
#699 = CARTESIAN_POINT('',(-16.57996667272,3.75,5.));
#700 = VECTOR('',#701,1.);
#701 = DIRECTION('',(-0.,-0.,-1.));
#702 = ORIENTED_EDGE('',*,*,#703,.T.);
#703 = EDGE_CURVE('',#696,#533,#704,.T.);
#704 = CIRCLE('',#705,5.779790134096);
#705 = AXIS2_PLACEMENT_3D('',#706,#707,#708);
#706 = CARTESIAN_POINT('',(-16.57996662054,9.529790134096,0.));
#707 = DIRECTION('',(0.,0.,1.));
#708 = DIRECTION('',(1.,0.,0.));
#709 = ORIENTED_EDGE('',*,*,#677,.F.);
#710 = CYLINDRICAL_SURFACE('',#711,5.779790134096);
#711 = AXIS2_PLACEMENT_3D('',#712,#713,#714);
#712 = CARTESIAN_POINT('',(-16.57996662054,9.529790134096,5.));
#713 = DIRECTION('',(0.,0.,1.));
#714 = DIRECTION('',(1.,0.,0.));
#715 = ADVANCED_FACE('',(#716),#727,.T.);
#716 = FACE_BOUND('',#717,.T.);
#717 = EDGE_LOOP('',(#718,#719,#720,#726));
#718 = ORIENTED_EDGE('',*,*,#148,.F.);
#719 = ORIENTED_EDGE('',*,*,#450,.T.);
#720 = ORIENTED_EDGE('',*,*,#721,.F.);
#721 = EDGE_CURVE('',#696,#451,#722,.T.);
#722 = LINE('',#723,#724);
#723 = CARTESIAN_POINT('',(-14.53998333636,3.75,0.));
#724 = VECTOR('',#725,1.);
#725 = DIRECTION('',(-1.,0.,0.));
#726 = ORIENTED_EDGE('',*,*,#695,.F.);
#727 = PLANE('',#728);
#728 = AXIS2_PLACEMENT_3D('',#729,#730,#731);
#729 = CARTESIAN_POINT('',(-29.07996667272,3.75,5.));
#730 = DIRECTION('',(0.,-1.,0.));
#731 = DIRECTION('',(1.,0.,0.));
#732 = ADVANCED_FACE('',(#733),#752,.F.);
#733 = FACE_BOUND('',#734,.T.);
#734 = EDGE_LOOP('',(#735,#743,#744,#745));
#735 = ORIENTED_EDGE('',*,*,#736,.T.);
#736 = EDGE_CURVE('',#737,#192,#739,.T.);
#737 = VERTEX_POINT('',#738);
#738 = CARTESIAN_POINT('',(-27.,10.,0.));
#739 = LINE('',#740,#741);
#740 = CARTESIAN_POINT('',(-27.,10.,0.));
#741 = VECTOR('',#742,1.);
#742 = DIRECTION('',(0.,0.,1.));
#743 = ORIENTED_EDGE('',*,*,#191,.T.);
#744 = ORIENTED_EDGE('',*,*,#736,.F.);
#745 = ORIENTED_EDGE('',*,*,#746,.F.);
#746 = EDGE_CURVE('',#737,#737,#747,.T.);
#747 = CIRCLE('',#748,3.);
#748 = AXIS2_PLACEMENT_3D('',#749,#750,#751);
#749 = CARTESIAN_POINT('',(-30.,10.,0.));
#750 = DIRECTION('',(0.,0.,1.));
#751 = DIRECTION('',(1.,0.,0.));
#752 = CYLINDRICAL_SURFACE('',#753,3.);
#753 = AXIS2_PLACEMENT_3D('',#754,#755,#756);
#754 = CARTESIAN_POINT('',(-30.,10.,0.));
#755 = DIRECTION('',(-0.,-0.,-1.));
#756 = DIRECTION('',(1.,0.,0.));
#757 = ADVANCED_FACE('',(#758),#776,.T.);
#758 = FACE_BOUND('',#759,.F.);
#759 = EDGE_LOOP('',(#760,#767,#774,#775));
#760 = ORIENTED_EDGE('',*,*,#761,.F.);
#761 = EDGE_CURVE('',#762,#203,#764,.T.);
#762 = VERTEX_POINT('',#763);
#763 = CARTESIAN_POINT('',(-13.1,10.,18.));
#764 = B_SPLINE_CURVE_WITH_KNOTS('',1,(#765,#766),.UNSPECIFIED.,.F.,.F.,
  (2,2),(-14.,0.),.PIECEWISE_BEZIER_KNOTS.);
#765 = CARTESIAN_POINT('',(-13.1,10.,19.));
#766 = CARTESIAN_POINT('',(-13.1,10.,5.));
#767 = ORIENTED_EDGE('',*,*,#768,.T.);
#768 = EDGE_CURVE('',#762,#762,#769,.T.);
#769 = CIRCLE('',#770,2.4);
#770 = AXIS2_PLACEMENT_3D('',#771,#772,#773);
#771 = CARTESIAN_POINT('',(-15.5,10.,18.));
#772 = DIRECTION('',(0.,0.,1.));
#773 = DIRECTION('',(1.,0.,-0.));
#774 = ORIENTED_EDGE('',*,*,#761,.T.);
#775 = ORIENTED_EDGE('',*,*,#202,.F.);
#776 = CYLINDRICAL_SURFACE('',#777,2.4);
#777 = AXIS2_PLACEMENT_3D('',#778,#779,#780);
#778 = CARTESIAN_POINT('',(-15.5,10.,5.));
#779 = DIRECTION('',(-0.,-0.,-1.));
#780 = DIRECTION('',(1.,0.,0.));
#781 = ADVANCED_FACE('',(#782),#801,.F.);
#782 = FACE_BOUND('',#783,.T.);
#783 = EDGE_LOOP('',(#784,#792,#793,#794));
#784 = ORIENTED_EDGE('',*,*,#785,.T.);
#785 = EDGE_CURVE('',#786,#214,#788,.T.);
#786 = VERTEX_POINT('',#787);
#787 = CARTESIAN_POINT('',(33.,10.,0.));
#788 = LINE('',#789,#790);
#789 = CARTESIAN_POINT('',(33.,10.,0.));
#790 = VECTOR('',#791,1.);
#791 = DIRECTION('',(0.,0.,1.));
#792 = ORIENTED_EDGE('',*,*,#213,.T.);
#793 = ORIENTED_EDGE('',*,*,#785,.F.);
#794 = ORIENTED_EDGE('',*,*,#795,.F.);
#795 = EDGE_CURVE('',#786,#786,#796,.T.);
#796 = CIRCLE('',#797,3.);
#797 = AXIS2_PLACEMENT_3D('',#798,#799,#800);
#798 = CARTESIAN_POINT('',(30.,10.,0.));
#799 = DIRECTION('',(0.,0.,1.));
#800 = DIRECTION('',(1.,0.,0.));
#801 = CYLINDRICAL_SURFACE('',#802,3.);
#802 = AXIS2_PLACEMENT_3D('',#803,#804,#805);
#803 = CARTESIAN_POINT('',(30.,10.,0.));
#804 = DIRECTION('',(-0.,-0.,-1.));
#805 = DIRECTION('',(1.,0.,0.));
#806 = ADVANCED_FACE('',(#807,#823,#826,#834,#837,#840),#843,.F.);
#807 = FACE_BOUND('',#808,.F.);
#808 = EDGE_LOOP('',(#809,#815,#816,#822));
#809 = ORIENTED_EDGE('',*,*,#810,.T.);
#810 = EDGE_CURVE('',#242,#351,#811,.T.);
#811 = LINE('',#812,#813);
#812 = CARTESIAN_POINT('',(-35.,-22.5,0.));
#813 = VECTOR('',#814,1.);
#814 = DIRECTION('',(1.,0.,0.));
#815 = ORIENTED_EDGE('',*,*,#360,.T.);
#816 = ORIENTED_EDGE('',*,*,#817,.T.);
#817 = EDGE_CURVE('',#361,#240,#818,.T.);
#818 = LINE('',#819,#820);
#819 = CARTESIAN_POINT('',(35.,22.5,0.));
#820 = VECTOR('',#821,1.);
#821 = DIRECTION('',(-1.,0.,0.));
#822 = ORIENTED_EDGE('',*,*,#239,.T.);
#823 = FACE_BOUND('',#824,.F.);
#824 = EDGE_LOOP('',(#825));
#825 = ORIENTED_EDGE('',*,*,#409,.F.);
#826 = FACE_BOUND('',#827,.F.);
#827 = EDGE_LOOP('',(#828,#829,#830,#831,#832,#833));
#828 = ORIENTED_EDGE('',*,*,#458,.F.);
#829 = ORIENTED_EDGE('',*,*,#721,.F.);
#830 = ORIENTED_EDGE('',*,*,#703,.T.);
#831 = ORIENTED_EDGE('',*,*,#532,.T.);
#832 = ORIENTED_EDGE('',*,*,#514,.T.);
#833 = ORIENTED_EDGE('',*,*,#483,.T.);
#834 = FACE_BOUND('',#835,.F.);
#835 = EDGE_LOOP('',(#836));
#836 = ORIENTED_EDGE('',*,*,#434,.F.);
#837 = FACE_BOUND('',#838,.F.);
#838 = EDGE_LOOP('',(#839));
#839 = ORIENTED_EDGE('',*,*,#746,.F.);
#840 = FACE_BOUND('',#841,.F.);
#841 = EDGE_LOOP('',(#842));
#842 = ORIENTED_EDGE('',*,*,#795,.F.);
#843 = PLANE('',#844);
#844 = AXIS2_PLACEMENT_3D('',#845,#846,#847);
#845 = CARTESIAN_POINT('',(0.,0.,0.));
#846 = DIRECTION('',(0.,0.,1.));
#847 = DIRECTION('',(1.,0.,0.));
#848 = ADVANCED_FACE('',(#849),#860,.T.);
#849 = FACE_BOUND('',#850,.T.);
#850 = EDGE_LOOP('',(#851,#852,#853,#859));
#851 = ORIENTED_EDGE('',*,*,#810,.T.);
#852 = ORIENTED_EDGE('',*,*,#350,.T.);
#853 = ORIENTED_EDGE('',*,*,#854,.F.);
#854 = EDGE_CURVE('',#250,#353,#855,.T.);
#855 = LINE('',#856,#857);
#856 = CARTESIAN_POINT('',(-35.,-22.5,15.));
#857 = VECTOR('',#858,1.);
#858 = DIRECTION('',(1.,0.,0.));
#859 = ORIENTED_EDGE('',*,*,#249,.F.);
#860 = PLANE('',#861);
#861 = AXIS2_PLACEMENT_3D('',#862,#863,#864);
#862 = CARTESIAN_POINT('',(0.,-22.5,7.5));
#863 = DIRECTION('',(-0.,-1.,-0.));
#864 = DIRECTION('',(0.,0.,-1.));
#865 = ADVANCED_FACE('',(#866),#872,.T.);
#866 = FACE_BOUND('',#867,.T.);
#867 = EDGE_LOOP('',(#868,#869,#870,#871));
#868 = ORIENTED_EDGE('',*,*,#385,.T.);
#869 = ORIENTED_EDGE('',*,*,#334,.T.);
#870 = ORIENTED_EDGE('',*,*,#257,.T.);
#871 = ORIENTED_EDGE('',*,*,#854,.T.);
#872 = PLANE('',#873);
#873 = AXIS2_PLACEMENT_3D('',#874,#875,#876);
#874 = CARTESIAN_POINT('',(-1.227509557885,-8.E-17,15.));
#875 = DIRECTION('',(0.,0.,1.));
#876 = DIRECTION('',(1.,0.,0.));
#877 = ADVANCED_FACE('',(#878),#889,.T.);
#878 = FACE_BOUND('',#879,.T.);
#879 = EDGE_LOOP('',(#880,#881,#882,#883));
#880 = ORIENTED_EDGE('',*,*,#280,.T.);
#881 = ORIENTED_EDGE('',*,*,#303,.T.);
#882 = ORIENTED_EDGE('',*,*,#376,.T.);
#883 = ORIENTED_EDGE('',*,*,#884,.T.);
#884 = EDGE_CURVE('',#369,#281,#885,.T.);
#885 = LINE('',#886,#887);
#886 = CARTESIAN_POINT('',(35.,22.5,15.));
#887 = VECTOR('',#888,1.);
#888 = DIRECTION('',(-1.,0.,0.));
#889 = PLANE('',#890);
#890 = AXIS2_PLACEMENT_3D('',#891,#892,#893);
#891 = CARTESIAN_POINT('',(-1.227509557885,-8.E-17,15.));
#892 = DIRECTION('',(0.,0.,1.));
#893 = DIRECTION('',(1.,0.,0.));
#894 = ADVANCED_FACE('',(#895),#901,.T.);
#895 = FACE_BOUND('',#896,.T.);
#896 = EDGE_LOOP('',(#897,#898,#899,#900));
#897 = ORIENTED_EDGE('',*,*,#368,.F.);
#898 = ORIENTED_EDGE('',*,*,#817,.T.);
#899 = ORIENTED_EDGE('',*,*,#288,.T.);
#900 = ORIENTED_EDGE('',*,*,#884,.F.);
#901 = PLANE('',#902);
#902 = AXIS2_PLACEMENT_3D('',#903,#904,#905);
#903 = CARTESIAN_POINT('',(0.,22.5,7.5));
#904 = DIRECTION('',(0.,1.,0.));
#905 = DIRECTION('',(0.,0.,1.));
#906 = ADVANCED_FACE('',(#907),#926,.T.);
#907 = FACE_BOUND('',#908,.T.);
#908 = EDGE_LOOP('',(#909,#917,#918,#919));
#909 = ORIENTED_EDGE('',*,*,#910,.F.);
#910 = EDGE_CURVE('',#762,#911,#913,.T.);
#911 = VERTEX_POINT('',#912);
#912 = CARTESIAN_POINT('',(-14.1,10.,19.));
#913 = LINE('',#914,#915);
#914 = CARTESIAN_POINT('',(-13.1,10.,18.));
#915 = VECTOR('',#916,1.);
#916 = DIRECTION('',(-0.707106781187,0.,0.707106781187));
#917 = ORIENTED_EDGE('',*,*,#768,.T.);
#918 = ORIENTED_EDGE('',*,*,#910,.T.);
#919 = ORIENTED_EDGE('',*,*,#920,.F.);
#920 = EDGE_CURVE('',#911,#911,#921,.T.);
#921 = CIRCLE('',#922,1.4);
#922 = AXIS2_PLACEMENT_3D('',#923,#924,#925);
#923 = CARTESIAN_POINT('',(-15.5,10.,19.));
#924 = DIRECTION('',(0.,0.,1.));
#925 = DIRECTION('',(1.,0.,-0.));
#926 = CONICAL_SURFACE('',#927,2.4,0.785398163397);
#927 = AXIS2_PLACEMENT_3D('',#928,#929,#930);
#928 = CARTESIAN_POINT('',(-15.5,10.,18.));
#929 = DIRECTION('',(-0.,-0.,-1.));
#930 = DIRECTION('',(1.,0.,-0.));
#931 = ADVANCED_FACE('',(#932),#935,.T.);
#932 = FACE_BOUND('',#933,.T.);
#933 = EDGE_LOOP('',(#934));
#934 = ORIENTED_EDGE('',*,*,#920,.T.);
#935 = PLANE('',#936);
#936 = AXIS2_PLACEMENT_3D('',#937,#938,#939);
#937 = CARTESIAN_POINT('',(-1.227509557885,-8.E-17,19.));
#938 = DIRECTION('',(0.,0.,1.));
#939 = DIRECTION('',(1.,0.,0.));
#940 = ( GEOMETRIC_REPRESENTATION_CONTEXT(3) 
GLOBAL_UNCERTAINTY_ASSIGNED_CONTEXT((#944)) GLOBAL_UNIT_ASSIGNED_CONTEXT
((#941,#942,#943)) REPRESENTATION_CONTEXT('Context #1',
  '3D Context with UNIT and UNCERTAINTY') );
#941 = ( LENGTH_UNIT() NAMED_UNIT(*) SI_UNIT(.MILLI.,.METRE.) );
#942 = ( NAMED_UNIT(*) PLANE_ANGLE_UNIT() SI_UNIT($,.RADIAN.) );
#943 = ( NAMED_UNIT(*) SI_UNIT($,.STERADIAN.) SOLID_ANGLE_UNIT() );
#944 = UNCERTAINTY_MEASURE_WITH_UNIT(LENGTH_MEASURE(1.E-06),#941,
  'distance_accuracy_value','confusion accuracy');
#945 = PRODUCT_RELATED_PRODUCT_CATEGORY('part',$,(#7));
#946 = MECHANICAL_DESIGN_GEOMETRIC_PRESENTATION_REPRESENTATION('',(#947)
  ,#940);
#947 = STYLED_ITEM('color',(#948),#15);
#948 = PRESENTATION_STYLE_ASSIGNMENT((#949,#955));
#949 = SURFACE_STYLE_USAGE(.BOTH.,#950);
#950 = SURFACE_SIDE_STYLE('',(#951));
#951 = SURFACE_STYLE_FILL_AREA(#952);
#952 = FILL_AREA_STYLE('',(#953));
#953 = FILL_AREA_STYLE_COLOUR('',#954);
#954 = COLOUR_RGB('',0.447058818107,0.474509808674,0.501960817233);
#955 = CURVE_STYLE('',#956,POSITIVE_LENGTH_MEASURE(0.1),#957);
#956 = DRAUGHTING_PRE_DEFINED_CURVE_FONT('continuous');
#957 = COLOUR_RGB('',9.803921802644E-02,9.803921802644E-02,
  9.803921802644E-02);
ENDSEC;
END-ISO-10303-21;
